<svg id="Layer_1" data-name="Layer 1" xmlns="http://www.w3.org/2000/svg" viewBox="0 0 500 500"><title>Mapa_Artboard 1</title><polygon points="305.7 264.84 298.68 263.87 298.47 265.57 298.27 266.18 297.79 266.84 294.88 269.92 293.04 271.24 292.39 271.69 290.05 272.75 288.89 272.89 288.25 272.88 288.01 273.19 284.38 275.61 282.33 277.22 281.47 278.26 280.98 279.5 279.75 283.79 279.21 285.07 278.42 286.16 276.77 287.53 275.73 289.12 275.01 290.55 274.83 290.93 286.76 302.36 305.7 264.84" style="fill:#ede2e9"/><polygon points="300.66 254.92 300.17 255.8 299.61 257.23 299.31 258.51 298.68 263.87 305.7 264.84 300.66 254.92" style="fill:#eee6ec"/><polygon points="328.56 172.9 310.57 181.38 310.94 181.54 312.03 181.44 312.41 181.98 312.48 182.57 312.81 182.91 312.83 183.73 312.89 185.27 312.8 186.81 312.9 187.36 313.39 187.89 314.37 188.83 314.74 189.16 315.1 189.62 314.97 190.38 314.73 193.83 314.49 194.29 314.09 195.4 314.23 196.15 313.8 197.7 311.72 201.49 311.23 202.05 356.63 216.68 328.56 172.9" style="fill:#d3d0dc"/><polygon points="224.09 292.63 223.12 293.17 222.34 294.27 222.42 295.21 222.67 295.64 222.47 296.16 222.1 296.78 221.68 297.17 221.89 297.56 221.47 298 221.23 298.54 221.02 299.34 220.9 300.2 221.08 300.62 221.63 300.66 221.69 300.28 221.98 300.2 222.33 300.47 222.49 300.99 222.43 301.44 225.65 291.81 224.09 292.63" style="fill:#e3e4e8"/><polygon points="237.54 294.25 237.62 293.78 237.67 293.27 237.45 293.24 237.44 294.43 237.54 294.25" style="fill:#ede2ea"/><polygon points="286.76 302.36 274.83 290.93 274.48 291.65 273.71 292.49 270.53 294.38 267.38 297.46 265.12 299.06 264.06 299.55 262.86 299.8 260.99 299.49 260.4 300.21 259.75 300.87 258.23 301.51 255.35 303.32 252.84 304.22 249.35 305.66 246.64 306.27 244.19 306.74 242.73 307.49 242.16 307.88 241.78 308.73 241.94 309.38 241.76 309.9 241.63 310.46 241.25 311.07 240.94 311.98 240.01 312.58 239.53 313.23 238.55 313.43 237.28 313.21 237.14 328.63 286.76 302.36" style="fill:#ede2ea"/><polygon points="237.69 290.51 238.23 290.29 238.81 290.4 239.29 290.42 240.03 290.2 240.16 289.94 240.24 289.49 239.86 289.2 239.81 288.81 240.02 288.15 239.74 287.78 238.47 287.29 237.5 287.49 237.48 290.64 237.69 290.51" style="fill:#ede2ea"/><polygon points="237.28 313.21 236.94 313.15 235.7 313.39 234.57 313.3 233.76 312.76 232.43 312.31 231.65 311.61 230.32 310.77 229.82 309.6 230.87 308.15 230.93 307.31 231.69 306.37 231.53 304.48 231.68 302.56 231.49 301.92 231.25 301.79 230.85 302.04 230.28 303.38 229.6 303.68 229.13 303.51 228.3 302.56 227.75 302.48 227.17 302.79 226.64 302.91 226.26 302.67 226.46 302.25 226.47 301.52 227.01 301.54 227.16 301.29 227.23 300.57 226.8 300.39 227.15 299.41 227.82 298.57 228.1 298.05 228.21 297.78 228.53 297.67 228.79 297.34 229.04 297.34 228.94 297.56 228.64 297.93 229.05 298.26 229.61 298.63 230.56 299.02 230.92 298.8 231.09 298.35 231.69 298.17 232.15 297.88 232.17 297.22 232.77 296.44 233.22 295.69 234.81 295.1 236.04 295.37 236.63 295.4 236.84 295.07 237.35 294.61 237.44 294.43 237.45 293.24 237.15 293.19 236.83 292.43 237.07 291.29 237.28 290.76 237.48 290.64 237.5 287.49 237.34 287.52 233.36 288.77 232.73 289.29 232.17 289.95 231.42 290.12 228.33 291.76 227.45 291.8 226.81 291.48 225.73 291.76 225.65 291.81 222.43 301.44 222.25 302.68 222.31 303.4 222.62 303.65 222.93 304.8 223.42 305.25 223.64 305.89 223.45 306.86 223.2 307.43 223.15 307.75 223.37 307.97 223.57 308.17 223.58 308.97 223.44 309.61 221.45 314.3 220.05 316.59 218.38 318.78 237.14 328.63 237.28 313.21" style="fill:#e4dfe6"/><polygon points="311.23 202.05 310.68 202.67 309.42 203.48 308.81 203.43 307.21 202.73 306.01 201.92 305.93 202.52 306.02 203.5 306.54 203.79 306.11 204.04 306.23 204.77 306.84 205.53 307.06 205.91 307.44 206.81 307.68 207.09 309.51 207.09 310.03 206.96 310.34 206.65 310.6 206.25 310.97 205.88 312.21 205.68 313.47 206.32 314.54 207.34 315.19 208.27 315.51 209.36 315.51 210.2 316.08 211.66 316.08 212.69 315.78 219.44 314.98 222.83 314.28 225.62 313.39 226.61 312.5 227.02 312.08 227.87 311.71 229.18 311.55 230.28 311.49 231.7 311.38 232.36 311.06 233 310.88 233.56 310.69 234.82 310.63 235.04 356.63 216.68 311.23 202.05" style="fill:#dfd8e1"/><polygon points="356.63 216.68 310.63 235.04 310.41 235.86 309.23 239.01 308.06 243.3 307.32 244.62 306.44 245.76 303.94 247.99 303.16 249.12 302.62 250.54 301.21 253.95 300.66 254.92 305.7 264.84 356.63 216.68" style="fill:#e7dae4"/><polygon points="286.76 302.36 336.39 274.84 305.7 264.84 286.76 302.36" style="fill:#ead5e3"/><polygon points="237.14 328.63 207.1 371.16 225.4 369.24 225.39 369.17 225.54 369.22 226.39 369.13 226.56 368.69 226.95 368.83 226.92 369.08 260.64 365.53 237.14 328.63" style="fill:#e3d0df"/><polygon points="323.29 167.36 323.26 167.5 323.3 168.36 323.1 169.01 322.75 171.23 322.02 173.42 321.66 174.01 321.17 174.44 320.57 174.63 319.98 174.34 318.76 175.23 318.35 175.65 317.85 175.82 317.44 175.84 317.09 175.66 316.36 175.08 315.7 175 314.36 175.91 314.05 176.77 313.57 177.63 313.28 178.2 312.69 178.48 312.33 179.29 311.61 179.45 311.06 180.06 310.49 180.64 310.39 181.3 310.57 181.38 328.56 172.9 323.29 167.36" style="fill:#c8d2da"/><polygon points="336.39 274.84 356.63 216.68 305.7 264.84 336.39 274.84" style="fill:#ead6e3"/><polygon points="237.14 328.63 218.38 318.78 216.23 321.59 207.1 371.16 237.14 328.63" style="fill:#ddd2de"/><polygon points="260.64 365.53 286.76 302.36 237.14 328.63 260.64 365.53" style="fill:#ead5e3"/><polygon points="286.76 302.36 331.22 328.01 331.74 327.46 331.96 326.6 331.93 326.06 331.56 324.78 331.55 324.25 331.93 321.84 332.36 320.71 333.9 318.09 335.25 313.04 335.52 312.48 336.69 310.72 336.81 310.42 336.94 310.07 336.94 309.48 337 309.09 337.23 308.92 337.45 308.81 337.87 308.34 338.54 308.15 339.46 307.54 340.17 307.39 340.41 307.31 340.56 307.17 336.39 274.84 286.76 302.36" style="fill:#e7cadd"/><polygon points="216.23 321.59 214.16 324.3 212.82 325.68 211.82 326.53 210.46 327.14 209.91 327.98 207.6 329.91 206.65 330.32 206.15 330.25 205.57 330.29 205.43 330.51 205.87 331.24 205.45 332.07 205.1 332.55 204.69 333.35 203.3 335.03 202.95 336.03 202.58 336.81 202.08 337.91 201.72 338.33 201.05 338.72 200.88 339.61 201.26 340.05 201.92 340.85 201.95 341.61 201.9 342.53 202.42 343 203.45 344.08 204.06 344.54 204.23 344.97 204.56 345.51 204.87 346.16 204.88 346.69 204.69 347.25 204.68 347.86 204.67 348.17 204.4 348.53 204.43 348.99 204.37 349.2 204.18 349.37 204.02 349.94 203.41 350.04 203.29 349.66 202.84 349.3 202.98 348.95 203.26 348.96 203.4 348.55 203.17 347.93 202.96 347.41 203.02 347.14 202.63 346.51 201.56 347.35 200.84 347.74 200.86 348.65 201.24 348.57 201.36 348.97 201.33 349.46 201.06 350.15 201.56 350.54 201.53 350.98 201.27 351.12 200.7 351.03 200.38 351.37 199.82 351.71 199.54 351.49 199.32 351.18 198.37 351.4 197.97 351.16 197.61 350.87 197.12 350.51 196.79 350.55 196.91 350.96 197.31 351.42 197.43 351.55 197.52 352.01 197.71 352.26 197.91 352.43 198 352.68 197.59 352.86 197.19 353 196.9 352.73 196.58 352.81 196.5 353.04 196.92 353.77 197.12 354.02 197.43 354.15 196.76 354.4 196.29 354.25 195.82 353.64 195.23 353.67 195 353.17 194.73 352.96 193.82 353.24 193.42 353.77 193.9 353.95 194.24 354.55 195.01 354.18 195.01 354.84 194.72 355.33 194.34 355.6 193.56 355.56 192.11 355.94 191.47 355.73 191.82 355.5 192.02 354.57 192.66 354.31 192.81 354.15 192.22 353.87 191.54 354.22 190.99 354.72 190.75 355.12 190.19 355.42 189.93 355.53 189.67 355.56 188.87 355.53 188.35 355.35 188.28 354.9 188.39 354.3 188.38 353.7 188.11 354.24 187.91 354.5 187.71 354.61 187.45 354.55 187.44 354.39 187.49 354.17 187.44 353.85 187.56 353.33 187.2 353.11 186.7 352.92 186.87 352.41 187 351.87 186.34 352.3 186.23 352.64 185.96 352.98 185.68 353.25 185.31 353.37 184.49 353.38 184.14 353.5 183.48 354.05 183.83 354.95 184.49 355.23 185.29 355.06 185.29 355.88 185.09 356.07 184.4 355.75 183.9 355.72 183.54 356.24 183.43 356.46 207.1 371.16 216.23 321.59" style="fill:#cecbd8"/><polygon points="183.12 355.76 183.25 355.46 183.42 355.02 183.11 354.48 182.88 354.68 182.46 354.85 180.7 353.9 180.73 353.37 181.07 353.39 181.35 353.39 181.6 353.21 181.45 353.07 181.11 352.93 180.97 352.26 180.6 352.5 180.22 353.04 179.84 353.34 179.8 353.92 179.5 353.97 179.28 353.79 179.28 353.14 179.75 352.4 180.53 351.51 180.8 351.23 180.92 350.81 181.26 350.1 181.84 349.71 182.4 350.07 182.59 349.62 182.53 349.04 182.21 348.29 181.77 347.63 181.35 347.35 181.03 346.76 180.37 346.28 179.9 346.57 179.16 346.68 177.77 346.95 176.36 347.38 176.41 347.81 175.25 348.62 174.81 348.91 174.3 348.97 173.66 349.01 172.86 349.54 172.98 349.96 172.96 349.97 182.95 356.17 183.12 355.76" style="fill:#cecbd8"/><polygon points="183.43 356.46 183.27 356.79 182.96 357.04 182.8 356.66 182.85 356.39 182.95 356.17 172.96 349.97 172.69 350.07 172.51 350.17 171.95 350.62 171.63 350.51 171.12 350.36 170.77 350.46 170.65 350.09 170.16 350.06 169.57 350.48 169.34 350.09 168.76 349.92 168.33 349.81 167.45 349.78 165.33 349.88 164.09 349.86 162.49 350.02 160.99 349.59 159.9 350.2 159 350.74 157.53 351.28 156.49 351.61 156.06 352.12 155.8 352.18 155.53 352.19 154.16 352.45 153.82 353.14 153.27 353.52 152.59 353.75 150.79 354.09 146.89 354.65 146.15 354.06 143.43 354.81 143.34 354.81 150.29 383.04 152.22 382.64 152.79 381.87 152.98 381.8 153.52 381.71 153.74 381.65 152.28 381.33 152 381.2 151.77 380.68 152.11 380.66 152.87 381 153.67 381.09 155.09 381.45 155.85 381.42 155.8 381.06 155.96 380.7 156.26 380.41 156.62 380.29 156.85 380.37 157.09 380.56 157.39 380.73 157.79 380.76 158.03 380.6 158.75 379.64 158.9 379.56 159.03 379.6 159.11 379.57 159.15 379.3 159.2 379.08 159.34 378.91 159.52 378.8 159.71 378.74 159.69 379.21 159.84 379.48 160.12 379.6 160.49 379.64 160.65 379.61 160.84 379.53 161.02 379.41 161.15 379.3 161.33 379.19 161.48 379.25 161.64 379.36 161.83 379.41 165.47 379.1 166.82 379.41 167.03 379.54 207.1 371.16 183.43 356.46" style="fill:#c2c1d1"/><polygon points="332.29 164.13 332.15 163.42 332.13 162.97 332.24 162.62 332.3 161.57 332.46 160.62 332.18 159.81 331.09 158.88 329.82 158.66 329.15 158.88 328.77 159.68 328 160.19 327.4 160.18 326.65 159.67 325.91 158.72 325.41 158.15 325.06 158.02 324.5 157.67 324.03 157.25 323.91 157.49 323.99 157.94 323.76 158.27 323.68 159.18 323.64 159.55 323.76 159.91 323.66 160.6 323.41 161.4 322.95 161.86 322.32 161.73 321.61 161.78 321.31 161.96 321.38 162.34 321.85 162.42 322.33 162.49 322.84 162.77 323.45 163.78 323.48 164.22 323.51 165.13 323.59 165.27 323.79 165.11 323.98 164.96 324.08 165.17 324.26 165.35 324.75 165.37 325.06 165.38 325.62 165.34 325.77 165.52 325.87 165.82 325.55 165.78 325.24 165.69 325 165.74 324.8 165.97 324.97 166.3 325.15 167.16 324.79 167.24 324.59 166.99 324.24 166.8 323.99 166.56 323.54 165.76 323.45 165.76 323.38 166.75 323.29 167.36 328.56 172.9 332.29 164.13" style="fill:#bfcad4"/><polygon points="334.3 140.01 334.38 139.99 334.27 139.96 334.3 140.01" style="fill:#bfcad4"/><polygon points="318.49 135.18 318.2 135.34 318 135.5 317.89 135.67 317.91 135.88 318.08 136.19 318.1 136.41 318.06 137.21 317.97 137.54 317.72 137.89 317.49 137.93 316.87 137.87 316.75 138.02 316.41 139.49 314.96 141.76 314.51 144.01 313.97 145.14 313.85 145.91 313.95 146.68 314.81 148.75 315.2 150.24 315.49 150.91 315.88 151.2 316.18 151.31 316.9 151.84 317.23 151.95 317.5 151.91 317.98 151.71 318.27 151.69 319.61 152.3 320.28 152.4 320.58 151.82 320.76 151.08 321.19 150.39 321.7 149.83 322.13 149.48 325.67 148.38 326.56 147.74 326.86 146.56 326.58 143.65 327.13 142.34 327.62 142.12 329.11 141.7 329.43 141.47 329.71 141.2 331.38 140.35 331.71 139.69 331.84 139.2 318.51 135.03 318.49 135.18" style="fill:#bfcad4"/><polygon points="353.54 169.53 353.46 169.09 353.4 167.55 353.35 165.66 353.63 163.47 353.58 163.07 353.57 162.58 353.68 162.17 353.58 161.81 353.47 160.99 353.84 158.86 353.85 158.5 353.98 157.57 354.4 155.57 354.63 154.95 354.85 154.19 355 153.65 355.34 153.25 355.41 152.87 355.41 152.87 354.59 152.24 354.02 152.78 353.23 153.42 352.29 153.87 351.43 154.12 350.25 154.12 349.12 153.6 347.97 152.9 347.67 152.53 347.55 152.24 346.98 151.82 346.51 151.25 345.52 150.15 344.33 149.53 343.1 149.42 342.59 149.31 342.3 149.17 341.88 148.94 341.5 148.52 341.12 148.06 340.45 147.65 340.07 147.17 339.89 147.47 339.79 147.84 339.67 147.98 339.85 148.38 339.89 148.82 339.72 149.53 339.63 149.71 339.24 150.02 338.38 151.35 337.92 151.79 337.65 152.88 337.54 153.7 337.31 154.68 336.97 154.96 336.97 155.26 336.86 155.91 336.69 156.79 336.33 157.74 336.45 158.34 336.27 159.35 335.91 159.75 335.91 160.15 335.92 161.56 336.83 162.15 337.29 162.16 337.68 161.53 338.64 160.88 339 160.8 339.43 160.9 339.91 160.54 340.99 160.55 341.46 159.96 341.87 159.73 342.27 159.84 342.65 159.75 343.46 160.1 344.13 160.21 344.53 159.72 345.16 159.23 345.68 159.09 346.62 158.3 346.91 157.88 346.96 157.7 346.97 157.57 346.88 157.64 346.7 157.86 346.54 158.11 346.36 158.07 346.34 157.93 346.6 157.62 346.78 157.31 347.02 156.79 347.65 156.84 348.28 157.28 349.11 158.24 349.69 159.2 350.09 160.13 350.3 161.2 350.14 161.87 349.9 162.24 349.58 162.5 349.42 162.93 349.46 163.24 349.29 163.79 349.14 166.18 348.86 167.19 347.7 169.9 347.1 170.61 346.63 171.05 346.04 171.26 345.62 171.27 345.1 170.95 344.85 170.78 344.57 170.3 344.41 169.91 344.13 169.71 343.82 169.78 343.48 169.65 342.81 169.25 342.24 169.08 341.93 169.03 341.8 168.96 341.84 168.66 341.92 168.47 341.93 168.46 341.99 168.38 341.98 168.17 341.56 167.82 341.31 167.53 341.06 167.07 340.78 166.94 340.09 166.88 339.77 166.42 339.37 166.35 339.19 166.46 338.91 167.13 338.81 167.3 338.87 167.52 338.6 167.74 338.55 167.98 338.61 168.27 338.26 168.3 338.02 168.41 338.21 168.61 338.39 168.7 338.64 168.62 338.87 168.7 338.76 168.84 338.65 169.11 338.73 169.51 338.87 169.76 338.34 170.88 337.75 171.48 336.86 172.47 336.67 172.49 353.73 171.63 353.54 169.53" style="fill:#c4c2d1"/><polygon points="335.42 172.55 334.16 171.96 333.31 170.46 332.8 166.44 332.42 165.26 332.3 164.17 332.29 164.13 328.56 172.9 335.42 172.55" style="fill:#c4c2d1"/><polygon points="356.63 216.68 366.2 196.14 365.69 195.94 365.34 195.66 365.25 195.34 365.39 194.98 365.65 194.69 365.93 194.58 366.14 194.17 365.82 193.28 365.06 191.91 364.56 191.31 364.36 191.01 364.28 190.59 364.2 190.36 363.8 189.48 363.66 189.1 363.38 188.6 362.89 188.25 362.69 187.57 361.9 186.53 361.62 186.23 360.01 184.44 359.05 183.71 358.85 183.33 358.66 183 358.21 183.1 357.89 183.38 357.45 183.38 357.09 183.15 356.3 182.29 356.05 181.87 355.71 181.19 354.78 178.47 354.38 176.49 353.89 173.26 353.73 171.63 336.67 172.49 335.54 172.61 335.42 172.55 328.56 172.9 356.63 216.68" style="fill:#cec5d6"/><polygon points="336.39 274.84 340.27 270.7 340.41 269.66 341.56 265.52 342.16 264.27 342.99 262.98 343.98 261.82 344.25 261.61 344.53 261.44 344.76 261.26 344.84 261 344.72 260.69 344.45 260.58 344.14 260.62 343.87 260.76 344.02 260.09 344.31 259.49 344.73 259 345.25 258.63 345.47 258.82 345.72 258.87 345.96 258.81 346.2 258.63 346.65 260.07 346.77 260.3 347.26 260.3 347.41 260.25 347.33 259.46 347.58 258.65 348.18 258.14 348.94 257.86 351.05 257.38 351.85 257.35 352.43 257.58 352.5 257.64 356.87 252.98 356.51 252.79 356.06 252.25 355.61 251.83 356.86 250.87 357.04 250.65 357.33 250.17 357.53 249.68 357.44 249.46 356.12 249.38 355.81 249.22 355.5 248.87 355.5 248.67 356 248.28 356.29 248.11 356.99 247.88 357.25 247.69 357.6 247.2 357.74 247.09 357.92 247.1 358.07 247.25 358.22 247.35 358.4 247.22 358.58 246.69 358.42 246.34 357.92 245.93 357.63 245.4 357.44 245.15 357.15 244.99 357.4 244.55 358.6 243.66 358.99 243.22 359.05 242.99 358.96 242.68 358.89 242.01 358.91 241.36 359.03 241.05 359.31 240.95 359.85 240.94 360.06 240.89 360.23 240.79 360.38 240.74 360.53 240.83 360.63 241.03 360.73 241.5 360.81 241.67 361.42 242.09 361.28 241.38 360.62 239.64 360.49 238.18 360.43 237.48 360.78 237.09 361.98 237.14 361.77 237.46 361.4 237.63 361.6 237.99 361.9 238.37 362.27 238.69 362.64 238.81 363 238.67 363.11 238.34 362.95 238.02 362.53 237.87 362.92 237.4 363.19 237.34 363.51 237.4 363.32 236.99 363.1 236.62 362.95 236.22 362.94 235.72 363.44 236.07 364.02 236.12 365.15 235.96 366.3 236.22 366.53 236.07 366.32 235.76 365.92 235.44 365.62 235.27 365.62 235.01 365.98 235.03 366.33 235 366.66 234.93 366.98 234.8 366.64 234.44 365.45 233.83 365.96 233.36 367.5 233.88 368.15 233.59 368.02 233.17 366.68 232.18 366.19 231.7 366.92 231.64 367.64 231.45 368.22 231.09 368.51 230.49 367.6 230.5 367.26 230.31 367.17 229.78 367.83 229.89 368.62 229.62 369.15 229.07 369.09 228.36 369.09 228.32 368.66 228.39 367.75 228.36 367.72 227.89 367.75 227.43 367.98 227.45 368.46 227.41 368.69 227.43 368.58 227.13 368.42 226.9 368.19 226.75 369.56 226.13 370.12 225.63 370.05 224.8 369.66 225.15 369.09 225.51 368.46 225.71 367.92 225.51 368.53 224.96 369.27 224.41 369.57 223.94 368.86 223.61 369.18 223.39 369.79 222.85 370.05 222.66 370.35 222.59 370.61 222.62 370.88 222.54 371.47 222.49 371.65 222.25 371.65 222.21 369.92 221.57 369.76 221.59 369.68 221.48 356.63 216.68 336.39 274.84" style="fill:#e4cdde"/><polygon points="353.06 258.16 353.34 258.31 353.68 258.42 354.02 258.41 354.28 258.32 354.52 258.33 354.85 258.63 354.6 259.36 354.45 259.59 355.35 260.03 355.61 260.3 355.63 260.48 355.51 260.66 355.42 260.87 355.51 261.11 355.7 261.22 356.11 261.24 356.29 261.35 357.06 262.1 357.25 262.19 357.59 261.25 357.74 261 357.38 260.47 357.36 259.73 357.25 259.03 356.57 258.63 356.79 258.17 357.11 257.98 357.5 258 357.92 258.17 357.6 257.72 357.06 257.58 356.51 257.67 356.19 257.93 355.91 257.6 355.89 257.32 355.9 257.02 355.71 256.64 355.74 256.43 356.06 256.26 356.76 256.06 356.68 255.91 356.63 255.78 356.56 255.67 356.4 255.57 356.56 255.24 356.96 253.94 357.07 254.29 357.22 254.58 357.43 254.77 357.74 254.86 357.86 254.15 357.88 253.58 357.73 253.07 357.36 252.54 356.95 253.03 356.87 252.98 352.5 257.64 353.06 258.16" style="fill:#e6c6db"/><polygon points="340.6 275.02 340.24 272.54 340.21 271.1 340.27 270.7 336.39 274.84 340.6 275.02" style="fill:#e6c6db"/><polygon points="337.63 348.22 337.68 348.21 338.01 348.53 338.05 348.6 338.58 349.08 338.81 348.78 339.11 347.99 338.97 347.7 338.71 347.56 338.55 347.5 338.36 347.43 338.05 347.27 337.75 346.65 336.58 345.07 332.56 338.27 331.54 335.56 330.66 333.36 330.32 330.53 330.26 329.29 330.69 328.56 331.22 328.01 286.76 302.36 337.63 348.22" style="fill:#e4c2d9"/><polygon points="371.66 221.69 371.7 221.19 371.88 220.97 372.22 220.78 372 220.41 371.6 220.17 371.39 220.38 371.11 221.02 370.48 221.52 369.92 221.57 371.65 222.21 371.66 221.69" style="fill:#d4c3d5"/><polygon points="372.38 217.52 372.24 217.41 371.44 216.67 371.35 216.3 371.6 215.71 371.44 215.51 371.39 215.32 371.45 215.09 371.6 214.76 370.93 214.87 369.63 216.17 369.47 215.71 369.59 215.22 369.97 214.45 370.05 213.94 370.13 212.38 370.33 211.56 370.41 211.39 370.72 211.05 370.83 210.78 370.77 210.51 370.69 210.27 370.72 210.08 370.64 209.91 369.98 207.75 369.89 207.3 369.79 206.22 369.63 205.91 369.44 205.68 369.26 205.4 368.96 204.76 369.04 204.53 369.37 204.09 369.5 203.74 369.45 203.37 369.33 203 369.16 202.24 368.93 202.06 368.63 201.97 368.32 201.8 366.51 200.18 366.16 199.64 366.02 198.79 366.3 198.07 366.81 197.64 367.13 197.22 366.79 196.5 366.45 196.24 366.2 196.14 356.63 216.68 369.68 221.48 369.26 220.97 369.63 220.61 370.56 220.27 371.01 220 371.99 218.82 372.17 218.7 372.25 218.45 372.4 218.34 372.53 218.2 372.56 217.86 372.49 217.64 372.38 217.52" style="fill:#d4c3d5"/><polygon points="340.56 307.17 341.38 306.39 341.78 305.19 342.16 302.23 342.64 301.11 342.72 300.74 342.72 297.61 342.9 297.16 342.9 296.09 343.51 293.62 343.67 292.52 343.29 283.33 343.2 283 342.82 282.51 342.72 282.29 342.76 282.07 343.03 281.61 343.12 281.34 343.12 280.65 342.99 280.21 342.73 279.86 342.63 279.38 342.32 278.23 336.39 274.84 340.56 307.17" style="fill:#e4bfd8"/><polygon points="338.2 348.83 338.58 349.08 338.58 349.08 338.05 348.6 338.2 348.83" style="fill:#e4c2d9"/><polygon points="304.58 361.62 304.59 361.55 304.58 361.01 304.71 360.59 304.79 359.35 304.36 358.97 304.19 358.54 304.58 358.24 305.27 358.56 305.62 358.57 305.48 357.97 305.63 357.53 305.44 357.32 304.93 357.06 304.37 356.8 304.63 356.46 305.06 356.35 305.66 356.57 306.38 356.45 307.24 355.81 308.19 355.23 308.42 354.91 308.46 354.85 308.43 354.39 308.77 353.97 308.38 353.04 308.37 352.63 307.92 351.95 307.62 350.94 307.82 350.21 308.11 350.62 308.09 351.4 308.49 351.88 308.81 351.37 308.99 350.72 309.37 350.72 309.47 351.22 309.84 351.5 310.01 351.03 310.21 350.74 310.6 350.92 310.79 350.95 311.03 351.15 311.36 351.22 311.53 351.51 311.94 351.19 312.72 350.76 312.18 349.93 313.02 349.58 313.95 349.71 314.3 350.11 314.67 350 315.34 350.63 315.75 350.96 316.21 351.48 316.65 351.87 316.75 352.46 316.83 353.08 317.28 353.07 317.16 353.46 316.95 353.94 316.43 353.87 315.58 354.83 314.98 355.58 314.58 356.17 313.92 356.65 313.25 356.74 312.75 357.19 311.96 357.45 311.61 357.83 311.81 358.85 311.83 359.29 311.4 359.77 310.06 359.38 309.88 359.93 309.49 360.34 309.48 360.95 308.86 361.32 308.26 361.29 308.3 361.42 309.03 361.71 310.18 362.1 310.15 362.82 310.66 363.66 310.63 364.39 310.26 364.7 309.49 365.21 309.34 365.68 309.42 366.15 309.33 366.58 309.82 367.32 309.8 368.5 309.87 368.86 310.13 369.48 310.19 369.85 310.1 370.22 309.77 370.53 309.8 370.86 310.37 371.07 310.7 371.32 310.76 371.78 310.64 372.07 310.44 372.19 309.93 372.05 309.56 372.08 309.37 372.37 309.04 372.54 308.64 372.63 308.34 372.6 307.86 372.54 308.08 373.25 308.2 373.26 309.1 373.61 309.45 373.89 309.5 374.34 309.42 374.64 309.87 374.89 310.01 375.04 310.36 374.96 310.78 374.89 311.13 375 311.63 374.94 312.35 374.8 312.81 374.43 313.08 374.12 313.35 373.7 313.42 373.1 313.4 372.55 313.71 372.08 313.87 371.51 314.16 371.09 315.01 370.5 315.97 369.82 316.53 369.81 317.25 369.27 317.39 368.55 318.19 367.73 318.78 367.88 320.03 367.98 321.08 368.06 321.53 367.33 322.25 367.42 322.68 366.94 322.93 367.37 323.44 367.47 323.78 367.08 323.69 366.57 324.21 365.82 325.02 365.96 325.48 365.3 325.61 364.46 325.76 363.22 326.01 361.85 325.79 360.94 325.25 359.22 326.3 355.6 327.99 353.11 331.16 350.26 332.98 349.05 334.53 348.71 334.66 349.25 336.06 348.77 336.97 348.36 337.63 348.22 286.76 302.36 304.58 361.62" style="fill:#e4c2d9"/><polygon points="305.67 364.88 306.78 364.95 306.89 364.44 306.86 364.33 306.81 364.22 306.72 364.09 307.27 363.57 306.95 363.04 305.82 362.92 305.34 362.17 304.99 361.93 304.8 362.33 304.8 362.33 305.58 364.95 305.67 364.88" style="fill:#e4c2d9"/><polygon points="341.37 140.86 342.22 141.09 345.24 135.31 344.84 135.07 344.17 134.91 343.44 134.85 342.82 134.67 342.28 134.36 341.78 133.94 339.93 131.59 339.46 131.13 338.39 130.42 337.92 129.97 336.58 128.12 336.14 127.12 334.45 125.99 333.88 126.25 333.35 126.4 333.34 126.4 340.7 140.5 341.37 140.86" style="fill:#adbdcb"/><polygon points="327.8 90.88 328.1 91.29 328.3 91.81 328.51 92.66 328.93 93.23 329.22 93.77 329.05 94.47 328.55 95.07 327.37 95.85 325.45 97.7 325 98.24 324.3 99.74 323.89 100.43 323.38 100.72 323.17 101.09 323.12 101.93 322.93 102.79 322.32 103.25 321.74 103.11 321.32 102.67 320.67 101.63 320.24 101.31 325.7 111.77 326.12 111.26 327.26 110.31 328.47 109.76 329.18 109.71 331.19 110.03 333.03 109.74 333.69 109.76 335.02 110.31 339.73 115.54 340.03 117.01 340.19 117.3 340.43 117.57 341.01 118 341.79 118.24 342.13 118.49 342.05 118.88 341.81 118.97 340.7 118.75 340.58 118.89 340.73 119.22 340.98 119.56 341.16 119.76 341.51 119.92 341.86 119.95 342.21 119.89 342.52 119.76 342.97 119.35 344.55 117.13 345.07 116.6 347.24 115.08 347.54 114.93 347.87 114.83 348.21 114.79 348.54 114.68 349.09 114.16 349.87 113.81 354.51 110.3 357.93 108.96 359.13 108.7 363.82 99.72 327.8 90.88" style="fill:#adbdcb"/><polygon points="320.04 101.16 319.56 101.31 319.18 101.83 318.47 103.26 318.23 103.62 318 103.77 317.66 103.8 317.37 103.91 317.1 104.11 315.93 105.56 315.48 105.86 314.81 106.02 312.09 106.18 310.96 106.68 310.02 108.02 309.72 109.41 310.18 112.14 310.19 113.77 309.83 115.43 309.53 116.22 308.36 118.09 308.02 118.83 307.89 119.54 308.17 120.99 308.44 121.87 308.75 122.27 310.02 123.26 310.89 123.58 311.15 123.75 311.69 124.82 311.84 124.99 311.87 125.15 312.38 125.79 315.19 127 316.13 127.92 317.55 130.42 318.49 131.45 318.3 132 318.34 132.68 318.49 133.37 318.67 133.94 318.57 134.17 318.55 134.75 318.51 135.03 331.84 139.2 332.14 138.15 332.43 137.51 332.96 137.07 333.65 136.97 334.32 137.17 334.84 137.64 335.01 138.28 334.7 138.65 334.26 138.99 334.03 139.5 334.27 139.96 334.38 139.99 334.91 139.85 336.18 139.12 337.56 139.11 338.97 139.56 340.7 140.5 333.34 126.4 331.55 126.56 330.48 126.92 329.83 127 329.31 126.77 327.23 124.55 326.32 123.85 323.45 122.34 322.61 121.41 322.32 119.76 322.52 118.11 322.95 116.56 323.55 115.1 325.11 112.47 325.7 111.77 320.24 101.31 320.04 101.16" style="fill:#b2c7d0"/><polygon points="150.29 383.04 143.34 354.81 138.36 355.19 135.59 354.58 134.12 354.18 132.59 354.55 131.67 354.95 130.22 355.59 129.55 356.73 129.07 356.8 128.52 356.73 127.96 356.6 127.09 356.43 126.1 355.94 125.26 355.42 125.14 354.96 124.97 354.57 124.98 354.17 125.06 354.09 125.42 353.65 125.89 353.51 126.22 353.35 126.62 353.24 126.98 353.02 126.5 352.74 125.88 352.77 125.31 352.84 124.74 353.06 124.55 353.19 124.28 353.16 112.42 378.04 150.29 383.04" style="fill:#b1bbcb"/><polygon points="266.63 379.18 267.09 378.37 267.4 378.06 267.82 377.45 267.52 376.83 267.47 376.51 267.69 375.89 267.99 375.43 268.17 374.91 268.56 374.47 269.5 373.98 270.32 373.57 271.4 373.1 272.69 372.41 273.18 371.2 272.88 371.12 272.49 371.37 272.49 372.05 272.14 371.74 272.23 370.69 273.06 370.09 273.41 369.39 260.64 365.53 266.63 379.18" style="fill:#e4bdd6"/><polygon points="280.06 371.65 279.64 372.42 279.69 373.2 279.98 374 280.11 374.32 280.43 374.82 280.06 374.88 279.67 375.24 279.42 375.71 279.61 376.05 279.6 376.71 279.65 376.8 279.53 377.35 279.26 377.89 279.56 378.88 279.99 379.91 279.64 380.01 279.48 380.37 279.14 380.65 279.2 381.29 279.21 381.87 279.37 382.18 279.56 382.3 279.78 382.37 279.98 382.54 280.09 382.79 279.91 383.32 280.56 384 280.88 384.42 281.27 384.79 281.7 385 282.43 384.42 283.41 383.91 284.67 382.86 285.34 383.14 285.56 383.37 285.84 383.41 286.15 383.23 285.98 382.74 285.93 382.14 286.01 381.55 286.25 381.1 286.4 380.88 286.3 380.5 286.64 380.07 286.86 379.81 287.07 379.49 287.54 379.38 287.78 379.05 287.99 378.56 288.43 378.02 288.69 377.39 288.81 376.93 289.11 376.48 289.68 376.11 290.29 376.01 290.5 374.87 290.45 374.55 280.14 371.43 280.06 371.65" style="fill:#e4bdd6"/><polygon points="124.28 353.16 124.23 353.15 124.1 353.02 124.29 352.7 124.14 352.55 123.64 352.88 123.16 352.91 122.22 353.22 121.8 352.97 121.19 352.48 120.79 352.07 120.39 351.93 120.39 352.4 120.11 352.8 119.64 352.64 119.28 352.85 119.02 353.26 118.77 353.77 118.23 353.94 117.59 353.82 117.08 353.9 116.98 354.73 116.32 354.67 115.64 354.85 114.03 354.93 113.27 355.09 113.21 355.11 112.42 378.04 124.28 353.16" style="fill:#acbfcb"/><polygon points="260.64 365.53 273.41 369.39 273.81 368.6 274.73 368 276.14 367.95 276.88 367.58 277.8 367.19 279.15 367.33 280.81 367.75 281.8 368.49 282.21 369.19 283.73 370.75 283.35 371.1 282.82 371.1 282.27 371.13 281.46 370.98 280.32 370.89 280.14 371.43 290.45 374.55 290.33 373.65 290 372.9 289.16 372.59 288.76 371.85 289.06 371.38 289.19 370.76 289.31 370.14 288.46 370.01 288.49 369.29 288.81 368.14 289.72 366.82 290.77 367.27 290.33 365.71 290.43 364.02 291.49 363.1 292.88 362.37 294.25 362.01 295.6 361.74 297.98 361.27 299.44 361.45 300 361.87 300.56 361.75 301.12 361.82 301.61 361.63 301.73 362.29 302.08 362.32 302.23 362.68 302.32 362.92 303.11 363.91 303.3 364.39 303.74 364.53 303.85 364.8 303.23 365.12 303.58 366.04 303.63 366.74 303.5 367.09 303.64 367.36 303.89 367.43 304.35 367.17 304.99 367.33 305.29 367.27 305.57 367.14 305.44 366.84 305.16 366.5 304.88 365.9 305.05 365.38 305.58 364.95 304.8 362.33 304.54 361.96 304.58 361.62 286.76 302.36 260.64 365.53" style="fill:#e6c9dd"/><polygon points="307.82 372.53 307.47 372.55 307.46 372.92 307.59 373.19 308.08 373.25 307.86 372.54 307.82 372.53" style="fill:#e6c9dd"/><polygon points="226.92 369.08 226.87 369.43 226.79 370.32 226.4 370.92 226.14 371.5 225.78 372.11 225.48 372.68 225.21 373.24 225.17 373.79 225.16 374.4 225.19 375.18 225.32 375.96 225.77 375.99 226.13 376.47 226.35 377.12 226.36 377.61 226.15 378.16 226.03 378.73 225.75 379.33 225.8 379.87 226.12 380.29 226.74 380.66 227.72 381.24 228.63 381.64 229.36 381.71 229.37 381.15 229.11 380.45 228.4 380.08 228.1 379.51 227.79 379.11 228.08 377.39 228.22 376.8 228.44 376.32 228.95 375.54 229.31 374.66 229.57 374.25 229.67 375.1 229.11 376.42 228.99 377.26 229.51 377.48 230.04 378.05 230.23 378.24 230.68 378.87 230.97 378.97 231.57 379.05 232.21 378.81 232.62 379.1 233.01 378.82 233.58 378.7 234.11 378.72 234.59 378.94 234.98 378.84 234.96 379.5 235.46 379.3 235.52 378.69 235.62 378.09 236 378.23 236.42 377.79 237.07 378 237.65 378.22 238.03 378.05 238.53 378.41 239.19 379.19 239.27 379.4 239.17 379.78 238.93 380.39 239.73 380.72 239.5 380.93 238.85 380.75 238.87 381.38 238.69 381.94 238.47 381.88 238.58 381.37 238.54 380.67 238.09 380.57 237.46 381.46 236.93 381.7 235.71 382.44 234.87 383.01 234.46 383.19 234.01 383.37 233.56 383.63 233.5 383.76 233.28 384.03 233.1 383.81 233 383.58 232.21 382.75 231.63 383.33 231.36 384.29 231 384.93 230.83 385.16 230.62 385.56 231.05 385.54 231.42 385.5 232.85 385.08 234.12 385.21 239.7 383.31 242.17 382.65 245.52 382.33 246.87 382.34 249.36 382.55 252.41 383.57 255.21 382.66 260.64 365.53 226.92 369.08" style="fill:#e2c8db"/><polygon points="216.67 382.23 216.67 382.22 216.73 381.54 216.89 380.9 217.1 379.44 217.95 378.31 219.38 376.56 220.03 375.4 220.28 374.66 220.21 374.06 220.66 373.71 220.19 373.65 220.12 373.46 220.15 373.3 220.3 372.99 220.33 372.78 220.59 372.29 221.21 371.73 222.46 370.86 223 370.99 223.19 370.9 223.94 371.09 224.49 370.97 224.53 370.16 224.8 370.15 224.91 370.86 225.65 370.69 225.4 369.24 207.1 371.16 216.67 382.23" style="fill:#e2c8db"/><polygon points="227.11 394.07 226.89 393.73 227.04 393.47 227.2 393.26 227.63 392.86 227.28 392.89 227 392.79 226.79 392.61 226.66 392.39 226.88 392.08 227.16 391.96 227.48 392 227.82 392.17 228.08 390.97 228.04 390.61 227.8 390.28 227.55 390.26 227.25 390.3 226.89 390.17 226.61 389.85 226.53 389.54 226.48 389.19 226.29 388.81 226.01 388.6 225.64 388.48 225.25 388.47 224.95 388.58 224.65 388.28 223.21 387.69 221.09 386.36 220.69 385.97 220.3 385.52 219.86 385.15 219.27 385 219.07 384.99 227.23 394.43 227.11 394.07" style="fill:#e2c8db"/><polygon points="225.76 369.29 225.79 369.76 225.92 370.46 226.15 369.73 226.39 369.13 225.54 369.22 225.76 369.29" style="fill:#e2c8db"/><polygon points="207.1 371.16 167.03 379.54 167.32 379.73 168.39 380.58 169.31 380.89 170.86 381.87 171.4 382.32 172.23 382.66 172.88 383.44 173.41 383.52 174.47 383.48 175.28 384.05 176.23 383.95 177.12 383.54 179.16 383.19 179.22 382.41 179.74 382.34 179.92 383.06 180.8 383.2 180.18 381.89 181.15 381.56 181.12 382.34 182.06 382.25 182.05 381.41 182.91 381.36 183.58 381.31 184.2 381.95 184.7 382.2 185.16 382.04 185.59 381.85 185.33 382.94 185.44 383.74 185.67 384.55 185.66 385.52 185.63 386.23 185.46 386.79 185.21 387.05 184.98 387.36 184.48 387.51 184.51 387.88 184.46 388.63 183.92 389.19 182.97 390.45 181.9 391.47 181.2 392.15 179.87 393.27 176.94 394.06 176 395.11 175.71 395.71 176.6 395.95 177.36 396.53 177.8 397 178.17 398.37 178.65 398.33 179.04 399.01 179.33 399.54 179.25 399.99 178.17 399.92 177.44 399.95 177.54 400.16 190.12 408.06 207.1 371.16" style="fill:#c8bdd0"/><polygon points="150.76 383.34 150.92 383.27 151.42 383.16 151.87 382.86 152.1 382.79 152.22 382.65 152.22 382.64 150.29 383.04 150.76 383.34" style="fill:#c8bdd0"/><polygon points="162.98 402.2 162.89 401.64 162.91 400.8 163.4 400.03 163.34 399.85 163.43 399.5 163.73 399.01 163.94 398.58 163.56 398.62 163.3 398.49 162.98 398.41 163.53 398.29 163.47 398.12 163.49 397.87 163.53 397.59 163.91 397.08 164.08 396.63 163.55 396.83 163.05 397.38 162.59 397.45 162.78 396.99 163.07 396.62 162.96 396.25 162.6 396.86 162.25 396.94 161.66 397.21 159.82 397.11 159.68 397.22 162.98 402.21 162.98 402.2" style="fill:#c1b8cd"/><polygon points="177.54 400.16 177.66 400.43 177.66 400.72 177.61 400.87 177.52 400.95 177.29 401.04 177.22 401.09 176.65 402.2 177.12 402.26 177.74 402.51 178.29 402.82 178.57 403.11 178.53 403.59 178.3 404.08 177.59 404.44 177.18 404.61 176.58 404.66 176.12 405.13 176.17 405.73 176.66 405.74 176.84 405.88 176.38 406.27 175.95 406.65 176.19 407.04 176.22 407.45 175.8 407.45 175.61 407.6 175.86 407.76 175.72 407.97 175.65 408.29 175.83 408.11 176.81 407.97 177.33 407.87 178.22 408.39 190.12 408.06 177.54 400.16" style="fill:#c1b8cd"/><polygon points="151.23 383.66 150.96 383.81 150.81 383.83 151.01 384.13 151.23 383.66" style="fill:#c1b8cd"/><polygon points="150.56 383.46 150.71 383.36 150.76 383.34 150.29 383.04 150.56 383.46" style="fill:#c1b8cd"/><polygon points="113.21 355.11 112.35 355.45 111.52 355.92 110.88 356.05 110.42 356.19 110.12 356.25 110.65 356.49 110.94 356.74 110.77 356.89 110.37 356.99 109.44 356.97 108.9 356.97 108.16 357.17 107.59 357.24 107.26 357.57 107.47 357.94 108.11 358.37 108.58 358.61 108.67 359.07 108.68 359.51 108.6 360.07 108.37 360.92 108.04 361.46 107.68 362.07 107.19 362.4 105.91 362.77 105.2 363.13 104.68 363.28 104.62 363.7 103.67 364.12 102.88 364.75 101.2 366 101.05 366.48 100.6 366.98 100.67 367.33 100.42 367.65 99.77 368.11 98.92 368.73 98.64 369.71 97.99 370.17 97.35 370.43 96.39 370.62 95.82 371.31 94.18 372.54 93.61 372.99 112.42 378.04 113.21 355.11" style="fill:#9eb7c4"/><polygon points="190.12 408.06 203.85 409.78 204.03 409.36 205.02 407.92 205.61 407.98 205.93 407.95 206.08 407.85 206.37 407.44 206.59 407.21 206.71 407.12 207.66 406.96 207.87 406.77 208.01 406.19 208.5 406.4 208.67 406.07 208.47 405.64 207.83 405.53 207.83 405.33 208.23 405.01 208.6 404.62 208.78 404.97 209.03 405.32 209.34 405.51 209.75 405.33 209.81 405.05 209.79 404.18 209.85 404 209.94 403.84 209.68 403.49 209.18 402.99 209.12 402.57 208.93 402.32 208.63 402.2 208.22 402.2 208.22 401.96 208.54 401.73 209 401.04 209.18 400.87 209.4 400.99 209.75 401.61 210.04 401.76 210.26 401.72 210.51 401.62 210.74 401.48 210.88 401.32 211.04 400.87 210.97 400.69 210.74 400.57 210.42 400.32 210.48 399.39 211.53 398.42 212.87 397.76 213.78 397.76 214.08 397.45 215.33 396.63 216.2 396.96 216.54 396.93 216.29 396.39 216.46 396.2 216.62 395.91 216.77 395.52 217.04 395.57 217.82 395.97 217.85 395.68 217.92 395.57 218.04 395.48 218.2 395.28 218.72 395.86 219.16 395.8 219.57 395.48 220.47 395.1 220.81 394.72 220.84 394.34 220.33 394.19 221.07 393.79 221.93 393.53 222.4 393.63 221.97 394.29 221.81 394.81 222.46 394.94 223.33 394.78 223.8 394.39 224.76 395.06 224.78 394.82 224.82 394.72 224.82 394.61 224.76 394.39 225.32 394.24 225.85 394.4 226.13 394.84 225.91 395.52 225.54 395.28 225.62 395.45 225.66 395.75 225.72 395.97 225.38 395.74 224.81 395.5 224.21 395.38 223.8 395.52 223.85 395.89 224.38 396.17 225.07 396.35 225.54 396.39 225.97 396.3 226.96 395.94 227.23 395.73 227.36 395.22 227.29 394.62 227.23 394.43 219.07 384.99 218.03 384.98 217.55 384.8 217.25 384.35 217.28 384 217.4 383.56 217.42 383.18 217.14 383.01 217.03 382.9 216.73 382.37 216.67 382.23 207.1 371.16 190.12 408.06" style="fill:#d6c0d4"/><polygon points="342.32 278.23 342.31 278.17 341.35 276.46 340.63 275.13 340.61 275.04 340.6 275.02 336.39 274.84 342.32 278.23" style="fill:#e4bdd7"/><polygon points="192.34 420.82 192.76 420.88 195.5 421.17 195.64 421.6 195.17 422.14 195.34 422.73 195.68 422.35 196.16 422.48 196.19 422.08 195.98 421.45 196.41 420.73 196.72 420.41 197.25 420.13 198.84 419.64 199.11 419.23 199.62 419.04 200.56 418.06 200.95 417.57 200.36 417.22 200.31 416.78 200.88 416.52 201 415.97 201.54 415.64 201.81 414.68 201.9 414.56 202.56 413.02 203.85 409.78 190.12 408.06 192.34 420.82" style="fill:#d3b7d0"/><polygon points="144.12 389.72 144.62 388.98 144.97 387.92 145.44 387.19 146.25 387.47 146.15 387.2 146.13 387.13 146.06 387.02 146.41 386.7 146.85 386.41 147.19 386.04 147.21 385.5 142.3 389.4 144.12 389.72" style="fill:#b3b1c6"/><polygon points="147.67 385.13 147.86 385.32 148.26 385.47 149.09 385.33 150.07 384.96 150.89 384.39 151.01 384.13 150.81 383.83 150.69 383.86 150.47 383.81 150.27 383.66 150.56 383.46 150.29 383.04 147.67 385.13" style="fill:#b3b1c6"/><polygon points="164.19 409.23 164.06 409.16 164.51 408.42 164.83 408.24 165.2 408.09 165.31 407.78 165.65 407.44 165.63 406.96 165.64 406.43 165.3 406.27 165.46 405.96 164.53 405.41 164.19 404.86 163.8 404.05 163.51 404.13 163.44 404.48 163.09 404.5 162.9 404.37 162.76 404.09 162.61 403.43 162.6 403.11 162.63 402.91 162.81 402.33 162.98 402.21 159.68 397.22 159.07 397.66 158.26 397.63 157.59 397.12 157.31 396.78 157.19 396.51 157.05 396.29 156.7 396.27 155.96 396.39 155.56 396.25 154.95 395.66 154.61 395.52 154.25 395.45 153.15 394.84 153.53 393.9 153.23 393.53 152.59 393.32 152 392.86 151.87 393.11 151.26 393.82 151.04 393.97 150.58 393.84 150.45 393.51 150.45 392.61 150.35 392.21 150.21 391.86 149.94 391.66 149.49 391.72 149.41 392.01 149.36 392.48 149.19 392.68 148.74 392.17 148.39 392.86 148.2 393.09 147.21 392.86 146.95 392.87 146.51 393.05 146.25 393.06 145.95 392.95 145.6 392.67 145.09 392.54 144.68 392.24 144.41 392.17 144.14 392.2 143.69 392.35 143.44 392.39 143.09 392.56 142.84 392.95 142.62 393.4 142.38 393.73 141.52 394.25 139.79 395.03 139.02 395.63 138.38 396.24 137.53 396.88 136.72 397.15 136.21 396.63 135.73 396.81 134.94 396.63 134.1 396.3 133.83 396.14 133.7 396.25 133.9 396.53 134.33 396.86 134.79 397.14 135.25 397.52 135.6 397.96 135.83 398.4 135.97 398.96 136.03 400.35 135.84 401.83 135.63 402.43 135.26 402.92 134.32 403.74 133.91 404.2 133.6 404.61 133.24 405.02 132.77 405.34 132.18 405.53 131.49 405.48 130.13 404.99 129.48 404.86 127.94 404.96 127.4 404.73 126.89 404.7 126.25 405.01 125.67 404.94 124.82 405.24 124.67 405.82 123.69 406.11 122.69 406.33 121.95 406.62 121.39 406.56 120.98 406.37 103.93 419.94 164.19 409.23" style="fill:#b3b1c6"/><polygon points="359.13 108.7 360.37 108.42 362.89 108.37 365.45 109.02 367.44 110.11 368.04 110.26 368.5 110.52 370.05 112.28 372.34 113.72 375.29 114.12 375.95 114.87 363.82 99.72 359.13 108.7" style="fill:#b4b8c9"/><polygon points="342.68 141.22 343.71 140.8 345.42 139.12 345.91 138.79 346.53 138.56 347.83 138.38 348.11 138.07 347.63 137.39 345.5 135.46 345.24 135.31 342.22 141.09 342.68 141.22" style="fill:#b4b8c9"/><polygon points="355.29 152.73 355.24 152.57 355.47 152.42 355.51 152.3 355.43 151.96 355.61 151.75 355.52 151.51 355.43 151.35 355.08 151.78 354.61 152.22 354.59 152.24 355.41 152.87 355.29 152.73" style="fill:#bebacd"/><polygon points="255.21 382.66 255.24 382.65 257.34 382.69 259.57 383.08 263.59 384.82 264.8 385.04 265 384.78 264.57 384.33 263.89 384.16 263.68 383.5 263.91 382.9 264.31 381.19 265.25 380.31 266.48 379.44 266.63 379.18 260.64 365.53 255.21 382.66" style="fill:#e4c0d8"/><polygon points="363.82 99.72 375.95 114.87 376.82 115.87 378.47 117.52 383.5 120.98 385.93 121.73 391.86 125.08 397.53 127.01 400.16 128.69 399.73 95.97 363.82 99.72" style="fill:#acb0c4"/><polygon points="400.16 128.69 401.9 129.81 402.61 130.44 403.25 131.17 403.53 131.83 403.79 132.21 404.37 132.78 405.01 133.27 405.45 133.43 405.77 132.93 406.12 131.3 406.87 130.63 407.19 129.89 407.96 126.95 408.1 126.12 408.15 125.38 408.11 124.55 407.79 122.49 407.98 120.77 408.46 119.24 411.25 114.29 413.36 111.1 399.73 95.97 400.16 128.69" style="fill:#afabc3"/><polygon points="354.85 79.4 354.86 80.99 354.39 82.62 353.66 84.03 352.91 85.1 351.03 87.07 348.89 88.65 348.14 89.05 347.76 89.13 347.25 89.15 346.89 89.07 346.3 88.72 345.61 88.58 344.46 88.12 343.41 87.99 343.12 87.89 342.62 87.23 342.84 86.58 343.12 86.09 342.81 85.9 342.17 85.97 340.04 86.81 337.16 87.25 336.77 87.14 336.5 86.95 336.07 86.4 335.8 86.1 333.77 85.19 333.2 84.74 332.36 83.69 331.85 83.23 329.44 81.51 328.96 81.31 328.74 81.17 328.45 80.87 328.1 80.6 327.71 80.55 327.48 80.76 327.37 81.11 327.28 81.5 327.13 81.84 326.6 82.22 325.91 82.36 324.53 82.34 323.66 85.1 323.91 86.58 324.75 87.59 325.82 88.44 326.75 89.4 327.8 90.88 363.82 99.72 354.85 79.4" style="fill:#9db9c5"/><polygon points="352.6 75 352.91 75.98 354.12 77.75 352.66 74.44 352.6 75" style="fill:#9db9c5"/><polygon points="112.42 378.04 108.42 397.76 109.49 397.07 110.15 396.86 110.99 396.85 111.41 396.75 111.6 396.51 111.45 396.17 111.2 395.85 111.15 395.61 111.6 395.52 112.19 395.17 112.72 394.54 113.23 394.29 113.7 395.06 114.55 394.5 115.35 394.17 118.34 393.89 119.49 393.6 120.24 392.99 120.05 391.97 120.45 391.72 120.74 391.89 121.01 391.91 121.29 391.9 121.6 391.97 122.11 392.24 122.56 392.61 122.56 392.86 121.97 392.97 121.57 394.06 121.01 394.19 121.11 393.78 121.14 393.27 121.03 392.96 120.73 393.18 120.28 393.79 119.99 394.1 119.86 394.08 119.81 395.39 119.97 395.96 120.45 396.19 120.71 396.04 121.34 395.42 121.87 395.21 122.2 394.91 122.35 394.84 122.48 394.9 122.83 395.21 123.04 395.28 123.53 395.01 123.69 394.39 123.5 393.73 122.94 393.3 123.31 392.9 123.82 392.59 124.28 392.17 124.77 390.53 125.31 390.72 125.6 391.33 125.09 391.72 125.09 391.97 125.78 391.94 126.39 392.12 126.67 392.5 126.41 393.06 126.14 393.18 125.75 393.26 125.41 393.37 125.26 393.62 125.41 393.92 125.74 393.95 126.13 393.84 126.97 393.45 127.41 393.08 129.41 390.59 129.69 389.92 129.48 389.72 129.6 389.17 129.91 389.01 130.65 389.03 130.99 388.88 131.6 388.47 131.9 388.38 132.5 388.68 132.13 389.36 131.03 390.61 132.77 389.92 132.94 389.81 133.09 389.66 133.29 389.53 133.8 389.44 134.02 389.32 134.21 389.15 134.29 388.92 134.57 388.7 135.82 388.07 136.63 387.77 137.07 387.47 137.49 387.28 137.95 387.47 138.14 387.23 138.21 387.59 138.34 387.9 138.52 388.05 138.72 387.94 139.42 388.52 139.75 389.32 140.14 389.99 141.04 390.17 140.91 389.36 141.95 389.34 142.3 389.4 147.21 385.5 147.21 385.47 146.91 385.08 146.45 384.97 145.93 385.04 145.46 385.22 144.72 386.02 144.3 386.33 143.93 386.13 143.81 385.59 144.13 385.28 144.62 385.09 145.33 384.67 145.75 384.58 146.72 384.57 147.24 384.71 147.67 385.13 150.29 383.04 112.42 378.04" style="fill:#aab1c5"/><polygon points="133.51 395.97 133.7 396.25 133.83 396.14 133.51 395.97" style="fill:#aab1c5"/><polygon points="120.98 406.37 120.86 406.31 120.26 406.04 120 405.71 119.77 405.24 119.52 404.68 118.72 402.69 117.17 400.87 116.88 400.69 116.74 400.47 116.54 400.33 116.21 399.81 115.83 400.51 115.46 400.49 114.95 400.42 114.89 400.72 115.19 400.73 115.75 400.77 115.87 401.33 115.65 401.64 115.56 402.18 113.96 402.58 113.54 403.1 112.18 403.97 111.37 404.52 111.44 405.83 111.02 406.51 110.95 407.31 109.75 407.5 109.58 408.38 109.38 409.25 109.13 410.43 109.28 411.32 109.32 412.28 108.75 413.61 107.87 414.45 107.11 414.95 106.64 415.4 104.69 416.18 103.93 419.94 120.98 406.37" style="fill:#aab1c5"/><polygon points="178.22 408.39 178.29 408.42 178.86 409.64 179.51 410.4 180.45 410.93 180.53 411.46 181.42 411.49 182.25 412.06 182.76 412 183.02 412.4 183.57 412.65 184.99 413.68 185.29 414.08 184.65 414.18 183.63 414.31 183.2 415.05 183.6 415.5 184.07 415.6 184.37 415.89 184.53 415.95 184.69 416.15 185.01 416.74 184.86 417.09 184.87 417.54 185.01 417.71 190.12 408.06 178.22 408.39" style="fill:#c3b2ca"/><polygon points="67.83 417.1 66.96 416.83 65.76 416.65 65.03 416.5 64.55 416.56 63.95 416.22 63.47 415.63 63.09 414.7 62.22 413.26 61.94 412.62 61.9 412.36 56.26 416.19 67.83 417.1" style="fill:#9ca9bd"/><polygon points="104.69 416.18 103.8 416.54 103.21 417.08 102.96 417.28 102.15 418.22 101.97 418.52 101.78 419.04 101.33 419.45 100.8 419.7 103.93 419.94 104.69 416.18" style="fill:#9ca9bd"/><polygon points="75.01 403.45 75.22 403.36 75.51 403.49 76 404 76.25 404.12 77.14 404.42 77.14 404.33 77.28 404.23 77.45 404.25 77.53 404.52 77.55 404.74 77.6 404.84 77.72 404.88 77.92 404.86 78.31 404.67 78.44 404.31 78.34 403.9 78.09 403.53 78.32 403.19 78.46 403.23 78.56 403.43 78.69 403.53 79.45 403.53 79.77 403.46 80.65 403.1 81 402.87 81.42 402.97 82.48 402.57 84.12 403.17 84.51 403.47 84.77 403.53 84.8 403.74 84.33 404.21 83.5 404.86 83.55 405.38 83.89 405.56 84.87 405.53 84.87 405.33 84.47 405.33 85.07 404.57 85.59 404.45 86.12 404.77 86.75 405.33 87.03 405.48 87.8 405.8 88.11 405.99 88.81 406.94 88.97 407.1 89.6 407.2 91.37 407.8 91.86 408.08 92.19 408.34 92.54 408.54 92.81 408.85 92.93 409.43 92.8 409.9 92.52 410.12 92.19 410.07 91.95 409.75 91.89 410.02 91.68 410.5 91.58 410.66 90.99 411.1 90.91 411.65 91.31 411.62 91.88 411.3 92.72 410.59 93.96 409.9 94.28 409.53 94.24 409.02 93.65 407.81 93.5 407.21 93.55 406.4 93.75 406.14 94.16 406.06 94.84 405.77 95.73 404.74 95.67 403.58 95.33 402.3 95.42 400.87 95.75 400.36 96.14 400.11 96.45 399.77 96.59 398.98 96.5 398.23 96.44 397.76 96.25 397.08 95.99 396.63 98.52 393.77 99.46 393.06 100.51 392.51 101.13 392.43 102.15 393.02 102.71 393.03 103.26 392.87 103.7 392.61 104.28 392.92 104.52 393.16 104.66 393.5 104.44 393.53 104.09 393.68 103.89 393.73 104.04 394.12 103.99 394.37 103.88 394.64 103.89 395.06 103.99 395.2 104.38 395.63 104.73 396.45 105.21 396.9 105.47 397.3 105.04 397.76 105.32 398.15 105.64 398.16 106.4 397.76 106.5 397.66 106.58 397.5 106.72 397.36 106.97 397.3 107.03 397.4 107.11 397.61 107.22 397.84 107.36 397.97 108.17 397.93 108.42 397.76 112.42 378.04 75.01 403.45" style="fill:#9ca9bd"/><polygon points="82.15 417.99 81.69 417.17 81.03 416.01 80.4 415.18 79.84 415.09 79.28 415.16 78.71 414.85 78.23 414.67 77.78 414.73 77.15 414.75 76.29 414.88 75.66 415.18 75.25 415.63 75.02 416.33 74.56 416.83 73.7 417.56 82.23 418.24 82.15 417.99" style="fill:#9ca9bd"/><polygon points="73.55 404.62 73.69 404.86 73.86 405.04 74.05 405.08 74.29 404.98 74.35 404.86 74.36 404.74 74.45 404.62 74.49 404.42 74.76 404.18 74.83 404.2 74.98 403.95 74.97 403.8 74.85 403.56 73.5 404.48 73.55 404.62" style="fill:#9ca9bd"/><polygon points="72.97 405 73.17 404.95 73.33 404.74 73.42 404.53 72.83 404.93 72.97 405" style="fill:#9ca9bd"/><polygon points="166.19 409.78 165.28 409.97 165.28 409.75 165.52 409.71 165.8 409.57 166.05 409.53 166.05 409.33 164.47 409.38 164.19 409.23 103.93 419.94 124.53 430.11 124.6 430.05 124.94 429.62 125.09 428.88 125.14 428.76 125.27 428.68 125.39 428.55 125.44 428.32 125.4 428.17 125.3 428.06 125.26 427.9 125.15 427.67 124.98 427.45 124.91 427.19 125.09 426.8 124.98 426.17 125.39 425.51 126.04 424.94 126.6 424.59 126.79 424.72 126.98 424.8 126.9 425.37 127.04 425.3 127.56 424.59 127.84 424.34 128.08 424.2 128.37 424.14 128.83 424.13 129.48 424.02 130.18 423.74 130.61 423.32 130.48 422.8 130.91 422.05 133.19 421.02 134.38 420.51 134.9 420.06 136.71 419.64 138.59 419.37 139.26 419.94 141.84 420.57 143.81 420.78 144.29 421.9 145.03 422.65 145.82 423.01 146.63 423.3 147.04 424.31 148.16 425.76 148.94 426.54 148.9 427.2 149.49 427.36 149.89 427.28 150.35 427.99 150.87 429.07 151.25 428.68 151.28 427.94 151.42 427.12 151.49 426.69 151.75 425.76 151.94 424.55 152.78 421.84 153.58 420.32 154.25 419.56 154.72 419.19 154.77 418.8 154.68 418.24 155.07 417.99 155.44 418.09 155.82 417.94 156.04 417.71 156.13 417.32 156.83 416.58 156.48 416.2 157.26 415.59 158.75 415.06 161.03 413.57 161.26 413.06 161.94 412.94 162.18 412.04 162.98 411.98 163.23 411.44 164.22 411.32 164.58 410.93 165.63 410.44 166.48 410.04 167.01 409.75 166.69 409.58 166.19 409.78" style="fill:#b4acc4"/><polygon points="383.4 34.67 364.66 30.51 364.85 33.13 364.73 34.82 363.48 41.33 361.19 45.53 360.9 46.87 361.32 54.76 361.23 56.31 361 57.86 360.49 59.57 359.79 60.89 358.92 61.91 357.33 63.18 356.82 63.51 356.27 63.7 355.08 63.88 354.43 64.17 353.79 64.58 353.31 65.04 352.56 66.37 352.15 67.27 351.97 67.97 352.16 68.81 352.8 70.44 352.72 71.14 352.96 71.48 353.49 72.94 353.02 73.63 352.68 74.26 352.66 74.44 354.12 77.75 354.49 78.3 354.85 79.29 354.85 79.4 363.82 99.72 383.4 34.67" style="fill:#99afbe"/><polygon points="185.01 417.71 185.16 417.91 185.49 418.18 186.49 418.93 187.78 419.24 191.9 420.75 192.34 420.82 190.12 408.06 185.01 417.71" style="fill:#c7afc9"/><polygon points="53.93 406.52 53.72 406.41 53.38 406.39 53.02 406.43 52.8 406.53 51.95 407.76 51.36 408.21 50.77 408.3 49.44 408.18 48.97 408.26 48.81 408.42 48.72 408.63 48.48 408.89 47.83 409.29 47.54 409.32 47.31 409.09 47 410.07 46.84 410.31 46.55 410.52 46.34 410.63 46.2 410.81 46.16 411.21 46.38 411.46 46.69 411.52 46.78 412.08 46.71 412.71 46.27 413.21 46.06 413.53 45.62 413.67 45.24 414.02 45.03 414.27 56.26 416.19 53.93 406.52" style="fill:#91a2b4"/><polygon points="61.9 412.36 61.83 411.78 61.76 411.54 61.86 410.46 61.25 410.6 60.71 410.46 60.59 410.36 60.59 410.23 60.64 409.81 61.09 409.5 61.22 409.3 61.4 409.04 61.33 408.8 61.23 408.49 61.66 408.49 61.71 408.06 61.46 407.72 61.78 407.28 61.76 407.1 61.84 406.9 62.09 406.5 62.19 405.82 61.86 405.5 61 405.78 60.24 406.4 60.02 407.1 59.58 407.67 59.23 407.93 58.77 407.99 58.31 407.77 58.04 407.2 57.77 406.81 57.05 406.81 56.64 406.98 56.84 406.36 55.78 406.2 54.81 406.23 54.12 406.61 53.93 406.52 56.26 416.19 61.9 412.36" style="fill:#99abbc"/><polygon points="93.61 372.99 93.45 373.12 92.87 373.63 91.52 374.8 91.44 375.51 91.26 375.95 90.72 375.81 90.34 376.16 89.67 377.1 88.54 377.89 87.61 378.72 86.97 379.29 86.83 379.53 86.2 379.65 86.01 380.08 85.9 380.37 85.77 381.12 85.27 381.42 84.77 381.65 83.86 382.05 82.61 382.4 81.64 382.52 80.77 382.42 80.57 382.54 80.5 382.81 80.1 383.11 79.34 382.93 78.94 382.74 78.42 382.91 78.35 383.49 78.35 384.02 78.39 384.31 78.09 384.26 77.52 384.23 77.31 384.38 77.26 385.12 77.14 385.47 76.73 385.99 76.29 386.43 75.22 387.23 74.63 387.36 74.43 387.5 74.63 388.15 74.47 388.44 73.64 389.25 73.27 389.63 73.3 390.61 71.91 390.88 71.06 390.87 70.73 391.62 69.65 391.9 68.29 391.97 68.09 392.04 67.73 392.29 67.53 392.39 67.61 391.92 67.73 391.49 67.9 391.12 68.11 390.81 68.43 390.7 68.71 390.77 69.14 391.08 69.56 391.13 69.09 390.47 68.76 390.17 68.26 390.3 67.48 390.45 67.07 390.58 66.47 390.43 66.45 390.84 66.54 391.06 67.05 391.6 66.69 392.08 66.51 392.44 65.98 392.39 65.62 392.09 65.42 391.01 64.91 391.07 64.45 390.96 63.76 390.58 63.38 390.71 63.09 390.89 62.71 391.03 62.3 391.08 61.94 391.05 61.69 390.91 61.74 390.54 61.37 390.25 61 390.12 60.5 390.5 60.19 390.77 59.95 391.14 59.81 391.52 60.15 391.64 60.23 391.55 60.4 391.28 60.68 391.39 61.76 391.62 62.16 391.61 62.6 391.98 61.99 392.17 61.55 392.39 60.39 392.64 60.21 392.73 60.03 392.99 59.62 393.05 59.17 392.99 58.85 392.86 58.66 393.23 58.56 393.63 58.47 394.63 58.35 394.86 58.16 395.08 58.05 395.32 58.19 395.63 58.62 395.96 58.68 396.08 58.76 396.44 59.15 397.09 59.3 397.91 59.42 398.14 59.51 398.43 59.44 398.86 59.17 399.38 58.83 399.67 58.47 399.89 58.1 400.21 57.77 400.74 57.81 401.09 57.99 401.42 58.1 401.86 58.25 402.2 58.96 402.26 59.21 402.67 59 403.44 59.21 403.69 59.33 404.05 59.23 404.42 59.07 404.89 59.12 405.25 58.84 406.02 58.3 406.01 58.27 406.41 58.68 406.59 58.83 406.86 59.3 407.19 59.59 406.91 59.75 406.17 60.78 405.33 62.05 403.92 62.66 402.84 63.7 403.2 64.56 403.42 65.14 404.4 66.08 405.08 66.32 405.14 66.35 405.29 66.2 405.56 66.16 405.93 66.45 406.29 66.53 406.54 66.67 406.65 66.91 406.58 67.13 406.42 67.29 406.26 67.34 406.19 67.54 406.11 67.72 406 67.86 406.01 67.91 406.3 68 406.51 68.22 406.57 68.47 406.52 68.68 406.41 68.91 406.84 69.31 406.77 70.7 405.92 71 405.63 71.65 404.74 72.42 403.33 72.61 403.11 72.91 403.33 73.03 403.84 72.96 404.42 72.71 404.86 72.83 404.93 73.42 404.53 73.47 404.42 73.5 404.48 74.85 403.56 74.83 403.53 75.01 403.45 112.42 378.04 93.61 372.99" style="fill:#99abbc"/><polygon points="104.13 426.53 104.51 426.55 104.41 426.77 104.14 426.84 104.18 428.31 104.47 428.21 104.95 428.22 104.47 428.63 104.82 428.87 105.14 429.37 104.8 429.67 104.23 429.8 104.5 438.89 104.81 438.86 105.27 439.07 105.81 439.12 105.44 438.69 105.91 438.84 107.11 439.64 107.36 439.66 107.72 439.58 109.66 439.56 109.55 439.95 109.2 440.36 108.36 441.25 107.89 442.24 107.25 443.08 107.15 443.93 107.37 444.6 108.41 443.74 109.72 443.4 110.23 443.89 111.02 444.59 111.42 444.79 111.97 444.96 112.55 444.98 113.04 444.7 113.43 444.31 113.85 444.04 114.24 444.06 114.49 444.59 114.82 443.89 115.44 443.77 116.12 444.01 116.61 444.39 116.75 444.63 117.02 445.25 117.17 445.48 117.39 445.64 117.89 445.89 118.61 445.6 118.6 445 118.32 444.41 117.94 443.95 117.4 443.48 117.17 443.22 116.98 442.84 116.58 442.6 116.65 441.93 116.57 441.38 116.73 441.01 117.55 441.06 117.9 440.85 118.09 439.75 117.67 438.29 117.88 437.07 118.34 435.89 119.31 435.39 119.92 435.74 120.35 436.04 120.57 435.9 120.6 435.61 120.56 435.11 120.84 434.7 121.55 433.8 122.46 432.25 123.17 431.42 123.55 431.44 123.72 431.81 124.16 431.55 123.95 431.33 123.88 430.64 124.2 430.42 124.53 430.11 103.93 419.94 104.13 426.53" style="fill:#aaa4bf"/><polygon points="104.85 440 104.69 439.88 104.53 439.72 104.54 440.13 104.85 440" style="fill:#aaa4bf"/><polygon points="363.82 99.72 399.73 95.97 383.4 34.67 363.82 99.72" style="fill:#9dacbf"/><polygon points="399.73 95.97 413.36 111.1 414.82 108.88 416.61 106.77 420.86 103.25 423.56 100.06 427.93 97.04 431.89 95.21 435.11 94.41 436.3 88.46 399.73 95.97" style="fill:#a5a4bd"/><polygon points="435.11 94.41 435.82 94.24 436.44 94.2 436.81 94.36 437 94.72 437.1 95.14 437.23 95.46 437.48 95.75 437.72 95.94 439.8 96.65 440.67 96.79 441.4 96.39 443.57 96.21 446.14 96.79 436.3 88.46 435.11 94.41" style="fill:#aa9dbb"/><polygon points="399.73 95.97 436.3 88.46 383.4 34.67 399.73 95.97" style="fill:#9ba4bb"/><polygon points="84.75 428.82 83.06 428.51 81.63 427.98 81.32 428.5 80.04 427.93 78.85 428.53 77.05 428.47 76.5 428.27 75.99 427.88 75.66 425.71 75.87 424.99 76.63 424.89 77.03 425.33 77.28 425.53 77.84 425.53 78.41 425.43 78.54 424.93 78.78 424.8 79.48 424.64 79.59 424.23 79.51 423.72 79.64 423.26 80.16 423.06 80.61 423.28 81.25 423.59 81.5 423.49 81.58 422.75 82.09 421.75 82.37 421.07 82.14 420.17 82.44 419.29 82.36 418.63 82.23 418.24 73.7 417.56 73.55 417.7 73.39 417.94 71.98 418.16 70.73 417.95 69.63 417.92 68.86 417.19 67.84 417.1 67.83 417.1 56.26 416.19 47.29 440.07 48.07 440.87 50.23 442.56 50.59 443.18 50.64 443.39 50.75 443.53 50.79 443.67 50.69 443.84 50.38 444.25 50.25 444.49 50.2 444.7 50.23 444.81 84.8 428.81 84.75 428.82" style="fill:#979fb6"/><polygon points="100.8 419.7 98 421.05 97.18 421.73 96.5 421.72 95.98 422.06 95.36 422.02 94.56 422.33 94.11 422.6 94.16 422.87 94.42 423.15 94.05 423.3 93.55 423.15 92.39 423.52 91.19 424.57 90.58 424.92 90.04 425.44 90.46 425.57 91.81 424.84 92.84 424.23 92.6 424.76 92.95 424.95 93.1 424.96 93.59 424.73 93.66 424.64 93.96 424.15 94.79 423.57 95.77 423.06 96.87 422.49 97.57 422.27 98.39 421.73 98.79 421.94 99.12 421.79 99.42 421.63 99.94 421.6 100.26 421.64 103.93 419.94 100.8 419.7" style="fill:#979fb6"/><polygon points="104.17 429.81 103.86 430.28 103.93 430.84 103.39 431.23 103.16 430.83 102.7 430.51 102.65 430.11 102.26 430.08 101.54 429.92 100.83 430.11 100.94 430.65 101.41 430.58 101.64 430.26 102.05 430.51 102.36 430.71 102.62 431.08 102.05 431.26 101.97 431.65 102.12 432.09 102.39 432.27 103.21 432.29 103.51 432.4 103.44 432.63 103.23 432.86 103.11 432.97 102.98 433 102.36 432.97 102.36 433.17 102.74 433.27 102.92 433.58 102.91 434.01 102.74 434.49 103.31 434.49 102.99 434.87 102.43 434.96 101.2 434.43 100.89 434.8 100.99 435.25 100.48 436.02 100.89 436.13 101.53 434.99 102.13 435.26 102.99 435.35 103.26 435.9 103.83 436.88 103.68 437.13 103.31 437.6 103.62 438.3 103.01 438.78 103.52 439.82 103.9 440.13 104.37 440.2 104.54 440.13 104.53 439.72 104.44 439.64 104.27 439.56 104.47 438.89 104.5 438.89 104.23 429.8 104.17 429.81" style="fill:#999db7"/><polygon points="93.41 424.97 93.59 424.73 93.1 424.96 93.41 424.97" style="fill:#999db7"/><polygon points="91.45 438.36 90.72 438.22 90.36 438.68 90.13 438.76 90.02 438.61 90.03 438.45 89.69 438.62 89.49 438.53 89.34 438.35 89.16 438.25 88.9 438.31 88.6 438.44 88.33 437.96 87.91 437.95 87.35 437.41 87.03 437.2 87.13 436.28 87.58 435.74 87.77 435.15 88.21 435.13 89.3 435.2 90.01 435.01 90.12 434.61 89.64 433.71 89.5 434.44 89.33 434.63 89.07 434.73 88.82 434.68 88.57 434.5 88.37 434.21 88.13 433.69 87.91 433.7 87.85 434.11 87.76 434.47 87.38 434.44 87.1 434.18 86.68 434.11 86.39 434.25 85.9 434.01 86.06 433.63 86.5 433.15 87.26 432.65 86.95 432.51 86.06 432.52 85.33 433.02 84.4 432.56 84.88 431.76 85 431.21 85.5 430.62 85.94 430.46 86.16 430.22 86.14 429.74 86.44 429.06 87.01 428.11 86.5 428.04 85.56 428.56 84.8 428.81 50.23 444.81 50.27 445.05 50.47 445.43 50.77 445.74 51.16 445.9 51.16 446.13 50.89 446.14 50.66 446.19 50.2 446.35 49.77 446.31 49.46 446.47 48.86 447.01 46.92 447.95 46.8 448.05 48.48 448.49 51.59 447.91 52.35 447.9 52.01 448.7 51.59 449.22 51.53 449.27 79.3 456.42 79.34 456.26 79.45 455.98 79.67 455.86 80 455.8 80.3 455.63 81.02 455.14 80.59 454.5 80.1 454.01 80.19 453.39 80.73 453.48 81.19 453.66 81.81 453.51 82.34 452.91 81.85 452.37 81.67 452.28 81.2 452.28 80.9 451.93 80.82 451.53 81.29 450.59 81.45 450.05 81.57 449.91 82.15 449.97 82.54 449.84 82.7 449.65 83.2 448.79 83.31 448.44 83.28 448.19 83.24 448.1 83.22 448.05 83.31 447.9 83.44 447.74 83.8 447.45 84.15 446.88 84.59 446.61 84.74 446.18 85.08 446.31 85.47 446.84 85.7 446.71 85.73 446.24 85.8 445.7 85.87 445.61 86.01 445.54 86.13 445.41 86.16 445.25 86.18 445.15 86.18 444.27 86.44 443.59 87.76 443.76 88.29 443.28 88.69 443.3 89.2 443.09 89.65 442.73 89.84 442.29 89.68 442.12 88.86 442.23 88.5 442.18 88.73 441.82 88.97 441.64 89.21 441.52 89.46 441.31 89.75 440.78 89.63 440.56 89.37 440.43 89.25 440.22 89.6 439.75 90.46 439.11 90.97 438.99 91.56 438.7 92.11 438.8 92.02 438.48 91.45 438.36" style="fill:#999db7"/><polygon points="103.92 426.9 103.36 427.31 103.35 427.77 103.56 427.96 103.86 428.09 104 428.37 104.18 428.31 104.14 426.84 103.92 426.9" style="fill:#999db7"/><polygon points="100.26 421.64 100.45 421.67 101.57 422.37 101.31 422.45 101.09 422.58 100.93 422.79 100.82 423.04 101.2 423.04 101.2 423.26 100.73 423.87 100.72 424.61 101.05 425 101.57 424.59 101.47 425.49 101.41 425.68 101.2 425.85 100.74 425.9 100.53 426.02 100.38 426.39 100.7 426.5 101.01 426.72 101.54 426.88 103.42 426.5 104.13 426.53 103.93 419.94 100.26 421.64" style="fill:#999db7"/><polygon points="359.81 15.05 362.77 21.24 363.66 23.89 364.5 28.45 364.66 30.51 383.4 34.67 359.81 15.05" style="fill:#93acbb"/><polygon points="436.3 88.46 451.15 58.3 450.09 59.41 448.88 60.18 447.54 60.44 442.76 60.06 438.84 59.4 437.85 59.09 437.4 58.88 436.2 57.99 435.95 57.86 435.7 57.58 435.24 56.35 435 56.07 434.56 55.88 434.28 55.41 433.93 54.28 434.15 53.22 433.57 52.79 432.79 53.08 432.4 54.17 432.3 54.74 432.05 55.37 431.74 55.94 431.44 56.3 431.04 56.51 430.63 56.48 429.71 56.07 430.31 54.25 430.69 53.77 431.2 53.49 431.57 53.41 431.57 53.28 431.05 52.86 430.1 52.42 426.73 52.24 426.28 52.39 425.8 52.76 425 53.65 424.77 53.55 420.66 53.49 420.28 53.37 419.93 53.13 419.52 52.73 419.4 52.84 419.12 53.01 418.73 51.59 418.58 51.34 417.9 50.66 417.77 50.42 418.19 50.14 420.48 50.42 420.48 50.16 414.18 47.79 410.05 45.35 409.8 45.14 409.03 44.27 409.01 44.07 408.53 42.96 408.22 42.75 407 42.45 406.49 42.01 405.9 41.38 383.4 34.67 436.3 88.46" style="fill:#989cb6"/><polygon points="45.03 414.27 44.87 414.46 44.43 414.85 43.28 415.33 42.68 415.25 42.3 415 42.14 414.52 41.84 414.46 41.7 414.71 41.86 415.27 42.2 415.56 42.52 415.46 42.7 415.63 43.02 415.81 43.38 416.02 43.73 415.85 44.23 415.43 44.77 415.11 44.9 415.47 45.02 415.72 44.88 416.35 44.8 416.83 44.55 417.19 44.05 417.25 43.63 417.44 42.85 417.42 42.43 417.43 42.16 417.83 42.05 418 41.87 418.02 41.73 418.18 41.59 418.09 41.25 417.91 41.03 417.72 41.31 417.24 41.21 416.97 40.64 417.09 40.47 416.97 40.08 416.74 39.96 416.22 40.22 415.92 40.09 415.63 39.77 415.42 39.42 415.25 39.33 416.06 39.13 416.26 38.93 416.37 38.69 416.41 38.37 416.42 38.06 416.39 37.9 416.74 37.98 417.14 37.49 417.52 37.2 417.63 36.93 417.63 36.64 417.68 36.34 417.94 36.19 418.2 36.16 418.43 36.3 418.58 36.64 418.64 36.89 418.74 36.96 419.18 37.23 419.28 38.12 419.07 38.47 419.06 38.3 419.48 37.97 419.76 37.59 419.91 37.23 419.96 37.12 420.05 36.81 420.29 36.49 420.19 35.99 420.36 35.13 420.73 34.83 421.04 34.71 421.82 34.39 422.17 34.05 422.32 33.27 422.22 32.89 422.05 32.65 421.77 32.65 421.46 32.53 421.14 32.27 421.42 31.93 421.24 32.05 420.87 32.37 420.49 32.49 420.16 31.95 419.55 31.05 419.05 30.37 419.42 29.89 419.3 29.45 418.88 29.49 419.51 29 420.15 29.2 421.18 29.84 421.97 29.96 422.42 29.7 422.61 29.33 422.43 29.12 422.05 28.96 421.66 28.48 421.08 28.08 421.16 27.88 421.62 27.6 422.04 27.87 422.37 28.42 422.96 29.89 423.88 29.7 424.12 29.96 424.5 29.62 424.85 29.26 425.48 29.12 426.5 29.31 427.23 29.41 427.66 29.02 427.49 28.72 427.22 28.52 426.87 28.37 426.02 28.37 426.01 28.17 425.47 26.39 424.95 25.18 425.31 24.5 425.01 24.58 424.13 24.4 423.85 23.59 425.01 22.92 425.11 22.13 424.41 21.79 424.73 21.68 425.48 21.62 425.87 37.01 440.39 37.36 440.21 37.77 439.98 38.17 439.56 38.87 439.37 39.3 438.94 39.31 438.23 39.73 438.1 39.82 437.45 39.3 436.92 38.09 434.92 37.65 433.94 37.28 433.38 37.16 432.77 37.81 433.07 38.58 432.33 39.74 431.54 40.36 430.61 40.83 430.92 41.73 431.86 42.02 431.85 42.42 431.89 43.05 432.06 43.82 432.15 43.91 432.33 43.9 432.6 44.03 432.97 44.23 433.2 44.81 433.61 44.94 433.67 45.08 433.68 45.23 433.72 45.39 433.85 45.44 434.01 45.42 434.42 45.61 435.04 45.55 436.43 45.74 438.53 45.97 439.11 46.78 439.55 47.29 440.07 56.26 416.19 45.03 414.27" style="fill:#909ab1"/><polygon points="43.71 446.65 43.43 446.13 43.55 445.71 44.07 445.02 44.13 444.73 44.1 443.7 44.03 443.28 43.44 441.98 43.11 441.25 42.21 440.62 40.42 440.65 39.05 441.63 38.58 441.7 38.4 441.7 43.68 446.68 43.71 446.65" style="fill:#909ab1"/><polygon points="386.35 20.13 385.73 18.84 376.79 8.11 375.72 7.1 373.29 5.33 372.17 4.19 371.08 2.13 370.63 1.84 370.23 1.64 369.95 1.17 369.47 0.04 369.04 -0.35 368.32 -0.17 367.6 0.41 367.17 1.05 367.13 1.44 367.13 1.96 367.08 2.42 366.89 2.62 366.58 2.72 365.62 3.4 364.24 3.77 362.94 3.93 362.28 4.19 361.94 4.18 361.78 3.8 361.77 3.29 361.69 2.88 361.52 2.57 361.19 2.34 360.69 2.84 360.45 3.46 360.39 4.1 360.44 4.69 360.76 5.9 360.73 6.53 360.13 7.54 360.04 7.89 359.98 8.25 359.85 8.66 359.63 9.02 359.06 9.69 358.89 9.96 358.64 11.65 358.97 13.28 359.81 15.05 383.4 34.67 386.35 20.13" style="fill:#90a4b5"/><polygon points="477.67 80.37 476.74 80.09 476.38 80.05 476.3 80.01 476.22 79.92 476.09 79.83 475.9 79.8 475.74 79.88 475.38 80.24 475.14 80.32 473.82 80.24 473.41 80.32 473.06 80.55 472.91 80.8 472.81 81.07 472.63 81.31 472.27 81.5 471.54 81.69 471.19 81.95 470.02 83.22 468.96 84.11 468.78 84.36 468.91 84.87 469.25 85.17 469.49 85.45 469.35 85.9 468.65 85.32 467.99 85.01 465.61 84.79 464.69 84.55 463.86 84.15 463.38 83.58 463.84 83.42 463.68 83.17 463.2 82.93 462.7 82.83 462.26 82.66 462.09 82.27 462.15 81.85 462.42 81.56 463.23 81.75 464.99 83.22 465.88 83.08 464.54 82.07 463.58 80.81 463 79.38 462.26 76.25 461.91 75.34 461.76 74.74 461.36 74.39 461.26 74.09 461.19 73.28 460.97 72.55 460.66 71.91 460.3 71.39 458.49 69.5 458.09 68.93 456.93 66.44 456.86 66.15 456.84 65.67 456.93 65.24 457.34 64.69 457.6 63.87 457.92 63.16 458.09 62.39 457.81 61.71 458.27 60.35 458.31 60.27 453.37 55.97 453.36 55.98 451.15 58.3 436.3 88.46 457.9 92.08 457.95 92 459.02 91.9 459.3 91.74 459.56 91.42 459.11 91.22 458.63 91.23 458.28 91.09 458.18 90.43 458.36 89.92 458.72 89.62 459.16 89.47 461.32 89.14 462.09 88.83 462.7 88.26 463.33 87.95 466.18 87.89 467.06 87.63 467.54 87.56 468.26 88 468.84 88.15 469.4 88.21 469.73 88.12 469.35 87.89 470.15 86.9 470.33 86.61 470.49 86.18 470.73 85.27 470.9 84.87 471.12 84.57 471.86 83.86 472.12 83.48 472.28 83.15 472.5 82.92 472.92 82.83 473.74 82.98 474.04 82.9 474.46 82.46 474.73 82.3 475.81 82.07 476.18 81.91 476.67 81.19 476.96 81.04 477.59 81.03 477.82 80.89 478 80.55 477.67 80.37" style="fill:#9a94b4"/><polygon points="405.9 41.38 405.43 40.88 404.98 40.65 404.41 40.47 401.99 38.59 399.87 36.41 398.14 35.21 396.97 33.39 396.07 32.91 390.63 26.9 389.28 24.61 388.29 23.96 387.83 23.19 386.35 20.13 383.4 34.67 405.9 41.38" style="fill:#939cb3"/><polygon points="49.62 454.18 49.36 454.97 48.76 455.33 48.04 456.29 47.9 456.52 48.01 457.42 47.97 457.8 47.71 458.15 46.98 457.46 46.77 457.52 46.54 458.15 46.51 458.44 46.6 458.72 46.54 459.02 46.41 459.18 46.05 459.41 45.97 459.57 45.68 460.38 44.32 461.8 43.92 492.19 46.25 492.26 47.47 492.96 47.8 493.42 48.07 494.15 48.09 494.59 48.23 494.8 48.65 495.01 49.05 495 49.38 494.86 49.69 494.84 50.05 495.22 50.53 494.69 51.08 494.48 51.55 494.24 51.74 493.6 51.83 493.07 52.17 491.97 52.12 491.57 51.09 491.44 50.51 490.61 50.12 490.48 49.68 490.21 49.38 489.59 49.04 488.3 48.2 486.5 48.07 485.84 48.13 485.24 48.44 483.95 48.81 483.05 49.26 482.28 49.52 481.19 49.73 480.86 50.49 480 50.6 479.74 50.71 478.93 50.79 478.61 51.69 477.59 52.84 477.25 54.3 477.79 55.38 477.73 56.17 478.45 56.33 479.6 56.02 480.84 55.38 481.85 54.88 482.36 54.61 482.48 54.25 482.49 53.87 482.37 53.78 482.14 53.86 481.3 53.56 480.76 52.89 480.6 52.18 480.65 51.49 480.5 50.82 480.83 50.17 481.65 50.38 482.05 50.69 482.28 50.97 482.34 51.46 482.63 53.11 482.92 53.39 483.46 53.03 484.82 53.33 485.65 54.56 486.4 55.19 487.44 55.56 488.38 55.91 489.27 55.95 489.87 55.75 491.45 55.49 492.48 54.75 493.69 55.06 494.24 54.44 496.29 54.04 496.6 52.93 497.27 52.21 497.92 52.19 498.11 55.13 498.33 55.13 498.33 55.31 498.05 55.83 497.66 56.59 497.36 57.31 497.28 58.03 497.09 59.06 496.74 59.53 496.55 59.99 496.29 60.43 495.98 60.78 495.65 61.1 495.2 61.58 494.24 61.85 493.82 61.89 493.15 62.59 492.95 63.35 493.02 65.37 491.32 65.17 491.04 64.26 491.43 63.74 491.23 63.99 490.76 64.59 490.37 64.68 490.13 64.58 489.76 64 489.46 63.34 489.26 62.38 488.97 62.04 488.69 62.45 487.46 62.93 486.66 63.26 486.27 63.68 485.96 64.73 485.49 65.32 485.33 65.89 485.27 66.2 485.5 66.68 485.87 67.29 485.71 67.5 485.75 67.63 485.8 67.82 486.06 68.36 486.63 68.49 486.82 68.56 487.14 68.55 487.66 68.68 487.89 69.13 488.12 69.66 488.09 70.79 487.89 70.75 488.03 70.72 488.11 70.6 488.3 70.79 488.38 70.86 488.43 70.97 488.54 71.16 488.38 71.23 488.19 71.26 487.96 71.36 487.68 71.73 487.19 71.88 486.9 72.15 485.4 72.23 485.18 72.58 484.82 72.72 484.65 72.71 483.98 72.66 483.84 72.56 483.72 72.48 483.52 72.52 483.14 72.53 483.11 49.59 453.93 49.62 454.18" style="fill:#938fad"/><polygon points="446.14 96.79 447.59 97.12 448.75 96.74 448.41 96.36 447.96 96.01 447.57 95.61 447.41 95.09 447.5 94.66 447.74 94.11 448.02 93.65 448.27 93.45 448.46 93.35 448.76 92.87 448.96 92.7 449.18 92.62 449.32 92.63 449.5 92.67 449.82 92.7 450.34 92.86 450.43 93.26 450.35 93.72 450.4 94.08 451.15 94.76 452.02 95.09 452.97 95.14 454.84 94.85 455.24 94.72 455.5 94.47 455.61 93.99 455.46 93.59 454.92 92.7 456.27 93.12 456.96 93.09 457.62 92.7 457.82 92.39 457.86 92.15 457.9 92.08 436.3 88.46 446.14 96.79" style="fill:#a494b6"/><polygon points="46.42 448.33 46.16 448.77 46.54 448.97 47 448.75 48.48 448.49 46.8 448.05 46.42 448.33" style="fill:#9795b2"/><polygon points="49.59 450.91 49.44 451.17 49.52 451.56 50.16 452.06 50.39 452.48 49.59 452.47 49.27 452.59 49.04 452.91 49.52 453.36 49.59 453.93 72.53 483.11 72.64 482.83 73.01 482.22 73.09 482.17 73.22 481.65 73.55 481.26 74.45 480.55 74.31 479.6 75.01 476.09 75.1 475.83 75.51 475.3 75.6 475.02 74.81 474.73 74.47 474.19 74.23 473.39 74.3 473.03 74.22 472.45 74.54 471.55 75.6 468.15 76.56 465.14 77.12 463.17 77.45 461.63 77.96 460.49 78.3 458.9 78.59 458.27 78.82 458.07 78.97 457.99 79.06 457.84 79.12 457.1 79.3 456.42 51.53 449.27 49.59 450.91" style="fill:#9795b2"/><polygon points="21.54 426.35 21.9 426.98 22.05 427.34 22.11 427.55 21.81 427.82 21.61 427.76 21.37 427.92 21.32 428.45 21 429.4 21.34 429.88 22.07 429.88 22.35 429.97 22.83 430.41 23.13 430.5 23.41 430.47 23.62 430.32 23.82 430.55 23.92 430.72 23.92 430.91 23.83 431.19 24.12 431.33 24.43 431.51 24.68 431.77 24.79 432.09 24.69 432.45 24.09 432.6 24.21 433.41 24.41 433.32 24.61 432.97 25.06 432.99 25.27 433.07 25.38 432.83 25.49 432.13 25.43 431.44 25.79 431.57 25.75 431.98 25.82 432.4 25.95 432.73 26.49 432.18 26.8 432.2 26.84 432.49 26.45 432.65 26.43 432.92 26.53 433.51 26.25 433.42 26.09 433.39 26.34 434.21 26.46 434.55 26.87 434.83 27.26 434.79 27.58 434.39 27.89 434.18 28.59 434.65 28.63 435.27 28.92 435.27 29.45 434.92 30.25 434.64 31.11 435.49 32.05 436.15 32.11 436.82 31.87 437.55 31.6 438.02 31.65 438.94 33.18 441.05 33.67 441.61 33.24 441.73 31.77 441.13 30.3 440.64 30.05 441.11 29.89 441.37 29.5 441.54 29.38 441.74 29.24 441.84 29.13 441.64 28.85 441.45 28.6 441.19 28.38 441.04 27.8 440.67 28.17 440.31 28.07 439.78 27.68 439.47 27.59 438.33 27.84 438.33 27.98 439.1 28.15 439.39 28.37 439.14 28.41 438.65 28.35 437.88 28.41 437.59 28.61 437.31 28.31 436.82 27.88 436.33 27.02 436.08 26.61 436.79 26.32 436.94 26.16 436.53 26.24 436.04 26.64 435.32 26.83 435.12 26.7 434.89 26.56 434.83 26.4 435 26.22 435.18 26.13 435.16 26.11 435.08 26.14 434.8 26.13 434.73 25.72 434.12 24.64 433.64 24.13 434.44 24.05 435.38 23.8 435.58 23.74 436.11 23.85 436.52 23.64 436.99 23.25 437.33 23.22 438.05 23.42 439.01 23.8 439.13 24.07 439.39 24.3 439.7 24.4 440.11 24.44 440.49 24.55 440.81 24.79 441.31 25.1 441.8 25.74 442.2 26.07 442.89 26.4 442.75 26.68 442.47 27.15 442.62 27.3 442.96 27.36 443.35 27.53 443.55 27.77 443.7 28.07 443.95 28.64 445.11 28.63 445.56 29.62 445.48 29.24 446.22 29.01 446.39 31.09 446.53 31.24 446.32 31.95 445.35 32.31 444.82 32.16 444.42 32.41 444.19 32.51 444.29 32.53 444.57 32.75 444.84 33.32 444.76 33.81 444.52 34.49 444.37 34.98 443.95 35.38 443.55 36.21 443.23 37.12 443.42 37.46 443.42 37.74 443.21 38.59 443.29 38.92 443.59 38.8 443.88 38.71 444.06 38.82 444.28 39.08 444.43 39.41 444.6 39.48 445.2 39.23 445.49 38.92 445.81 38.56 446.1 38.27 446.33 37.89 446.7 37.57 446.84 37.18 446.78 37.18 446.96 43.07 447.36 43.17 447.31 43.68 446.68 38.4 441.7 37.89 441.7 37.3 441.27 37.01 440.86 36.53 440.63 36.82 440.5 37.01 440.39 21.62 425.87 21.54 426.35" style="fill:#8d95ad"/><polygon points="28.69 446.11 28.39 446.21 28.29 446.34 28.88 446.38 28.69 446.11" style="fill:#8d95ad"/><polygon points="458.88 59.01 459.6 57.8 462.15 54.66 462.39 54.07 462.67 52.24 462.7 52.17 454.45 54.74 453.37 55.97 458.31 60.27 458.88 59.01" style="fill:#978eb0"/><polygon points="28.93 446.45 28.88 446.38 28.29 446.34 28.21 446.45 27.87 446.51 27.87 446.76 28.05 446.97 28.35 446.79 28.47 446.98 28.37 447.46 28.09 447.94 27.8 448.43 27.48 449.22 27.26 449.43 26.89 449.59 26.55 449.72 26.11 450.07 26.29 450.46 26.55 450.33 26.93 450.1 27.3 450.21 27.48 450.3 27.56 450 28.2 449.54 28.87 448.95 29.02 448.45 29.12 448.2 29.52 448.18 30.05 447.89 30.63 447.45 30.87 446.87 31.09 446.53 29.01 446.39 28.93 446.45" style="fill:#8d8eaa"/><polygon points="43.65 462.5 43.63 462.61 43.65 463.07 43.6 463.17 43.36 463.26 43.27 463.38 43.26 463.42 42.99 464.26 42.9 464.47 42.55 464.8 41.96 465.19 41.4 465.36 40.55 464.31 39.38 464.72 38.63 465.59 39.31 466.25 39.31 467.02 38.81 467.7 38.44 468 38.47 468.59 38.91 469 39.03 469.16 39.34 469.45 39.59 470.13 39.77 470.78 39.61 472.18 39.11 473.04 39.41 473.5 40.18 474.27 39.84 474.12 38.92 473.78 38.66 474.04 38.39 475.2 38.68 475.89 38.75 476.2 39.19 476.35 40.49 477.12 40.86 477.39 41.93 479 42.72 479.88 43.02 480.38 43.06 480.96 42.69 481.63 42.97 482.4 42.8 483.45 42.48 484.59 42.14 485.11 41.81 486.11 40.45 487.37 39.99 488.11 39.62 487.8 39.08 487.14 38.75 487.01 38.51 486.98 38.14 486.83 37.88 486.82 37.65 486.89 36.92 487.25 37.53 487.6 38.36 488.25 39.1 488.96 39.41 489.52 39.38 489.89 38.93 489.83 38.62 489.8 39 490.19 39.28 490.87 39.44 491.32 39.53 491.9 39.82 492.36 40.56 492.43 41.3 492.15 41.93 492.13 43.92 492.19 44.32 461.8 43.65 462.5" style="fill:#8d8eaa"/><polygon points="37.19 447.5 37.21 448.14 37.71 448.37 37.94 448.64 38.34 448.85 38.44 449.34 38.24 449.68 38.67 449.7 39.15 449.36 39.84 449.27 40.08 449.14 40.22 448.74 40.71 448.67 40.88 448.41 40.85 448.06 41.11 447.85 42.16 447.81 43.07 447.36 37.18 446.96 37.19 447.5" style="fill:#8d8eaa"/><polygon points="462.99 51.47 464.66 49.33 465.27 47.93 465.31 46.3 465.14 45.9 464.65 45.03 464.42 44.29 464.16 44.27 463.9 44.44 463.77 44.64 463.53 45.39 462.97 46.05 461.86 47.07 460.5 49.54 460.02 49.93 459.51 50.12 458.18 51.47 456.19 52.68 455.88 53.12 454.45 54.74 462.7 52.17 462.99 51.47" style="fill:#918aaa"/><polygon points="52.05 500 52.62 499.94 53.09 499.51 53.95 498.62 55.13 498.33 52.19 498.11 52.05 500" style="fill:#938bad"/></svg>