<?xml version="1.0" encoding="utf-8"?>
<!-- Generator: Adobe Illustrator 22.1.0, SVG Export Plug-In . SVG Version: 6.00 Build 0)  -->
<svg version="1.1" id="Layer_1" xmlns="http://www.w3.org/2000/svg" xmlns:xlink="http://www.w3.org/1999/xlink" x="0px" y="0px"
	 viewBox="0 0 500 500" style="enable-background:new 0 0 500 500;" xml:space="preserve">
<style type="text/css">
	.st0{fill:#5DBFC1;}
	.st1{fill:#303030;}
	.st2{fill:#73ADBA;}
	.st3{fill:#5EA3B9;}
	.st4{fill:#489DBB;}
	.st5{fill:#2595C0;}
	.st6{fill:#4D9EBA;}
	.st7{fill:#297BB4;}
	.st8{fill:#2087BC;}
	.st9{fill:#5F8DAF;}
	.st10{fill:#729FB3;}
	.st11{fill:#4EB4C2;}
	.st12{fill:#37A9C3;}
	.st13{fill:#37A7C3;}
	.st14{fill:#93CABC;}
	.st15{fill:#3998BC;}
	.st16{fill:#82CBBD;}
	.st17{fill:#2A9AC1;}
	.st18{fill:#61B3BE;}
	.st19{fill:#50BAC3;}
	.st20{fill:#50ACBF;}
	.st21{fill:#79C4BE;}
	.st22{fill:#82B9BB;}
	.st23{fill:#9ED8B8;}
	.st24{fill:#83CEBB;}
	.st25{fill:#9AD4BA;}
	.st26{fill:#B5E1B6;}
	.st27{fill:#70C6BE;}
	.st28{fill:#88A8B3;}
</style>
<g id="Layer_1_1_">
	<title>Mapa_Artboard 7</title>
	<path class="st0" d="M298.9,157.1l-0.2,1l0.9-1.2l-0.2-0.1C299.2,156.8,299,156.9,298.9,157.1L298.9,157.1z"/>
	<path class="st1" d="M391.9,195.6l0.4,1.2h0.1C392.6,196.4,392.2,196.1,391.9,195.6z"/>
	<path class="st0" d="M314.1,198.1c0.3,0.9,0,0,0.5,0.4s0.5-0.2,0.5-0.2l0.4-0.8L314,196v0.6C313.9,197.1,314,197.7,314.1,198.1z"/>
	<path class="st2" d="M331.1,190.8c0.1-0.6,0.1-1.3,0-1.9c-0.1-0.5,0,0.5-0.1-0.5s0.1-0.2-0.1-1c-0.2-0.4-0.3-0.9-0.2-1.4
		c0-0.3,0.1-0.7,0.1-1v-0.6l-0.4-0.6c0-0.3-0.1-0.6-0.4-0.7l-0.4-0.3c-0.4-0.4-0.8-0.7-1.3-0.9c-0.1-0.2-0.2-0.5-0.2-0.8
		c-0.1-0.5-0.2,0.1-0.1-0.5s-0.6,0,0.1-0.6l0.8-0.6l0.6-0.5c0,0,0.9-1,0.9-1.4V177c0-0.7,0.2-1.3,0.5-1.9c0,0-0.2-0.6-0.4-1
		s0.3,0.6-0.1-0.4l-0.4-1l-0.6-0.6c-0.3-0.3-0.6-0.5-0.9-0.6l-0.6-0.1h-0.8l-0.6-0.8c-0.2-0.4-0.3-0.7-0.4-1.1
		c-0.1-0.6,0.1-0.1-0.1-0.6l-0.2-0.5l-1-0.9l-0.8-0.4c0,0-0.9-0.6-1.3-0.3c-0.3,0.3-0.5,0.6-0.8,1c0.1,0.3-0.1,0.6-0.4,0.8
		c-0.5,0.2,0.4,0.2-0.5,0.2s-0.4-0.6-0.9,0l-1,1.3c-0.2,0.2-0.4,0.4-0.5,0.6l-0.4,1.1c-0.2,0.6-0.3,1.2-0.2,1.8v0.9l-0.5,0.4
		l-0.6,0.8c-0.1,0.9,0,1.3-0.1,1.6l-0.1,0.4l-1.2,1.3l-0.6,0.5v1.6c0.1,0.3,0,0.7-0.2,0.9c-0.5,0.4,0.1,1.5,0.1,1.5l-0.5,1.1
		l-0.2,0.8c0.2,0.4,0.4,0.8,0.5,1.3c0,0.4-0.3,0.8-0.3,1.1s0.1,0.7,0.3,1l0.1,0.9l0.1,0.8c-0.2,0.2-0.2,0.5,0,0.7l0,0
		c0.3,0.3,0.5,0.7,0.5,1.1c0.1,0.5,0,0.6,0.4,1.1c0.3,0.4,0.5,0.8,0.8,1.3l0.2,0.6c-0.1,0.3-0.3,0.6-0.4,0.9c-0.1,0.3-0.3,0.7-0.5,1
		l-0.1,0.1l0.9,0.9l1,1.1c0,0,1.1-1.5,1.3,0c0.2,1,0.5,2.1,0.9,3.1c0,0.5,0.2,1,0.6,1.3l0.7,0.4c0,0,1.1,0.6,1.7,1.1l0.7,0.4
		l1.6,0.4l0.3,0.1c0.1-0.1,0.1-0.3,0.1-0.4l1.9-1.7c0.1,0,0.2-0.1,0.4-0.2c0.8-0.4,0.1,0.1,0.8-0.4s0.4,0.6,0.6-0.5
		c0-0.2,0.1-0.5,0.2-0.7c0.1-0.1,0.1-0.3,0.1-0.4c0-0.4-0.2-0.9-0.4-1.3c0,0-0.2-0.2-0.5,0.1s0.4-0.4-0.2,0.4s0.1,0.2-0.6,0.8
		c-0.5,0.3-0.9,0.7-1.3,1.1l-0.9-0.1c-0.3-1.1,0.2-0.9-0.3-1.1s-0.8,0.6-1.1-0.4s-0.4-0.5-0.4-1s-0.4,0.1,0-0.5
		c0.2-0.4,0.6-0.7,1-0.9l0.4,0.6l0.6,0.4l0.8,0.3l0.8-0.4c0.5-0.6,0.8-1.2,1.1-1.9c-0.1-0.4,0-0.9,0.1-1.3c0.3-0.5-0.2,0.1,0.3-0.5
		s1.5-1.8,1.5-1.8c0-0.2,0.1-0.4,0.3-0.6c0.2-0.5-0.4,0.3,0.2-0.5s0.4,0.4,0.6-0.8l0.3-1.1L331.1,190.8z"/>
	<path class="st1" d="M413.7,212.2L413.7,212.2L413.7,212.2L413.7,212.2z"/>
	<path class="st1" d="M408.4,240.5l-0.1,0.1C408.4,240.6,408.4,240.6,408.4,240.5z"/>
	<path class="st3" d="M332.3,211.6c0,0,0.9,1.8,2.4,2s1.5,1.3,2.2,2.8s1.3,1.5,2,2.4c1,1.1,2.1,2.1,3.3,3c0.3,0.4,0.6,0.7,0.9,1.1
		c0.6,0.9,0.4,1.7,1.4,2.4s3.2,0.9,2.7,1.5s-0.5,1.6,0,2.2c0.6,0.6-0.4-0.6,0.6,0.6s-0.2,0.2,1.1,1.3l1.3,1.1
		c0.1,0.7,0.5,1.3,1.1,1.7c0.8,0.6,1.4,1.4,2,2.2l0.6,1.1h1.1c0,0,0.2-0.4,1.3,0h0.1l8.9-26.4l0,0c-0.6-0.1-0.8,0-1.1-0.4
		s0.5,0-0.4-0.4s-0.1-0.2-0.9-0.4c-0.2-0.1-0.5-0.1-0.8-0.1c-1-0.1-0.4-1-1-0.1s0,1.3-0.6,0.9s0.5,0.1-0.6-0.4s-0.1-0.5-1.1-0.5
		c-0.6,0-1.1,0-1.6,0.1s-1.1,0.1-1.7,0.1l-0.6,0.5c0,0,0,0.8-0.6,0.1s0.2-0.1-0.6-0.6c-0.3-0.1-0.6-0.3-0.9-0.5l-1-0.6l-0.8,0.9
		c0,0,0,0.3-0.5,0.8s-2.3,2-2.3,2l-1.5,0.9c0,0-0.4,0.6-0.9,0.6c-0.6,0-1.2,0.1-1.8,0.4c-0.4,0.3-0.2,0.3-1.1,0.3s-0.1,0.1-0.9,0
		c-0.5-0.1-0.9-0.1-1.4-0.1s0.6-0.2-0.5,0c-0.6,0.1-1.3,0.2-1.9,0.2c-0.8,0.1,0.1,0.9-0.8,0.1s-0.4,0.2-0.9-0.8s-0.4-0.1-0.5-1
		s-0.2,0.1-0.1-0.9s0.6-0.4,0.1-1s-0.4-0.8-0.4-1.4v-0.6l-1.5-1c-0.3,0.1-0.6,0.1-0.9,0c-0.5-0.1-0.4,0.8-0.5-0.1s0-1.4-0.4-1.6
		s0.5-0.8-0.4-0.2s-0.8-0.6-0.9,0.5s-0.3,0.1-0.1,1.1l0.1,1c-0.1,0.2-0.3,0.5-0.5,0.6l0,0L332.3,211.6z"/>
	<path class="st4" d="M362.4,238.2h2.4c0,0,1.5-0.6,2.4,0s2.6,0,2.6,0c0.5,0,0.9,0.1,1.3,0.3c0.7,0.2,1.5,0.2,2.2,0
		c0.6-0.4,1.5-0.3,2,0.2c0.6,0.6,1.4,0.9,2.2,1.1c0.6,0.2,1.2,0.5,1.8,0.9h5.2c1.1,0-1.1,0.2,1.1,0c1-0.2,2.1-0.1,3,0.1h2.4
		c0,0,0.2-0.6,1.1,0s3.9,0,3.9,0s-0.2-0.3,1.1,0.2s1.1-0.8,2.2,0c0.7,0.7,1.6,1.1,2.6,1.2c0.9,0,1.5-0.4,2.4,0s0.6,0,2,0h1
		c-0.2,0-0.4-0.3,0.3-1.1l-15.2-44.3c-0.4,0.3-0.9,0-1.3,0.7s-0.5-0.2-0.5,0.8s1.1,1,0.8,1.4s-0.8,0.3-1.3,0.8s-0.8,0.5-1.1,1.1
		s-0.5,0.5-0.5,1.4s0.4,1.3,0,1.6s0.9-0.4-0.4,0.4s-1,1-1.9,1.1s0.2,0.1-0.9,0.1s-0.6,0.6-1.1,0s-1-0.8-1.4-1.1s-0.4-0.8-1-0.1
		s-0.8-0.1-0.6,0.6s0.6,0.9,0.9,1.3s0.1-0.4,0.2,0.4s1-0.1,0.1,0.8s0.2,0-0.9,0.9c-0.5,0.4-1,0.8-1.6,1l-0.8,0.4
		c-0.6,0.4-1.3,0.6-2,0.7c-0.6-0.1-1.2-0.1-1.8,0c-1.3,0.1-1.4,0.3-2,0.3s-0.8,0.4-1.1,0.1s-1-0.6-1-0.6c-0.2-0.4-0.7-0.7-1.1-0.6
		c-0.9,0-0.2-0.3-1.5-0.4s-1-0.5-1.9,0s-0.6,1.1-1.2,1l-8.9,26.4C358.4,237.6,360.3,238,362.4,238.2z"/>
	<path class="st3" d="M321.2,328c-0.9,0-1.3-0.2-2,0s-1.5,0.4-1.5,0.4c-2.6,0.2-4.1,0.4-4.1,0.4l-1,1.1c0,0,0.2,0.2-1.3,0
		c-0.8-0.1-1.6-0.1-2.4,0c-0.7-0.1-1.3-0.1-2,0c-1.1,0.2-2-0.2-2.8,0s0.7-0.9-2.6,0s-2.6,0.6-4.4,1.1s-0.9,0-3.3,0.6
		s-2.2,1.1-3.5,1.1s-1.3-0.4-3.3,0l-2,0.4l-2.2,0.9c-2.2,0.9-2,2.2-3.5,2.2s-1.5-0.6-3.3,0s-3.3,1.1-3.3,1.1s0.9,0.4,0,1.1
		s0.4-0.6-0.9,0.6l-1.3,1.3c-0.9,0.9,0.4-0.6-0.9,0.9s-0.2,0.2-1.3,1.5s0.7,0.2-1.1,1.3s-0.4-0.2-1.8,1.1s0,0.2-1.3,1.3
		c-0.7,0.7-1.5,1.3-2.4,1.8c-1.3,0.6,0-1.3-1.3,0.6c-0.1,0.1-0.1,0.2-0.2,0.3l45,4.8l23.7-27c-3.5,0.4-3.5,0.6-5,0.6
		S322,328,321.2,328z"/>
	<path class="st5" d="M258.9,352c-0.7,0.9,0,0.9-1.1,2s-0.7,1.3-1.8,2.2s0.2-0.6-1.1,0.9s-0.9-0.4-1.3,1.5s-0.9,2-1.1,2.8
		s1.1,0.4,0,2.2s-0.2,0.4-1.1,1.7s0.2,0.4-0.9,1.3l-1.1,0.9l-1.5,2c0,0-0.2-0.6-0.9,0l-0.6,0.6h-1.5c-0.6,0,0.6,1.8-0.6,0l-1.3-1.7
		l-1.1,0.2c0,0-2.8-0.2-3-1.1s0.4,1.1-0.2-0.9s1.3,0.4-0.6-2l-2-2.4c0,0-0.7-1.3-1.8-0.9l-1.1,0.4c-0.5,0.3-1.1,0.5-1.7,0.4h-1.3
		l-1.5,0.2c-0.3,0.8-1.2,1.3-2,1.1c-0.9-0.2-1.7-0.3-2.6-0.4c-0.9,0-1.1-0.2-3-0.2h-2c0,0,0.2,0.9-1.1-0.2l-1.3-1.1H215
		c-0.3-0.3-0.7-0.4-1.1-0.4h-0.6l-1.5-0.4c-0.6,0.1-1.2,0-1.7-0.4c-0.9-0.6-0.9-0.2-1.7-0.2s-0.7,0.9-1.8,0.2s0.4,0.2-1.1-0.6
		s-1.7-0.4-2.6-1.1s0.4-0.7-0.9-0.7h-3.1c-0.7,0-1.5,0.1-2.2,0.4c-0.6,0.2,0.7,0.2-0.6,0.2s0.4-0.2-1.3,0s-1.5,0.4-2.6,0.2
		s0.6-0.2-1.1-0.2h-1.7c-2.4,0-2.4,0.2-3.3,0s0.4,0-0.9-0.2s-0.2-0.2-1.3-0.2l43.7,58.5l44.6-28.9l33.4-33.6l-45-4.8
		C259.3,350.9,259.5,351.2,258.9,352z"/>
	<path class="st6" d="M183.7,358.1c-0.9-0.1-1.8-0.1-2.6,0c-1.1,0.2-1.3,0-2,0.2s0.4-0.4-0.6,0.2l-1.1,0.6c-0.5,0.3-1,0.4-1.5,0.4
		H175c-1.7,0,0.2,0.4-1.7,0s-0.6,0.6-2-0.4L170,358c-0.4-0.4-0.8-0.8-1.3-1.1c-2-1.5,0.2-0.9-2-1.5s-1.1-0.7-2.2-0.7s-0.6-1.3-1.1,0
		c-0.3,0.7-0.3,1.5,0,2.2l-0.2,0.9c0,0,1.3,1.5,0,1.5h-1.3c0,0,2,0.4,0,1.7l-2,1.3c0.2,0.4,0.2,0.9,0,1.3l-0.4,0.6v1.5
		c0,0,1.7,0.2,1.7,0.9s-0.2-1.1,0,1.7s0,3.3,0.7,4.1s4.1-0.4,0.6,0.9l-3.5,1.3c0.4,0.3,0.4,0.9,0,1.3l0,0l-0.7,0.6
		c-0.4-0.1-0.9-0.1-1.3,0c-0.6,0.2-2.2-0.9-2.2,0s-0.4-0.6,0,0.9c0.3,0.8,0.2,1.7-0.2,2.4c-1.1,0,0.9,1.5-1.1,0l-2-1.5
		c0,0,0.7,0.9-0.9,0.7c-0.5-0.1-1-0.1-1.5-0.1c0.2,0.5,0.3,0.8,0.3,0.8c0.5,1.6,0.8,3.2,1,4.8c0,1.5-0.5,2,0,3.8s1.5,0,0.5,1.8
		s-1.3,2.8-2,3.5s-1.8,0.8-1.8,2c0.2,1.1,0.6,2.1,1.3,3c0.2,0.9,0.4,1.7,0.8,2.5c0.3,0.9,0.5,1.8,0.5,2.8c0,0,0.3,1.8-0.8,1
		c-0.8-0.7-1.4-1.4-2-2.3c-1.3,2.3-2.8,1.1-2.5,2.5s0.3,1.6,1.8,1.8s1.8-1,3.3,0s0.5-1,1.5,1c0.7,1.4,1.3,2.8,1.8,4.3
		c0.3,0.8-2.5,0-2.5,0s-1.3,0.5,0.3,2.5c0.3,0.4,0.6,0.8,1,1.2h75.9L183.7,358.1z"/>
	<path class="st7" d="M151.6,416.5c0.7,0.6,1.1,1.4,1.3,2.3c0.7,2.3-0.2,4.1,0,5.1s-0.7,1.5,0.3,2.3s2.5,1,2,3.3s-1.1,4.1,0.1,4.6
		s2.9,0.5,2.9,1.8s-1,2,0,2.5s-0.2,0,0,2.3s1.1,6.1,0.4,7.6s-1.4,2.8,0.3,3.8c1.3,0.9,2.3,2.3,2.6,3.8c0.2,1-1,1.8,0,2.8
		s0.1,1.5,0,2.8s-0.3,3.5,1.5,2.3s2-3.5,3.3-2.5s1.5,2.8,3.3,2.9s-0.2-0.6,1.8,0.1s1.3,3,3.1,1.5s-0.3-1.3,1.8-1.5s1.5,0.5,3.3,0.5
		s0,1.5,1.8,0s1.8,0,3.3-2s1.3-2.5,2.8-2.5s1.3-2,1.5,0s-2,4.1,0,3s0.2-1.3,2-1s-0.2,1.3,1.8,0.2s0.8-1.5,2-1s2.8,3.5,3.1,1.3
		s-2.3-4.6,0-5.1c1.1-0.3,2.2-0.6,3.3-0.8c1.9-0.2,3.7-1.2,4.8-2.8c0.8-1.3,1-2.3,2.5-3.5s-0.2-1,2.5-1.8s3.3-1.5,5.6-1.5h4.1
		c1.3-0.1,2.5-0.1,3.8,0c1.5,0.2,3,0.3,4.6,0.2c1.8,0-1.5,0.2,1.8,0c2.7-0.1,5.2-0.9,7.4-2.5c2-1.5,3-1.3,4.6-1.5s1.3,0.2,3.1-0.5
		s3.3-0.5,4.1-1.5s-1,0.5,0.8-1s1.3-1.8,2.5-2.5s1-1.5,2.5-1.5c1.5,0-1,1.8,1.5,0c2.5-1.8,3-2.3,4.1-2.5s1.5-1,2.5-0.3
		s0.3-0.5,1,0.8s2.3,0.5,3.5,0c0.4-0.2,0.9-0.3,1.4-0.2l-42.3-17.7L151.6,416.5L151.6,416.5z"/>
	<path class="st8" d="M272,387.7l-44.6,28.8l42.4,17.6c0.4,0.1,0.8,0.3,1.4,0.4c1,0.2,1.3,1.3,2.3-0.2s1.8-1.8,3-1.5
		s1.8-0.8,2.3-1.8s0.5-0.8,1.8-2s-0.2-0.5,1.3-1.3s1.5,1.3,1.5-0.8s-1.3-2,0-3s-0.8-1,1.3-1s0.5,1.5,2,0s1.3-2.5,2.8-2.5
		s0.5-1.3,3-1.8c1.7-0.3,3.4-0.8,5.1-1.3c0.8-0.3-1.5,0.2,0.8-0.3c1.3-0.2,2.5-0.6,3.6-1.3c1-0.5-0.8-1,1-0.5s1.8,1.5,3,1
		s1.3,0.2,2.8-0.8s2-0.8,2.8-1.8s0.2-1.5,2-2s2-1.5,3.6-1.5s-1.5,0.5,1.5,0s4.1-0.5,5.1-1l0.3-0.2l0.7-0.4c1.5-0.8,2.3-1.5,3.8-1.8
		s2.5,0,3.8-0.8c0.9-0.6,1.8-1.1,2.8-1.5c0.4-0.2,0.8-0.4,1.3-0.5c2-0.8,0.8,1,2-0.8s-1.3-0.5,1.3-1.8s2.3-0.8,3.8-1.3
		s0,0.8,1.5-0.5c0.7-0.8,1.7-1.3,2.8-1.5c0.9-0.2,1.8-0.6,2.5-1.3c1-0.8,1.3-0.5,1.3-2c-0.1-0.8-0.3-1.6-0.8-2.2l-45.6-38.6
		L272,387.7z"/>
	<path class="st5" d="M366.9,369.9l-1.1-1.3l-1.1-2.6l-0.4-1.5l-1.1-2.2l-0.2-0.6c-0.2-0.5-0.4-0.9-0.7-1.3l-2-3.9L360,355l-0.9-1.5
		c-0.5-1-1.1-2-1.7-2.8c-1.3-1.7,0,0-0.4-1.3s0,0-0.9-2.6s-0.6,0-0.6,0l-1.5-1.3c-0.4-0.7-0.7-1.4-0.9-2.2c-0.2-1.1-0.6-1.7-0.9-2.8
		c-0.2-0.9-0.3-1.7-0.2-2.6c0-1.1-0.4-1.1-0.9-1.8c-0.3-0.5-0.6-1-0.9-1.5l-1.1-2.2l-1.1-1.1l-0.4-1.3c-0.4-1.3,0,0-0.4-2
		s-0.7,0-0.7,0l-1.1-1.5l-1-1.1c-1-1.1-1-1.8-1-1.8h-3.9c-0.4,0.7-1,1.3-1.7,1.5c-1.1,0.2-1.5,0.6-2.8,0.9c-1.4,0.1-2.8,0.4-4.1,0.6
		c-1.7,0.4,1.8,0-1.7,0.4l-23.7,27l45.7,38.6c-0.4-0.6-0.6-1.3-0.8-2.1c-0.2-1.8-0.5,1-0.2-1.8s1.5-6.9,4-8.9s4.6-1.3,5.8-2.5
		c1.2-1.3,2.8-2.3,4.6-2.8c1.5-0.5,2.7-0.8,3.8-1.1l-0.4-1.8L366.9,369.9z"/>
	<path class="st9" d="M409.6,240.6l1.1,2.6l3.3,3.8c0,0,0.7,0,1.3,1.5s0.9,3.5,1.5,3.9c0.7,0.6,1.2,1.2,1.7,1.9c0,0,1.1-1.1,1.1,0v2
		c-0.5,0.2-1,0.6-1.3,1.1c-0.6,0.9-0.6,0.2-1.1,2s-1.1,1.5-1.1,2.6s0.2-0.4,0,1.1l-0.2,1.5c0,0.8-0.1,1.6-0.2,2.4
		c-0.2,0.8-0.2,1.1-0.4,2.3h29.2l8.1-55.5l-43.8,26.5L409.6,240.6z"/>
	<path class="st10" d="M455.6,212c-0.6-0.1-1.2-0.2-1.8-0.1c-1.2,0,0.2,0.6-1,0.1l-0.3,1.8L455.6,212z"/>
	<path class="st8" d="M390.5,306.9h-1.7c-0.2,0.6-0.7,1-1.3,1.1c-1.1,0.2-1.1-0.6-2,0l-0.9,0.7v0.9h-2.1l-1.3,1.1H380v1.1h-5.2
		c-0.2,0.5-0.6,0.9-1.1,1.1c-0.5,0.1-1,0.1-1.5,0c-0.4,0.5-0.9,1-1.5,1.3c-0.9,0.4,0.4,0-0.9,0.4s-2.4,0.9-2.4,0.9h-1.5l-1.5,1.1
		c0,0,1.1-1.3-1.3,0s-3.3,1.3-3.9,1.8l-0.6,0.4c-0.4,0.6-1.2,1-2,0.9c-1.5,0.1-3,0.6-4.4,1.3c-0.9,0.4-2,1.1-2,1.1s1.3,0.6,0,0.6
		s0.2-0.4-1.3,0s0.7-1.1-2.4,0l-3,1.1c0,0,0,0.7,1,1.8l1,1.1l1.1,1.5c0,0,0.2-2,0.7,0s0,0.6,0.4,2l0.4,1.3l1.1,1.1l1.1,2.2
		c0.3,0.5,0.6,1,0.9,1.5c0.4,0.7,0.9,0.7,0.9,1.8c0,0.9,0,1.8,0.2,2.6c0.2,1.1,0.6,1.7,0.9,2.8c0.2,0.8,0.5,1.5,0.9,2.2l1.5,1.3
		c0,0-0.2-2.6,0.6,0s0.4,1.3,0.9,2.6s-0.9-0.4,0.4,1.3c0.7,0.9,1.3,1.8,1.7,2.8l1,1.5l0.4,1.3l2,3.9c0.3,0.4,0.5,0.8,0.7,1.3
		l0.2,0.6l1.1,2.2l0.4,1.5l1.1,2.6l1.1,1.3l0.9,2l0.4,1.8c0.5-0.2,1.1-0.4,1.6-0.7c1.1-0.7,2.3-1.2,3.6-1.3c1,0,0.8-0.5,2.5-0.5
		s-1,0.5,1.8,0s1,1.8,2.8-0.5s-0.8-1.3,1.8-2.3s1.5-0.3,3.8-1.5c0.4-0.2,0.6-0.3,0.8-0.4c1-0.4,0,0.4,1.5-0.9c1.8-1.5,1-1.5,3-1.5
		s0,1.3,2,0s3,0.3,3.8-0.2s3-1.3,3.8-0.5s-2.3,0,0.8,0.8s0.5,1.3,3,0.8s5.3-1,5.9-1.8l-17.9-57C392.1,306.4,391.3,306.7,390.5,306.9
		z"/>
	<path class="st9" d="M499.8,237.5c-0.5-1.8-1-2.3-1.8-2.3s-1.3,1-2,0.5s1-0.5-0.8-0.5s-0.5,0.8-1.8,0c-0.8-0.4-1.5-1-2-1.8
		s-2.8,0-3.3-1.5s-1-1.3-1.8-2.5c-0.2-0.4-0.5-0.9-0.8-1.3c-1.3-2,0.5-0.8-1.3-2s-0.5,0-1.8-1.3c-0.8-0.9-1.4-1.8-2-2.8
		c-0.8-1-1.3-1-2.3-1.8s0.3,1-1-0.8c-0.7-0.8-1.2-1.8-1.5-2.8c-0.2-0.8-0.2-1.3-1.3-1.5s0.5,1-1-0.3s-1.8-2-2.8-1.8s0.8-0.8-1,0.3
		s-2.5,1.8-2.8,1s2.3,0.5-0.2-0.8s-2.8-1.3-4.1-1.3s0.8-0.2-1.3,0s0,0.2-2,0.2c-1,0-2-0.1-3-0.5l-0.5-0.1l-3,1.8l-8.1,55.5h-29.4
		v0.1c-0.1,0.8-0.4,1.6-0.6,2.4c0,0.4-0.1,0.7-0.2,1.1c-0.2,0.9-2.2,1.1-1.4,1.7s-0.1,1.3,0,2l0.1,0.7l-0.1,1.3v0.9l-1,1.3
		c0,0.7-0.1,1.3-0.2,2c-0.3,0.5-0.4,1.1-0.4,1.7v3.9l-0.4,1.7c0,0-0.6,1.3-0.9,2s-0.9,1.1-1.3,2c-0.3,0.7-0.6,1.4-0.9,2.2v2.4
		l-0.2,1.1c-0.1,0.6-0.7,1.1-1.3,1.1h-3l-0.9,1.3h-2.2v1.1c0,0-1.3-0.7-2,0c-0.6,0.5-1.3,0.9-2,1.1c-0.1,0.5-0.6,0.9-1.1,1.1
		l-0.9,0.2h-0.9l-0.8,0.4l17.9,57c0.5-0.8,1.3-1.8,2.5-3.6s0.8,0.2,1.3-1.8s-0.2-2.5,0-3.3s-0.8,0.8-1-1.5s-1.5-1-0.3-2.3
		s-0.5,0.2,1.3-1.3c0.9-0.7,1.6-1.7,2-2.8c0,0-1.8-1.3,0-1.8s3-0.5,3.8-0.8c0.6-0.2,1.3-0.3,2-0.2c1,0-1-0.2,1,0s2.3,0,3.3-0.5
		s-1-0.2,1-0.5s2.3-0.5,3.3-0.5s-1,0.2,1,0s0.2,0.5,2-0.3s0.8,1.3,1.8-0.8s-0.8-0.8,1-2s0.3,0.8,1.8-1.3s2-1.8,2-3v-1.3
		c-0.1-1.2-0.1-2.4,0-3.5c0.3-1.3-1.5-3,0-3.8c1.1-0.5,2.1-1.3,2.8-2.3c0.8-1-1.5,1,0.8-1l2.3-2c0,0,5.6-1.3,6.9-2
		c1-0.6,2.2-0.9,3.3-0.8c1,0,2-0.1,3-0.2c1.5-0.3,0,0.2,1.5-0.3s0.2,0.5,1.5-0.5s0.3,1.5,1.3-1s-0.8-4.3-1-5.3
		c-0.3-0.9-0.4-1.9-0.3-2.8c0.3-1,0.8,0.2,0.3-1c-0.1-0.4-0.3-0.9-0.5-1.3c-0.8-1.8-0.5-0.2-0.8-1.8l-0.2-1.5
		c-0.2-1.5-2-1.3-0.8-2.8s0.2,0.2,1.3-1.5s3.2-3,2.3-4.1s1.2-1.5,0.2-2.5c-0.9-0.6-1.3-1.7-1-2.8c0.3-1-1.5-0.3,0.3-1l1.8-0.8v-3
		c0,0,0.3,0.5,1.3,0s0.3,1.3,1-0.5s-1.3-1,0.8-1.8s2,0.3,1.8,1.3s-1.3,2,0.1,2.3s-0.1,0.2,1.4,0.2h1.5c0,0,1.8,0.3,2.3-0.8
		s0,0.5,0.5-1l0.5-1.5c0,0-1.8-1.5,0-2.3s1.5-1.5,2.5-2.5l1-1c-0.2-0.8-0.2-1.7,0-2.5c0.2-1.3-1.3,0,0.2-1.3s0.5-1.8,1.8-3.3
		s2-2.5,3-3.8s-0.8,0.2,1-1.3s0.8-1.8,2.8-2.3s2.8,0.5,3-1.3s-0.2,0.5,0.3-1.8s1.8-5.3,2-6.6s1-1.5,1.8-3s0,0.8,0.8-1.5
		s-1.8-2,0-3.3c1-0.7,1.9-1.5,2.5-2.5c-0.2-0.8-0.2-1.7,0-2.5C499.8,237.5,500.3,239.3,499.8,237.5z"/>
	<path class="st1" d="M407.5,242.2h-0.3C407.3,242.2,407.4,242.2,407.5,242.2z"/>
	<path class="st11" d="M323.4,205.8l-0.7-0.4c-0.6-0.4-1.7-1.1-1.7-1.1l-0.7-0.4c-0.4-0.3-0.6-0.8-0.6-1.3c-0.4-1-0.7-2-0.9-3.1
		c-0.2-1.5-1.3,0-1.3,0l-1-1.1l-0.9-0.9l-0.4,0.8c0,0,0,0.6-0.5,0.2s-0.2,0.5-0.5-0.4c-0.2-0.5-0.2-1-0.1-1.5V196
		c0-0.3-0.1-0.5-0.2-0.7l-0.1-0.3v-0.1l-0.2-0.1c-0.8-0.4-0.5,0.4-0.8-0.4c-0.1-0.5-0.4-1-0.6-1.5l-0.3-0.4
		c-0.3-0.1-0.5-0.3-0.6-0.6c-0.2-0.5-0.6-0.5-0.8-0.9s0,0.8-0.1-0.4l-0.1-1.1c0,0,0.4-0.4,0-0.6s-0.1,1.4-0.4-0.2l-0.2-1.6
		c0.1-0.4,0.1-0.8,0.1-1.1v-1.5l-0.9-0.9l-0.5-0.2l-0.5-0.4l-0.5-0.8l-0.5-0.1l-1.1,0.6c-0.4-0.6,0.1,0-0.4-0.6l-0.5-0.6
		c0,0,0-0.6-0.4-0.6H304c-0.1-0.3-0.1-0.7,0-1c0.1-0.4,0,0.2,0.1-0.4s0.2,0.2,0.1-0.6l-0.1-0.9l-0.5-0.5c0,0-0.9-1.1-1.5-1.8
		s-0.5,0.4-0.6-0.6l-0.1-1c0,0,0.5-0.4-0.2-0.9s-0.1,0.2-0.8-0.5s0.1,0-0.6-0.8s-0.8,0.8-0.8-0.8v-3.4l0.6-0.2l0.2,1.4
		c0.2,0.2,0.4,0.4,0.5,0.6c0.2,0.4,0.2,0.9,0.6,0.9h0.4c0,0,0.5,0.4,0.8-0.4c0.2-0.4,0.3-0.8,0.2-1.3v-0.6c0,0,0-0.2,0.4-0.6
		s0.3,0.2,0.4-0.4s0.1,0.9,0.1-0.6v-1.6c-0.1-0.3-0.2-0.7-0.1-1l0.1-0.5c-0.4-0.2-0.7-0.4-1-0.6c-0.4-0.4,0.4,0.1-0.4-0.4
		s-0.5-0.1-1.4-0.8s-0.2,1-0.9-0.6l-0.6-1.6c0,0-0.5,0.2-0.2-0.8v-0.1L272,191.2l-0.9,63.7l53.9-48.7L323.4,205.8z"/>
	<path class="st12" d="M271.1,254.9l-74.5,7.1l52.8,20.1l94.1-6.4l12.9-38.5h-0.1c-1.1-0.4-1.3,0-1.3,0h-1.1l-0.6-1.1
		c-0.6-0.8-1.2-1.5-2-2.2c-0.6-0.4-1-1-1.1-1.7l-1.3-1.2c-1.3-1.1,0,0-1.1-1.3s0,0-0.6-0.6c-0.5-0.6-0.5-1.6,0-2.2
		c0.5-0.6-1.8-0.9-2.7-1.5s-0.8-1.5-1.4-2.4c-0.3-0.4-0.6-0.7-0.9-1.1c-1.2-0.9-2.2-1.9-3.3-3c-0.7-0.9-1.3-0.9-2-2.4
		s-0.6-2.7-2.2-2.8s-2.4-2-2.4-2l-2-2.6l0,0c-0.1,0-0.2,0-0.3-0.1c-0.2-0.4-0.4-0.9-0.6-1.3c-0.4-0.5,0.4-0.1-0.4-0.5s0-0.5-0.8-0.4
		c-0.4,0.1-0.9,0.2-1.3,0.4l-0.5,0.5c0,0-0.3,0.4-0.6,0s-0.2,0.6-0.4-0.4s-0.4-0.4-0.1-1l-0.3-0.1L271.1,254.9z"/>
	<path class="st13" d="M202,323.6l14.2,20.9l44.2,4.8c0.1-0.1,0.1-0.2,0.2-0.3c1.3-2,0,0,1.3-0.6c0.9-0.4,1.7-1,2.4-1.8
		c1.3-1.1,0,0,1.3-1.3s0,0,1.8-1.1s0,0,1.1-1.3s0,0,1.3-1.5s0,0,0.9-0.9l1.3-1.3c1.3-1.3,0,0,0.9-0.6s0-1.1,0-1.1s1.5-0.4,3.3-1.1
		s1.7,0,3.3,0s1.3-1.3,3.5-2.2l2.2-0.9l2-0.4c2-0.4,2,0,3.3,0s1.1-0.4,3.5-1.1s1.5-0.2,3.3-0.6s1.1-0.2,4.4-1.1s1.7,0.2,2.6,0
		s1.8,0.2,2.8,0c0.7-0.1,1.3-0.1,2,0c0.8-0.1,1.6-0.1,2.4,0c1.5,0.2,1.3,0,1.3,0l1.1-1.1c0,0,1.5-0.2,4.1-0.4c0,0,0.9-0.2,1.5-0.4
		s1.1,0,2,0s1.3-0.2,2.8-0.2s1.5-0.2,5-0.6l-79.7-45.1L202,323.6z"/>
	<polygon class="st14" points="67.1,107.6 33,157.4 86,157.4 119.3,119.4 	"/>
	<path class="st15" d="M185.9,358.5c0.9,0.2,0.9,0,3.3,0h1.7c1.7,0,0,0,1.1,0.2s0.9,0,2.6-0.2s0,0,1.3,0s0,0,0.6-0.2
		c0.7-0.3,1.4-0.4,2.2-0.4h3.1c1.3,0,0,0,0.9,0.7s1.1,0.2,2.6,1.1s0,0,1.1,0.6s0.9-0.2,1.8-0.2s0.9-0.4,1.7,0.2
		c0.5,0.4,1.1,0.5,1.7,0.4l1.5,0.4h0.6c0.4,0,0.8,0.2,1.1,0.4h1.7l1.3,1.1c1.3,1.1,1.1,0.2,1.1,0.2h2c2,0,2.2,0.2,3,0.2
		c0.9,0.1,1.8,0.2,2.6,0.4c0.8,0.2,1.7-0.3,2-1.1l1.5-0.2h1.3c0.6,0.1,1.2-0.1,1.7-0.4l1.1-0.4c1.1-0.4,1.8,0.9,1.8,0.9l2,2.4
		c2,2.4,0,0,0.6,2s0,0,0.2,0.9s3,1.1,3,1.1l1.1-0.2l1.3,1.7c1.3,1.8,0,0,0.6,0h1.5l0.6-0.6c0.6-0.6,0.9,0,0.9,0l1.5-2l1.1-0.9
		c1.1-0.9,0,0,0.9-1.3s0,0,1.1-1.7s-0.2-1.3,0-2.2s0.6-0.9,1.1-2.8s0,0,1.3-1.5s0,0,1.1-0.9c1.1-0.9,0.7-1.1,1.8-2.2s0.4-1.1,1.1-2
		s0.5-1.1,1.5-2.7l-44.2-4.8l-14-20.9l-77.4,13.9l59,20.5c1.1,0,0,0,1.3,0.2S185,358.3,185.9,358.5z"/>
	<path class="st0" d="M300.4,157.1l0.9,0.5l0.1-0.9l-0.4-1.1l-0.2-0.3l-1.3,1.6C300,157,300.4,157.1,300.4,157.1z"/>
	<polygon class="st16" points="119.3,119.4 86,157.4 122,176 185.3,199.9 202,138 	"/>
	<path class="st3" d="M392.7,306l0.8-0.4h0.9l0.9-0.2c0.5-0.2,0.9-0.6,1.1-1.1c0.7-0.2,1.4-0.6,2-1.1c0.7-0.7,2,0,2,0v-1.1h2.2
		l0.9-1.3h3c0.6,0,1.2-0.5,1.3-1.1l0.2-1.1v-2.4c0.3-0.7,0.5-1.5,0.9-2.2c0.4-0.9,1.1-1.3,1.3-2s0.9-2,0.9-2l0.4-1.7v-3.9
		c0-0.6,0.2-1.2,0.4-1.7c0.2-0.7,0.2-1.3,0.2-2l1-1.3v-0.9l0.1-1.3l-0.1-0.7c-0.1-0.6,0.8-1.3,0-2s1.2-0.9,1.4-1.7
		c0.1-0.4,0.2-0.7,0.2-1.1c0.3-0.8,0.5-1.6,0.6-2.4v-0.1h-34.2L392.7,306z"/>
	<path class="st17" d="M416,264.6l0.2-1.5c0.2-1.5,0,0,0-1.1s0.7-0.9,1.1-2.6s0.4-1.1,1.1-2c0.3-0.5,0.8-0.9,1.3-1.1v-2
		c0-1.1-1.1,0-1.1,0c-0.5-0.7-1.1-1.3-1.7-1.9c-0.7-0.4-0.9-2.4-1.5-3.9S414,247,414,247l-3.3-3.7l-1.1-2.6l-0.8-0.4l-0.4,0.2
		c0,0.1-0.1,0.1-0.1,0.1l-0.8,0.5c-0.7,0.8-0.5,1.1-0.3,1.1h0.3c-0.1,0-0.2,0-0.3,0h-1c-1.3,0-1.1,0.4-2,0s-1.5,0-2.4,0
		c-1-0.1-1.9-0.5-2.6-1.2c-1.1-0.8-0.9,0.5-2.2,0s-1.1-0.2-1.1-0.2s-3,0.6-3.9,0s-1.1,0-1.1,0h-2.4c-1-0.2-2-0.3-3-0.1
		c-2.2,0.2,0,0-1.1,0h-5.2c-0.6-0.3-1.1-0.6-1.8-0.9c-0.8-0.1-1.6-0.5-2.2-1.1c-0.5-0.5-1.4-0.6-2-0.2c-0.7,0.2-1.5,0.2-2.2,0
		c-0.4-0.2-0.9-0.3-1.3-0.3c0,0-1.7,0.7-2.6,0s-2.4,0-2.4,0h-2.4c-2-0.2-4-0.6-6-1.1l-12.9,38.5l-94.1,6.4l79.7,45
		c3.5-0.4,0,0,1.7-0.4c1.4-0.3,2.8-0.5,4.1-0.6c1.3-0.2,1.7-0.6,2.8-0.9c0.8-0.3,1.4-0.8,1.7-1.5h3.9l3-1.1c3.1-1.1,0.9,0.4,2.4,0
		s0,0,1.3,0s0-0.6,0-0.6s1.1-0.7,2-1.1c1.3-0.7,2.8-1.2,4.4-1.3c0.8,0.1,1.6-0.2,2-0.9l0.6-0.4c0.7-0.4,1.5-0.4,3.9-1.8s1.3,0,1.3,0
		l1.5-1.1h1.5c0,0,1.1-0.4,2.4-0.9s0,0,0.9-0.4c0.6-0.3,1.1-0.8,1.5-1.3c0.5,0.1,1,0.1,1.5,0c0.5-0.2,0.9-0.6,1.1-1.1h5.2v-1.1h1.1
		l1.3-1.1h2.2v-0.9l0.9-0.7c0.9-0.6,0.9,0.2,2,0c0.6-0.1,1.1-0.5,1.3-1.1h1.7c0.8-0.2,1.6-0.5,2.3-0.9L381,269.1h34.1
		c0.2-1.2,0.2-1.4,0.4-2.3C415.9,266.2,416,265.4,416,264.6z"/>
	<path class="st1" d="M408.5,240.1c0,0.1,0,0.2-0.1,0.4l0.4-0.2L408.5,240.1z"/>
	<path class="st1" d="M407.5,241.1l0.8-0.5C408.2,240.5,408,240.5,407.5,241.1z"/>
	<polygon class="st18" points="202,138 185.3,199.9 272,191.2 	"/>
	<polygon class="st19" points="272,191.2 185.3,199.9 145.3,242.4 196.6,261.9 271.1,254.9 	"/>
	<path class="st2" d="M145.3,242.4h-67c0.1,0.7,0.2,1.3,0.3,2c0.2,1,1-0.8,0.5,2.3s0.8,0.8-0.5,3.1s-2,3.3-2,4.6s-1.5,0.5-0.8,2.5
		c0.8,2,2,2.8,2.3,3.8s0.5,0.2,0.5,2.3s-0.5,2.5,0.2,3s3-0.2,1.5,1.5s-2.5,1.8-2.5,2.8s-1.5-1.8,0,1c0.3,0.5,0.7,1.1,1.1,1.8
		L196.5,262L145.3,242.4z"/>
	<path class="st18" d="M249.3,282.1L196.5,262L79,273.1c1.8,2.9,4.6,6.8,5.3,8.6c0.7,2.3,1.7,2.8,2.5,4.1c0.2,0.4,0.4,0.9,0.6,1.3
		L202,323.6L249.3,282.1z"/>
	<path class="st20" d="M202,323.6L87.4,287.1c0.3,0.9,0.4,1.7,1,2c0.8,0.5,2.8,2.3,2.8,2.3l3,1.8c0,0,1,1.5,2,1.5s0.5-2,3.3,0
		c1.4,0.9,2.6,1.9,3.8,3c0.7,0.7,1.2,1.4,1.5,2.3c0.5,1-2.5,1.5,0,2.5s0.2-1,2.5,1s3.6,0.3,3.6,2s-0.8,2.3,0,3.3s-1-0.3,0.8,1
		s2.3,1.9,2.3,3.2s-1.3-1.5,0,1.3s3,3.3,3,4.3s-0.5,1,0,2.8s-0.8,1.3,0,2.8s1.5,1,2,2.3s-1.3,0.8,0,2.5s-0.5,0,1.3,1.8
		s2.5,2.8,2.5,4.1c0,0.9-0.4,1.4-0.4,2l2.2,0.8L202,323.6z"/>
	<path class="st3" d="M122.4,336.8c0,0.4,0.2,0.7,0.4,1l0,0l1.7-0.3L122.4,336.8z"/>
	<path class="st21" d="M86,157.4H33l-0.7,1c0,0.2,0.1,0.5,0.2,0.9c0.3,2,0,3.3,1.8,3.6s4.8,0,3.6,2s-4.1,1.8-2.3,3.3s3,3,4.1,3.6
		s1.8,2.3,2.8,3.6s1.3,2.8,2,4.1s0.5,2.3,1.5,3.8s2.6,1.8,1.2,3.3s-1.2,3-2.2,3.8s-2,2-0.5,2.8c1.2,0.5,2.1,1.4,2.7,2.5
		c0.9,1.6,1.3,3.3,1.4,5.1c0,1.3,0.8,3.1,2,3.3c0.9,0.3,1.9,0.3,2.8,0c1-0.2,0.5-0.4,2,0.2s1.5,1.8,3,2.9c0.5,0.3,0.9,0.6,1.2,0.8
		l62.4-32L86,157.4z"/>
	<path class="st3" d="M151.6,378.6l2,1.5c2,1.5,0,0,1.1,0c0.4-0.7,0.5-1.6,0.2-2.4c-0.4-1.5,0,0,0-0.9s1.5,0.2,2.2,0
		c0.4-0.1,0.9-0.1,1.3,0l0.7-0.6c0.4-0.3,0.4-0.9,0-1.3l0,0l3.5-1.3c3.5-1.3,0,0-0.6-0.9s-0.4-1.3-0.7-4.1s0-1.1,0-1.7
		s-1.7-0.9-1.7-0.9v-1.5l0.4-0.6c0.2-0.4,0.2-0.9,0-1.3l2-1.3c2-1.3,0-1.7,0-1.7h1.3c1.3,0,0-1.5,0-1.5l0.2-0.9
		c-0.3-0.7-0.3-1.5,0-2.2c0.4-1.3,0,0,1.1,0s0,0,2.2,0.7s0,0,2,1.5c0.5,0.3,0.9,0.7,1.3,1.1l1.3,1.1c1.3,1.1,0,0,2,0.4s0,0,1.7,0
		h0.9c0.5,0,1.1-0.2,1.5-0.4l1.1-0.6c1.1-0.6,0,0,0.6-0.2s0.9,0,2-0.2c0.9-0.1,1.8-0.1,2.6,0l-59-20.5l-1.7,0.3l3,3.8
		c1,1.3,3,3,3.3,4.3s-2.3,1,0,2s5.3,2.5,6.6,4.1c1,1.2,2.1,2.3,3.3,3.3c1.3,1,2.5,0.5,2.5,2.5v6.4c0,1.5-2,1.5,0,2.3s2-1,3.3,0
		s0.8-2.5,1.3,1s0.2,4.8,1,5.1s0.3-1.8,0.8,0.3s-0.8,2.8,0,3.8c0.5,0.8,0.9,1.6,1.2,2.5c0.5,0,1,0,1.5,0.1
		C152.3,379.5,151.6,378.6,151.6,378.6z"/>
	<path class="st22" d="M185.3,199.9L122,176l-62.5,31.9c0.6,0.5,1.2,0.9,1.9,1.2c1,0.5,1.5,1.3,3,2.3c1.3,0.8,2.3,2,3,3.3
		c0.8,1.3,1.8,3.6,1.8,3.6s0,0.5,1.5,2s1.8,0.8,1.5,3.3s-1,0-0.3,2.5s1.8,3,2.3,4.1s0,1,0,2s0.2,0.5,1,2.3s2,1.8,2.3,3.6
		s-0.2-0.8,0.3,1.8c0.2,1.1,0.3,1.9,0.4,2.6h66.9L185.3,199.9z"/>
	<path class="st23" d="M31.9,157.4c0.2,0.3,0.3,0.7,0.4,1l0.7-1H31.9z"/>
	<path class="st24" d="M181.2,87.6c-0.4-0.4-0.6-0.7-0.7-0.8c-0.3-0.4-0.6-0.7-1-1c-0.9-0.8-2.3-0.9-3-1.8c-0.6-0.7-1.3-1.4-2-2
		c-0.8-0.6-2.4-1.1-2.8-1.8c-0.3-0.5-0.6-1-1-1.5c-0.7-0.9-1.4-1.7-2.3-2.4c-1.3-1-1.1-0.5-3.3-2.2s-1.1-0.5-3.2-2.4
		s-3.6-2.4-3.7-2.9s0.3-0.8-0.6-1.4c-0.7-0.4-1.3-0.9-1.9-1.5c-1-1-1.5-1.4-1.9-1.8c-0.3-0.3-0.6-0.7-0.9-1
		c-0.9-0.8-1.9-1.3-3.1-1.7c-0.7-0.6-1.3-1.2-1.9-1.8c-1.3-1.4-1.9-2-1.9-2l-0.8-0.8c-0.5-0.5-0.9-0.4-1.4-0.8l-0.5-0.4l-3.2-1.7
		l-6.2,48.6L181.2,87.6z"/>
	<path class="st25" d="M67.1,107.6l52.2,11.8l14.7-16.8l6.2-48.6c-2-1-4.2-2.2-4.4-2.3c-0.6-0.2-1.2-0.4-1.8-0.8
		c-0.8-0.6-1.6-1.2-2.4-1.7c-0.8-0.3-1.5-0.8-2.2-1.3l-0.4-0.4c0,0-0.2-0.4-0.9-1.1s-0.6-0.9-1.3-1.1c-0.7-0.2-1.4-0.5-1.9-1
		c-0.8-0.8-1-0.9-1.8-1.7s-2.2-1.1-2.5-1.7s0.4-0.1-0.4-0.5c-0.5-0.2-1-0.5-1.5-0.6l-1-0.6c0,0-0.3-0.2-0.7-0.4L83.6,67.6
		L67.1,107.6z"/>
	<path class="st26" d="M83.6,67.6l33.6-28.7c-0.3-0.2-0.6-0.3-0.9-0.4c-0.5-0.1-0.9-0.1-1.4-0.1c-1.1-0.1-2.3-0.4-2.9-0.5
		s-1.3,0-1.8-0.4c-0.6-0.4-1.3-0.7-2-0.9c-1.1-0.4-1.7-0.6-1.9-0.7c0.1,0,0.2,0.1-1,0c-1.7-0.2-2,0.3-2.8-0.2s-0.3-0.8-1.4-1
		c-0.7-0.2-1.4-0.5-1.9-1c-0.4-0.1-0.8-0.1-1.3,0c-0.4,0.1-0.9,0-1.3-0.1c-0.3,0.2-0.6,0.2-0.9,0c-0.5-0.3-1.5,0.1-1.5,0.1l-2.5,2.5
		c-0.9-0.3-1.9-0.3-2.8,0c-1.5,0.5-3.3,1.8-5.3,1.8s-4.6-0.5-6.1,0s-6.6,2-6.6,2s-2.5-1-3.3,0s-2,1-3.5,1.5s-3,0.9-4.6,1.3
		c-1.3,0.3-3-0.8-4.1,0s-3.3,0-3.3,0l17.5,23.3c-0.9,1-1.9,1.9-3,2.5c-1.5,0.8-2,0.5-3,2s-1.3,1-1.8,3s0.5,2-1.3,3.3
		s-0.8,1.5-4.3,1.5s-3.8-0.8-6.1,0s-1.3-1-3.8,0s-0.8-2.8-2.5,1c-1,2.2-2.1,4.3-3.3,6.3c-0.5,0.8,2-2-0.5,0.8l-0.8,0.9l28.1,20.1
		L83.6,67.6z"/>
	<path class="st23" d="M67.1,107.6L39,87.5c-1.2,1.3-2.6,2.4-4,3.5c-1.5,1.3,1.5,1.8-2.8,2c-2.5,0.3-5.1,0.3-7.6,0
		c-1.8-0.2-1.5-0.8-4.3-1.5s-6.4-1.3-7.1-1.8s0.8,0-0.8-0.5s-0.3-2-1.5-0.5s-2.8,2.7-3.3,4.5s-0.8,2.9-1,3.9c-0.5,1.5-0.8,3-1,4.6
		c0,1.3,0.5,2.5,0,3.8c-0.4,1.4-1,2.8-1.8,4.1c-1,1.5-2.3,3.6-2.3,3.6s-3.3,3.8,0,3.8h7.6c1,0,1.3-2.8,2,0s0.8,3.6,2.3,4.8
		s2.5,2,2.8,3c0.2,0.9,0.4,1.7,0.8,2.5c0.5,1.3,0.2,1.5,0.8,3s-1.8-0.5,0.5,1.5s3,1.8,3.6,2.8s1,1.3,0.5,2.5s-1.3-0.5-0.5,1.3
		s1.5,1.5,2.5,3s0.2-1.3,1,1.5s-0.8,2.3,0.8,4.3s2.8,2,3.6,4.6s1.3,2,1.8,4.1c0.1,0.5,0.3,0.9,0.5,1.4H33L67.1,107.6z"/>
	<path class="st27" d="M119.3,119.4L202,138l28.4-31.5h-0.5c-0.2,0.1-0.4,0.1-0.4-0.1c-0.3-0.4-5-1.1-5-1.1l-1.1-0.3l-1.1-0.1h-2.7
		c0,0,0.4-0.1-0.8-0.5c-0.8-0.3-1.6-0.5-2.4-0.6h-0.2c0,0.1-0.1,0.1-0.2,0.1h-0.3l-0.3-0.1h-0.1c-0.5,0-0.7-0.1-0.7-0.2l-1.5-0.1
		c-5.7-0.2-5.8-0.2-7.1-0.2c-1,0-2,0-2.9-0.1c-1.3-0.1-1.4-0.1-2.2-0.2s0.3,0.6-1.4-0.1s-1.8-0.3-2.8-1.1c-0.6-0.5-1.1-1.1-1.6-1.7
		c-0.9-0.5-1.8-1-2.7-1.7c-0.5-0.5,2.1,1.7-0.5-0.5s-1.8-1.5-2.7-2.2s-2.8-2-2.8-2s-3.6-4.2-5.1-6l-47.2,15L119.3,119.4z"/>
	<path class="st18" d="M270.3,122.6l-0.9-0.8c0,0-0.1-0.1,0-0.8l0.1-0.6c0.1-0.3,0.3-0.6,0.4-0.9c0.1-0.4-0.9-1.8-0.9-1.8l-1-0.8
		l-0.4-0.6l-0.8-0.6c0.1-0.2,0.1-0.5,0-0.8s-0.1-0.7-0.1-1c0-0.4-0.2,0.6,0-0.4l0.3-1c0,0-0.3-0.6-0.6-0.8l-0.4-0.1
		c-0.5-0.2-0.9-0.5-1.3-0.9c-0.3-0.4-0.5-0.9-0.5-1.4c-0.1-0.5,0.5,0.6-0.1-0.5l-0.6-1.1l-0.4-0.6l-0.6-1c0,0-0.1,0.1-0.3-0.5
		s0-0.8-0.1-1.3l-0.1-0.5c0,0-0.4-0.8-0.5-1.1c-0.1-0.3-0.2-0.6-0.2-0.9v-0.4l-0.2-1.8l-0.1-1.1l-0.9-0.4h-0.6
		c-0.3,0-0.6-0.1-0.9-0.1c-0.3,0.1-0.5,0.3-0.6,0.5l-0.2,0.4l-1.5,0.5c-0.4,0.1,0.4,0.6-0.4,0.1c-0.4-0.3-0.8-0.7-1-1.2l0.2-1.5
		c0.2-0.2,0.4-0.4,0.5-0.6c0.2-0.3,0.5-0.6,0.8-0.9l0.6-0.6l0.5-0.5L258,94l0.9,0.6h1l0.9,0.8l0.6,0.5c0.3-0.1,0.6-0.4,0.8-0.8
		c0.1-0.5,0.3-0.8,0.1-1.2c-0.2-0.4-0.4-0.8-0.6-1.1l-0.9-1.1c0,0-0.8-0.4-0.8-1c0-0.5-0.1-0.9-0.2-1.4l-0.6-0.6l-0.4-1l-0.2-1
		l1.3-0.8l0.6-0.3l0.9-0.2c0.1-0.3,0.2-0.6,0.3-0.9v-0.4c-0.3-0.2-0.6-0.4-0.9-0.5c-0.5-0.1-1.1-0.1-1.6,0c-0.6-0.1-1.1-0.2-1.6-0.4
		c-0.6-0.2,0.2,0-0.6-0.2l-0.9-0.3c-0.2-0.1-0.5-0.3-0.6-0.5l-0.4-0.4l-0.6,0.3l-0.8,0.6l-0.9,0.3c-0.2-0.3-0.4-0.5-0.8-0.5
		l-0.6-0.1c0,0-1.1-0.4-1.1,0s0.8-0.1,0,0.4s0-0.1-0.8,0.5s-0.4,0.8-1.5,0.9l-1.1,0.1c0,0-1,0.4-1.4,0.5s-1.2,0.5-1.2,0.5l-0.2,0.5
		c0,0-0.5,0.3-0.9,0.5s-1.1,0.9-1.1,0.9l0.1,1.9l0.3,1c0,0,0.5,0.2,0,0.9s-0.4,0.8-0.8,1.3s0.1-0.6-0.4,0.5l-0.5,1.1
		c0,0-0.3,0-0.8,0.9s-0.1,1.5-0.5,2.2s0.6,0-0.4,0.6s-0.6,0.5-1.6,1.4s-1.3,0.9-1.6,1.3s-0.1-0.1-0.9,1c-0.5,0.7-1,1.3-1.6,1.9
		c0,0.1,0.1,0.3,0.1,0.4l-2.2,2.4c-0.3,0.2-0.6,0.4-1,0.6h4.4l1.4-1.2c0,0,1.4-0.2,1.8,0s0.4,1.3,1.3,1.2c0.6-0.1,1.2-0.1,1.8,0
		c0,0,1.5-0.4,2,0c0.6,0.5,1.3,0.8,2.1,1h1.7c0.8,0,1.1,0.4,1.8,0s-0.1-0.1,0.6-0.4c0.6-0.2,1.3-0.2,1.9-0.2l0.6,0.8
		c0,0-0.4,0.8,0,1.4s0.3,1.5,0.8,1.7l0.5,0.1c-0.3,0.2-0.5,0.5-0.5,0.9v1.2l0.5,0.8h0.6l1,0.9l0.9,0.8h1.3l-0.6,1.7l-0.4,0.8h1
		l1.2,2v1h0.9c0.4,0,0.5,0.6,0.5,0.6l0.6,0.6l0.9,1.2h8.7l1.9-0.1L270.3,122.6z"/>
	<path class="st2" d="M312.2,165.9l-0.2-0.1c0,0-0.1-0.4-0.2-0.4s-0.1,0.4-0.1-0.1v-1.7h-0.6c-0.1,0.2-0.1,0.3,0,0.5
		s0.2,0.4,0.2,0.6l-0.3,0.1l-0.8-0.1l0.4,0.4l-0.4,0.5c-0.1,0-0.2,0-0.2,0c-0.1-0.1,0.4,0.1-0.1-0.1s-0.1-0.4-0.5-0.1l-0.4,0.3
		c0,0,0.4,0.1,0,0.2s-0.5-0.1-0.9,0s-0.7-0.4-0.8,0s-0.6,0.4-0.6,0.7s-0.4,0.1,0,0.2l0.4,0.2l0.3,0.8l0.4,1l0.1,0.6
		c0,0.1,0,0.3,0.1,0.4c0.1,0.2,0.6,0.1,0.2,0.5c-0.2,0.2-0.3,0.4-0.3,0.7c-0.1,0.1-0.2,0.2-0.3,0.4v0.2c-0.1,0.2,0,0.4,0.1,0.6
		c0.2,0.4,0.1,0.6,0.2,0.8l0,0l0.2,0.1l0,0c0.3,0.2,0,0.2,0.5,0.5s0.7,0.6,0.9,0.8c0.2,0.1,0.3,0.2,0.4,0.4l0.2,0.7l0.4,0.4l0.4-0.8
		l0.5-0.7v-0.3l0.4-0.1c0-0.3,0-0.5,0-0.8c0-0.2,0-0.5,0-0.7c0,0,0.2-0.5,0-0.8s-0.3-0.3-0.3-0.6s-0.1-0.4-0.1-0.6s-0.1,0.2,0-0.2
		s0.1,0,0.1-0.4V169l-0.2-0.3c0,0-0.1-0.4-0.2-0.4l-0.2-0.1c0-0.3-0.1-0.5-0.1-0.8v-0.3h-0.4l-0.3,0.2v0.4c0,0,0.2,0.4-0.1,0.4h-0.2
		l-0.2-0.4l0.1-0.4l-0.1-0.5c0.1,0,0.3-0.1,0.4-0.1c0.2-0.1,0.4-0.2,0.6-0.2l0.4-0.1l0.4,0.1l0.4,0.3l0.4,0.1c0,0,0.4,0,0.4-0.2V166
		C312.4,165.9,312.3,165.9,312.2,165.9z"/>
	<path class="st28" d="M426.6,158.4c-0.8-0.8,0.9-0.5-0.8-0.8c-0.7-0.2-1.4-0.3-2.2-0.3c-0.6,0-1,0-1.1,0.4s-0.4,0.4-0.4,1
		s0.4,1.1,0,1.4s-0.2,1-0.6,0.9s-0.8-0.2-1.1-0.3c0,0-0.6,0-0.8,0.4s-1,0.5-1,1.1v1.7c0,0-0.4-0.1-0.5,0.9c0,0.6-0.1,1.3-0.3,1.9
		c-0.1,0.4-0.1,1-0.5,1.3s0-0.5-0.4,0.3s-0.6,1.1-0.8,1.5s-0.2,0.9-0.6,1c-0.6,0.1-1.1,0.5-1.5,0.9c-0.6,0.6-1.4,1-1.6,1.4
		s-0.2,0.4-1,1s-0.6,1.1-1.1,1.3s-0.2,0.6-1.1,0.6s-0.8-1-1.5,0s-0.8,0.9-1,1.6c-0.1,0.6-0.4,1.2-0.6,1.8c-0.4,0.4-0.7,0.9-1,1.4
		c-0.4,0.6-0.8,1.2-1.3,1.8c-0.4,0.5-0.7,1-0.9,1.5c-0.2,0.5-0.5,0.9-0.8,1.4c-0.4,0.6,0.4-0.1-0.4,0.6l-0.8,0.8
		c-0.8,0.8-1.1,1.5-1.5,1.9s-0.2,0.2-0.9,0.6c-0.9,0.7-1.8,1.6-2.5,2.4l-1,0.4c-0.7,0.3-1.3,0.7-1.8,1.3c-0.4,0.3-0.8,0.7-1.1,1.1
		c-0.3,0.4-0.4-0.5-0.3,0.4l0.2,0.5c0.3,0.5,0.8,0.8,0.5,1.1h-0.1l15.2,44.3c0.5-0.6,0.7-0.6,0.8-0.5l0.1-0.1c0-0.1,0.1-0.2,0.1-0.4
		c0-0.1,0-0.2,0-0.3c0.2-1.7-0.2-2.2,0-3.3s-0.1-1.5,0.1-2.2c0.1-0.9,0.1-1.7,0-2.6c-0.1-0.9-0.3,0.6-0.1-0.9
		c0.1-0.8,0.2-1.6,0.2-2.4c0,0,0.7-1.8,0.9-2.4s-0.4,1.5,0.2-0.6s0.4-2.6,1.1-4.1s-0.6-2,0-3.5s-1.1-1.1,0.2-2.8
		c0.6-0.9,1.4-1.7,2.2-2.4l0.1-0.1l0.2-0.2l0,0l0.6-0.6c1.3-1.3,0.7-0.2,1.3-1.3l0.6-1.1l1.1-3c0,0,0.9,2,0.9,0s0.7-0.5,0-2
		s-1.3,0.2-0.6-1.5s-0.1-2,0.9-2.4l1-0.4c0,0,1.8-4.4,2.4-4.8s0.4,1.1,0.6-0.4s0.9-1.1,1.3-2.6c0.1-0.4,0.4-0.8,0.8-1.1l0.5-0.5
		c0.2-0.2,0.5-0.4,0.8-0.4l0,0l0,0c0-1.3-0.1-2.5-0.2-3.8c0-0.1-0.1-0.2-0.1-0.3c-0.3-0.4-0.5-0.9-0.5-1.4v-2.6c0-1,0.2-1.1,0.2-1.9
		s-0.4-0.8-0.5-1.8c-0.1-0.6-0.1-1.3,0-1.9c0.1-1.4,0.9-0.6,0.1-1.4s-1.7-0.5-1.9-1.1s-0.4,0.5-0.2-0.6s0-1.8,0.6-1.9
		s0.3,0.9,0.6-0.1s0.2,0,0.4-1l0.1-1c0,0,0.6-0.5,1-0.9s0.1,0.4,0.4-0.4s0.6,0.1,0.3-0.8s-0.8-1-0.4-1.5s0.6,0.6,0.4-0.5l-0.3-1.1
		c0,0-1,0-1.1-0.6s-0.9-0.4-0.1-0.6s1.3,0.5,1.4-0.4s-0.4-1.1-0.4-1.1s-0.9-0.5-0.9-1s-1-0.2,0-0.5s1.6,0.1,1.8-0.5
		S427.4,159.2,426.6,158.4z"/>
	<path class="st10" d="M452.5,211.9l-1.8-0.8c-0.6-0.3-1.2-0.5-1.8-0.8c-2.5-1-2.5-0.5-3.8-1s0.5,0.5-1.3-0.5s0.2-0.5-1.8-1
		s-0.5,0.8-2-0.5s-1-1-2-2.3s-1.3-1-2.3-2.3s0,0.5-1-1.3c-0.6-1.1-1.3-2-2.3-2.8c-1-1-0.3,0.5-1-1s-1.5-1.8-2.3-2.8l-0.8-1l-1.8-2
		c-0.2-0.3-0.4-0.7-0.6-1l0.2-0.1l-0.1-0.2c0-0.1-0.1-0.2-0.1-0.2l0,0c0-0.1-0.1-0.2-0.2-0.2l0,0c-0.3,0.1-0.6,0.2-0.8,0.4l-0.5,0.5
		c-0.4,0.3-0.6,0.6-0.8,1.1c-0.4,1.5-1.1,1.1-1.3,2.6s0,0-0.6,0.4s-2.4,4.8-2.4,4.8l-1,0.4c-1,0.4-0.3,0.6-0.9,2.4s0,0,0.6,1.5
		s0,0,0,2s-0.9,0-0.9,0l-1.1,3l-0.6,1.1c-0.6,1.1,0,0-1.3,1.3l-0.6,0.6l0,0l0,0l0,0l-0.2,0.2l-0.1,0.1c-0.8,0.7-1.6,1.5-2.2,2.4
		c-1.3,1.7,0.5,1.3-0.2,2.8s0.7,2,0,3.5s-0.4,2-1.1,4.1s0,0-0.2,0.6s-0.9,2.4-0.9,2.4c0,0.8,0,1.6-0.2,2.4c-0.2,1.5,0,0,0.1,0.9
		s0.1,1.7,0,2.6c-0.1,0.6,0.1,1.1-0.1,2.2s0.2,1.5,0,3.3c0,0.1,0,0.2,0,0.3l0.3,0.1l43.8-26.5l0.3-1.8L452.5,211.9z"/>
	<path class="st1" d="M413.6,212.2L413.6,212.2L413.6,212.2z"/>
	<path class="st0" d="M300.1,154.5c-0.8-0.8,0.2,0-0.8-0.8l-1-0.8l-0.6-0.2c-0.2-0.2-0.4-0.3-0.6-0.4l-0.4-0.1c0,0,0.1,0.5-0.6,0.5
		s-1,0.4-1.4,0l-0.1-0.1l0,0l0,0l-0.3-0.3l-0.9-1.3c0,0-0.1,0-0.6-0.8s-1.9-1.6-2-2.2s-0.2-0.6-0.4-1.1s0.4,0-0.1-0.5
		c-0.4-0.3-0.8-0.6-1.3-0.9h-0.6l-0.9,1c-0.4-0.2-0.8-0.5-1.1-0.9c-0.2-0.4,0.2,0-0.2-0.4s-0.1,0.2-0.5-0.4
		c-0.2-0.4-0.4-0.9-0.5-1.4c0,0,0.2-0.6-0.1-0.6s0.3,0.5-0.4,0l-0.6-0.5l-0.3-1.1c0,0,0.3-0.5,0.6-0.5h0.4l0.2-1
		c-0.4-0.4-0.7-0.7-1.1-1l-0.4-0.3c-0.5-0.4-1.1-0.7-1.6-0.9c-0.4-0.1-0.8-0.1-1.1-0.1c-0.5-0.1-1-0.3-1.5-0.5h-0.6l-0.5-0.1l-1.6-1
		c-0.2-0.3-0.4-0.6-0.5-0.9c-0.1-0.5,0.2,0.4-0.1-0.5s-0.6,0-0.4-0.9c0.2-0.4,0.3-0.9,0.4-1.4V131c0-0.4-0.2,0-0.6-0.5
		s0.1,0.3-0.4-0.5l-0.5-0.8c0,0-1,0.1-1-0.5s0.1-0.8-0.4-1.3s0.5,0-0.5-0.5s-0.8,0.4-1-0.5c-0.2-0.6-0.2-1.2,0-1.8
		c0.1-0.4-0.3,0.3,0.1-0.4c0.2-0.3,0.1-0.8-0.2-1l0,0l-1.9,0.1h-8.7l-0.9-1.2l-0.6-0.6c0,0-0.1-0.6-0.5-0.6H258v-1l-1.2-2h-1
		l0.4-0.8l0.6-1.7h-1.3l-0.9-0.8l-1-0.9H253l-0.5-0.8v-1.2c0-0.4,0.2-0.7,0.5-0.9l-0.5-0.1c-0.5-0.1-0.4-1.2-0.8-1.7s0-1.4,0-1.4
		l-0.6-0.8c-0.6,0-1.3,0.1-1.9,0.2c-0.8,0.3,0,0-0.6,0.4s-1,0-1.8,0h-1.7c-0.7-0.2-1.4-0.5-2.1-1c-0.5-0.4-2,0-2,0
		c-0.6-0.1-1.2-0.1-1.8,0c-0.9,0.1-0.9-0.9-1.3-1.2s-1.8,0-1.8,0l-1.4,1.2h-3.9L202,138l70,53.2l26.7-33.1l0.2-1
		c0.1-0.2,0.3-0.3,0.5-0.3l0,0l0.2,0.1l1.3-1.6C300.3,154.6,300.8,155.2,300.1,154.5z"/>
</g>
</svg>
