<svg id="Layer_1" data-name="Layer 1" xmlns="http://www.w3.org/2000/svg" viewBox="0 0 500 500"><title>Mapa_Artboard 2</title><polygon points="423.89 42.71 422.86 41.4 420.94 40.43 420.92 40.43 418.93 45.17 423.89 42.71" style="fill:#8990a8"/><polygon points="392.14 135.63 392.22 135.32 392.88 134.17 393.48 132.79 393.26 129.19 393.38 127.57 397 123.41 400.2 121.56 401.5 120.33 401.19 118.89 400.32 117.5 399.93 115.96 400.16 114.69 403.23 112.94 403.66 110.04 402.97 106.69 401.61 104.11 402.57 103.43 403.9 102.99 405.49 102.83 407.17 103 407.17 102.07 403.22 101.35 399.87 99.27 398.11 96.06 398.01 91.9 398.74 89.86 398.83 87.82 397.72 82.58 366.81 132.73 392.14 135.63" style="fill:#7199b1"/><polygon points="408.71 52.52 410.41 50.45 413.25 47.98 418.93 45.17 420.92 40.43 418.77 39.85 416.92 39.66 413.32 40.2 412.22 39.7 410.87 37.61 409.61 33.13 409.25 30.46 409.48 28.95 410.32 27.06 408.65 26 389.89 21.45 358.63 36.36 408.71 52.52" style="fill:#8ba1af"/><polygon points="389.89 21.45 385.05 20.27 383.06 19.54 382.2 18.69 381.81 18.16 379.9 16.82 379.35 16.17 379.31 15.05 379.82 14.13 380.36 13.47 380.43 13.01 379.31 12.7 377.72 12.88 376.33 13.27 375.72 13.52 373.87 9.68 370.48 4.89 358.63 36.36 389.89 21.45" style="fill:#92a7b1"/><polygon points="386.2 153.5 388.67 150.09 391.67 147.16 392.39 145.93 392.29 145.38 391.93 144.61 391.46 143.85 391.12 143.46 391.01 143.34 390.47 142.49 390.73 141.78 391.25 141.1 391.54 140.26 391.8 136.99 392.14 135.63 366.81 132.73 386.2 153.5" style="fill:#5a92b1"/><polygon points="374.61 172.46 376.07 166.28 377.51 163.17 378.8 161.93 382.24 159.33 382.67 158.56 382.3 157.47 383.06 156.46 385.44 154.55 386.2 153.5 366.81 132.73 374.61 172.46" style="fill:#5192b5"/><polygon points="366.81 132.73 397.72 82.58 397.14 79.85 397 76.03 397.28 72.09 398.06 68.12 399.26 64.66 400.79 62.18 408.71 52.52 358.63 36.36 366.81 132.73" style="fill:#80a6b3"/><polygon points="364.05 479.55 363.59 478.25 363.77 476.77 364.21 475.53 364.47 474.97 364.47 474.07 359.04 474.07 363.95 484.71 364.52 484.94 367.33 484.05 367.49 482.64 366.43 481.37 364.05 479.55" style="fill:#2655a4"/><polygon points="358.63 36.36 315 50 366.81 132.73 358.63 36.36" style="fill:#82b2b8"/><polygon points="294.09 190.91 364.17 220.75 364.98 216.69 368.25 207.9 369.9 199.52 370.1 196.21 370.5 194.42 372.38 191.47 372.95 189.6 372.91 187.94 372.48 187.23 371.81 186.69 371.03 185.55 370.1 182.85 370 180.43 370.76 178.16 374.59 172.56 374.61 172.46 366.81 132.73 294.09 190.91" style="fill:#51a3bb"/><polygon points="370.48 4.89 368.71 2.4 366.4 0.66 360.83 0 355.16 1.3 350.21 3.82 346.83 6.88 345.19 9.89 344.12 12.55 343.71 13.03 342.73 13.49 341.79 14.27 341.34 15.66 342.92 16.65 345.9 19.67 347.76 22.6 345.98 23.33 345.18 22.53 344.55 21.11 343.58 19.75 341.77 19.15 340.2 19.18 339.04 19.38 338.74 19.53 358.63 36.36 370.48 4.89" style="fill:#95b6b7"/><polygon points="354.38 474.07 355.29 475.15 355.81 476.35 355.83 477.66 355.23 479.05 357.24 480.95 360.73 483.41 363.95 484.71 359.04 474.07 354.38 474.07" style="fill:#2966ac"/><polygon points="315 50 306.81 130.91 366.81 132.73 315 50" style="fill:#75b4bc"/><polygon points="353.98 267.81 358.37 242.35 360.85 237.3 364.17 220.75 294.09 190.91 353.98 267.81" style="fill:#3c9dbe"/><polygon points="366.81 132.73 306.81 130.91 294.09 190.91 366.81 132.73" style="fill:#5dafbe"/><polygon points="301.83 380.83 306.9 377.44 309.27 375.19 313.42 368.82 313.51 368.58 313.6 367.14 313.27 363.91 313.51 362.55 315.21 360.59 322.36 354.52 323.02 353.13 328.31 345.5 329.4 342.46 330.93 335.73 333.39 331.39 334.25 328.4 334.79 327.23 335.88 326.1 338.35 324.3 339.42 323.2 341.92 318.07 342.43 313.1 342.37 307.87 343.11 302 344.18 298.83 345.54 296.32 349.18 291.47 350.33 288.97 351.12 284.43 265 279.09 301.83 380.83" style="fill:#2999c1"/><polygon points="265 279.09 351.12 284.43 352.68 275.36 353.98 267.81 294.09 190.91 265 279.09" style="fill:#36a7c3"/><polygon points="309.32 375.14 311.77 372.03 312.87 370.22 313.42 368.82 309.27 375.19 309.32 375.14" style="fill:#2089bd"/><polygon points="358.63 36.36 338.74 19.53 338.09 19.86 334.92 22.5 332.47 23.46 326.67 24.51 316.31 26.38 313.46 27.41 315 50 358.63 36.36" style="fill:#8fbdbb"/><polygon points="294.09 190.91 238.63 203.64 265 279.09 294.09 190.91" style="fill:#4ab5c3"/><polygon points="225 340.91 299.41 382.44 301.83 380.83 265 279.09 225 340.91" style="fill:#31a1c2"/><polygon points="315 50 279.98 57.78 278.8 58.74 277.73 60.22 277.3 61.72 276.99 63.7 276.22 64.84 276.19 64.89 275.29 65.83 274.52 67.36 275.08 68.52 275.43 69.46 275.45 70.34 275.07 71.15 273.95 72.68 271.08 78.54 270.32 81.32 268.47 82.25 268.04 83.2 267.09 86.15 265.18 88.09 263.78 90 264.27 92.82 260.57 92.12 257.69 92.88 255.32 94.63 253.87 96.15 306.81 130.91 315 50" style="fill:#83c4bd"/><polygon points="313.46 27.41 311.71 28.04 309.39 29.3 307.49 30.98 305.27 32.37 295.78 35.49 292.3 38.44 315 50 313.46 27.41" style="fill:#97cabc"/><polygon points="292.3 38.44 292.08 38.63 288.5 42.9 283.91 50.2 282.85 51.9 281.7 55.04 281.36 56.55 281.46 57.18 280.17 57.63 279.98 57.78 315 50 292.3 38.44" style="fill:#95d1bc"/><polygon points="271.68 435.48 272.38 432.55 277.3 423.94 279.77 415.31 280.74 408.99 282.41 405.91 286.56 400.73 287.9 398.14 289.99 392.77 228.85 430.91 229.47 431.4 230.51 432.86 232.75 437.94 235.61 441.48 236.24 442.56 271.38 438.41 271.68 435.48" style="fill:#3388b8"/><polygon points="306.81 130.91 238.63 203.64 294.09 190.91 306.81 130.91" style="fill:#5ab7c0"/><polygon points="306.81 130.91 227.84 134.76 226.45 139.64 221.66 147.96 220.26 154.3 219.11 157.6 217.41 159.02 217.03 160.72 216.71 161.1 213.48 164.87 238.63 203.64 306.81 130.91" style="fill:#66c2c0"/><polygon points="253.87 96.15 253.16 96.89 252.46 98.15 251.88 99.5 250.89 100.59 247.41 101.63 246.62 103.01 245.79 106.22 242.75 111.6 241.62 114.48 241.16 117.87 240.2 119.96 236.47 124.1 229.63 131.7 227.91 134.53 227.84 134.76 306.81 130.91 253.87 96.15" style="fill:#7dc9be"/><polygon points="290.59 391.22 291.68 389.81 293.04 389.09 298.61 382.98 299.41 382.44 225 340.91 209.97 416.7 211.9 418.4 214.24 420.01 219.4 422.48 221.66 423.94 221.99 424.63 222.48 426.55 223.04 426.94 223.61 427.12 225.28 428.09 228.85 430.91 289.99 392.77 290.59 391.22" style="fill:#3a97bc"/><polygon points="270.59 481.69 271.39 477.92 270.95 451.33 270.82 443.78 271.38 438.41 236.24 442.56 236.46 442.93 246.71 469.53 246.54 470.41 269.79 483.57 270.59 481.69" style="fill:#3782b4"/><polygon points="238.63 203.64 201.36 268.18 265 279.09 238.63 203.64" style="fill:#49b8c3"/><polygon points="247.71 488.79 247.06 492.4 247.17 493.6 249.06 495.2 250.82 495.64 252.01 494.42 252.17 491.02 256.25 492.02 260.31 493.85 263.79 496.5 266.13 500 266.29 496.95 265.56 492.25 265.5 487.93 267.55 486.04 269.28 484.77 269.79 483.57 246.54 470.41 246.42 471.08 245.16 472.9 244.87 474.52 244.87 480.05 244.67 481.75 244.63 482.78 244.87 484.05 247.71 488.79" style="fill:#437fb0"/><polygon points="201.36 268.18 225 340.91 265 279.09 201.36 268.18" style="fill:#47b0c2"/><polygon points="175.26 351.13 176.1 356.54 176.49 357.53 177.95 360.05 178.25 361.25 178.93 361.92 179.59 362.41 179.88 363.06 179.7 364.3 178.93 366.16 178.88 367.67 179.4 370 181.78 375.25 184.31 379.19 185.69 382.12 186.47 385.1 185.88 387.21 184.77 389.58 185.61 392.01 187.39 394.2 192.04 398.5 194.78 401.62 195.65 403.26 196.74 405.33 197.51 409.11 190.94 401.18 197.18 410.02 203.9 415.28 205 415.25 205.95 414.9 206.78 414.85 208.29 415.5 209.44 416.23 209.97 416.7 225 340.91 175.26 351.13" style="fill:#52a1bb"/><polygon points="238.63 203.64 188.75 208.35 187.19 209.84 186.58 211.37 185.74 215.02 184.93 216.59 182.05 218.79 181.65 219.57 181.12 220.98 177.95 225.17 177.3 226.71 176.1 231.24 175.46 236.4 173.21 240.35 171.77 245.4 171.63 247.79 201.36 268.18 238.63 203.64" style="fill:#66c2c0"/><polygon points="213.48 164.87 210.87 167.93 209.48 169.25 209.02 170.68 208.71 175.88 208.1 177.45 205.46 179.53 204.85 180.95 204.53 182.47 203.73 183.22 202.6 183.76 201.32 184.63 199.77 186.18 198.38 188.59 195.41 196.89 193.29 200.88 191.9 204.87 190.84 206.34 188.75 208.35 238.63 203.64 213.48 164.87" style="fill:#74c8bd"/><polygon points="201.36 268.18 167.16 337.31 167.78 338.37 169.49 338.44 170.4 337.06 170.94 335.31 171.57 334.36 174.83 334.82 175.38 337.52 174.01 340.65 171.57 342.39 173.57 344.41 174.51 346.28 175.01 349.51 175.26 351.13 225 340.91 201.36 268.18" style="fill:#55b0bf"/><polygon points="171.07 275.75 170.58 276.68 172.72 280.83 174.61 286.21 171.85 286.19 169.95 286.32 168.68 289.22 168.7 290.92 169.97 290.98 170.92 291.22 172.06 290.39 172.49 292.03 171.77 291.79 170.09 292.53 168.1 292.67 167.29 294.76 169.21 296.05 167.89 296.38 167.07 297.27 165.33 301.89 165.09 303.05 165.34 304.23 164.17 305.58 163.45 307.5 162.97 309.02 163.68 310.67 164.1 312.69 163.41 314 162.01 314.47 160.72 315.2 160.37 317.26 161.81 318.91 164.01 320.81 164.41 322.16 160.37 322.2 160.37 323.2 165.19 324.41 165.93 325.22 165.39 326.77 163.8 327.28 161.88 327.54 160.37 328.33 159.76 329.52 159.42 331.28 159.8 333.06 161.3 334.36 162.71 333.99 163.67 332.49 164.85 331.43 166.94 332.35 167.36 333.61 167.1 337.22 167.16 337.31 201.36 268.18 171.07 275.75" style="fill:#69babe"/><polygon points="167.93 258.72 162.47 265.68 155.28 272.94 153.36 275.75 154.97 274.89 157.28 273.06 158.81 271.98 160.76 270.04 162.27 268.19 164.55 265.88 169.22 258.34 167.93 258.72" style="fill:#75c5bf"/><polygon points="171.63 247.79 171.4 251.72 171.51 260.19 169.15 262.84 169.26 267.33 173.66 267.05 171.57 269.77 171.1 271.07 170.21 272.15 170 273.03 171.57 273.8 171.57 274.81 171.07 275.75 201.36 268.18 171.63 247.79" style="fill:#75c5bf"/><polygon points="104.65 250.51 103.83 251.9 102.67 251.99 101.08 251.81 99.01 252.44 99.3 251.78 99.93 249.5 97.54 250.32 93.72 252.72 92.64 252.44 91.71 252.44 91.59 254.5 91.71 256.57 92.25 256.28 92.35 256.19 92.35 256.03 92.64 255.56 93.37 256.69 94.17 257.52 95.16 258.12 96.42 258.59 94.6 260.07 92.39 260.68 90.32 260.25 88.95 258.59 88.29 259.89 90.79 262.38 93.28 263.35 95.77 263 98.17 261.6 98.52 260.98 99.08 258.88 99.47 258.12 100.19 257.73 101.63 257.55 103.66 256.41 105.11 256.7 106.44 257.56 107.43 258.59 107.73 257.05 107.06 254.97 104.65 250.51" style="fill:#8fcdbd"/><polygon points="79.36 256.05 80.02 255.74 80.81 255.6 81.94 255.56 83.49 255.3 83.65 254.61 83.29 253.62 83.36 252.44 84.78 248.09 85.67 246.24 86.96 245.47 84.79 243.58 83.18 245.16 81.51 250.51 81.47 252.97 81.16 254.02 80.03 254.45 78.73 254.55 77.77 254.85 77.14 255.49 76.81 256.57 78.73 256.57 79.36 256.05" style="fill:#99d3bc"/></svg>