<svg id="Layer_1" data-name="Layer 1" xmlns="http://www.w3.org/2000/svg" viewBox="0 0 500 500"><title>Mapa_Artboard 3</title><polygon points="492.63 330.68 492.78 330.46 493.48 329.89 493.73 329.54 494.64 328.78 494.81 328.52 495.15 327.76 496.68 325.44 497.8 323.28 497.8 323.04 498.2 321.81 498.49 320.56 498.53 320.29 498.55 319.78 498.58 319.59 498.65 319.42 498.75 319.31 499 319.19 499.1 319.1 499.18 319.04 499.26 319.06 499.31 319.05 499.33 318.86 499.31 318.74 499.22 318.52 499.2 318.37 499.41 317.73 499.49 317.57 499.84 316.52 499.9 316.4 499.96 316.27 500 316.05 499.19 316.18 498.93 315.47 488 329.68 492.63 330.68" style="fill:#b44b91"/><polygon points="498.93 315.47 498.79 315.09 498.66 313.58 498.65 312.43 498.69 312.16 498.83 311.58 498.87 311.21 498.83 310.92 498.58 309.74 498.4 309.63 497.98 309.61 497.63 309.46 497.48 309.49 497.42 309.77 497.24 309.69 497.09 309.59 496.99 309.44 496.91 308.96 496.84 308.76 496.73 308.57 496.66 308.33 495.78 306.62 495.32 306 495.03 305.77 493.91 305.27 493.54 305.37 491.73 306.56 491.27 306.74 490.93 306.64 490.77 306.54 490.25 306.42 489.86 306.4 489.74 306.43 489.62 306.55 489.45 306.8 488.95 307.37 488.93 307.68 488.99 307.88 489.13 307.95 489.3 307.85 489.23 307.81 489.21 307.81 489.2 307.79 489.17 307.69 489.5 307.53 489.93 307.07 490.19 306.89 490.2 307.04 490.3 307.37 490.41 307.21 490.73 307.39 491.13 307.51 491.52 307.51 491.83 307.29 492.1 306.98 492.46 306.71 492.85 306.55 493.23 306.57 493.47 306.69 493.53 306.8 493.5 306.93 493.46 307.12 493.5 307.3 493.58 307.5 493.61 307.71 493.52 307.93 493.4 308.14 493.19 308.6 493.01 308.81 491.83 309.51 491.52 309.56 491.26 309.38 490.99 309.24 489.97 309.29 489.03 308.87 488.67 308.81 488 308.93 488 329.68 498.93 315.47" style="fill:#bd5997"/><polygon points="490.07 335.31 491.88 331.74 492.63 330.68 488 329.68 490.07 335.31" style="fill:#b7388c"/><polygon points="488 308.93 487.94 308.94 487.64 308.91 487.49 308.64 487.59 308.64 487.64 308.77 487.72 308.79 487.82 308.73 487.94 308.64 487.72 308.6 487.61 308.45 487.55 308.28 487.49 308.19 487.34 308.15 486.86 308.19 486.49 308.14 485.57 307.69 484.46 307.5 484.38 307.62 484.65 307.85 484.98 307.97 485.68 308.01 485.41 308.18 485.13 308.16 484.61 308.01 483.48 308.01 482.94 307.92 482.4 307.68 482.07 307.44 488 329.68 488 308.93" style="fill:#c95d98"/><polygon points="483 307.31 483.25 307.46 483.41 307.59 483.61 307.64 483.82 307.62 483.98 307.54 484.13 307.38 484.07 307.3 483.08 306.93 481.87 306.7 481.96 307.06 483 307.31" style="fill:#c95d98"/><polygon points="455.86 393.66 456.58 393.66 460.19 393.67 460.18 391.67 460.3 390.76 460.65 390.09 462.02 389.42 462.37 389.59 462.64 389.92 462.89 390.28 463.17 390.57 463.36 390.59 463.55 390.54 463.71 390.59 463.93 391.23 464.14 391.45 464.8 391.97 464.95 391.91 465.05 391.73 465.13 391.22 465.2 391.05 466.04 390.21 466.19 389.97 466.43 389.07 466.51 388.86 466.75 388.59 466.98 388.41 467.17 388.21 467.33 387.87 467.38 387.63 467.44 387.11 467.48 386.88 467.89 385.96 467.94 385.7 467.89 385.38 467.83 385.31 468.3 384.85 468.78 384.54 468.97 384.34 469.14 384 469.19 383.73 469.2 383.65 469.23 383.28 469.29 382.89 469.45 382.52 469.96 381.74 470.16 381.31 470.22 381.05 470.28 380.46 470.43 379.91 470.52 379.21 470.61 378.96 470.73 378.79 471.24 378.26 471.4 378.29 471.56 378.4 471.73 378.47 471.87 378.44 472.2 378.28 472.38 378.16 472.49 378.12 472.58 378.16 472.74 378.37 472.86 378.47 472.96 378.45 473.05 378.37 473.18 378.33 474.2 378.31 474.29 378.34 474.29 378.27 474.36 378.2 474.43 378.15 474.63 378.1 474.77 377.68 475.13 376.97 475.2 376.6 475.65 375.47 476.04 374.79 476.44 373.68 476.52 373.65 476.71 373.5 476.81 373.33 476.65 373.21 476.48 373.27 476.31 373.44 476.18 373.66 476.09 373.84 476.12 373.4 476.24 373.1 476.31 372.81 476.21 372.41 476.02 372.87 475.74 373.31 475.41 373.66 475.09 373.84 475.13 373.59 475.21 373.38 475.31 373.21 476.02 372.38 476.15 372.27 476.55 372.25 476.84 372.14 477.02 371.86 477.07 371.69 476.98 372.16 476.94 372.57 477.05 372.74 477.2 372.6 477.32 372.27 477.41 371.88 477.45 371.55 477.58 370.93 477.91 370.27 478.31 369.68 478.69 369.26 478.79 370.18 478.9 370.57 479.08 370.91 479.22 371.3 479.23 371.79 479.14 372.74 479.12 372.75 479.08 372.85 479.04 372.99 479.02 373.13 479.06 373.25 479.14 373.39 479.22 373.5 479.25 373.53 479.22 373.81 479.06 374.18 479.02 374.38 478.89 374.77 478.63 375.21 478.46 375.7 478.57 376.22 478.02 377.08 478 377.23 477.97 377.58 478.01 377.94 478.18 378.1 478.57 378.25 479.43 378.9 479.87 379.05 480.19 379.09 480.36 379.22 480.44 379.46 480.5 379.83 480.45 379.84 480.38 380.01 480.36 380.21 480.44 380.3 480.48 380.33 480.94 380.46 481 380.65 481 380.87 480.99 381.07 481 381.18 481.24 381.55 481.28 381.58 481.23 381.95 481.13 382.2 481.08 382.42 481.18 382.69 481.26 382.54 481.36 382.34 481.45 382.11 481.5 381.88 481.51 382.19 481.46 382.79 481.36 383.37 481.23 383.63 481.08 383.81 481.15 384.12 481.35 384.22 481.62 383.77 481.7 384.27 481.73 384.89 481.85 384.89 481.85 383.38 481.9 383.02 482.13 382.3 482.18 381.96 482.26 381.62 483.06 380.06 483.2 379.53 483.27 377.92 483.37 377.55 483.58 377.08 483.62 376.59 483.54 375.57 483.62 374.57 483.84 373.73 484.17 373.03 484.56 372.41 484.85 371.76 485.44 368.93 485.77 365.9 486.14 365.15 486.49 364.01 486.71 363.3 486.58 362.76 486.78 362.34 486.97 361.1 487.14 360.54 487.57 359.69 487.83 359.34 488.16 359.12 488.16 358.96 487.83 358.98 487.62 359.22 487.45 359.52 487.25 359.75 487.59 358.8 486.81 358.89 486.42 359.04 486.24 359.36 486.17 359.76 486 360.17 485.57 360.87 485.23 361.27 485.06 361.27 484.91 361.12 484.61 361.01 484.43 360.78 484.54 360.24 484.88 359.28 484.63 359.18 484.73 358.9 484.97 358.54 485.11 358.17 485.01 358.17 484.88 358.64 484.77 358.64 484.96 357.74 485.58 357 486.34 356.48 486.92 356.26 486.82 356.57 486.77 356.86 486.65 357.09 486.35 357.21 486.95 357.08 487.09 356.98 487.54 356.34 487.65 356.26 487.93 356.14 488.2 355.85 488.44 355.44 488.62 354.99 488.78 353.46 488.9 353.24 488.95 353.01 488.82 352.49 488.5 351.66 488.48 352.05 488.36 352.63 488.39 352.78 488.39 352.94 487.38 352.76 487.04 352.78 487.27 352.91 487.48 353 487.94 353.09 488.44 353.09 488.6 353.02 488.6 352.86 488.5 352.61 488.74 352.67 488.73 353.1 488.48 353.56 488.05 353.73 488.05 353.55 488.26 353.41 488.19 353.38 488.15 353.35 488.11 353.3 488.05 353.24 487.94 353.41 487.85 353.35 487.74 353.24 487.59 353.24 487.53 353.35 487.51 353.5 487.47 353.65 487.36 353.73 487.26 353.69 486.92 353.41 486.46 353.24 486.23 353.38 485.75 353.59 485.57 353.73 485.36 354.05 485.19 354.39 484.98 354.63 484.66 354.68 484.73 354.27 484.78 353.59 484.88 353.24 484.69 353.26 484.5 353.24 484.34 353.18 484.22 353.09 484.18 352.88 483.71 352.48 483.54 352.14 483.5 351.78 483.5 351.29 483.55 350.83 483.66 350.55 483.83 350.59 484.71 350.59 484.88 350.55 484.98 350.85 484.9 351.2 484.74 351.51 484.56 351.66 484.76 351.71 484.91 351.45 485.11 350.69 485.4 349.97 485.57 349.31 485.87 348.51 486.2 347.87 486.46 347.84 486.58 347.5 486.7 347.44 486.83 347.56 486.98 347.76 487.1 347.78 487.23 347.64 487.35 347.45 487.43 347.36 487.57 347.16 488.26 345.78 488.1 345.9 488.02 345.98 487.94 346.09 487.99 345.88 488 345.55 487.94 344.81 487.88 344.64 487.74 344.45 487.71 344.26 487.77 344.08 487.88 344.02 488 344.08 488.05 344.26 488.07 344.64 488.15 344.86 488.44 345.21 488.42 346.12 488.39 346.41 488.3 346.64 488.17 346.7 488.06 346.87 487.88 346.89 487.82 347 487.8 347.26 487.85 348.21 487.94 347.92 488.16 346.89 488.27 346.76 488.38 346.71 488.46 346.62 488.6 345.78 488.62 345.53 488.54 345.03 488.17 344.08 488.05 343.56 487.99 341.6 488.08 340.61 488.44 338.76 488.66 338.06 489 337.48 489.51 337 489.42 336.8 489.42 336.59 489.52 336.44 489.74 336.37 489.92 335.6 490.07 335.31 488 329.68 455.86 393.66" style="fill:#c1358c"/><polygon points="439.48 427.86 439.72 427.55 439.82 427.18 439.68 426.89 439.56 426.89 439.56 427.06 439.49 427.06 439.24 427.96 439.48 427.86" style="fill:#c0238a"/><polygon points="439 428.92 439.08 429.02 439.13 429.05 439.34 429.09 439.28 428.97 439.18 428.72 439.12 428.6 439.19 428.61 439.21 428.58 439.21 428.52 439.23 428.46 439.33 428.55 439.46 428.6 439.56 428.54 439.56 428.3 439.46 428.36 439.23 428.24 439.17 428.19 438.94 429.01 439 428.92" style="fill:#c0238a"/><polygon points="438.38 433.48 438.71 433.43 439 433.29 439 433.29 439.01 433.27 439.07 433.16 439.18 432.84 439.23 432.65 439.13 432.7 439.09 432.72 439.06 432.74 439 432.82 438.88 432.82 438.82 432.43 439.21 431.99 439 431.72 439 431.58 439.37 431.38 439.26 431.15 438.78 430.79 438.72 430.36 438.83 430.05 439.04 429.84 439.23 429.71 439.01 429.6 438.84 429.42 438.84 429.38 437.69 433.48 438.38 433.48" style="fill:#c0238a"/><polygon points="439.65 426.62 439.88 426.64 440.13 426.73 439.94 426.31 439.92 426.18 439.91 425.88 439.89 425.63 439.6 426.66 439.65 426.62" style="fill:#c0238a"/><polygon points="482.07 307.44 481.9 307.32 481.5 306.89 481.85 307.03 481.96 307.06 481.87 306.7 481.63 306.66 480.94 306.41 479.92 305.82 479.53 305.75 478.12 305.75 477.4 305.49 477.16 305.44 477 305.49 476.65 305.7 476.2 305.81 475.83 305.98 475.5 306.24 475.42 306.44 475.56 306.41 476.22 306.22 476.79 305.8 477.17 305.79 477.57 305.9 477.9 306.07 476.83 306.03 476.59 306.16 476.37 306.37 476.08 306.49 475.17 306.62 474.64 306.84 474.35 306.89 474.06 306.81 473.49 306.48 473.21 306.41 471.92 306.41 471.6 306.52 471 306.9 470.68 307.03 469.65 307.19 469.33 307.37 468.31 308.64 467.73 309.14 465.73 309.77 465.15 310.1 464.83 310.21 464.1 310.31 463.01 310.75 461.6 311.07 461.49 311.12 461.14 311.33 460.98 311.39 460.81 311.37 460.41 311.21 459.76 311.32 458.41 311.85 455.28 312.27 452.99 312.82 451.68 312.82 449.9 313.22 448.25 314.04 447.95 314.11 447.67 314.25 446.67 315.23 445.8 315.66 445.3 315.74 445.1 315.82 444.74 316.05 444.18 316.68 443.1 317.21 442.76 317.58 440.91 319.13 440.62 319.5 440.45 319.88 440.2 320.93 440.59 321 440.68 320.53 440.8 320.53 440.77 321.03 488 329.68 482.07 307.44" style="fill:#ce5596"/><polygon points="439.43 324.11 439.1 324.7 439.1 324.86 439.51 324.63 439.83 324.08 440.04 323.42 440.11 322.86 440.16 322.68 440.45 321.81 440.59 321 440.2 320.93 439.43 324.11" style="fill:#ce4190"/><polygon points="438.49 393.64 442.11 393.64 445.72 393.65 449.34 393.65 452.96 393.66 455.86 393.66 488 329.68 440.77 321.03 440.75 321.31 440.34 322.66 440.14 323.92 439.91 324.47 438.99 325.91 438.82 326.54 438.69 328.79 438.32 330.77 438.32 331.79 438.57 333.7 438.55 334.63 438.34 335.94 438.32 336.45 438.36 337.75 438.2 338.91 438.19 340.69 438.15 341.16 438.15 341.36 438.19 341.64 438.69 342.89 438.77 343.31 438.75 343.72 438.67 344.03 438.51 345.01 437.87 345.95 436.39 347.36 435.44 348.27 435.13 348.94 434.81 349.91 434.7 350.46 434.72 350.84 434.78 351.22 434.81 351.74 434.78 352.21 434.62 353.19 434.36 357.68 434.16 358.44 433.77 359.13 437.02 393.64 438.49 393.64" style="fill:#ce4190"/><polygon points="438.44 424.71 438.34 424.59 438.19 424.44 438 424.37 437.62 424.62 438.49 424.84 438.44 424.71" style="fill:#d84193"/><polygon points="437.6 424.61 437.51 424.42 437.43 423.93 437.27 423.93 436.84 424.1 436.76 424.16 436.66 424.09 436.43 424.03 436.16 424.01 435.96 424.09 436.05 423.87 436.19 423.71 436.31 423.54 436.3 423.3 436.11 423.14 435.86 423.12 435.71 423.04 435.85 422.69 435.79 422.32 435.9 421.94 435.95 421.61 435.73 421.43 435.68 421.58 435.62 421.66 435.54 421.7 435.4 421.73 435.4 421.59 435.62 421.05 435.39 420.24 434.28 418.09 434.04 417.84 433.45 417.44 433.21 417.17 433.26 416.9 433.26 416.75 433.04 416.58 432.88 416.75 432.69 416.75 431.56 416.28 431.25 416.04 430.77 415.4 430.43 415.18 430.7 414.8 430.66 414.62 430.44 414.57 430.15 414.57 430.12 414.66 430.18 414.87 430.2 415.08 430.04 415.18 429.95 415.11 429.74 414.81 429.65 414.71 429.02 414.41 428.82 414.18 428.75 413.7 428.66 413.46 428.07 412.52 428.01 412.32 427.93 411.89 427.84 411.75 427.67 411.7 427.27 411.76 427.11 411.67 426.52 410.81 426.37 410.5 426.3 410.27 426.21 409.86 426.14 409.7 425.99 409.58 425.66 409.47 425.59 409.32 425.56 408.97 425.46 408.55 425.32 408.19 425.14 407.99 424.69 407.95 424.25 408.05 423.92 407.97 423.79 407.43 423.53 407.24 423.02 407.1 422.64 406.87 422.71 406.51 422.83 406.48 430.05 406.55 430.06 400.25 430.07 393.95 430.2 393.75 430.54 393.63 431.25 393.63 434.87 393.63 437.02 393.64 433.77 359.13 433.72 359.23 433.16 359.83 432.62 360.08 432.28 360.4 430.98 362.61 429.7 363.76 428.95 364.13 428.61 364.36 427.26 366 425.29 367.17 423.88 368.36 422.83 369.14 421.98 370.01 421.61 370.61 421.64 370.77 421.96 370.82 422.28 370.8 422.48 370.73 422.86 370.38 422.94 370.49 423.1 370.38 423.06 369.83 423.48 369.35 424.56 368.62 425.63 367.47 426.02 367.35 425.76 367.83 425.31 368.41 424.8 368.9 424.04 369.25 423.66 369.62 423.32 370.13 423.1 370.68 423.42 370.84 423.88 371.66 424.22 371.78 424.33 371.69 424.38 371.53 424.45 371.39 424.61 371.32 424.81 371.35 424.95 371.43 425.22 371.78 425.55 372.48 425.54 373.2 425.01 374.94 425.24 374.76 426.02 374.47 426.43 374.19 426.64 374.15 426.93 374.3 426.68 374.53 426.04 374.79 425.91 375.02 425.79 375.15 425.51 375.16 424.96 375.1 424.87 375.25 424.59 375.96 424.44 376.22 424.24 376.4 423.97 376.57 423.68 376.64 423.42 376.52 422.95 376.89 422.01 377.35 421.63 377.63 421.5 377.79 421.13 378.35 421.05 378.57 421.13 378.69 421.56 378.43 421.74 378.42 421.76 378.25 421.82 378.07 421.85 377.95 421.96 377.95 421.98 378.26 422.1 378.95 422.07 379.22 421.92 379.37 421.76 379.3 421.65 379.07 421.63 378.73 421.34 378.94 420.96 379.08 420.17 379.22 419.75 379.17 419 378.92 418.69 379.05 418.21 378.76 417.2 378.4 416.79 378.1 416.67 378.46 416.81 378.77 417.05 379.06 417.23 379.36 417.03 379.39 416.85 379.35 416.68 379.24 416.55 379.05 416.66 379.49 416.81 379.84 416.88 380.17 416.72 380.54 416.52 380.47 416.2 380.15 415.9 379.75 415.76 379.45 415.86 379.1 416.28 378.43 416.32 378.1 416.14 377.83 415.49 377.58 415.2 377.32 415.27 377.32 415.29 377.29 415.29 377.23 415.3 377.16 415.54 377.32 415.47 377.03 415.31 376.8 415.09 376.62 414.86 376.52 415.08 376.05 414.68 376.24 414.47 376.17 414.29 375.96 413.95 375.74 414.06 376.47 414.4 376.94 414.86 377.32 415.3 377.77 415 377.68 414.67 377.49 414.41 377.22 414.3 376.92 414.2 376.81 413.98 376.85 413.62 377 413.4 376.95 413.24 376.84 412.94 376.52 412.68 376.74 412.6 376.83 412.64 376.58 412.71 376.37 412.81 376.2 412.94 376.05 412.88 375.91 412.86 375.81 412.85 375.71 412.82 375.57 413 375.76 413.19 375.84 413.41 375.83 413.62 375.74 413.62 375.57 413.38 375.55 413.28 375.43 413.33 375.3 413.56 375.24 413.71 375.29 413.78 375.34 413.86 375.34 414.19 374.97 414.29 374.92 414.4 374.94 414.5 375.13 414.44 375.4 414.41 375.64 414.58 375.74 415.03 375.73 415.23 375.68 415.43 375.57 415.38 375.74 415.3 375.89 415.5 375.83 415.66 375.64 415.76 375.38 415.76 375.1 415.66 374.95 414.77 374.18 414.32 373.5 413.81 373.33 412.48 373.26 410.39 373.62 408.65 373.83 406.8 373.97 405.47 374.49 403.77 375.03 403.41 375.1 402.67 375.04 402.26 375.08 402.01 375.24 402.06 375.55 402.47 376.6 402.57 377.08 402.45 378.04 402.44 378.53 402.57 378.89 402.45 379.53 402.24 378.92 402.11 376.69 401.89 375.96 401.82 375.81 401.67 375.78 401.51 375.89 401.44 376.13 401.31 376.43 400.97 377.06 400.19 378.04 399.38 378.69 398 379.16 395.35 379.22 395 379.34 394.75 379.55 394.72 379.74 395.06 379.83 395.43 380 395.56 380.38 395.45 380.71 395.12 380.79 395.24 380.93 395.13 381.09 394.89 381.58 394.78 381.58 394.81 381.25 394.99 380.81 395.01 380.46 394.86 380.62 394.62 380.8 394.37 380.92 394.21 380.93 394.11 380.72 394.07 380.2 394 380 394.16 379.9 394.28 379.71 394.45 379.36 394.45 379.22 391.98 379.34 389.69 379.25 387.92 379.53 387.19 379.75 384.14 381.29 383.96 381.5 383.81 381.74 383.5 381.88 383.19 382.08 383.06 382.52 383.24 382.3 383.43 382.25 383.61 382.23 383.79 382.12 384.35 381.58 385.08 381.42 385.18 381.32 385.32 381.05 385.43 380.93 386.6 380.43 386.79 380.23 386.88 380.1 387.09 379.96 387.32 379.86 387.46 379.83 387.52 379.94 387.69 380.46 387.44 381.22 387.25 381.48 386.19 381.74 385.86 381.67 385.75 381.25 385.55 381.45 385.31 381.6 385.07 381.66 384.86 381.58 384.77 381.68 384.56 381.84 384.46 381.96 384.39 382.17 384.44 382.32 384.52 382.48 384.52 382.69 384.38 382.94 384.16 383.14 383.87 383.26 382.56 383.5 382.38 383.38 382.44 383.06 382.57 382.82 382.72 382.61 382.83 382.36 381 383.15 380.69 383.38 380.43 383.7 379.16 384.07 378.72 384.33 378.33 384.63 377.14 385.05 374.73 385.53 374.16 385.83 373.81 385.88 373.34 386.02 372.87 386.09 372.32 385.79 371.82 385.72 371.61 385.59 371.09 385.08 370.99 385.04 370.21 382.85 369.81 382.19 368.74 380.79 368.66 380.62 348 401.34 437.6 424.61" style="fill:#d84193"/><polygon points="363.25 428.33 363.31 428.25 363.51 428.21 363.65 428.07 363.55 427.66 364.51 427.66 364.67 427.51 365.39 426.1 365.71 425.7 366.09 425.43 366.53 425.33 366.71 425.43 366.94 425.66 367.15 425.92 367.27 426.11 367.34 426.44 367.36 426.69 367.43 426.94 367.67 427.28 367.84 427.65 367.7 427.89 367.44 428.08 367.27 428.3 367.25 428.57 367.32 428.83 367.5 429.23 367.72 428.99 367.99 428.41 368.23 428.3 368.69 427.99 368.67 427.91 368.77 427.75 368.96 427.52 369.03 427.48 369.22 427.41 369.31 427.35 369.36 427.24 369.41 426.88 369.53 426.81 369.65 426.78 369.78 426.82 369.93 426.97 370.18 427.17 370.82 427.42 371 427.66 370.89 428.67 370.26 429.25 368.84 429.85 368.63 430.06 368.56 430.33 368.67 430.55 369.02 430.64 369.69 430.68 370.03 430.64 370.31 430.49 370.58 430.69 371.01 430.77 371.89 430.78 371.78 430.78 373.32 430.84 374.1 431.05 374.66 431.49 374.9 431.73 381.15 435.14 381.04 434.86 380.8 434.68 380.24 434.38 380.05 434.18 379.62 433.37 379.2 432.93 378.7 432.69 377.53 432.35 377.53 432.19 377.76 432.19 377.76 432.02 377.19 431.57 376.94 431.42 376.77 431.38 376.35 431.4 376.03 431.32 375.37 430.98 374.94 430.95 374.94 431.09 376.18 431.71 375.74 431.88 374.87 431.38 373.36 430.02 373.59 430 373.73 429.89 373.74 429.77 373.53 429.71 373.4 429.64 373.37 429.5 373.44 429.43 373.59 429.54 373.7 429.54 373.72 429.18 373.66 428.77 373.69 428.44 373.98 428.3 374.34 428.37 374.57 428.56 374.94 429.09 375.5 429.68 376.17 430.19 376.86 430.46 377.53 430.33 377.88 430.09 378.21 429.93 378.45 430.06 378.54 430.71 378.64 431.01 378.86 431.36 379.18 431.7 379.34 431.88 379.85 432.24 381.82 432.81 382.23 433.06 382.44 433.48 382.63 433.98 382.96 434.52 382.77 434.81 382.56 434.96 382.38 434.94 382.27 434.69 382.08 434.76 381.69 434.72 381.49 434.85 384.52 437.22 386.21 438.74 388.98 441.69 389.26 441.88 393.25 446.39 393.73 446.64 393.92 446.94 394.21 447.59 395.72 449.86 397.04 451.1 397.29 451.74 397.61 452.01 398.28 452.38 399.26 453.43 399.53 453.48 399.32 453.2 399.41 453.03 399.59 453.09 399.64 453.48 399.9 453.39 400.25 453.49 400.59 453.68 400.82 453.87 401.02 454.27 401.15 455.2 401.33 455.66 401.07 455.53 400.89 455.2 400.79 454.77 400.76 454.35 400.62 454.16 399.91 453.84 399.64 453.64 399.63 454.11 399.89 454.68 401.95 457.77 405.11 462.11 407.18 464.88 408.43 466.45 409.34 467.9 409.41 468 409.75 467.93 410.04 467.45 410.4 466.12 410.75 465.25 410.82 464.9 410.8 464.48 410.51 463.37 410.5 463.2 410.52 462.87 410.51 462.7 410.36 462.14 410.33 461.95 410.31 461.47 410.39 461.2 410.73 460.67 410.92 459.99 410.87 458.59 410.93 457.84 411.12 457.58 411.33 457.5 411.54 457.47 411.76 457.35 411.93 457.09 412.25 456.08 410.12 452.39 410 452.02 409.99 451.6 410.1 451.2 410.4 450.5 411.2 448.66 411.72 447.46 412.34 446.05 413.64 443.06 414.94 440.06 416.07 437.45 416.87 435.6 417.18 434.89 417.55 434.03 417.75 433.7 418.01 433.52 418.76 433.52 421.03 433.51 423.3 433.51 425.56 433.51 427.83 433.5 430.01 433.5 430.1 433.5 432.37 433.49 434.64 433.49 436.91 433.48 437.69 433.48 438.84 429.38 438.82 429.2 438.94 429.01 439.17 428.19 439.06 428.07 439.17 427.99 439.24 427.96 439.49 427.06 439.45 427.06 439.5 426.74 439.6 426.66 439.89 425.63 439.88 425.55 439.79 425.52 439.64 425.61 439.45 425.64 439.36 425.58 439.23 425.48 439.06 425.38 438.55 425.29 438.5 425.16 438.53 424.96 438.49 424.84 437.62 424.62 437.61 424.62 437.6 424.61 348 401.34 363.25 428.33" style="fill:#d33391"/><polygon points="364.94 430.5 365.81 430.27 367.07 430.23 367.93 430.57 368.02 430.45 367.78 429.94 367.3 429.69 365.8 429.76 365.24 429.54 365.72 429.48 366.42 429.26 366.93 428.94 366.83 428.59 366.7 428.63 366.41 429.07 366.25 429.23 365.92 429.33 365.71 429.36 365.24 429.41 364.68 429.45 364.11 429.38 363.79 429.28 364.52 430.57 364.94 430.5" style="fill:#d33391"/><polygon points="368.66 380.62 368.4 380.05 367.9 378.29 367.6 377.63 367.26 377.36 366.48 377.26 366.2 377.08 364.06 376.63 363.7 376.43 363.55 376.13 363.46 375.65 363.25 375.32 361.82 374.06 361.25 373.37 360.97 373.18 360.67 373.1 359.57 373.07 358.1 373.22 355.95 373.13 354.49 372.8 354.24 372.67 354.13 373.16 354.74 373.68 354.47 374 354.12 373.74 354.03 373.63 348 401.34 368.66 380.62" style="fill:#e15199"/><polygon points="348.52 438.93 349.49 438.64 349.63 438.47 350.14 438.31 350.56 438.15 350.92 438.03 351.29 437.96 351.28 437.71 351.41 437.57 351.67 437.37 352.04 437.28 352.48 437.16 353.2 437.1 353.98 436.7 354.07 436.41 354.53 436.33 354.68 436.06 355.92 435.87 355.99 435.66 356.95 435.65 357.05 435.42 357.1 435.1 357.53 434.89 357.77 434.6 357.96 434.46 357.87 434.01 358.28 433.28 358.55 433.07 359.07 432.96 359.2 432.78 359.42 432.72 359.48 432.63 359.47 432.38 359.68 432.17 360.01 432.04 360.03 431.73 360.26 431.49 360.54 431.49 360.83 431.49 361 431.28 361.45 431.38 361.64 431.26 361.56 431.1 361.54 430.96 361.64 430.84 361.86 430.81 362.07 430.81 362.4 430.9 363.02 430.91 363.8 430.76 364.22 430.62 364.52 430.57 363.79 429.28 363.38 429.15 363.05 428.99 363.02 428.76 363.21 428.37 363.25 428.33 348 401.34 348.52 438.93" style="fill:#d62f93"/><polygon points="348 401.34 298 281.9 298 385.42 348 401.34" style="fill:#ee5a9e"/><polygon points="353.17 372.12 352.04 370.99 352.11 371.98 353 372.62 354.09 373.12 354.13 373.16 354.24 372.67 353.17 372.12" style="fill:#ec5da0"/><polygon points="348 401.34 354.03 373.63 353.76 373.29 353.45 373.05 353.08 372.97 351.35 372.28 351.2 372.27 351.03 372.3 350.98 372.39 350.97 372.49 350.91 372.58 350.53 372.83 350.34 372.89 350.08 372.91 349.91 372.76 349.73 372.43 349.66 372.09 349.84 371.94 350.09 372 350.53 372.25 350.81 372.27 350.81 372.1 350.1 371.46 349.73 371.02 349.57 370.6 349.27 370.48 348.69 370.11 348.32 369.69 348.67 369.42 349.04 369.55 349.62 370.33 350.53 370.69 351.3 371.49 351.71 371.78 351.74 371.16 351.71 370.99 351.5 370.75 351.16 370.56 350.8 370.43 350.53 370.38 350.2 370.22 349.82 369.86 349.23 369.1 348.9 368.51 348.6 367.79 348.36 366.93 348.13 365.31 348.02 365.03 347.79 364.96 347.36 364.97 346.96 364.86 346.63 364.56 346.37 364.15 346.19 363.71 345.95 362.54 345.79 362.21 345.69 361.79 345.63 361.24 345.47 360.92 345.05 361.17 344.82 360.96 343.45 359.4 343.06 359.1 342.86 358.68 342.73 358.19 342.63 357.31 342.39 356.55 342.36 356.22 342.54 355.67 342.45 355.22 341.89 354.36 341.72 353.95 341.16 351.24 340.97 349.2 340.4 346.98 340.13 346.25 339.25 344.84 338.18 342.59 337.09 340.87 336.52 339.53 336.38 339.33 336.2 339.24 336.1 339.16 335.93 338.96 335.77 338.72 335.56 338.06 335.24 337.6 334.23 336.45 333.1 334.63 332.65 334.06 332.41 333.65 332.17 332.75 331.85 332.38 331.18 331.9 330.62 331.23 328.71 328.13 327.92 325.99 328.09 325.69 328.17 325.59 328.26 325.51 328.11 325.11 327.94 324.32 326.77 321.57 325.62 318.6 324.64 315.08 324.52 314.22 324.4 313.91 324.14 313.79 324.12 313.52 323.01 310.5 322.95 310.02 323.11 309.06 323.13 308.62 322.95 308.33 322.69 308.6 322.45 308.73 322.21 308.7 321.94 308.51 321.68 308.14 320.36 304.96 320.12 304.05 319.86 302.04 319.53 300.47 319.46 298.51 319.34 297.55 318.94 296.26 318.82 295.81 318.68 295.54 318.4 294.69 318.33 294.15 318.55 294.91 319.9 298.19 320.34 298.59 320.53 299.14 320.8 300.72 320.81 301.02 320.9 301.25 321.28 301.66 322.04 303.17 322.93 304.4 323.17 304.97 323.97 305.93 324.62 306.51 324.95 306.89 325.09 307.29 325.08 307.7 325.03 308.07 324.92 308.42 324.75 308.81 324.59 308.63 324.28 308.71 323.95 308.95 323.69 309.22 323.41 309.63 323.43 309.8 323.55 309.95 323.68 310.7 324.08 311.87 324.3 313.49 324.42 313.49 324.53 312.42 324.63 311.89 324.81 311.47 325 311.14 325.46 310.1 325.55 309.69 325.69 308.68 325.93 307.7 325.98 306.74 325.55 305.75 324.38 304.72 324.19 304.39 324.02 304.29 323.12 303.17 322.82 302.94 321.14 300.28 318.67 294.15 318.49 293.31 318.44 290.44 318.03 288.89 317.93 288.65 317.87 288.39 317.73 287.2 317.66 286.88 317.69 286.19 317.2 283.8 317.52 281.9 317.2 281.9 317.21 281.94 317.2 282.18 317.06 282.4 316.87 282.54 316.67 282.54 316.52 282.34 316.49 282.01 316.5 281.9 298 281.9 348 401.34" style="fill:#ec5da0"/><polygon points="335.88 441.55 336.44 441.68 337.54 442.35 338.49 442.83 338.6 442.7 338.98 442.81 339.33 442.85 339.64 442.79 339.9 442.53 340.29 442.31 340.55 441.99 341.04 442.09 341.69 442.26 342.92 442.22 343.75 442.28 344.28 441.82 345.57 441.04 345.54 440.7 345.72 440.49 345.89 440.6 346.06 440.49 346.14 440.34 346.35 440.31 346.78 439.91 347.13 439.8 347.58 439.44 348.17 439.24 348.3 438.99 348.52 438.93 348 401.34 335.88 441.55" style="fill:#dc3697"/><polygon points="317.52 281.86 317.53 281.21 317.5 280.83 317.45 280.6 317.36 280.58 317.2 280.89 317.14 281.21 317.2 281.9 317.52 281.9 317.52 281.86" style="fill:#ed6da5"/><polygon points="316.5 281.9 316.55 281.65 317.11 279.92 317.07 279.44 316.76 278.95 317.2 279.12 317.31 279.09 317.39 278.94 317.38 278.61 317.43 278.43 317.98 277.66 318.11 277.32 318.6 274.86 318.78 274.59 318.8 274.98 318.78 276.35 318.97 273.43 318.54 266.6 318.71 262.31 318.98 260.02 319.3 255.18 319.12 254.33 318.97 255.04 318.89 256.62 318.78 257.27 318.67 257.27 318.78 255.08 318.7 254.47 318.47 254.21 318.11 254.15 317.66 254.16 317.66 254.01 318.83 254.16 319.12 254.01 319.25 253.6 319.39 248.76 319.47 247.78 319.53 246.95 319.87 243.19 298 281.9 316.5 281.9" style="fill:#ed6da5"/><polygon points="298 281.9 319.87 243.19 320.46 236.6 322.05 228.62 323.63 220.63 325.93 215.54 326.88 212.89 327.48 210.84 327.92 209.33 328.12 208.35 328.31 207.93 328.47 207.47 328.48 206.35 328.6 205.86 328.43 204.92 328.89 201.59 328.89 201.59 327.81 201.71 327.02 201.64 326.8 201.71 326.75 202.11 326.45 202.49 326.07 202.65 325.78 202.38 325.41 202.74 325.34 202.87 325.39 203.32 325.5 203.87 325.5 204.34 325.16 204.54 325 204.48 324.93 204.32 324.88 204.14 324.77 204.02 324.64 204.01 324.61 204.13 324.6 204.27 324.53 204.36 324.18 204.28 324.01 203.93 323.92 203.55 323.81 203.37 323.46 203.35 323.18 203.29 322.92 203.14 322.62 202.87 321.88 201.85 321.4 201.57 321.23 201.24 321.1 200.85 320.94 200.53 320.63 200.21 320.33 200.01 320 199.91 318.56 199.79 318.34 199.7 318.31 199.33 317.99 199.21 316.73 199.21 315.69 199.37 314.74 199.19 314.51 199.21 314 199.57 313.65 199.73 313.49 199.62 313.36 199.03 313.03 198.93 312.26 199.21 311.68 199.17 311.06 198.92 309.94 198.15 266 199.61 298 281.9" style="fill:#f27ba9"/><polygon points="298 385.42 299.38 422.69 299.8 422.92 300.09 422.9 300.63 423.07 300.65 423 300.71 422.81 300.8 422.65 301.05 422.58 301.21 422.5 301.33 422.5 301.46 422.39 301.71 422.48 301.94 422.45 302.09 422.55 302.15 422.73 302.63 423.39 303.24 424.58 304.54 426.17 305.14 426.88 305.41 427.34 305.44 427.56 305.39 427.65 305.33 427.65 305.38 427.72 305.6 427.85 305.63 427.93 305.75 427.98 305.98 428.05 306.36 428.25 307.4 428.76 309.53 429.27 311.18 429.98 311.5 430.02 311.6 429.97 311.72 429.87 311.8 429.76 311.79 429.71 311.89 429.77 311.96 429.87 312.01 429.98 312.02 430.02 312.36 430.14 312.69 430.33 312.91 430.12 313.13 430.29 313.36 430.52 313.6 430.49 313.38 430.78 312.87 430.71 311.89 430.33 312.19 430.76 312.73 431.08 313.33 431.33 315.04 432.6 315.64 433.1 316.75 434.18 317.01 434.43 317.12 434.51 317.26 434.66 317.43 434.85 317.84 435.02 318.15 435.37 318.47 435.55 319.36 435.8 319.97 435.94 320.11 435.78 320.32 435.62 321.05 435.64 322.01 435.94 322.47 435.81 323.63 436.34 325.12 436.57 325.5 436.32 326.49 436.55 326.81 436.54 327.8 436.91 328.54 437.27 329.5 438.06 329.93 438.34 330.16 438.28 330.44 438.89 330.37 438.97 330.82 439.47 331.32 439.63 332.32 440.02 333.73 441.16 334.42 441.18 335.88 441.55 348 401.34 298 385.42" style="fill:#e6479b"/><polygon points="309.94 198.15 309.79 198.04 309.63 197.81 309.25 197.03 309.14 196.87 308.71 196.86 308.52 196.78 308.52 196.53 308.65 196.04 308.19 195.86 307.67 195.46 307.21 195.26 306.95 195.7 306.62 195.15 306.15 194.89 305.63 194.71 305.16 194.37 304.19 194.87 303.97 194.81 303.79 194.66 303.45 194.22 303.32 194.17 303.17 194.15 303.14 194.02 303.35 193.69 303.19 193.48 302.99 193.37 302.78 193.35 302.55 193.38 302.62 192.97 302.44 192.67 301.88 192.2 301.63 191.79 301.54 191.7 301.39 191.69 301.28 191.78 301.15 191.84 300.97 191.7 300.87 191.85 300.73 191.89 300.57 191.84 300.41 191.7 300.03 191.8 299.43 191.21 299.17 191.55 299.03 191.16 298.88 191.03 298.49 191.01 298.2 191.17 298.1 191.2 298 191.15 297.89 190.94 297.81 190.87 297.49 190.85 297.18 190.9 296.87 190.83 296.52 190.46 296.48 190.18 296.58 189.87 296.73 189.56 296.8 189.28 296.77 188.97 296.58 188.28 296.38 187.95 295.95 187.81 295.56 187.59 295.45 187.02 295.34 185.8 295.29 185.41 294.63 182.82 294.42 181.65 294.19 180.58 293.95 180.17 293.67 179.79 293.43 179.38 292.91 178.52 292.73 178.19 292.07 177.48 291.92 177.28 291.85 177.01 291.85 176.51 291.81 176.23 291.7 176.04 291.57 175.99 291.43 175.98 291.28 175.91 291.03 175.64 290.97 175.5 290.67 174.95 291 174.15 291.04 173.94 291.01 173.71 290.94 173.53 290.86 173.4 290.83 173.28 290.86 172.79 291.1 171.73 291.16 171.26 291.13 170.78 291.02 170.34 290.84 169.94 290.6 169.56 290.55 169.52 290.37 169.4 290.32 169.31 290.29 169.11 290.26 169.04 290.16 168.95 289.69 168.71 289.8 168.45 290.08 168.03 290.14 167.8 290.16 167.54 290.25 167.22 290.3 166.73 290.44 166.16 290.49 165.87 290.48 164.96 290.49 164.85 290.43 164.5 290.37 164.29 290.24 164.2 289.98 164.17 289.89 164.06 289.88 163.81 289.93 163.24 289.93 162.25 289.8 161.88 289.47 161.48 289.14 161.27 288.85 161.15 288.76 161.04 288.56 160.56 288.4 160.46 288.19 160.53 287.85 160.79 287.66 160.79 287.6 160.69 287.43 160.27 287.33 160.14 286.75 160.14 286.66 160.04 286.58 159.87 286.37 159.45 286.25 159.34 286.19 159.09 286.15 158.8 286.09 158.59 285.97 158.5 285.68 158.37 285.52 158.25 285.32 157.94 285.18 157.61 284.99 157.37 284.97 157.35 284.56 157.24 284.56 157.11 284.37 156.83 284.15 156.58 284.06 156.55 284.06 156.47 266 199.61 309.94 198.15" style="fill:#f384ab"/><polygon points="255.5 397.38 255.57 397.77 255.83 397.75 255.98 398 256.19 398 256.26 398.32 256.71 398.16 257.19 398.25 257.82 398.96 257.98 399.26 258.11 399.56 258.07 399.97 257.84 400.02 257.86 400.27 258.88 400.73 259.66 401.21 261.03 401.88 262.36 402.88 262.53 403.4 263.63 404.3 264.15 404.97 264.45 405.39 264.48 405.85 264.29 406 264.39 406.27 264.65 406.13 265.22 406.52 266.09 406.89 267 407.35 268.09 407.76 268.98 408.18 270.08 408.83 271.07 409.24 272.52 409.9 276.55 411.79 277.94 412.51 279.07 413.06 279.92 413.49 280.74 413.8 281.95 414.37 282.48 414.76 282.54 414.98 282.93 415.5 283.05 415.6 283.13 416.09 283.24 416.25 283.47 416.22 283.6 416.02 283.51 415.93 283.36 415.99 283.33 415.82 283.5 415.67 283.77 415.53 284.01 415.6 284.15 415.7 284.27 415.89 284.26 416.04 284.15 416.1 284.08 416.08 283.98 416.28 283.95 416.47 283.84 416.52 283.97 416.68 284.1 416.68 284.24 416.72 284.33 416.64 284.44 416.67 284.52 416.82 284.46 417 284.29 416.87 284.15 416.96 284.32 417.06 284.39 417.19 284.56 417.27 284.65 417.13 284.75 417.11 285.19 417.52 286.07 418.45 286.46 418.7 286.93 419 287.36 419.19 287.81 419.38 288.31 419.55 289.11 419.43 290.13 419.48 292.11 419.88 293.22 420.24 295.9 421.19 299.15 422.57 299.38 422.69 298 385.42 255.5 397.38" style="fill:#eb519d"/><polygon points="298 385.42 298 281.9 220 348.26 298 385.42" style="fill:#f569a2"/><polygon points="271.43 127.94 271.32 127.8 271.47 127.26 271.4 126.74 271.08 125.75 270.94 124.31 270.81 123.97 270.66 123.89 270.45 123.85 270.26 123.78 270.18 123.62 270.14 123.48 269.27 122.53 269.14 122.19 269.27 121.66 268.93 120.8 268.71 120.43 268.39 120.1 267.6 119.61 267.47 119.46 267.15 118.91 266.76 118.44 265.57 117.71 265.39 117.56 265.23 117.35 265.09 117.11 265 116.85 264.93 116.5 264.87 115.79 264.74 115.36 264.24 115.12 263.14 114.67 262.67 114.32 262.35 113.8 262.21 113.65 262.04 113.59 261.86 113.56 261.69 113.33 261.63 112.99 261.78 112.24 261.75 111.59 261.51 111.28 261.1 111.34 260.69 111.65 260.41 111.99 260.22 111.9 260.24 111.53 260.38 111 260.4 110.6 260.26 110.47 259.83 110.48 259.62 110.33 259.47 110.15 259.36 109.92 259.16 109.32 259.05 108.87 258.78 108.31 258.67 108 258.62 107.68 258.69 107.36 258.55 107.46 258.38 107.54 258.2 107.57 258.02 107.55 257.86 107.42 257.75 107.1 257.61 107.03 257.29 107.18 257.04 107.47 256.77 107.67 256.43 107.55 256.48 107.34 256.63 106.91 256.66 106.78 256.61 106.54 256.49 106.36 256.37 106.31 256.31 106.42 256.24 106.9 256.06 107.16 255.81 107.28 254.96 107.43 252.28 106.92 252.15 106.78 252.1 106.52 251.99 106.51 251.8 106.69 251.25 106.69 250.92 106.54 250.76 106.51 250.62 106.6 250.51 106.73 250.37 106.82 250.22 106.86 250.06 106.87 249.85 106.73 249.61 106.46 249.36 106.36 249.1 106.69 248.66 106.54 247.1 106.76 246.51 106.42 246.31 106.2 245.55 105.66 244.96 105.58 244.73 105.42 244.65 104.97 244.36 105.07 244.15 104.85 243.93 104.57 243.62 104.45 243.47 104.58 243.31 105.04 243.13 105.14 242.93 105.2 242.8 105.36 242.74 105.61 242.71 106.28 242.65 106.53 242.25 107.3 242.22 107.39 240.42 107.2 240.29 107.26 240.16 107.57 239.99 107.76 239.96 107.82 239.91 107.88 239.8 107.91 239.72 107.85 239.64 107.59 239.58 107.55 239.27 107.7 238.68 108.14 238.39 108.23 237.78 108.21 237.66 108.23 237.53 108.41 237.49 108.59 237.47 108.81 237.42 109.09 236.94 110.22 236.87 110.58 236.8 110.6 236.53 111.28 236.53 111.34 236.38 111.76 236.27 111.91 236.07 112.04 236.16 112.36 236.13 112.45 235.97 112.55 236.06 112.89 235.96 113.09 235.81 113.25 235.29 115.1 235.18 115.33 235.09 115.56 235.06 115.9 235.1 116.19 235.16 116.47 235.16 116.77 235 117.1 234.99 117.25 235.11 117.6 235.12 117.71 234.97 117.82 234.85 117.84 234.75 117.84 234.67 117.88 234.47 118.1 234.37 118.27 234.34 118.53 234.33 119 234.1 119.97 234.1 120.27 234.22 120.51 234.62 120.86 234.77 121.14 234.59 121.25 234.14 121.37 233.4 122.12 233.31 122.32 232.94 122.05 232.64 122.45 232.19 123.7 232.05 123.97 231.91 124.12 231.25 124.59 231.12 124.74 231.04 124.98 230.94 125.43 230.88 125.37 230.72 125.43 230.65 126.29 230.43 126.96 230.01 127.24 229.37 127.12 228.47 126.79 227.48 126.81 227.24 126.62 227.32 126.22 227.35 126.09 227.1 126.2 227.01 126.28 226.81 125.84 226.66 125.89 226.51 126.13 226.32 126.28 226.08 126.15 225.62 125.56 225.48 125.43 225.28 125.35 224.57 124.82 223.73 123.7 223.63 123.5 223.59 123.31 223.53 123.15 223.39 123.01 223.26 122.97 222.82 123.01 221.37 122.53 220.89 122.18 220.11 121.3 219.96 121.2 219.76 121.13 219.65 120.99 219.78 120.43 219.71 120.18 219.55 120 219.38 119.93 218.23 119.84 217.17 119.55 215.68 118.86 215.05 118.39 214.26 117.22 213.69 116.85 213.33 116.44 212.79 115.64 212.5 114.74 212.39 114.61 212.25 114.53 211.86 114.14 211.59 113.69 211.17 113.53 210.8 113.54 208 127.94 271.43 127.94" style="fill:#fb9db3"/><polygon points="220 348.26 227.62 383.65 227.64 383.67 228.51 384.07 228.81 384.03 230.13 384.77 230.39 384.67 230.58 384.99 231.46 385.1 232.04 385.14 232.89 385.59 234.43 386.6 236.69 387.87 237.53 388.1 239.07 388.28 240.44 388.93 241.09 389 241.98 389.45 244.15 390.29 245.13 390.95 245.77 391.33 246.01 391.31 246.23 391.13 246.51 390.92 246.77 390.53 247.09 390.2 247.25 389.81 248.3 389.62 249.07 389.99 250.02 390.55 251.03 391.35 251.27 391.48 252.01 391.93 252.64 392.89 252.67 393.33 252.91 393.61 253.09 394.18 253.87 394.98 254.3 395.37 254.7 396.17 254.75 397.02 255.24 397.2 255.5 397.36 255.5 397.38 298 385.42 220 348.26" style="fill:#f665a1"/><polygon points="298 281.9 266 199.61 196 247.39 298 281.9" style="fill:#f983aa"/><polygon points="220 348.26 298 281.9 196 247.39 220 348.26" style="fill:#f97da8"/><polygon points="266 199.61 284.06 156.47 284.04 156.31 284.09 155.78 284.06 155.54 283.94 155.32 283.79 155.21 283.66 155.07 283.6 154.79 283.75 154.41 283.81 154.15 283.77 154.04 283.51 153.88 283.23 153.5 282.97 153.05 282.81 152.69 283 152.32 282.79 152.14 282.44 152.03 282.2 151.91 281.96 151.53 281.81 151.22 281.69 150.9 281.58 150.48 281.59 150.32 281.64 150.15 281.65 150.02 281.53 149.97 281.3 149.7 281.07 149.37 281.02 149.19 281.01 148.86 280.89 148.31 280.58 147.9 278.97 146.81 278.7 146.74 278.56 146.6 278.5 146.27 278.48 145.92 278.43 145.71 278.31 145.66 277.85 145.54 277.57 145.27 277.29 144.86 277.14 144.38 277.24 143.93 277.23 143.52 276.98 142.97 276.51 142.14 276.36 141.27 276.28 140.36 276.22 140.22 276.08 140.07 275.96 139.87 275.94 139.59 276.03 139.41 276.51 139.07 275.82 138.71 275.49 138.41 275.27 137.9 275.25 137.62 275.28 137.02 275.21 136.79 275.05 136.61 274.66 136.37 274.47 136.18 274.49 135.75 273.89 134.7 273.69 134.15 273.27 131.74 273.18 131.49 273.11 131.37 273.02 131.11 272.95 130.97 272.84 130.89 272.61 130.88 272.5 130.8 272.44 130.63 272.55 130.31 272.5 130.12 272.41 130.04 272.16 129.87 272.11 129.78 272.02 129.38 271.83 129.12 271.63 128.92 271.54 128.75 271.53 128.43 271.5 128.16 271.44 127.95 271.43 127.94 208 127.94 266 199.61" style="fill:#fa92ae"/><polygon points="266 199.61 208 127.94 196 247.39 266 199.61" style="fill:#fa94b0"/><polygon points="196 247.39 175.68 266.49 175.92 266.97 176 267.3 175.97 268.18 176 268.38 176.18 268.5 176.33 268.41 176.49 268.26 176.69 268.2 176.97 268.4 178.51 270.79 178.84 271.13 179.01 271.25 179.31 271.39 179.45 271.54 182.55 276.8 182.72 276.55 182.91 276.35 183.11 276.22 183.34 276.17 183.01 276.8 183.05 276.96 183.12 277.07 183.19 277.15 183.23 277.23 183.33 277.37 184.02 277.95 184.31 278.31 185.03 279.58 186.37 281.34 186.91 282.47 187.07 283.8 187.18 283.8 187.32 283.52 187.48 283.63 187.63 283.94 187.74 284.28 187.48 284.52 187.68 285.25 187.91 286.47 188.31 288.23 188.75 290.37 188.88 291.92 188.72 295.3 188.86 296.59 189.13 297.45 190.49 300.41 191.92 304.14 192.16 305.09 192.72 305.8 193.09 306.07 194.27 307.1 194.91 307.5 195.2 307.86 195.42 307.83 195.52 307.53 195.75 307.58 195.95 307.76 196.11 308.03 196.24 308.34 196.31 308.81 196.46 309.26 196.49 309.51 196.2 309.7 195.92 310.34 195.74 310.78 195.53 311.88 195.82 313.24 195.98 315.1 195.7 315.6 195.75 316.26 195.6 316.82 195.71 317.15 195.74 317.76 195.68 318.46 195.42 318.87 195.08 319.29 194.93 319.28 194.74 319.26 194.62 319.08 194.44 319.17 194.29 319.48 194.18 319.82 194.03 320.23 193.75 320.57 193.64 320.88 193.43 320.96 192.89 321.55 192.54 322.47 192.29 322.89 192.14 322.86 192.04 323 191.97 323.25 191.86 323.75 191.71 324.09 191.53 324.65 191.23 324.92 191.07 324.84 190.92 324.8 190.73 325.07 190.57 325.31 190.76 325.58 191.07 325.26 191.66 325.7 192.26 325.76 192.77 326.1 193.14 325.98 193.45 325.61 193.58 325.43 193.91 325.62 194.43 326.26 194.86 327.6 195.36 327.92 195.68 328.39 195.64 329.18 195.59 329.36 220 348.26 196 247.39" style="fill:#f98aad"/><polygon points="199.22 357.67 199.25 357.85 199.64 358.46 200.23 359.02 201.5 359.92 201.63 359.71 201.74 359.67 201.85 359.71 202.01 359.75 202.14 359.7 202.4 359.5 202.57 359.45 202.8 359.56 202.84 359.83 202.75 360.46 202.71 361.08 202.83 361.18 203.19 361.17 203.63 361.02 203.75 361.01 203.92 361.09 203.95 361.2 203.97 361.33 204.09 361.49 204.29 361.54 204.47 361.51 204.6 361.58 204.66 361.89 204.73 362.13 204.92 362.29 205.52 362.69 206.24 362.92 207.7 363.38 207.99 363.63 208.56 363.96 208.76 364.49 208.96 364.25 209.15 363.93 209.31 364.06 209.43 364.27 209.57 364.22 209.52 363.87 209.64 363.71 209.93 363.65 210.16 363.79 210.13 364.18 210.22 364.27 210.39 364.04 210.58 364.08 210.99 364.49 211.06 364.86 210.94 365.07 210.58 365.14 210.53 365.86 210.79 365.99 211.15 366.15 211.51 366.33 212.02 366.57 213.02 367.04 214.5 368.03 216.32 369.26 216.76 369.86 219.38 372.35 220.36 373.69 220.93 374.35 221.15 374.94 220.76 375.58 220.82 375.81 221.04 375.87 221.55 376.28 221.85 376.55 222.1 376.8 222.26 377.06 222.39 377.19 222.98 378.08 223.84 380.76 224.25 381.74 225.47 382.44 226.2 383 226.5 383.27 226.79 383.18 227.37 383.45 227.62 383.65 220 348.26 199.22 357.67" style="fill:#f776a6"/><polygon points="196 247.39 208 127.94 132 199.61 196 247.39" style="fill:#fba1b4"/><polygon points="210.8 113.54 210.72 113.55 210.42 113.75 210.25 113.41 208.91 112.28 208.79 112.21 208.68 112.12 208.61 111.9 208.55 111.67 208.5 111.51 208.27 111.21 207.49 110.48 207.25 110.14 207.19 109.89 207.18 109.64 207.15 109.28 207.04 108.92 206.75 108.19 206.61 107.13 206.39 106.75 206.1 106.44 205.79 105.98 205.73 105.77 205.5 104.6 205.19 104.09 205.12 103.83 205.07 103.72 204.86 103.37 204.79 103.23 204.76 102.98 204.8 102.59 204.79 102.37 204.49 100.98 204.44 100.38 204.49 99.88 204.72 98.97 204.79 98.39 204.82 97.48 204.77 96.91 204.54 96.52 204.22 95.62 204.07 95.41 203.78 95.22 203.66 95.1 203.46 94.6 203.25 93.91 203.01 93.29 202.7 93.03 202.61 92.92 202.58 92.67 202.56 92.38 202.53 92.16 202.43 91.99 202.21 91.82 202.09 91.64 201.95 91.36 201.92 91.23 201.94 91.06 201.96 90.69 201.93 90.44 201.76 90.1 201.73 89.82 201.75 89.65 201.84 89.36 201.85 89.21 201.79 89.08 201.51 88.86 201.47 88.61 201.44 88.08 201.4 87.82 201.21 87.38 200.72 86.61 200.62 86.33 200.5 86.24 199.98 86.14 199.82 86.08 199.71 85.85 199.67 85.58 199.65 85.29 199.6 85.03 199.4 84.65 199.07 84.31 198.72 84.08 198.41 83.99 198.1 83.81 197.34 82.59 197.22 82.78 197.01 82.46 196.94 82.39 196.89 82.43 196.86 82.16 196.78 82 196.66 81.93 196.49 81.91 196.32 81.83 196.16 81.46 196.04 81.38 195.94 81.35 195.76 81.26 195.7 81.29 195.59 81.48 195.52 81.54 195.44 81.55 195.26 81.44 195.16 81.31 195.08 81.16 194.98 81.03 194.03 80.41 193.55 80.24 193.34 80 192.7 78.91 191.36 77.54 190.8 76.64 190.38 76.36 190.22 76 190.01 75.1 189.81 74.61 189.56 74.34 189.27 74.13 188.94 73.79 188.54 73.17 188.42 73.06 188.14 72.92 186.89 71.84 186.73 71.51 186.62 71.05 185.35 69.07 185.05 68.75 184.77 68.62 184.77 68.53 184.58 68.34 184.26 68.1 184.16 67.87 184.04 67.43 183.93 67.21 183.72 66.96 183 66.29 182.73 66.16 182.32 66.1 182 65.94 181.44 65.48 180.76 65.21 180.37 64.99 180.21 64.67 179.63 64.24 179.53 64.07 179.5 63.94 179.48 63.79 179.41 63.54 179.25 63.15 178.56 62.05 178.37 61.6 177.94 59.84 177.63 58.98 177.18 58.08 176.63 57.35 176.02 57.02 175.29 57.11 174.97 57.01 174.83 56.82 174.75 56.72 174.57 56.63 174.29 56.63 208 127.94 210.8 113.54" style="fill:#fcafbd"/><polygon points="208 127.94 174.29 56.63 173.88 56.63 173.45 56.63 173.03 56.63 172.6 56.63 172.18 56.62 171.75 56.62 171.32 56.62 170.9 56.62 170.47 56.62 170.05 56.62 169.62 56.61 169.2 56.61 168.77 56.61 168.34 56.61 167.92 56.61 167.49 56.61 167.07 56.6 166.64 56.6 166.21 56.6 165.79 56.6 165.36 56.6 164.94 56.6 164.51 56.6 164.09 56.59 163.66 56.59 163.23 56.59 162.81 56.59 162.38 56.59 161.96 56.59 161.53 56.59 161.1 56.58 160.68 56.58 160.25 56.58 159.83 56.58 159.4 56.58 158.97 56.58 158.55 56.57 158.12 56.57 157.7 56.57 157.27 56.57 156.85 56.57 156.42 56.56 155.99 56.56 155.57 56.56 155.14 56.56 154.72 56.56 154.29 56.56 153.86 56.56 153.44 56.55 153.01 56.55 152.59 56.55 152.16 56.55 151.74 56.55 151.31 56.55 150.88 56.55 150.46 56.55 150.03 56.54 149.61 56.54 149.18 56.54 148.75 56.54 148.33 56.53 147.9 56.53 147.48 56.53 147.05 56.53 146.63 56.53 146.63 56.71 146.63 56.89 146.63 57.07 146.63 57.25 146.63 57.43 146.63 57.61 146.63 57.79 146.63 57.98 146.63 58.16 146.63 58.34 146.63 58.52 146.63 58.7 146.63 58.88 146.63 59.06 146.63 59.24 146.63 59.42 146.63 59.6 146.63 59.78 146.63 59.96 146.63 60.14 146.63 60.32 146.63 60.5 146.63 60.68 146.63 60.87 146.63 61.05 146.63 61.23 146.63 61.41 146.63 61.59 146.63 61.77 146.63 61.95 146.63 62.13 146.63 62.31 146.63 62.49 146.63 62.67 146.63 62.85 146.63 63.03 146.63 63.21 146.63 63.39 146.63 63.57 146.63 63.75 146.63 63.93 146.63 64.11 146.63 64.29 146.63 64.47 146.63 64.65 146.63 64.83 146.63 65.01 146.63 65.19 146.63 65.37 146.63 65.55 146.63 65.73 146.63 65.91 146.63 66.09 146.63 66.27 146.63 66.45 146.63 66.63 146.63 66.81 146.63 66.99 146.63 67.17 146.63 67.35 146.63 67.53 146.63 67.71 146.63 67.89 146.63 68.07 145.93 68.07 145.22 68.07 144.52 68.07 143.82 68.07 143.12 68.07 142.41 68.07 141.71 68.07 141.01 68.07 140.3 68.07 139.6 68.07 138.9 68.07 138.19 68.07 137.49 68.07 136.79 68.07 136.09 68.07 135.38 68.07 134.68 68.07 134.23 68.07 133.98 68.07 133.27 68.07 132.93 68.07 132.57 68.07 131.87 68.07 131.59 68.07 120 138.56 208 127.94" style="fill:#fbb5be"/><polygon points="195.59 329.36 195.53 329.62 195.33 329.92 195.15 330.22 194.81 330.4 194.58 330.82 194.13 331.25 193.61 331.27 192.47 331.43 192.19 331.65 191.96 331.74 190.8 331.72 190.06 331.85 188.29 333.34 188.04 333.74 188.18 334.25 188.42 335 188.75 335.92 189.19 336.23 189.52 336.86 189.77 337.49 189.92 337.68 190.21 337.92 190.34 338.13 190.43 338.52 190.56 340.05 190.56 341.07 190.59 341.33 190.75 341.77 190.79 342.03 190.88 342.46 191.85 344.36 192.27 345.38 192.48 345.78 192.96 346.34 193.14 346.63 193.26 347.06 193.75 347.75 194.63 349.74 195.41 350.96 196.41 352.14 196.73 352.44 197.04 352.86 197.18 352.88 197.39 352.8 197.61 352.82 198.09 353.39 198.12 354.68 198.2 354.82 198.31 354.97 198.41 355.15 198.46 355.39 198.38 355.82 198.38 356.02 198.89 356.3 199.06 356.78 199.22 357.67 220 348.26 195.59 329.36" style="fill:#f986ab"/><polygon points="131 194.02 131.12 193.63 131.14 193.16 131.01 192.69 130.81 192.52 130.59 192.44 130.92 194.1 131 194.02" style="fill:#fbadb9"/><polygon points="208 127.94 120 138.56 130.48 191.87 130.57 191.89 130.91 192.02 130.86 191.86 130.81 191.73 130.74 191.62 130.67 191.54 131.13 191.89 131.42 192.68 131.8 193.73 132.26 193.69 132.34 194.01 132.23 194.14 132.05 194.22 131.92 194.37 131.94 194.69 132.17 195.27 132.15 195.53 131.91 195.49 131.14 194.56 130.99 194.47 132 199.61 208 127.94" style="fill:#fbadb9"/><polygon points="132 199.61 133.65 209.16 133.88 208.93 134.68 208.59 135.08 208.35 135.34 208.02 135.58 207.25 135.82 206.77 136.18 205.79 136.37 205.5 136.54 205.86 136.45 206.37 135.8 207.15 135.64 207.62 135.68 208.4 135.63 208.56 135.56 208.56 135.47 208.63 135.41 208.69 135.37 208.85 135.4 208.95 135.43 209.04 135.41 209.18 135.25 209.51 134.37 210.69 134.24 210.73 134.18 210.83 134.16 210.94 134.19 211.23 134.18 211.34 134.07 211.63 134.27 212.81 134.5 212.78 134.63 212.83 134.74 213 134.69 213.13 134.58 213.2 134.5 213.17 134.67 213.52 134.87 213.69 135.09 213.67 135.36 213.41 135.48 213.26 135.56 213.13 135.6 212.96 135.64 212.68 135.63 212.4 135.56 212.24 135.47 212.09 135.41 211.84 135.42 211.42 135.53 211.35 135.74 211.44 136.03 211.5 136.12 211.48 136.27 211.37 136.37 211.34 136.46 211.39 136.5 211.5 136.52 211.62 136.54 211.69 137.11 212 137.27 211.97 137.41 211.88 137.51 211.91 137.55 212.26 137.54 213.39 137.5 213.73 137.34 214.49 137.47 214.42 137.66 214.21 137.73 214.16 137.87 214.22 137.9 214.36 137.89 214.55 137.96 214.74 138.16 215.15 138.01 215.32 137.34 215.33 137.56 215.76 137.98 215.71 138.86 215.33 139.35 215.49 139.99 216.22 140.39 216.47 139.18 216 138.5 215.93 138.12 216.31 138.7 216.3 139.4 216.42 140.06 216.67 141.05 217.53 142.75 218.46 143.01 218.66 143.27 218.94 143.5 219.31 143.65 219.79 143.65 220.17 143.57 221.23 143.6 221.45 143.81 221.05 144.22 218.46 144.36 218.64 144.75 218.88 144.89 219.13 144.94 219.44 144.95 220.14 145 220.46 144.82 220.35 144.44 220.01 144.32 219.97 144.31 220.13 144.38 220.87 144.68 221.07 145.13 221.17 145.56 221.13 145.78 220.96 146.01 221.09 146.18 220.97 146.35 220.81 146.58 220.78 146.67 220.93 147.03 221.78 147.32 222.21 147.5 222.39 147.71 222.44 147.91 222.38 148.04 222.28 148.06 222.14 147.93 221.94 148.2 221.98 148.41 222.13 150.11 224.19 150.14 224.45 150.09 224.72 149.95 224.91 149.4 224.59 148.7 224.48 148.43 224.3 148.1 223.83 147.97 223.59 147.91 223.51 147.85 223.56 147.71 223.74 147.66 223.85 147.49 224.27 147.48 224.41 147.64 224.56 147.83 224.49 147.99 224.49 148.05 224.82 148.06 225.33 148.02 225.51 147.88 225.58 147.79 225.54 147.48 225.25 147.43 225.28 147.34 225.36 147.25 225.42 147.15 225.4 147.1 225.28 146.92 224.59 145.9 223.01 145.78 222.62 145.5 222.38 145.13 222.27 144.77 222.27 144.86 222.55 145.02 222.72 145.34 222.93 145.92 223.59 146.31 224.27 147.6 227.77 148.12 228.7 148.72 229.21 148.8 229.15 148.84 228.97 148.89 228.86 149.01 228.96 149.09 229.07 149.16 229.15 149.23 229.2 149.34 229.21 149.44 229.1 149.49 228.84 149.53 228.01 149.63 227.24 149.63 226.93 149.61 226.79 149.56 226.66 149.36 225.37 149.36 224.92 149.57 224.99 150.22 225.73 150.41 226.07 150.17 226.7 150.09 227.01 150.07 227.39 150.17 228.24 150.15 228.62 149.95 228.88 150.15 229.07 150.37 229.42 150.56 229.85 150.63 230.28 150.51 230.8 150.25 230.78 149.98 230.53 149.86 230.36 149.57 230.12 149.41 230.05 149.23 230.02 149.17 230.09 149.2 230.26 149.27 230.44 149.34 230.51 149.53 230.65 149.71 231 149.85 231.43 149.95 231.84 150.02 232.72 150.09 233.09 150.25 233.41 151.67 235.11 152.9 236.13 153.35 236.28 153.14 235.91 152.44 235.37 152.16 235.06 151.65 234.32 151.4 234.07 151.28 233.9 151.21 233.64 151.6 233.74 151.99 234.01 152.35 234.38 152.67 234.81 152.92 234.61 153.12 234.69 153.8 235.63 153.91 235.71 154.15 235.83 154.25 235.96 154.31 236.13 154.33 236.45 154.36 236.6 154.46 236.8 154.79 237.16 154.91 237.24 155.03 237.27 155.16 237.22 155.49 236.94 155.81 237.24 156.05 237.69 156.35 237.97 156.84 237.76 157.01 237.58 157.45 236.99 157.52 236.78 157.39 236.62 156.95 236.85 156.72 236.78 156.87 236.5 157.09 236.32 157.35 236.24 157.63 236.28 157.91 236.45 158.08 236.71 158.69 238.59 158.76 238.92 158.75 239.38 158.64 239.62 158.47 239.8 158.3 240.08 158.36 240.09 158.47 240.08 158.53 240.08 158.51 240.17 158.45 240.32 158.43 240.39 157.89 239.85 157.58 239.67 157.52 239.9 157.76 240.11 158.25 240.51 158.43 240.72 158.15 240.53 157.97 240.38 157.71 240.22 155.43 238.25 155.26 238.19 153.96 237.23 153.92 237.19 153.93 236.92 153.91 236.8 153.86 236.69 153.75 236.55 153.62 236.43 153.51 236.43 153.46 236.69 153.58 237.12 153.87 237.52 157.68 240.66 158.71 241.93 159.32 242.53 159.97 242.91 160.16 243.18 160.22 243.75 160.41 244.01 161.47 244.98 163.83 247.13 164.7 248.26 164.91 248.43 165.22 248.59 166.03 249.41 168.23 252.62 168.71 253.77 168.91 254.8 169.18 255.27 169.48 255.7 169.69 256.13 169.85 257.25 170.02 257.73 170.73 258.05 171.02 258.35 171.5 259.06 171.87 259.8 172.11 260.2 172.54 260.49 172.67 260.77 172.85 261.35 172.93 261.51 173.01 261.62 173.68 262.43 173.98 262.71 174.26 262.83 174.47 263.09 175.07 264.7 175.09 264.72 175.16 264.84 175.2 264.97 175.23 265.12 175.03 265.3 175.06 265.46 175.33 265.76 175.68 266.49 196 247.39 132 199.61" style="fill:#fa9db4"/><polygon points="120 138.56 131.59 68.07 131.16 68.07 130.46 68.07 129.76 68.07 129.06 68.07 128.35 68.07 127.65 68.07 126.95 68.07 126.24 68.07 125.54 68.07 124.84 68.07 124.14 68.07 123.43 68.07 122.73 68.07 122.03 68.07 121.32 68.07 120.62 68.07 119.92 68.07 119.22 68.07 118.51 68.08 117.81 68.08 117.11 68.08 116.4 68.08 115.7 68.08 115 68.08 114.29 68.08 113.59 68.08 112.89 68.08 112.19 68.08 111.48 68.08 110.78 68.08 110.08 68.08 109.37 68.08 108.67 68.08 108.44 68.08 84 119.98 120 138.56" style="fill:#fcbec0"/><polygon points="38.22 35.45 38.44 34.86 38 35.04 38.22 35.45" style="fill:#fdc7c6"/><polygon points="51.75 59.8 51.8 59.47 52.05 59.68 52.12 60.68 52.42 61.08 52.64 61.05 52.86 60.97 53.32 60.72 53.47 61.18 53.91 61.49 54.65 62.01 55.14 62.03 55.42 62.4 56.14 62.84 57.03 63.72 57.44 64.54 57.42 65.32 57.69 66.68 57.86 67.42 57.71 67.62 57.4 67.56 57.3 67.7 57.64 68.12 58.25 68.18 58.69 68.37 58.85 68.88 59.95 69.12 60.74 69.38 63.3 70.03 63.91 70.28 64.11 70.18 63.97 70.01 63.74 69.9 63.53 69.72 63.34 69.33 63.58 69.27 63.84 69.11 64.05 69.08 64.23 69.78 64.45 70.09 64.64 70.69 65.32 71.21 65.6 71.44 65.89 71.58 65.96 71.39 65.77 71.25 65.52 71.08 65.49 70.83 65.96 70.88 66.38 71.27 66.74 72.04 67.08 72.43 67 73.28 67 74.42 66.97 75.65 66.62 76.5 66.52 76.7 66.41 76.61 66.17 75.79 66.03 75.27 65.97 74.98 65.86 74.72 65.73 74.77 65.73 75.14 66.24 76.96 66.28 77.81 66.24 78.8 66.06 80.42 65.76 81.2 66.01 82 66.57 84.81 67.21 86.38 68.11 88.32 69.28 89.77 70.01 90.95 70.25 91.66 70.39 92.65 70.41 93.71 70.38 94.49 70.3 94.68 70.43 94.92 70.57 94.97 70.7 94.98 71.03 95.25 71.25 95.55 71.51 95.97 71.76 96.44 71.94 97.09 71.95 97.72 84 119.98 108.44 68.08 107.97 68.08 107.27 68.08 106.56 68.08 105.86 68.08 105.15 68.08 104.45 68.08 103.75 68.08 103.05 68.08 102.34 68.08 101.64 68.08 100.69 68.08 99.69 67.91 99.24 67.69 98.4 67.26 97.55 66.84 96.7 66.42 95.85 65.99 95.01 65.57 94.16 65.14 93.31 64.72 92.47 64.3 85.73 61.06 79 57.81 72.26 54.56 65.53 51.3 58.79 48.04 52.06 44.78 45.32 41.51 40.14 38.98 51.75 60.44 51.75 59.8" style="fill:#fdc7c6"/><polygon points="134.06 211.65 134.03 211.8 133.99 211.81 133.83 211.69 133.74 211.22 133.62 210.99 133.44 211.09 133.32 211.11 132.76 210.83 132.55 210.93 132.44 211.17 132.36 211.46 132.26 211.69 132.16 211.78 131.8 212 132.62 213.24 133.14 213.72 133.61 213.67 133.4 213.3 133.45 213.04 133.68 212.88 134.27 212.81 134.07 211.63 134.06 211.65" style="fill:#fba7b8"/><polygon points="82.8 225.43 82.96 225.75 82.98 225.91 82.92 226.08 82.7 226.28 82.64 226.39 82.63 226.59 82.68 226.7 82.75 226.8 82.86 227.33 82.77 227.51 82.47 227.87 82.3 227.99 82.42 228.4 82.52 228.46 82.64 228.49 82.73 228.65 82.77 228.9 82.73 229.63 82.79 230.08 82.89 230.41 83.06 230.68 83.29 230.93 83.63 230.89 83.56 230.61 83.53 230.11 83.44 229.36 83.5 229.04 83.75 228.8 83.85 229.05 83.86 229.28 83.78 229.48 83.63 229.63 83.92 230.84 84.15 231.22 84.43 230.78 84.5 231.01 84.61 231.14 84.74 231.18 84.89 231.11 84.8 231 84.63 230.73 84.53 230.62 84.79 230.35 84.89 230.29 84.54 229.85 84.41 229.3 84.34 228.67 84.2 227.97 84.41 228.19 84.59 228.63 84.72 229.14 84.77 229.54 84.86 229.9 85.12 230.37 85.45 230.82 85.77 231.12 85.78 231.29 85.72 231.37 85.36 231.01 85.3 231.11 85.51 231.44 85.88 231.85 86.22 232.42 86.54 232.91 86.83 233.29 87.06 234.06 87.39 235.3 87.32 235.89 87.29 236.16 87.31 236.58 87.42 236.84 87.61 236.67 87.77 236.56 87.94 236.68 88.26 236.61 87.92 236.31 87.58 235.86 87.82 235.97 88.2 236.05 88.47 235.97 88.67 235.86 88.85 236.03 89.3 236.12 89.51 235.61 89.36 235.26 89.35 234.88 89.62 234.91 89.81 235.14 90.15 235.48 90.36 235.83 90.17 235.82 90.04 235.72 90.11 235.98 90.44 236.77 90.6 237.62 91 238.36 91.49 238.92 91.88 239.01 92.2 239.27 92.79 240 92.93 240.46 93.22 240.74 93.47 240.82 94.01 241.17 94.64 241.63 94.88 242.01 93.6 241.12 93.4 241.05 93.48 241.19 96.18 243.14 97.05 243.75 97.93 244.62 98.51 245.05 99.03 245.43 99.44 245.83 100.14 246.46 100.52 246.92 100.63 247.25 101.01 247.58 101.56 248.22 101.92 248.6 102.53 249.52 102.72 249.76 102.76 250.06 102.94 250.11 103.24 250.38 103.83 251.14 104.86 252.8 106.6 255.31 107.75 256.56 108.63 257.11 110.6 258.3 111.43 258.96 112.19 259.91 112.68 261.17 112.86 261.4 113.39 262.65 113.48 263.1 113.7 263.41 113.8 263.78 114.2 264.69 114.32 264.93 114.5 265.14 114.61 265.83 114.76 267.4 115.1 269.08 121.04 273.31 121.23 273.14 121.67 273.07 121.99 272.59 121.91 272.37 121.97 272.04 122.28 271.8 122.65 271.44 123.39 271.08 123.71 270.85 124.21 270.83 124.39 270.52 124.96 270.2 125.06 269.88 125.22 269.8 125.4 269.33 125.58 269.17 125.89 268.55 126.09 268.15 126.24 267.97 126.28 267.7 126.43 267.3 126.51 267.06 126.52 266.82 126.5 266.33 126.51 266.09 126.57 266 126.7 265.71 126.7 265.34 126.74 264.81 126.68 264.55 126.69 264.13 126.66 263.88 126.85 263.71 126.9 263.46 126.89 263.13 126.68 263.03 126.67 262.72 126.74 262.33 126.69 261.87 126.41 261.49 126 260.79 125.84 260.28 125.86 259.96 126.01 259.74 126.01 259.57 125.87 259.45 125.5 259.36 125.24 259.21 125.2 258.92 125.09 258.79 124.81 258.71 124.38 258.57 124.21 258.48 124.08 258.29 123.69 258.03 123.48 257.98 123.24 257.88 123.14 257.71 122.85 257.55 122.52 257.36 122.25 256.94 122.28 256.38 122.12 255.54 122 254.95 122.02 254.33 122.22 253.77 122 253.55 121.83 253.1 121.52 252.72 120.99 251.88 120.78 251.77 120.65 251.61 120.59 251.55 120.47 251.4 120.4 251.29 120.29 251.21 120.15 251.1 120.05 250.89 119.93 250.44 119.9 250.11 119.95 249.87 120.01 249.49 120 249.3 120.04 249.21 120.13 249.22 120.36 248.92 120.39 248.71 120.46 248.63 120.49 248.43 120.36 248.18 120.19 248.05 120.13 247.83 120.09 247.59 120.08 247.45 119.96 247.52 119.67 247.74 119.06 248.06 118.38 248.25 118.03 248.05 117.68 248.03 117.46 247.85 117.44 247.38 117.35 246.31 117.28 246.19 117.31 245.88 117.21 245.68 117.14 245.16 116.95 244.91 116.73 244.72 116.49 244.51 116.28 244.39 116.22 244.22 116.05 244.15 115.98 243.97 115.87 243.87 115.82 243.79 115.6 243.76 115.32 243.54 115.18 243.5 115.02 243.27 114.85 243.07 114.41 242.9 114.35 242.72 114.23 242.5 114.23 242.26 114.09 242 113.96 241.85 113.77 241.76 113.64 241.53 113.45 241.46 113.36 241.29 113.38 241 113.49 240.92 113.42 240.74 113.2 240.57 113.14 240.68 112.71 240.56 112.36 240.53 112.29 240.73 112.17 240.87 111.93 240.93 111.78 241.08 111.84 241.21 111.97 241.28 111.91 241.39 111.67 241.39 111.72 241.52 111.69 241.74 111.75 241.86 111.68 242.09 111.74 242.23 111.67 242.38 111.72 242.83 111.82 242.8 111.86 242.55 111.95 242.6 111.97 242.82 111.96 243 111.91 243.09 112.02 243.18 112.15 243.28 112.14 243.49 112.12 243.73 112.3 243.76 112.22 244.73 111.92 245.19 111.61 245.53 111.54 245.62 111.52 245.79 111.5 246.03 111.49 246.22 111.31 246.3 111.16 246.24 110.79 246.41 110.39 246.36 110.3 246.08 110.39 245.89 110.33 245.69 110.19 245.48 110.25 245.12 110.11 244.94 110.14 244.8 110.61 244.95 111.02 245.25 111.18 245.37 111.45 245.25 111.69 245.11 111.87 244.9 111.9 244.75 111.82 244.72 111.5 244.73 110.64 244.76 109.8 244.59 109.26 244.41 108.83 244.27 108.37 244.07 108 243.87 107.96 243.69 107.76 243.56 107.69 243.2 107.41 243.04 107.22 242.88 107.13 242.51 106.91 242.14 106.7 241.56 106.75 241.42 106.5 241.22 106.47 241.08 106.03 240.32 106.08 240.02 106 239.81 106.04 239.6 105.96 239.42 105.84 239.19 105.92 239.01 105.86 238.8 105.86 238.53 105.99 238.32 105.97 238.08 105.94 237.79 105.38 236.86 105.26 236.59 105.26 236.44 105.16 235.91 105.1 235.67 105.2 235.52 105.16 235.29 105.08 234.86 105.09 234.55 105.09 234.07 105.19 233.65 105.25 233.08 105.35 232.63 105.58 232.23 105.83 232.18 105.92 231.93 105.88 231.71 105.94 231.44 106.08 231.03 106.32 230.62 106.33 230.35 106.39 230.03 106.36 229.94 106.38 229.78 106.44 229.6 106.41 229.55 106.37 229.56 106.32 229.5 106.31 229.38 106.27 229.22 106.17 229.05 106.16 228.88 106.15 228.73 106.08 228.57 105.99 228.4 106.02 228.19 105.99 228.13 105.93 227.96 105.94 227.85 106 227.77 105.89 227.68 105.89 227.56 105.66 227.32 105.66 227.19 105.59 227.15 105.64 227.08 105.73 227.05 105.76 227.01 105.71 226.94 105.64 226.86 105.56 226.87 105.42 226.78 105.43 226.64 105.27 226.38 105.17 226.1 104.96 225.82 104.93 225.58 104.92 225.26 104.89 225.1 104.77 225.02 104.79 224.87 104.75 224.79 104.78 224.66 104.42 224.31 104.36 224.16 104.25 224.07 104.19 224.12 104.18 224.22 104.05 224.2 103.85 224.15 103.73 223.96 103.65 223.8 103.7 223.55 103.6 223.39 103.32 223.29 103.31 223.18 103.07 223.04 103.03 222.71 102.97 222.57 102.97 222.42 102.88 222.29 102.85 222.18 102.87 222.08 102.75 221.96 102.77 221.9 102.55 221.78 102.37 221.5 102.26 221.09 102.23 220.66 102.34 220.56 102.3 220.45 102.19 220.32 102.07 219.88 101.92 219.76 101.78 219.3 101.81 219.02 101.69 218.8 101.66 218.64 101.74 218.35 101.81 218.36 101.87 218.25 101.81 218.1 101.84 217.98 101.88 217.93 101.77 217.86 101.66 217.76 101.67 217.58 101.73 217.53 101.66 217.34 101.51 217.17 101.52 217.03 101.26 216.86 101.13 216.69 101.09 216.28 100.91 215.86 82.78 225.34 82.8 225.43" style="fill:#fba7b8"/><polygon points="126.57 202.45 126.62 202.69 126.76 203.06 126.81 203.28 126.83 203.62 126.82 204.1 126.79 204.13 126.71 204.34 126.52 205.28 126.46 205.77 126.55 206.19 126.89 206.36 127.02 206.6 127.07 207.15 127.04 207.76 126.96 208.2 127.13 208.56 127.19 208.38 127.21 206.97 127.3 206.67 127.49 206.54 127.79 206.51 128.06 206.62 128.41 206.87 128.73 207.17 128.87 207.44 128.88 207.52 128.93 207.56 128.97 207.63 128.99 207.78 128.96 207.9 128.81 208.08 128.76 208.2 128.75 208.61 128.76 209.02 128.29 208.81 127.8 208.8 127.34 208.98 126.96 209.34 127.56 209.56 129.38 209.51 129.97 209.76 130.39 210.36 130.75 211.03 131.13 211.5 131.2 211.03 130.92 210.51 129.8 209.23 129.66 209.02 129.57 208.76 129.52 208.48 129.59 208.37 130.01 208.79 130.53 209.12 130.74 209.18 130.89 209.28 131 209.52 131.13 210.02 131.33 210.59 131.55 210.86 131.84 210.84 132.26 210.51 132.69 210.69 133.02 210.34 133.55 209.26 133.65 209.16 132 199.61 126.57 202.45" style="fill:#fba7b8"/><polygon points="81.92 225.89 81.7 225.93 81.61 226.06 81.65 226.33 81.67 226.42 81.81 226.59 81.75 227.18 81.69 227.52 81.78 227.95 81.96 227.99 82.14 227.6 82.32 227.14 82.18 226.71 82.08 226.25 82.2 225.94 82.37 225.66 82.37 225.56 81.97 225.77 81.92 225.89" style="fill:#fba7b8"/><polygon points="115.48 270.98 115.5 271.63 115.63 272.36 115.77 272.51 115.91 273 115.96 273.23 116.27 273.94 116.54 274.39 116.8 274.76 117.26 275.27 117.61 275.57 117.82 275.66 118 275.8 118.33 275.8 118.97 275.75 118.85 275.58 118.87 275.39 119.15 275.21 119.57 275.2 119.7 275.14 119.94 274.91 120.15 274.67 120.45 274.29 120.49 273.81 121.04 273.31 115.1 269.08 115.48 270.98" style="fill:#fba3b6"/><polygon points="38.44 34.86 38.48 34.76 38.57 34.58 38.94 34.15 39.07 33.96 39.26 33.52 39.4 33.06 39.52 32.42 39.51 32.38 38.85 32.46 38 32.56 38 35.04 38.44 34.86" style="fill:#fdd2cf"/><polygon points="73 192.9 73.21 192.99 73.91 192.94 74.19 192.97 74.26 193.06 74.39 193.5 74.63 193.75 74.91 193.62 75.13 193.43 75.22 193.68 75.19 194.03 75.18 194.13 76.14 195.04 76.42 194.96 76.56 194.72 76.68 194.47 76.89 194.36 77.06 194.41 77.71 194.91 78.1 195.4 78.69 196.42 79.06 197.57 79.19 198.28 79.26 199.06 79.52 199.55 79.99 199.44 80.42 199.76 80.72 200.38 81.08 200.87 81.4 201.84 81.71 203.41 82.04 204.22 82.19 205.21 82.25 205.35 92.26 187.64 92.16 187.59 91.76 187.39 91.5 187.16 91.43 186.72 91.53 185.51 91.48 184.93 91.51 184.4 91.58 183.8 91.42 183.68 91.38 183.51 91.17 183.4 90.78 183.18 90.79 183.04 90.54 182.88 90.5 182.72 90.14 182.56 90.12 182.4 89.99 182.25 89.89 182.01 89.81 181.72 89.6 181.77 88.93 181.09 88.8 180.7 88.53 180.17 88.16 179.71 87.76 179.4 87.71 179.19 87.33 178.89 87.19 179.03 87.07 179.21 86.79 179.28 86.77 179.44 86.89 179.59 86.88 179.86 86.97 180.03 87.03 180.19 87.02 180.4 87.11 180.55 87.24 180.75 87.16 181.04 87.25 181.44 87.27 181.76 87.36 182.07 87.35 182.74 87.41 182.93 87.36 183.14 87.39 183.34 87.51 183.31 87.73 183.94 88.18 184.28 88.34 184.68 88.57 184.85 89.04 185.41 89.4 186.06 89.61 186.29 89.66 186.58 89.04 187.32 88.69 187.61 88.26 187.27 87.89 186.83 87.66 185.83 87.44 185.43 87.23 185.16 86.92 185.03 86.86 184.78 86.83 184.58 86.76 184.25 86.59 183.86 86.22 183.42 85.98 183.34 85.9 182.85 86.15 182.15 86.35 182.32 86.37 182.07 86.44 181.82 86.62 181.64 86.63 181.49 86.59 181.12 86.47 180.56 85.82 179.81 85.73 179.33 85.3 179.13 85.13 178.99 85.04 178.53 84.81 178.11 84.77 177.9 84.61 177.8 84.32 177.52 84.06 176.88 84.1 176.39 84.14 175.99 84.29 175.47 84.56 174.98 84.83 174.68 85.04 174.77 85.26 174.64 85.22 174.41 85.14 174.26 85.16 174.06 85 174 84.45 173.99 84.16 173.48 83.45 173.31 83.28 173.2 83.22 173.07 82.88 173.12 82.46 172.86 82.14 172.42 81.79 172.37 81.63 172.26 81.55 172.04 81.36 171.76 81.14 171.47 80.84 171.19 80.86 170.99 80.92 170.81 81 170.69 81.12 170.21 80.93 169.94 80.76 169.39 80.55 169.2 80.45 168.62 80.36 168.33 80.09 168.23 79.98 167.95 79.89 167.57 79.62 167.37 79.45 166.99 79.37 166.7 79.42 166.4 79.25 165.98 79.06 165.45 79.09 165.07 79.01 164.2 78.86 163.66 78.53 163.23 78.5 162.9 78.2 162.49 77.7 162.08 77.46 161.85 77.4 161.83 72.61 192.2 73 192.9" style="fill:#fcb8bd"/><polygon points="84 119.98 82.72 128.11 82.84 128.41 82.96 128.78 83.33 129.16 83.57 129.47 83.53 129.72 83.76 129.85 83.84 130.33 84.27 130.49 84.88 130.83 85.11 131.24 85.58 131.82 85.95 131.86 86.26 131.78 86.51 131.78 86.69 132.25 86.71 132.52 86.69 132.8 86.63 133.03 86.53 133.12 86.38 133.04 86.28 132.84 86.19 132.59 86.08 132.34 85.93 132.37 85.63 132.66 85.44 132.77 85.24 132.77 85.17 132.95 85.33 133.2 85.65 133.85 88.28 137.24 88.59 138.34 88.89 139.3 89.14 140.32 89.31 140.38 89.71 140.51 90.11 140.71 91.15 141.43 92.3 141.97 93 142.28 93.59 142.13 93.52 142.57 93.36 142.84 93.25 143.12 93.36 143.66 93.58 144.08 94.31 144.94 94.41 145.2 94.46 145.74 94.59 146.08 94.62 146.22 94.66 146.34 94.76 146.38 95 146.36 95.05 146.38 95.19 146.64 95.32 147.75 95.85 148.52 96.16 149.46 96.46 149.91 96.67 150.44 97.17 150.63 97.54 151.19 97.78 151.57 97.97 151.97 98.45 152.12 98.68 152.49 98.84 152.47 99.08 152.66 99.23 152.92 99.12 153.09 99.07 153.32 99.36 153.3 99.82 153.28 100.13 152.82 100.45 152.67 100.81 152.62 101.19 152.91 101.53 153.3 101.81 153.69 101.66 153.73 101.57 153.79 101.36 154.03 101.48 154.14 101.56 154.28 101.61 154.42 101.69 154.54 101.8 154.61 102.06 154.66 102.15 154.71 102.52 155.41 102.59 155.46 102.67 155.71 102.82 155.5 102.98 155.11 103.06 154.78 103.04 154.45 102.98 154.24 102.84 154.15 102.59 154.2 102.92 153.69 103.09 153.34 103.16 152.92 103.17 152.24 103.25 152 103.45 151.99 103.64 152.15 103.73 152.41 103.73 152.73 103.76 152.96 103.83 153.18 103.95 153.51 103.45 153.79 103.28 153.85 103.28 154.03 103.89 153.84 104.47 153.78 105.05 153.85 106.21 154.24 106.48 154.39 106.99 154.87 107.23 154.92 107.31 154.8 107.11 154.54 107.52 154.51 108.48 155.04 108.81 154.86 108.89 155.34 108.68 155.57 107.85 155.73 107.71 155.71 107.6 155.75 107.52 156.23 107.42 156.35 107.31 156.3 107.22 156.06 107.12 156.37 107.17 156.65 107.33 156.84 107.56 156.88 107.35 157.48 107.39 157.84 107.68 158.03 108.23 158.08 108.14 158.34 107.98 158.41 107.78 158.45 107.56 158.59 107.47 158.78 107.32 159.59 107.45 159.3 107.68 159.13 107.87 159.2 107.91 159.59 107.73 159.92 107.39 160.01 107.1 160.19 106.93 160.59 106.94 161.39 106.99 161.57 120 138.56 84 119.98" style="fill:#fcb8bd"/><polygon points="130.99 194.47 130.8 194.37 130.8 194.22 130.92 194.1 130.59 192.44 130.47 192.39 130.14 192.38 130 192.62 129.97 193.92 129.9 194.37 129.4 195.64 129.3 196.38 129.22 196.67 129.09 196.85 128.93 196.79 128.85 196.56 128.88 196.29 128.95 196.02 128.99 195.78 128.97 195.25 129.04 194.91 129.04 194.9 129.1 194.73 129.18 194.55 129.28 194.37 129.4 194.23 129.57 193.71 129.52 193.41 129.4 193.35 129.33 193.61 129.27 194 128.96 194.82 128.28 196.5 128.07 197.48 127.8 197.98 127.18 198.88 126.58 200.23 126.51 200.62 126.48 201.69 126.5 202.15 126.57 202.45 132 199.61 130.99 194.47" style="fill:#fbb1ba"/><polygon points="82.55 206 82.66 207.36 82.7 210.57 82.63 211.94 82.61 212.5 82.63 212.78 82.75 212.62 82.82 211.69 82.91 210.62 82.88 208.06 82.87 207.66 83 207.53 83.09 207.71 83.17 208.42 83.3 209.84 83.28 210.66 83.15 211.15 83.24 211.66 83.29 212.56 83.31 213.01 83.11 213.2 82.95 213.34 83.03 213.58 83.23 213.47 83.64 213.42 83.83 213.52 83.54 213.69 83.12 213.93 82.97 214.23 83.18 214.3 83.18 214.48 83.15 214.9 83.01 215.11 82.91 215.53 82.92 215.84 83.12 215.96 83.11 216.65 83.08 217.95 83.06 218.71 82.96 219.08 82.7 219.55 82.4 220.14 82.19 220.8 82.06 221.47 82.03 221.92 82.11 222.28 82.07 222.53 82 222.88 82.16 223.02 82.16 223.18 82.33 223.18 82.35 223.45 82.23 223.84 82.31 224.03 82.19 224.73 82 225.18 81.89 225.44 82.01 225.67 81.97 225.77 82.37 225.56 82.36 225.24 82.52 224.89 82.63 224.76 82.75 224.96 82.76 225.16 82.78 225.34 100.91 215.86 100.85 215.72 100.78 215.47 100.73 214.89 100.58 214.72 100.46 214.31 100.38 214.16 100.36 213.88 100.48 213.8 100.46 213.54 100.56 213.42 100.55 213.27 100.43 212.91 100.56 212.74 100.48 212.51 100.27 212.45 100.21 212.38 100.15 212.37 100.11 212.49 100 212.49 99.9 212.37 99.82 212.41 99.75 212.51 99.61 212.46 99.58 212.35 99.69 212.16 99.65 212.1 99.54 212.28 99.21 212.25 99.15 212.17 99.09 212.26 98.92 212.26 98.76 212.15 98.67 211.93 98.53 211.81 98.41 211.46 98.4 211.28 98.31 211.17 98.1 211.1 97.96 210.58 97.78 210.39 97.64 210.1 97.56 209.72 97.51 209.51 97.5 209.15 97.39 208.81 97.3 208.45 97.26 208.16 97.3 208 97.09 207.44 96.98 207.46 96.9 207.56 96.78 207.47 96.73 207.28 96.59 207.03 96.47 206.92 96.22 206.81 96.03 206.48 95.82 206.3 95.74 206.12 95.71 205.87 95.68 205.59 95.62 205.24 95.61 205.12 95.75 205.19 95.77 205.31 95.84 205.42 95.91 205.43 95.99 205.31 95.9 205.21 95.86 205.1 95.72 204.85 95.6 204.73 95.57 204.79 95.47 204.82 95.35 204.7 95.3 204.01 95.22 203.84 95.33 203.55 95.27 203.2 95.22 202.98 95.05 202.55 94.95 202.09 94.87 201.63 95.08 201.37 95.25 201.05 95.24 200.44 95.12 200.06 95.2 199.81 95.4 199.59 95.44 199.32 95.54 199.21 95.56 198.96 95.48 198.65 95.5 198.37 95.17 198.07 95.02 197.68 94.89 197.26 94.89 196.8 94.8 196.47 94.61 196.29 94.55 195.89 94.61 195.59 94.42 195.04 94.41 194.85 94.26 194.62 94.33 193.99 94.51 194.01 94.47 193.46 94.41 193.11 94.32 192.72 94.11 192.37 93.84 192.23 93.68 191.97 93.67 191.8 93.84 191.71 93.82 191.57 93.75 191.44 93.59 191.36 93.2 191.02 93.08 190.54 93.12 190.04 93.09 189.4 93.3 188.91 93.32 188.44 93.41 188.24 93.52 188.15 93.3 187.97 93.21 187.85 93.22 187.66 93.02 187.7 92.98 187.82 92.86 187.88 92.51 187.77 92.26 187.64 82.25 205.35 82.55 206" style="fill:#fbb1ba"/><polygon points="106.99 161.57 107.41 162.99 107.56 163.77 107.59 165.31 108.06 165.68 108.13 166.28 108.12 166.9 108.19 167.08 108.36 167.21 108.53 167.19 108.72 167.04 109.03 166.69 109.16 166.9 109.23 166.99 109.46 167.1 109.46 167.26 109.4 167.43 109.37 167.54 109.5 167.86 109.93 168.55 110.25 168.94 110.04 169.17 109.58 169.09 109.13 169.03 108.62 168.98 108.66 169.22 109.02 169.21 109.61 169.4 109.88 169.62 110.61 170.33 111.14 171.22 111.71 172.13 111.97 172.3 112.52 172.71 112.89 172.83 113.28 172.95 113.69 173.05 114.09 173.21 114.8 173.44 115.76 173.83 116.23 174.35 116.4 174.13 116.53 173.84 116.62 173.7 116.73 173.57 116.86 173.47 116.98 173.43 117.27 173.45 117.55 173.53 117.81 173.68 118.04 173.93 118.62 174.88 118.75 175.93 118.76 176.43 119.17 177.8 118.83 177.47 118.36 176.49 118.21 176.17 118.15 176.42 118.71 177.53 118.84 177.87 118.89 178.24 119.12 178.99 119.37 179.51 119.49 180.38 119.62 181.22 120.03 182.09 120.8 183.22 121.06 183.53 121.77 183.91 122.28 184.23 122.78 184.33 122.82 184.09 123.05 183.85 123.76 183.78 124.98 184.08 125.57 184.45 125.59 184.27 125.42 184.22 125.09 183.98 125.12 183.8 125.18 183.65 125.12 183.49 124.94 183.44 124.74 183.4 124.61 183.28 124.66 183.01 124.8 182.75 125 182.44 125.28 182.54 125.38 182.98 125.56 182.78 125.75 182.65 125.8 182.99 125.92 183.26 126.15 183.3 126.45 183.34 126.54 183.6 126.45 183.83 126.57 183.94 126.66 184.38 126.28 184.19 125.95 184.06 125.77 184.13 125.89 184.31 126.36 184.38 126.84 184.62 127.34 185.21 127.82 186.2 128.54 186.9 129.15 188.05 129.5 188.63 129.68 189.59 129.78 190.54 129.55 192.26 129.6 192.62 129.76 192.59 130.22 191.87 130.4 191.85 130.48 191.87 120 138.56 106.99 161.57" style="fill:#fbb1ba"/><polygon points="71.95 97.72 71.95 98.51 71.84 99.86 71.85 100.28 72.05 100.73 72.2 101.07 72.32 101.44 72.23 102.09 72.09 102.82 72.17 103.26 71.97 103.69 72.06 104.03 72.33 104.22 72.67 104.05 72.93 104.22 73.05 104.1 73.32 104.36 73.51 104.72 73.84 106.17 74.03 106.57 74.3 107.02 74.54 107.54 74.68 108.51 74.79 108.88 75.12 109.42 75.39 109.38 75.52 109.63 75.6 109.94 76.01 111.42 76.66 112.21 77.23 112.82 77.28 113.31 77.26 113.85 77.44 114.1 77.63 114.29 77.97 114.4 78.12 114.72 78.12 115.29 78 115.78 77.64 116.75 77.55 117.06 84 119.98 71.95 97.72" style="fill:#fdccc7"/><polygon points="70.17 94.98 70.27 95.14 70.41 94.92 70.43 94.92 70.3 94.68 70.17 94.98" style="fill:#fdccc7"/><polygon points="41.86 100.49 41.88 99.95 41.61 99.52 41.48 98.98 41.15 98.81 41.05 98.44 41.05 98.13 40.86 97.87 40.69 97.36 40.56 97.15 40.47 96.74 40.65 96.39 40.7 96.01 40.82 95.46 40.89 95.12 40.72 94.78 40.69 94.5 40.71 94.29 40.83 93.85 40.97 92.57 40.89 92.3 40.99 91.75 41.07 91.04 40.95 90.61 40.93 90.07 41.06 89.63 41.05 89.27 40.89 88.81 40.81 88.53 40.8 88.26 40.76 88.02 40.74 87.75 40.54 87.25 40.17 86.43 39.93 85.66 40.04 84.8 39.97 84.38 39.82 83.76 40.01 83.14 40.12 82.92 39.99 82.5 39.9 82.16 39.96 81.01 39.84 80.63 39.76 80.4 39.83 80.03 39.78 79.63 39.76 79.36 39.74 78.51 39.66 78.25 39.63 78.07 39.58 77.93 39.31 77.72 38.2 77.03 37.91 76.71 37.73 76.26 37.72 75.73 38.02 75.34 38.04 75.16 37.63 74.73 37.21 74.14 36.88 73.35 36.8 72.28 36.88 71.78 37.07 69.47 37.03 68.04 37.4 66.49 37.39 62.97 37.59 61.94 37.87 61.08 38.45 60.16 38.58 59.66 38.38 59.06 38.14 58.57 38 58.03 37.8 56.22 37.69 55.91 37.45 55.8 37.34 55.39 37.11 54.93 36.8 54.51 36.4 54.39 36.23 54.07 36.02 53.78 35.77 53.53 35.49 53.33 35.06 53.22 34.94 53.16 34.77 53.01 34.7 52.9 34.47 52.3 34.4 51.98 34.39 51.69 34.49 51.56 34.63 51.7 34.68 52 34.71 52.3 34.77 52.44 34.88 52.5 35.11 52.75 35.28 52.81 35.49 52.84 35.69 52.92 36.06 53.16 36.06 53.16 37.02 54.08 37.36 54.21 37.56 54.38 37.98 55.17 38.2 55.46 38.37 55.53 38.94 55.62 39.14 55.7 39.46 56.08 39.62 56.16 39.67 56.25 39.98 56.7 40.13 56.84 40.28 56.88 41.49 56.85 41.81 56.97 42.53 58.09 43.29 59.11 43.84 59.37 44.05 59.84 44.32 59.9 44.64 60.19 45.49 60.88 46.04 61.23 46.09 61.54 46.29 61.71 46.52 62.08 46.69 62.31 47.15 62.67 47.61 62.88 47.99 63.34 48.81 63.8 49.49 63.85 50.25 63.86 50.95 63.87 51.12 63.55 51.18 63.38 51.26 63.24 51.34 63 51.55 62.96 51.71 62.83 51.76 62.5 52.04 62.04 52.17 61.97 52.23 61.91 52.09 61.61 52.06 61.65 51.97 61.68 51.85 61.63 51.74 61.43 51.76 61.2 51.75 60.44 40.14 38.98 38.59 38.23 37.99 37.94 37.94 37.92 37.9 37.9 38.11 37.61 38.34 36.55 38.36 35.98 38.22 35.45 38.22 35.45 38 35.04 12.06 69.46 12.89 70.83 13.42 72.64 13.28 74.14 13.15 75.73 12.91 76.7 12.99 77.54 13.46 77.6 14.1 77.35 14.4 77.53 14.79 78.3 14.92 78.64 15.2 79.19 15.62 79.99 16.01 80.05 16.78 81.04 17.4 81.19 17.56 81.46 17.61 81.94 17.91 83.29 18 85.91 17.7 89.65 17.82 89.98 19.14 90.59 19.12 90.18 19 89.88 18.84 89.58 18.7 89.2 18.97 89.32 19.26 89.65 19.5 90.06 19.6 90.41 19.55 90.77 42.08 100.98 41.86 100.49" style="fill:#fdccc7"/><polygon points="38.17 161.08 38.56 161.53 38.77 162.23 38.82 162.36 39.05 162.76 39.1 162.9 39.34 163.54 39.65 163.53 40.22 163.88 41.03 164.34 41.61 164.63 41.87 165.28 42.16 165.33 42.58 165.69 42.72 165.86 43.09 166.37 43.34 167.44 43.46 168.39 43.42 169.44 43.41 170.51 43.6 171.01 43.8 170.89 44.11 171.09 44.35 171.22 44.34 171.49 44.38 171.74 44.27 172.02 44.49 172.27 44.92 171.86 45.66 172.28 46.16 172.78 46.59 173.27 46.65 172.75 46.92 172.7 47.53 172.59 47.99 172.86 48.43 172.92 49.01 173.32 49.55 173.76 50.04 174.49 50.38 175.1 50.61 175.91 51.34 176.9 51.53 177.04 51.69 176.93 51.86 176.83 51.84 176.51 52.09 176.4 52.91 176.54 53.42 176.75 53.88 177.14 54.45 177.6 54.86 178.31 55.47 179.76 55.75 180.54 55.8 180.91 55.95 181.25 56.93 182 57.4 183.07 58.05 183.46 58.44 183.57 58.75 183.25 58.95 183.22 58.96 182.66 59.22 182.38 59.35 182 59.59 181.41 60.13 181.14 60.51 181.14 60.98 181.1 61.29 181.18 61.9 181.37 62.53 181.81 63.18 182.48 63.43 182.41 63.52 182.23 63.54 181.88 63.56 181.59 63.53 181.39 63.54 181.19 63.54 180.97 63.64 180.64 63.86 180.34 64.06 180.53 64.52 179.94 64.65 179.2 64.72 177.69 64.93 177.16 65.19 176.97 65.49 177.08 65.72 177.45 65.81 177.87 65.83 179.13 65.72 179.39 65.63 179.83 65.48 180.1 65.25 180.28 65.09 180.58 64.9 180.89 64.77 181.03 64.52 181.25 64.39 181.43 64.07 181.45 63.97 181.57 64.07 181.72 64.1 182.06 64.2 182.34 64.33 182.61 64.5 182.75 64.71 182.63 64.73 182.44 64.66 182.22 64.84 182.16 65.08 182.1 65.14 181.8 65.19 181.51 65.42 181.37 65.64 181.27 65.78 181.29 65.92 181.39 65.82 181.51 65.57 181.69 65.53 181.98 65.53 182.28 65.63 182.54 65.8 182.95 65.98 183.27 66.18 183.47 66.44 183.94 66.62 184.3 66.84 184.75 66.95 184.91 66.96 185.17 66.89 185.44 66.92 185.85 66.89 186.16 67.16 186.49 67.59 187.01 67.82 187.36 68.1 187.52 68.42 187.5 68.51 187.52 68.56 187.6 68.59 187.71 68.6 187.82 68.61 187.87 68.65 188.13 69.48 188.74 70.14 189.47 70.68 190.16 71.09 190.59 71.41 190.9 71.92 191.33 72.35 191.74 72.61 192.2 77.4 161.83 76.83 161.66 76.66 161.45 76.46 161.26 76.36 161.11 76.15 161 75.85 160.89 75.65 160.7 75.39 160.6 75.01 160.58 74.5 160.26 74.47 159.96 74.12 159.68 74.08 159.45 73.93 159.28 73.86 159.04 73.75 158.88 73.67 158.88 73.52 158.93 73.43 158.77 73.31 158.7 73.17 158.43 72.94 158.09 72.76 157.78 72.68 157.48 72.73 157.23 72.57 157.07 72.56 156.66 72.61 156.51 72.5 156.19 72.5 156.02 72.42 155.99 72.4 156.11 72.19 155.94 72.12 155.75 71.86 155.53 71.62 155.09 71.69 154.68 71.72 154.43 71.8 154.35 71.78 154.17 71.81 154.01 71.8 153.71 71.73 153.26 71.88 152.64 71.89 152.51 71.81 152.11 71.83 151.78 71.69 151.67 71.41 151.66 71.19 151.29 71.09 150.93 71.11 150.59 71.22 150.29 71.35 150.06 71.32 149.79 71.2 149.71 71.15 149.6 70.98 148.74 71.05 147.99 71.11 147.7 71.19 147.56 71.25 147.17 71.28 147.01 71.4 146.87 71.31 146.74 71.17 146.68 71.09 146.51 70.55 145.69 70.53 145.47 70.3 145.28 70.11 144.99 69.99 144.7 70.04 144.3 69.95 144.1 70.02 143.53 70.29 142.59 70.36 142.25 70.28 141.87 70.21 141.72 70.33 141.39 70.44 141.26 70.4 141.06 70.41 140.79 70.22 140.79 70.15 140.95 70.06 141.01 69.86 140.95 69.83 140.89 69.93 140.69 69.92 140.56 69.75 140.42 69.77 140.24 69.49 139.94 69.03 140.16 68.36 140.41 67.86 140.43 67.29 140.16 67.23 139.92 66.84 139.83 66.56 139.66 66.53 139.5 66.19 139.22 66 138.63 66.05 138.19 65.97 137.7 65.89 137.37 65.72 136.73 65.79 136.15 65.78 136.1 49.78 150.25 49.79 150.36 50.02 150.32 50.28 150.36 50.48 150.69 50.66 150.78 50.81 150.8 50.77 151.04 50.52 151.54 50.31 151.83 50.15 151.5 49.88 151.13 49.64 150.97 49.43 151.16 49.4 151.32 49.49 151.45 49.67 151.39 49.85 151.82 49.92 152.32 49.88 152.77 49.68 153.51 49.29 152.69 49.28 152.42 49.15 152.01 48.95 151.61 48.97 151.39 49.02 151.19 49.2 150.95 49.5 150.66 49.52 150.48 47.89 151.93 47.69 152.21 47.58 152.51 47.26 152.9 47.12 153.11 46.98 153.47 46.92 153.79 46.88 154.17 47.02 154.52 47.2 154.39 47.35 154.17 47.49 153.9 47.8 153.72 47.99 153.76 48.17 153.64 48.29 153.5 48.43 153.43 48.49 153.25 48.51 153.06 48.66 152.94 48.77 152.98 48.9 153.09 48.89 153.29 48.82 153.45 48.89 153.62 48.98 153.74 49.13 153.82 49.2 153.9 49.17 154.05 49.07 154.13 48.94 154.23 48.97 154.31 49.05 154.33 49.2 154.37 49.27 154.47 49.22 154.76 49.03 155.09 48.77 155.56 48.69 155.82 48.58 156.01 48.55 156.27 48.58 156.58 48.59 156.95 48.77 157.29 48.9 157.52 49.03 157.76 49.08 158.09 49.11 158.38 49.26 158.56 49.37 158.78 49.5 158.91 49.71 158.95 49.92 158.84 50.11 158.66 50.24 158.52 50.4 158.52 50.51 158.62 50.58 158.64 50.59 158.48 50.62 158.34 50.74 158.34 50.79 158.17 50.73 157.89 50.62 157.66 50.48 157.54 50.49 157.27 50.36 156.9 50.29 156.68 50.33 156.58 50.45 156.64 50.6 156.86 50.69 157.07 50.82 157.46 51.01 157.91 51.08 157.95 51.18 157.93 51.38 157.89 51.53 157.91 51.64 157.74 51.71 157.72 51.83 157.84 51.86 158.03 51.94 158.09 52.1 158.13 52.35 158.29 52.41 158.44 52.59 158.48 52.77 158.66 52.84 158.88 52.78 159.21 52.56 159.44 52.48 159.66 52.37 159.88 52.25 160.13 52.2 160.23 51.95 160.25 51.52 160.15 51.23 159.99 51.09 159.84 51.08 159.64 50.93 159.56 50.73 159.64 50.66 159.52 50.63 159.35 50.52 159.27 50.33 159.33 50.2 159.37 50.11 159.48 50.14 159.62 50.25 159.64 50.36 159.56 50.39 159.64 50.44 159.72 50.48 159.88 50.6 159.78 50.71 159.93 50.65 160.29 50.49 160.58 50.21 160.88 50.2 161.05 50.07 161.25 49.88 161.41 49.73 161.56 49.69 161.35 49.73 161.09 49.58 161.09 49.45 160.96 49.46 160.72 49.35 160.54 49.19 160.19 48.94 159.88 48.52 159.64 48.21 159.33 47.75 159.21 47.48 158.99 47.12 158.48 46.78 158.25 46.41 157.54 46.29 157.17 46.36 156.93 46.47 156.62 46.56 156.23 46.65 155.84 46.58 155.37 46.54 155.17 46.52 154.99 46.43 154.88 46.22 154.82 46.07 154.82 45.92 154.94 45.75 155.11 45.42 155.41 45.15 155.77 44.94 155.97 44.77 156.23 44.3 156.66 43.8 156.95 43.22 157.31 42.7 156.97 42.03 157.11 37.8 160.86 38.17 161.08" style="fill:#fcbdbf"/><polygon points="75.09 130.14 75.31 130.42 75.75 130.74 76.18 131.04 76.21 131.29 76.65 131.38 76.66 131.72 76.85 131.85 77.17 131.81 77.33 131.94 77.55 131.86 77.77 132.05 78.05 132.51 78.3 132.56 78.43 132.9 78.66 132.73 78.97 132.79 79.25 133.2 79.58 132.78 79.82 132.65 80.01 132.78 80.17 132.63 80.04 132.35 79.86 132.26 79.8 131.73 79.88 131.27 80.08 130.93 80.16 130.44 80.43 129.96 80.33 129.63 80.58 129.27 80.8 128.02 80.83 127.2 81.12 126.34 80.47 124.48 79.94 123.57 76.1 126.97 76.11 127.11 76.28 127.35 76.34 127.58 76.26 127.89 76.18 128.1 76.11 128.36 76.04 128.57 75.94 128.66 75.68 129.15 75.19 129.57 74.75 129.98 74.91 130.16 75.09 130.14" style="fill:#fcbdbf"/><polygon points="81.08 122.56 81.19 122.7 81.14 122.94 81.42 123.36 81.61 123.86 81.63 124.13 81.48 124.41 81.31 124.77 81.28 125 81.49 125.11 81.53 125.69 81.75 126.72 81.79 126.96 81.84 127.19 81.69 127.36 81.53 127.55 81.6 127.7 81.86 127.8 82.21 127.77 82.44 127.83 82.6 127.94 82.71 128.1 82.72 128.11 84 119.98 81.08 122.56" style="fill:#fcbdbf"/><polygon points="37.57 161.06 37.46 161.15 37.52 161.21 37.57 161.06" style="fill:#fcbdbf"/><polygon points="18.04 90.63 18.31 91.87 18.44 92.7 18.85 92.7 18.66 91.96 18.57 91.4 18.41 91.11 18.27 91.01 18.27 90.8 18.35 90.56 18.47 90.41 18.69 90.64 18.8 90.86 18.98 90.8 19.14 90.6 19.14 90.59 17.82 89.98 18.04 90.63" style="fill:#fdc7c4"/><polygon points="49.55 150.23 49.45 149.6 49.22 149.65 48.88 150.18 48.37 151.16 48.02 151.73 47.95 151.84 47.89 151.93 49.52 150.48 49.55 150.23" style="fill:#fdc7c4"/><polygon points="77.55 117.06 77.43 117.47 77.57 118.25 77.86 118.55 78.47 118.9 78.72 119.35 78.86 119.46 78.92 119.16 78.88 118.96 78.9 118.84 79.02 118.7 79.17 118.61 80 118.62 80.4 118.99 80.65 119.86 80.86 120.55 80.83 121.18 80.6 122.16 80.9 122.35 81.08 122.56 84 119.98 77.55 117.06" style="fill:#fdc7c4"/><polygon points="65.71 135.81 65.32 135.41 65.09 134.56 64.99 134.02 64.89 133.96 64.69 133.26 64.75 132.87 64.73 132.54 64.59 132.37 64.66 132.06 64.55 131.9 64.4 131.79 64.36 131.43 64.26 131.24 64.03 130.97 63.6 130.86 63.47 131.06 63.19 131.22 63.1 131.39 62.91 131.64 62.78 131.81 62.41 131.85 62.05 131.86 62.09 131.4 61.87 131.27 61.78 130.94 61.84 130.74 61.84 130.4 61.86 130.15 61.97 130.02 61.82 129.92 61.75 129.71 61.62 129.54 61.65 129.36 61.83 129.32 61.84 129.19 61.4 129.04 61.45 128.66 61.52 128.6 61.58 128.48 61.5 128.38 61.21 128.54 61.2 128.69 61.09 128.81 60.83 128.5 60.87 128.14 60.73 127.87 60.64 128.09 60.48 128.31 60.28 128.21 60.1 128.18 60.01 128.22 59.94 128.39 59.98 128.53 59.85 128.61 59.93 128.83 60.11 128.99 60 129.32 60.03 129.41 59.96 129.53 59.58 129.63 59.25 129.58 59.23 129.34 59.1 129.21 58.99 128.86 58.89 128.54 58.7 128.16 58.74 127.99 58.88 127.9 58.92 127.48 58.84 127.04 58.64 126.87 58.61 126.52 58.64 126.28 58.73 126.17 58.83 125.91 59 125.88 59.06 125.59 58.88 125.24 58.6 124.58 58.49 124 58.35 123.71 58.16 123.65 57.98 123.35 57.87 123.02 57.87 122.79 57.78 122.81 57.61 122.81 57.6 122.63 57.54 122.49 57.48 122.53 57.33 122.28 57.38 121.91 57.25 121.82 57.1 121.69 57.08 121.41 57.23 121.17 57.38 120.86 57.63 120.55 57.6 120.41 57.49 120.27 57.41 119.82 57.21 119.52 56.68 118.97 55.2 116.67 54.93 116.49 54.77 116.45 54.66 116.25 54.5 116.16 54.31 116.11 54.18 115.98 54.19 115.61 54.08 115.44 53.89 115.39 53.65 115.27 53.4 114.93 53.12 114.72 52.9 114.34 52.7 114.05 52.57 113.85 52.36 113.73 52.22 113.38 52.12 113.35 51.99 113.18 51.85 112.93 51.74 112.65 51.52 112.42 51.34 112.43 51.18 112.4 51.06 112.31 51.05 112.24 50.97 112.17 50.93 112.02 50.89 111.98 50.67 111.94 50.6 111.71 50.5 111.54 50.45 111.43 50.4 111.11 50.08 110.82 49.94 110.78 49.83 110.64 49.6 110.51 49.58 110.44 49.48 110.26 49.34 110.08 49.26 110.06 49.25 109.92 49.1 109.77 49.08 109.57 48.95 109.48 48.92 109.52 48.83 109.57 48.79 109.53 48.71 109.33 48.63 109.27 48.54 109.21 48.48 109.14 48.44 109.09 48.41 109.01 48.35 108.97 48.29 108.83 48.2 108.78 48.13 108.64 48.08 108.33 48 108.21 47.8 108.17 47.79 108.1 47.68 108.08 47.55 107.86 47.42 107.75 47.25 107.77 47.19 107.81 47.15 107.69 47.09 107.7 47.05 107.59 46.97 107.52 46.92 107.57 46.84 107.56 46.81 107.52 46.77 107.57 46.73 107.68 46.61 107.66 46.59 107.79 46.62 107.9 46.72 107.91 46.69 108 46.67 108.12 46.54 108.27 46.42 108.29 46.12 108.3 45.84 108.21 45.74 108.03 45.74 107.86 45.61 107.62 45.45 107.52 45.32 107.57 45.15 107.46 44.97 107.25 44.91 106.92 44.91 106.69 44.87 106.57 44.69 106.43 44.7 106.28 44.79 106.14 44.91 106.13 44.8 105.99 44.6 105.44 44.7 104.78 44.57 104.52 44.39 104.11 43.87 104.04 43.65 103.82 43.51 103.11 42.65 102.59 42.47 101.99 42.24 101.33 42.08 100.98 19.55 90.77 19.55 90.78 19.38 91.08 18.92 91.64 19.62 91.66 20.19 92.01 20.72 92.46 21.19 93.03 21.38 93.75 21.69 94.6 21.83 95.71 21.85 96.84 21.75 97.66 21.74 97.96 21.77 98.17 21.93 98.51 21.96 98.66 22.08 99.44 21.96 100.82 21.62 102.58 21.68 102.88 22.42 102.94 22.72 103.1 22.98 103.41 23.11 103.78 23.45 104.35 23.54 105.07 23.6 105.51 23.69 106.05 23.65 106.77 23.53 107.39 23.49 107.93 24.73 109.45 25.2 109.53 25.55 110.12 25.95 110.5 26.15 110.96 26.43 111.16 26.77 111.56 27.11 111.18 27.53 111.34 28 111.95 28.86 112.93 30.27 113.61 31.15 114.61 31.89 116.15 33.26 116.39 35.43 117.42 36.21 118.59 36.95 119.68 37.42 120.41 37.78 121.08 38.51 122.02 39.05 122.05 39.19 122.19 39.25 122.49 39.33 123.08 39.45 123.34 39.55 123.94 39.83 124.47 40.09 124.05 40.57 124.3 41.04 124.51 41.17 124.86 41.26 125.3 41.42 125.72 41.51 126.11 41.49 126.93 41.69 127.74 41.97 127.39 42.19 127.36 42.27 127.61 42.4 128.08 42.49 128.51 42.71 128.73 42.82 128.74 42.94 128.63 43.17 128.56 43.58 128.64 43.87 129.1 44.19 129.5 44.23 129.93 44.53 129.91 44.81 130.36 44.73 130.87 44.98 131.69 45.32 131.53 45.47 131.98 45.48 132.41 45.7 132.76 45.72 133.13 45.72 133.59 46.26 133.7 46.52 134.26 46.9 134.45 46.96 134.74 47 134.97 46.94 135.02 46.96 135.38 47.38 135.52 47.55 135.35 48.01 135.31 48.4 135.3 48.55 135.41 48.7 135.67 48.84 136.2 48.88 136.82 48.83 137.28 48.79 137.68 48.99 137.82 49.33 137.77 49.61 137.79 49.84 138.04 50.01 138.31 50.06 138.53 50.16 138.74 50.3 138.88 50.29 139.23 50.25 139.65 50.37 139.84 50.59 139.97 50.73 140.36 50.62 141 50.43 141.7 50.09 143.23 49.79 144.12 49.61 144.64 49.48 145.06 49.37 145.39 49.5 145.51 49.62 145.74 49.8 145.82 49.96 145.62 50.14 145.62 50.28 145.8 50.36 146.19 50.41 146.47 50.48 146.62 50.28 146.93 50.13 147.36 49.94 147.86 49.69 148.39 49.61 148.63 49.57 148.75 49.69 148.97 49.76 149.28 49.77 149.97 49.78 150.25 65.78 136.1 65.71 135.81" style="fill:#fdc7c4"/><polygon points="79.85 123.43 79.92 123.06 79.83 122.74 79.92 122.49 79.94 122.26 80 122.05 79.97 121.93 79.78 121.64 79.71 121.24 79.94 120.92 79.99 120.7 79.77 120.81 79.61 121.05 79.41 121.3 79.14 121.37 78.69 121.35 78.37 121.43 78.09 121.74 77.73 122.14 77.39 122.14 77.12 121.82 76.89 122.03 76.69 122.33 76.54 122.66 76.44 123 76.24 123.93 76.11 124.98 76.05 126.07 76.1 126.97 79.94 123.57 79.85 123.43" style="fill:#fdc7c4"/><polygon points="37.63 160.9 37.76 160.83 37.8 160.86 42.03 157.11 42.02 157.11 41.48 157.3 40.92 157.17 40.41 156.97 40.04 156.97 39.76 156.87 39.6 156.75 39.52 156.5 39.25 156.5 38.85 156.41 38.49 156.29 37.95 156.45 37.6 156.37 37.48 156.05 37.13 155.91 36.88 155.92 36.23 155.77 35.52 156.01 34.74 155.92 34.59 155.57 34.29 155.27 34.05 155.18 33.59 155.41 34.04 156.06 34.1 156.12 34.16 156.46 34.21 156.78 34.4 157.19 34.42 157.67 34.6 158.14 34.79 158.44 34.94 158.74 35.16 158.47 35.4 158.54 35.78 158.74 35.97 159.12 36.09 159.72 36.42 159.89 36.62 160.02 36.66 159.67 36.74 159.45 36.84 159.26 37.07 159.26 37.25 159.39 37.38 159.59 37.48 159.84 37.53 160.13 37.46 160.6 37.31 160.64 37.08 160.39 37.02 160.52 37.24 160.84 37.35 161.06 37.46 161.15 37.57 161.06 37.63 160.9" style="fill:#fdc7c4"/><polygon points="38 32.56 37.64 32.61 36.43 32.75 35.22 32.89 34.01 33.04 33.59 33.09 38 35.04 38 32.56" style="fill:#fdd9d4"/><polygon points="33.59 33.09 32.8 33.18 31.59 33.33 30.38 33.47 29.16 33.62 27.95 33.76 26.75 33.9 25.53 34.05 24.32 34.19 23.11 34.34 21.91 34.48 20.69 34.63 19.48 34.77 18.27 34.91 17.06 35.06 15.85 35.2 14.64 35.35 13.43 35.49 12.22 35.63 11.01 35.78 9.8 35.92 8.59 36.07 7.38 36.21 6.17 36.35 4.96 36.5 3.75 36.64 2.54 36.79 2 36.85 2 44.01 2.61 44.2 2.91 44.44 3.15 44.78 3.33 45.16 3.62 46.22 3.92 47.41 4.06 49.03 4.11 49.92 4.27 50.48 4.66 51.16 5.29 51.36 5.85 51.39 6.04 51.71 6.07 52.5 6.09 53.14 6.42 53.3 6.69 53.36 7.08 53.64 7.38 54.19 7.71 54.32 8.32 54.48 8.45 54.86 8.48 55.38 8.43 55.93 8.32 56.69 8.14 57.17 7.92 57.65 7.63 57.93 7.34 57.83 6.85 57.39 6.17 57.18 6.32 57.54 6.74 58.24 7.16 58.32 7.4 58.46 7.51 58.6 7.74 59.09 7.85 59.58 7.72 60.26 7.62 60.67 7.59 61.06 7.91 61.62 7.53 61.6 7.31 61.67 7.37 61.66 7.31 61.96 7.4 62.31 7.78 62.68 7.87 62.93 8.49 63.62 8.61 63.88 8.65 64.07 8.71 64.22 8.88 64.39 9.1 64.5 9.43 64.88 9.65 65.01 9.79 65.18 10.05 65.63 10.15 65.72 10.33 66.04 11.04 67.79 12.06 69.46 38 35.04 33.59 33.09" style="fill:#fdd4cf"/><polygon points="1.33 36.93 0 37.08 0.02 37.28 0.01 37.57 0.03 38.15 0.06 38.63 0.11 39.08 0.29 39.52 0.6 40.36 0.85 41.28 1.65 43.67 1.9 43.98 2 44.01 2 36.85 1.33 36.93" style="fill:#fddcd8"/></svg>