<svg id="Layer_1" data-name="Layer 1" xmlns="http://www.w3.org/2000/svg" viewBox="0 0 500 500"><title>Mapa_Artboard 6</title><polygon points="479.9 110.05 481.8 110.42 483.22 109.71 484.08 107.94 484.91 105.29 485 102.9 483.73 101.93 482.83 102.12 481.06 102.77 478.41 103.22 477.07 104.12 476.44 105.55 476.83 107.47 478.05 108.94 479.9 110.05" style="fill:#cf6c9c"/><polygon points="374.85 279.24 375.45 277.87 376.91 274.99 377.53 273.14 370.7 277.76 374.85 279.24" style="fill:#d33c90"/><polygon points="369.94 288.86 370.67 289.05 371.64 290.63 372.08 292.73 372.57 294.34 373.7 293.73 374.92 292.08 375.68 290.57 376.18 287.02 376.34 284.65 376.63 282.65 376.13 281.77 375.44 280.95 374.82 279.31 374.85 279.24 370.7 277.76 369.94 288.86" style="fill:#d43692"/><polygon points="369.91 295.52 370.67 295.24 371 294.01 370.94 292.71 370.64 291.58 370.04 290.81 369.81 290.75 369.48 295.56 369.91 295.52" style="fill:#d43692"/><polygon points="377.53 273.14 378.89 269.05 378.78 265.63 380.72 260.16 381.51 253.86 381.72 251.46 384.41 246.11 385.57 244.29 385.18 242.45 384.66 240.81 384.38 239.22 383.15 238.24 382.24 239.77 377.5 244.96 375.59 246.47 374.07 246.21 373.71 245.75 370.7 277.76 377.53 273.14" style="fill:#dd4b96"/><polygon points="377.12 178.19 376.92 174.35 376.7 173.67 376.7 180.08 377.12 178.19" style="fill:#e0669f"/><polygon points="370.7 277.76 373.71 245.75 372.88 244.75 371.75 243.48 370.18 242.02 370.25 240.76 371.49 239.73 372.23 239.49 373 239.12 373.61 238.31 373.88 236.86 373.48 236.34 372.88 235.93 372.33 233.52 371.9 230.38 371.5 229.91 371 229.57 370.55 228.73 370.29 227.22 370.61 216.04 371 214.21 371.57 213.22 300.7 205.76 370.7 277.76" style="fill:#e9569d"/><polygon points="371.57 213.22 371.9 212.64 374.21 209.85 374.66 208.15 375.12 200.24 374.72 196.4 373.7 192.59 373.31 188.94 373.3 188.79 374.66 184.96 376.34 181.74 376.7 180.08 376.7 173.67 374.44 166.5 373.75 162.66 373.1 154.32 372.56 151.4 372.59 150.49 373.02 149.49 373.71 148.46 374.15 147.38 373.86 146.26 370.04 140.92 368.63 137.03 367.62 129.94 366.77 127.53 300.7 205.76 371.57 213.22" style="fill:#ea68a3"/><polygon points="300.7 205.76 366.77 127.53 366.47 126.69 362.87 122.72 362.36 121.28 362.08 119.78 361.53 118.67 282.7 133.76 300.7 205.76" style="fill:#f076a8"/><polygon points="276.7 285.76 351.32 327.21 351.37 327.04 351.27 325.98 350.68 325.09 350.75 323.81 351.64 323.7 352.45 323.34 353.22 323.38 354.27 323.21 355.12 323.25 356.27 323.27 356.78 322.26 357.49 320.76 358.82 319.16 360.01 316.64 360.85 314.93 360.82 314.41 360.4 313.17 360.91 312.42 361.35 311.55 361.48 309.86 361.86 308.55 363.61 308.62 365.68 306.56 367.13 305.69 368.66 305.18 368.76 303.94 368.26 303.44 367.64 302.56 368.27 301.44 368.97 300.31 368.66 298.56 368.57 296.85 368.46 296.2 369.05 295.6 369.48 295.56 369.81 290.75 369.02 290.57 369.64 288.78 369.94 288.86 370.7 277.76 276.7 285.76" style="fill:#e4449a"/><polygon points="361.53 118.67 361.38 118.37 359.34 115.8 355.95 109.12 354.97 108.11 353.81 107.41 352.83 105.76 350.65 98.66 349.89 97.08 347.25 95.61 346.79 93.65 346.77 91.34 346.57 89.41 342.7 84.85 342.34 84.56 282.7 133.76 361.53 118.67" style="fill:#ee7ca9"/><polygon points="263.5 359.13 263.79 359.28 264.63 362.95 265.37 364.7 266.59 364.54 267.97 363.9 269.15 364.42 270.24 365.07 271.39 364.86 271.69 363.94 271.06 362.1 271.66 361.76 272.08 361.3 272.14 360.22 271.94 358.35 272.16 357.17 263.5 359.13" style="fill:#dc3c96"/><polygon points="295.77 352.06 298.01 352.21 299.68 351.7 300.39 350.77 295.77 351.82 295.77 352.06" style="fill:#dc3c96"/><polygon points="261.1 360.43 261.46 359.59 260.7 359.76 261.1 360.43" style="fill:#dc3c96"/><polygon points="304.74 352.4 305.8 353.57 306.65 354.89 307.83 353.92 310.51 352.73 311.27 351.79 312.29 352.41 311.89 354.01 311.86 355.42 311.33 356.42 309.47 356.8 309 357.28 308.96 358.32 309.29 359.37 309.98 359.85 312.29 358.66 311.92 359.99 311.86 361.07 312.25 361.88 313.31 362.38 310.76 364.23 312.39 364.12 317.79 362.45 318.95 361.42 318.34 360.72 317.11 360.21 316.22 359.53 316.64 358.35 317.94 356.84 318.17 356.16 318.4 354.89 319.25 355.5 320.65 356.24 321.95 356.69 322.52 356.47 322.32 355.06 321.36 353 320.94 351.79 321.96 352.21 322.61 351.58 322.95 350.44 323.03 349.36 322.96 347.83 322.72 347.65 322 348.15 320.48 348.68 321.51 345.99 303.73 350.02 303.87 351.09 304.74 352.4" style="fill:#dc3c96"/><polygon points="370.7 277.76 300.7 205.76 276.7 285.76 370.7 277.76" style="fill:#ed569d"/><polygon points="331 70.35 318.85 52.94 317.83 50.16 315.15 46.84 314.31 45.36 309.18 31.69 306.04 25.48 264.7 75.76 331 70.35" style="fill:#f28db0"/><polygon points="282.7 133.76 342.34 84.56 341.88 84.18 336.1 77.77 331.28 70.74 331 70.35 264.7 75.76 282.7 133.76" style="fill:#f487ac"/><polygon points="272.16 357.17 272.57 356.2 272.79 355.29 272.41 354.26 271.9 354.07 269.38 353.65 267.65 354.02 265.82 354.74 264.38 354.99 263.48 353.39 262.18 352.95 260.7 359.76 261.46 359.59 261.59 359.29 262.57 358.62 263.5 359.13 272.16 357.17 272.16 357.17" style="fill:#e6479b"/><polygon points="321.66 345.59 321.96 344.51 321.98 343.31 321.65 342.43 321.19 341.58 320.85 340.51 320.81 339.98 321.3 336.6 321.27 335.72 320.94 334.96 319.63 334.44 318.48 335.36 318.06 337.02 318.95 338.69 313.73 341.67 312.75 341.55 312.83 343 313.18 344.55 313.97 345.91 315.35 346.82 315.35 347.38 313.97 347.29 312.97 346.8 311.99 346.16 310.76 345.64 310 345.62 307.21 346.2 306.24 346.62 305.1 347.36 304.12 348.32 303.64 349.36 303.73 350.02 321.51 345.99 321.66 345.59" style="fill:#e6479b"/><polygon points="265.33 338.39 265.71 338.15 267.73 338.19 268.65 337.56 267.29 334.34 269.08 334.18 270.26 332.96 271.22 331.33 272.39 329.93 272.3 331.05 271.97 331.92 271.59 332.59 271.37 333.09 271.25 334.18 271.37 340.92 271.25 341.53 271.06 342.22 271.02 342.93 271.37 343.66 271.99 344 273.74 344.15 274.81 344.4 275.65 344.25 275.99 344.34 276.07 344.69 276.09 346.02 276.25 346.51 277.61 347.27 281.08 347.12 282.65 347.38 282.62 346.04 282.77 344.64 283.18 343.54 283.93 343.09 285.62 343.27 286.45 343.8 288.02 345.92 289.75 345.81 290.98 343.44 292.2 342.23 293.89 345.64 292.18 346.3 291.41 346.79 291.56 347.53 292.63 349.02 293.6 349.4 298.23 349.93 297.86 350.54 297.24 350.65 295.81 350.67 295.77 351.82 300.39 350.77 301.56 349.25 302.6 347.38 301.59 346.2 301.36 347.1 300.84 347.82 300.19 348.04 299.5 347.38 300.06 343.66 300.16 341.77 300.13 341.09 300.06 340.61 299.56 339.83 298.88 339.44 298.54 339.01 299.04 338.12 300 338.52 301.46 338.59 302.92 338.35 303.87 337.81 304.47 336.6 304.32 335.56 303.87 334.38 303.62 332.78 302.35 332.87 294.91 336.82 294.91 336.2 295.71 335.38 295.85 334.13 296.24 332.98 299.17 332.18 301.72 330.89 303.11 330.61 302.24 329.39 302.19 328.75 302.87 328.42 305.34 327.95 306.47 328.02 310.49 329.44 311 329.85 311.71 330.61 311.96 331.19 312 331.8 312.23 332.28 313.02 332.47 314.53 332.47 315.19 332.29 315.84 331.85 315.31 331.71 314.39 331.31 313.8 331.23 314.15 330.02 313.97 329.17 312.73 327.49 312.09 326.4 311.78 325.55 311.25 323.14 310.31 321.16 310.33 320.18 311.25 318.72 312.11 317.94 312.55 318.19 313.29 320.59 313 321.27 313.62 323.1 313.29 324.39 314.79 323.79 315.81 324.62 316.73 325.95 317.92 326.88 317.96 325.47 318.5 324.63 319.14 324.37 319.45 324.7 319.45 328.69 320.59 327.8 321.49 327.9 322.3 329.43 324.03 330.21 324.78 329.85 325.46 327.32 325.96 328.21 326.24 329.89 331.15 329.81 333 330.02 333.52 327.83 334.17 326.39 334.67 326.46 334.6 328.21 334.67 330.06 335.7 329.98 337.98 325.96 338.65 324.97 339.01 325.29 338.9 326.61 338.33 328.95 338.08 330.8 338.68 332.85 339.18 333.47 339.91 333.01 340.67 332.5 340.99 332.64 341.24 333.26 341.81 333.26 341.63 331.4 341.56 330.54 342.45 331.51 342.81 332.4 343.41 331.98 343.7 330.2 344.59 328.53 346.54 326.43 347.15 327.18 347.97 327.86 349.32 329.04 350.99 328.25 351.32 327.21 276.7 285.76 265.33 338.39" style="fill:#e6479b"/><polygon points="268.93 346.04 268.55 345.03 267.36 345.35 266.68 346.23 266.03 347.47 265.01 348.79 264.5 350.19 265.16 351.49 266.27 352.17 267.35 352.3 269.19 351.7 272.57 352.59 273.36 352.39 272.95 351.77 272.64 351.53 272.2 350.92 271.78 349.42 271.61 348.32 271.24 348.12 270.86 347.75 270.64 347.12 269.92 347.24 269.05 348.63 268.61 349.62 268.22 349.35 268.15 348.51 268.41 347.51 268.93 346.04" style="fill:#e6479b"/><polygon points="306.04 25.48 302.6 18.65 300.82 14.08 300.13 11.06 297.92 6.68 264.7 75.76 306.04 25.48" style="fill:#f595b5"/><polygon points="297.92 6.68 296.65 4.17 296.65 4.17 294.43 -0.24 290.21 1.95 288.18 3.57 287.71 4.8 287.87 6.46 288.5 9.72 288.18 13.11 287.2 16.04 285.76 18.68 284.04 21.16 280.07 25.33 275.31 28.41 270.19 30.24 265.11 30.64 257.29 30.18 252.36 31.22 251.33 30.96 250.42 30.03 249.47 28.65 248.85 28.23 234.47 29.5 230.09 30.83 227.84 31.03 220.77 28.89 213.47 29.52 264.7 75.76 297.92 6.68" style="fill:#fc9fb7"/><polygon points="300.7 205.76 282.7 133.76 202.71 197.76 300.7 205.76" style="fill:#f77ba8"/><polygon points="276.7 285.76 300.7 205.76 202.71 197.76 276.7 285.76" style="fill:#f66ca3"/><polygon points="202.71 197.76 282.7 133.76 210.71 123.76 202.71 197.76" style="fill:#f98bad"/><polygon points="258.26 363.23 259.17 363.55 260.23 363.51 260.68 362.72 260.93 360.82 261.1 360.43 260.7 359.76 258.26 363.23" style="fill:#dc4595"/><polygon points="250.47 375.22 251.31 375.67 252.14 375.6 252.89 374.83 253.43 373.59 253.66 372.3 253.59 370.98 253.37 370.19 250.1 374.83 250.47 375.22" style="fill:#dc4595"/><polygon points="262.18 352.95 261.88 352.85 261.25 352.41 260.83 351.58 260.48 349.99 260.18 349.36 261.85 347.61 262.51 346.46 262.61 345.27 262.03 344.13 261.05 343.25 259.92 342.9 258.93 343.38 257.74 344.31 257.3 344.89 256.95 346.9 256.5 347.2 255.92 347.31 255.35 347.73 254.49 349.36 254.29 350.96 254.56 352.58 255.11 354.34 260.7 359.76 262.18 352.95" style="fill:#ee599e"/><polygon points="198.71 299.76 244.42 344 244.84 343.66 245.53 342.86 245.83 342.29 246.37 340.61 246.21 340.13 246.08 339.05 246.28 338.35 247.14 339.03 247.57 339.91 247.76 340.6 248.16 341.06 249.16 341.23 252.19 341.2 252.68 341.34 253.45 341.55 254.56 342.47 255.02 342.04 255.61 341.97 256.32 342.16 257.11 342.47 259.1 342.29 260.66 340.89 261.46 338.57 261.68 335.64 262.52 336.29 262.99 337.18 263.78 339.37 265.33 338.39 276.7 285.76 198.71 299.76" style="fill:#ee599e"/><polygon points="198.71 299.76 276.7 285.76 202.71 197.76 198.71 299.76" style="fill:#f66da3"/><polygon points="282.7 133.76 264.7 75.76 210.71 123.76 282.7 133.76" style="fill:#f98ead"/><polygon points="264.7 75.76 213.47 29.52 211.58 29.69 209.2 29.44 204.39 29.96 199.4 31.99 194.64 34.97 190.56 38.34 190.12 38.9 189.2 40.08 188.77 41.15 194.71 79.76 264.7 75.76" style="fill:#fca4b6"/><polygon points="188.71 355.76 220.53 357.53 221.21 357.14 224.38 356.13 224.38 355.56 222.8 355.09 220.87 354.25 219.89 353.44 221.1 353.08 224.33 353.16 225.81 352.98 228.35 352.08 228.73 352.03 228.99 351.86 229.48 351.17 230.75 347.93 231.01 347.73 231.17 347.35 231.52 347.46 231.86 347.86 232.03 348.37 231.95 348.84 231.63 349.73 231.56 350.26 231.75 351.15 232.88 353.53 232.66 353.88 232.54 354.42 232.57 354.89 232.94 355.28 233.37 355.35 233.79 355.36 234.1 355.56 235.29 358.12 235.45 358.36 248.98 359.11 249.42 356.8 250.16 354.23 250.4 352.96 250.49 351.17 249.09 351.92 247.81 351.84 246.44 351.57 244.84 351.79 242.53 353.96 241.6 354.54 240.82 354.17 239.98 353.08 238.8 352.32 237.48 350.51 236.32 348.43 235.63 346.82 235.55 345.3 235.95 343.48 236.76 342.31 237.93 342.78 239.33 345.65 240.46 346.62 242.02 345.92 244.42 344 198.71 299.76 188.71 355.76" style="fill:#ec5da0"/><polygon points="255.11 354.34 256.62 359.28 256.66 359.53 260.7 359.76 255.11 354.34" style="fill:#ec5da0"/><polygon points="264.7 75.76 194.71 79.76 210.71 123.76 264.7 75.76" style="fill:#fb9ab1"/><polygon points="256.66 359.53 256.79 360.43 256.8 361.23 256.91 361.9 257.37 362.72 258.05 363.16 258.26 363.23 260.7 359.76 256.66 359.53" style="fill:#e2549a"/><polygon points="197.31 370.43 197.31 370.42 200.04 368.83 200.64 368.32 201.99 366.54 202.81 365.78 203.69 365.47 205.56 365.86 206.47 365.91 207.54 365.47 208.59 364.2 210.09 360.32 211.15 358.66 212.99 361.63 214.33 362.76 215.96 362.07 217.37 360.97 217.9 361.7 218.3 363.31 219.34 364.86 218.76 365.81 217.74 368 217.25 368.63 216.1 369.06 215.24 368.78 214.6 367.95 214.16 366.77 214.55 365.9 214.42 365.2 213.91 364.64 213.14 364.23 210.99 366.61 210.59 367.33 210.66 368.7 211.1 369.41 211.67 370 212.11 371.05 212.14 373.73 211.04 375.24 209.22 375.9 207.03 376.05 208.13 373.4 208.49 371.94 208.56 370.42 207.47 370.95 206.94 371.63 206.01 373.58 204.51 375.57 203.97 376.05 202.32 377.03 201.84 377.81 201.87 378.22 203.41 380.85 203.63 380.96 204.8 381.19 206.01 381.61 205.8 381.25 205.5 380.32 208.46 378.77 209.31 378.58 212.11 381.61 213.16 383.77 216.21 387.8 218.27 387.79 217.32 386.75 217.09 385.18 219.24 383.54 220.61 384.17 221.86 382.38 225.4 379.14 223.85 377.81 221.02 378.55 220.38 378.13 219.34 377.91 218.45 376.03 218.27 375.74 218.7 375.05 219.72 374.32 220.92 373.76 221.89 373.58 222.98 373.93 226.37 376.05 227.29 375.82 228.75 375.89 229.52 375.23 230.2 374.55 229.99 372.66 229.58 371.66 226.37 370.42 226.93 370.3 228.24 370.31 229 370.42 227.41 368.13 225.08 366.63 222.93 364.7 221.89 361.09 222.09 360.84 222.49 360.74 222.65 360.42 222.12 359.56 221.38 359.24 219.98 359.8 219.34 359.28 219.61 358.05 220.53 357.53 188.71 355.76 197.31 370.43" style="fill:#e2549a"/><polygon points="252.42 367.38 251.74 366.3 250.97 366.1 251.87 365.26 252.25 364.26 252.05 363.41 251.25 363.05 250.32 363.16 249.51 363.54 249.38 364.27 250.5 365.47 249.94 367.77 249.69 368.32 248.3 369.38 247.97 369.81 247.52 371.48 247.83 372.52 250.1 374.83 253.37 370.19 252.96 368.7 252.42 367.38" style="fill:#e2549a"/><polygon points="209.7 389.13 210.69 387.75 210.93 386.07 210.12 384.6 209.09 384.11 207.88 384.01 205.55 384.29 205.44 384.31 208.54 389.6 209.7 389.13" style="fill:#e2549a"/><polygon points="235.89 358.97 236.23 360.5 235.53 362.29 234.56 364.18 234.1 366.1 234.47 368.13 235.32 369.47 236.65 370.2 238.44 370.42 239.66 371.71 240.43 372.13 240.76 371.38 240.22 367.33 239.78 366.06 239.2 364.86 239.57 364.76 239.67 364.6 239.78 364.57 240.22 364.86 241.59 361.86 243.25 362.22 245.32 363.26 247.94 362.38 248.56 361.33 248.98 359.11 235.45 358.36 235.89 358.97" style="fill:#e2549a"/><polygon points="180.98 489.21 180.41 489.76 180.76 489.72 180.98 489.21" style="fill:#ba5494"/><polygon points="176.49 267.67 176.39 267.91 175.6 266.54 174.41 266.24 172.75 264.95 170.13 264.63 167.46 264.9 167.01 265.29 166.16 265.83 165.01 266.51 164.7 269.25 162.61 272.17 159.87 273.68 157.63 274.99 156.22 276.61 154.69 278.12 152.95 278.99 152.89 279.97 152.66 282.44 156.35 284.74 166.93 283.01 168.06 283.66 168.75 285.21 169.72 288.64 168.72 288.3 167.35 286.61 166.02 285.12 164.54 285.5 163.49 287.02 162.39 287.89 160.02 288.02 157.25 288.59 154.82 289.46 154.72 289.61 198.71 299.76 176.49 267.67" style="fill:#f77ea9"/><polygon points="156.96 248.56 157.28 251.34 160.57 250.83 162.79 251.59 163.48 252.19 163.71 254.37 163.74 255.96 167.3 256.24 168.64 256.33 162.82 247.93 156.96 248.56" style="fill:#f77ea9"/><polygon points="170.53 259.8 170.33 260.59 171.02 260.95 172.34 261.93 172.68 262.16 170.79 259.44 170.53 259.8" style="fill:#f77ea9"/><polygon points="202.71 197.76 157.32 216.54 157.53 216.65 160.7 217.62 161.53 218.64 160.43 219.36 159.54 221.26 157.97 225.57 158.43 226.23 158.99 226.84 159.41 227.07 160.01 226.72 160.51 226.84 161.34 227.45 161.96 228.17 163.07 229.99 159.94 229.09 157.7 229.8 155.17 231.08 154.88 233.78 155.38 234.25 155.63 233.65 156.09 231.91 157.54 231.68 159.23 232.76 159.26 233.78 159.73 233.78 160.72 233.21 162.04 233.78 163.74 236.72 164.68 237.03 165.69 237.46 166.18 238.03 165.14 238.88 165.82 240 167.07 241.65 167.69 242.66 168.08 243.81 168.2 244.66 168.58 245.3 169.72 245.85 171.28 245.16 172.94 244.88 174.34 244.21 175.6 243 177.1 241.96 178.64 241.49 183.01 240.13 182.88 241.47 181.4 242.52 177.91 243.92 175.16 246 173.6 246.81 172.32 246.43 171.11 247.16 167.4 247.38 163.72 247.83 162.82 247.93 168.64 256.33 170.91 256.48 172.75 256.39 178.23 254.17 178.47 253.98 179.35 254.31 180.14 255 180.53 255.67 180.2 255.97 179.18 256.15 178.82 256.62 178.65 257.3 178.2 258.12 177.52 258.48 176.61 258.55 172.45 258.28 171.77 258.44 171.15 258.95 170.79 259.44 172.68 262.16 173.96 263.04 175.38 263.75 176.07 264.25 177.07 265.04 176.96 266.12 176.7 267.16 176.49 267.67 198.71 299.76 202.71 197.76" style="fill:#f980a9"/><polygon points="210.71 123.76 165.25 115.02 164.72 115.83 163.95 117.54 165.83 118.98 167.65 116.65 171.56 117.15 171.77 117.79 170.79 118.78 169.35 120.89 169.52 121.97 172.76 124.44 175.1 125.18 176.51 125.46 177.41 125.51 178.3 125.23 179.42 125.43 179.89 126.14 180.93 126.11 181.62 126.31 182.2 126.69 182.66 127.26 183.01 128.03 181.36 128.27 180.2 127.56 179.17 127.42 177.91 129.3 177.54 131.31 177.18 132.19 176.39 132.5 175.68 132.14 175.32 131.36 175.23 130.34 175.32 129.3 174.17 129.86 173.2 129.55 172.21 128.93 171.02 128.61 169.57 128.98 168.75 129.03 168.2 128.61 167.73 129.06 167.52 129.2 167.18 129.3 167.78 130.47 168.28 131.72 168.8 132.73 169.46 133.14 171.46 132.86 171.7 133.18 170.79 134.42 170.04 134.84 169.79 134.93 172.49 140.08 174.7 137.69 176.14 136.66 177.91 135.75 177.91 136.9 178.29 137.63 179 138.05 179.96 138.25 181.51 136.91 182.55 136.34 183.01 136.68 182.89 138.41 182.47 139.04 180.46 139.58 178.57 139.61 177.3 140.1 176.12 140.67 175.09 142.09 174.3 143.53 177.39 149.42 177.83 149.56 179.27 149.19 180.7 148.89 181.4 149.6 182.11 149.22 182.46 147.59 182.59 146.09 182.99 144.6 183.64 143.74 184.48 144.12 183.94 146.59 184.68 148.4 185.7 149.99 186.01 151.77 185.37 151.26 184.64 151.01 183.84 150.97 183.01 151.08 183.71 151.62 184.02 151.77 184.02 152.35 179.56 152.84 180.56 155.33 183.21 157.94 186.14 159.65 188.61 160 190.34 159.43 190.88 158.77 190.65 155.89 191.32 154.93 195.78 153.68 195.59 154.76 195.1 155.09 194.44 155.19 193.4 155.77 193.01 155.75 192.61 155.8 192.21 156.18 192.35 156.37 193.04 157.1 193.18 157.5 192.68 159.77 191.87 160.68 190.75 161.21 188.36 163.03 185.19 164.31 202.71 197.76 210.71 123.76" style="fill:#fa98b2"/><polygon points="169.46 400.79 170.86 401.29 171.99 401.55 172.64 401.85 173 401.64 173.07 401.11 173.39 401.05 173.96 401.42 174.63 401.71 174.99 401.81 175.36 401.87 175.61 401.62 175.19 400.62 175.05 400.06 173.68 398.71 173.45 397.94 173.04 397.38 172.81 396.72 172.6 395.29 171.91 393.55 171.02 392.5 170.22 391.96 169.37 391.68 168.06 391.81 167.63 391.91 166.82 392.29 166.24 393.16 165.94 394.3 165.88 395.44 165.95 396.56 166.17 397.54 166.69 398.2 167.56 398.78 168.53 399.04 169.31 398.84 169.96 399.01 170.14 399.68 169.44 400.21 169.46 400.79" style="fill:#de5f9c"/><polygon points="156.33 396.49 156.73 396.57 157.41 397.16 157.55 398.18 156.85 400.35 156.95 401.42 157.81 401.59 161.25 400.46 163.07 400.85 163.07 399.81 163.22 398.93 165.03 392.83 165.33 392.25 166.16 391.55 168.37 390.99 168.95 390.59 169.34 389.7 169.35 389.03 169.55 388.61 170.53 388.46 170.9 388.56 171.59 388.98 172.04 389.07 172.28 388.88 172.37 388.43 172.3 387.99 172.04 387.79 170.93 387.35 172.01 386.36 174.86 384.7 173.2 382.58 172.9 381.47 175.2 380.7 175.17 379.94 174.7 378.85 174.4 377.6 174.65 376.73 175.27 375.75 176.08 374.99 176.89 374.75 177.74 375.39 178.23 376.61 178.32 378.01 177.91 379.14 178.2 380.91 177.89 385.5 178.47 387.23 179.12 387.63 181.99 388.46 184.08 389.95 185.04 390.26 184.62 389.2 184.59 388.23 184.9 387.35 185.55 386.55 187.53 387.55 188.23 386.93 188.1 383.19 192.21 379.14 191.66 377.96 192 376.99 192.69 376.18 193.18 375.44 193.32 374.38 193.29 373.38 193.41 372.63 193.98 372.34 194.89 372.1 195.84 371.55 197.31 370.43 188.71 355.76 156.33 396.49" style="fill:#de5f9c"/><polygon points="205.44 384.31 203.11 384.74 201.92 385.23 200.89 385.99 201.59 386.46 201.88 386.87 201.81 387.29 201.4 387.79 201.4 388.46 203.19 389.66 204.06 390.09 205.25 390.26 208.32 389.69 208.54 389.6 205.44 384.31" style="fill:#de5f9c"/><polygon points="201.94 379.14 202.63 380.44 203.41 380.85 201.87 378.22 201.94 379.14" style="fill:#de5f9c"/><polygon points="185.75 482.08 187.1 480.52 187.23 480.26 187.86 479.42 188.12 478.94 188.12 478.46 187.64 477.63 187.61 477.12 188.12 476.5 188.85 476.29 189.19 475.89 188.63 474.73 188.43 475.1 187.95 475.49 187.61 475.9 186.89 474.85 186.15 472.18 185.06 471.06 181.46 469.63 180.36 468.78 179.48 467.45 177.17 467.06 173.67 467.35 168.09 468.25 185.21 482.51 185.75 482.08" style="fill:#d25997"/><polygon points="181.26 51.33 174.9 61.08 171.93 63.45 170.01 64.18 168.63 64.33 168.56 64.38 194.71 79.76 188.77 41.15 188.19 42.59 186.67 46.34 185.44 47.77 182.57 50 181.26 51.33" style="fill:#fcb2bc"/><polygon points="194.71 79.76 162.66 110.02 162.69 110.2 162.52 111.91 163.75 112.56 165.08 113.29 165.7 114.34 165.25 115.02 210.71 123.76 194.71 79.76" style="fill:#faa1b4"/><polygon points="169 135.19 168.09 135.73 167.69 136.68 167.93 137.96 168.62 138.18 170.79 137.67 169.69 139.23 169.24 140.06 169.21 140.92 169.69 141.4 170.5 141.43 171.36 141.12 172.04 140.57 172.49 140.08 169.79 134.93 169 135.19" style="fill:#fa96b1"/><polygon points="148.27 200.24 147.64 199.13 147.5 200.24 148.27 200.24" style="fill:#fa96b1"/><polygon points="149.6 207.82 150.31 208.15 149.88 206.7 148.87 205.15 148.31 203.43 148.11 202.55 148.19 202.09 148.27 201.5 147.4 201.01 146.49 207.99 149.6 207.82" style="fill:#fa96b1"/><polygon points="174.22 143.68 174.37 145.28 174.1 146.54 174.42 147.47 174.4 148.52 177.39 149.42 174.3 143.53 174.22 143.68" style="fill:#fa96b1"/><polygon points="185.19 164.31 185.12 164.34 183.75 164.57 182.22 165.25 182.99 166.82 185.55 169.66 183.97 169.46 182.46 169.02 183.07 171.36 182.7 172.68 181.96 173.93 181.53 176.02 180.91 175.73 180.48 175.37 180.19 174.84 179.96 174.05 181.19 173.68 181.4 172.85 180.77 169.95 180.11 168.83 179.96 168.07 180.03 167.33 180.38 166.06 180.46 165.5 180.29 162.83 179.99 161.46 179.45 160.69 178.69 160.83 177.28 162.64 176.39 163.24 177.56 159.21 177.46 157.21 175.88 155.59 174.59 154.74 172.78 154.26 171.35 153.73 170.06 153.57 168.9 153.58 167.67 154.15 166.98 155.45 166.51 156.25 166.21 157.01 166.49 159.3 166.29 160.07 165.96 160.76 165.14 161.33 165.42 159.8 165.32 158.93 164.59 157.5 164.44 156.84 165.16 155.98 165.51 154.72 164.77 153.45 163.68 152.84 162.55 152.07 161.96 151.47 160.54 150.49 159.04 149.42 157.98 148.48 156.79 147.91 155.42 147.95 155.58 149.39 156.28 151.55 157.82 153 159.25 153.68 160.3 153.94 160.81 154.54 160.74 155.19 160.05 155.59 159.12 155.59 158.35 155.24 157.72 154.68 156.53 153.19 155.77 152.47 155.13 152.35 154.88 153.36 155.2 153.62 159.77 158.46 160.34 159.41 160.99 161.31 161.53 162.02 161.53 162.6 160.47 162.55 159.9 161.94 159.52 161 158.99 160 157.7 158.56 156.79 157.94 156.39 158.46 156.08 160.66 154.71 165.11 154.41 167.43 154.16 167.87 153.62 167.55 153.07 166.7 152.82 165.5 152.82 161.33 153.04 160.75 153.71 159.95 153.84 159.71 153.76 159.07 153.42 158.48 153.33 157.82 153.08 157.17 148.94 189.11 149.72 189.72 150.39 188.87 151.18 186.79 150.86 184.36 151.41 182.55 151.31 180.97 150.78 180.16 150.74 179.51 150.98 178.85 152.16 178.34 153.22 177.19 153.84 176.65 154.07 177.47 154.42 178.05 155.42 179.19 153.68 179.47 153.11 180.61 153.47 182.16 155.25 182.5 155.97 183.79 154.92 184.63 154.16 185.72 155.36 186.91 156.24 187.09 156.85 187.9 156.4 188.9 156.28 190.03 154.73 189.98 153.24 190.68 152.21 190.74 152.24 191.13 152.7 191.81 153.07 193.4 153.13 194.25 152.81 195.03 153.15 195.88 153.51 195.96 154.09 196.35 154.74 196.96 156.17 196.44 156.41 196.94 155.68 198.07 154.13 199.89 154.08 200.93 154.51 202.69 155.19 204.4 155.93 205.3 157.12 205.07 158.72 202.68 159.77 202.08 164.12 202.08 162.67 202.85 159.6 203.71 158.16 205.81 156.63 206.27 155.28 207.02 156.39 209.1 155.42 209.1 155.42 209.72 156.02 210.25 156.9 211.33 157.41 211.68 159.87 211.7 161.05 212.01 161.53 213.24 160.83 214.2 157.51 215.01 156.39 216.05 157.32 216.54 202.71 197.76 185.19 164.31" style="fill:#fa96b1"/><polygon points="198.71 299.76 154.72 289.61 153.12 291.92 151.54 295.59 188.71 355.76 198.71 299.76" style="fill:#f070a5"/><polygon points="151.54 295.59 151.09 296.65 149.81 299.32 149.27 301.49 149.63 302.46 152.09 305.26 152.27 305.93 151.6 305.97 150.29 305.57 149.2 304.15 148.76 303.7 147.12 306.2 146.47 307.61 146.22 309.03 146.34 309.66 146.58 310.24 146.7 310.84 146.45 311.53 145.96 312.06 145.48 312.43 145.04 312.91 144.68 313.74 145.26 313.85 145.54 314.03 145.77 314.24 146.22 314.41 144.86 314.74 143.31 314.83 141.95 315.14 141.12 316.17 143.24 316.15 144.23 315.99 145.19 315.61 145.04 316.87 145.43 317.6 146.22 318.15 146.05 319 145.7 319.49 145.35 319.87 145.19 320.31 145.75 321.63 148.2 324.49 148.97 326.54 149.46 327.04 150.05 327.37 151.45 327.72 151.82 328.31 151.85 329.93 151.66 331.38 149.78 335.64 148.98 334.82 148.45 333.89 148.33 332.89 148.76 331.85 148.19 331.53 146.94 331.49 146.22 331.23 145.32 330.7 145.05 330.4 144.98 329.89 144.68 328.69 144.45 328.53 144.1 328.66 143.81 328.66 143.66 328.12 143.75 327.59 144.09 326.74 144.29 325.05 144.19 324.18 143.66 323.14 143.06 325.22 142.53 326.27 141.59 326.88 140.99 325.44 139.64 324.74 138.12 324.95 137.04 326.19 137.31 327.71 139.23 330.26 138.53 331.23 139.58 332.62 140.64 332.58 141.16 331.41 140.57 329.36 141.99 329.85 143.3 331.05 145.43 334 145.98 335.91 143.9 337.98 144.12 339.94 142.26 339.54 141.42 339.49 140.57 339.94 140.93 340.76 141.39 341.43 141.95 342 142.61 342.47 142.3 342.6 141.59 343.09 142.52 343.71 143.82 344.14 145.17 344.04 146.22 343.09 146.19 342.24 145.83 341.2 145.72 340.31 146.45 339.94 147.01 339.73 147.41 339.28 147.91 338.85 148.76 338.69 150.62 339.13 150.19 339.94 148.78 340.9 147.74 341.86 147.59 343.35 148.04 345.13 148.85 346.65 149.78 347.38 148.81 348.24 148.56 348.9 148.76 350.26 148.75 350.36 158.66 351.7 158.86 351.29 158.99 351.17 158.88 350.35 158.39 348.82 158.48 348.06 159.3 346.93 160.41 346.41 161.44 346.72 162.04 348.06 162.01 349 161.68 349.56 161.29 350 161.02 350.6 161.02 351.55 161.17 352.04 188.71 355.76 151.54 295.59" style="fill:#ef74a8"/><polygon points="148.73 350.97 148.6 351.58 148.29 352.24 147.74 353.08 146.22 354.6 145.68 355.5 145.94 356.47 146.72 356.87 148.33 356.33 149.35 356.35 149.47 355.41 150.11 355.12 152.09 355.56 153.07 355.25 153.73 354.68 154.41 354.37 155.42 354.89 155.11 355.37 154.71 356.32 154.41 356.8 154.88 357.15 154.88 357.37 156.36 357.23 157.13 356.18 157.97 353.08 158.66 351.7 148.75 350.36 148.73 350.97" style="fill:#e46da3"/><polygon points="161.17 352.04 161.21 352.17 161.31 352.77 161.02 353.65 164.89 353.3 166.58 353.61 167.69 354.89 166.91 354.85 166.3 354.98 165.14 355.56 165.67 356.71 163.92 356.58 160.51 355.56 158.68 356.01 157.79 357.18 157.64 358.78 157.97 360.52 157.63 360.39 157.42 360.23 157.24 360.05 156.95 359.85 155.8 360.07 152.4 357.55 149.56 358.82 147.34 358.48 146.29 358.9 145.23 360.24 145.45 361.1 147.18 361.67 149.06 361.16 150.58 362.15 152.78 362.01 154.64 362.38 155.99 363.02 158.43 366.15 160.05 367.33 159.5 368.01 161.74 369.98 163.01 370.79 164.59 371.05 163.03 371.45 160.88 370.76 159.1 369.79 157.72 369 156.79 369.2 158.35 371.26 158.03 371.66 157.24 371.15 156.2 370.4 155.39 369.61 154.05 369.08 153.08 368.45 152.63 367.83 151.85 367.33 151.68 366.79 151.71 366.44 151.69 366.07 151.89 364.89 151.48 364.17 148.35 363.48 146.31 363.69 146.75 365.27 146.18 366.56 146.41 368.82 146.88 370.52 147.65 370.45 148.13 369.17 149.11 368.99 148.85 371.07 149.8 372.02 150.52 373.15 152.05 373.48 152.5 373.7 153.33 373.58 152.73 375.15 151.87 375.23 150.29 374.14 146.59 373.52 145.66 372.96 144.12 368.63 143.88 367.63 143.75 366.7 143.97 365.8 144.68 364.86 142.41 361.45 141.91 360.37 141.48 360.07 140.89 359.9 140.34 359.85 139.73 360.14 139.62 360.85 139.68 361.69 139.6 362.38 138.82 364.4 138.17 367.3 138.3 369.91 139.84 371.05 141.84 372.03 142.15 372.96 141.61 373.39 140.86 373.38 140.57 372.96 140.28 373.46 139.97 373.58 139.84 373.85 140.1 374.75 140.29 374.85 141.84 376.33 142.31 376.51 142.91 376.39 143.44 376.08 143.66 375.74 143.89 375.16 144.34 375.6 144.71 376.32 144.68 376.61 146.45 377.49 147.09 378.32 147.23 379.75 148.33 379.32 149.2 379.17 150.8 379.14 151.53 379.26 152.16 379.28 152.82 379.14 153.08 378.32 153.39 377.7 153.84 377.29 154.35 377.3 155.31 377.9 155.93 377.91 156.41 377.58 157.08 376.75 157.41 376.61 158.32 377.12 158.3 377.96 157.57 378.93 156.39 379.75 157.1 380 157.68 380.37 158.14 380.91 158.48 381.61 156.62 381.65 154.64 382.04 153.15 383.13 152.82 385.32 154.02 384.92 154.15 385.52 153.88 386.63 153.84 387.79 153.67 387.92 153.46 388.37 153.56 388.85 154.37 389.07 155.48 389.21 156.02 389.4 156.39 389.69 156.68 390.62 156.48 391.54 155.42 393.46 155.1 393.68 154.77 393.57 154.51 393.62 154.37 395.04 154.24 395.4 153.84 395.92 153.84 396.48 155.79 396.38 156.33 396.49 188.71 355.76 161.17 352.04" style="fill:#e46da3"/><polygon points="144.21 379.36 144.14 378.58 142.45 379.64 142.11 379.75 141.62 379.35 141.26 378.73 141.04 378.16 140.86 377.91 140.06 377.49 139 376.63 137.76 375.96 136.56 376.05 136.06 376.8 137.98 378.31 138.55 379.44 138.09 380.82 137.03 381.52 135.85 381.4 134.98 380.32 134.77 381.6 134.23 382 133.52 382.13 132.72 382.57 132.03 383.34 131.59 384.04 130.92 385.99 128.84 386.15 126.71 388.59 125.78 391.61 127.35 393.46 127.35 391.55 129.5 392.9 129.9 393.46 129.69 393.92 129.13 394.47 128.72 395.13 128.88 395.92 129.75 396.14 132.88 395.88 133.74 395.58 140.84 391.71 141.14 390.26 141.14 389.69 141.73 390.06 143.01 391.27 143.13 391.55 143.87 391.05 144.47 390.09 145.94 386.94 146.34 385.59 146.54 384.2 146.42 382.96 144.21 379.36" style="fill:#e46da3"/><polygon points="157.6 108.72 158.39 108.34 158.97 108.44 160.27 108.13 160.53 107.79 161.15 107.32 161.56 107.15 161.38 106.66 161.07 106.02 160.67 105.65 160.38 105.19 160.09 104.89 159.47 104.58 159.03 104.49 158.61 104.47 158.18 104.3 157.75 104.05 157.33 103.89 156.47 103.02 155.42 103.41 154.99 105.16 156.7 109.11 157.6 108.72" style="fill:#fbaeb9"/><polygon points="152.59 96.43 152.87 96.26 153.18 95.94 153.58 95.8 154.15 96.14 154.93 96.99 155.38 97.2 155.95 97.13 156.7 96.48 157.53 94.5 158.5 93.92 158.26 93.5 157.84 92.5 157.43 91.99 157.67 91.2 157.43 87.81 157.27 87.11 156.58 85.84 156.41 85.2 156.5 84.64 156.88 83.36 156.97 82.6 156.59 81.08 155.63 80.12 153.24 78.91 152.11 77.88 150.99 76.54 149.8 75.68 148.44 76.04 146.68 78.08 145.96 78.36 145.65 79.37 145.72 83.72 151.25 96.51 152.59 96.43" style="fill:#fbaeb9"/><polygon points="168.56 64.38 167.73 64.99 167.34 67.24 167.85 75.37 167.85 75.36 168.98 74.59 169.72 74.49 170.28 75.19 169.49 76.7 169.15 78.59 169.24 79.67 169.24 79.67 169.3 80.48 170 81.96 170.32 83.37 169.95 85.37 168.7 88.72 173 91.82 174.4 93.27 172.59 93.16 169.69 91.94 167.41 90.02 167.44 87.81 167.84 86.59 167.95 84.81 167.81 83.07 167.44 81.96 166.44 81.29 165.47 81.48 164.38 82 163.07 82.28 158.96 80.81 157.97 80.99 157.68 82.26 158.75 90.01 159.55 92.98 159.86 94.88 159.88 96.15 160.73 96.98 161.5 98.3 162.16 99.39 162.74 100.78 163.11 101.61 162.74 103.88 162.91 105.61 163.3 106.54 164.84 106.38 165.11 105.56 166.12 105.83 165.96 106.61 165.32 106.94 163.18 107.59 162.45 108.85 162.66 110.02 194.71 79.76 168.56 64.38" style="fill:#fbaeb9"/><polygon points="146.07 191.62 145.94 191.05 144.94 189.46 143.52 189.95 142.2 191.18 141.56 192.02 142.33 194.62 142.67 196.67 142.96 200.07 142.55 202.3 143.33 201.88 143.68 202.71 144.7 201.5 145.21 202.08 143.86 203.94 143.63 205.33 144.46 205.73 146.24 204.6 145.94 205.43 145.37 205.95 145.01 206.45 145.21 207.83 146.28 208 146.49 207.99 147.4 201.01 147.21 200.91 146.7 200.81 146.7 200.24 147.5 200.24 147.64 199.13 147.6 199.08 146.76 198.57 146.37 197.91 146.7 197.16 146.5 196.25 145.25 193.4 145.18 192.76 145.75 192.31 146.07 191.62" style="fill:#fb9fb4"/><polygon points="153.03 157.04 152.3 157.03 151.45 157.49 150.8 158.14 150.32 156.63 150.76 155.57 151.48 154.76 151.85 154 151.29 152.76 149.98 152.3 147.23 152.35 147.23 153.04 147.56 153.75 147.27 154.03 146.65 153.91 145.94 153.36 145.21 152.95 144.41 153.08 143.67 153.6 143.12 154.32 144.48 154.22 145.63 154.57 146.16 155.42 145.66 156.87 144.59 156.09 144.23 156.4 144.47 157.26 145.19 158.14 146.16 158.53 148.11 158.57 148.76 158.78 149.34 160.33 149.07 162.43 148.01 164.15 146.22 164.57 146.22 165.15 147.65 165.75 148.25 165.84 148.25 166.42 146.76 166.8 145.98 167.12 145.66 167.43 145.32 168.44 144.59 167.96 143.39 166.42 142.59 167.35 143.14 169.44 144.68 172.78 142.53 171.3 141.59 171.33 140.34 172.49 139.8 172.73 139.41 172.24 139.16 171.39 139.09 170.58 139.37 170.34 140.71 169.46 141.12 169.02 141.06 168.65 140.59 167.28 140.57 166.42 141.02 165.61 141.75 164.84 142.21 163.97 141.28 161.52 140.95 159.48 140.89 157.46 141.12 156.18 139.38 156.71 139.04 159.01 139.23 161.83 139.09 163.93 138.61 164.77 138.11 165.11 136.26 165.15 135.23 164.93 135.05 164.3 135.52 162.02 133.7 162.68 132.42 163.72 132.31 165.02 134 166.42 132.76 168.41 132.9 169.57 134.07 170.1 135.98 170.24 135.41 171.34 134.54 171.57 132.42 170.93 133.21 172.37 134 173.47 133.36 173.34 132.79 173.14 132.3 173.1 131.91 173.47 131.39 172.71 130.99 171.95 130.67 171.14 130.43 170.24 130.13 171.43 129.76 172.27 127.85 174.71 127.64 175.34 127.79 177.6 127.7 179.93 127.99 180.68 128.86 179.89 129.28 178.81 129.5 176.49 129.88 175.38 130.84 176.18 132.05 176.53 133.19 177.09 134 178.55 134.01 179.96 133.23 180.49 130.15 180.46 129.79 180.85 129.91 181.7 130.21 182.57 130.43 183 131.34 183.53 132.1 183.47 132.87 183.17 133.72 183 135.18 182.46 137.15 179.96 138.53 179.19 139.09 181.73 138.44 183.53 140.63 187.13 139.6 189.4 139.86 189.94 140.03 190.57 140.11 191.26 140.1 191.94 140.75 190.97 141.56 190.18 142.52 189.63 143.66 189.4 142.41 187.7 142.3 186.93 143.12 186.23 142.62 184.7 141.26 182.53 140.57 181.1 142.27 181.07 142.81 179.98 142.99 178.49 143.66 177.28 144.86 177.07 145.66 178.03 145.41 180.39 146.26 180.8 145.82 182.61 145.46 187.63 146.9 188.58 148.34 188.64 148.94 189.11 153.08 157.17 153.03 157.04" style="fill:#fb9fb4"/><polygon points="181.26 488.56 181.31 487.77 182.43 485.8 183.22 484.11 185.21 482.51 168.09 468.25 167.65 468.32 166.46 467.98 161.51 470.14 154.24 470.91 152.34 472.55 144.73 474.73 141.24 475.94 140.3 477.97 138.26 478.5 136.33 481.87 139.74 498.94 140.74 497.18 142.95 496.14 150.03 496.04 153.17 496.98 156.95 496.28 160.25 496.61 163.34 495.92 165.86 493.78 173.4 492.39 176.26 490.13 178.21 490.3 178.92 489.93 180.41 489.76 180.98 489.21 181.26 488.56" style="fill:#c85d98"/><polygon points="136.05 482.35 133.46 483.88 132.68 484.68 131.43 486.93 130.1 490.56 130.86 493.36 133.06 495.66 135.32 496.43 137.02 499.18 138.22 499.76 139.42 499.51 139.74 498.94 136.33 481.87 136.05 482.35" style="fill:#c7659a"/><polygon points="145.61 110.69 145.77 111.19 145.3 111.67 146.1 111.87 146.66 112.12 147.12 111.76 147.42 111.36 147.87 111.42 148.06 111.88 147.93 112.21 148.02 112.4 148.26 112.32 148.53 112.02 149.12 112.39 149.44 113.54 149.73 113.61 150.41 113.53 151.15 113.7 153.34 112.05 144.65 109.27 144.59 109.42 144.79 109.91 145.61 110.69" style="fill:#fcb5bc"/><polygon points="145.45 84.85 145.61 85.63 148.27 90.7 148.65 91.22 149.07 91.5 149.15 91.96 148.52 92.95 147.98 93.31 145.68 93.92 147.21 95.97 148.67 96.65 151.25 96.51 145.72 83.72 145.72 83.84 145.45 84.85" style="fill:#fcb7bc"/><polygon points="154.4 111.24 154.92 110.32 155.86 109.48 156.7 109.11 154.99 105.16 154.9 105.51 153.38 106.31 151.74 106.27 149.32 106.54 145.94 108.91 145.32 108.59 144.88 108.72 144.65 109.27 153.34 112.05 154.4 111.24" style="fill:#fcb7bc"/><polygon points="20.02 66.66 21.54 65.46 21.14 65.1 20.26 64.94 19.54 64.57 19.5 63.58 19.9 63.39 21.8 63.23 23.25 64.1 24.28 63.35 24.4 61.96 23.58 60.94 21.51 60.16 17.38 61.62 15.48 60.94 14.71 64.29 16.98 66.23 20.02 66.66" style="fill:#fccbc6"/></svg>