<svg id="Layer_1" data-name="Layer 1" xmlns="http://www.w3.org/2000/svg" viewBox="0 0 500 500"><title>Mapa_Artboard 4</title><polygon points="257.76 410.73 258.87 409.07 257.62 408.75 255.7 408.89 256.33 408.43 252.21 407.4 257.76 410.73" style="fill:#805aa2"/><polygon points="252.21 407.4 256.33 408.43 258.59 406.81 258.32 404.62 252.21 407.4" style="fill:#835da5"/><polygon points="258.82 408.67 257.62 408.75 258.87 409.07 258.82 408.67" style="fill:#835da5"/><polygon points="252.21 407.4 258.32 404.62 255.54 403.51 252.21 407.4" style="fill:#8862aa"/><polygon points="252.21 412.95 257.76 410.73 252.21 407.4 252.21 412.95" style="fill:#835da5"/><polygon points="252.21 412.95 252.21 407.4 248.32 412.95 252.21 412.95" style="fill:#8762aa"/><polygon points="252.21 407.4 249.43 402.4 248.87 406.29 252.21 407.4" style="fill:#926db5"/><polygon points="258.32 404.62 258.59 406.81 260.58 405.38 258.32 404.62" style="fill:#7c569e"/><polygon points="259.6 408.61 258.82 408.67 258.87 409.07 259.6 408.61" style="fill:#7c569e"/><polygon points="258.32 404.62 257.97 400.09 256.58 400.66 255.54 403.51 258.32 404.62" style="fill:#8a64ac"/><polygon points="264.99 411.84 263.92 408.31 259.6 408.61 258.87 409.07 264.99 411.84" style="fill:#744e96"/><polygon points="252.21 407.4 255.54 403.51 249.43 402.4 252.21 407.4" style="fill:#8f6ab2"/><polygon points="252.21 412.95 253.32 416.29 257.76 410.73 252.21 412.95" style="fill:#7d579f"/><polygon points="264.99 411.84 258.87 409.07 257.76 410.73 264.99 411.84" style="fill:#754f97"/><polygon points="253.32 416.29 252.21 412.95 249.99 415.73 253.32 416.29" style="fill:#805aa2"/><polygon points="253.32 416.29 258.32 416.29 257.76 410.73 253.32 416.29" style="fill:#775199"/><polygon points="252.21 407.4 248.87 406.29 248.32 412.95 252.21 407.4" style="fill:#8d68b0"/><polygon points="258.32 404.62 260.58 405.38 261.98 404.37 261.98 402.79 258.32 404.62" style="fill:#7d579f"/><polygon points="255.54 403.51 252.21 398.51 249.43 402.4 255.54 403.51" style="fill:#946eb6"/><polygon points="252.21 412.95 248.32 412.95 249.99 415.73 252.21 412.95" style="fill:#855fa7"/><polygon points="248.87 406.29 245.54 409.07 248.32 412.95 248.87 406.29" style="fill:#916cb4"/><polygon points="248.32 412.95 245.38 412.95 245.38 413.43 249.99 415.73 248.32 412.95" style="fill:#8a64ac"/><polygon points="248.87 406.29 245.38 403.96 245.38 408.48 245.54 409.07 248.87 406.29" style="fill:#9974bc"/><polygon points="262.76 415.73 264.99 411.84 257.76 410.73 262.76 415.73" style="fill:#6f4991"/><polygon points="255.54 403.51 256.58 400.66 255.7 401.02 253.23 398.31 252.21 398.51 255.54 403.51" style="fill:#916bb3"/><polygon points="258.32 404.62 261.98 402.79 261.98 400.43 261.65 399.62 258.32 404.62" style="fill:#815ca4"/><polygon points="258.32 416.29 262.76 415.73 257.76 410.73 258.32 416.29" style="fill:#714b93"/><polygon points="258.32 404.62 261.65 399.62 260.59 399.01 257.97 400.09 258.32 404.62" style="fill:#8862aa"/><polygon points="261.98 400.43 261.98 399.6 261.65 399.62 261.98 400.43" style="fill:#7d58a0"/><polygon points="252.21 398.51 248.87 397.95 249.43 402.4 252.21 398.51" style="fill:#9b76be"/><polygon points="248.87 406.29 249.43 402.4 245.38 402.8 245.38 403.96 248.87 406.29" style="fill:#9a75bd"/><polygon points="248.87 397.95 252.21 398.51 251.62 396.54 249.95 394.72 248.87 397.95" style="fill:#a07bc3"/><polygon points="245.54 409.07 245.38 409.62 245.38 412.95 248.32 412.95 245.54 409.07" style="fill:#916bb2"/><polygon points="262.76 415.73 258.32 416.29 258.87 420.18 262.76 415.73" style="fill:#6c468d"/><polygon points="258.87 420.18 258.32 416.29 253.32 416.29 258.87 420.18" style="fill:#724c94"/><polygon points="253.32 416.29 255.54 422.95 258.87 420.18 253.32 416.29" style="fill:#704a92"/><polygon points="245.38 400.19 245.38 402.8 249.43 402.4 245.38 400.19" style="fill:#a27dc5"/><polygon points="245.38 409.11 245.38 409.62 245.54 409.07 245.38 409.11" style="fill:#9872ba"/><polygon points="264.99 411.84 267.48 408.11 266.74 408.11 263.92 408.31 264.99 411.84" style="fill:#6f4991"/><polygon points="264.99 411.84 268.32 412.4 268.32 408.11 267.48 408.11 264.99 411.84" style="fill:#68438a"/><polygon points="262.76 415.73 268.32 412.4 264.99 411.84 262.76 415.73" style="fill:#674289"/><polygon points="262.76 415.73 268.87 418.51 268.32 412.4 262.76 415.73" style="fill:#613c83"/><polygon points="253.23 398.31 252.63 397.66 252.21 398.51 253.23 398.31" style="fill:#9771ba"/><polygon points="261.15 398.78 260.59 399.01 261.65 399.62 261.15 398.78" style="fill:#8d68b0"/><polygon points="261.98 398.97 261.98 398.44 261.15 398.78 261.65 399.62 261.98 398.97" style="fill:#8b65ad"/><polygon points="253.32 416.29 249.99 415.73 249.99 421.29 253.32 416.29" style="fill:#7d579e"/><polygon points="249.99 421.29 249.99 415.73 245.38 417.27 245.38 418.99 249.99 421.29" style="fill:#825ca5"/><polygon points="255.54 422.95 253.32 416.29 249.99 421.29 255.54 422.95" style="fill:#755097"/><polygon points="258.87 420.18 262.76 422.95 262.76 415.73 258.87 420.18" style="fill:#653f87"/><polygon points="245.38 408.48 245.38 408.89 245.54 409.07 245.38 408.48" style="fill:#a17bc3"/><polygon points="248.87 397.95 245.38 398.65 245.38 400.19 249.43 402.4 248.87 397.95" style="fill:#a17cc4"/><polygon points="248.87 397.95 245.54 392.95 243.53 398.48 245.38 398.44 245.38 398.65 248.87 397.95" style="fill:#a984cc"/><polygon points="249.99 415.73 245.38 413.43 245.38 417.27 249.99 415.73" style="fill:#8a65ad"/><polygon points="252.63 397.66 251.62 396.54 252.21 398.51 252.63 397.66" style="fill:#9f79c1"/><polygon points="245.38 409.01 245.38 409.11 245.54 409.07 245.38 409.01" style="fill:#9e79c1"/><polygon points="262.76 422.95 258.87 420.18 258.87 424.62 262.76 422.95" style="fill:#633e85"/><polygon points="255.54 422.95 258.87 424.62 258.87 420.18 255.54 422.95" style="fill:#68438a"/><polygon points="255.54 422.95 249.99 421.29 254.43 424.62 255.54 422.95" style="fill:#704b92"/><polygon points="249.99 421.29 249.43 426.84 254.43 424.62 249.99 421.29" style="fill:#724c95"/><polygon points="268.32 412.4 271.32 408.11 268.32 408.11 268.32 412.4" style="fill:#664188"/><polygon points="274.43 413.51 272.63 408.11 271.32 408.11 268.32 412.4 274.43 413.51" style="fill:#5f3981"/><polygon points="245.38 408.89 245.38 409.01 245.54 409.07 245.38 408.89" style="fill:#a27cc4"/><polygon points="254.43 424.62 258.87 424.62 255.54 422.95 254.43 424.62" style="fill:#69438a"/><polygon points="267.21 421.29 268.87 418.51 262.76 415.73 267.21 421.29" style="fill:#5d387f"/><polygon points="268.87 427.95 267.21 421.29 262.76 422.95 268.87 427.95" style="fill:#553077"/><polygon points="262.76 415.73 262.76 422.95 267.21 421.29 262.76 415.73" style="fill:#5f3981"/><polygon points="249.99 421.29 245.38 418.99 245.38 421.67 246.1 422.95 249.99 421.29" style="fill:#815ca3"/><polygon points="261.98 399.33 261.98 398.97 261.65 399.62 261.98 399.33" style="fill:#855fa7"/><polygon points="245.38 421.67 245.38 422.66 246.1 422.95 245.38 421.67" style="fill:#8863ab"/><polygon points="248.87 397.95 249.95 394.72 248.34 392.95 245.54 392.95 248.87 397.95" style="fill:#a782ca"/><polygon points="239.99 396.84 240.13 398.54 242.47 398.5 239.99 396.84" style="fill:#ad89d1"/><polygon points="245.54 392.95 248.34 392.95 248.34 392.95 247.7 391.04 245.54 392.95" style="fill:#ab86ce"/><polygon points="261.98 399.6 261.98 399.33 261.65 399.62 261.98 399.6" style="fill:#7e59a0"/><polygon points="268.87 418.51 269.96 419.12 270.91 417.83 268.87 418.51" style="fill:#522d74"/><polygon points="268.32 412.4 268.87 418.51 270.91 417.83 271.07 417.62 271.92 417.02 268.32 412.4" style="fill:#5a357c"/><polygon points="240.54 394.62 239.99 396.84 242.47 398.5 242.96 398.49 240.54 394.62" style="fill:#b28dd5"/><polygon points="268.32 412.4 271.92 417.02 272.76 416.43 274.43 413.51 268.32 412.4" style="fill:#59347b"/><polygon points="246.1 422.95 249.43 426.84 249.99 421.29 246.1 422.95" style="fill:#78539a"/><polygon points="262.21 427.4 258.87 424.62 259.99 432.4 262.21 427.4" style="fill:#5a357c"/><polygon points="249.43 426.84 246.1 422.95 245.38 423.91 245.38 425.5 249.43 426.84" style="fill:#7a559c"/><polygon points="239.99 396.84 237.87 398.58 240.13 398.54 239.99 396.84" style="fill:#b38dd6"/><polygon points="245.54 392.95 240.54 394.62 242.96 398.49 243.53 398.48 245.54 392.95" style="fill:#b18cd4"/><polygon points="240.54 394.62 245.54 392.95 243.87 389.62 240.54 394.62" style="fill:#b590d8"/><polygon points="245.38 422.66 245.38 423.91 246.1 422.95 245.38 422.66" style="fill:#845fa6"/><polygon points="262.76 422.95 258.87 424.62 262.21 427.4 262.76 422.95" style="fill:#5d387f"/><polygon points="267.21 421.29 268.36 421.29 269.96 419.12 268.87 418.51 267.21 421.29" style="fill:#532e75"/><polygon points="258.87 424.62 254.43 424.62 254.43 430.18 258.87 424.62" style="fill:#654087"/><polygon points="243.87 389.62 245.54 392.95 247.7 391.04 247.05 389.09 243.87 389.62" style="fill:#b28dd5"/><polygon points="254.43 424.62 249.43 426.84 254.43 430.18 254.43 424.62" style="fill:#6b458c"/><polygon points="249.43 426.84 247.76 431.84 254.43 430.18 249.43 426.84" style="fill:#6b468d"/><polygon points="267.84 421.99 268.36 421.29 267.21 421.29 267.84 421.99" style="fill:#4c286e"/><polygon points="276.06 414.12 276.93 413.51 274.43 413.51 276.06 414.12" style="fill:#4f2a71"/><polygon points="274.43 413.51 278.26 408.83 276.91 408.11 272.63 408.11 274.43 413.51" style="fill:#5a357c"/><polygon points="239.99 396.84 237.1 397.13 236.65 398.6 237.87 398.58 239.99 396.84" style="fill:#b994dc"/><polygon points="237.63 395.38 237.1 397.13 239.99 396.84 237.63 395.38" style="fill:#bd99e1"/><polygon points="244.43 385.18 241.1 389.07 243.87 389.62 244.43 385.18" style="fill:#bd98e0"/><polygon points="240.54 394.62 237.95 394.33 237.63 395.38 239.99 396.84 240.54 394.62" style="fill:#ba96de"/><polygon points="274.43 413.51 276.93 413.51 279.01 412.06 279.25 409.35 278.26 408.83 274.43 413.51" style="fill:#532d74"/><polygon points="241.1 389.07 240.54 394.62 243.87 389.62 241.1 389.07" style="fill:#ba96de"/><polygon points="243.87 389.62 247.05 389.09 246.22 386.61 243.87 389.62" style="fill:#b590d8"/><polygon points="262.21 427.4 266.65 429.62 268.87 427.95 262.21 427.4" style="fill:#4f2a71"/><polygon points="262.76 422.95 262.21 427.4 268.87 427.95 262.76 422.95" style="fill:#553077"/><polygon points="272.76 416.43 276.06 414.12 274.43 413.51 272.76 416.43" style="fill:#512c73"/><polygon points="266.65 429.62 262.21 427.4 262.76 432.95 266.65 429.62" style="fill:#512c73"/><polygon points="249.43 426.84 245.38 425.5 245.38 427.55 244.72 429.46 249.43 426.84" style="fill:#78529a"/><polygon points="241.1 389.07 238.55 391.36 238.53 392.44 237.95 394.33 240.54 394.62 241.1 389.07" style="fill:#be99e2"/><polygon points="258.87 424.62 254.43 430.18 259.99 432.4 258.87 424.62" style="fill:#5e3880"/><polygon points="259.99 432.4 254.43 430.18 253.89 435.06 254.19 435.04 259.99 432.4" style="fill:#5c377e"/><polygon points="247.76 431.84 249.43 426.84 244.72 429.46 244.62 429.75 247.76 431.84" style="fill:#724d94"/><polygon points="281.31 410.45 281.04 410.3 281.18 410.54 281.31 410.45" style="fill:#502a71"/><polygon points="243.87 389.62 246.22 386.61 245.67 384.97 244.43 385.18 243.87 389.62" style="fill:#bb96de"/><polygon points="238.62 388.51 238.55 391.36 241.1 389.07 238.62 388.51" style="fill:#c5a0e8"/><polygon points="244.43 385.18 245.67 384.97 244.99 382.94 244.43 385.18" style="fill:#bf9ae2"/><polygon points="268.87 427.95 270.05 427.79 267.53 422.41 267.84 421.99 267.21 421.29 268.87 427.95" style="fill:#4c276e"/><polygon points="270.61 429 270.05 427.79 268.87 427.95 270.61 429" style="fill:#452167"/><polygon points="266.65 429.62 270.9 429.62 270.61 429 268.87 427.95 266.65 429.62" style="fill:#48236a"/><polygon points="262.21 427.4 259.99 432.4 262.76 432.95 262.21 427.4" style="fill:#542e75"/><polygon points="262.76 432.95 259.99 432.4 259.74 434.65 261.59 434.52 262.76 432.95" style="fill:#512b73"/><polygon points="247.76 431.84 244.62 429.75 244.5 430.1 245.29 435.65 246.27 435.59 247.76 431.84" style="fill:#6f4a91"/><polygon points="281.18 410.54 281.04 410.3 279.25 409.35 279.01 412.06 281.18 410.54" style="fill:#4e2970"/><polygon points="268.87 434.07 271.23 430.31 270.9 429.62 266.65 429.62 268.87 434.07" style="fill:#452067"/><polygon points="254.43 430.18 247.76 431.84 253.68 435.07 253.89 435.06 254.43 430.18" style="fill:#643e86"/><polygon points="247.76 431.84 250.08 435.32 253.68 435.07 247.76 431.84" style="fill:#633e84"/><polygon points="241.1 389.07 240.54 382.95 238.69 385.03 238.62 388.51 241.1 389.07" style="fill:#c7a3eb"/><polygon points="244.43 385.18 240.54 382.95 241.1 389.07 244.43 385.18" style="fill:#c39fe7"/><polygon points="262.76 432.95 263.58 434.38 266.02 434.21 268.63 434.24 268.87 434.07 262.76 432.95" style="fill:#472168"/><polygon points="247.76 431.84 246.27 435.59 250.08 435.32 247.76 431.84" style="fill:#674289"/><polygon points="266.65 429.62 262.76 432.95 268.87 434.07 266.65 429.62" style="fill:#49246b"/><polygon points="259.99 432.4 254.19 435.04 259.74 434.65 259.99 432.4" style="fill:#553077"/><polygon points="240.54 382.95 244.43 385.18 244.99 382.94 244.66 381.96 243.67 381.56 240.54 382.95" style="fill:#c5a0e8"/><polygon points="240.54 382.95 238.79 380.98 238.73 383.62 240.54 382.95" style="fill:#d4b0f8"/><polygon points="262.76 432.95 261.59 434.52 263.58 434.38 262.76 432.95" style="fill:#4b266d"/><polygon points="244.5 430.1 243.01 434.37 244.15 435.73 245.29 435.65 244.5 430.1" style="fill:#754f97"/><polygon points="243.01 434.37 242.5 435.85 244.15 435.73 243.01 434.37" style="fill:#765198"/><polygon points="240.54 382.95 243.67 381.56 239.9 380.05 240.54 382.95" style="fill:#cca8f0"/><polygon points="238.73 383.62 238.69 385.03 240.54 382.95 238.73 383.62" style="fill:#ceaaf2"/><polygon points="272.51 433.06 272.82 434.29 273.09 434.29 272.51 433.06" style="fill:#39155b"/><polygon points="272.51 433.06 271.23 430.31 268.87 434.07 269.24 434.25 272.82 434.29 272.51 433.06" style="fill:#3e1960"/><polygon points="268.85 434.24 269.24 434.25 268.87 434.07 268.85 434.24" style="fill:#3c185f"/><polygon points="268.63 434.24 268.85 434.24 268.87 434.07 268.63 434.24" style="fill:#411d63"/><polygon points="240.54 382.95 239.9 380.05 238.82 379.62 238.79 380.98 240.54 382.95" style="fill:#d4b0f8"/><polygon points="320.12 388.13 314.31 385.22 315.94 389.44 314.84 391.06 320.12 388.13" style="fill:#62478c"/><polygon points="325.12 397.02 320.12 388.13 314.84 391.06 312.67 394.25 325.12 397.02" style="fill:#5b4085"/><polygon points="289.44 384.72 290.4 387.22 292.5 387.22 294.74 383.84 289.44 384.72" style="fill:#72579c"/><polygon points="314.01 371.46 301.23 370.91 301.92 378.08 307.21 374.59 306.75 378.38 314.01 371.46" style="fill:#74599e"/><polygon points="314.01 371.46 306.75 378.38 306.2 382.74 312.39 383.93 314.01 371.46" style="fill:#6d5297"/><polygon points="288.46 376.46 288.92 383.38 289.44 384.72 294.74 383.84 295.96 382 298 380.66 288.46 376.46" style="fill:#775ca1"/><polygon points="321.79 378.13 314.01 371.46 312.39 383.93 312.73 383.99 321.79 378.13" style="fill:#6a4f94"/><polygon points="320.12 388.13 321.79 378.13 312.73 383.99 313.93 384.22 314.31 385.22 320.12 388.13" style="fill:#63498d"/><polygon points="325.12 397.02 312.67 394.25 311.83 395.48 318.04 399.22 313.93 404.37 314.02 404.42 325.12 397.02" style="fill:#583d81"/><polygon points="320.12 388.13 330.12 383.68 321.79 378.13 320.12 388.13" style="fill:#60458a"/><polygon points="301.23 370.91 288.46 376.46 298 380.66 301.92 378.08 301.23 370.91" style="fill:#785ea3"/><polygon points="323.46 367.02 314.01 371.46 321.79 378.13 323.46 367.02" style="fill:#6d5297"/><polygon points="325.12 397.02 330.12 383.68 320.12 388.13 325.12 397.02" style="fill:#593f83"/><polygon points="288.46 376.46 301.23 370.91 294.01 366.46 288.46 376.46" style="fill:#7f65aa"/><polygon points="294.01 366.46 301.23 370.91 300.68 362.57 294.01 366.46" style="fill:#8166ab"/><polygon points="331.23 406.46 331.79 396.46 325.12 397.02 331.23 406.46" style="fill:#4d3377"/><polygon points="300.68 362.57 301.23 370.91 310.12 360.91 300.68 362.57" style="fill:#7e64a9"/><polygon points="325.12 397.02 331.79 396.46 330.12 383.68 325.12 397.02" style="fill:#543a7e"/><polygon points="314.02 404.42 318.04 406.67 325.12 403.14 325.12 397.02 314.02 404.42" style="fill:#50367a"/><polygon points="323.46 367.02 321.79 378.13 332.35 375.35 323.46 367.02" style="fill:#684d92"/><polygon points="301.23 370.91 314.01 371.46 310.12 360.91 301.23 370.91" style="fill:#795ea3"/><polygon points="310.12 360.91 314.01 371.46 315.12 357.57 310.12 360.91" style="fill:#795ea4"/><polygon points="288.46 376.46 287.16 376.25 288.38 382 288.92 383.38 288.46 376.46" style="fill:#7e63a8"/><polygon points="294.01 366.46 284.16 373.63 286.94 375.22 287.16 376.25 288.46 376.46 294.01 366.46" style="fill:#8268ad"/><polygon points="321.79 378.13 330.12 383.68 332.35 375.35 321.79 378.13" style="fill:#61468a"/><polygon points="330.12 383.68 340.68 382.57 340.4 382.33 336.44 381.02 337.69 379.98 332.35 375.35 330.12 383.68" style="fill:#5b4185"/><polygon points="329.02 407.27 326.91 408.89 327 409.75 335.47 414.6 335.81 413.78 331.23 406.46 329.02 407.27" style="fill:#43296d"/><polygon points="325.12 397.02 325.12 403.14 327.35 402.03 329.8 406.67 329.02 407.27 331.23 406.46 325.12 397.02" style="fill:#4b3175"/><polygon points="300.68 362.57 310.12 360.91 304.01 353.68 300.68 362.57" style="fill:#8368ae"/><polygon points="323.46 367.02 315.12 357.57 314.01 371.46 323.46 367.02" style="fill:#745a9f"/><polygon points="315.12 357.57 323.46 367.02 319.57 357.57 315.12 357.57" style="fill:#785da2"/><polygon points="332.35 352.57 319.57 357.57 323.46 367.02 332.35 352.57" style="fill:#755aa0"/><polygon points="288.46 353.13 294.01 366.46 300.68 362.57 288.46 353.13" style="fill:#896eb3"/><polygon points="277.35 363.13 273.9 370.52 279.15 370.77 280.38 371.48 277.35 363.13" style="fill:#8d72b7"/><polygon points="310.12 360.91 315.12 357.57 304.01 353.68 310.12 360.91" style="fill:#8167ac"/><polygon points="319.01 344.8 304.01 353.68 315.12 357.57 319.01 344.8" style="fill:#846aaf"/><polygon points="336.79 360.35 323.46 367.02 332.35 375.35 336.79 360.35" style="fill:#694e94"/><polygon points="331.79 396.46 340.68 382.57 330.12 383.68 331.79 396.46" style="fill:#553a7f"/><polygon points="340.68 382.57 331.79 396.46 333.52 396.54 338.1 390.92 341.63 390.18 341.63 386.7 340.68 382.57" style="fill:#4e3478"/><polygon points="327 409.75 327.39 413.9 335.49 415.15 335.35 414.89 335.47 414.6 327 409.75" style="fill:#43296d"/><polygon points="294.01 366.46 277.35 363.13 280.38 371.48 284.16 373.63 294.01 366.46" style="fill:#896eb3"/><polygon points="288.46 353.13 277.35 363.13 294.01 366.46 288.46 353.13" style="fill:#8e74b9"/><polygon points="331.23 406.46 335.18 403.54 331.96 398.44 333.52 396.54 331.79 396.46 331.23 406.46" style="fill:#492f73"/><polygon points="337.61 407.37 335.18 403.54 331.23 406.46 337.61 407.37" style="fill:#42286c"/><polygon points="340.69 382.43 340.4 382.33 340.68 382.57 340.69 382.43" style="fill:#5c4286"/><polygon points="332.35 375.35 337.69 379.98 340.93 377.28 341.23 370.91 332.35 375.35" style="fill:#5c4286"/><polygon points="340.88 382.49 340.69 382.43 340.68 382.57 340.88 382.49" style="fill:#573c81"/><polygon points="357.35 375.91 341.23 370.91 340.93 377.28 341.63 376.7 346.1 380.4 357.35 375.91" style="fill:#573c81"/><polygon points="288.46 353.13 300.68 362.57 304.01 353.68 288.46 353.13" style="fill:#8b70b5"/><polygon points="277.35 363.13 272.9 367.57 273.32 370.49 273.9 370.52 277.35 363.13" style="fill:#9177bc"/><polygon points="332.35 375.35 341.23 370.91 341.23 367.02 332.35 375.35" style="fill:#61478b"/><polygon points="341.23 367.02 341.23 370.91 354.57 361.46 341.23 367.02" style="fill:#60468a"/><polygon points="327.39 413.9 327.82 418.38 332.63 422.98 336.06 422.25 336.58 417.3 335.49 415.15 327.39 413.9" style="fill:#3c2266"/><polygon points="336.79 360.35 332.35 375.35 341.23 367.02 336.79 360.35" style="fill:#654a90"/><polygon points="319.57 357.57 319.01 344.8 315.12 357.57 319.57 357.57" style="fill:#8064aa"/><polygon points="272.9 367.57 277.35 363.13 277.35 356.46 272.9 367.57" style="fill:#957abf"/><polygon points="288.46 353.13 277.35 356.46 277.35 363.13 288.46 353.13" style="fill:#957bc0"/><polygon points="323.46 367.02 336.79 360.35 332.35 352.57 323.46 367.02" style="fill:#70559b"/><polygon points="304.01 353.68 295.12 342.02 288.46 353.13 304.01 353.68" style="fill:#9278bd"/><polygon points="345.68 351.46 334.57 343.68 332.35 352.57 345.68 351.46" style="fill:#755b9f"/><polygon points="335.81 413.78 337.02 410.8 331.23 406.46 335.81 413.78" style="fill:#3e2468"/><polygon points="259.92 367.69 264.79 370.07 270.35 370.35 259.57 366.46 259.92 367.69" style="fill:#9379be"/><polygon points="272.9 367.57 259.57 366.46 270.35 370.35 273.32 370.49 272.9 367.57" style="fill:#947abf"/><polygon points="332.35 352.57 319.01 344.8 319.57 357.57 332.35 352.57" style="fill:#7d62a7"/><polygon points="341.63 386.7 341.63 382.85 340.68 382.57 341.63 386.7" style="fill:#4b3175"/><polygon points="356.23 387.02 348.47 384.8 350.27 391.9 356.23 387.02" style="fill:#4b3175"/><polygon points="337.02 410.8 338.1 408.15 337.61 407.37 331.23 406.46 337.02 410.8" style="fill:#3e2367"/><polygon points="304.01 353.68 316.23 339.8 299.57 342.02 304.01 353.68" style="fill:#8f74b9"/><polygon points="271.23 350.35 277.35 356.46 273.46 347.02 271.23 350.35" style="fill:#a086cb"/><polygon points="304.01 353.68 299.57 342.02 295.12 342.02 304.01 353.68" style="fill:#9379be"/><polygon points="354.77 406.56 355.09 406.83 355.12 406.46 354.77 406.56" style="fill:#351b5f"/><polygon points="328.36 423.89 332.63 422.98 327.82 418.38 328.36 423.89" style="fill:#3b2165"/><polygon points="304.01 353.68 319.01 344.8 316.23 339.8 304.01 353.68" style="fill:#896eb4"/><polygon points="299.57 342.02 294.6 337.88 293.47 337.88 295.12 342.02 299.57 342.02" style="fill:#9b81c6"/><polygon points="320.68 336.46 316.23 339.8 319.01 344.8 320.68 336.46" style="fill:#8b70b5"/><polygon points="356.23 387.02 350.27 391.9 350.5 392.83 350.53 396.5 357.9 395.91 356.23 387.02" style="fill:#43296e"/><polygon points="332.35 352.57 336.79 360.35 345.68 351.46 332.35 352.57" style="fill:#70559a"/><polygon points="271.23 350.35 272.9 367.57 277.35 356.46 271.23 350.35" style="fill:#9a80c5"/><polygon points="288.46 353.13 280.68 342.57 277.35 356.46 288.46 353.13" style="fill:#9b81c6"/><polygon points="259.57 366.46 272.9 367.57 271.23 350.35 259.57 366.46" style="fill:#9b81c6"/><polygon points="357.9 395.91 350.53 396.5 350.57 402.6 355.12 406.46 357.9 395.91" style="fill:#3e2468"/><polygon points="350.57 402.6 350.58 402.89 354.77 406.56 355.12 406.46 350.57 402.6" style="fill:#3d2367"/><polygon points="341.63 382.85 341.63 382.74 340.88 382.49 340.68 382.57 341.63 382.85" style="fill:#4e3578"/><polygon points="357.35 375.91 346.1 380.4 347.69 381.73 348.47 384.8 356.23 387.02 357.35 375.91" style="fill:#4e3578"/><polygon points="361.79 384.8 357.35 375.91 356.23 387.02 361.79 384.8" style="fill:#492f73"/><polygon points="288.46 353.13 295.12 342.02 280.68 342.57 288.46 353.13" style="fill:#9b81c6"/><polygon points="280.68 342.57 295.12 342.02 293.47 337.88 291.13 337.88 290.46 337.68 280.68 342.57" style="fill:#9f86ca"/><polygon points="319.01 344.8 332.35 352.57 334.57 343.68 319.01 344.8" style="fill:#7d63a8"/><polygon points="336.79 360.35 341.23 367.02 345.68 351.46 336.79 360.35" style="fill:#694e93"/><polygon points="277.35 356.46 280.68 342.57 273.46 347.02 277.35 356.46" style="fill:#a086cb"/><polygon points="258.34 366.4 258.66 367.07 258.7 367.09 259.57 366.46 258.34 366.4" style="fill:#a086cb"/><polygon points="301.34 337.88 294.6 337.88 299.57 342.02 301.34 337.88" style="fill:#9c81c7"/><polygon points="316.23 339.8 305.58 335.36 302.81 337.88 301.34 337.88 299.57 342.02 316.23 339.8" style="fill:#957bc0"/><polygon points="334.57 343.68 320.68 336.46 319.01 344.8 334.57 343.68" style="fill:#856ab0"/><polygon points="345.68 351.46 341.23 367.02 354.57 361.46 345.68 351.46" style="fill:#654a8f"/><polygon points="336.06 422.25 338.82 421.67 336.58 417.3 336.06 422.25" style="fill:#331a5e"/><polygon points="316.23 339.8 314.01 333.13 307.29 333.8 305.58 335.36 316.23 339.8" style="fill:#947abf"/><polygon points="341.23 370.91 357.35 375.91 354.57 361.46 341.23 370.91" style="fill:#5a3f84"/><polygon points="356.23 387.02 357.9 395.91 361.23 395.91 356.23 387.02" style="fill:#40266a"/><polygon points="354.57 361.46 357.35 375.91 361.81 374.12 361.69 373.78 362.38 372.93 354.57 361.46" style="fill:#54397e"/><polygon points="355.12 406.46 361.23 395.91 357.9 395.91 355.12 406.46" style="fill:#3b2165"/><polygon points="365.68 409.24 361.23 395.91 355.12 406.46 365.68 409.24" style="fill:#351c5f"/><polygon points="314.01 333.13 316.23 339.8 320.68 336.46 314.01 333.13" style="fill:#9075ba"/><polygon points="361.23 395.91 361.79 384.8 356.23 387.02 361.23 395.91" style="fill:#42286d"/><polygon points="258.7 367.09 259.92 367.69 259.57 366.46 258.7 367.09" style="fill:#997ec3"/><polygon points="271.23 350.35 257.35 355.35 259.57 366.46 271.23 350.35" style="fill:#a389ce"/><polygon points="364.78 382.12 362.63 376.33 361.79 384.8 364.78 382.12" style="fill:#482e72"/><polygon points="361.79 384.8 362.63 376.33 361.81 374.12 357.35 375.91 361.79 384.8" style="fill:#4c3175"/><polygon points="334.57 343.68 347.35 342.57 334.01 336.46 334.57 343.68" style="fill:#7c61a6"/><polygon points="320.68 336.46 334.57 343.68 334.01 336.46 320.68 336.46" style="fill:#846aae"/><polygon points="321.23 326.94 318.69 325.91 313.13 329.16 314.01 333.13 321.23 326.94" style="fill:#997fc4"/><polygon points="334.57 343.68 345.68 351.46 347.35 342.57 334.57 343.68" style="fill:#745a9f"/><polygon points="256.79 345.35 252.09 352.14 252.55 352.95 257.35 355.35 256.79 345.35" style="fill:#ae95da"/><polygon points="256.79 345.35 257.35 355.35 271.23 350.35 256.79 345.35" style="fill:#aa90d5"/><polygon points="354.57 361.46 356.23 352.02 345.68 351.46 354.57 361.46" style="fill:#664b90"/><polygon points="356.23 352.02 347.35 342.57 345.68 351.46 356.23 352.02" style="fill:#6d5297"/><polygon points="354.57 361.46 366.05 356.47 363.6 354.6 356.23 352.02 354.57 361.46" style="fill:#604489"/><polygon points="257.35 355.35 254.69 358.32 255.05 359.55 258.34 366.4 259.57 366.46 257.35 355.35" style="fill:#a48acf"/><polygon points="355.12 406.46 362.84 412.15 365.68 411.57 365.68 409.24 355.12 406.46" style="fill:#2f1659"/><polygon points="361.23 395.91 366.13 395.66 365.01 392.44 368.26 391.26 361.79 384.8 361.23 395.91" style="fill:#3d2367"/><polygon points="355.09 406.83 357.43 408.89 360.25 412.67 362.84 412.15 355.12 406.46 355.09 406.83" style="fill:#2f1559"/><polygon points="280.68 342.57 274.01 333.13 273.46 347.02 280.68 342.57" style="fill:#a98fd4"/><polygon points="252.55 352.95 253.75 355.11 254.69 358.32 257.35 355.35 252.55 352.95" style="fill:#aa91d5"/><polygon points="290.46 337.68 283.48 335.65 279.85 333.49 280.68 342.57 290.46 337.68" style="fill:#a78dd2"/><polygon points="280.68 342.57 279.85 333.49 277.13 331.87 276.76 331.76 274.01 333.13 280.68 342.57" style="fill:#ad93d8"/><polygon points="314.01 333.13 313.13 329.16 311.04 330.39 307.29 333.8 314.01 333.13" style="fill:#9b80c6"/><polygon points="314.01 333.13 320.68 336.46 323.85 328.01 321.23 326.94 314.01 333.13" style="fill:#9278bd"/><polygon points="320.68 336.46 334.01 336.46 330.15 330.28 327.2 329.38 323.85 328.01 320.68 336.46" style="fill:#8c72b7"/><polygon points="271.23 350.35 273.46 347.02 256.79 345.35 271.23 350.35" style="fill:#a98fd4"/><polygon points="273.46 347.02 274.01 333.13 256.79 345.35 273.46 347.02" style="fill:#ad94d9"/><polygon points="370.3 407.62 368.68 402.98 365.68 409.24 370.3 407.62" style="fill:#2e1559"/><polygon points="365.68 409.24 368.68 402.98 366.13 395.66 361.23 395.91 365.68 409.24" style="fill:#351b5f"/><polygon points="362.38 372.93 363.68 371.34 367.17 360.87 367.17 360.37 354.57 361.46 362.38 372.93" style="fill:#563c80"/><polygon points="363.68 371.34 367.17 367.07 367.17 360.87 363.68 371.34" style="fill:#51367b"/><polygon points="347.35 342.57 349.61 337.75 346.67 336.48 347.35 342.57" style="fill:#795ea4"/><polygon points="365.59 383.88 365.01 382.74 364.78 382.12 361.79 384.8 365.59 383.88" style="fill:#44296e"/><polygon points="365.68 411.57 369.01 410.9 365.68 409.24 365.68 411.57" style="fill:#291053"/><polygon points="347.35 342.57 346.67 336.48 346.46 336.39 340.84 337.88 338.3 335.1 334.01 336.46 347.35 342.57" style="fill:#7d62a7"/><polygon points="334.01 336.46 332.82 331.1 330.15 330.28 334.01 336.46" style="fill:#8f74ba"/><polygon points="347.35 342.57 356.23 352.02 355.85 343.99 354.09 340.77 347.35 342.57" style="fill:#6e5398"/><polygon points="274.01 333.13 260.62 331.21 258.66 331.87 258.33 332.04 256.79 345.35 274.01 333.13" style="fill:#b79de2"/><polygon points="276.76 331.76 273 330.6 274.01 333.13 276.76 331.76" style="fill:#b59ce0"/><polygon points="358.48 348.79 355.85 343.99 356.23 352.02 358.48 348.79" style="fill:#6b5095"/><polygon points="367.17 360.37 367.17 357.33 366.05 356.47 354.57 361.46 367.17 360.37" style="fill:#5b4084"/><polygon points="368.26 391.26 369.19 390.92 365.59 383.88 361.79 384.8 368.26 391.26" style="fill:#3e2468"/><polygon points="334.01 336.46 336.54 333.17 335.35 331.87 332.82 331.1 334.01 336.46" style="fill:#8b70b5"/><polygon points="338.3 335.1 336.54 333.17 334.01 336.46 338.3 335.1" style="fill:#8369ae"/><polygon points="347.35 342.57 354.09 340.77 353.32 339.36 349.61 337.75 347.35 342.57" style="fill:#755a9f"/><polygon points="369.01 410.9 371.28 410.45 370.3 407.62 365.68 409.24 369.01 410.9" style="fill:#291054"/><polygon points="245.49 345.99 248.84 347.33 246.79 343.68 245.49 345.99" style="fill:#b69de2"/><polygon points="256.79 345.35 246.79 343.68 248.84 347.33 249.57 347.62 252.09 352.14 256.79 345.35" style="fill:#b49be0"/><polygon points="256.79 345.35 251.61 335.36 251.01 335.65 247.85 337.3 246.79 343.68 256.79 345.35" style="fill:#bca3e8"/><polygon points="274.01 333.13 273 330.6 267.53 328.91 260.62 331.21 274.01 333.13" style="fill:#baa0e5"/><polygon points="363.6 354.6 360.25 352.03 358.48 348.79 356.23 352.02 363.6 354.6" style="fill:#64498e"/><polygon points="244.51 341.23 244.2 343.85 246.79 343.68 244.51 341.23" style="fill:#c0a7ec"/><polygon points="244.2 343.85 244.01 345.4 245.49 345.99 246.79 343.68 244.2 343.85" style="fill:#bba2e6"/><polygon points="258.33 332.04 251.61 335.36 256.79 345.35 258.33 332.04" style="fill:#bda4e9"/><polygon points="247.85 337.3 246.75 337.88 244.73 339.36 244.51 341.23 246.79 343.68 247.85 337.3" style="fill:#c3abef"/><polygon points="103.33 355.9 119.44 349.79 107.78 342.01 103.33 355.9" style="fill:#635093"/><polygon points="119.44 349.79 103.33 355.9 114.44 362.57 119.44 349.79" style="fill:#5f4b8e"/><polygon points="137.78 358.68 133.89 344.24 119.44 349.79 137.78 358.68" style="fill:#594689"/><polygon points="113.89 372.57 114.44 362.57 108.89 373.12 113.89 372.57" style="fill:#564385"/><polygon points="103.33 355.9 108.89 373.12 114.44 362.57 103.33 355.9" style="fill:#5b488a"/><polygon points="107.78 342.01 119.44 349.79 122.78 331.46 107.78 342.01" style="fill:#655295"/><polygon points="119.44 349.79 133.89 344.24 122.78 331.46 119.44 349.79" style="fill:#614e90"/><polygon points="119.44 349.79 114.44 362.57 137.78 358.68 119.44 349.79" style="fill:#584588"/><polygon points="107.78 342.01 122.78 331.46 107.78 325.35 107.78 342.01" style="fill:#6c599c"/><polygon points="103.33 355.9 107.78 342.01 86.11 343.12 103.33 355.9" style="fill:#6a579a"/><polygon points="86.11 343.12 107.78 342.01 87.78 330.9 86.11 343.12" style="fill:#715ea1"/><polygon points="103.33 355.9 85.56 374.79 108.89 373.12 103.33 355.9" style="fill:#5d498c"/><polygon points="114.44 362.57 130.56 382.01 137.78 358.68 114.44 362.57" style="fill:#503d7f"/><polygon points="107.78 342.01 107.78 325.35 87.78 330.9 107.78 342.01" style="fill:#725fa2"/><polygon points="103.33 355.9 86.11 343.12 83.33 365.35 103.33 355.9" style="fill:#695598"/><polygon points="107.78 325.35 122.78 331.46 119.93 319.11 117.33 318.53 107.78 325.35" style="fill:#705d9f"/><polygon points="133.89 344.24 136.67 330.9 122.78 331.46 133.89 344.24" style="fill:#625092"/><polygon points="133.89 344.24 152.22 334.79 136.67 330.9 133.89 344.24" style="fill:#5d4a8d"/><polygon points="83.33 365.35 86.11 343.12 78.33 342.57 83.33 365.35" style="fill:#6f5c9f"/><polygon points="86.11 343.12 87.78 330.9 78.33 342.57 86.11 343.12" style="fill:#7562a5"/><polygon points="122.78 331.46 136.67 330.9 122.87 319.78 119.93 319.11 122.78 331.46" style="fill:#6a579a"/><polygon points="107.78 325.35 101.79 321.99 89.83 328.91 88.43 329.48 87.78 330.9 107.78 325.35" style="fill:#7966a9"/><polygon points="103.33 355.9 83.33 365.35 85.56 374.79 103.33 355.9" style="fill:#624f92"/><polygon points="104.38 320.49 101.79 321.99 107.78 325.35 104.38 320.49" style="fill:#7a68aa"/><polygon points="78.33 342.57 87.78 330.9 86.19 330.39 80.74 332.61 75.56 326.95 71.45 325.62 69.22 325.42 78.33 342.57" style="fill:#7c69ac"/><polygon points="114.44 362.57 113.89 372.57 123.86 378.22 127.06 378.22 127.06 380.03 130.56 382.01 114.44 362.57" style="fill:#513e81"/><polygon points="127.06 380.03 127.06 385.51 130.56 382.01 127.06 380.03" style="fill:#4a3779"/><polygon points="118.07 378.22 123.86 378.22 113.89 372.57 118.07 378.22" style="fill:#4a3779"/><polygon points="108.89 373.12 114.57 378.22 116.81 378.22 118.07 378.22 113.89 372.57 108.89 373.12" style="fill:#4f3c7f"/><polygon points="153.89 349.24 133.89 344.24 137.78 358.68 144.25 354.88 140.12 348.99 147.91 352.03 149.13 352.03 153.89 349.24" style="fill:#544183"/><polygon points="130.56 382.01 146.67 361.46 137.78 358.68 130.56 382.01" style="fill:#4c387b"/><polygon points="117.33 318.53 110.46 316.98 104.38 320.49 107.78 325.35 117.33 318.53" style="fill:#7764a6"/><polygon points="107.65 378.22 108.37 378.22 114.57 378.22 108.89 373.12 107.65 378.22" style="fill:#4d397c"/><polygon points="71.67 364.79 83.33 365.35 78.33 342.57 71.67 364.79" style="fill:#6d5a9d"/><polygon points="71.67 364.79 85.56 374.79 83.33 365.35 71.67 364.79" style="fill:#655295"/><polygon points="153.89 349.24 149.13 352.03 152.24 352.03 153.89 349.24" style="fill:#4f3c7e"/><polygon points="137.78 358.68 146.67 361.46 147.67 359.75 144.25 354.88 137.78 358.68" style="fill:#4f3c7e"/><polygon points="133.89 344.24 153.89 349.24 152.22 334.79 133.89 344.24" style="fill:#574386"/><polygon points="135.56 310.35 127.23 313.79 123.59 319.94 122.87 319.78 136.67 330.9 135.56 310.35" style="fill:#6d599c"/><polygon points="73.89 389.79 81.77 390.06 88.36 384.59 85.56 374.79 73.89 389.79" style="fill:#5a4789"/><polygon points="108.89 373.12 85.56 374.79 88.36 384.59 96.03 378.22 103.3 378.22 108.89 373.12" style="fill:#584587"/><polygon points="103.3 378.22 107.65 378.22 108.89 373.12 103.3 378.22" style="fill:#513e81"/><polygon points="151.67 311.46 135.56 310.35 136.67 330.9 151.67 311.46" style="fill:#695698"/><polygon points="130.56 382.01 142.27 377.65 137.52 374.44 149.15 365.18 146.67 361.46 130.56 382.01" style="fill:#473376"/><polygon points="148.76 361.3 147.67 359.75 146.67 361.46 148.76 361.3" style="fill:#4a377a"/><polygon points="152.24 352.03 157.71 352.03 153.89 349.24 152.24 352.03" style="fill:#4a377a"/><polygon points="130.56 382.01 127.06 385.51 127.06 388.85 133.89 393.12 130.56 382.01" style="fill:#433172"/><polygon points="127.06 388.85 127.06 397.96 133.89 393.12 127.06 388.85" style="fill:#412e70"/><polygon points="88.43 329.48 86.19 330.39 87.78 330.9 88.43 329.48" style="fill:#7f6caf"/><polygon points="75.56 326.95 74.6 325.91 71.45 325.62 75.56 326.95" style="fill:#7f6caf"/><polygon points="62.22 363.12 71.67 364.79 58.33 350.35 62.22 363.12" style="fill:#7260a2"/><polygon points="152.22 390.9 152.97 384.9 142.27 377.65 130.56 382.01 152.22 390.9" style="fill:#402d6f"/><polygon points="71.67 364.79 69.44 378.68 85.56 374.79 71.67 364.79" style="fill:#655294"/><polygon points="71.67 364.79 62.22 363.12 69.44 378.68 71.67 364.79" style="fill:#6b579b"/><polygon points="71.67 364.79 78.33 342.57 58.33 350.35 71.67 364.79" style="fill:#7461a4"/><polygon points="132.55 308.92 129.8 309.45 127.23 313.79 135.56 310.35 132.55 308.92" style="fill:#7664a6"/><polygon points="58.33 350.35 78.33 342.57 69.22 325.42 68.65 325.37 58.33 350.35" style="fill:#7d6aad"/><polygon points="69.44 378.68 73.89 389.79 85.56 374.79 69.44 378.68" style="fill:#604c8f"/><polygon points="56.67 393.68 73.89 389.79 69.44 378.68 56.67 393.68" style="fill:#604d90"/><polygon points="152.22 334.79 153.89 349.24 160.39 340.34 160.12 334.79 152.22 334.79" style="fill:#544183"/><polygon points="152.22 334.79 151.67 311.46 136.67 330.9 152.22 334.79" style="fill:#624e91"/><polygon points="157.71 352.03 160.97 352.03 160.79 348.55 153.89 349.24 157.71 352.03" style="fill:#4a377a"/><polygon points="160.79 348.55 160.39 340.34 153.89 349.24 160.79 348.55" style="fill:#503d7f"/><polygon points="136.2 308.22 132.55 308.92 135.56 310.35 136.2 308.22" style="fill:#7765a7"/><polygon points="152.22 334.79 160.64 326.07 163.67 316.84 163.13 316.59 155.48 319.94 155.48 313.17 151.67 311.46 152.22 334.79" style="fill:#5f4b8e"/><polygon points="133.89 393.12 152.22 390.9 130.56 382.01 133.89 393.12" style="fill:#3f2c6e"/><polygon points="149.15 365.18 150.65 363.99 148.76 361.3 146.67 361.46 149.15 365.18" style="fill:#463275"/><polygon points="152.22 390.9 133.89 393.12 138.44 401.22 141.63 399.73 152.22 390.9" style="fill:#3a2769"/><polygon points="127.06 397.96 127.06 399.22 127.59 402.36 136.59 402.08 138.44 401.22 133.89 393.12 127.06 397.96" style="fill:#3c2a6b"/><polygon points="52.22 328.68 58.33 350.35 68.65 325.37 67.05 325.22 52.22 328.68" style="fill:#8471b4"/><polygon points="151.67 311.46 141.83 300.28 137.52 307.97 136.2 308.22 135.56 310.35 151.67 311.46" style="fill:#6f5c9e"/><polygon points="128.21 406 136.59 402.08 127.59 402.36 128.21 406" style="fill:#372567"/><polygon points="52.22 328.68 67.05 325.22 65.58 325.09 53.55 325.09 52.22 328.68" style="fill:#8b79bb"/><polygon points="80.74 397.7 77.83 396.98 80.74 402.28 80.74 397.7" style="fill:#544083"/><polygon points="73.89 389.79 74.55 391 74.6 390.92 80.74 390.92 81.77 390.06 73.89 389.79" style="fill:#544083"/><polygon points="156.28 387.13 152.97 384.9 152.22 390.9 156.28 387.13" style="fill:#3c296a"/><polygon points="160.12 334.79 159.81 328.6 160.64 326.07 152.22 334.79 160.12 334.79" style="fill:#594588"/><polygon points="151.67 311.46 150 293.12 146.51 294.59 143.79 296.78 141.83 300.28 151.67 311.46" style="fill:#715da0"/><polygon points="74.04 391.84 74.55 391 73.89 389.79 74.04 391.84" style="fill:#513e80"/><polygon points="75.17 407.31 80.74 403.59 80.74 402.28 77.83 396.98 74.35 396.12 75.17 407.31" style="fill:#513e80"/><polygon points="52.22 381.46 69.44 378.68 62.22 363.12 52.22 381.46" style="fill:#6b579a"/><polygon points="62.22 363.12 37.22 370.9 52.22 381.46 62.22 363.12" style="fill:#715ea0"/><polygon points="62.22 363.12 58.33 350.35 36.67 355.9 62.22 363.12" style="fill:#7a66a9"/><polygon points="153.46 391.19 157.5 387.96 156.28 387.13 152.22 390.9 153.46 391.19" style="fill:#352263"/><polygon points="141.63 399.73 144.37 398.44 151.84 392.48 152.22 390.9 141.63 399.73" style="fill:#352364"/><polygon points="69.44 378.68 52.22 381.46 56.67 393.68 69.44 378.68" style="fill:#655294"/><polygon points="58.33 350.35 52.22 328.68 41.11 348.68 58.33 350.35" style="fill:#8371b3"/><polygon points="41.11 348.68 52.22 328.68 47.26 327.89 41.34 337.88 39.95 339.37 41.11 348.68" style="fill:#8b79bb"/><polygon points="166.67 293.12 150 293.12 151.67 311.46 166.67 293.12" style="fill:#6e5a9d"/><polygon points="56.67 393.68 72.1 409.12 72.51 409.08 75.17 407.31 74.35 396.12 71.79 395.48 74.04 391.84 73.89 389.79 56.67 393.68" style="fill:#584587"/><polygon points="52.22 328.68 53.55 325.09 50.5 325.09 52.22 328.68" style="fill:#917fc1"/><polygon points="58.33 350.35 41.11 348.68 36.67 355.9 58.33 350.35" style="fill:#806db0"/><polygon points="38.89 390.35 42.2 394.48 48.92 392.44 50.29 399.22 53.69 402.62 56.67 393.68 38.89 390.35" style="fill:#624f91"/><polygon points="29.44 357.57 36.67 355.9 25.77 348.23 24.3 349.48 29.44 357.57" style="fill:#8674b7"/><polygon points="150 293.12 149.3 292.35 146.51 294.59 150 293.12" style="fill:#7866a8"/><polygon points="152.64 391.84 153.46 391.19 152.22 390.9 152.64 391.84" style="fill:#2f1c5e"/><polygon points="151.84 392.48 152.64 391.84 152.22 390.9 151.84 392.48" style="fill:#301e5f"/><polygon points="166.67 293.12 151.67 311.46 155.48 313.17 155.48 307.23 167.36 309.02 166.67 293.12" style="fill:#665295"/><polygon points="163.85 316.27 163.13 316.59 163.67 316.84 163.85 316.27" style="fill:#665295"/><polygon points="62.22 363.12 36.67 355.9 37.22 370.9 62.22 363.12" style="fill:#7966a8"/><polygon points="56.67 393.68 53.69 402.62 59.9 408.84 63.98 409.81 72.1 409.12 56.67 393.68" style="fill:#584587"/><polygon points="50.5 325.09 48.92 325.09 47.26 327.89 52.22 328.68 50.5 325.09" style="fill:#927fc2"/><polygon points="150 293.12 150.06 291.74 149.3 292.35 150 293.12" style="fill:#7b68aa"/><polygon points="167.36 309.02 170.49 309.49 171.43 300.65 166.67 293.12 167.36 309.02" style="fill:#624f92"/><polygon points="38.89 390.35 56.67 393.68 52.22 381.46 38.89 390.35" style="fill:#675496"/><polygon points="166.67 293.12 163.13 290.2 162.41 290.77 161.66 288.98 157.63 285.65 150.06 291.74 150 293.12 166.67 293.12" style="fill:#7461a3"/><polygon points="37.22 370.9 38.89 390.35 52.22 381.46 37.22 370.9" style="fill:#6f5b9e"/><polygon points="37.22 370.9 36.67 355.9 29.44 357.57 37.22 370.9" style="fill:#7f6caf"/><polygon points="36.67 355.9 41.11 348.68 26.81 346.23 26.26 347.82 25.77 348.23 36.67 355.9" style="fill:#8674b6"/><polygon points="41.11 348.68 39.95 339.37 34.99 344.66 26.84 346.14 26.81 346.23 41.11 348.68" style="fill:#8d7abd"/><polygon points="38.89 390.35 37.22 370.9 31.67 373.68 38.89 390.35" style="fill:#7460a3"/><polygon points="37.22 370.9 29.44 357.57 31.67 373.68 37.22 370.9" style="fill:#7c69ac"/><polygon points="171.43 300.65 172.01 295.15 166.67 293.12 171.43 300.65" style="fill:#645093"/><polygon points="31.67 389.24 31.67 373.68 12.22 378.68 31.67 389.24" style="fill:#7764a7"/><polygon points="38.89 390.35 31.67 373.68 31.67 389.24 38.89 390.35" style="fill:#705da0"/><polygon points="29.44 357.57 13.89 360.35 31.67 373.68 29.44 357.57" style="fill:#826eb2"/><polygon points="168.38 285.99 163.13 290.2 166.67 293.12 168.38 285.99" style="fill:#7461a4"/><polygon points="159.6 284.06 157.63 285.65 161.66 288.98 159.6 284.06" style="fill:#7461a4"/><polygon points="61.11 410.06 63.98 409.81 59.9 408.84 61.11 410.06" style="fill:#534082"/><polygon points="166.67 293.12 183.33 280.35 176.16 279.75 168.38 285.99 166.67 293.12" style="fill:#6f5c9e"/><polygon points="183.33 280.35 166.67 293.12 172.01 295.15 172.08 294.56 178.21 294.56 182.89 295.48 183.33 280.35" style="fill:#695698"/><polygon points="38.18 397.04 41.34 394.74 42.2 394.48 38.89 390.35 38.18 397.04" style="fill:#614e90"/><polygon points="31.67 389.24 34.09 400.02 38.18 397.04 38.89 390.35 31.67 389.24" style="fill:#685597"/><polygon points="31.67 389.24 21.67 401.46 27.59 405.4 32.25 401.37 34.09 400.02 31.67 389.24" style="fill:#685598"/><polygon points="29.44 357.57 24.3 349.48 19.99 353.12 16.04 356.19 13.89 360.35 29.44 357.57" style="fill:#8977b9"/><polygon points="16.04 356.19 13.89 357.88 13.89 360.35 16.04 356.19" style="fill:#8d7bbe"/><polygon points="182.89 295.48 185.14 295.92 185.84 296.52 189.74 293.05 190.12 290.77 192.62 283.92 183.33 280.35 182.89 295.48" style="fill:#665295"/><polygon points="31.67 373.68 13.89 360.35 13.81 361.16 17.24 363.84 17.24 369.84 12.92 370.99 12.22 378.68 31.67 373.68" style="fill:#7f6db0"/><polygon points="0.56 394.24 6.11 393.68 12.22 378.68 10.53 380.93 10.53 381.14 10.38 381.14 0.56 394.24" style="fill:#7b67ab"/><polygon points="21.67 401.46 31.67 389.24 12.22 378.68 21.67 401.46" style="fill:#735fa2"/><polygon points="182.17 274.93 176.16 279.75 183.33 280.35 182.17 274.93" style="fill:#715ea1"/><polygon points="187.19 277.11 183.04 274.24 182.17 274.93 183.33 280.35 187.19 277.11" style="fill:#6e5c9e"/><polygon points="13.89 357.88 12.19 359.2 11.76 359.51 11.76 359.55 12.49 360.12 13.89 360.35 13.89 357.88" style="fill:#8f7dc0"/><polygon points="188.75 299 189.74 293.05 185.84 296.52 188.75 299" style="fill:#5f4b8e"/><polygon points="13.89 409.24 22.23 410.05 27.59 405.4 21.67 401.46 13.89 409.24" style="fill:#675496"/><polygon points="21.67 401.46 12.22 378.68 6.11 393.68 21.67 401.46" style="fill:#7662a6"/><polygon points="13.31 360.76 13.81 361.16 13.89 360.35 13.31 360.76" style="fill:#8573b5"/><polygon points="12.92 370.99 10.53 371.63 10.53 378.17 12.22 378.68 12.92 370.99" style="fill:#8573b5"/><polygon points="6.11 393.68 13.89 409.24 21.67 401.46 6.11 393.68" style="fill:#6f5c9f"/><polygon points="16.3 413.66 19.34 412.55 22.23 410.05 13.89 409.24 16.3 413.66" style="fill:#614e91"/><polygon points="12.49 360.12 13.31 360.76 13.89 360.35 12.49 360.12" style="fill:#8d7bbd"/><polygon points="13.89 409.24 6.11 393.68 0.92 401.15 1.47 407.17 13.89 409.24" style="fill:#715fa1"/><polygon points="10.53 378.17 10.53 380.93 12.22 378.68 10.53 378.17" style="fill:#806eb0"/><polygon points="10.38 381.14 1.66 381.14 0 386.48 0.34 393.35 0.56 394.24 10.38 381.14" style="fill:#806eb0"/><polygon points="192.62 283.92 192.86 283.28 187.95 277.63 187.19 277.11 183.33 280.35 192.62 283.92" style="fill:#6a5699"/><polygon points="12.07 415.22 16.3 413.66 13.89 409.24 12.07 415.22" style="fill:#655294"/><polygon points="12.07 415.22 13.89 409.24 1.47 407.17 1.66 409.2 8.08 416.68 12.07 415.22" style="fill:#6b599b"/><polygon points="0.39 394.29 0.41 394.77 0.56 394.24 0.39 394.29" style="fill:#7663a6"/><polygon points="0.56 394.24 0.41 394.77 0.51 396.69 0.92 401.15 6.11 393.68 0.56 394.24" style="fill:#7764a7"/><polygon points="0.34 393.35 0.38 394.22 0.56 394.24 0.34 393.35" style="fill:#7f6cae"/><polygon points="0.38 394.22 0.39 394.29 0.56 394.24 0.38 394.22" style="fill:#7966a8"/><polygon points="249.55 231.05 271.77 252.71 277.33 226.05 249.55 231.05" style="fill:#5f5495"/><polygon points="247.89 254.38 271.77 252.71 249.55 231.05 247.89 254.38" style="fill:#5f5394"/><polygon points="271.77 252.71 298.44 256.6 277.33 226.05 271.77 252.71" style="fill:#5a4f90"/><polygon points="271.77 252.71 277.84 290.01 279.15 290.77 281.17 292.64 298.44 256.6 271.77 252.71" style="fill:#524788"/><polygon points="237.89 196.6 249.55 231.05 277.33 226.05 237.89 196.6" style="fill:#675c9d"/><polygon points="312.89 219.38 287.33 196.05 277.33 226.05 312.89 219.38" style="fill:#615697"/><polygon points="277.33 226.05 287.33 196.05 237.89 196.6 277.33 226.05" style="fill:#685e9e"/><polygon points="249.55 231.05 202.89 257.16 213.97 256.47 214.36 254.89 221.03 256.04 233.04 255.3 237.16 251.14 242.39 254.72 247.89 254.38 249.55 231.05" style="fill:#635798"/><polygon points="298.44 256.6 312.89 219.38 277.33 226.05 298.44 256.6" style="fill:#5a4f90"/><polygon points="208.44 216.6 249.55 231.05 237.89 196.6 208.44 216.6" style="fill:#6c62a3"/><polygon points="247.89 254.38 270.87 285.99 277.84 290.01 271.77 252.71 247.89 254.38" style="fill:#564b8c"/><polygon points="245.17 268.33 253.75 282.5 254.47 277.63 266.74 283.6 270.87 285.99 247.89 254.38 245.17 268.33" style="fill:#54498a"/><polygon points="243.22 258.44 244.73 267.61 245.17 268.33 247.89 254.38 243.22 258.44" style="fill:#594e8f"/><polygon points="202.89 257.16 249.55 231.05 208.44 216.6 202.89 257.16" style="fill:#695e9f"/><polygon points="208.44 216.6 181.22 250.49 202.89 257.16 208.44 216.6" style="fill:#6b60a2"/><polygon points="208.44 216.6 237.89 196.6 204 206.6 208.44 216.6" style="fill:#7267a8"/><polygon points="287.33 196.05 281.22 169.94 237.89 196.6 287.33 196.05" style="fill:#6d63a4"/><polygon points="237.89 196.6 207.89 172.71 204 206.6 237.89 196.6" style="fill:#766cad"/><polygon points="281.22 169.94 287.33 196.05 296.07 178.09 292.71 176.14 297.5 175.15 307.33 154.94 281.22 169.94" style="fill:#6d62a3"/><polygon points="312.89 219.38 321.52 195.09 320.56 194.44 287.33 196.05 312.89 219.38" style="fill:#615697"/><polygon points="298.44 256.6 281.17 292.64 285.64 296.78 285.64 298.45 299 301.05 298.44 256.6" style="fill:#4c4182"/><polygon points="354 253.82 312.89 219.38 298.44 256.6 354 253.82" style="fill:#524788"/><polygon points="344.53 205.65 342.28 207.83 340.45 211.55 356.22 226.05 344.53 205.65" style="fill:#5c5192"/><polygon points="331.96 202.49 325.99 198.26 331.74 203.54 331.96 202.49" style="fill:#5c5192"/><polygon points="285.64 298.45 285.64 303.52 290.4 303.52 291.13 307.97 291.22 308.18 299 301.05 285.64 298.45" style="fill:#473c7d"/><polygon points="221.03 256.04 230.66 257.7 233.04 255.3 221.03 256.04" style="fill:#605496"/><polygon points="202.89 257.16 203.75 261.54 203.82 261.56 206.64 257.85 213.64 257.85 213.97 256.47 202.89 257.16" style="fill:#605496"/><polygon points="242.39 254.72 242.64 254.89 243.22 258.44 247.89 254.38 242.39 254.72" style="fill:#605496"/><polygon points="198.9 260.23 203.75 261.54 202.89 257.16 198.9 260.23" style="fill:#625797"/><polygon points="169 231.05 181.22 250.49 208.44 216.6 169 231.05" style="fill:#7066a6"/><polygon points="340.45 211.55 335.35 221.92 333.28 222.52 356.22 226.05 340.45 211.55" style="fill:#5a4f90"/><polygon points="330.51 222.09 334.7 213.73 330.38 210.02 331.74 203.54 325.99 198.26 321.72 195.23 321.52 195.09 312.89 219.38 330.51 222.09" style="fill:#5a4f90"/><polygon points="297.5 175.15 309.74 172.59 312.48 168.99 307.33 154.94 297.5 175.15" style="fill:#685d9e"/><polygon points="320.56 194.44 310.46 187.58 300.72 180.79 296.07 178.09 287.33 196.05 320.56 194.44" style="fill:#685d9e"/><polygon points="244.55 148.27 207.89 172.71 237.89 196.6 244.55 148.27" style="fill:#796fb0"/><polygon points="169 231.05 208.44 216.6 204 206.6 169 231.05" style="fill:#7369a9"/><polygon points="355.66 287.71 354 253.82 298.44 256.6 355.66 287.71" style="fill:#493e7e"/><polygon points="299 301.05 355.66 287.71 298.44 256.6 299 301.05" style="fill:#483d7d"/><polygon points="237.89 196.6 281.22 169.94 244.55 148.27 237.89 196.6" style="fill:#756bab"/><polygon points="281.22 169.94 254.55 130.49 244.55 148.27 281.22 169.94" style="fill:#7a71b1"/><polygon points="354 253.82 356.22 226.05 333.28 222.52 329.8 223.52 330.51 222.09 312.89 219.38 354 253.82" style="fill:#524787"/><polygon points="312.48 168.99 313.2 168.02 317.87 167.35 307.33 154.94 312.48 168.99" style="fill:#665c9c"/><polygon points="204 206.6 170.11 201.6 169 231.05 204 206.6" style="fill:#776dad"/><polygon points="299 301.05 291.22 308.18 293.36 312.84 292.67 321.49 305.27 323.42 306.23 319.59 299 301.05" style="fill:#433878"/><polygon points="207.89 172.71 170.11 201.6 204 206.6 207.89 172.71" style="fill:#7a70b1"/><polygon points="292.67 321.49 292.5 323.68 296.61 328.91 300.72 326.65 305.27 323.45 305.27 323.42 292.67 321.49" style="fill:#3d3272"/><polygon points="181.22 250.49 172.77 267.14 179.58 265.38 188.75 261.56 195.6 259.33 198.9 260.23 202.89 257.16 181.22 250.49" style="fill:#675c9d"/><polygon points="355.66 287.71 299 301.05 306.23 319.59 307.07 316.24 313.93 319.16 313.93 316.24 309.6 309.72 317.53 300.6 326.18 310 355.66 287.71" style="fill:#423676"/><polygon points="376.77 239.38 366.28 192.17 365.14 191.39 356.22 226.05 376.77 239.38" style="fill:#514687"/><polygon points="202.33 124.94 168.44 164.94 207.89 172.71 202.33 124.94" style="fill:#877dbd"/><polygon points="207.89 172.71 168.44 164.94 170.11 201.6 207.89 172.71" style="fill:#8177b7"/><polygon points="280.66 117.16 254.55 130.49 281.22 169.94 280.66 117.16" style="fill:#7b71b2"/><polygon points="336.72 157.64 342.99 156.47 334.34 156.09 336.72 157.64" style="fill:#695d9e"/><polygon points="317.87 167.35 323.52 166.54 329.8 170.37 330.38 174.78 336.43 176.19 336.63 175.79 335.35 169.51 331.24 167.28 329.8 159.12 331.3 155.96 307.33 154.94 317.87 167.35" style="fill:#695d9e"/><polygon points="365.14 191.39 361.19 188.71 358.05 188.24 355.41 188.32 351.88 198.51 344.53 205.65 356.22 226.05 365.14 191.39" style="fill:#5a4f8f"/><polygon points="356.22 226.05 354 253.82 376.77 239.38 356.22 226.05" style="fill:#4c4181"/><polygon points="354 253.82 372.09 261.44 373.3 258.59 375.48 257.45 376.77 239.38 354 253.82" style="fill:#483c7c"/><polygon points="307.33 154.94 304 132.16 281.22 169.94 307.33 154.94" style="fill:#7268a9"/><polygon points="307.33 154.94 331.3 155.96 331.96 154.56 334.34 156.09 342.99 156.47 345.25 156.04 304 132.16 307.33 154.94" style="fill:#6f65a6"/><polygon points="355.66 287.71 372.42 266.17 370.78 264.52 372.09 261.44 354 253.82 355.66 287.71" style="fill:#443979"/><polygon points="360.39 188.16 358.05 188.24 361.19 188.71 360.39 188.16" style="fill:#615697"/><polygon points="336.72 176.26 336.63 175.79 336.43 176.19 336.72 176.26" style="fill:#615697"/><polygon points="181.22 250.49 157.5 262.71 157.5 266.86 162.41 269.83 172.77 267.14 181.22 250.49" style="fill:#6a5fa0"/><polygon points="146.78 236.6 181.22 250.49 169 231.05 146.78 236.6" style="fill:#7368a9"/><polygon points="170.11 201.6 146.78 236.6 169 231.05 170.11 201.6" style="fill:#786dae"/><polygon points="355.66 287.71 326.18 310 332.61 316.98 334.7 316.98 331.96 307.97 340.68 318.75 355.66 287.71" style="fill:#3c3171"/><polygon points="370.26 299.07 370.78 296.7 375.62 299.77 375.19 268.98 372.42 266.17 355.66 287.71 370.26 299.07" style="fill:#3e3272"/><polygon points="134 203.82 146.78 236.6 170.11 201.6 134 203.82" style="fill:#7d72b3"/><polygon points="244.55 148.27 202.33 124.94 207.89 172.71 244.55 148.27" style="fill:#8379b9"/><polygon points="304 132.16 280.66 117.16 281.22 169.94 304 132.16" style="fill:#786eae"/><polygon points="254.55 130.49 202.33 124.94 244.55 148.27 254.55 130.49" style="fill:#847abb"/><polygon points="300.66 99.38 280.66 117.16 304 132.16 300.66 99.38" style="fill:#7e74b4"/><polygon points="181.22 250.49 146.78 236.6 145.08 261.56 157.5 261.56 157.5 262.71 181.22 250.49" style="fill:#7065a6"/><polygon points="340.68 318.75 346.19 325.56 368.08 309 370.26 299.07 355.66 287.71 340.68 318.75" style="fill:#3a2f6e"/><polygon points="375.48 257.45 380.38 254.89 380.88 261.69 388.77 260.29 386.58 257.11 382.88 244.32 376.77 239.38 375.48 257.45" style="fill:#443979"/><polygon points="254.55 130.49 241.08 94.12 240.34 93.31 230.84 93.31 202.33 124.94 254.55 130.49" style="fill:#8b82c2"/><polygon points="146.78 236.6 118.54 235.84 120.2 241.43 123.59 242.17 128.86 254.11 137.01 256.68 143 261.56 145.08 261.56 146.78 236.6" style="fill:#766cad"/><polygon points="121.27 249.09 121.72 249.04 112.63 240.77 117.13 235.8 105.66 235.49 121.27 249.09" style="fill:#766cad"/><polygon points="170.11 201.6 168.44 164.94 134 203.82 170.11 201.6" style="fill:#8379b9"/><polygon points="168.44 164.94 129.55 162.71 134 203.82 168.44 164.94" style="fill:#8980c0"/><polygon points="380.38 302.78 380.08 305.45 412.89 321.6 409.8 312.49 406.64 313.16 403.18 313.16 402.45 302.24 389.97 299.7 385.86 298.26 385.39 296.35 378.25 301.43 380.38 302.78" style="fill:#332868"/><polygon points="381.1 264.64 389.32 272.05 392.28 265.38 388.77 260.29 380.88 261.69 381.1 264.64" style="fill:#3e3373"/><polygon points="397.41 173.54 389.32 180.05 394.1 187.46 406.77 186.6 397.41 173.54" style="fill:#594e8e"/><polygon points="280.66 117.16 252.04 95.97 248.03 99.86 245.28 98.67 241.08 94.12 254.55 130.49 280.66 117.16" style="fill:#877dbe"/><polygon points="348.44 114.94 300.66 99.38 304 132.16 348.44 114.94" style="fill:#796fb0"/><polygon points="284.55 94.94 280.66 117.16 300.66 99.38 284.55 94.94" style="fill:#8379b9"/><polygon points="378.25 301.43 385.39 296.35 379.87 273.69 375.19 268.98 375.62 299.77 378.25 301.43" style="fill:#3c3070"/><polygon points="379.43 311.78 379 316.24 382.67 319.11 379.43 311.78" style="fill:#2d2363"/><polygon points="304 132.16 345.25 156.04 346.26 155.85 348.44 114.94 304 132.16" style="fill:#7166a6"/><polygon points="362.26 172.59 369.19 172.59 378.36 166.54 382.15 160.38 350.54 157.06 362.26 172.59" style="fill:#605595"/><polygon points="406.77 186.6 394.1 187.46 400.43 197.3 389.32 203.23 385.86 212.99 381.1 206.94 383.05 197.77 381.1 192.77 367.17 192.77 366.28 192.17 376.77 239.38 406.77 186.6" style="fill:#524788"/><polygon points="348.44 114.94 346.26 155.85 346.85 155.74 371.77 121.6 348.44 114.94" style="fill:#6d63a4"/><polygon points="202.33 124.94 183.23 124.94 181.67 125.35 171.36 130.62 171.36 138.16 172.08 143.35 170.71 147.18 167.97 147.18 166.99 147.45 168.44 164.94 202.33 124.94" style="fill:#8e85c5"/><polygon points="197.78 119.23 195.6 121.64 183.23 124.94 202.33 124.94 197.78 119.23" style="fill:#968dcd"/><polygon points="382.88 244.32 382.47 242.91 388.05 234.75 376.77 239.38 382.88 244.32" style="fill:#453a7a"/><polygon points="397.46 230.9 397.76 230.9 410.16 239.84 420.11 221.6 397.46 230.9" style="fill:#453a7a"/><polygon points="406.77 186.6 376.77 239.38 388.05 234.75 390.69 230.9 397.46 230.9 420.11 221.6 406.77 186.6" style="fill:#4b4081"/><polygon points="284.55 94.94 258.71 89.71 258.48 89.74 252.04 95.97 280.66 117.16 284.55 94.94" style="fill:#887fbf"/><polygon points="168.44 164.94 155.62 151.34 154.11 152.33 154.29 149.93 142.74 137.69 134.85 149.73 129.55 162.71 168.44 164.94" style="fill:#8f87c7"/><polygon points="420.11 221.6 410.16 239.84 410.25 239.91 419.12 237.8 426.7 232.42 428.28 240.69 428.35 240.72 441.22 232.71 420.11 221.6" style="fill:#423677"/><polygon points="348.44 114.94 341.18 96.78 338.1 97.66 337.45 101.34 329.8 103.56 330.31 94.3 300.66 99.38 348.44 114.94" style="fill:#7b71b2"/><polygon points="346.85 155.74 349.21 155.3 350.54 157.06 382.15 160.38 382.47 159.87 386.66 156.83 371.77 121.6 346.85 155.74" style="fill:#665b9c"/><polygon points="371.77 121.6 386.66 156.83 392.86 152.33 399.13 149.56 418.44 128.82 371.77 121.6" style="fill:#64599a"/><polygon points="134 203.82 105.66 235.49 117.13 235.8 118.18 234.64 118.54 235.84 146.78 236.6 134 203.82" style="fill:#7e74b4"/><polygon points="134 203.82 95.66 206.05 105.66 235.49 134 203.82" style="fill:#857bbb"/><polygon points="230.84 93.31 225.31 93.31 217.24 98.13 219.84 104.3 213.64 107.39 209.38 108.87 204.33 110.51 202.33 124.94 230.84 93.31" style="fill:#938aca"/><polygon points="346.19 325.56 346.46 325.91 356.06 335.65 368.54 322.16 367.17 313.16 368.08 309 346.19 325.56" style="fill:#322767"/><polygon points="154.62 145.46 155.48 139.64 148.56 137.3 143 137.3 142.74 137.69 154.29 149.93 154.62 145.46" style="fill:#9188c8"/><polygon points="166.99 147.45 157.5 150.11 155.62 151.34 168.44 164.94 166.99 147.45" style="fill:#9188c8"/><polygon points="370.6 88 368.76 88.45 371.82 82.12 353.4 88.17 351.95 90.87 348.49 94.7 341.18 96.78 348.44 114.94 370.6 88" style="fill:#786dae"/><polygon points="282.89 73.93 280.65 76.55 277.19 86.52 284.55 94.94 282.89 73.93" style="fill:#9087c8"/><polygon points="277.19 86.52 276.07 89.74 266.73 88.55 258.71 89.71 284.55 94.94 277.19 86.52" style="fill:#9087c7"/><polygon points="105.66 235.49 105.44 251 121.27 249.09 105.66 235.49" style="fill:#766bac"/><polygon points="417.33 162.16 411.08 161.92 411.62 168.02 400.43 171.11 397.41 173.54 406.77 186.6 417.33 162.16" style="fill:#594d8e"/><polygon points="371.77 121.6 375.77 88.78 374.03 87.16 370.6 88 348.44 114.94 371.77 121.6" style="fill:#7368a9"/><polygon points="417.33 162.16 406.77 186.6 438.44 194.38 417.33 162.16" style="fill:#524787"/><polygon points="412.99 347.62 410.25 340.1 401.79 342.82 412.99 348.53 412.99 347.62" style="fill:#271d5d"/><polygon points="391.75 336.4 392.28 337.88 392.26 337.97 400.95 342.4 401.08 335.65 400.43 330.39 401.8 329.65 408.15 331.87 414.3 327.6 412.89 321.6 391.75 336.4" style="fill:#271d5d"/><polygon points="380.08 305.45 379.73 308.71 379.43 311.78 382.67 319.11 386.58 322.16 391.75 336.4 412.89 321.6 380.08 305.45" style="fill:#2f2464"/><polygon points="438.44 194.38 406.77 186.6 420.11 221.6 438.44 194.38" style="fill:#4c4181"/><polygon points="105.66 235.49 83.44 252.16 83.62 252.35 95.31 258.59 104.26 251.14 105.44 251 105.66 235.49" style="fill:#7b71b1"/><polygon points="129.55 162.71 95.66 206.05 134 203.82 129.55 162.71" style="fill:#8a81c1"/><polygon points="129.55 162.71 127.52 160.91 124.31 165.8 106.52 173.49 95.66 206.05 129.55 162.71" style="fill:#9188c8"/><polygon points="204.33 110.51 202.53 111.1 198.99 117.89 197.78 119.23 202.33 124.94 204.33 110.51" style="fill:#968ece"/><polygon points="134.85 149.73 127.52 160.91 129.55 162.71 134.85 149.73" style="fill:#958ccc"/><polygon points="428.35 240.72 438.77 245.13 441.22 232.71 428.35 240.72" style="fill:#3c3171"/><polygon points="300.66 99.38 287.72 68.31 282.89 73.93 284.55 94.94 300.66 99.38" style="fill:#8980c0"/><polygon points="441.22 232.71 438.44 194.38 420.11 221.6 441.22 232.71" style="fill:#463a7a"/><polygon points="105.66 235.49 75.66 222.16 83.44 252.16 105.66 235.49" style="fill:#8278ba"/><polygon points="311.94 72.38 306.49 72.38 297.79 64.94 287.8 68.21 287.72 68.31 300.66 99.38 311.94 72.38" style="fill:#8c82c3"/><polygon points="95.66 206.05 75.66 222.16 105.66 235.49 95.66 206.05" style="fill:#867cbd"/><polygon points="106.52 173.49 103.53 174.78 91.92 196.56 84.31 202.1 95.66 206.05 106.52 173.49" style="fill:#9087c8"/><polygon points="399.13 149.56 404.55 147.18 415.01 142.61 418.08 139.76 418.44 128.82 399.13 149.56" style="fill:#5d5293"/><polygon points="417.56 155.14 410.89 159.87 411.08 161.92 417.33 162.16 417.56 155.14" style="fill:#5d5293"/><polygon points="330.31 94.3 330.38 93.21 334.7 93.21 338.27 89.55 331.54 72.94 321.43 72.38 311.94 72.38 300.66 99.38 330.31 94.3" style="fill:#847aba"/><polygon points="418.08 139.76 422.59 135.57 418.44 128.82 418.08 139.76" style="fill:#5a4e8f"/><polygon points="440.66 164.94 439.05 162.31 432.39 160.61 435 155.73 429.46 146.72 417.56 155.14 417.33 162.16 440.66 164.94" style="fill:#5a4e8f"/><polygon points="83.44 252.25 83.62 252.35 83.44 252.16 83.44 252.25" style="fill:#776dae"/><polygon points="438.77 245.13 440.62 245.92 439.25 260.82 444 266.62 480.02 256.67 477.92 250.4 486.22 250.83 486.82 254.79 489.58 254.03 489.15 251.99 441.22 232.71 438.77 245.13" style="fill:#372c6c"/><polygon points="438.44 194.38 450.35 193.51 448.12 186.1 443.36 191.95 439.25 183.87 443.94 177.78 442.35 166.55 440.66 164.94 438.44 194.38" style="fill:#4b4081"/><polygon points="456.85 180.49 455.92 182.94 456.31 193.08 469 192.16 456.85 180.49" style="fill:#4b4081"/><polygon points="417.54 316.8 413.64 311.67 409.8 312.49 412.89 321.6 417.54 316.8" style="fill:#312565"/><polygon points="95.66 206.05 84.31 202.1 82.76 203.23 82.31 203.26 75.66 222.16 95.66 206.05" style="fill:#8b82c2"/><polygon points="441.22 232.71 469 192.16 456.31 193.08 456.57 199.52 452.38 200.26 450.35 193.51 438.44 194.38 441.22 232.71" style="fill:#453a7a"/><polygon points="440.66 164.94 417.33 162.16 438.44 194.38 440.66 164.94" style="fill:#524687"/><polygon points="390.72 113.82 392.28 107.39 392.28 101.34 390.69 97.66 383.62 101.77 379.29 98.99 379.73 92.47 375.77 88.78 371.77 121.6 390.72 113.82" style="fill:#6f65a5"/><polygon points="418.67 322.85 420.49 320.68 417.54 316.8 412.89 321.6 418.67 322.85" style="fill:#291f5e"/><polygon points="390.98 346.41 400.43 352.03 400.58 352.16 412.99 352.16 412.99 348.53 401.79 342.82 400.94 343.1 400.95 342.4 392.26 337.97 390.98 346.41" style="fill:#261d5c"/><polygon points="407.29 358.07 412.99 354.37 412.99 352.16 400.58 352.16 407.29 358.07" style="fill:#231a59"/><polygon points="341.2 86.53 345.67 81.14 352.31 72.39 347.98 72.75 339.9 73.41 336.53 73.22 338.95 88.84 341.2 86.53" style="fill:#8177b8"/><polygon points="54.76 212.24 52.89 213.84 64.94 223.52 66.01 225.15 75.66 222.16 54.76 212.24" style="fill:#8f85c6"/><polygon points="338.95 88.84 336.53 73.22 331.54 72.94 338.27 89.55 338.95 88.84" style="fill:#867cbd"/><polygon points="418.44 128.82 416.94 122.94 408.88 125.35 400.65 121.33 397.04 115.59 390.4 115.12 390.72 113.82 371.77 121.6 418.44 128.82" style="fill:#685d9e"/><polygon points="430.94 128.56 437.77 123.05 431.49 118.58 416.94 122.94 418.44 128.82 430.94 128.56" style="fill:#635898"/><polygon points="372.65 80.4 369.91 77.39 365.01 80.4 362.26 77.39 358.8 78.14 353.4 88.17 371.82 82.12 372.65 80.4" style="fill:#7c71b2"/><polygon points="414.3 327.6 415.22 326.96 418.67 322.85 412.89 321.6 414.3 327.6" style="fill:#241a59"/><polygon points="441.22 232.71 485.04 233.71 476.69 221.73 472.44 224.18 478.83 211.57 469 192.16 441.22 232.71" style="fill:#3e3373"/><polygon points="440.92 162.79 439.05 162.31 440.66 164.94 440.92 162.79" style="fill:#5b4f90"/><polygon points="422.59 135.57 424.68 133.63 430.94 128.56 418.44 128.82 422.59 135.57" style="fill:#5b4f90"/><polygon points="437.45 151.16 432.39 150.11 431.24 145.46 429.46 146.72 435 155.73 437.45 151.16" style="fill:#5b4f90"/><polygon points="489.15 251.99 485.5 234.37 485.04 233.71 441.22 232.71 489.15 251.99" style="fill:#372c6c"/><polygon points="442.06 164.5 441.85 163.03 440.92 162.79 440.66 164.94 442.06 164.5" style="fill:#554a8a"/><polygon points="82.31 203.26 63.92 204.4 54.76 212.24 75.66 222.16 82.31 203.26" style="fill:#8f86c6"/><polygon points="83.44 252.16 75.66 222.16 66.01 225.15 71.79 233.9 68.47 244.67 83.44 252.16" style="fill:#877dbe"/><polygon points="441.34 120.16 439.25 114.85 433.77 117.89 431.49 118.58 437.77 123.05 441.34 120.16" style="fill:#665b9b"/><polygon points="442.35 166.55 442.06 164.5 440.66 164.94 442.35 166.55" style="fill:#4d4283"/><polygon points="470.66 179.63 469.91 177.86 470.35 169.51 463.28 163.57 456.85 180.49 469 192.16 470.66 179.63" style="fill:#4d4283"/><polygon points="477.44 184.14 472.44 183.87 470.66 179.63 469 192.16 477.44 184.14" style="fill:#4a3e7f"/><polygon points="444.81 267.61 447.4 274.24 456.57 268.35 456.57 279.07 478.81 263.03 480.66 258.59 480.02 256.67 444 266.62 444.81 267.61" style="fill:#312766"/><polygon points="486.94 255.59 489.75 254.89 489.58 254.03 486.82 254.79 486.94 255.59" style="fill:#312766"/><polygon points="456.57 280.28 461.25 287.03 464.14 274.24 472.44 271.31 477.2 266.86 478.81 263.03 456.57 279.07 456.57 280.28" style="fill:#2b2160"/><polygon points="78.57 251.88 82.76 251.88 83.33 252.19 83.44 252.16 68.47 244.67 68.33 245.13 78.57 251.88" style="fill:#857bbc"/><polygon points="83.33 252.19 83.44 252.25 83.44 252.16 83.33 252.19" style="fill:#7d73b4"/><polygon points="478.83 211.57 482.68 203.97 483.56 204.11 469 192.16 478.83 211.57" style="fill:#3b3070"/><polygon points="496.77 195.99 496.54 195 498.63 187.58 486.22 184.61 477.44 184.14 469 192.16 496.77 195.99" style="fill:#433878"/><polygon points="483.56 204.11 489.39 205.06 500 210.02 496.77 195.99 469 192.16 483.56 204.11" style="fill:#3d3172"/></svg>