<svg width="156" height="351" viewBox="0 0 156 351" fill="none" xmlns="http://www.w3.org/2000/svg">
<path d="M76.0113 153.426L67.6263 153.621C69.2643 129.948 67.3143 102.219 64.1553 85.605C63.7653 83.499 63.3363 81.471 62.9463 79.521C66.3393 82.368 71.4093 85.098 75.7773 85.098C75.9333 85.098 76.1283 85.098 76.2843 85.098C80.4183 84.981 84.2793 83.421 87.2043 80.73C87.0093 82.797 86.8143 84.825 86.6583 86.853C85.5273 101.829 86.3073 124.761 89.5833 146.328C88.7643 147.927 85.3713 152.295 76.0113 153.426Z" fill="white"/>
<path d="M47.3846 295.971L45.0836 298.662L45.6296 293.592L45.5906 293.514C45.5906 293.475 43.8746 288.6 44.1476 284.427C44.2256 284.427 44.3036 284.388 44.3816 284.349L51.5576 279.357L51.3626 279.552L56.7446 293.67L49.4906 299.52L47.3846 295.971Z" fill="white"/>
<path d="M79.5993 312.819C77.1423 312.819 74.8413 312.078 74.1003 311.805L73.3203 305.37H84.2793L84.2013 312.039C83.1873 312.39 81.4713 312.819 79.5993 312.819Z" fill="white"/>
<path d="M47.8531 310.44C47.8141 311.415 47.9311 312.819 48.1261 314.652C48.7111 321.165 49.7251 332.007 43.5631 335.751C42.3151 335.127 34.7101 330.876 33.0331 319.254C31.9021 311.298 34.9441 296.634 34.9831 296.478L35.0611 296.01L33.2671 295.932L33.0331 283.608L44.2651 283.881C43.7971 288.054 45.4351 292.89 45.7081 293.631L45.0841 298.623L47.3461 295.893L51.5191 302.913C50.8561 303.693 48.0481 306.54 47.8531 310.44Z" fill="#333233"/>
<path d="M94.5357 332.865C93.4827 334.542 90.0507 336.531 79.8327 336.531C72.3057 336.531 67.7037 335.205 66.1047 332.553C64.9347 330.642 65.3247 327.99 67.1967 324.48C68.2497 322.569 69.1857 320.853 70.0047 319.332C70.0827 319.293 70.1607 319.176 70.1607 319.098C70.1607 319.059 70.1607 319.059 70.1607 319.02C72.0717 315.549 73.5927 312.546 74.0217 311.805C74.8407 312.117 77.1807 312.858 79.7547 312.858C81.7827 312.858 83.4207 313.17 84.4737 312.819C84.5127 312.819 84.5127 312.819 84.5517 312.819C84.6687 312.819 84.7857 312.78 84.8247 312.663C84.9027 312.624 85.0197 312.585 85.0977 312.585C90.5187 321.555 92.8197 325.65 94.5357 329.355C95.1987 330.681 95.1987 331.89 94.5357 332.865Z" fill="#333233"/>
<path d="M73.5544 307.32L74.1004 311.883C73.9054 312.234 71.7994 316.29 70.3174 318.864C71.3704 312.156 73.0084 308.958 73.5544 307.32Z" fill="#333233"/>
<path d="M86.8915 313.95C86.5015 313.287 86.0725 312.585 85.6435 311.883L85.4875 311.61L85.1755 311.727C85.1755 311.727 85.0975 311.766 85.0195 311.805L85.0585 308.412C85.4875 309.465 86.1505 311.259 86.8915 313.95Z" fill="#333233"/>
<path d="M80.0277 75.933C87.7107 75.933 92.6247 62.283 93.3657 49.452C94.1457 35.841 89.1927 28.47 88.9977 28.158C88.8807 27.963 88.6467 27.924 88.4517 28.041C88.2567 28.158 88.2177 28.392 88.3347 28.587C88.3347 28.587 88.3737 28.665 88.4517 28.782C84.0057 33.93 75.1917 33.033 70.4727 30.693C64.8567 27.963 59.9427 30.693 61.7757 35.373C63.6087 40.053 68.3667 41.613 68.3667 41.613L70.0437 57.213H66.1437L64.3497 50.505C64.3107 50.505 64.3107 50.466 64.2717 50.427C64.2717 50.388 62.5947 48.477 61.1517 48.399C60.7227 48.399 60.3717 48.555 60.0597 48.867C59.3577 49.608 59.2407 50.739 59.7477 51.792C60.2547 52.845 61.5417 53.898 63.5697 53.703C63.8037 53.664 63.9597 53.82 63.9987 54.054C64.0377 54.249 63.8817 54.444 63.6477 54.483C63.4527 54.522 63.2577 54.522 63.0627 54.522C62.2437 54.522 61.5417 54.327 60.9567 54.054L57.0957 56.589C58.6557 61.503 60.9957 69.576 63.1407 79.443C66.6507 82.719 71.6037 84.435 76.2837 84.318C80.5347 84.201 84.4737 82.485 87.3597 79.521C87.4767 78.351 87.6327 77.142 87.7497 75.933C85.7607 78.078 76.3617 86.619 67.7037 67.548C68.3667 68.484 69.3807 69.693 70.5897 70.941C73.7877 74.217 77.0637 75.933 80.0277 75.933ZM84.5127 73.242C84.7077 73.086 84.9027 72.891 85.0977 72.696C84.9027 72.891 84.7077 73.047 84.5127 73.242ZM85.0977 72.696C85.2927 72.501 85.4487 72.306 85.6437 72.111C85.4487 72.306 85.2537 72.501 85.0977 72.696ZM85.7607 71.916C85.8777 71.76 86.0337 71.604 86.1507 71.448C86.0337 71.604 85.9167 71.76 85.7607 71.916ZM86.3457 71.214C86.4627 71.058 86.5797 70.902 86.6967 70.746C86.5797 70.863 86.4627 71.019 86.3457 71.214ZM86.8527 70.434C86.9697 70.278 87.0867 70.083 87.2037 69.927C87.0867 70.122 86.9697 70.278 86.8527 70.434ZM87.3597 69.654C87.4767 69.459 87.5937 69.264 87.6717 69.069C87.5937 69.264 87.4767 69.459 87.3597 69.654ZM87.8277 68.796C87.9447 68.601 88.0617 68.367 88.1787 68.133C88.0617 68.367 87.9447 68.601 87.8277 68.796ZM88.2957 67.899C88.4517 67.626 88.5687 67.314 88.6857 67.041C88.5687 67.353 88.4517 67.626 88.2957 67.899ZM88.7637 66.963C88.9197 66.612 89.0757 66.3 89.1927 65.949C89.0367 66.3 88.9197 66.612 88.7637 66.963ZM89.2317 65.832C89.3877 65.403 89.5827 64.974 89.7387 64.506C89.5827 64.974 89.3877 65.403 89.2317 65.832ZM89.8557 64.155C89.9337 63.96 89.9727 63.804 90.0507 63.609C89.9727 63.765 89.9337 63.96 89.8557 64.155ZM90.2067 63.18C90.2457 62.985 90.3237 62.829 90.3627 62.634C90.2847 62.79 90.2457 62.985 90.2067 63.18ZM90.4797 62.166C90.5187 61.971 90.5967 61.815 90.6357 61.62C90.5967 61.776 90.5577 61.971 90.4797 62.166ZM90.7917 61.113C90.8307 60.918 90.8697 60.762 90.9477 60.567C90.8697 60.762 90.8307 60.918 90.7917 61.113ZM91.0647 60.021C91.1037 59.865 91.1427 59.67 91.1817 59.475C91.1427 59.67 91.1037 59.865 91.0647 60.021ZM91.3377 58.851C91.3767 58.695 91.4157 58.539 91.4157 58.422C91.4157 58.539 91.3767 58.695 91.3377 58.851ZM91.6497 57.291C91.6887 57.135 91.6887 56.979 91.7277 56.862C91.6887 57.018 91.6887 57.174 91.6497 57.291ZM91.8447 56.121C91.8837 55.965 91.8837 55.77 91.9227 55.614C91.9227 55.809 91.8837 55.965 91.8447 56.121ZM92.0397 54.951C92.0787 54.795 92.0787 54.6 92.1177 54.444C92.0787 54.6 92.0787 54.756 92.0397 54.951ZM92.1957 53.703C92.2347 53.547 92.2347 53.352 92.2737 53.196C92.2347 53.352 92.2347 53.547 92.1957 53.703ZM92.3517 52.455C92.3517 52.299 92.3907 52.143 92.3907 51.948C92.3907 52.104 92.3517 52.299 92.3517 52.455ZM92.4687 51.09C92.4687 50.934 92.5077 50.817 92.5077 50.661C92.5077 50.817 92.4687 50.973 92.4687 51.09ZM92.6637 47.19C92.6637 46.878 92.6637 46.566 92.6637 46.293C92.6637 46.566 92.6637 46.878 92.6637 47.19ZM92.6637 48.243C92.6637 48.009 92.6637 47.775 92.6637 47.541C92.6637 47.814 92.6637 48.009 92.6637 48.243ZM88.9977 29.757C88.9587 29.718 88.9587 29.679 88.9197 29.64C88.9587 29.64 88.9977 29.718 88.9977 29.757ZM88.8807 29.484C88.8807 29.445 88.8417 29.406 88.8417 29.406C88.8417 29.406 88.8417 29.445 88.8807 29.484ZM88.5297 28.86C88.5297 28.821 88.4907 28.821 88.4907 28.782C88.4907 28.782 88.4907 28.821 88.5297 28.86ZM88.6857 29.172C88.6857 29.133 88.6467 29.133 88.6467 29.094C88.6857 29.133 88.6857 29.133 88.6857 29.172ZM88.6077 28.977C88.6077 28.938 88.5687 28.938 88.5687 28.899C88.5687 28.938 88.5687 28.977 88.6077 28.977ZM89.0757 29.913C89.1147 29.952 89.1147 30.03 89.1537 30.069C89.1537 29.991 89.1147 29.952 89.0757 29.913ZM89.2317 30.186C89.2707 30.303 89.3487 30.42 89.3877 30.537C89.3487 30.42 89.3097 30.303 89.2317 30.186ZM89.4657 30.693C89.5047 30.771 89.5437 30.849 89.5827 30.927C89.5437 30.849 89.5047 30.771 89.4657 30.693ZM89.6607 31.083C89.6997 31.161 89.7387 31.239 89.7777 31.356C89.7387 31.239 89.6997 31.161 89.6607 31.083ZM89.8167 31.473C89.9727 31.824 90.1287 32.175 90.2457 32.565C90.1287 32.175 89.9727 31.785 89.8167 31.473ZM90.2847 32.604C90.3237 32.721 90.4017 32.877 90.4407 32.994C90.4017 32.877 90.3237 32.76 90.2847 32.604ZM90.4797 33.111C90.7137 33.735 90.9087 34.398 91.1427 35.139C90.9087 34.398 90.6747 33.696 90.4797 33.111ZM91.1037 35.139C91.1427 35.334 91.2207 35.529 91.2597 35.685C91.2207 35.49 91.1817 35.334 91.1037 35.139ZM91.2987 35.724C91.4937 36.504 91.7277 37.323 91.8837 38.22C91.6887 37.323 91.4937 36.504 91.2987 35.724ZM91.8837 38.259C92.0787 39.156 92.2347 40.131 92.3517 41.145C92.1957 40.092 92.0397 39.156 91.8837 38.259ZM92.3517 41.145C92.3907 41.379 92.4297 41.652 92.4297 41.886C92.3907 41.652 92.3517 41.379 92.3517 41.145ZM80.6517 75.114C80.4567 75.153 80.2227 75.153 80.0277 75.153C80.2617 75.153 80.4567 75.153 80.6517 75.114ZM84.3567 73.359C84.2007 73.476 84.0837 73.593 83.9277 73.71C84.0837 73.593 84.2397 73.476 84.3567 73.359ZM83.7327 73.866C83.6157 73.944 83.4987 74.061 83.3427 74.139C83.4987 74.022 83.6157 73.944 83.7327 73.866ZM83.1087 74.256C82.9917 74.334 82.8747 74.412 82.7577 74.451C82.8747 74.412 82.9917 74.334 83.1087 74.256ZM82.5237 74.568C82.4067 74.607 82.2897 74.685 82.1727 74.724C82.2897 74.685 82.4067 74.646 82.5237 74.568ZM81.8997 74.841C81.7827 74.88 81.6657 74.919 81.5097 74.958C81.6657 74.919 81.7827 74.88 81.8997 74.841ZM81.2757 74.997C81.1197 75.036 81.0027 75.036 80.8467 75.075C81.0027 75.075 81.1587 75.036 81.2757 74.997Z" fill="#FEAE76"/>
<path d="M41.8858 180.297L39.5068 176.202L50.1148 161.655H52.9228C54.4828 161.655 55.9258 162.591 56.5888 163.995C56.5888 164.034 56.5888 164.034 56.5888 164.073C56.5888 164.229 56.6668 164.346 56.7838 164.385L58.7728 169.845C58.0708 171.327 56.8618 172.926 54.8338 173.979C53.9758 172.926 53.1568 171.6 52.7278 170.001C52.6888 169.806 52.4548 169.689 52.2598 169.728C52.0648 169.767 51.9478 170.001 51.9868 170.196C52.6108 172.458 53.9368 174.213 55.1068 175.461C55.1068 175.5 55.1068 175.539 55.1458 175.578C55.1848 175.695 55.3018 175.734 55.3798 175.773C56.4718 176.865 57.4078 177.45 57.5248 177.489C57.6028 177.528 57.6418 177.528 57.7198 177.528C57.8368 177.528 57.9928 177.45 58.0708 177.333C58.1878 177.138 58.1098 176.904 57.9538 176.787C57.9538 176.787 57.1738 176.319 56.1988 175.422L58.1488 174.33C59.0458 173.823 60.2158 173.901 61.1128 174.525C62.1268 175.227 62.6338 176.553 62.2828 177.684L60.5278 183.69C60.3328 184.275 59.9038 184.743 59.2798 184.899C58.6168 185.094 57.9148 184.899 57.3688 184.392L51.0508 178.425C50.8948 178.269 50.6608 178.269 50.5048 178.425C50.3488 178.581 50.3488 178.815 50.5048 178.971L56.7058 184.821L55.3408 185.211C52.9618 185.913 50.2708 185.016 48.6328 182.988L45.4348 178.815C45.3178 178.659 45.0448 178.62 44.8888 178.737C44.7328 178.854 44.6938 179.127 44.8108 179.283L47.9308 183.378L46.1758 183.066C44.4208 182.793 42.8608 181.779 41.8858 180.297Z" fill="#FEAE76"/>
<path d="M116.532 183.105L114.738 183.417L117.39 179.283C117.507 179.088 117.468 178.854 117.273 178.737C117.078 178.62 116.844 178.659 116.727 178.854L114.036 183.027C112.632 185.055 110.058 185.913 107.601 185.211L106.158 184.782L111.696 178.932C111.852 178.776 111.852 178.542 111.696 178.386C111.54 178.23 111.306 178.23 111.15 178.386L105.456 184.431C105.027 184.899 104.403 185.055 103.779 184.938C103.077 184.821 102.492 184.314 102.219 183.651L99.7619 177.645C99.2939 176.475 99.6059 175.227 100.542 174.525C101.361 173.901 102.492 173.823 103.467 174.33L105.573 175.461C104.715 176.319 104.013 176.826 104.013 176.826C103.818 176.943 103.779 177.177 103.896 177.372C103.974 177.489 104.091 177.528 104.208 177.528C104.286 177.528 104.364 177.489 104.403 177.45C104.481 177.411 105.339 176.826 106.314 175.734C106.431 175.695 106.509 175.656 106.548 175.539C106.587 175.5 106.587 175.461 106.587 175.422C107.64 174.174 108.771 172.419 109.122 170.157C109.161 169.962 109.005 169.728 108.81 169.728C108.576 169.689 108.381 169.845 108.381 170.04C108.147 171.6 107.484 172.887 106.743 173.94C104.598 172.887 103.194 171.249 102.297 169.767L103.662 164.346C103.74 164.268 103.818 164.151 103.818 164.034C103.818 163.995 103.818 163.956 103.779 163.917C104.286 162.513 105.612 161.616 107.133 161.616H108.966L120.471 180.063L120.393 180.258C119.691 181.779 118.248 182.832 116.532 183.105Z" fill="#FEAE76"/>
<path d="M102.804 60.996L98.2801 72.111L106.314 84.123C104.793 85.995 94.5751 99.021 87.7891 124.488C86.6971 110.292 86.6971 96.954 87.4381 86.892C87.5941 84.591 87.8281 82.251 88.0621 79.872C88.1791 79.755 88.1791 79.56 88.1011 79.404C88.5691 75.075 89.1541 70.629 89.8561 66.144C89.8561 66.105 89.8561 66.066 89.8561 66.027C91.4941 61.893 92.6251 56.901 93.1321 51.87C97.5001 54.756 100.776 58.383 102.804 60.996Z" fill="#464249"/>
<path d="M55.575 51.636C56.394 53.937 59.904 64.857 63.102 79.56C63.102 79.638 63.102 79.716 63.141 79.755C63.648 82.056 63.804 84.474 64.272 86.931C66.183 96.954 67.665 110.253 68.172 124.41C58.5 98.865 46.761 85.839 45.084 84.045L51.753 72.033L45.981 61.23C49.53 55.926 54.249 52.494 55.575 51.636Z" fill="#464249"/>
<path d="M30.3418 167.973L43.0558 150.735L50.7388 159.432L36.8158 178.581L30.3418 167.973Z" fill="#464249"/>
<path d="M62.5949 291.252L51.1289 274.17C52.0649 273.585 54.8339 271.83 58.4999 269.217L69.3419 286.377C65.8709 288.951 63.4529 290.667 62.5949 291.252Z" fill="#464249"/>
<path d="M70.5898 299.364C70.1608 298.389 68.6008 294.606 67.5088 291.096H85.2538C85.7998 295.152 86.3068 298.272 86.5018 299.364H70.5898Z" fill="#464249"/>
<path d="M125.346 178.542L108.303 159.081L114.933 149.097L129.987 167.7L125.346 178.542Z" fill="#464249"/>
<path d="M35.7623 283.686L33.0713 283.608L32.9153 296.322L34.5923 296.4C34.5923 296.4 31.3163 310.206 32.6033 318.552C33.8903 326.859 37.3613 331.695 40.0133 333.84C42.6653 335.985 43.5623 336.219 43.5623 336.219L45.3563 334.932C45.3563 334.932 37.8293 331.032 36.2693 318.63C34.7093 306.228 37.4393 296.673 37.4393 296.673L35.7623 283.686Z" fill="#464249"/>
<path d="M65.3249 328.263C65.3249 328.263 66.5339 333.762 77.2199 334.113C87.9059 334.464 93.1319 333.411 95.1989 329.745C95.1989 329.745 96.9929 333.45 90.9089 335.673C84.8249 337.896 73.7099 337.389 68.5229 335.283C63.3359 333.177 65.3249 328.263 65.3249 328.263Z" fill="#464249"/>
<path d="M12.519 128.583C16.419 118.521 25.662 98.592 30.108 89.037L30.498 88.218C35.061 78.351 38.22 73.008 42.705 71.097C46.41 69.537 48.438 68.757 49.062 68.523L50.934 72.033L44.148 84.201L44.343 84.396C44.46 84.513 57.642 97.929 68.094 126.36C68.133 126.438 68.172 126.516 68.25 126.555C68.523 135.174 68.406 144.066 67.782 152.724C67.743 152.802 67.704 152.841 67.704 152.958C67.704 153.036 67.7039 153.075 67.743 153.153C67.47 156.741 67.158 160.251 66.729 163.683H57.291C56.472 161.967 54.756 160.875 52.884 160.875H50.622L51.714 159.393L44.772 151.554C48.945 124.956 42.354 106.275 42.198 105.807L42.627 104.559C42.705 104.364 42.588 104.13 42.393 104.052C42.198 103.974 41.964 104.091 41.886 104.286L30.81 135.798L29.016 133.809C28.86 133.653 28.626 133.614 28.47 133.77C28.314 133.926 28.275 134.16 28.431 134.316L42.471 150.15L29.913 167.271L13.767 140.751C11.466 137.007 10.998 132.483 12.519 128.583Z" fill="#333233"/>
<path d="M85.1759 290.277H67.2749C67.1579 289.887 67.0409 289.497 66.9629 289.107C67.8209 288.483 68.7959 287.781 69.8489 287.001C69.8879 287.001 69.9269 287.001 69.9659 287.001C70.0439 287.001 70.1219 287.001 70.1609 286.923C70.2779 286.845 70.3169 286.728 70.3169 286.611C73.9439 283.92 78.5849 280.332 83.6549 276.237C84.0059 281.112 84.5909 286.143 85.1759 290.277Z" fill="#333233"/>
<path d="M110.955 249.444C103.077 258.57 92.8977 267.696 83.8887 275.067C83.8107 275.106 83.7327 275.145 83.6937 275.223C78.5068 279.474 73.7097 283.14 70.0047 285.909L59.1628 268.788C59.8258 268.32 60.5278 267.813 61.2298 267.306L61.2688 267.267C64.2328 265.083 67.6258 262.509 70.9797 259.662C84.6297 248.196 92.1567 238.095 93.2877 229.671C95.7837 211.185 83.3817 188.331 81.3927 184.821H83.8887C84.1227 184.821 84.2787 184.665 84.2787 184.431C84.2787 184.197 84.1227 184.041 83.8887 184.041H73.2418C73.0077 184.041 72.8518 184.197 72.8518 184.431C72.8518 184.665 73.0077 184.821 73.2418 184.821H76.9467C76.9467 188.175 76.8687 222.573 80.0667 249.873C80.0667 249.951 80.2617 251.121 80.3007 251.199C74.2557 257.478 67.1187 263.211 61.3078 267.501C53.8198 243.204 46.3708 189.852 45.5518 183.807C45.7078 183.846 45.8638 183.885 46.0198 183.924L48.7108 184.392H48.7498C50.1148 185.64 51.8698 186.303 53.6248 186.303C54.2488 186.303 54.9118 186.225 55.5358 186.03L57.4468 185.445C57.8368 185.64 58.2658 185.757 58.7338 185.757C58.9678 185.757 59.2018 185.718 59.4358 185.679C60.2938 185.445 60.9568 184.782 61.2298 183.924L62.9848 177.918C63.4138 176.436 62.8288 174.798 61.5028 173.901C60.3718 173.121 58.8898 173.004 57.7198 173.667L55.5748 174.876C55.4968 174.798 55.4188 174.681 55.3018 174.603C60.2548 171.912 60.5668 166.413 60.5668 166.179C60.5668 165.945 60.4108 165.789 60.1768 165.789C59.9818 165.789 59.7868 165.945 59.7868 166.179C59.7868 166.218 59.7088 167.388 59.2018 168.87L57.6028 164.541H67.4307L67.4698 164.19C67.9377 160.68 68.2887 157.053 68.5227 153.426H90.6747C91.3377 157.092 92.1177 160.719 92.9757 164.229L93.0537 164.541H102.921L101.829 168.87C101.127 167.349 100.893 166.179 100.893 166.14C100.854 165.945 100.659 165.789 100.464 165.828C100.269 165.867 100.113 166.062 100.152 166.257C100.191 166.491 101.127 172.029 106.392 174.681C106.314 174.759 106.236 174.837 106.197 174.915L103.896 173.706C102.687 173.043 101.205 173.16 100.152 173.94C98.9427 174.837 98.5137 176.514 99.0987 177.996L101.556 184.002C101.946 184.899 102.726 185.562 103.701 185.757C103.857 185.796 104.052 185.796 104.208 185.796C104.637 185.796 105.066 185.679 105.456 185.484L107.445 186.069C108.069 186.264 108.732 186.342 109.356 186.342C111.111 186.342 112.788 185.64 114.036 184.431H114.075L116.376 184.041C116.922 185.991 119.613 196.365 120.471 208.728C121.251 221.247 120.315 238.563 110.955 249.444Z" fill="#333233"/>
<path d="M130.337 166.881L115.712 149.253L127.529 130.845C127.646 130.65 127.607 130.416 127.412 130.299C127.217 130.182 126.983 130.221 126.866 130.416L125.462 132.639L111.851 104.247C111.773 104.052 111.539 103.974 111.344 104.052C111.149 104.13 111.071 104.364 111.149 104.559L111.578 105.456C111.539 105.495 111.539 105.534 111.539 105.573C111.5 105.768 108.029 127.14 113.762 150.852L108.302 159.393L109.511 160.836H107.327C105.455 160.836 103.856 161.967 103.232 163.644H93.7555C90.9085 151.71 89.0755 138.84 88.0225 126.516C88.1005 126.477 88.1395 126.399 88.1785 126.282C95.3935 97.851 107.054 84.474 107.171 84.318L107.366 84.084L99.2155 71.916L100.58 68.601C100.97 68.718 102.608 69.186 106.586 70.785C111.344 72.735 116.141 78.351 120.47 87.009C122.771 91.611 126.866 98.28 131.234 105.3C135.68 112.437 140.243 119.847 142.895 125.112C144.845 129.012 144.884 133.575 143.051 137.319L130.337 166.881Z" fill="#333233"/>
<path d="M66.8066 288.6L67.0016 289.185L84.5517 284.232L84.0056 275.418L66.8066 288.6Z" fill="black"/>
<path d="M125.346 178.932C125.229 178.932 125.151 178.893 125.073 178.815L107.991 159.705C107.835 159.549 107.874 159.315 108.03 159.159C108.186 159.003 108.42 159.042 108.576 159.198L125.658 178.308C125.814 178.464 125.775 178.698 125.619 178.854C125.541 178.932 125.463 178.932 125.346 178.932Z" fill="black"/>
<path d="M78.585 61.581C78.585 61.581 79.443 65.364 80.652 66.339C81.9 67.314 82.875 67.197 83.577 66.339C84.279 65.481 85.02 64.506 83.772 64.389C82.563 64.233 79.482 62.478 78.585 61.581Z" fill="white"/>
<path d="M50.099 84.8978C50.6094 84.3726 50.5724 83.5088 50.0164 82.9683C49.4603 82.4279 48.5958 82.4154 48.0854 82.9406C47.5749 83.4658 47.6119 84.3296 48.1679 84.8701C48.724 85.4105 49.5885 85.4229 50.099 84.8978Z" fill="white"/>
<path d="M103.294 84.898C103.805 84.3729 103.768 83.509 103.212 82.9685C102.656 82.4281 101.791 82.4157 101.281 82.9408C100.77 83.466 100.807 84.3298 101.363 84.8703C101.919 85.4107 102.784 85.4232 103.294 84.898Z" fill="white"/>
<path d="M64.1548 49.803L66.1438 57.213H70.0438L68.3668 41.613C68.3668 41.613 63.6088 40.053 61.7758 35.373C59.9428 30.693 64.8568 27.963 70.4728 30.693C76.0888 33.423 87.4378 34.203 90.4408 25.233C93.4438 16.263 91.0648 8.853 86.6188 5.733C82.1728 2.613 78.1168 7.293 68.8738 16.263C59.6308 25.233 50.4658 35.373 50.4658 35.373L57.1348 56.823L61.2688 53.781C61.2688 53.781 58.7728 52.533 59.0848 50.583C59.3968 48.633 60.8398 46.683 64.1548 49.803Z" fill="#723D43"/>
<path d="M63.0631 54.522C60.9961 54.522 59.6311 53.352 59.0461 52.182C58.3831 50.856 58.5781 49.374 59.4751 48.399C59.9431 47.892 60.4891 47.658 61.1521 47.697C62.9461 47.736 64.7401 49.881 64.8181 49.998C64.9741 50.154 64.9351 50.427 64.7791 50.544C64.6231 50.7 64.3501 50.661 64.2331 50.505C64.2331 50.466 62.5561 48.555 61.1131 48.477C60.6841 48.477 60.3331 48.633 60.0211 48.945C59.3191 49.686 59.2021 50.817 59.7091 51.87C60.2161 52.923 61.5031 53.976 63.5311 53.781C63.7651 53.742 63.9211 53.898 63.9601 54.132C63.9991 54.366 63.8431 54.522 63.6091 54.561C63.4531 54.522 63.2581 54.522 63.0631 54.522Z" fill="black"/>
<path d="M67.4699 164.463H56.9789C56.7449 164.463 56.5889 164.307 56.5889 164.073C56.5889 163.839 56.7449 163.683 56.9789 163.683H66.7679C67.5869 157.209 68.0939 150.111 68.2889 142.623C68.2889 142.389 68.4839 142.233 68.6789 142.233C68.9129 142.233 69.0689 142.428 69.0689 142.623C68.8739 150.267 68.3279 157.521 67.4699 164.112V164.463Z" fill="black"/>
<path d="M68.4845 126.633C68.3285 126.633 68.1725 126.516 68.1335 126.36C57.6815 97.929 44.4995 84.513 44.3825 84.396L44.1875 84.201L50.9345 72.033L45.1235 61.191L45.2405 60.996C49.5305 54.366 54.9515 51.168 55.1465 51.012C55.3415 50.895 55.5755 50.973 55.6925 51.168C55.8095 51.363 55.7315 51.597 55.5365 51.714C55.4975 51.753 50.1935 54.912 46.0205 61.23L51.7925 72.033L45.1235 84.045C46.8395 85.878 59.0465 99.411 68.8355 126.087C68.9135 126.282 68.7965 126.516 68.6015 126.594C68.5625 126.633 68.5235 126.633 68.4845 126.633Z" fill="black"/>
<path d="M36.7773 179.673C36.6993 179.673 36.6213 179.634 36.5433 179.595C36.3873 179.478 36.3483 179.205 36.4653 179.049L50.7393 159.393L28.4313 134.277C28.2753 134.121 28.3143 133.887 28.4703 133.731C28.6263 133.575 28.8603 133.614 29.0163 133.77L51.7143 159.354L37.0503 179.478C37.0113 179.634 36.8943 179.673 36.7773 179.673Z" fill="black"/>
<path d="M34.9829 124.566C34.9439 124.566 34.9049 124.566 34.8659 124.527C34.6709 124.449 34.5539 124.215 34.6319 124.02L41.9249 104.247C42.0029 104.052 42.2369 103.935 42.4319 104.013C42.6269 104.091 42.7439 104.325 42.6659 104.52L35.3729 124.293C35.2949 124.488 35.1389 124.566 34.9829 124.566Z" fill="black"/>
<path d="M35.9189 171.483C34.9439 171.483 34.1249 170.703 34.0859 169.767C34.0469 169.299 34.2029 168.831 34.5539 168.519C34.8659 168.168 35.2949 168.012 35.7629 168.012C36.7379 168.012 37.5569 168.792 37.5959 169.728C37.6349 170.196 37.4789 170.664 37.1279 170.976C36.8159 171.327 36.3869 171.483 35.9189 171.483ZM35.7629 168.753C35.4899 168.753 35.2559 168.87 35.0999 169.026C34.9439 169.221 34.8269 169.455 34.8659 169.689C34.9049 170.235 35.3729 170.703 35.9189 170.703C36.1919 170.703 36.4259 170.586 36.5819 170.43C36.7379 170.235 36.8549 170.001 36.8159 169.767C36.7769 169.221 36.3089 168.753 35.7629 168.753Z" fill="black"/>
<path d="M79.3652 158.808C78.3902 158.808 77.5712 158.028 77.5322 157.092C77.4932 156.624 77.6492 156.156 78.0002 155.844C78.3122 155.493 78.7412 155.337 79.2092 155.337C80.1842 155.337 81.0032 156.117 81.0422 157.053C81.0812 157.521 80.9252 157.989 80.5742 158.301C80.2622 158.652 79.8332 158.808 79.3652 158.808ZM79.2092 156.078C78.9362 156.078 78.7022 156.195 78.5462 156.351C78.3902 156.546 78.2732 156.78 78.3122 157.014C78.3512 157.56 78.8192 158.028 79.3652 158.028C79.6382 158.028 79.8722 157.911 80.0282 157.755C80.1842 157.56 80.3012 157.326 80.2622 157.092C80.2232 156.546 79.7552 156.078 79.2092 156.078Z" fill="black"/>
<path d="M29.8742 168.324C29.7962 168.324 29.7182 168.285 29.6402 168.246C29.4842 168.129 29.4452 167.856 29.5622 167.7L42.5882 150.033C42.7052 149.877 42.9782 149.838 43.1342 149.955C43.2902 150.072 43.3292 150.345 43.2122 150.501L30.1862 168.168C30.1082 168.246 29.9912 168.324 29.8742 168.324Z" fill="black"/>
<path d="M58.6957 122.343C58.5787 122.343 58.4617 122.304 58.3837 122.187L48.0877 109.122C47.9707 108.966 47.9707 108.693 48.1657 108.576C48.3217 108.459 48.5947 108.459 48.7117 108.654L59.0077 121.719C59.1247 121.875 59.1247 122.148 58.9297 122.265C58.8517 122.343 58.7737 122.343 58.6957 122.343Z" fill="black"/>
<path d="M48.828 184.353C48.789 184.353 48.789 184.353 48.75 184.353L46.059 183.885C44.109 183.534 42.354 182.403 41.223 180.726L38.805 176.592C38.688 176.397 38.766 176.163 38.961 176.046C39.156 175.929 39.39 176.007 39.507 176.202L41.886 180.336C42.861 181.818 44.46 182.832 46.176 183.144L48.867 183.612C49.062 183.651 49.218 183.846 49.179 184.08C49.179 184.236 48.984 184.353 48.828 184.353Z" fill="black"/>
<path d="M53.6642 186.264C51.5192 186.264 49.4132 185.289 48.0092 183.534L44.8112 179.322C44.6942 179.166 44.7332 178.893 44.8892 178.776C45.0452 178.659 45.3182 178.698 45.4352 178.854L48.6332 183.027C50.2712 185.055 52.9622 185.952 55.3412 185.25L57.3302 184.665C57.5252 184.587 57.7592 184.704 57.7982 184.938C57.8372 185.172 57.7592 185.367 57.5252 185.406L55.5752 185.991C54.9512 186.186 54.3272 186.264 53.6642 186.264Z" fill="black"/>
<path d="M58.7737 185.757C58.0717 185.757 57.3697 185.484 56.8237 184.977L50.5057 179.01C50.3497 178.854 50.3497 178.62 50.5057 178.464C50.6617 178.308 50.8957 178.308 51.0517 178.464L57.3697 184.431C57.8767 184.938 58.6177 185.133 59.2807 184.938C59.9047 184.782 60.3337 184.353 60.5287 183.729L62.2837 177.723C62.6347 176.592 62.1277 175.266 61.1137 174.564C60.2167 173.94 59.0467 173.862 58.1497 174.369L55.6927 175.773C55.4977 175.89 55.2637 175.812 55.1467 175.617C55.0297 175.422 55.1077 175.188 55.3027 175.071L57.7597 173.667C58.9297 173.004 60.4117 173.121 61.5427 173.901C62.8687 174.837 63.4537 176.436 63.0247 177.918L61.2697 183.924C61.0357 184.782 60.3727 185.445 59.4757 185.679C59.2417 185.718 59.0077 185.757 58.7737 185.757Z" fill="black"/>
<path d="M57.72 177.528C57.642 177.528 57.564 177.528 57.525 177.489C57.369 177.372 53.235 174.837 51.987 170.235C51.948 170.04 52.065 169.806 52.26 169.767C52.455 169.728 52.689 169.845 52.728 170.04C53.898 174.33 57.876 176.787 57.915 176.826C58.11 176.943 58.149 177.177 58.032 177.372C57.954 177.489 57.837 177.528 57.72 177.528Z" fill="black"/>
<path d="M59.1636 170.118C59.0076 170.118 58.8516 170.001 58.8126 169.845L56.7846 164.346C56.1996 162.708 54.6396 161.616 52.9626 161.616H50.1156C49.8816 161.616 49.7256 161.46 49.7256 161.226C49.7256 160.992 49.8816 160.836 50.1156 160.836H52.9626C54.9906 160.836 56.8236 162.123 57.5256 164.073L59.5536 169.572C59.6316 169.767 59.5146 170.001 59.3196 170.079C59.2416 170.118 59.2026 170.118 59.1636 170.118Z" fill="black"/>
<path d="M54.834 174.798C54.678 174.798 54.561 174.72 54.483 174.564C54.405 174.369 54.483 174.135 54.678 174.057C59.553 171.639 59.826 166.14 59.826 166.101C59.826 165.867 60.021 165.711 60.216 165.711C60.45 165.711 60.606 165.906 60.606 166.101C60.606 166.335 60.294 172.107 54.99 174.72C54.951 174.798 54.873 174.798 54.834 174.798Z" fill="black"/>
<path d="M103.546 164.463H93.0936L93.0156 164.151C86.6196 137.592 85.2156 106.197 86.6976 86.814C87.2046 80.145 88.0236 73.164 89.1546 66.027C89.1936 65.832 89.3886 65.676 89.5836 65.715C89.7786 65.754 89.9346 65.949 89.8956 66.144C88.7646 73.242 87.9456 80.223 87.4386 86.853C85.9956 106.08 87.3606 137.241 93.6786 163.644H103.546C103.78 163.644 103.936 163.8 103.936 164.034C103.936 164.268 103.741 164.463 103.546 164.463Z" fill="black"/>
<path d="M87.7504 126.633C87.7114 126.633 87.6724 126.633 87.6724 126.633C87.4774 126.594 87.3214 126.36 87.3994 126.165C94.1464 99.567 104.793 85.995 106.353 84.123L98.3194 72.111L102.843 60.996C100.776 58.305 97.4224 54.6 92.8984 51.675L93.3274 51.012C98.0464 54.054 101.517 57.954 103.623 60.684L103.74 60.879L99.2164 71.994L107.367 84.162L107.172 84.396C107.055 84.513 95.4334 97.929 88.1794 126.36C88.1014 126.516 87.9064 126.633 87.7504 126.633Z" fill="black"/>
<path d="M121.174 140.283C121.096 140.283 121.018 140.244 120.979 140.205C120.784 140.088 120.745 139.854 120.862 139.659L126.907 130.377C127.024 130.182 127.258 130.143 127.453 130.26C127.648 130.377 127.687 130.611 127.57 130.806L121.486 140.127C121.408 140.244 121.291 140.283 121.174 140.283Z" fill="black"/>
<path d="M121.173 125.034C121.017 125.034 120.9 124.956 120.822 124.8L111.111 104.598C111.033 104.403 111.111 104.169 111.306 104.091C111.501 104.013 111.735 104.091 111.813 104.286L121.524 124.488C121.602 124.683 121.524 124.917 121.329 124.995C121.29 124.995 121.212 125.034 121.173 125.034Z" fill="black"/>
<path d="M125.386 171.483C124.411 171.483 123.592 170.703 123.553 169.767C123.514 169.299 123.67 168.831 124.021 168.519C124.333 168.168 124.762 168.012 125.23 168.012C126.205 168.012 127.024 168.792 127.063 169.728C127.102 170.196 126.946 170.664 126.595 170.976C126.283 171.327 125.854 171.483 125.386 171.483ZM124.333 169.728C124.372 170.274 124.84 170.742 125.386 170.742C125.659 170.742 125.893 170.625 126.049 170.469C126.205 170.274 126.322 170.04 126.283 169.806C126.244 169.26 125.776 168.792 125.23 168.792C124.957 168.792 124.723 168.909 124.567 169.065C124.411 169.221 124.333 169.455 124.333 169.728Z" fill="black"/>
<path d="M130.494 168.051C130.377 168.051 130.26 168.012 130.182 167.895L114.972 149.565C114.816 149.409 114.855 149.136 115.011 149.019C115.167 148.863 115.44 148.902 115.557 149.058L130.767 167.388C130.923 167.544 130.884 167.817 130.728 167.934C130.65 168.012 130.572 168.051 130.494 168.051Z" fill="black"/>
<path d="M97.0711 122.343C96.9931 122.343 96.9151 122.304 96.8371 122.265C96.6421 122.148 96.6031 121.914 96.7201 121.719L105.534 108.654C105.651 108.459 105.885 108.42 106.08 108.537C106.275 108.654 106.314 108.888 106.197 109.083L97.3831 122.148C97.3051 122.304 97.1881 122.343 97.0711 122.343Z" fill="black"/>
<path d="M113.959 184.353C113.764 184.353 113.608 184.236 113.569 184.041C113.53 183.846 113.686 183.612 113.881 183.573L116.533 183.105C118.21 182.793 119.653 181.779 120.472 180.297L122.383 176.202C122.461 176.007 122.695 175.929 122.89 176.007C123.085 176.085 123.163 176.319 123.085 176.514L121.174 180.648C120.238 182.364 118.6 183.534 116.65 183.846L113.998 184.314C113.998 184.353 113.959 184.353 113.959 184.353Z" fill="black"/>
<path d="M109.317 186.264C108.693 186.264 108.03 186.186 107.406 185.991L105.339 185.406C105.144 185.328 105.027 185.133 105.066 184.938C105.144 184.743 105.339 184.626 105.534 184.665L107.601 185.25C110.058 185.952 112.632 185.094 114.036 183.066L116.727 178.893C116.844 178.698 117.078 178.659 117.273 178.776C117.468 178.893 117.507 179.127 117.39 179.322L114.66 183.495C113.451 185.289 111.423 186.264 109.317 186.264Z" fill="black"/>
<path d="M104.17 185.757C104.014 185.757 103.819 185.757 103.663 185.718C102.688 185.523 101.908 184.899 101.518 183.963L99.0608 177.957C98.4758 176.475 98.9048 174.837 100.114 173.901C101.167 173.121 102.649 173.004 103.858 173.667L106.471 175.071C106.666 175.188 106.744 175.422 106.627 175.617C106.51 175.812 106.276 175.89 106.081 175.773L103.468 174.369C102.493 173.862 101.362 173.94 100.543 174.564C99.6068 175.266 99.2558 176.553 99.7628 177.684L102.22 183.69C102.493 184.353 103.078 184.821 103.78 184.977C104.404 185.094 105.028 184.899 105.457 184.47L111.073 178.503C111.229 178.347 111.463 178.347 111.619 178.503C111.775 178.659 111.775 178.893 111.619 179.049L106.003 185.016C105.574 185.484 104.872 185.757 104.17 185.757Z" fill="black"/>
<path d="M104.286 177.528C104.169 177.528 104.052 177.45 103.974 177.333C103.857 177.138 103.896 176.904 104.091 176.787C104.13 176.748 107.796 174.291 108.498 170.04C108.537 169.845 108.732 169.689 108.927 169.728C109.122 169.767 109.278 169.962 109.239 170.157C108.498 174.759 104.676 177.333 104.481 177.45C104.442 177.528 104.364 177.528 104.286 177.528Z" fill="black"/>
<path d="M102.024 170.118C101.985 170.118 101.946 170.118 101.946 170.118C101.751 170.079 101.595 169.845 101.673 169.65L103.077 164.151C103.584 162.201 105.261 160.875 107.328 160.875H110.175C110.409 160.875 110.565 161.031 110.565 161.265C110.565 161.499 110.409 161.655 110.175 161.655H107.328C105.651 161.655 104.247 162.747 103.857 164.346L102.453 169.845C102.336 170.001 102.18 170.118 102.024 170.118Z" fill="black"/>
<path d="M106.86 174.798C106.821 174.798 106.744 174.798 106.705 174.759C101.167 172.185 100.192 166.413 100.153 166.179C100.114 165.984 100.27 165.75 100.465 165.75C100.66 165.711 100.894 165.867 100.894 166.062C100.894 166.101 101.829 171.639 106.977 174.057C107.172 174.135 107.25 174.369 107.172 174.564C107.133 174.72 107.016 174.798 106.86 174.798Z" fill="black"/>
<path d="M75.777 85.098C71.019 85.098 66.495 83.265 62.907 79.872C62.751 79.716 62.751 79.482 62.907 79.326C63.063 79.17 63.297 79.17 63.453 79.326C67.002 82.68 71.565 84.435 76.284 84.318C80.652 84.201 84.63 82.446 87.555 79.326C87.7111 79.17 87.945 79.17 88.101 79.326C88.257 79.482 88.257 79.716 88.101 79.872C85.059 83.109 80.847 84.942 76.284 85.098C76.128 85.098 75.933 85.098 75.777 85.098Z" fill="black"/>
<path d="M83.9286 184.821H73.2816C73.0476 184.821 72.8916 184.665 72.8916 184.431C72.8916 184.197 73.0476 184.041 73.2816 184.041H83.9286C84.1626 184.041 84.3186 184.197 84.3186 184.431C84.3186 184.665 84.1626 184.821 83.9286 184.821Z" fill="black"/>
<path d="M87.4387 300.144H70.3177C70.0837 300.144 69.9277 299.988 69.9277 299.754C69.9277 299.52 70.0837 299.364 70.3177 299.364H86.5027C86.1127 296.985 84.2797 285.792 83.5777 275.457C83.5777 275.223 83.7337 275.067 83.9287 275.028C84.1237 275.028 84.3187 275.184 84.3577 275.379C85.1377 286.923 87.3217 299.52 87.3607 299.637L87.4387 300.144Z" fill="black"/>
<path d="M69.9663 287.001C69.8493 287.001 69.6933 286.923 69.6543 286.806L58.4613 269.139C58.3443 268.944 58.3833 268.71 58.5783 268.593C58.7733 268.476 59.0073 268.515 59.1243 268.71L70.3173 286.377C70.4343 286.572 70.3953 286.806 70.2003 286.923C70.1223 286.962 70.0443 287.001 69.9663 287.001Z" fill="black"/>
<path d="M49.4911 300.456C49.3741 300.456 49.2571 300.417 49.1791 300.3C49.0621 300.144 49.0621 299.871 49.2181 299.754L61.2301 290.043C61.3861 289.926 61.6591 289.926 61.7761 290.082C61.8931 290.238 61.8931 290.511 61.7371 290.628L49.7251 300.378C49.6471 300.417 49.5691 300.456 49.4911 300.456Z" fill="black"/>
<path d="M81.7053 177.45H77.9613C77.7273 177.45 77.5713 177.294 77.5713 177.06C77.5713 176.826 77.7273 176.67 77.9613 176.67H80.8473L80.0283 162.474C80.0283 162.24 80.1843 162.084 80.3793 162.045C80.6133 162.045 80.7693 162.201 80.8083 162.396L81.7053 177.45Z" fill="black"/>
<path d="M85.4497 291.057H67.2367C67.0027 291.057 66.8467 290.901 66.8467 290.667C66.8467 290.433 67.0027 290.277 67.2367 290.277H85.4497C85.6837 290.277 85.8397 290.433 85.8397 290.667C85.8397 290.901 85.6447 291.057 85.4497 291.057Z" fill="black"/>
<path d="M84.5912 312.819C84.3572 312.819 84.2012 312.624 84.2012 312.429L84.3572 299.91C84.3572 299.715 84.5522 299.52 84.7472 299.52C84.9812 299.52 85.1372 299.715 85.1372 299.91L84.9812 312.429C84.9812 312.624 84.7862 312.819 84.5912 312.819Z" fill="black"/>
<path d="M65.7152 235.248C65.5982 235.248 65.4812 235.17 65.4032 235.053C65.2862 234.858 65.3252 234.624 65.5202 234.507C67.8602 232.986 71.1362 232.362 73.5152 231.933C74.5292 231.738 75.7382 231.504 76.0892 231.309C76.0112 231.231 75.8552 231.114 75.4652 230.919C71.8382 229.047 63.9992 229.671 63.9212 229.671C63.6872 229.671 63.5312 229.515 63.4922 229.32C63.4922 229.086 63.6482 228.93 63.8432 228.891C64.1942 228.852 72.0332 228.267 75.8162 230.217C76.4402 230.529 76.9862 230.919 76.9082 231.426C76.7912 232.128 75.7382 232.323 73.6322 232.713C71.3312 233.142 68.1722 233.727 65.9492 235.17C65.8712 235.248 65.7932 235.248 65.7152 235.248Z" fill="black"/>
<path d="M112.866 239.031C112.749 239.031 112.671 238.992 112.593 238.914C112.554 238.875 107.367 233.532 101.712 232.908C99.6061 232.674 98.7871 232.752 98.5141 232.83C98.5921 232.908 98.7481 233.025 98.9041 233.103C99.0991 233.22 99.1771 233.454 99.0601 233.649C98.9431 233.844 98.7091 233.922 98.5141 233.805C98.2021 233.649 97.5001 233.181 97.6561 232.596C97.8121 232.05 98.5921 231.816 101.79 232.167C107.757 232.83 112.944 238.173 113.178 238.407C113.334 238.563 113.334 238.797 113.178 238.953C113.061 238.992 112.983 239.031 112.866 239.031Z" fill="black"/>
<path d="M76.2062 160.524H69.9662C69.7322 160.524 69.5762 160.368 69.5762 160.134C69.5762 159.9 69.7322 159.744 69.9662 159.744H76.2062C76.4402 159.744 76.5962 159.9 76.5962 160.134C76.5962 160.368 76.4012 160.524 76.2062 160.524Z" fill="black"/>
<path d="M90.8317 160.524H82.4857C82.2517 160.524 82.0957 160.368 82.0957 160.134C82.0957 159.9 82.2517 159.744 82.4857 159.744H90.8317C91.0657 159.744 91.2217 159.9 91.2217 160.134C91.2217 160.368 91.0657 160.524 90.8317 160.524Z" fill="black"/>
<path d="M86.7754 59.748H82.9144C82.6804 59.748 82.5244 59.592 82.5244 59.358C82.5244 59.124 82.6804 58.968 82.9144 58.968H86.7754C87.0484 58.968 87.2824 58.851 87.3994 58.656C87.5554 58.422 87.5554 58.149 87.4774 57.915L83.8894 48.789C83.8114 48.594 83.9284 48.36 84.1234 48.282C84.3184 48.204 84.5524 48.321 84.6304 48.516L88.2184 57.642C88.4134 58.149 88.3744 58.695 88.0624 59.124C87.7894 59.514 87.3214 59.748 86.7754 59.748Z" fill="black"/>
<path d="M82.0567 67.626C81.5497 67.626 81.0817 67.431 80.6527 67.08C78.7027 65.52 77.8057 61.503 77.7667 61.347C77.7667 61.308 77.7667 61.308 77.7667 61.269C76.9087 60.372 76.4797 59.631 76.4407 59.553C76.3237 59.358 76.4017 59.124 76.5967 59.007C76.7917 58.89 77.0257 58.968 77.1427 59.163C77.1817 59.202 79.6387 63.297 84.4357 64.038C84.7087 64.077 84.9037 64.272 84.9817 64.584C85.1377 65.325 84.3187 66.651 83.3047 67.275C82.8757 67.509 82.4857 67.626 82.0567 67.626ZM78.8587 62.322C79.2487 63.57 80.0287 65.559 81.1597 66.495C81.7447 66.963 82.3297 66.963 82.9537 66.573C83.7337 66.066 84.1627 65.169 84.2017 64.818C81.9007 64.428 80.1457 63.375 78.8587 62.322Z" fill="black"/>
<path d="M81.0853 50.0941C81.3555 49.8161 81.3366 49.3595 81.0432 49.0742C80.7497 48.789 80.2927 48.7831 80.0225 49.0611C79.7523 49.3392 79.7711 49.7958 80.0646 50.081C80.3581 50.3663 80.815 50.3721 81.0853 50.0941Z" fill="black"/>
<path d="M89.47 50.0937C89.7402 49.8157 89.7214 49.3591 89.4279 49.0739C89.1345 48.7886 88.6775 48.7828 88.4073 49.0608C88.137 49.3388 88.1559 49.7954 88.4493 50.0807C88.7428 50.3659 89.1998 50.3718 89.47 50.0937Z" fill="black"/>
<path d="M67.0801 66.066C67.0801 66.066 72.1111 73.749 78.2731 75.348C84.3961 76.986 87.6721 70.278 89.3491 66.495C89.3491 66.495 89.1931 69.342 88.8811 70.902C88.5691 72.462 88.1791 75.465 88.1791 75.465C88.1791 75.465 76.9861 89.661 67.0801 66.066Z" fill="black"/>
<path d="M84.6306 305.409H72.9696L72.2676 299.754H84.6696L84.6306 305.409Z" fill="black"/>
<path d="M52.8844 277.953L61.5814 290.316L56.9794 294.021L51.4414 279.513L52.8844 277.953Z" fill="black"/>
<path d="M89.7006 145.431C89.7006 145.431 87.3216 153.114 72.2676 153.348H90.7146L91.0656 153.738L89.7006 145.431Z" fill="black"/>
<path d="M108.889 161.304L120.823 180.492L122.929 176.124L110.215 160.953L108.889 161.304Z" fill="black"/>
<path d="M75.348 60.645C75.114 60.645 74.958 60.45 74.958 60.255C74.958 58.071 75.309 56.94 76.05 56.667C76.908 56.355 77.727 57.33 78.312 57.954C78.39 58.071 78.507 58.188 78.585 58.227C78.702 58.305 78.819 58.422 78.819 58.578C78.819 58.812 78.663 58.968 78.429 58.968C78.195 58.968 78.078 58.812 77.766 58.461C77.493 58.149 76.713 57.252 76.362 57.408C76.284 57.447 75.816 57.759 75.777 60.255C75.738 60.489 75.582 60.645 75.348 60.645Z" fill="black"/>
<path d="M79.8336 337.311C71.9166 337.311 67.1976 335.868 65.4426 332.943C64.1556 330.759 64.5066 327.873 66.5346 324.09C66.6516 323.895 66.8856 323.817 67.0806 323.934C67.2756 324.051 67.3536 324.285 67.2366 324.48C65.3646 327.99 65.0136 330.642 66.1446 332.553C67.7436 335.205 72.3456 336.531 79.8726 336.531C90.0906 336.531 93.5226 334.542 94.5756 332.865C95.1996 331.89 95.1996 330.681 94.5756 329.355C92.8596 325.65 90.5586 321.555 85.1376 312.585C84.3186 312.897 82.1346 313.599 79.5996 313.599C79.3656 313.599 79.2096 313.443 79.2096 313.209C79.2096 312.975 79.3656 312.819 79.5996 312.819C82.5636 312.819 85.1376 311.727 85.1376 311.727L85.4496 311.61L85.6056 311.883C91.1436 321.087 93.4836 325.221 95.2386 329.004C95.9796 330.603 95.9406 332.046 95.1606 333.294C93.4836 335.946 88.3356 337.311 79.8336 337.311Z" fill="black"/>
<path d="M87.8279 316.446C87.6719 316.446 87.4769 316.329 87.4379 316.134C85.8389 309.738 84.4739 307.203 84.4349 307.203C84.3179 307.008 84.3959 306.774 84.5909 306.657C84.7859 306.54 85.0199 306.618 85.1369 306.813C85.1759 306.93 86.5799 309.387 88.2179 315.939C88.2569 316.134 88.1399 316.368 87.9449 316.407C87.9059 316.446 87.8669 316.446 87.8279 316.446Z" fill="black"/>
<path d="M43.6021 336.648L43.4071 336.57C43.3291 336.531 34.1251 332.436 32.2531 319.371C31.2001 311.961 33.5791 299.364 34.1251 296.79L32.5261 296.712L32.2531 284.115C32.2531 283.881 32.4091 283.725 32.6431 283.725C32.8381 283.725 33.0331 283.881 33.0331 284.115L33.2671 296.01L35.0611 296.088L34.9831 296.556C34.9441 296.712 31.9021 311.376 33.0331 319.332C34.6711 330.954 42.2761 335.205 43.5631 335.829C49.7251 332.085 48.7111 321.243 48.1261 314.73C47.9701 312.936 47.8141 311.493 47.8531 310.518C48.0481 305.916 50.9731 303.03 51.0901 302.913C51.2461 302.757 51.4801 302.757 51.6361 302.913C51.7921 303.069 51.7921 303.303 51.6361 303.459C51.5971 303.498 48.8281 306.267 48.6331 310.557C48.5941 311.454 48.7111 312.936 48.8671 314.652C49.4911 321.399 50.5051 332.709 43.7581 336.609L43.6021 336.648Z" fill="black"/>
<path d="M79.6773 334.503C71.4873 334.503 68.4453 332.514 68.3283 332.397C68.1333 332.28 68.0943 332.046 68.2113 331.851C68.3283 331.656 68.5623 331.617 68.7573 331.734C68.7963 331.773 71.9943 333.801 80.4183 333.684C90.0123 333.528 91.6113 332.241 91.6503 332.202C91.8063 332.046 92.0403 332.085 92.1963 332.202C92.3523 332.319 92.3523 332.592 92.1963 332.748C92.0403 332.904 90.4413 334.308 80.4183 334.464C80.1843 334.503 79.9113 334.503 79.6773 334.503Z" fill="black"/>
<path d="M42.9784 333.372C42.9004 333.372 42.7834 333.333 42.7054 333.294C37.6354 328.848 35.0614 321.009 35.2564 310.674C35.4124 303.381 36.8944 297.141 37.0894 296.4L35.4514 285.363C35.4124 285.168 35.5684 284.934 35.7634 284.934C35.9584 284.895 36.1924 285.051 36.1924 285.246L37.8694 296.439L37.8304 296.517C37.7524 296.79 31.3174 322.296 43.1734 332.709C43.3294 332.865 43.3684 333.099 43.2124 333.255C43.2124 333.333 43.0954 333.372 42.9784 333.372Z" fill="black"/>
<path d="M62.3608 292.344L50.2318 274.287C50.1148 274.092 50.1538 273.858 50.3488 273.741C50.5438 273.624 50.7778 273.663 50.8948 273.858L62.5558 291.291C65.8708 288.99 93.8338 269.256 110.916 249.444C115.83 243.75 118.911 235.794 120.081 225.771C120.12 225.576 120.315 225.42 120.51 225.42C120.705 225.459 120.861 225.654 120.861 225.849C119.652 236.028 116.532 244.14 111.501 249.951C93.3658 271.011 62.9848 291.915 62.6728 292.149L62.3608 292.344Z" fill="black"/>
<path d="M80.4959 250.224C80.3009 250.224 80.1449 250.068 80.1059 249.873C76.7519 221.325 76.9859 184.938 76.9859 184.548C76.9859 184.353 77.1809 184.158 77.3759 184.158C77.6099 184.158 77.7659 184.353 77.7659 184.548C77.7659 184.899 77.5319 221.247 80.8859 249.756C80.9249 249.951 80.7689 250.146 80.5349 250.185C80.5349 250.224 80.4959 250.224 80.4959 250.224Z" fill="black"/>
<path d="M77.9614 32.916C77.8054 32.916 77.6494 32.799 77.6104 32.643C77.5324 32.448 77.6494 32.214 77.8444 32.136C90.0514 28.002 87.9064 16.77 87.8284 16.302C87.7894 16.107 87.9064 15.873 88.1404 15.834C88.3354 15.795 88.5694 15.912 88.6084 16.146C88.6474 16.263 90.9484 28.509 78.1174 32.877C78.0394 32.916 78.0004 32.916 77.9614 32.916Z" fill="black"/>
<path d="M83.0313 32.643C82.8753 32.643 82.7193 32.526 82.6413 32.37C82.5633 32.175 82.6803 31.941 82.9143 31.902C93.0153 28.899 91.1433 14.742 91.1043 14.586C91.0653 14.391 91.2213 14.157 91.4553 14.157C91.6503 14.118 91.8843 14.274 91.8843 14.508C91.9233 14.664 93.8733 29.484 83.1093 32.682C83.1093 32.643 83.0703 32.643 83.0313 32.643Z" fill="black"/>
<path d="M72.813 31.941C72.618 31.941 72.462 31.824 72.423 31.629C72.384 31.434 72.54 31.2 72.735 31.161C77.727 30.303 81.081 28.119 82.641 24.687C83.811 22.152 83.538 19.812 83.538 19.812C83.499 19.617 83.655 19.422 83.889 19.383C84.084 19.344 84.279 19.5 84.318 19.734C84.318 19.851 85.488 29.796 72.891 31.98C72.852 31.941 72.813 31.941 72.813 31.941Z" fill="black"/>
<g opacity="0.12">
<g opacity="0.12">
<path opacity="0.12" d="M87.2433 80.73C85.0983 82.68 82.4853 84.045 79.6383 84.669C79.1313 89.934 79.0923 95.238 79.1313 100.542C79.2483 115.167 78.7803 129.753 80.4963 144.339C80.8083 146.952 81.1593 149.604 81.5493 152.217C86.7753 150.462 88.9593 147.576 89.5833 146.328C86.3073 124.761 85.5273 101.829 86.6583 86.853C86.8533 84.825 87.0093 82.797 87.2433 80.73Z" fill="#464249"/>
</g>
<g opacity="0.12">
<path opacity="0.12" d="M48.165 281.736C48.399 283.764 48.75 285.792 49.218 287.82C50.193 291.018 51.207 294.177 52.26 297.336L56.823 293.67L51.441 279.552L51.636 279.357L48.165 281.736Z" fill="#464249"/>
</g>
<g opacity="0.12">
<path opacity="0.12" d="M79.7549 305.409C79.8719 307.866 79.9109 310.362 79.8719 312.819C81.6269 312.78 83.2259 312.39 84.2009 312.078L84.2789 305.409H79.7549Z" fill="#464249"/>
</g>
</g>
<g opacity="0.45">
<g opacity="0.45">
<path opacity="0.45" d="M51.5576 302.913L50.8556 301.743C49.9196 302.835 48.9836 303.888 48.0086 304.902C47.1506 308.841 45.6296 312.663 43.1336 315.822C41.4956 317.85 39.5456 319.644 37.6346 321.438C36.8156 322.218 36.2696 322.725 35.7236 323.349C35.2946 323.817 34.8656 324.324 34.5146 324.831C34.5146 324.831 34.4756 324.87 34.4756 324.909C37.2836 332.358 42.5486 335.322 43.5626 335.829C49.7246 332.085 48.7106 321.243 48.1256 314.73C47.9696 312.936 47.8136 311.493 47.8526 310.518C48.0476 306.54 50.8556 303.693 51.5576 302.913Z" fill="#333233"/>
</g>
<g opacity="0.45">
<path opacity="0.45" d="M94.5747 329.355C92.8587 325.65 90.5577 321.555 85.1367 312.585C85.0587 312.624 84.9807 312.663 84.8637 312.663C84.7857 312.741 84.7077 312.819 84.5907 312.819C84.5517 312.819 84.5517 312.819 84.5127 312.819C83.6547 313.092 82.4067 312.936 80.8467 312.858C81.3537 314.34 81.8607 315.822 82.3287 317.343C84.2007 323.349 86.2677 329.823 86.1117 336.219C91.5717 335.595 93.7557 334.152 94.5747 332.865C95.1987 331.89 95.1987 330.681 94.5747 329.355Z" fill="#333233"/>
</g>
<g opacity="0.45">
<path opacity="0.45" d="M86.8915 313.95C86.5015 313.287 86.0725 312.585 85.6435 311.883L85.4875 311.61L85.1755 311.727C85.1755 311.727 85.0975 311.766 85.0195 311.805L85.0585 308.412C85.4875 309.465 86.1505 311.259 86.8915 313.95Z" fill="#333233"/>
</g>
</g>
<g opacity="0.4">
<g opacity="0.4">
<path opacity="0.4" d="M88.9981 28.158C88.8811 27.963 88.6471 27.924 88.4521 28.041C88.2571 28.158 88.2181 28.392 88.3351 28.587C88.3351 28.587 88.3741 28.665 88.4521 28.782C87.5161 29.874 86.3851 30.693 85.1371 31.278C85.4101 32.175 85.6051 33.072 85.8391 33.969C86.5021 36.777 87.3211 39.507 87.5941 42.393C88.1011 47.853 87.7891 53.703 86.5411 59.007C85.4881 63.609 83.5381 68.523 79.4431 71.253C75.8161 73.671 72.1111 72.462 69.5371 69.771C69.5371 69.771 69.5371 69.771 69.5371 69.81C69.8881 70.2 70.2391 70.59 70.6291 70.98C73.8271 74.256 77.0641 75.972 80.0671 75.972C87.7501 75.972 92.6641 62.322 93.4051 49.491C94.1461 35.802 89.1931 28.47 88.9981 28.158ZM91.2991 35.724C91.4161 36.153 91.5331 36.621 91.6501 37.089C91.5331 36.582 91.4161 36.153 91.2991 35.724ZM91.8841 38.259C92.0791 39.156 92.2351 40.131 92.3521 41.145C92.1961 40.092 92.0401 39.156 91.8841 38.259Z" fill="#FEAE76"/>
</g>
<g opacity="0.4">
<path opacity="0.4" d="M90.7535 33.93C90.6755 33.657 90.5585 33.384 90.4805 33.111C90.5585 33.345 90.6365 33.657 90.7535 33.93Z" fill="#FEAE76"/>
</g>
<g opacity="0.4">
<path opacity="0.4" d="M84.5127 73.242C84.7077 73.086 84.9027 72.891 85.0977 72.696C84.9027 72.891 84.7077 73.047 84.5127 73.242Z" fill="#FEAE76"/>
</g>
<g opacity="0.4">
<path opacity="0.4" d="M85.0977 72.696C85.2927 72.501 85.4487 72.306 85.6437 72.111C85.4487 72.306 85.2537 72.501 85.0977 72.696Z" fill="#FEAE76"/>
</g>
<g opacity="0.4">
<path opacity="0.4" d="M85.7607 71.916C85.8777 71.76 86.0337 71.604 86.1507 71.448C86.0337 71.604 85.9167 71.76 85.7607 71.916Z" fill="#FEAE76"/>
</g>
<g opacity="0.4">
<path opacity="0.4" d="M86.3457 71.214C86.4627 71.058 86.5797 70.902 86.6967 70.746C86.5797 70.863 86.4627 71.019 86.3457 71.214Z" fill="#FEAE76"/>
</g>
<g opacity="0.4">
<path opacity="0.4" d="M86.8535 70.434C86.9705 70.278 87.0875 70.083 87.2045 69.927C87.0875 70.122 86.9705 70.278 86.8535 70.434Z" fill="#FEAE76"/>
</g>
<g opacity="0.4">
<path opacity="0.4" d="M87.3604 69.654C87.4773 69.459 87.5943 69.264 87.6723 69.069C87.5943 69.264 87.4773 69.459 87.3604 69.654Z" fill="#FEAE76"/>
</g>
<g opacity="0.4">
<path opacity="0.4" d="M87.8281 68.796C87.9451 68.601 88.0621 68.367 88.1791 68.133C88.0621 68.367 87.9451 68.601 87.8281 68.796Z" fill="#FEAE76"/>
</g>
<g opacity="0.4">
<path opacity="0.4" d="M88.2959 67.899C88.4519 67.626 88.5689 67.314 88.6859 67.041C88.5689 67.353 88.4519 67.626 88.2959 67.899Z" fill="#FEAE76"/>
</g>
<g opacity="0.4">
<path opacity="0.4" d="M88.7646 66.963C88.9207 66.612 89.0767 66.3 89.1937 65.949C89.0377 66.3 88.9207 66.612 88.7646 66.963Z" fill="#FEAE76"/>
</g>
<g opacity="0.4">
<path opacity="0.4" d="M89.8564 64.155C89.9344 63.96 89.9734 63.804 90.0514 63.609C89.9734 63.765 89.9344 63.96 89.8564 64.155Z" fill="#FEAE76"/>
</g>
<g opacity="0.4">
<path opacity="0.4" d="M90.207 63.18C90.246 62.985 90.324 62.829 90.363 62.634C90.285 62.79 90.246 62.985 90.207 63.18Z" fill="#FEAE76"/>
</g>
<g opacity="0.4">
<path opacity="0.4" d="M90.4805 62.166C90.5195 61.971 90.5975 61.815 90.6365 61.62C90.5975 61.776 90.5585 61.971 90.4805 62.166Z" fill="#FEAE76"/>
</g>
<g opacity="0.4">
<path opacity="0.4" d="M90.792 61.113C90.831 60.918 90.87 60.762 90.948 60.567C90.87 60.762 90.831 60.918 90.792 61.113Z" fill="#FEAE76"/>
</g>
<g opacity="0.4">
<path opacity="0.4" d="M91.0654 60.021C91.1044 59.865 91.1434 59.67 91.1824 59.475C91.1434 59.67 91.1044 59.865 91.0654 60.021Z" fill="#FEAE76"/>
</g>
<g opacity="0.4">
<path opacity="0.4" d="M91.3379 58.851C91.3769 58.695 91.4159 58.539 91.4159 58.422C91.4159 58.539 91.3769 58.695 91.3379 58.851Z" fill="#FEAE76"/>
</g>
<g opacity="0.4">
<path opacity="0.4" d="M91.6504 57.291C91.6894 57.135 91.6894 56.979 91.7284 56.862C91.6894 57.018 91.6894 57.174 91.6504 57.291Z" fill="#FEAE76"/>
</g>
<g opacity="0.4">
<path opacity="0.4" d="M91.8457 56.121C91.8847 55.965 91.8847 55.77 91.9237 55.614C91.9237 55.809 91.8847 55.965 91.8457 56.121Z" fill="#FEAE76"/>
</g>
<g opacity="0.4">
<path opacity="0.4" d="M92.04 54.951C92.079 54.795 92.079 54.6 92.118 54.444C92.079 54.6 92.079 54.756 92.04 54.951Z" fill="#FEAE76"/>
</g>
<g opacity="0.4">
<path opacity="0.4" d="M92.1963 53.703C92.2353 53.547 92.2353 53.352 92.2743 53.196C92.2353 53.352 92.2353 53.547 92.1963 53.703Z" fill="#FEAE76"/>
</g>
<g opacity="0.4">
<path opacity="0.4" d="M92.3525 52.455C92.3525 52.299 92.3915 52.143 92.3915 51.948C92.3915 52.104 92.3525 52.299 92.3525 52.455Z" fill="#FEAE76"/>
</g>
<g opacity="0.4">
<path opacity="0.4" d="M92.4697 51.09C92.4697 50.934 92.5087 50.817 92.5087 50.661C92.5087 50.817 92.4697 50.973 92.4697 51.09Z" fill="#FEAE76"/>
</g>
<g opacity="0.4">
<path opacity="0.4" d="M88.9979 29.757C88.9589 29.718 88.9589 29.679 88.9199 29.64C88.9589 29.64 88.9979 29.718 88.9979 29.757Z" fill="#FEAE76"/>
</g>
<g opacity="0.4">
<path opacity="0.4" d="M88.8805 29.4836C88.8805 29.4448 88.8418 29.406 88.8418 29.406C88.8418 29.406 88.8418 29.4448 88.8805 29.4836Z" fill="#FEAE76"/>
</g>
<g opacity="0.4">
<path opacity="0.4" d="M88.53 28.8595C88.53 28.8208 88.4912 28.8208 88.4912 28.782C88.4912 28.782 88.4912 28.8208 88.53 28.8595Z" fill="#FEAE76"/>
</g>
<g opacity="0.4">
<path opacity="0.4" d="M88.6862 29.1715C88.6862 29.1328 88.6475 29.1328 88.6475 29.094C88.6862 29.1328 88.6862 29.1328 88.6862 29.1715Z" fill="#FEAE76"/>
</g>
<g opacity="0.4">
<path opacity="0.4" d="M88.6081 28.9765C88.6081 28.9378 88.5693 28.9378 88.5693 28.899C88.5693 28.9378 88.5693 28.9765 88.6081 28.9765Z" fill="#FEAE76"/>
</g>
<g opacity="0.4">
<path opacity="0.4" d="M89.0762 29.913C89.1152 29.9519 89.1152 30.0297 89.1542 30.0686C89.1542 29.9908 89.1152 29.9519 89.0762 29.913Z" fill="#FEAE76"/>
</g>
<g opacity="0.4">
<path opacity="0.4" d="M89.2324 30.186C89.2717 30.3033 89.3502 30.4207 89.3894 30.538C89.3502 30.4207 89.3109 30.3033 89.2324 30.186Z" fill="#FEAE76"/>
</g>
<g opacity="0.4">
<path opacity="0.4" d="M89.4658 30.693C89.5048 30.771 89.5438 30.849 89.5828 30.927C89.5438 30.849 89.5048 30.771 89.4658 30.693Z" fill="#FEAE76"/>
</g>
<g opacity="0.4">
<path opacity="0.4" d="M89.6611 31.083C89.7001 31.161 89.7391 31.239 89.7781 31.356C89.7391 31.239 89.7001 31.161 89.6611 31.083Z" fill="#FEAE76"/>
</g>
<g opacity="0.4">
<path opacity="0.4" d="M89.8174 31.473C89.9734 31.824 90.1294 32.175 90.2464 32.565C90.1294 32.175 89.9734 31.785 89.8174 31.473Z" fill="#FEAE76"/>
</g>
<g opacity="0.4">
<path opacity="0.4" d="M90.2852 32.604C90.3242 32.721 90.4021 32.877 90.4411 32.994C90.4021 32.877 90.3242 32.76 90.2852 32.604Z" fill="#FEAE76"/>
</g>
<g opacity="0.4">
<path opacity="0.4" d="M91.1045 35.139C91.1435 35.334 91.2215 35.529 91.2605 35.685C91.2215 35.49 91.1825 35.334 91.1045 35.139Z" fill="#FEAE76"/>
</g>
<g opacity="0.4">
<path opacity="0.4" d="M92.3525 41.145C92.3915 41.379 92.4305 41.652 92.4305 41.886C92.3915 41.652 92.3525 41.379 92.3525 41.145Z" fill="#FEAE76"/>
</g>
<g opacity="0.4">
<path opacity="0.4" d="M80.6523 75.114C80.4573 75.153 80.2233 75.153 80.0283 75.153C80.2623 75.153 80.4573 75.153 80.6523 75.114Z" fill="#FEAE76"/>
</g>
<g opacity="0.4">
<path opacity="0.4" d="M84.3567 73.359C84.2007 73.476 84.0837 73.593 83.9277 73.71C84.0837 73.593 84.2397 73.476 84.3567 73.359Z" fill="#FEAE76"/>
</g>
<g opacity="0.4">
<path opacity="0.4" d="M83.7328 73.866C83.6158 73.944 83.4988 74.061 83.3428 74.139C83.4988 74.022 83.6158 73.944 83.7328 73.866Z" fill="#FEAE76"/>
</g>
<g opacity="0.4">
<path opacity="0.4" d="M83.1088 74.256C82.9918 74.334 82.8748 74.412 82.7578 74.451C82.8748 74.412 82.9918 74.334 83.1088 74.256Z" fill="#FEAE76"/>
</g>
<g opacity="0.4">
<path opacity="0.4" d="M82.5238 74.568C82.4069 74.607 82.2898 74.685 82.1729 74.724C82.2898 74.685 82.4069 74.646 82.5238 74.568Z" fill="#FEAE76"/>
</g>
<g opacity="0.4">
<path opacity="0.4" d="M81.8998 74.841C81.7828 74.88 81.6658 74.919 81.5098 74.958C81.6658 74.919 81.7828 74.88 81.8998 74.841Z" fill="#FEAE76"/>
</g>
<g opacity="0.4">
<path opacity="0.4" d="M81.2766 74.997C81.1206 75.036 81.0037 75.036 80.8477 75.075C81.0037 75.075 81.1596 75.036 81.2766 74.997Z" fill="#FEAE76"/>
</g>
<g opacity="0.4">
<path opacity="0.4" d="M61.0742 174.525C60.1772 173.901 59.0072 173.823 58.1102 174.33L56.1602 175.422C56.5892 175.812 56.9402 176.124 57.2522 176.358C57.4472 176.241 57.6812 176.124 57.9542 176.085C58.5782 175.929 59.2022 175.929 59.8652 175.929C60.9572 175.929 61.6592 177.138 61.5812 178.074C61.4252 180.063 61.0352 182.208 60.2552 184.197C60.3722 184.041 60.4502 183.885 60.4892 183.69L62.2442 177.684C62.5952 176.553 62.0882 175.266 61.0742 174.525Z" fill="#FEAE76"/>
</g>
<g opacity="0.4">
<path opacity="0.4" d="M109.083 161.655H107.25C105.69 161.655 104.403 162.552 103.896 163.956C103.896 163.995 103.935 164.034 103.935 164.073C103.935 164.19 103.857 164.307 103.779 164.385L102.414 169.806C103.311 171.288 104.715 172.926 106.86 173.979C107.601 172.926 108.225 171.639 108.498 170.079C108.537 169.884 108.732 169.728 108.927 169.767C109.122 169.806 109.278 170.001 109.239 170.196C108.888 172.458 107.757 174.213 106.704 175.461C106.704 175.5 106.704 175.539 106.665 175.578C106.626 175.695 106.509 175.734 106.431 175.773C105.456 176.826 104.598 177.411 104.52 177.489C104.442 177.528 104.364 177.567 104.325 177.567C104.208 177.567 104.091 177.489 104.013 177.411C103.896 177.216 103.935 176.982 104.13 176.865C104.13 176.865 104.832 176.397 105.69 175.5L103.584 174.369C102.609 173.862 101.478 173.94 100.659 174.564C100.425 174.72 100.23 174.954 100.074 175.188C100.932 176.982 101.595 178.893 102.336 180.687C102.765 181.74 103.233 182.793 103.74 183.846C104.247 183.573 104.91 183.456 105.417 183.729C105.612 183.807 105.807 183.924 106.002 184.002L111.189 178.503C111.345 178.347 111.579 178.347 111.735 178.503C111.891 178.659 111.891 178.893 111.735 179.049L106.782 184.314C107.289 184.509 107.796 184.704 108.264 184.977C108.498 185.094 108.693 185.289 108.81 185.523C110.916 185.718 112.944 184.821 114.114 183.144L116.805 178.971C116.922 178.776 117.156 178.737 117.351 178.854C117.546 178.971 117.585 179.205 117.468 179.4L114.816 183.534L116.61 183.222C118.287 182.91 119.73 181.896 120.549 180.414L120.627 180.219L109.083 161.655Z" fill="#FEAE76"/>
</g>
</g>
<g opacity="0.33">
<g opacity="0.33">
<path opacity="0.33" d="M94.6921 89.622C93.9121 96.213 93.2491 102.765 92.7031 109.356C98.7091 93.756 105.144 85.527 106.353 84.084L100.308 75.075C98.3581 79.911 96.4861 84.747 94.6921 89.622Z" fill="#464249"/>
</g>
<g opacity="0.33">
<path opacity="0.33" d="M54.6388 68.094C60.0988 82.29 64.4278 97.032 67.4698 112.008C66.7288 102.609 65.5978 93.951 64.2718 86.931C63.8038 84.474 63.6088 82.056 63.1408 79.755C63.1018 79.677 63.1018 79.638 63.1018 79.56C59.9038 64.896 56.3548 53.937 55.5748 51.636C54.7168 52.221 52.3768 53.898 49.8418 56.511C51.5578 60.333 53.1568 64.194 54.6388 68.094Z" fill="#464249"/>
</g>
<g opacity="0.33">
<path opacity="0.33" d="M47.5408 163.839L50.7778 159.393L43.0558 150.696L40.0918 154.713C42.7438 157.638 45.2398 160.68 47.5408 163.839Z" fill="#464249"/>
</g>
<g opacity="0.33">
<path opacity="0.33" d="M59.8652 287.196L62.5952 291.252C63.4532 290.667 65.9102 288.951 69.3422 286.377L66.5732 281.97C64.3502 283.725 62.0492 285.402 59.8652 287.196Z" fill="#464249"/>
</g>
<g opacity="0.33">
<path opacity="0.33" d="M78.9749 292.305C79.0139 292.539 79.0529 292.773 79.0919 293.007C79.9499 294.918 80.3399 297.18 80.4959 299.364H86.5019C86.3069 298.233 85.7999 295.152 85.2539 291.096H78.5459C78.7409 291.447 78.8969 291.876 78.9749 292.305Z" fill="#464249"/>
</g>
<g opacity="0.33">
<path opacity="0.33" d="M121.056 162.825C119.769 164.97 118.482 167.076 117.195 169.221L125.385 178.542L130.026 167.661L123.279 159.354C122.499 160.524 121.758 161.655 121.056 162.825Z" fill="#464249"/>
</g>
<g opacity="0.33">
<path opacity="0.33" d="M38.532 326.82C37.947 327.873 37.284 328.848 36.543 329.784C37.713 331.617 38.922 332.943 40.014 333.84C42.666 335.985 43.563 336.219 43.563 336.219L45.357 334.932C45.357 334.893 41.34 332.826 38.532 326.82Z" fill="#464249"/>
</g>
<g opacity="0.33">
<path opacity="0.33" d="M95.2376 329.706C93.6385 332.553 90.1675 333.801 83.8105 334.113C83.9665 335.049 84.0446 336.024 84.0836 336.999C86.6576 336.804 89.0365 336.375 90.9475 335.673C97.0316 333.411 95.2376 329.706 95.2376 329.706Z" fill="#464249"/>
</g>
</g>
<g opacity="0.45">
<g opacity="0.45">
<path opacity="0.45" d="M111.462 105.846C111.345 105.573 111.228 105.261 111.111 104.988C108.654 107.211 106.548 109.746 104.403 112.281C102.999 123.825 102.375 135.486 103.116 147.108C103.428 152.022 103.818 156.975 104.442 161.889C105.183 161.265 106.197 160.914 107.25 160.914H109.434L108.225 159.471L113.685 150.93C108.303 128.466 111.111 108.147 111.462 105.846Z" fill="#333233"/>
</g>
</g>
<g opacity="0.45">
<g opacity="0.45">
<path opacity="0.45" d="M29.0547 133.809L30.8487 135.798L41.9247 104.286C41.9637 104.208 42.0027 104.13 42.0807 104.091C42.2757 103.74 42.5097 103.428 42.7827 103.155C42.5487 102.687 42.2757 102.219 42.0417 101.751C36.8547 112.749 29.8347 122.694 23.2047 132.873C22.9317 133.614 22.6587 134.316 22.3857 135.057C26.5977 141.531 31.0047 147.888 34.9437 154.518C35.6067 155.61 36.2307 156.741 36.8937 157.833L42.5877 150.111L28.5477 134.277C28.3917 134.121 28.4307 133.887 28.5867 133.731C28.6647 133.614 28.8987 133.653 29.0547 133.809Z" fill="#333233"/>
</g>
<g opacity="0.45">
<path opacity="0.45" d="M68.2891 126.594C68.2111 126.555 68.1331 126.477 68.1331 126.399C59.0071 101.517 47.7751 88.14 45.0061 85.098C44.6551 85.098 44.2651 85.137 43.9141 85.137C45.2011 88.257 46.8391 91.26 48.4381 94.185C51.0511 99.021 53.8591 103.779 55.8481 108.927C57.8371 114.153 59.5921 119.535 61.3861 124.839C63.9601 132.405 66.3391 140.166 67.4701 148.044C67.6651 147.654 67.8991 147.264 68.1721 146.913C68.4451 140.166 68.4841 133.302 68.2891 126.594Z" fill="#333233"/>
</g>
<g opacity="0.45">
<path opacity="0.45" d="M76.4002 282.204C76.5952 282.009 76.7512 281.775 76.9462 281.58C76.5172 281.931 76.0882 282.243 75.6982 282.555C75.9322 282.438 76.1662 282.321 76.4002 282.204Z" fill="#333233"/>
</g>
<g opacity="0.45">
<path opacity="0.45" d="M77.0251 191.997C76.8301 191.373 76.7131 190.671 76.7131 189.93C76.7521 188.214 76.8301 186.498 76.9471 184.782H75.8551C74.6461 184.86 73.4372 184.899 72.2672 184.977C72.1892 186.147 72.1112 187.356 72.0332 188.526C71.7212 195.936 71.8382 203.385 72.1502 210.795C72.7352 225.342 74.2172 239.85 76.6351 254.202C77.9221 252.837 79.0921 251.433 80.1451 249.912C80.1451 249.834 80.1451 249.795 80.1451 249.795C77.6881 229.086 77.1421 204.204 77.0251 191.997Z" fill="#333233"/>
</g>
<g opacity="0.45">
<path opacity="0.45" d="M120.393 208.65C119.535 196.287 116.844 185.913 116.298 183.963L113.997 184.353H113.958C112.749 185.601 111.072 186.264 109.278 186.264C108.654 186.264 107.991 186.186 107.367 185.991L106.548 185.757C108.225 192.855 110.136 199.875 111.189 207.09C112.71 217.776 112.047 229.242 107.016 238.953C102.531 247.572 95.6672 254.319 88.4912 260.715C81.1202 267.267 73.7882 273.78 66.5342 280.41L70.0052 285.909C72.8132 283.803 76.2452 281.19 79.9892 278.226C81.3542 276.744 82.7972 275.34 84.3962 274.131C84.8642 273.78 85.3712 273.546 85.8782 273.429C94.3802 266.331 103.662 257.907 110.955 249.444C120.315 238.563 121.251 221.247 120.393 208.65Z" fill="#333233"/>
</g>
<g opacity="0.45">
<path opacity="0.45" d="M142.817 125.19C140.165 119.925 135.602 112.515 131.156 105.378C126.788 98.358 122.693 91.728 120.392 87.087C116.063 78.39 111.266 72.774 106.508 70.863C102.53 69.225 100.892 68.796 100.502 68.679L99.4883 71.175C101.048 74.022 102.608 76.83 104.246 79.638L107.288 84.201L107.093 84.435C108.185 86.19 109.277 87.984 110.369 89.739C116.063 98.67 122.888 107.094 127.529 116.688C128.855 118.716 130.142 120.822 131.117 123.045C134.471 130.767 130.142 137.943 126.32 144.534C125.852 145.353 125.384 146.133 124.955 146.952C124.916 147.03 124.877 147.069 124.877 147.108C124.838 147.147 124.838 147.186 124.799 147.264C124.682 147.498 124.526 147.732 124.409 148.005C123.512 149.76 122.654 151.515 121.757 153.27C121.406 153.972 121.055 154.674 120.704 155.337L130.376 166.998L142.973 137.475C144.806 133.653 144.728 129.09 142.817 125.19Z" fill="#333233"/>
</g>
</g>
<g opacity="0.56">
<path opacity="0.56" d="M86.6183 5.733C84.6293 4.329 82.7183 4.485 80.4173 5.889C81.1193 6.006 81.8603 6.279 82.4843 6.669C89.2703 10.842 89.1533 20.475 84.0833 25.974C80.9243 29.406 76.5953 30.966 72.0713 31.356C77.9993 33.462 87.6713 33.384 90.4013 25.233C93.4433 16.263 91.0643 8.853 86.6183 5.733Z" fill="#723D43"/>
</g>
<path d="M73.5536 45.474C73.3586 45.474 73.2026 45.357 73.1636 45.162C73.1246 44.967 73.2416 44.733 73.4756 44.694L80.8466 43.251C81.0416 43.212 81.2756 43.329 81.3146 43.563C81.3536 43.758 81.2366 43.992 81.0026 44.031L73.6316 45.474C73.6316 45.474 73.5926 45.474 73.5536 45.474Z" fill="#723D43"/>
<path d="M95.316 45.864C95.277 45.864 95.238 45.864 95.199 45.864L86.814 43.68C86.619 43.641 86.463 43.407 86.541 43.212C86.58 43.017 86.814 42.861 87.009 42.939L95.394 45.123C95.589 45.162 95.745 45.396 95.667 45.591C95.628 45.747 95.472 45.864 95.316 45.864Z" fill="#723D43"/>
</svg>
