<?xml version="1.0" encoding="utf-8"?>
<!-- Generator: Adobe Illustrator 22.1.0, SVG Export Plug-In . SVG Version: 6.00 Build 0)  -->
<svg version="1.1" id="Layer_1" xmlns="http://www.w3.org/2000/svg" xmlns:xlink="http://www.w3.org/1999/xlink" x="0px" y="0px"
	 viewBox="0 0 110 158" style="enable-background:new 0 0 110 158;" xml:space="preserve">
<style type="text/css">
	.st0{fill:#3C5C65;fill-opacity:0.35;}
	.st1{fill:none;stroke:#F9E46B;stroke-width:2;}
</style>
<path class="st0" d="M92.5,145.1L21.7,150c-11.6,0.8-21-10.7-19.6-24.1l11.3-107C14.8,5.8,26-2.7,36.9,0.8l47.7,15.3
	c7.1,2.2,12.3,9.1,13.4,17.4l11.7,86.9C111.5,132.9,103.5,144.4,92.5,145.1z"/>
<path class="st1" d="M25.6,141c-6.6-2.1-11.7-8.6-12.7-16.6l0,0L1.2,37.5l0,0c-1.7-12.1,6.1-22.9,16.3-23.7c0,0,0,0,0,0L88.3,9
	c0,0,0,0,0,0c10.9-0.7,19.9,10.1,18.5,23 M25.7,141l47.7,15.3c0,0,0,0,0,0 M25.7,141l47.7,15.3 M73.4,156.3
	c10.2,3.2,20.9-4.7,22.2-17.3 M95.6,139l11.3-107L95.6,139z"/>
</svg>
