<?xml version="1.0" encoding="utf-8"?>
<!-- Generator: Adobe Illustrator 22.1.0, SVG Export Plug-In . SVG Version: 6.00 Build 0)  -->
<svg version="1.1" id="Layer_1" xmlns="http://www.w3.org/2000/svg" xmlns:xlink="http://www.w3.org/1999/xlink" x="0px" y="0px"
	 viewBox="0 0 110 158" style="enable-background:new 0 0 110 158;" xml:space="preserve">
<style type="text/css">
	.st0{fill:#FFFFFF;}
</style>
<g id="CheesesWorldBtn">
	<path id="Cheese_Lovers_Like_You" class="st0" d="M36.1,30.7c-0.1,1.5-0.5,2.6-1.2,3.3c-0.8,0.8-1.8,1.1-3.2,1.1
		c-1.4,0-2.6-0.5-3.3-1.4c-0.8-1-1.2-2.3-1.2-4.1v-2.2c0-1.8,0.4-3.1,1.2-4.1c0.8-1,1.9-1.4,3.3-1.4c1.4,0,2.5,0.4,3.2,1.2
		c0.7,0.8,1.1,1.9,1.2,3.4h-2.6c0-0.9-0.2-1.5-0.4-1.9c-0.3-0.3-0.7-0.5-1.4-0.5c-0.7,0-1.2,0.2-1.5,0.7c-0.3,0.5-0.4,1.3-0.5,2.4
		v2.4c0,1.3,0.1,2.1,0.4,2.6c0.3,0.5,0.8,0.7,1.5,0.7c0.7,0,1.1-0.2,1.4-0.5c0.3-0.3,0.4-0.9,0.4-1.8H36.1z M40,26.3
		c0.5-0.7,1.2-1,2-1c0.9,0,1.5,0.3,2,0.9c0.5,0.6,0.7,1.5,0.7,2.7v6h-2.5v-6c0-0.6-0.1-1-0.3-1.2c-0.2-0.3-0.4-0.4-0.8-0.4
		c-0.5,0-0.8,0.2-1.1,0.6v7h-2.5V21.5H40V26.3z M50.3,35.2c-1.3,0-2.3-0.4-3-1.1c-0.7-0.8-1.1-1.9-1.1-3.3V30c0-1.5,0.3-2.7,1-3.5
		c0.7-0.8,1.6-1.2,2.8-1.2c1.2,0,2.1,0.4,2.7,1.2c0.6,0.8,0.9,1.9,0.9,3.4v1.2h-4.9c0,0.7,0.2,1.2,0.5,1.5c0.3,0.3,0.7,0.5,1.3,0.5
		c0.8,0,1.5-0.3,2.1-0.9l1,1.5c-0.3,0.4-0.7,0.8-1.3,1C51.6,35,51,35.2,50.3,35.2z M48.7,29.3h2.5v-0.2c0-0.6-0.1-1-0.3-1.3
		c-0.2-0.3-0.5-0.4-0.9-0.4c-0.4,0-0.8,0.2-0.9,0.5C48.9,28.2,48.8,28.7,48.7,29.3z M58.9,35.2c-1.3,0-2.3-0.4-3-1.1
		c-0.7-0.8-1.1-1.9-1.1-3.3V30c0-1.5,0.3-2.7,1-3.5c0.7-0.8,1.6-1.2,2.8-1.2c1.2,0,2.1,0.4,2.7,1.2c0.6,0.8,0.9,1.9,0.9,3.4v1.2
		h-4.9c0,0.7,0.2,1.2,0.5,1.5c0.3,0.3,0.7,0.5,1.3,0.5c0.8,0,1.5-0.3,2.1-0.9l1,1.5c-0.3,0.4-0.7,0.8-1.3,1
		C60.2,35,59.6,35.2,58.9,35.2z M57.4,29.3h2.5v-0.2c0-0.6-0.1-1-0.3-1.3c-0.2-0.3-0.5-0.4-0.9-0.4c-0.4,0-0.8,0.2-0.9,0.5
		C57.5,28.2,57.4,28.7,57.4,29.3z M67.9,32.5c0-0.2-0.1-0.4-0.3-0.6c-0.2-0.2-0.6-0.4-1.3-0.7c-1-0.4-1.7-0.8-2.1-1.3
		c-0.4-0.4-0.6-1-0.6-1.7c0-0.8,0.3-1.5,0.9-2.1c0.6-0.5,1.4-0.8,2.4-0.8c1,0,1.9,0.3,2.5,0.8c0.6,0.5,0.9,1.3,0.9,2.2h-2.5
		c0-0.8-0.3-1.2-1-1.2c-0.3,0-0.5,0.1-0.7,0.2c-0.2,0.2-0.3,0.4-0.3,0.7c0,0.2,0.1,0.4,0.3,0.6c0.2,0.2,0.6,0.4,1.3,0.7
		c1,0.4,1.7,0.8,2.1,1.3c0.4,0.5,0.6,1.1,0.6,1.8c0,0.8-0.3,1.5-1,2c-0.6,0.5-1.5,0.8-2.5,0.8c-0.7,0-1.3-0.1-1.8-0.4
		c-0.5-0.3-1-0.7-1.3-1.1c-0.3-0.5-0.4-1-0.4-1.6h2.4c0,0.4,0.1,0.8,0.3,1c0.2,0.2,0.5,0.3,0.9,0.3C67.6,33.4,67.9,33.1,67.9,32.5z
		 M75.7,35.2c-1.3,0-2.3-0.4-3-1.1c-0.7-0.8-1.1-1.9-1.1-3.3V30c0-1.5,0.3-2.7,1-3.5c0.7-0.8,1.6-1.2,2.8-1.2c1.2,0,2.1,0.4,2.7,1.2
		c0.6,0.8,0.9,1.9,0.9,3.4v1.2h-4.9c0,0.7,0.2,1.2,0.5,1.5c0.3,0.3,0.7,0.5,1.3,0.5c0.8,0,1.5-0.3,2.1-0.9l1,1.5
		c-0.3,0.4-0.7,0.8-1.3,1C77,35,76.4,35.2,75.7,35.2z M74.1,29.3h2.5v-0.2c0-0.6-0.1-1-0.3-1.3c-0.2-0.3-0.5-0.4-0.9-0.4
		c-0.4,0-0.8,0.2-0.9,0.5C74.3,28.2,74.2,28.7,74.1,29.3z M32.5,48.9h4.5V51h-7.1V38.2h2.6V48.9z M38.1,45.9c0-1.4,0.3-2.6,1-3.4
		s1.6-1.2,2.8-1.2c1.2,0,2.2,0.4,2.8,1.2c0.7,0.8,1,2,1,3.4v0.6c0,1.4-0.3,2.6-1,3.4c-0.7,0.8-1.6,1.2-2.8,1.2
		c-1.2,0-2.2-0.4-2.8-1.2c-0.7-0.8-1-2-1-3.4V45.9z M40.6,46.6c0,1.7,0.5,2.5,1.4,2.5c0.8,0,1.3-0.7,1.4-2.1l0-1
		c0-0.9-0.1-1.5-0.4-1.9c-0.2-0.4-0.6-0.6-1-0.6c-0.4,0-0.8,0.2-1,0.6c-0.2,0.4-0.4,1.1-0.4,1.9V46.6z M50.4,47.5l1.2-6h2.6L51.6,51
		h-2.4l-2.6-9.5h2.6L50.4,47.5z M59.1,51.2c-1.3,0-2.3-0.4-3-1.1c-0.7-0.8-1.1-1.9-1.1-3.3V46c0-1.5,0.3-2.7,1-3.5
		c0.7-0.8,1.6-1.2,2.8-1.2c1.2,0,2.1,0.4,2.7,1.2c0.6,0.8,0.9,1.9,0.9,3.4v1.2h-4.9c0,0.7,0.2,1.2,0.5,1.5c0.3,0.3,0.7,0.5,1.3,0.5
		c0.8,0,1.5-0.3,2.1-0.9l1,1.5c-0.3,0.4-0.7,0.8-1.3,1C60.4,51,59.7,51.2,59.1,51.2z M57.5,45.3H60v-0.2c0-0.6-0.1-1-0.3-1.3
		c-0.2-0.3-0.5-0.4-0.9-0.4s-0.8,0.2-0.9,0.5C57.6,44.2,57.5,44.7,57.5,45.3z M68.5,43.9l-0.8-0.1c-0.7,0-1.1,0.3-1.4,0.9V51h-2.5
		v-9.5h2.3l0.1,1c0.4-0.8,0.9-1.2,1.6-1.2c0.3,0,0.5,0,0.7,0.1L68.5,43.9z M74,48.5c0-0.2-0.1-0.4-0.3-0.6c-0.2-0.2-0.6-0.4-1.3-0.7
		c-1-0.4-1.7-0.8-2.1-1.3c-0.4-0.4-0.6-1-0.6-1.7c0-0.8,0.3-1.5,0.9-2.1c0.6-0.5,1.4-0.8,2.4-0.8c1,0,1.9,0.3,2.5,0.8
		c0.6,0.5,0.9,1.3,0.9,2.2h-2.5c0-0.8-0.3-1.2-1-1.2c-0.3,0-0.5,0.1-0.7,0.2c-0.2,0.2-0.3,0.4-0.3,0.7c0,0.2,0.1,0.4,0.3,0.6
		c0.2,0.2,0.6,0.4,1.3,0.7c1,0.4,1.7,0.8,2.1,1.3c0.4,0.5,0.6,1.1,0.6,1.8c0,0.8-0.3,1.5-1,2c-0.6,0.5-1.5,0.8-2.5,0.8
		c-0.7,0-1.3-0.1-1.8-0.4c-0.5-0.3-1-0.7-1.3-1.1c-0.3-0.5-0.4-1-0.4-1.6h2.4c0,0.4,0.1,0.8,0.3,1c0.2,0.2,0.5,0.3,0.9,0.3
		C73.7,49.4,74,49.1,74,48.5z M25.9,64.9h4.5V67h-7.1V54.2h2.6V64.9z M34.4,67H32v-9.5h2.5V67z M31.8,55c0-0.4,0.1-0.7,0.4-0.9
		c0.2-0.2,0.6-0.4,1-0.4c0.4,0,0.7,0.1,1,0.4c0.2,0.2,0.4,0.6,0.4,0.9c0,0.4-0.1,0.7-0.4,0.9c-0.2,0.3-0.6,0.4-1,0.4
		c-0.4,0-0.7-0.1-1-0.4C32,55.7,31.8,55.4,31.8,55z M39.5,63.3l-0.7,0.7V67h-2.5V53.5h2.5v7.3l0.3-0.5l1.7-2.8h3l-2.8,3.9l3,5.6
		h-2.8L39.5,63.3z M48.6,67.2c-1.3,0-2.3-0.4-3-1.1c-0.7-0.8-1.1-1.9-1.1-3.3V62c0-1.5,0.3-2.7,1-3.5c0.7-0.8,1.6-1.2,2.8-1.2
		c1.2,0,2.1,0.4,2.7,1.2c0.6,0.8,0.9,1.9,0.9,3.4v1.2h-4.9c0,0.7,0.2,1.2,0.5,1.5c0.3,0.3,0.7,0.5,1.3,0.5c0.8,0,1.5-0.3,2.1-0.9
		l1,1.5c-0.3,0.4-0.7,0.8-1.3,1C50,67,49.3,67.2,48.6,67.2z M47.1,61.3h2.5v-0.2c0-0.6-0.1-1-0.3-1.3c-0.2-0.3-0.5-0.4-0.9-0.4
		c-0.4,0-0.8,0.2-0.9,0.5C47.2,60.2,47.1,60.7,47.1,61.3z M61.6,60l1.9-5.7h2.8l-3.4,8.2V67h-2.6v-4.6l-3.4-8.2h2.8L61.6,60z
		 M66.5,61.9c0-1.4,0.3-2.6,1-3.4c0.7-0.8,1.6-1.2,2.8-1.2c1.2,0,2.2,0.4,2.8,1.2c0.7,0.8,1,2,1,3.4v0.6c0,1.4-0.3,2.6-1,3.4
		c-0.7,0.8-1.6,1.2-2.8,1.2c-1.2,0-2.2-0.4-2.8-1.2c-0.7-0.8-1-2-1-3.4V61.9z M69,62.6c0,1.7,0.5,2.5,1.4,2.5c0.8,0,1.3-0.7,1.4-2.1
		l0-1c0-0.9-0.1-1.5-0.4-1.9c-0.2-0.4-0.6-0.6-1-0.6c-0.4,0-0.8,0.2-1,0.6c-0.2,0.4-0.4,1.1-0.4,1.9V62.6z M80.4,66.1
		c-0.5,0.7-1.2,1-2.1,1c-0.9,0-1.5-0.3-2-0.9c-0.5-0.6-0.7-1.5-0.7-2.6v-6.2h2.5v6.2c0,0.9,0.3,1.4,0.9,1.4c0.6,0,1-0.2,1.2-0.7
		v-6.9h2.5V67h-2.3L80.4,66.1z"/>
	<g id="Frame">
		<path id="Vector_3" class="st0" d="M76.5,82.5c-6.1-6.1-14.3-9.5-23-9.5s-16.8,3.4-23,9.5c-6.1,6.1-9.5,14.3-9.5,23
			s3.4,16.8,9.5,23c6.1,6.1,14.3,9.5,23,9.5s16.8-3.4,23-9.5c6.1-6.1,9.5-14.3,9.5-23S82.6,88.7,76.5,82.5z M73,125
			c-5.2,5.2-12.1,8.1-19.5,8.1S39.2,130.2,34,125c-5.2-5.2-8.1-12.1-8.1-19.5c0-0.9,0-1.9,0.1-2.8c1.3,0.2,2.6,1.1,3.3,2.3
			c0.2,0.4,0.5,0.8,0.9,1.1l2.1,2c0.4,0.4,0.8,0.6,1.3,0.8l0.2,0.1c1.5,0.4,2.6,1.5,3,3l1.1,4.1c0.1,0.5,0.4,1,0.7,1.4l3.5,4.6
			c0.4,0.6,0.7,1.2,0.8,1.9l0.9,5.7c0,0.2,0.1,0.4,0.3,0.5c0.2,0.2,0.5,0.2,0.8,0.1c0.5-0.2,0.9-0.7,1-1.3c0.1-1.2,0.6-2.3,1.3-3.1
			l1-1.2c0.2-0.2,0.3-0.5,0.4-0.7l1-3.3c0.3-1,0.9-1.9,1.7-2.5l3.1-2.4c0.2-0.2,0.4-0.4,0.4-0.7c0-0.3,0-0.6-0.2-0.8l-2-2.4
			c-0.1-0.1-0.2-0.3-0.3-0.4l-1.6-2.2c-0.9-1.2-2.2-2-3.7-2c-0.1,0-0.3,0-0.4-0.1l-3.2-1.9c-0.9-0.6-2.1-0.6-3.1-0.1l-1.7,0.9
			c-1.5,0.8-3.4,0.3-4.4-1.1l-1.6-2.6c-0.8-1.2-0.7-2.7,0.1-3.9c0.8-1.3,2.3-1.9,3.8-1.7l2.5,0.3c0.9,0.1,1.7-0.3,2.2-1.1
			c0.8-1.3,2.3-2.1,3.8-1.9l1.1,0.1c0.8,0.1,1.5-0.2,2-0.8l0.9-1.2c0.9-1.1,0.9-2.6,0.1-3.8l-2-2.9c-0.8-1.1-1.8-2.1-3-2.8
			c-0.3-0.2-0.6-0.4-0.9-0.6l-1.7-1.3l0,0c3.7-1.8,7.7-2.7,11.8-2.7c6.5,0,12.7,2.2,17.6,6.4c-1.7,1.9-3.3,4-4.6,6.3l-1.1,1.9
			c-0.3,0.6-0.2,1.2,0.2,1.7c0.4,0.5,1,0.8,1.6,0.9l0.5,0.1c2.1,0.3,3.8,1.7,4.4,3.7c0.6,2,0,4.1-1.5,5.4l-5.3,4.7
			c-0.5,0.5-0.8,1.1-0.8,1.8v1.2c0,0.6,0.3,1.2,0.8,1.5c1.3,0.8,2.1,2.2,2.3,3.7l0.1,1.2c0.1,0.7,0.7,1.3,1.4,1.3h3.1
			c1.6,0,3-0.9,3.6-2.4l0.2-0.4c0.7-1.5,2-2.6,3.6-2.9C78.4,118.1,76.2,121.9,73,125z"/>
	</g>
</g>
</svg>
