<svg width="23" height="23" viewBox="0 0 23 23" fill="none" xmlns="http://www.w3.org/2000/svg">
<path d="M20.715 22.0636L0.943045 2.29167C0.468981 1.81761 0.380177 1.12016 0.747155 0.75318C1.11413 0.386202 1.81158 0.475005 2.28565 0.94907L22.0576 20.721C22.5317 21.1951 22.6205 21.8925 22.2535 22.2595C21.8865 22.6265 21.1891 22.5377 20.715 22.0636Z" fill="white"/>
<path d="M0.943047 20.7211L20.715 0.949088C21.1891 0.475023 21.8865 0.38622 22.2535 0.753198C22.6205 1.12018 22.5317 1.81763 22.0576 2.29169L2.28565 22.0637C1.81159 22.5377 1.11414 22.6265 0.747158 22.2595C0.380179 21.8926 0.468983 21.1951 0.943047 20.7211Z" fill="white"/>
</svg>
