<svg width="83" height="83" viewBox="0 0 83 83" fill="none" xmlns="http://www.w3.org/2000/svg">
<path d="M51.3023 63.6934L24.3226 65.8468C17.2511 66.4164 11.3606 60.5259 11.9302 53.4544L14.0836 26.4886C14.5976 20.0841 20.252 15.3327 26.6565 15.944L49.3156 18.0974C54.8032 18.6253 59.1656 22.9738 59.6796 28.4614L61.833 51.1205C62.4443 57.525 57.7068 63.1794 51.3023 63.6934Z" fill="#70E3DE"/>
<path d="M27.8698 79.0495L27.8691 79.0496C18.3559 81.0518 9.32686 74.0683 8.8732 64.3572L8.87317 64.3565L7.00652 24.9814C7.00652 24.9813 7.00651 24.9812 7.0065 24.981C6.5933 16.1856 13.4545 8.74573 22.266 8.46454L22.2664 8.46452L55.4155 7.39316C55.4158 7.39315 55.4161 7.39314 55.4164 7.39313C62.9691 7.15824 69.6522 12.3134 71.3029 19.6793L71.3032 19.6806L78.5998 52.0357L78.5999 52.036C80.5433 60.6371 75.085 69.1445 66.4696 70.9552L27.8698 79.0495Z" stroke="white" stroke-width="2"/>
<path d="M33.8894 31.8886L42.8894 40.8886L33.8894 49.8886" stroke="#003634" stroke-width="2" stroke-linecap="round"/>
</svg>
