<svg width="264" height="55" viewBox="0 0 264 55" fill="none" xmlns="http://www.w3.org/2000/svg">
<path d="M228.401 45.7741L35.8817 47.5048C25.7742 47.5726 17.8996 38.8005 19.1268 28.8237L20.0642 21.1545C21.121 12.6029 28.5354 6.27409 37.1601 6.51163L228.742 12.4672C236.804 12.7047 243.554 18.6263 244.798 26.5501C246.367 36.6117 238.611 45.6893 228.401 45.7741Z" fill="white"/>
<path d="M244.259 44.5162L244.258 44.5163L21.2076 52.4866C21.2069 52.4866 21.2062 52.4867 21.2055 52.4867C10.0785 52.8581 1.19006 43.5458 2.24499 32.6967L2.24506 32.696L3.09549 23.8797C3.09551 23.8795 3.09553 23.8793 3.09555 23.8791C4.00609 14.5732 11.9599 7.46814 21.4597 7.47108C21.4603 7.47108 21.4609 7.47108 21.4615 7.47108L243.661 8.33764L243.663 8.33764C252.543 8.35805 260.126 14.6017 261.722 23.1585C263.734 34.021 255.496 44.1223 244.259 44.5162Z" stroke="white" stroke-width="2"/>
</svg>
