<svg width="264" height="55" viewBox="0 0 264 55" fill="none" xmlns="http://www.w3.org/2000/svg">
<path d="M228.393 44.7741L228.392 44.7741L35.8745 46.5048C26.363 46.5687 18.9662 38.3163 20.1188 28.9458L20.1189 28.945L21.0562 21.2771C21.0562 21.2769 21.0562 21.2767 21.0563 21.2765C22.0495 13.2416 29.0175 7.28863 37.1303 7.5112C37.1309 7.51122 37.1315 7.51123 37.132 7.51125L228.711 13.4667L228.712 13.4667C236.297 13.6902 242.641 19.2606 243.81 26.7052C245.283 36.1583 237.997 44.6943 228.393 44.7741Z" stroke="white" stroke-width="2"/>
<path d="M244.259 44.5162L244.258 44.5163L21.2073 52.4866C21.2066 52.4866 21.2059 52.4867 21.2053 52.4867C10.0783 52.8581 1.18982 43.5458 2.24474 32.6967L2.24482 32.696L3.09524 23.8797C3.09526 23.8795 3.09528 23.8793 3.0953 23.8791C4.00584 14.5732 11.9597 7.46814 21.4595 7.47108C21.4601 7.47108 21.4606 7.47108 21.4612 7.47108L243.661 8.33764L243.662 8.33764C252.543 8.35805 260.126 14.6017 261.721 23.1585C263.733 34.021 255.496 44.1223 244.259 44.5162Z" stroke="white" stroke-width="2"/>
</svg>
