<svg width="264" height="55" viewBox="0 0 264 55" fill="none" xmlns="http://www.w3.org/2000/svg">
<path d="M228.401 45.7741L35.8813 47.5047C25.7738 47.5726 17.8991 38.8005 19.1263 28.8237L20.0638 21.1544C21.1206 12.6029 28.535 6.27405 37.1596 6.5116L228.742 12.4671C236.804 12.7047 243.554 18.6263 244.798 26.55C246.366 36.6117 238.611 45.6892 228.401 45.7741Z" fill="#70E3DE"/>
<path d="M244.259 44.5162L244.258 44.5162L21.2073 52.4866C21.2066 52.4866 21.2059 52.4866 21.2053 52.4867C10.0783 52.858 1.18982 43.5458 2.24474 32.6967L2.24482 32.6959L3.09524 23.8797C3.09526 23.8795 3.09528 23.8793 3.0953 23.8791C4.00584 14.5731 11.9597 7.46811 21.4595 7.47105C21.4601 7.47105 21.4606 7.47105 21.4612 7.47105L243.661 8.33761L243.662 8.33761C252.543 8.35802 260.126 14.6016 261.721 23.1584C263.733 34.021 255.496 44.1222 244.259 44.5162Z" stroke="white" stroke-width="2"/>
</svg>
