<?xml version="1.0" encoding="utf-8"?>
<!-- Generator: Adobe Illustrator 22.1.0, SVG Export Plug-In . SVG Version: 6.00 Build 0)  -->
<svg version="1.1" id="Layer_1" xmlns="http://www.w3.org/2000/svg" xmlns:xlink="http://www.w3.org/1999/xlink" x="0px" y="0px"
	 viewBox="0 0 400 900" style="enable-background:new 0 0 400 900;" xml:space="preserve">
<style type="text/css">
	.st0{opacity:0.5;fill:#CDCCCC;}
	.st1{fill:#FEDCB2;}
	.st2{fill:#EFC2B3;}
	.st3{fill:#F26178;}
	.st4{fill:#F5F7F9;}
	.st5{fill:#F5EA61;}
	.st6{fill:#FFFFFF;}
	.st7{opacity:0.5;fill:#FEDCB2;}
	.st8{opacity:0.5;fill:#F5EA61;}
	.st9{opacity:0.5;fill:#EFC2B3;}
	.st10{opacity:0.12;fill:#474249;}
	.st11{opacity:0.5;fill:#F26178;}
	.st12{fill:#020203;}
</style>
<g>
	<ellipse class="st0" cx="269.8" cy="834.5" rx="96.4" ry="20.8"/>
	<g>
		<path class="st1" d="M251.6,226c-2.8,0-5.1-2.3-5.1-5.1s2.3-5.1,5.1-5.1s5.1,2.3,5.1,5.1S254.5,226,251.6,226z M248.5,220.9
			c0,1.7,1.4,3.1,3.1,3.1c1.7,0,3.1-1.4,3.1-3.1c0,1.7-1.4,3.1-3.1,3.1C249.9,224,248.5,222.6,248.5,220.9z M251.6,219.8
			c-0.6,0-1.1,0.5-1.1,1.1s0.5,1.1,1.1,1.1s1.1-0.5,1.1-1.1S252.2,219.8,251.6,219.8z"/>
	</g>
	<g>
		<path class="st1" d="M252.8,129.9c-0.1,0-0.2,0-0.3,0c-0.8-0.1-1.5-0.5-1.9-1.1c-0.5-0.6-0.7-1.4-0.5-2.1c0.2-1.5,1.7-2.7,3.3-2.5
			h0c0.8,0.1,1.5,0.5,1.9,1.1c0.5,0.6,0.7,1.4,0.5,2.1C255.5,128.8,254.2,129.9,252.8,129.9z M253,126.1c-0.5,0-0.9,0.4-1,0.8
			c0,0.2,0,0.4,0.1,0.6c0.1,0.2,0.3,0.3,0.5,0.3c0.5,0.1,1-0.3,1.1-0.8c0-0.2,0-0.4-0.1-0.6C253.5,126.3,253.3,126.2,253,126.1
			L253,126.1C253.1,126.1,253,126.1,253,126.1z"/>
	</g>
	<g>
		<path class="st1" d="M231.6,130.5c-0.1,0-0.2,0-0.3,0l0,0c-0.8-0.1-1.5-0.5-1.9-1.1c-0.5-0.6-0.7-1.4-0.5-2.1
			c0.2-1.5,1.7-2.7,3.3-2.5c0.8,0.1,1.5,0.5,1.9,1.1c0.5,0.6,0.7,1.4,0.5,2.1C234.4,129.4,233.1,130.5,231.6,130.5z M231.9,126.8
			c-0.5,0-0.9,0.4-1,0.8c0,0.2,0,0.4,0.1,0.6c0.1,0.2,0.3,0.3,0.5,0.3l0,0c0.5,0.1,1-0.3,1.1-0.8c0-0.2,0-0.4-0.1-0.6
			C232.4,126.9,232.2,126.8,231.9,126.8C231.9,126.8,231.9,126.8,231.9,126.8z"/>
	</g>
	<g>
		<path class="st1" d="M287.9,91.3c-1.1,0-2-0.9-2.1-1.9c0-0.1-0.4-11.2-6.1-15.6c0.6,1,1.2,2.2,1.7,3.4c0.2,0.5,0.2,1,0,1.5
			c-0.2,0.5-0.6,0.9-1.1,1.1c-1,0.4-2.2,0-2.6-1c-3.2-7.3-8.4-10.6-14.1-8.8c-4.6,1.5-7.7,5.7-6.9,9.5c1,4.6,4.7,6.5,7.9,6.4
			c1.9-0.1,4.3-0.9,4.6-3.1c0.2-1.1,0.2-2.5-0.5-3.2c-0.7-0.7-1.9-0.7-2.3-0.7c-1.1,0.1-2.1-0.7-2.2-1.7c-0.1-1.1,0.6-2.1,1.7-2.2
			c0.4,0,3.5-0.4,5.7,1.8c1.5,1.5,2,3.7,1.6,6.6c-0.6,3.8-4,6.4-8.5,6.5l-0.3,0c-4.6,0-10.3-3-11.7-9.6c-1.2-5.7,3.1-12.1,9.6-14.1
			c4.1-1.3,8.4-0.6,12,1.9c0,0,0.1,0,0.1,0c6.1,0.1,10.7,4,13.3,11.1c1.8,5.1,2,10,2,10.2c0,0.5-0.2,1-0.5,1.4
			C288.9,91.1,288.4,91.3,287.9,91.3C287.9,91.3,287.9,91.3,287.9,91.3z M276.6,70.1l0.3,0.1c10.4,2.4,11,19,11,19.1
			c0-0.2-0.1-4.8-1.9-9.6C284,74.3,280.8,71,276.6,70.1z M263.4,87.7c0.4,0,0.8,0.1,1.2,0.1l0,0C264.2,87.8,263.8,87.8,263.4,87.7z
			 M267.4,87.3c-0.8,0.3-1.6,0.4-2.3,0.4C265.9,87.7,266.7,87.6,267.4,87.3z M271.5,81.5C271.5,81.5,271.5,81.5,271.5,81.5
			C271.5,81.5,271.5,81.5,271.5,81.5z M270,77.8c0.1,0.1,0.2,0.2,0.3,0.3c0.8,0.8,1.2,2,1.1,3.5c0-1.5-0.4-2.7-1.2-3.5
			C270.2,78,270.1,77.9,270,77.8z M279.6,77.9C279.6,77.9,279.6,77.9,279.6,77.9C279.6,77.9,279.6,77.9,279.6,77.9z M278.9,76.5
			c0.2,0.5,0.4,0.9,0.7,1.4C279.4,77.4,279.1,76.9,278.9,76.5z M278.9,76.4C278.9,76.5,278.9,76.5,278.9,76.4
			C278.9,76.5,278.9,76.5,278.9,76.4z M274.1,70.1c0.5,0.4,0.9,0.8,1.3,1.2l-1.2-1.3L274.1,70.1z"/>
	</g>
	<g>
		<path class="st1" d="M303.8,241.3c-0.2,0-0.4,0-0.6-0.1c-0.5-0.2-0.9-0.5-1.2-1c-0.2-0.5-0.3-1-0.1-1.5
			c4.1-12.5,10.8-18,15.8-20.4c5.5-2.7,10.1-2.3,10.2-2.3c0.5,0.1,1,0.3,1.3,0.7c0.3,0.4,0.5,0.9,0.4,1.5c-0.1,1.1-1.1,1.9-2.2,1.8
			c-0.6-0.1-15-1.1-21.8,19.9C305.4,240.7,304.6,241.3,303.8,241.3z M304.8,236.5c-0.3,0.9-0.7,1.8-1,2.8l0,0
			C304.1,238.3,304.4,237.3,304.8,236.5z M327.7,218C327.7,218,327.7,218,327.7,218C327.7,218,327.7,218,327.7,218z"/>
	</g>
	<g>
		<path class="st1" d="M117.4,215c-34.4,0-66.5-4.2-68.8-8.9c-0.5-1.1-0.5-2.2,0-3.2c1.3-2.6,5.6-3.7,6.9-4c1.1-0.2,2.1,0.5,2.4,1.5
			c0.2,1.1-0.5,2.1-1.5,2.4c-1.7,0.4-3.4,1.1-4,1.6c4.8,3,55.9,10.9,114,3.7c1.1-0.1,2.1,0.7,2.2,1.7l0,0c0.1,1.1-0.6,2.1-1.7,2.2
			C151.2,214.1,134.6,215,117.4,215z M167.6,210l-1,0.1c0,0,0,0,0,0L167.6,210z M50.4,203.7C50.4,203.7,50.4,203.7,50.4,203.7
			c-0.2,0.4-0.3,0.8-0.2,1.1C50.2,204.4,50.2,204.1,50.4,203.7C50.4,203.7,50.4,203.7,50.4,203.7z M55.9,200.8
			c-1.1,0.2-2.9,0.8-4.2,1.6C53.4,201.4,55.8,200.8,55.9,200.8z"/>
	</g>
	<g>
		<path class="st1" d="M283,272.9c-0.2,0-0.3,0-0.5-0.1l-22.3-5.7c-1.1-0.3-1.7-1.4-1.4-2.4c0.3-1.1,1.4-1.7,2.4-1.4l22.3,5.7
			c1.1,0.3,1.7,1.4,1.4,2.4C284.7,272.3,283.9,272.9,283,272.9z M283,270.9L283,270.9L283,270.9z"/>
	</g>
	<g>
		<path class="st2" d="M293.1,389.6c-8.2,0-15.5-4.6-19-12.1l-23.3-49.1l0.7-0.5c0,0,0,0,0,0l24.6-30.7l-36.7-55.1l6.4-25.7
			l-6.4,25.7l-1.1-3c-1.4-3.6-4.1-10.7-7.5-17.9l-0.6-1.2l1.3-0.2c3.5-3.5,12.8-13,14.5-14.3l0.5-0.4l0.6,0.3
			c1.2,0.6,2.1,0.8,2.8,0.9c0.2,0,0.5,0,0.7,0.1l0.8,0.1l12.2,22.9c0.2-0.1,22.4-12.3,38.3-40.7l-2.1-5.6l2.9,2.3
			c6.3,5,27.5,22.5,37.6,39l0,0c11.7,19.3,9.7,39.1,2.1,66.7c-4,14.7-18.2,54.2-29.3,84.7c-3,8.1-10.2,13.4-18.9,13.8
			C293.8,389.6,293.5,389.6,293.1,389.6z M253.3,329l22.6,47.7c3.3,7.1,10.3,11.3,18.1,10.9c7.8-0.4,14.4-5.1,17.1-12.5
			c11.2-30.5,25.3-69.9,29.3-84.5c7.4-27.1,9.5-46.5-1.9-65.2l0,0c-8.8-14.4-26.3-29.7-34.5-36.4l-0.4,0.6
			c-16.3,29-38.9,41.3-39.1,41.4l-1.8,0.9l-12.6-23.7c-0.2,0-0.3,0-0.5,0c-0.7-0.1-1.7-0.3-2.9-0.8c-2.1,1.9-9.1,8.9-13.8,13.7
			c2.5,5.3,4.6,10.5,6,14.3l4.8-19.5c0.3-1.1,1.3-1.7,2.4-1.5c0.5,0.1,1,0.5,1.2,0.9c0.3,0.5,0.4,1,0.2,1.5l-6.2,24.9l45.7,68.5
			l9.2-43.9c0.1-0.5,0.4-1,0.9-1.3c0.4-0.3,1-0.4,1.5-0.3c0.5,0.1,1,0.4,1.3,0.9c0.3,0.4,0.4,1,0.3,1.5l-10,47.7l3.3,5
			c0.3,0.4,0.4,1,0.3,1.5c-0.1,0.5-0.4,1-0.9,1.3c-0.9,0.6-2.2,0.3-2.8-0.6L276,300.6L253.3,329z M251.6,328
			C251.6,328,251.6,328,251.6,328L251.6,328z"/>
	</g>
	<g>
		<path class="st3" d="M304.3,178.4c-3.3,0-5.6-0.7-5.8-0.8l-0.8,0.1l-1.1-3l-0.3-0.1l-0.2-0.2l-0.4-0.3l0-0.5
			c-2.9-11.6-1.8-24.6-1.7-26l0.1-0.6l0.6-0.2c1.7-0.7,3.1-1.8,4.2-3.1c2-2.7,2.3-6.1,0.7-8.6c-0.8-1.2-1.8-1.9-3.2-2.1
			c-1.3-0.2-2.9,0.1-4.7,0.8l-0.5,0.2l-0.4-0.3c-0.1,0-8.2-1-10.5-11.7c-0.1-0.3-0.1-0.6-0.1-0.9l-0.1-0.6l0.1-0.2l-0.2,0.1
			l-0.1-1.5c-0.5-9.5,5.5-17.2,5.6-17.3c0,0-0.7,0.9-1.6,2.4l-0.9,1.5l-0.8-1.6c-2.2-4.2-7.6-9.6-7.8-9.9c-0.1,0.1-8.1,10.1-24.2,6
			c-3.5-0.9-6.4-2.5-8.8-4.7l0,0l-1.2,0.6c-6.1,3.1-12.3,3.3-16.6,0.4c-4.5-3-6.4-8.9-5.6-16.5c1.8-16.5,22.9-23.3,23.1-23.4l0,0
			c-0.1,0-3.5,1.1-7.8,3.5l-1.6,0.9l0.1-1.9c0.7-8.7,8.5-18.3,19.4-23.8c6.6-3.3,24-9.7,41.4,3.7c18.9,14.5,22.4,34,22.5,46.2l0-1.7
			l1.7,1.7c2.7,2.6,11.5,12.5,11.5,28.8c0,9.8-4.1,17.4-8.1,22.5l0.3-0.3l0.8,0.9c2,2.2,11.4,14.2,2.5,29.3
			C317.7,176.4,309.6,178.4,304.3,178.4z M299.1,175.7C299.1,175.7,299.1,175.7,299.1,175.7c0.6,0.2,14,4.5,22.9-10.5
			c7.3-12.5,1.1-22.7-1.6-26.1c-3.7,4.3-7,6.4-7.1,6.5c-0.9,0.6-2.2,0.3-2.8-0.6c-0.6-0.9-0.3-2.2,0.6-2.8c0.1-0.1,15-10.1,15-28.4
			c0-13-5.8-21.7-9.2-25.6c-0.1,1.4-0.2,2.7-0.3,4l0,0.1c0,0.2,0,0.3,0,0.3c0,1.1-0.9,1.9-2,1.9c-1.1,0-2-0.9-2-2
			c0-0.1,0-0.4,0.1-0.8c1-9.7,1-34.2-21.3-51.3c-16.5-12.7-33-6.7-39.3-3.5c-9.5,4.8-16.5,12.7-18,20.3c3.6-1.8,6.3-2.7,6.4-2.7
			c0.5-0.2,1-0.1,1.5,0.1c0.5,0.2,0.8,0.7,1,1.2c0.3,1.1-0.3,2.2-1.3,2.5l0,0c-0.2,0.1-20.1,6.5-21.7,21.7
			c-0.8,6.9,0.9,12.1,4.7,14.7c3.4,2.3,8.3,2.3,13.4,0c-5.9-7.3-5.6-17-5.6-17.1c0-1.1,0.9-2,2.1-1.9c1.1,0,2,1,1.9,2.1
			c0,0-0.1,4.3,1.6,8.9c2.3,6,6.5,9.9,12.6,11.4c14.7,3.8,22-5.2,22.1-5.3L274,91l1.6,1.6c0.2,0.2,4.7,4.7,7.3,8.9
			c0.5-0.7,0.8-1.1,0.9-1.2c0.7-0.9,1.9-1,2.8-0.3c0.9,0.7,1,1.9,0.3,2.8c-0.1,0.1-5,6.5-5.2,14.4l2.3-1.1l-2.1,4.6l0,0
			c0,0.2,0.1,0.5,0.1,0.7c2,9.2,8.5,10.1,8.8,10.1c0.1,0,0.3,0,0.4,0.1c2-0.8,3.8-1,5.3-0.8c1.9,0.3,3.5,1.3,4.5,3
			c2.1,3.3,1.8,7.5-0.8,10.9c-1.1,1.5-2.7,2.7-4.4,3.5c-0.2,2.9-0.9,14.4,1.7,24.7c0,0,0,0,0,0c0.3,0.2,0.6,0.6,0.8,0.9L299.1,175.7
			z M314.7,92.4c0,0,0,0.1,0,0.1C314.7,92.5,314.7,92.5,314.7,92.4z M314.8,91.2c0,0.2,0,0.5-0.1,0.7c0,0,0,0.1,0,0.1l0-0.1
			C314.8,91.7,314.8,91.5,314.8,91.2z M234.4,77.7L234.4,77.7L234.4,77.7z"/>
	</g>
	<g>
		<path class="st1" d="M256.5,137c-3.7,0-6.1-1.2-7.6-2.4c-2.3-1.9-3.3-4.6-3.3-6.4c0-1.8,0.7-3.3,1.9-4.4c2.1-1.9,5.9-2.7,11.2-2.3
			c10.1,0.8,16,0.1,19.1-0.6l2.2-0.5l-1.1,2c-2.5,4.3-8.1,11.9-18,14.1C259.3,136.8,257.9,137,256.5,137z M256.1,123.4
			c-3.4,0-5.9,0.6-7.2,1.9c-0.8,0.7-1.2,1.7-1.3,2.9c0,1.1,0.6,3.2,2.6,4.8c1.7,1.4,4.8,2.7,10.3,1.5c7.8-1.7,12.7-7.2,15.5-11.2
			c-3.6,0.6-9.1,0.9-17.4,0.3C257.7,123.4,256.9,123.4,256.1,123.4z"/>
	</g>
	<g>
		<path class="st1" d="M245.6,128.3l-1.1-0.3c-2.2-0.7-4.6-0.3-5.5-0.1l-1,0.2l-0.2-1c-0.2-1.5-0.9-2.6-1.9-3.5
			c-1.9-1.7-5-2.3-9.3-2c-2.3,0.2-4.5,0.3-6.6,0.3l-1.1,0l0.1-1.1c0.6-12.6,2.6-21.4,3.2-23.8l0.3-1.4l1.2,0.8c2,1.3,4.3,1.9,7,1.9
			c3.1,0,6.4-0.9,9.7-2.6l0.7-0.6l0.6,0.5c2.3,2,5.1,3.4,8.3,4.3c13.7,3.5,21.4-3.1,23.5-5.2l0.7-0.8l0.7,0.8
			c1.8,1.9,6.3,6.8,7.6,10.2l0.3,0.5l-0.3,0.5c-1.5,3.1-3.3,8-2.8,13.5l0.1,0.8l-0.8,0.2c-1.6,0.5-5.4,1.3-12.2,1.3l0,0l-3.6-0.1
			l0,0c-1.5-0.1-3.1-0.1-4.7-0.3c-5.3-0.4-9.1,0.3-11.2,2.3c-1,0.9-1.6,2-1.8,3.4L245.6,128.3z M241.6,125.6c0.8,0,1.6,0.1,2.4,0.2
			c0.4-1.4,1.2-2.6,2.2-3.5c0.5-0.4,1-0.8,1.6-1.1c-0.3-0.4-0.5-0.8-0.5-1.3c0-0.5,0.2-1,0.6-1.4c0.1-0.1,9-8.5,18.5,0.2
			c0.3,0.3,0.6,0.7,0.6,1.2c5.7,0,9-0.6,10.7-1c-0.3-5.3,1.3-10,2.8-13.2c-1.1-2.7-4.6-6.7-6.4-8.7c-8.8,8.3-21,6-24.7,5
			c-3.3-0.8-6.1-2.3-8.6-4.2c-6,3.1-12.4,3.5-17.1,1.1c-0.8,3.3-2.2,10.8-2.8,21c1.7,0,3.5-0.1,5.3-0.3c4.9-0.4,8.5,0.4,10.9,2.5
			c1.1,1,1.9,2.3,2.3,3.7C240.2,125.6,240.9,125.6,241.6,125.6z M256.1,119.4c0.9,0,1.8,0,2.8,0.1c0.7,0.1,1.4,0.1,2.1,0.1
			c-3-1.5-5.7-1-7.5-0.1C254.3,119.5,255.2,119.4,256.1,119.4z"/>
	</g>
	<g>
		<path class="st3" d="M219,134l-1.7-1.3c-4.3-3.4-6.9-7.9-8.1-10.4l-1-2l2.1,0.5c1.4,0.4,3.9,0.8,7.7,0.9l1,0l0,1c0,1-0.1,2-0.1,3
			c0,1.9,0,3.9,0,6L219,134z M211.9,123.3c1.1,1.9,2.7,4.3,4.9,6.4c0-1.3,0-2.6,0-3.9c0-0.7,0-1.4,0-2
			C214.9,123.7,213.2,123.5,211.9,123.3z"/>
	</g>
	<g>
		<path class="st1" d="M228.6,137c-1.2,0-2.5-0.2-3.9-0.5c-1.8-0.5-3.6-1.2-5.3-2.3l-0.5-0.3l0-0.5c-0.1-2.5-0.1-5-0.1-7.5l0,0
			c0-1,0-2,0.1-3l0-1l1,0c2.1,0,4.3-0.1,6.7-0.3c4.3-0.4,7.5,0.3,9.3,2c1.3,1.1,1.9,2.7,2,4.7c0,1.4-0.7,4.7-3.4,6.9
			C232.9,136.3,230.9,137,228.6,137z M220.9,132.7c1.4,0.8,2.8,1.4,4.3,1.8c3.4,0.9,6.1,0.5,8.1-1c2-1.6,2.7-4.1,2.7-5.3
			c0-1.4-0.5-2.5-1.3-3.2c-1.5-1.3-4.1-1.8-7.8-1.4c-2,0.2-4,0.3-5.9,0.3c0,0.7,0,1.4-0.1,2l0,0
			C220.8,128.2,220.8,130.5,220.9,132.7z"/>
	</g>
	<g>
		<path class="st3" d="M220,109.7l-1.3-0.8c-1.9-1.2-8.2-5.7-9.8-15.1c-1.4-8.7,4.8-13.2,7.5-14.7l1.7-0.9l-0.2,1.9
			c-0.7,6.7,0.8,11.9,4.3,15.1l0.6,0.5l-0.4,0.7c0,0,0,0,0,0c-0.1,0.5-1.2,4.8-2.2,11.7L220,109.7z M215.8,81.9
			c-2.8,2-5.9,5.6-4.9,11.6c1.2,7,5.2,11,7.6,12.8c0.8-5.5,1.7-9.1,1.9-10.1C217.1,93,215.5,88.1,215.8,81.9z M222.4,96.5
			L222.4,96.5L222.4,96.5z"/>
	</g>
	<g>
		<path class="st3" d="M221.9,154.3l-1.9-0.9c-3.8-1.9-16.4-8.9-22-22.1c-2.7-6.4-2.9-11.3-0.6-14.3c2.2-2.9,6.3-3.4,9.4-3l0,0
			c-0.2-0.3-3.9-8,3.3-13.1l0.9-0.6l0.5,1c3.1,5.6,7.6,7.9,7.8,8l0.8,0.3l-0.1,0.8c-0.4,3.5-0.7,7-0.9,10.6l0,1l-1,0
			c-7-0.2-9.7-1.6-9.8-1.6l0,0l0,0c0.3,0.9,3.6,8.8,10.4,13.4l0.4,0.3l0,0.5c0.3,6.5,1.1,12.5,2.4,17.9L221.9,154.3z M204.4,115.9
			c-2.1,0.1-4.2,0.7-5.4,2.3c-1.8,2.3-1.5,6.7,0.9,12.3l0,0c4.6,10.8,14.3,17.3,19.1,20.1c-1-4.8-1.7-10-2-15.6
			c-7-5-10.3-13.2-10.7-14.1L204.4,115.9z M209.2,118.4c0,0,2.2,1.1,7.9,1.4c0.2-3,0.4-6.1,0.8-9c-1.3-0.8-4.8-3.1-7.5-7.5
			c-4.6,4-1.9,9.6-1.8,9.9l1.7,3.4l-3.8-0.5c-0.6-0.1-1.2-0.1-1.8-0.1L209.2,118.4L209.2,118.4z"/>
	</g>
	<g>
		<path class="st1" d="M252.3,206.5c-0.8,0-1.6,0-2.4-0.1c-8.4-1-10.1-12.9-10.4-18l0-0.6l0.5-0.4c1.1-1.3,2.5-3.5,3-4.4l0.4-0.6
			l0.7,0.2c0.3,0.1,0.5,0.1,0.8,0.2c-0.4-0.1-0.8-0.2-1.2-0.3l-0.2,0l-0.2-0.1l-0.2,0l-0.2,0c-10.5-3.5-22.3-17.6-24-46.5L219,134
			l1.6,0.8c1.3,0.7,2.7,1.3,4.2,1.6c4,1,7.4,0.5,9.8-1.4c2.3-1.8,3.3-4.5,3.4-6.2l0.1-0.7l0.7-0.2c0.8-0.2,3.8-0.8,6.4,0.3l0.5,0.2
			l0.1,0.6c0.3,2,1.5,4.1,3.2,5.6c1.4,1.1,3.8,2.4,7.6,2.4c1.4,0,2.9-0.2,4.5-0.5c9.6-2.1,15.2-9.5,17.7-13.7l1.2-2l0.6,2.3
			c1.9,6.8,6.1,9.2,8.5,10l2,0.7l-1.2,0.7c1.9-1.1,4.4-2.1,6.5-1.7c1.3,0.2,2.4,0.9,3.2,2.1c1.6,2.5,1.4,5.9-0.7,8.6
			c-1.2,1.5-3,3-5.5,3.5l0.7-0.1l-0.1,1.3c-0.3,3.2-0.9,14.6,1.8,25.2l0.5,0.5l-0.3,0.6C289.4,188.1,268.8,206.5,252.3,206.5z
			 M241.5,188.7c0.3,4,1.8,14.8,8.6,15.6c15.6,1.8,37-16.8,43.7-30.1c0-0.1-0.1-0.2-0.1-0.3c-2.5-9.8-2.2-20.2-1.9-24.6
			c-0.3,0-0.7,0-1,0c-1.4,0-2.8-0.2-4.2-0.6c-1.1-0.3-1.7-1.4-1.3-2.5c0.3-1.1,1.4-1.7,2.5-1.3c4.5,1.3,7.8-0.5,9.4-2.6
			c1.5-2,1.7-4.5,0.6-6.3c-0.5-0.7-1-1.1-1.8-1.2c-2.7-0.4-6.7,2.3-8,3.3c-0.9,0.7-2.1,0.6-2.8-0.3c-0.7-0.9-0.6-2.1,0.3-2.8
			c0,0,0.4-0.4,1.1-0.8c-2.4-1.3-5.5-3.7-7.3-8.6c-3.1,4.5-8.8,10.8-17.8,12.8c-1.7,0.4-3.4,0.6-4.9,0.6c-4.4,0-7.2-1.6-8.8-2.9
			c-2-1.6-3.4-3.9-3.9-6.2c-1.5-0.4-3.1-0.3-4-0.1c-0.4,2.2-1.6,4.9-4.1,6.9c-1.4,1.1-3.7,2.4-7.2,2.4c-1.4,0-2.8-0.2-4.4-0.6
			c-1-0.3-2-0.6-3-1c2,26.7,12.7,39.7,22.4,43c0.3,0,0.6,0.1,0.8,0.2l0,0c0.3,0.1,0.7,0.2,1,0.3c22.5,4.5,33.4-16.2,33.5-16.4
			c0.2-0.5,0.7-0.8,1.2-1s1.1-0.1,1.5,0.1c0.5,0.2,0.8,0.7,1,1.2c0.2,0.5,0.1,1-0.1,1.5c-0.1,0.2-10,19.2-30.7,19.2
			c-2.3,0-4.7-0.2-7.1-0.7c-0.1,0-0.2-0.1-0.4-0.1C243.6,185.9,242.5,187.6,241.5,188.7z M287.2,146.8c1.5,0.4,2.8,0.6,4.3,0.5
			C290.2,147.4,288.8,147.3,287.2,146.8z M286.7,136.6C286.7,136.6,286.7,136.6,286.7,136.6C286.7,136.6,286.7,136.6,286.7,136.6z"
			/>
	</g>
	<g>
		<path class="st2" d="M228,215.4l-1.3-2.4c-0.4-0.7-0.8-1.4-1.2-2.1c-0.5-0.9-1.2-1.8-2.1-2.4c-1.8-1.5-5.2-4.2-10.8-4.7l-3.6-0.3
			l3.2-1.6c8.9-4.3,17.5-6.7,20.7-7.6l2.1-0.5l-0.9,1.9c-2.5,5.3-4.4,11.1-5.7,17.1L228,215.4z M216.1,202.3
			c4.3,1.1,7.1,3.4,8.6,4.6c1,0.8,1.8,1.8,2.5,2.9c1.1-4.5,2.6-8.9,4.4-13.1C228.1,197.7,222.3,199.6,216.1,202.3z"/>
	</g>
	<g>
		<path class="st1" d="M251,328.7l-32.3-68.2c-4-1.9-9.7-4.5-12.9-5.6c-4.3-1.5-5.9-4.7-4.6-9.7l0.3-1.1l0.9,0.3
			c-1.3-0.5-2.9-1.3-4-2.7c-1.4-1.7-1.8-4-1.4-6.8l0.2-1.3l0.8,0.3c-0.5-0.3-1.1-0.7-1.7-1.1c-2.5-2.1-2.1-6.5-1.8-8.3l0.1-0.9
			l13.1,0.1l-12.8-0.1l-0.2-0.1l-0.2,0.1l-0.3,0l-11.5-0.1c-2.1,0-3.8-1.7-3.9-3.8c-0.1-2,1.3-3.7,3.3-4c8-1.3,14.5-2.3,19-3.1
			c-1.5,0.3-3.2,0.6-5.2,0.9l-0.4-1.9c9.3-2.6,10.7-5.1,10.7-6.3c0-0.1,0-0.1,0-0.2l-0.1-0.9l0.9-0.2c8.1-1.5,13,1.4,16.7,4.4l0,0
			c0.8,0.7,1.5,1.5,2.1,2.4c7.3,12.7,13.9,31.1,13.9,31.2v0l36.7,55.1L251,328.7z M222.8,264.6l28.6,60.4l22.3-27.9l-36-54.1
			l-0.1-0.2c-0.1-0.2-6.6-18.4-13.8-30.9c-0.4-0.7-1-1.4-1.6-1.9c-2.2-1.8-4.7-3.5-8.2-4.1c0,0,0,0,0,0c0.9,0.6,1.1,1.9,0.5,2.8
			c-0.2,0.3-2.4,3.2-6.1,4.5c-2.4,0.8-15.5,2.9-26.1,4.6c-0.9,0.1-1.6,1-1.6,1.9c0,1,0.9,1.8,1.9,1.8l11.2,0.1
			c0.4-0.1,0.8-0.2,1.2-0.1c0.1,0,0.2,0.1,0.3,0.1l12.3,0.1c1.1,0,2,0.9,2,2c0,1.1-0.9,2-2,2l-11.3-0.1c-0.2,2.1,0,4.6,1.2,5.6
			c2.4,2,4.7,1.7,4.8,1.7c1.1-0.2,2.1,0.6,2.3,1.7c0.2,1.1-0.6,2.1-1.6,2.3c-0.1,0-0.4,0.1-1,0.1c-0.6,0-1.8-0.1-3.1-0.5
			c-0.1,1.6,0.3,3,1.1,4c1.8,2.3,5.4,2.6,5.4,2.6c0.5,0,1,0.3,1.4,0.7s0.5,0.9,0.5,1.4c-0.1,1.1-0.9,1.9-2,1.9l-0.1,0
			c-0.1,0-1-0.1-2.2-0.4c-0.6,3.4,0.5,5.3,3.5,6.3c5.3,1.9,17,7.6,17.5,7.8c1,0.5,1.4,1.7,0.9,2.7
			C224.4,264.3,223.6,264.7,222.8,264.6z M220.2,261.3l0.9,0.5c1,0.5,1.6,0.8,1.8,0.9C222.7,262.5,221.7,262,220.2,261.3z
			 M202.5,235C202.5,235,202.5,235,202.5,235C202.5,235,202.5,235,202.5,235z M212.9,207.6c-0.1,0.1-1.9,2.7-5.1,3.7
			c-0.1,0-0.1,0-0.2,0.1c0.1,0,0.1,0,0.2-0.1C211,210.3,212.8,207.7,212.9,207.6z M207.9,205.9c-0.2,1.5-1.2,2.8-3.2,4.1
			c1.5-0.3,2.2-0.5,2.4-0.6c2.5-0.8,4-3,4.1-3c0.3-0.4,0.6-0.6,1-0.7C210.9,205.6,209.5,205.7,207.9,205.9z"/>
	</g>
	<g>
		<path class="st1" d="M194.1,226.1l-1.4-0.5l0.1-0.2l0-0.7l-0.5-0.1l0.5,0.1l-0.5-0.1l0.5,0l0-1c0.1,0,0.2,0,0.3,0l1.4,0
			L194.1,226.1z"/>
	</g>
	<g>
		<path class="st1" d="M144.3,306.1l-4.6-66.6l0.1-0.2l-0.1-0.3l0,0.2l-1.4-0.5C131,236,107,227.2,102,225.2l0,0
			c-5.4-2.2-7.3-4-7-6.3l0.1-0.9l0.9,0c7.9,0.4,16.1,0.5,24.1,0.5c11.5,0,23.4-0.4,34.2-1.1l0.5,0l0.3,0.3
			c9.7,1.6,9.6,13.1,9.6,13.6v0l13.3,58.9L144.3,306.1z M141.7,239.7l4.4,63.3l29.7-13.9l-13-57.6l0-0.2c0-0.4,0.1-10.2-7.9-11.5
			c-0.2,0-0.5-0.1-0.7-0.3c-10.8,0.7-22.5,1.1-33.9,1.1c-7.7,0-15.4-0.2-23-0.5c0.5,0.7,1.8,1.8,5.5,3.3v0c4.7,1.9,26.2,9.9,34.7,13
			c0.1-0.9,0.9-1.6,1.8-1.7c1.1-0.1,2.1,0.8,2.1,1.9l0.1,2.1C141.8,238.9,141.8,239.3,141.7,239.7z"/>
	</g>
	<g>
		<path class="st2" d="M164.9,362.5c-2.5,0-5-0.5-7.4-1.6c-6.1-2.7-10-8.4-10.5-15l-2.8-40l0.9-0.2l32.9-15.4l5,22.1l-7.9-35
			l0.7-0.3l17.9-54l0.3,5.1c0.1,2.2,0.8,3.8,2,4.8c0.1,0.1,0.2,0.2,0.4,0.3l0.8,0.6l-0.3,0.7l0,0c-0.6,3-0.1,5.5,1.3,7.3
			c0.6,0.8,1.4,1.5,2.4,2l0.7,0.4l-0.2,0.8c-0.6,2.4-0.7,4.5,0,6.1l0.2,0.4l-0.2,0.4c-1.1,2.3-10.6,23.1-12.8,34.7
			c-2.5,13.1,4,28,15.9,49.1l0.4,0.8l-29,22.3C172.5,361.2,168.7,362.5,164.9,362.5z M146.4,307.3l2.7,38.4
			c0.4,5.9,3.9,10.9,9.3,13.3c5.4,2.4,11.4,1.7,16.1-1.9l0,0l27.7-21.3c-11.9-21.2-18.3-36.2-15.7-49.7
			c2.1-11.4,11.1-31.1,12.7-34.8c-0.6-1.8-0.6-3.8-0.1-6.2c-0.9-0.6-1.7-1.3-2.3-2.1c-1.8-2.2-2.4-5.1-1.8-8.5c0,0,0,0-0.1,0
			c-0.8-0.7-1.4-1.5-1.9-2.5l-15.2,45.7c-0.1,0.2-0.2,0.5-0.4,0.7l7.6,33.6c0.2,1.1-0.4,2.1-1.5,2.4c-1.1,0.2-2.2-0.4-2.4-1.5
			l-4.5-19.7L146.4,307.3z M145.1,305.7C145.1,305.7,145.1,305.7,145.1,305.7L145.1,305.7z M196,234.2l0.9,0.4c0,0,0,0,0-0.1
			L196,234.2z M196.9,234.5C196.9,234.5,196.9,234.5,196.9,234.5C196.9,234.5,196.9,234.5,196.9,234.5z"/>
	</g>
	<g>
		<path class="st2" d="M255.9,367.6c-17.8,0-34-5.3-36.2-6l-0.4-0.1l-0.2-0.3c-1.4-2.4-2.8-4.8-4.2-7.2
			c-17.9-30.5-29.8-50.6-26.6-67.5l0,0c1.9-10.2,9.8-28.2,12.2-33.5l0.6-1.4l1,1.1c0.8,0.9,2,1.7,3.5,2.2c3.1,1.1,8.7,3.6,12.7,5.5
			l0.5,0.3l0,0.6l49.9,105.2l-1.3,0.2C263.7,367.3,259.7,367.6,255.9,367.6z M220.7,359.8c3.8,1.2,25.1,7.8,45.2,5.1l-41.3-87
			c-1.7,4.7-4,12.9-3.2,20.5c1.3,11.5,11.6,44.9,11.7,45.3c0.2,0.5,0.1,1.1-0.1,1.5s-0.7,0.8-1.2,1c-0.2,0.1-0.4,0.1-0.6,0.1
			c-0.9,0-1.6-0.6-1.9-1.4c-0.4-1.4-10.5-34.1-11.9-46c-1.3-11.6,4-24,4.8-25.9l-5.1-10.8c0,0,0-0.1,0-0.1c-4-1.9-9.1-4.2-12.1-5.2
			c-1.3-0.4-2.3-1-3.2-1.7c-2.8,6.4-9.7,22.4-11.5,31.7c-3,16.1,8.7,36,26.4,66.1C218,355.2,219.3,357.5,220.7,359.8z M223.9,274.3
			c-1.3,3-5.6,14-4.4,24.3c1.3,11.7,11.4,44.1,11.8,45.6c-0.2-0.7-10.5-34-11.8-45.6c-1.1-9.4,2.5-19.6,4.1-23.6L223.9,274.3z"/>
	</g>
	<g>
		<path class="st1" d="M240,823.5l-0.8-0.5c-2.5,0.1-4.3-0.5-5.5-2c-2.6-3.2-1.4-8.9-1.2-9.8l0-0.3l0.2-0.4
			c6.8-10.4,11-18.2,7.6-32.4l0,0c-2-8.3-11.9-31.6-27.2-63.8c-12.7-26.9-27.1-55.6-34.1-68.1c-13.2-23.5-11-53.6-10.8-56l0,0
			l0.1-1.3l1.1,0.3c7.6,1.9,23.9,5.5,47.3,7.9c4.1,0.4,8.4,0.8,12.8,1.1l1.1,0.1l-0.2,1.1c-0.7,3.2-3.8,19.5-1.4,28.9
			c2.5,10.2,46.6,137.3,48.4,142.7l1,0.3l-0.3,1c-1,2.8-2.4,5.4-4.1,7.7c-8.2,10.8-20.1,26.2-30,38.6l-0.2,0.3l-0.4,0.1
			c-0.3,0.5-0.7,1-1,1.6l-0.1,0.1L240,823.5z M234.5,811.5c0,0.1,0,0.1,0,0.2c0,0-1.3,5.5,0.8,8.1c0.8,1,2,1.4,3.9,1.3
			c0.1,0,0.2,0,0.3,0l1.2-1.5c0.4-0.6,0.7-1.2,1.1-1.7c0.2-0.3,0.5-0.6,0.9-0.7c9.8-12.3,21.6-27.6,29.7-38.3
			c1.5-1.9,2.6-4.1,3.5-6.4c-0.2-0.2-0.3-0.4-0.4-0.7c-1.9-5.4-45.9-132.6-48.5-142.9c-2.2-8.9,0.2-23.7,1.2-28.6
			c-4-0.3-7.9-0.6-11.7-1c-22.4-2.3-38.3-5.6-46.4-7.6c-0.4,5.8-1.3,32.6,10.7,53.8c7.1,12.5,21.4,41.2,34.2,68.2
			c15.3,32.3,25.3,55.7,27.3,64.2l0,0C245.8,792.6,241.3,801.1,234.5,811.5z M232.5,811.3L232.5,811.3L232.5,811.3z M232.5,811.2
			C232.5,811.2,232.5,811.2,232.5,811.2C232.5,811.2,232.5,811.2,232.5,811.2z"/>
	</g>
	<g>
		<path class="st3" d="M216,859.9l-1.3-0.9c-2.6-1.7-4.1-3.6-4.6-5.9l0,0c-1.4-5.8,3.6-13.3,9.4-21.9c2-2.9,4-6,5.9-9.2
			c1.8-2.9,3.5-5.5,4.9-7.7l1.9-2.9l-0.1,3.5c0,1.8,0.2,4.4,1.6,6.1c1,1.3,2.6,1.9,4.6,2l2,0.1l-1.3,1.6c-2.1,2.5-3.9,4.8-5.5,6.6
			c-9,10.6-16.5,19.9-17.4,27.1L216,859.9z M212,852.6c0.3,1.4,1.2,2.7,2.5,3.8c1.7-7.4,8.7-16,17.6-26.5c1.3-1.5,2.7-3.2,4.3-5.2
			c-1.7-0.4-3.1-1.2-4.2-2.5c-1-1.2-1.6-2.6-1.9-4.4c-1,1.6-2.1,3.3-3.2,5.1c-2,3.3-4,6.3-6,9.2C215.6,840.6,210.8,847.7,212,852.6
			L212,852.6z"/>
	</g>
	<g>
		<path class="st3" d="M226.2,868.9c-3.1,0-5.6-0.7-7-2.1c-7.3-7.3-1.4-16.9,14.4-35.5c1.5-1.7,3.1-3.7,5.1-6.2l2.1-2.5l-0.3,3.3
			c-0.2,2.5,0.8,4,1.7,4.8c1.7,1.6,4.4,2.4,7.8,2.4c8.7,0,21.7-5.4,31.5-13.1c18.5-14.4,27.6-34.8,30.7-42.9l1.3-3.5l0.6,3.7
			c0.8,4.8,1.3,10.9,1.7,15.2l0,0c0.6,7.9-1.6,15.7-6.3,22c-6.2,8.3-14,16.8-23.4,25.1C267.5,856,240,868.9,226.2,868.9z
			 M238.6,828.3c-1.3,1.6-2.5,3-3.5,4.2c-15,17.7-20.7,26.7-14.5,32.8c5.8,5.8,39.7-5.6,64.2-27.4c9.2-8.2,17-16.5,23.1-24.7
			c4.4-5.9,6.5-13.3,5.9-20.7l0,0c-0.3-3.2-0.6-7.4-1.1-11.3c-4.1,9.6-13.3,27.3-29.9,40.2c-10.3,8.1-23.5,13.5-32.7,13.5
			c-4,0-7.1-1-9.2-3C240,831.3,239,830.1,238.6,828.3z"/>
	</g>
	<g>
		<path class="st1" d="M250.2,833c-3.5,0-6.3-0.8-8-2.4c-1.3-1.2-3.1-4.2,0.1-9.9l0.1-0.1c10.1-12.7,22.8-29.1,31.6-40.7
			c3.9-5.1,5.9-11.5,5.6-18c-1.9-41.1-8.6-118.9-10.9-131.1c-2.5-12.8,1.3-29.2,1.5-30.3l0-0.9l1-0.1c22.8-0.3,46.2-2,69.4-5.2
			l2.4-0.3l-1.5,1.9c-8.7,11.2-10.4,26.5-14.4,63.5c-0.4,3.5-0.8,7.3-1.2,11.2c-4.9,44-11.6,97-12.4,102.9l0,0.2
			c-0.4,1.1-9,28.3-31.9,46.3C270.2,828.8,258.3,833,250.2,833z M244,821.8c-1.3,2.4-2.4,5.5-0.4,7.4c4.3,4,20.7,1.8,36.7-10.8
			c22.1-17.3,30.6-43.2,31.2-45.2c0.8-6.3,7.5-59.1,12.3-102.8c0.4-3.9,0.8-7.7,1.2-11.2l0,0c3.9-35.3,5.6-51.1,13.4-62.6
			c-22.2,3-44.6,4.6-66.5,4.9c-0.6,2.9-3.6,17.5-1.4,29c2.4,12.2,9.1,90.2,11,131.4c0.3,6.9-1.8,13.8-6,19.3
			C266.7,792.7,254.1,809.1,244,821.8z M312.4,773.4L312.4,773.4L312.4,773.4z M270.1,600.6C270.1,600.6,270.1,600.6,270.1,600.6
			L270.1,600.6z M270.2,600.5C270.2,600.5,270.2,600.5,270.2,600.5C270.2,600.5,270.2,600.5,270.2,600.5z"/>
	</g>
	<g>
		<path class="st2" d="M265.3,599.5c-19.2,0-35.5-1.1-48.5-2.4c-29.3-3-47.6-7.9-51-8.8l-0.7-0.2l0-0.7c-1.6-36.7-0.1-71,4.4-101.9
			l0.4-2.8l1.4,2.4c0.1,0,11.5,3.9,31,7c11.5,1.8,30,4,52.7,4c10,0,20.1-0.4,30.1-1.2v0c0-0.1,1.3-10.8,1.1-29.4
			c-0.2-17-1.6-44.6-7.6-79.3l-0.4-2.6l2,1.6c3.9,3.1,8.8,4.6,14,4.4c8.7-0.4,15.9-5.7,18.9-13.8c1.5-4.1,3.1-8.4,4.7-12.8l0.9-2.4
			l1,2.4c25.2,60.9,33.3,119.8,35.6,158.5c2.3,38.4-0.4,65-0.9,70l-0.1,0.8l-0.7,0.1C320.1,597.7,290.3,599.5,265.3,599.5z
			 M167,586.6c4.7,1.3,22.5,5.8,50,8.6c29.7,3,77.2,4.6,135.3-4.6c0.7-6.5,3.1-32.3,0.8-68.9c-2.3-38-10.2-95.7-34.5-155.5
			c-1.3,3.5-2.5,7-3.8,10.4c-3.3,8.9-11.2,14.7-20.6,15.1c-4.8,0.2-9.4-1-13.3-3.4c5.7,33.7,7.1,60.6,7.2,77.3
			c0.2,18.7-1.1,29.2-1.1,29.6l-0.2,1.6l-1.6,0.1c-10.1,0.8-20.2,1.2-30.3,1.2c-22.9,0-41.5-2.2-53-4c-17.3-2.7-28.2-6.1-30.8-6.9
			C166.9,517.4,165.5,550.8,167,586.6z M353.2,591.4L353.2,591.4L353.2,591.4z"/>
	</g>
	<g>
		<path class="st1" d="M243.3,151.2c-3.9,0-6.8-1.8-7.2-2l-1-0.6v-1.1c0-9.5,3.9-15.3,4-15.5c0.3-0.4,0.8-0.7,1.3-0.8
			c0.5-0.1,1.1,0,1.5,0.3c0.9,0.6,1.1,1.9,0.5,2.8c0,0-3,4.6-3.3,12.1c1.4,0.6,3.9,1.3,6.4,0.5c0.5-0.2,1-0.1,1.5,0.1
			c0.5,0.2,0.8,0.7,1,1.2c0.3,1.1-0.3,2.2-1.3,2.5h0C245.7,151,244.6,151.2,243.3,151.2C243.3,151.2,243.3,151.2,243.3,151.2z
			 M246.6,149.7L246.6,149.7L246.6,149.7z M237.6,147.7c0.8,0.4,3.1,1.5,5.8,1.5c0,0,0,0,0,0c1,0,2-0.1,2.9-0.4l0,0
			c-3.6,1.1-7.1-0.3-8.5-0.9L237.6,147.7z M240.9,133.1c-0.1,0.2-3.5,5.2-3.7,13.8C237.4,138.4,240.8,133.2,240.9,133.1z"/>
	</g>
	<g>
		<path class="st1" d="M237.2,123.5c-0.6,0-1.3-0.3-1.6-0.8c0,0-2.3-3.2-5.5-3.6c-1.6-0.2-3.3,0.3-5,1.6c-0.9,0.7-2.1,0.5-2.8-0.4
			c-0.7-0.9-0.5-2.1,0.4-2.8c2.6-2,5.3-2.8,8-2.4l0,0c4.9,0.7,8,5.1,8.1,5.3c0.6,0.9,0.4,2.1-0.5,2.8
			C238,123.4,237.6,123.5,237.2,123.5z M237.2,121.5L237.2,121.5L237.2,121.5z M230.9,117.1c3.8,0.8,6.2,4.3,6.3,4.4
			C237.1,121.4,234.7,118,230.9,117.1z M229.3,117c-1.5,0-3,0.5-4.5,1.4c1.7-1.1,3.5-1.6,5.3-1.4C229.8,117,229.6,117,229.3,117z"/>
	</g>
	<path class="st4" d="M248.6,167.2c-0.5,0.1-0.9,0.1-1.3-0.2c-0.9-0.6-1.5-2.2-1.7-3.1c1.7-0.8,3.5-2,5.4-4
		C250.8,163.2,250.1,166.8,248.6,167.2z"/>
	<path class="st1" d="M251.6,216.8c-2.3,0-4.1,1.9-4.1,4.1s1.9,4.1,4.1,4.1s4.1-1.9,4.1-4.1S253.9,216.8,251.6,216.8z M251.6,223
		c-1.2,0-2.1-1-2.1-2.1c0-1.2,1-2.1,2.1-2.1c1.2,0,2.1,1,2.1,2.1C253.8,222.1,252.8,223,251.6,223z"/>
	<path class="st1" d="M253.2,125.1c-1-0.1-2,0.6-2.2,1.7c-0.2,1,0.5,1.9,1.6,2c1,0.1,2-0.6,2.2-1.7
		C254.9,126.2,254.2,125.3,253.2,125.1z"/>
	<path class="st1" d="M231.5,129.5c1,0.1,2-0.6,2.2-1.7s-0.5-1.9-1.6-2c-1-0.1-2,0.6-2.2,1.7C229.7,128.4,230.4,129.4,231.5,129.5z"
		/>
	<path class="st1" d="M264.6,88.8c0.1,0,0.2,0,0.3,0c4-0.1,7-2.4,7.5-5.7c0.4-2.5-0.1-4.4-1.3-5.7c-1.9-1.9-4.7-1.5-4.9-1.5
		c-0.5,0.1-0.9,0.6-0.9,1.1c0.1,0.5,0.6,0.9,1.1,0.9c0,0,2-0.2,3.2,1c0.8,0.8,1,2.2,0.8,4c-0.4,2.8-3.3,3.9-5.6,4
		c-3.7,0.1-7.9-2.1-8.9-7.2c-0.9-4.3,2.5-9.1,7.6-10.7c6.2-2,11.9,1.6,15.3,9.4c0.2,0.5,0.8,0.7,1.3,0.5c0.5-0.2,0.7-0.8,0.5-1.3
		c-1.1-2.6-2.5-4.7-3.9-6.3c9.6,2.2,10.2,18,10.2,18.2c0,0.5,0.5,1,1,1c0,0,0,0,0,0c0.6,0,1-0.5,1-1c0-0.2-0.2-5-1.9-9.9
		c-2.4-6.7-6.7-10.3-12.4-10.5c-0.1,0-0.2,0-0.3,0.1c-3.8-2.8-8-3.1-11.4-2c-6,1.9-10,7.7-8.9,13C255.2,86.1,260.3,88.8,264.6,88.8z
		"/>
	<path class="st1" d="M303.5,240.2c0.1,0,0.2,0,0.3,0c0.4,0,0.8-0.3,1-0.7c7.1-21.8,22.2-20.6,22.9-20.6c0.6,0,1-0.4,1.1-0.9
		c0.1-0.5-0.3-1-0.9-1.1c-0.2,0-4.5-0.4-9.7,2.2c-4.8,2.3-11.3,7.7-15.3,19.8C302.7,239.5,302.9,240,303.5,240.2z"/>
	<path class="st1" d="M167.6,210c-0.1-0.5-0.6-0.9-1.1-0.9c-58.6,7.2-112.5-0.8-115.2-4.3c-0.1-0.3-0.1-0.5,0-0.6
		c0.5-1,3.1-2,4.9-2.4c0.5-0.1,0.9-0.6,0.8-1.2c-0.1-0.5-0.6-0.9-1.2-0.8c-0.8,0.2-5.1,1.2-6.2,3.5c-0.4,0.8-0.4,1.6,0,2.4
		c1.8,3.7,31,8.4,67.9,8.4c15.6,0,32.5-0.8,49.3-2.9C167.3,211.1,167.7,210.6,167.6,210z"/>
	<path class="st5" d="M150.1,199.3c2.3,0,4.2-1.9,4.2-4.2s-1.9-4.2-4.2-4.2s-4.2,1.9-4.2,4.2S147.7,199.3,150.1,199.3z M150.1,192.8
		c1.2,0,2.2,1,2.2,2.2s-1,2.2-2.2,2.2s-2.2-1-2.2-2.2S148.8,192.8,150.1,192.8z"/>
	<path class="st1" d="M134.3,200.6c1.5,0,2.7-1.2,2.7-2.7s-1.2-2.7-2.7-2.7s-2.7,1.2-2.7,2.7S132.8,200.6,134.3,200.6z M134.3,197.2
		c0.4,0,0.7,0.3,0.7,0.7s-0.3,0.7-0.7,0.7s-0.7-0.3-0.7-0.7S133.9,197.2,134.3,197.2z"/>
	<path class="st1" d="M283.2,269.9l-22.3-5.7c-0.5-0.1-1.1,0.2-1.2,0.7c-0.1,0.5,0.2,1.1,0.7,1.2l22.3,5.7c0.1,0,0.2,0,0.2,0
		c0.4,0,0.9-0.3,1-0.8C284.1,270.6,283.8,270,283.2,269.9z"/>
	<path class="st2" d="M339.3,224.9c11.5,19,9.5,38.6,2,65.9c-4,14.6-18.1,54.1-29.3,84.6c-2.8,7.7-9.7,12.8-18,13.2
		c-8.2,0.4-15.5-4-19.1-11.5l-22.9-48.3c0.1-0.1,0.2-0.1,0.2-0.2l23.7-29.7l15.2,22.8c0.2,0.3,0.5,0.4,0.8,0.4
		c0.2,0,0.4-0.1,0.6-0.2c0.5-0.3,0.6-0.9,0.3-1.4l-3.6-5.4l10.1-48.1c0.1-0.5-0.2-1.1-0.8-1.2c-0.5-0.1-1.1,0.2-1.2,0.8l-9.7,46.2
		L240.5,242l6.3-25.3c0.1-0.5-0.2-1.1-0.7-1.2c-0.5-0.1-1.1,0.2-1.2,0.7l-5.6,22.6c-1.5-3.9-4.2-10.9-7.5-18c0.2,0,0.4-0.1,0.5-0.3
		c4.9-5,12.9-13.1,14.4-14.2c1.3,0.7,2.4,0.9,3.1,1c0.3,0,0.6,0.1,1,0.1l12.4,23.3l0.9-0.5c0.2-0.1,22.6-12.4,38.7-41.1l0.2-0.4
		l-1-2.6C308.2,191,329.3,208.4,339.3,224.9z"/>
	<path class="st6" d="M296.1,176.4l4.6,12.2c-14,24.7-32.6,36.8-36.8,39.4L253,207.5c7.3-0.2,15.9-3.8,24.6-10.4
		C285.5,191.1,292.4,183.3,296.1,176.4z"/>
	<path class="st3" d="M241.3,57.3c0.5-0.2,0.8-0.7,0.7-1.3c-0.2-0.5-0.7-0.8-1.3-0.7c-0.2,0.1-3.7,1.2-7.9,3.6
		c0.6-8.3,8.2-17.6,18.9-23c6.5-3.3,23.4-9.4,40.4,3.6c22.7,17.4,22.8,42.3,21.7,52.2c0,0.4-0.1,0.6-0.1,0.7c0,0.5,0.4,1,1,1
		c0,0,0,0,0,0c0.5,0,1-0.4,1-1c0-0.1,0-0.3,0.1-0.5c0.2-1.7,0.3-3.9,0.3-6.3c2.9,2.8,11.2,12.3,11.2,28.1
		c0,18.9-15.3,29.1-15.5,29.2c-0.5,0.3-0.6,0.9-0.3,1.4c0.2,0.3,0.5,0.5,0.8,0.5c0.2,0,0.4-0.1,0.5-0.2c0.1-0.1,3.8-2.5,7.6-7.2
		c2,2.3,10.9,13.7,2.4,28.2c-9.3,15.8-23.5,11.2-24.1,11c-0.1,0-0.3-0.1-0.4,0l-0.9-2.3c-0.1-0.3-0.4-0.5-0.7-0.6
		c0,0-0.1-0.1-0.1-0.1c0-0.1,0-0.2,0-0.3c-2.9-11.5-1.8-24.1-1.7-25.6c2-0.8,3.5-2.1,4.6-3.5c2.3-3,2.6-6.8,0.7-9.8
		c-0.9-1.5-2.2-2.3-3.9-2.6c-1.7-0.3-3.5,0.2-5.2,0.9c-0.1-0.1-0.3-0.2-0.5-0.2c-0.1,0-7.5-0.9-9.6-10.9c-0.1-0.4-0.1-0.7-0.2-1.1
		l1.1-2.4l-1.3,0.6c-0.5-9,5.3-16.5,5.3-16.6c0.3-0.4,0.3-1.1-0.2-1.4c-0.4-0.3-1.1-0.3-1.4,0.2c-0.1,0.1-0.8,1-1.7,2.5
		c-2.3-4.4-7.7-9.9-8-10.1l-0.8-0.8l-0.7,0.9c-0.1,0.1-7.6,9.6-23.1,5.6c-6.4-1.6-10.9-5.7-13.2-12c-1.8-4.8-1.7-9.2-1.7-9.3
		c0-0.6-0.4-1-1-1c-0.6,0-1,0.4-1,1c0,0.1-0.3,10.3,6.3,17.4c-5.8,3-11.6,3.1-15.6,0.4c-4.1-2.8-6-8.3-5.2-15.6
		C220.7,64,241.1,57.4,241.3,57.3z"/>
	<path class="st1" d="M278.1,121.8c-2.2,3.8-7.7,11.5-17.3,13.6c-5.9,1.3-9.3-0.2-11.2-1.7c-2.1-1.7-3-4.1-2.9-5.6
		c0-1.5,0.6-2.7,1.6-3.7c1.5-1.4,4.2-2.1,7.9-2.1c0.8,0,1.6,0,2.5,0.1C269.1,123.3,275.1,122.5,278.1,121.8z"/>
	<path class="st1" d="M265.9,120.9C265.9,120.8,265.9,120.8,265.9,120.9c0.4-0.4,0.4-1,0-1.4c-8.8-8.2-17-0.3-17.1-0.3
		c-0.4,0.4-0.4,1,0,1.4c0.4,0.4,1,0.4,1.4,0c0.3-0.3,6.9-6.5,14.3,0.2c-1.7,0-3.5-0.1-5.5-0.3c-5.6-0.4-9.6,0.4-11.9,2.5
		c-1.2,1-1.9,2.4-2.1,4c-2.4-0.7-4.8-0.4-6-0.2c-0.3-1.7-1-3.1-2.2-4.1c-2.1-1.9-5.5-2.6-10.1-2.2c-2.5,0.2-4.6,0.3-6.5,0.3
		c0.6-12.6,2.6-21.4,3.2-23.6c2.2,1.4,4.7,2.1,7.5,2.1c3.2,0,6.8-0.9,10.2-2.8c0.1,0,0.1-0.1,0.1-0.1c2.2,1.9,5,3.6,8.7,4.5
		c14.1,3.6,22.1-3,24.4-5.5c1.8,1.8,6.1,6.6,7.4,9.9c0,0.1,0.1,0.1,0.1,0.2c-1.7,3.4-3.4,8.4-2.9,14
		C277.3,120,273.4,120.9,265.9,120.9z"/>
	<path class="st3" d="M217.9,131.9c-4-3.2-6.6-7.5-7.9-10c1.6,0.4,4.2,0.8,7.9,0.9c0,1-0.1,2-0.1,3
		C217.8,127.9,217.8,129.9,217.9,131.9z"/>
	<path class="st1" d="M219.9,125.9c0-1,0-2,0.1-3c2,0,4.2-0.1,6.8-0.3c4-0.4,6.9,0.2,8.6,1.7c1.1,1,1.6,2.3,1.7,4
		c0,1.4-0.8,4.3-3.1,6.1c-2.2,1.8-5.2,2.2-9,1.2c-1.8-0.5-3.5-1.2-5-2.1C219.8,130.9,219.8,128.5,219.9,125.9z"/>
	<path class="st3" d="M216.9,80c-0.7,7,0.9,12.6,4.7,16c0,0.1-0.1,0.1-0.1,0.2c0,0.1-1.2,4.5-2.2,11.9c-1.8-1.1-7.8-5.4-9.3-14.4
		C208.5,85.7,214.2,81.6,216.9,80z"/>
	<path class="st3" d="M198.9,130.9c-2.6-6-2.8-10.6-0.8-13.3c1.9-2.5,5.7-3,8.5-2.6l1.9,0.3l-0.9-1.7c-0.2-0.3-3.5-7.3,2.9-11.8
		c3.2,5.8,7.9,8.2,8.2,8.4c0,0,0.1,0,0.1,0c-0.4,3.1-0.7,6.7-0.9,10.6c-6.7-0.2-9.3-1.5-9.4-1.5l-2.4-1.4l1,2.6
		c0.4,1.1,3.7,9.1,10.7,13.9c0.3,6.8,1.2,12.8,2.4,18C216.7,150.7,204.3,143.8,198.9,130.9z"/>
	<path class="st1" d="M243.8,183.6c0.4,0.1,0.7,0.2,1,0.2c2.4,0.5,4.7,0.7,6.9,0.7c20.1,0,29.7-18.5,29.8-18.7
		c0.2-0.5,0.1-1.1-0.4-1.3c-0.5-0.3-1.1-0.1-1.3,0.4c-0.1,0.2-11.2,21.6-34.6,16.9c-0.4-0.1-0.9-0.2-1.3-0.3c0,0,0,0-0.1-0.1
		c-0.2-0.1-0.3-0.1-0.5-0.1c-8.9-3-21.6-15.3-23.3-45.6c1.3,0.7,2.8,1.3,4.4,1.7c1.5,0.4,2.9,0.6,4.1,0.6c3.1,0,5.2-1.1,6.6-2.1
		c2.4-1.9,3.6-4.8,3.8-6.9c0.8-0.2,3.5-0.7,5.8,0.2c0.3,1.9,1.4,4.4,3.6,6.2c1.6,1.3,4.2,2.7,8.2,2.7c1.4,0,2.9-0.2,4.7-0.6
		c10-2.2,15.8-9.9,18.3-14.1c2,7.2,6.5,9.8,9.1,10.7c-1.5,0.9-2.5,1.7-2.6,1.8c-0.4,0.3-0.5,1-0.1,1.4c0.4,0.4,1,0.5,1.4,0.1
		c0.1,0,5.1-4.1,8.8-3.6c1.1,0.2,1.9,0.7,2.5,1.7c1.4,2.2,1.2,5.1-0.6,7.5c-1.8,2.4-5.5,4.4-10.5,2.9c-0.5-0.2-1.1,0.1-1.2,0.7
		c-0.2,0.5,0.1,1.1,0.7,1.2c1.4,0.4,2.7,0.6,3.9,0.6c0.7,0,1.4-0.1,2.1-0.2c-0.3,3.3-1,14.8,1.8,25.6c0,0.2,0.1,0.3,0.3,0.4
		c-6.6,13.7-28.7,33.1-45,31.2c-7.7-0.9-9.2-12.5-9.5-17c0.1,0,0.1-0.1,0.2-0.1C241.8,186.9,243.1,184.7,243.8,183.6z"/>
	<path class="st6" d="M238.5,189.7c0.7,8.9,3.6,13.3,6.4,15.5c-1.7,1.4-5.4,5-14,13.8c-0.6-1.3-1.3-2.6-1.9-3.9
		c0.1-0.1,0.2-0.3,0.2-0.5C231.5,202.3,236,194,238.5,189.7z"/>
	<path class="st2" d="M227.6,212.6c-0.4-0.7-0.8-1.4-1.2-2.1c-0.6-1-1.4-2-2.3-2.7c-1.8-1.5-5.4-4.4-11.3-5
		c8.8-4.2,17.3-6.7,20.6-7.5C231.3,199.6,229.1,205.4,227.6,212.6z"/>
	<path class="st1" d="M222.8,209.3c0.7,0.6,1.3,1.3,1.8,2.1c7.3,12.6,13.8,30.9,13.9,31.1l0,0.1l36.4,54.6l-23.7,29.7l-30.4-64.2
		c1.1,0.5,1.8,0.9,1.8,0.9c0.1,0.1,0.3,0.1,0.4,0.1c0.4,0,0.7-0.2,0.9-0.6c0.2-0.5,0-1.1-0.5-1.3c-0.5-0.2-12.1-5.9-17.4-7.8
		c-3.9-1.4-5.1-4-4-8.5c1.6,0.6,3,0.6,3.1,0.6c0,0,0,0,0.1,0c0.5,0,1-0.4,1-0.9c0-0.6-0.4-1-0.9-1.1c0,0-4-0.2-6.2-3
		c-1.2-1.5-1.6-3.5-1.2-6c1.6,0.8,3.1,0.9,4,0.9c0.5,0,0.8,0,0.9-0.1c0.5-0.1,0.9-0.6,0.8-1.1c-0.1-0.5-0.6-0.9-1.1-0.8
		c-0.1,0-2.8,0.4-5.6-1.9c-1.9-1.6-1.8-5.3-1.4-7.4l12.2,0.1c0,0,0,0,0,0c0.5,0,1-0.4,1-1c0-0.6-0.4-1-1-1l-12.5-0.1
		c-0.1,0-0.2-0.1-0.3-0.1c-0.3-0.1-0.5,0-0.7,0.1l-11.5-0.1c-1.5,0-2.8-1.2-2.9-2.8c-0.1-1.5,1-2.7,2.4-3c8.6-1.4,23.5-3.7,26-4.6
		c3.5-1.2,5.5-4,5.6-4.1c0.3-0.5,0.2-1.1-0.2-1.4c-0.5-0.3-1.1-0.2-1.4,0.2c0,0-1.7,2.4-4.5,3.3c-1.1,0.4-5.3,1.2-11.9,2.3
		c7.1-2,11.4-4.4,11.4-7.3c0-0.1,0-0.2,0-0.3C214.6,203.6,219.3,206.4,222.8,209.3z"/>
	<path class="st1" d="M193.3,224.8C193.3,224.8,193.3,224.8,193.3,224.8c-0.2-0.1-0.3-0.1-0.4-0.1L193.3,224.8
		C193.3,224.7,193.3,224.8,193.3,224.8z"/>
	<polygon class="st5" points="165.3,199.8 108.1,206.5 108.1,200.1 165.1,182.9 	"/>
	<polygon class="st5" points="128.8,180.5 161.8,181.8 107.1,198.3 99.5,195.4 	"/>
	<polygon class="st5" points="98.9,197.4 106.1,200.1 106.1,206.3 98.6,203 	"/>
	<path class="st6" d="M35.5,205.4c0-4.6,22-10.2,62.8-11.6l-1,0.5c-0.1,0.1-0.2,0.2-0.3,0.3l-0.1,0l0,0.1c-0.2,0.3-0.2,0.6-0.1,1
		c0,0,0,0,0,0l-0.4,8.6l9.5,4.2v0.2l0.6-0.1c0,0,0,0,0.1,0c0.1,0,0.2,0,0.3-0.1l60.3-7l-0.1-6.2c29.7,3,37.7,7.7,37.7,10
		c0,2.1-6.4,5.6-24.3,8.3c-16.1,2.5-37.6,3.8-60.5,3.8s-44.3-1.4-60.5-3.8C41.9,210.9,35.5,207.5,35.5,205.4z"/>
	<path class="st1" d="M102.4,224.2c-6-2.4-6.6-4-6.4-5.3c7.9,0.4,16.1,0.5,24.2,0.5c11.5,0,23.3-0.4,34.3-1.1
		c0.1,0.1,0.3,0.3,0.5,0.3c8.8,1.4,8.7,12.1,8.7,12.5l0,0.1l13.2,58.3l-31.7,14.9l-4.5-65c0.1-0.3,0.1-0.5-0.1-0.8l-0.2-2.3
		c0-0.6-0.5-1-1.1-0.9c-0.6,0-1,0.5-0.9,1.1l0.1,1.1C132.1,235.4,107.4,226.3,102.4,224.2z"/>
	<path class="st2" d="M175.1,357.9c-5,3.9-11.4,4.6-17.2,2c-5.8-2.6-9.4-7.9-9.9-14.2l-2.7-39.2c0.1,0,0.1,0,0.2,0l31.8-14.9
		l4.7,20.9c0.1,0.5,0.5,0.8,1,0.8c0.1,0,0.1,0,0.2,0c0.5-0.1,0.9-0.7,0.8-1.2l-7.7-34.2c0.2-0.1,0.4-0.3,0.5-0.6l16.3-49.1
		c0.1,2,0.7,4.1,2.3,5.5c0.2,0.2,0.4,0.3,0.5,0.4c0,0.1-0.1,0.1-0.1,0.2c-0.6,3.3-0.1,6,1.5,8.1c0.8,1,1.7,1.7,2.7,2.3
		c-0.7,2.7-0.7,4.9,0,6.7c-0.8,1.8-10.6,23.1-12.8,34.9c-2.5,13.5,4.3,29,16.1,49.8L175.1,357.9z"/>
	<path class="st2" d="M189.3,286.7c1.9-10.2,9.9-28.3,12.1-33.2c0.9,1,2.2,1.9,3.9,2.5c3.1,1.1,8.7,3.6,12.6,5.5
		c0,0.1,0,0.3,0.1,0.4l5.3,11.2c0,0.1-0.1,0.1-0.1,0.2c-0.3,0.5-6.2,13.6-4.8,25.5c1.3,11.8,11.4,44.4,11.9,45.8
		c0.1,0.4,0.5,0.7,1,0.7c0.1,0,0.2,0,0.3,0c0.5-0.2,0.8-0.7,0.7-1.3c-0.1-0.3-10.5-33.8-11.8-45.4c-1.1-9.2,2.6-19.5,4.1-23.1
		l42.9,90.4c-21.3,3.3-44.3-4.1-47.4-5.1c-1.4-2.4-2.8-4.8-4.2-7.2C198,323.2,186.2,303.2,189.3,286.7z"/>
	<path class="st6" d="M190.2,410.1c13-31.2,26.9-45.1,29.4-47.5c3.1,1,18.9,6,36.2,6c4.1,0,8.3-0.3,12.5-1l4.9,10.4
		c1.2,2.5,2.7,4.6,4.5,6.4c-0.2,0.2-0.4,0.6-0.3,0.9c6.1,35,7.6,62.9,7.8,80.1c0.2,15.7-0.7,25.7-1,28.5c-35.2,2.8-63.8,0-81.7-2.8
		c-19.5-3.1-30.8-6.9-30.9-7c-0.4-0.1-0.7,0-1,0.2C175.5,451.5,183,427.2,190.2,410.1z"/>
	<path class="st1" d="M241.2,778c-2-8.4-12-31.7-27.2-64c-12.8-27-27.1-55.6-34.2-68.1c-13.6-24.2-10.7-55.3-10.7-55.6c0,0,0,0,0,0
		c7.4,1.8,23.8,5.5,47.5,7.9c4,0.4,8.2,0.8,12.8,1.1c-0.6,3.2-3.8,19.7-1.4,29.3c2.6,10.2,46.6,137.4,48.4,142.8
		c0.1,0.3,0.4,0.5,0.7,0.6c-0.9,2.6-2.2,5.1-3.9,7.4c-7.7,10-19.9,25.9-30,38.6c-0.3,0-0.5,0.2-0.6,0.4c-0.4,0.6-0.7,1.2-1.1,1.7
		c-0.6,0.7-1.2,1.4-1.7,2.1c-0.2-0.1-0.4-0.2-0.6-0.2c-2.1,0.1-3.7-0.4-4.7-1.6c-2.4-3-1-8.9-1-9c0-0.1,0-0.2,0-0.2
		C240.3,800.9,244.8,792.6,241.2,778z"/>
	<path class="st3" d="M211,852.9c-1.3-5.4,3.6-12.7,9.2-21.2c2-2.9,4-6,5.9-9.2c1.7-2.8,3.3-5.3,4.9-7.7c0,2.2,0.3,4.9,1.9,6.8
		c1.2,1.5,3,2.3,5.3,2.4c-2,2.5-3.8,4.7-5.5,6.6c-9.6,11.3-16.7,20.3-17.6,27.6C212.9,856.7,211.5,854.9,211,852.9z"/>
	<path class="st3" d="M314.8,792.5c0.6,7.6-1.6,15.2-6.1,21.3c-6.1,8.3-13.9,16.6-23.2,24.9c-23.8,21.1-58.8,34.1-65.6,27.3
		c-6.7-6.7-1-16,14.5-34.2c1.5-1.8,3.3-3.9,5.1-6.2c-0.3,2.9,0.9,4.6,2,5.6c2,1.9,5,2.7,8.5,2.7c9.3,0,22.4-5.7,32.1-13.3
		c18.7-14.6,27.9-35.1,31-43.3C313.9,782.1,314.4,787.9,314.8,792.5z"/>
	<path class="st1" d="M326,659.2c-0.4,3.5-0.8,7.2-1.2,11.2c-5,45-12,100.5-12.4,102.9c-0.4,1.4-8.9,28.1-31.6,45.8
		c-16.7,13.1-33.4,15.1-38,10.7c-2-1.8-1.8-4.9,0.3-8.7c10.4-13,23.5-30.1,31.6-40.7c4.1-5.3,6.1-11.9,5.8-18.6
		c-1.9-41.1-8.6-119-11-131.2c-2.5-13,1.5-29.8,1.5-30c0-0.1,0-0.2,0-0.2c20.5-0.2,43.8-1.7,69.5-5.2
		C331.8,606.7,330,622.6,326,659.2z"/>
	<path class="st2" d="M353.2,591.4c-58.6,9.4-106.5,7.8-136.3,4.8c-29.1-2.9-47.2-7.8-50.8-8.8c-1.8-40.4,0.3-74.1,4.4-101.8
		c0.1,0.2,0.3,0.4,0.5,0.4c0.1,0,11.5,3.9,31.2,7.1c12.7,2,30.8,4,52.9,4c9.4,0,19.5-0.4,30.2-1.2l0.8-0.1l0.1-0.8
		c0-0.1,1.3-10.7,1.1-29.5c-0.2-17.1-1.6-44.8-7.6-79.5c3.8,3,8.5,4.6,13.6,4.6c0.4,0,0.7,0,1.1,0c9.1-0.4,16.6-6,19.7-14.5
		c1.5-4.1,3.1-8.4,4.7-12.8c25.2,60.7,33.2,119.5,35.6,158.2C356.5,559.9,353.8,586.7,353.2,591.4z"/>
	<path class="st1" d="M246.6,149.7c0.5-0.2,0.8-0.7,0.7-1.3s-0.7-0.8-1.3-0.7c-3.3,1-6.5-0.3-7.7-0.9c0.2-8.2,3.4-13.2,3.5-13.3
		c0.3-0.5,0.2-1.1-0.3-1.4c-0.5-0.3-1.1-0.2-1.4,0.3c-0.2,0.2-3.8,5.7-3.8,15v0.6l0.5,0.3c0.2,0.1,3,1.8,6.6,1.8
		C244.4,150.2,245.5,150.1,246.6,149.7z"/>
	<path class="st1" d="M230.6,116.1c-2.5-0.4-4.9,0.4-7.3,2.2c-0.4,0.3-0.5,1-0.2,1.4s1,0.5,1.4,0.2c1.9-1.5,3.8-2.1,5.7-1.8
		c3.6,0.5,6.1,4,6.1,4.1c0.2,0.3,0.5,0.4,0.8,0.4c0.2,0,0.4-0.1,0.6-0.2c0.5-0.3,0.6-0.9,0.2-1.4C237.9,120.8,235,116.7,230.6,116.1
		z"/>
	<path class="st4" d="M248.6,167.2c-0.5,0.1-0.9,0.1-1.3-0.2c-0.9-0.6-1.5-2.2-1.7-3.1c1.7-0.8,3.5-2,5.4-4
		C250.8,163.2,250.1,166.8,248.6,167.2z"/>
</g>
<g>
	<path class="st7" d="M251.6,216.8c-2.3,0-4.1,1.9-4.1,4.1s1.9,4.1,4.1,4.1s4.1-1.9,4.1-4.1S253.9,216.8,251.6,216.8z M251.6,223
		c-1.2,0-2.1-1-2.1-2.1c0-1.2,1-2.1,2.1-2.1c1.2,0,2.1,1,2.1,2.1C253.8,222.1,252.8,223,251.6,223z"/>
	<path class="st7" d="M253.2,125.1c-1-0.1-2,0.6-2.2,1.7c-0.2,1,0.5,1.9,1.6,2c1,0.1,2-0.6,2.2-1.7
		C254.9,126.2,254.2,125.3,253.2,125.1z"/>
	<path class="st7" d="M231.5,129.5c1,0.1,2-0.6,2.2-1.7s-0.5-1.9-1.6-2c-1-0.1-2,0.6-2.2,1.7C229.7,128.4,230.4,129.4,231.5,129.5z"
		/>
	<path class="st7" d="M264.6,88.8c0.1,0,0.2,0,0.3,0c4-0.1,7-2.4,7.5-5.7c0.4-2.5-0.1-4.4-1.3-5.7c-1.9-1.9-4.7-1.5-4.9-1.5
		c-0.5,0.1-0.9,0.6-0.9,1.1c0.1,0.5,0.6,0.9,1.1,0.9c0,0,2-0.2,3.2,1c0.8,0.8,1,2.2,0.8,4c-0.4,2.8-3.3,3.9-5.6,4
		c-3.7,0.1-7.9-2.1-8.9-7.2c-0.9-4.3,2.5-9.1,7.6-10.7c6.2-2,11.9,1.6,15.3,9.4c0.2,0.5,0.8,0.7,1.3,0.5c0.5-0.2,0.7-0.8,0.5-1.3
		c-1.1-2.6-2.5-4.7-3.9-6.3c9.6,2.2,10.2,18,10.2,18.2c0,0.5,0.5,1,1,1c0,0,0,0,0,0c0.6,0,1-0.5,1-1c0-0.2-0.2-5-1.9-9.9
		c-2.4-6.7-6.7-10.3-12.4-10.5c-0.1,0-0.2,0-0.3,0.1c-3.8-2.8-8-3.1-11.4-2c-6,1.9-10,7.7-8.9,13C255.2,86.1,260.3,88.8,264.6,88.8z
		"/>
	<path class="st7" d="M303.5,240.2c0.1,0,0.2,0,0.3,0c0.4,0,0.8-0.3,1-0.7c7.1-21.8,22.2-20.6,22.9-20.6c0.6,0,1-0.4,1.1-0.9
		c0.1-0.5-0.3-1-0.9-1.1c-0.2,0-4.5-0.4-9.7,2.2c-4.8,2.3-11.3,7.7-15.3,19.8C302.7,239.5,302.9,240,303.5,240.2z"/>
	<path class="st7" d="M167.6,210c-0.1-0.5-0.6-0.9-1.1-0.9c-58.6,7.2-112.5-0.8-115.2-4.3c-0.1-0.3-0.1-0.5,0-0.6
		c0.5-1,3.1-2,4.9-2.4c0.5-0.1,0.9-0.6,0.8-1.2c-0.1-0.5-0.6-0.9-1.2-0.8c-0.8,0.2-5.1,1.2-6.2,3.5c-0.4,0.8-0.4,1.6,0,2.4
		c1.8,3.7,31,8.4,67.9,8.4c15.6,0,32.5-0.8,49.3-2.9C167.3,211.1,167.7,210.6,167.6,210z"/>
	<path class="st8" d="M150.1,199.3c2.3,0,4.2-1.9,4.2-4.2s-1.9-4.2-4.2-4.2s-4.2,1.9-4.2,4.2S147.7,199.3,150.1,199.3z M150.1,192.8
		c1.2,0,2.2,1,2.2,2.2s-1,2.2-2.2,2.2s-2.2-1-2.2-2.2S148.8,192.8,150.1,192.8z"/>
	<path class="st7" d="M134.3,200.6c1.5,0,2.7-1.2,2.7-2.7s-1.2-2.7-2.7-2.7s-2.7,1.2-2.7,2.7S132.8,200.6,134.3,200.6z M134.3,197.2
		c0.4,0,0.7,0.3,0.7,0.7s-0.3,0.7-0.7,0.7s-0.7-0.3-0.7-0.7S133.9,197.2,134.3,197.2z"/>
	<path class="st7" d="M283.2,269.9l-22.3-5.7c-0.5-0.1-1.1,0.2-1.2,0.7c-0.1,0.5,0.2,1.1,0.7,1.2l22.3,5.7c0.1,0,0.2,0,0.2,0
		c0.4,0,0.9-0.3,1-0.8C284.1,270.6,283.8,270,283.2,269.9z"/>
	<path class="st9" d="M341,227.8c-1.3,16.7-4.9,33.1-9.6,49.1c-7.3,24.9-17.1,49.5-27.8,73.2c-3.8,8.4-8.1,18.4-15.5,24.3
		c-4.2,3.4-8.6,4.4-12.6,3.6c3.7,6.9,10.7,10.9,18.6,10.6c8.2-0.4,15.1-5.4,18-13.2c11.2-30.5,25.3-70,29.3-84.6
		C348.4,264.8,350.7,245.9,341,227.8z"/>
	<path class="st10" d="M291,203.2c3.3-4.3,6.7-9.1,9.8-14.6l-4.6-12.2c-1.9,3.6-4.7,7.4-8.1,11.1C289.1,192.7,290.1,197.9,291,203.2
		z"/>
	<path class="st11" d="M312.8,144.7c-0.2,0.1-0.4,0.2-0.5,0.2c-0.3,0-0.6-0.2-0.8-0.5c-0.3-0.5-0.2-1.1,0.3-1.4
		c0.2-0.1,15.5-10.3,15.5-29.2c0-9.5-3-16.7-6-21.6c-1,16.8-6.5,33.6-20.1,43.9c0.9,2.6,0.4,5.6-1.5,8c-1,1.4-2.6,2.7-4.6,3.5
		c-0.2,1.6-1.2,14.2,1.7,25.6c0,0.1,0,0.2,0,0.3c0,0,0.1,0.1,0.1,0.1c0.3,0.1,0.5,0.3,0.7,0.6l0.9,2.3c0.1,0,0.3,0,0.4,0
		c0.6,0.2,14.8,4.8,24.1-11c8.5-14.5-0.4-25.9-2.4-28.2C316.6,142.2,312.9,144.6,312.8,144.7z"/>
	<path class="st7" d="M298.6,135.5c-0.6-1-1.4-1.5-2.5-1.7c-3.7-0.6-8.7,3.5-8.8,3.6c-0.4,0.4-1.1,0.3-1.4-0.1
		c-0.3-0.4-0.3-1.1,0.1-1.4c0.1-0.1,1.1-0.9,2.6-1.8c-1.1-0.4-2.5-1.1-3.9-2.2c-1,9.1-1.1,18.4-0.8,27.5c0.3,9.2,1,18.3,2,27.4
		c4-4.2,7.2-8.7,9.1-12.6c-0.1-0.1-0.2-0.3-0.3-0.4c-2.7-10.8-2.1-22.2-1.8-25.6c-0.7,0.1-1.4,0.2-2.1,0.2c-1.2,0-2.5-0.2-3.9-0.6
		c-0.5-0.2-0.8-0.7-0.7-1.2c0.2-0.5,0.7-0.8,1.2-0.7c5,1.5,8.7-0.5,10.5-2.9C299.8,140.6,300,137.7,298.6,135.5z"/>
	<path class="st7" d="M263.7,311.2l11.2-14l-29.1-43.6C251.7,272.8,258,291.9,263.7,311.2z"/>
	<path class="st7" d="M193.3,224.8C193.3,224.8,193.3,224.8,193.3,224.8c-0.2-0.1-0.3-0.1-0.4-0.1L193.3,224.8
		C193.3,224.7,193.3,224.8,193.3,224.8z"/>
	<polygon class="st8" points="165.3,199.8 108.1,206.5 108.1,200.1 165.1,182.9 	"/>
	<polygon class="st8" points="98.9,197.4 106.1,200.1 106.1,206.3 98.6,203 	"/>
	<path class="st10" d="M174.5,196.2c1.1,1.4,1.9,3.1,2.1,4.7c0.8,5.7-3.3,10-8.5,11.3c-5.2,1.3-10.4,2.9-15.6,4.3
		c10.4-0.6,20-1.6,28.2-2.9c17.9-2.7,24.3-6.2,24.3-8.3C205,203.3,198.3,199.2,174.5,196.2z"/>
	<path class="st7" d="M167.7,249c1,14.7,1.3,29.6,1.3,44.4l7.9-3.7L167.7,249z"/>
	<path class="st9" d="M153.2,354.6c-0.8,0-1.5-0.2-2.3-0.4c1.7,2.5,4.1,4.4,7,5.7c5.8,2.6,12.2,1.8,17.2-2l28.3-21.8
		c-1.5-2.6-2.9-5.1-4.2-7.6C186.1,341.6,172.2,354.7,153.2,354.6z"/>
	<path class="st7" d="M276.4,771.3c-1.9-5.4-45.9-132.6-48.4-142.8c-2.4-9.6,0.8-26.2,1.4-29.3c-4.6-0.3-8.8-0.7-12.8-1.1
		c-1.3-0.1-2.6-0.3-3.8-0.4c-0.5,6.6-1.2,13.2-1.6,19.9c-0.8,11.7,0.5,23.1,3.4,34.5c5.1,19.7,14.4,38.2,23.1,56.5
		c4.4,9.4,8.6,18.8,13,28.2c4.3,9,8.6,17.9,11.8,27.4c2.8,8.3,5,16.5,3.1,25c2.8-3.6,5.3-7,7.5-9.8c1.7-2.2,3-4.7,3.9-7.4
		C276.8,771.9,276.5,771.6,276.4,771.3z"/>
	<path class="st11" d="M233,821.6c-0.1-0.1-0.2-0.3-0.3-0.4c-7.4,8.2-13.6,18.6-14.9,29.5c3-5.8,8.4-12.4,15-20.2
		c1.6-1.9,3.5-4.1,5.5-6.6C236,823.9,234.2,823.1,233,821.6z"/>
	<path class="st11" d="M314.8,792.5c-0.4-4.6-0.9-10.4-1.7-15.1c-1.6,4.1-4.7,11.4-9.9,19.5c0.3,1.2,0.4,2.4,0.1,3.6
		c-2.5,11.5-5.4,22.4-12.6,32c-1.2,1.6-2.4,3.1-3.6,4.6c8.5-7.7,15.7-15.6,21.5-23.3C313.2,807.7,315.4,800.1,314.8,792.5z"/>
	<path class="st11" d="M262.4,835.7c1.8-2.1,3.6-4.2,5.4-6.3c-0.3,0.2-0.7,0.3-1,0.5C265.3,831.7,263.8,833.7,262.4,835.7z"/>
	<path class="st7" d="M309.1,598.7c-3.5,22.3-5.4,44.8-6.4,67.3c-1.1,24.4-1.2,48.9-1.2,73.4c0,11.4-0.4,22-4.4,32.8
		c-3.5,9.4-8.1,18.4-13.3,27c-6.7,11.2-14.8,21.7-24,31.2c6.3-1.9,13.7-5.5,21.1-11.2c22.6-17.7,31.1-44.3,31.6-45.8
		c0.3-2.4,7.3-57.9,12.4-102.9c0.4-3.9,0.8-7.7,1.2-11.2c4-36.7,5.7-52.5,14.6-64C329.7,596.8,319.2,597.9,309.1,598.7z"/>
	<path class="st9" d="M354.2,521.5c-2.3-38.7-10.4-97.5-35.6-158.2c-1.6,4.4-3.2,8.7-4.7,12.8c-2.4,6.7-7.6,11.5-14,13.5
		c3.3,13.1,5.9,26.3,7.9,39.6c3.1,21,4.9,42.2,5.9,63.4c1,21.3,2,42.8,1.2,64.1c-0.5,13.4-2.4,26.6-4.1,39.9
		c13.4-1.1,27.6-2.8,42.4-5.2C353.8,586.7,356.5,559.9,354.2,521.5z"/>
	<path class="st7" d="M246.6,149.7c0.5-0.2,0.8-0.7,0.7-1.3s-0.7-0.8-1.3-0.7c-3.3,1-6.5-0.3-7.7-0.9c0.2-8.2,3.4-13.2,3.5-13.3
		c0.3-0.5,0.2-1.1-0.3-1.4c-0.5-0.3-1.1-0.2-1.4,0.3c-0.2,0.2-3.8,5.7-3.8,15v0.6l0.5,0.3c0.2,0.1,3,1.8,6.6,1.8
		C244.4,150.2,245.5,150.1,246.6,149.7z"/>
	<path class="st7" d="M230.6,116.1c-2.5-0.4-4.9,0.4-7.3,2.2c-0.4,0.3-0.5,1-0.2,1.4s1,0.5,1.4,0.2c1.9-1.5,3.8-2.1,5.7-1.8
		c3.6,0.5,6.1,4,6.1,4.1c0.2,0.3,0.5,0.4,0.8,0.4c0.2,0,0.4-0.1,0.6-0.2c0.5-0.3,0.6-0.9,0.2-1.4C237.9,120.8,235,116.7,230.6,116.1
		z"/>
</g>
<g>
	<g>
		<path class="st12" d="M251.6,225c-2.3,0-4.1-1.9-4.1-4.1s1.9-4.1,4.1-4.1s4.1,1.9,4.1,4.1S253.9,225,251.6,225z M251.6,218.8
			c-1.2,0-2.1,1-2.1,2.1c0,1.2,1,2.1,2.1,2.1c1.2,0,2.1-1,2.1-2.1C253.8,219.7,252.8,218.8,251.6,218.8z"/>
	</g>
	<g>
		
			<ellipse transform="matrix(0.7845 -0.6201 0.6201 0.7845 -24.2597 184.1891)" class="st12" cx="252.9" cy="127" rx="1.9" ry="1.8"/>
	</g>
	<g>
		
			<ellipse transform="matrix(0.7845 -0.6201 0.6201 0.7845 -29.1964 171.2171)" class="st12" cx="231.8" cy="127.6" rx="1.9" ry="1.8"/>
	</g>
	<g>
		<path class="st12" d="M280.7,165.4c0,0-11.3,22.3-35.7,17.5c-0.9-0.2-1.7-0.4-2.6-0.8c0,0-0.7,10.1,10.8,11
			C264.7,193.9,275.5,182.4,280.7,165.4z"/>
	</g>
	<g>
		<path class="st12" d="M290.9,148.4c-1.2,0-2.5-0.2-3.9-0.6c-0.5-0.2-0.8-0.7-0.7-1.2c0.2-0.5,0.7-0.8,1.2-0.7
			c5,1.5,8.7-0.5,10.5-2.9c1.8-2.3,2-5.3,0.6-7.5c-0.6-1-1.4-1.5-2.5-1.7c-3.7-0.6-8.7,3.5-8.8,3.6c-0.4,0.4-1.1,0.3-1.4-0.1
			c-0.3-0.4-0.3-1.1,0.1-1.4c0.2-0.2,5.8-4.7,10.4-4c1.6,0.3,2.9,1.1,3.9,2.6c1.8,2.9,1.6,6.7-0.7,9.8
			C297.9,146.4,294.9,148.4,290.9,148.4z"/>
	</g>
	<g>
		<path class="st12" d="M282.6,106c-0.4,0-0.8-0.2-0.9-0.6c-1.3-3.3-5.6-8-7.4-9.9c-2.4,2.5-10.4,9.1-24.4,5.5
			c-16.9-4.3-16.4-23.1-16.4-23.3c0-0.6,0.5-1,1-1c0.6,0,1,0.5,1,1c0,0-0.1,4.5,1.7,9.3c2.4,6.4,6.8,10.4,13.2,12
			c15.5,4,23.1-5.5,23.1-5.6l0.7-0.9l0.8,0.8c0.3,0.3,6.8,6.9,8.6,11.3c0.2,0.5-0.1,1.1-0.6,1.3C282.8,106,282.7,106,282.6,106z"/>
	</g>
	<g>
		<path class="st12" d="M290.7,134.5c0,0-0.1,0-0.1,0c-0.4,0-8.9-1-11.4-12.5c-2.4-11.2,5-20.8,5.4-21.2c0.3-0.4,1-0.5,1.4-0.2
			c0.4,0.3,0.5,1,0.2,1.4c-0.1,0.1-7.2,9.3-5,19.5c2.2,10,9.5,10.9,9.6,10.9c0.5,0.1,0.9,0.5,0.9,1.1
			C291.7,134.1,291.2,134.5,290.7,134.5z"/>
	</g>
	<g>
		<path class="st12" d="M228.2,215.5c-0.1,0-0.1,0-0.2,0c-0.5-0.1-0.9-0.6-0.8-1.2c2.6-14.1,8-23.1,10.3-26.9c0.2-0.4,0.4-0.7,0.6-1
			c0.3-0.5,0.8-0.7,1.3-0.6c0.5,0.1,0.9,0.6,0.9,1.1c0.1,2.9,0.9,17.3,9.6,18.3c16.4,1.9,38.7-17.7,45.1-31.4
			c0.2-0.5,0.8-0.7,1.3-0.5c0.5,0.2,0.7,0.8,0.5,1.3c-3.4,7.3-10.8,15.8-19.4,22.3c-9.9,7.5-19.8,11.2-27.8,10.3
			c-2.4-0.3-10-2.4-11.2-17.6c-2.5,4.3-7,12.6-9.3,25C229.1,215.2,228.7,215.5,228.2,215.5z M239.9,187.4
			C239.9,187.5,239.9,187.5,239.9,187.4C239.9,187.5,239.9,187.5,239.9,187.4z"/>
	</g>
	<g>
		<path class="st12" d="M239.9,188.5c-0.2,0-0.5-0.1-0.7-0.3c-0.4-0.4-0.4-1-0.1-1.4c1.4-1.6,3.4-5,3.4-5c0.3-0.5,0.9-0.6,1.4-0.4
			c0.5,0.3,0.6,0.9,0.4,1.4c-0.1,0.1-2.1,3.6-3.6,5.3C240.4,188.4,240.2,188.5,239.9,188.5z"/>
	</g>
	<g>
		<path class="st12" d="M231.6,220.8c-0.3,0-0.5-0.1-0.7-0.3c-0.4-0.4-0.4-1,0-1.4c14.8-15.1,15.1-15,15.9-14.8
			c0.5,0.2,0.8,0.7,0.6,1.3c-0.1,0.3-0.3,0.5-0.6,0.6c-1.2,0.9-9.5,9.2-14.5,14.3C232.1,220.7,231.8,220.8,231.6,220.8z
			 M246.1,206.3L246.1,206.3C246.1,206.3,246.1,206.3,246.1,206.3z"/>
	</g>
	<g>
		<path class="st12" d="M263.1,230.7L250.5,207c-0.3-0.5-0.1-1.1,0.4-1.4c0.5-0.3,1.1-0.1,1.4,0.4l11.7,21.9
			c4.2-2.5,22.8-14.7,36.8-39.4l-5.2-13.6c-0.2-0.5,0.1-1.1,0.6-1.3c0.5-0.2,1.1,0.1,1.3,0.6l5.5,14.4l-0.2,0.4
			c-16.1,28.7-38.5,40.9-38.7,41.1L263.1,230.7z"/>
	</g>
	<g>
		<path class="st12" d="M323.7,167.1c-0.2,0-0.3,0-0.5-0.1c-0.5-0.3-0.6-0.9-0.4-1.4c9.3-15.9-2.3-28.1-2.8-28.6
			c-0.4-0.4-0.4-1,0-1.4c0.4-0.4,1-0.4,1.4,0c0.1,0.1,13.2,13.8,3.1,31C324.4,167,324.1,167.1,323.7,167.1z"/>
	</g>
	<g>
		<path class="st12" d="M312.3,144.8c-0.3,0-0.6-0.2-0.8-0.5c-0.3-0.5-0.2-1.1,0.3-1.4c0.2-0.1,15.5-10.3,15.5-29.2
			c0-19-12-28.9-12.1-29c-0.4-0.3-0.5-1-0.1-1.4c0.3-0.4,1-0.5,1.4-0.1c0.5,0.4,12.9,10.6,12.9,30.6c0,20-16.2,30.8-16.4,30.9
			C312.7,144.8,312.5,144.8,312.3,144.8z"/>
	</g>
	<g>
		<path class="st12" d="M314.7,93.5C314.7,93.5,314.7,93.5,314.7,93.5c-0.6,0-1-0.4-1-1c0-0.1,0-0.3,0.1-0.7c1-9.9,1-34.8-21.7-52.2
			c-0.4-0.3-0.5-1-0.2-1.4c0.3-0.4,1-0.5,1.4-0.2c23.5,18,23.6,43.8,22.5,54c0,0.3,0,0.4-0.1,0.5C315.7,93.1,315.2,93.5,314.7,93.5z
			"/>
	</g>
	<g>
		<path class="st12" d="M230.7,99.4c-2.9,0-5.6-0.7-7.8-2.3c-4.8-3.2-6.9-9.4-6-17.5c0.8-7.1,5.2-13.6,12.7-18.7
			c5.6-3.8,10.9-5.5,11.1-5.5c0.5-0.2,1.1,0.1,1.3,0.7c0.2,0.5-0.1,1.1-0.7,1.3c-0.2,0.1-20.7,6.7-22.4,22.5
			c-0.8,7.3,1,12.8,5.2,15.6c4.1,2.8,10,2.5,16-0.6c0.5-0.3,1.1-0.1,1.4,0.4c0.3,0.5,0.1,1.1-0.4,1.4
			C237.5,98.4,234,99.4,230.7,99.4z"/>
	</g>
	<g>
		<path class="st12" d="M219.2,110.3c-0.1,0-0.3,0-0.4-0.1c-0.4-0.2-9-4.6-10.9-16.1c-2-11.8,9.5-16.5,9.7-16.5
			c0.5-0.2,1.1,0.1,1.3,0.6c0.2,0.5-0.1,1.1-0.6,1.3c-0.4,0.2-10.1,4.1-8.4,14.3c1.8,10.5,9.7,14.6,9.8,14.7
			c0.5,0.2,0.7,0.8,0.4,1.3C220,110.1,219.6,110.3,219.2,110.3z"/>
	</g>
	<g>
		<path class="st12" d="M264.6,88.8c-4.3,0-9.4-2.7-10.7-8.8c-1.1-5.2,2.9-11.1,8.9-13c5.6-1.8,13.2,0,17.7,10.5
			c0.2,0.5,0,1.1-0.5,1.3c-0.5,0.2-1.1,0-1.3-0.5c-3.4-7.8-9.1-11.4-15.3-9.4c-5.1,1.6-8.5,6.4-7.6,10.7c1.1,5.1,5.3,7.3,8.9,7.2
			c2.3-0.1,5.1-1.1,5.6-4c0.3-1.9,0-3.2-0.8-4c-1.1-1.2-3.2-1-3.2-1c-0.5,0.1-1-0.3-1.1-0.9c-0.1-0.5,0.3-1,0.9-1.1
			c0.1,0,3-0.4,4.9,1.5c1.3,1.3,1.7,3.2,1.3,5.7c-0.5,3.3-3.5,5.6-7.5,5.7C264.8,88.8,264.7,88.8,264.6,88.8z"/>
	</g>
	<g>
		<path class="st12" d="M287.8,90.3c-0.5,0-1-0.4-1-1c0-0.2-0.7-18.2-12.3-18.4c-0.6,0-1-0.5-1-1c0-0.6,0.5-1,1-1
			c5.7,0.1,9.9,3.7,12.4,10.5c1.8,4.9,1.9,9.7,1.9,9.9C288.8,89.9,288.4,90.3,287.8,90.3C287.8,90.3,287.8,90.3,287.8,90.3z"/>
	</g>
	<g>
		<path class="st12" d="M230.9,287.3c-0.4,0-0.7-0.2-0.9-0.6l-11.9-25c-0.2-0.5,0-1.1,0.5-1.3c0.5-0.2,1.1,0,1.3,0.5l11.9,25
			c0.2,0.5,0,1.1-0.5,1.3C231.1,287.3,231,287.3,230.9,287.3z"/>
	</g>
	<g>
		<path class="st12" d="M293.1,390.6c-8.6,0-16.2-4.8-19.9-12.7c-0.2-0.5,0-1.1,0.5-1.3c0.5-0.2,1.1,0,1.3,0.5
			c3.5,7.5,10.8,11.9,19.1,11.5c8.2-0.4,15.1-5.4,18-13.2c5.1-13.8,9.6-26.3,13.5-37.2c0.2-0.5,0.8-0.8,1.3-0.6
			c0.5,0.2,0.8,0.8,0.6,1.3c-3.9,10.9-8.4,23.5-13.5,37.3c-3.1,8.5-10.7,14.1-19.7,14.5C293.8,390.6,293.5,390.6,293.1,390.6z"/>
	</g>
	<g>
		<path class="st12" d="M292.1,322.1c-0.3,0-0.6-0.2-0.8-0.4l-52.7-79.1l0-0.1c-0.1-0.2-6.6-18.4-13.9-31.1
			c-0.5-0.8-1.1-1.6-1.8-2.1c-3.7-3-8.5-5.8-16.4-4.1c-0.5,0.1-1.1-0.2-1.2-0.8c-0.1-0.5,0.2-1.1,0.8-1.2c10-2.1,15.6,2.6,18.1,4.5
			c0.9,0.7,1.7,1.7,2.3,2.7c7.1,12.3,13.4,29.7,14,31.3l52.6,78.8c0.3,0.5,0.2,1.1-0.3,1.4C292.5,322.1,292.3,322.1,292.1,322.1z"/>
	</g>
	<g>
		<path class="st12" d="M288.4,316c-0.1,0-0.1,0-0.2,0c-0.5-0.1-0.9-0.6-0.8-1.2l10.1-48.1c0.1-0.5,0.6-0.9,1.2-0.8
			c0.5,0.1,0.9,0.6,0.8,1.2l-10.1,48.1C289.2,315.7,288.8,316,288.4,316z"/>
	</g>
	<g>
		<path class="st12" d="M303.8,240.3c-0.1,0-0.2,0-0.3,0c-0.5-0.2-0.8-0.7-0.6-1.3c4-12.1,10.5-17.5,15.3-19.8
			c5.2-2.6,9.5-2.2,9.7-2.2c0.5,0.1,1,0.5,0.9,1.1c-0.1,0.5-0.5,0.9-1.1,0.9c-0.7-0.1-15.8-1.2-22.9,20.6
			C304.6,240,304.2,240.3,303.8,240.3z"/>
	</g>
	<g>
		<path class="st12" d="M164.9,363.5c-2.6,0-5.2-0.6-7.8-1.7c-6.4-2.9-10.6-8.8-11.1-15.9c0-0.6,0.4-1,0.9-1.1c0.6,0,1,0.4,1.1,0.9
			c0.4,6.3,4.1,11.6,9.9,14.2c5.8,2.6,12.2,1.8,17.2-2l28.7-22.1c0.4-0.3,1.1-0.3,1.4,0.2c0.3,0.4,0.3,1.1-0.2,1.4l-28.7,22.1
			C172.9,362.1,168.9,363.5,164.9,363.5z"/>
	</g>
	<g>
		<path class="st12" d="M141.8,270.5c-0.5,0-1-0.4-1-0.9l-2.3-32.9c0-0.6,0.4-1,0.9-1.1c0.6,0,1,0.4,1.1,0.9l2.3,32.9
			C142.8,270,142.4,270.5,141.8,270.5C141.8,270.5,141.8,270.5,141.8,270.5z"/>
	</g>
	<g>
		<path class="st12" d="M183.1,313.4c-0.5,0-0.9-0.3-1-0.8l-18.4-81.2l0-0.1c0-0.5,0.1-11.1-8.7-12.5c-0.5-0.1-0.9-0.6-0.8-1.1
			c0.1-0.5,0.6-0.9,1.1-0.8c10,1.6,10.4,13.1,10.4,14.4l18.3,81c0.1,0.5-0.2,1.1-0.8,1.2C183.2,313.3,183.2,313.4,183.1,313.4z"/>
	</g>
	<g>
		<path class="st12" d="M207.5,224.8C207.5,224.8,207.5,224.8,207.5,224.8l-25-0.2c-2.6,0-4.7-2.1-4.8-4.7c-0.1-2.5,1.7-4.6,4.1-5
			c14.4-2.2,24-3.9,25.7-4.5c2.8-0.9,4.5-3.3,4.5-3.3c0.3-0.4,0.9-0.6,1.4-0.2c0.5,0.3,0.6,0.9,0.2,1.4c-0.1,0.1-2.1,2.9-5.6,4.1
			c-2.5,0.8-17.3,3.2-26,4.6c-1.4,0.2-2.5,1.5-2.4,3c0.1,1.5,1.3,2.8,2.9,2.8l25,0.2c0.6,0,1,0.5,1,1
			C208.5,224.4,208.1,224.8,207.5,224.8z"/>
	</g>
	<g>
		<path class="st12" d="M201.8,236c-1.3,0-3.8-0.3-6.3-2.4c-3.6-3-2-10-1.9-10.3c0.1-0.5,0.7-0.9,1.2-0.7c0.5,0.1,0.9,0.7,0.7,1.2
			c-0.4,1.7-1,6.5,1.3,8.3c2.8,2.3,5.5,1.9,5.6,1.9c0.5-0.1,1.1,0.3,1.1,0.8c0.1,0.5-0.3,1.1-0.8,1.1C202.6,236,202.3,236,201.8,236
			z"/>
	</g>
	<g>
		<path class="st12" d="M205.2,246.1C205.1,246.1,205.1,246.1,205.2,246.1c-0.3,0-5-0.3-7.7-3.7c-1.6-2.1-2.2-4.8-1.5-8.1
			c0.1-0.5,0.6-0.9,1.2-0.8c0.5,0.1,0.9,0.6,0.8,1.2c-0.5,2.7-0.1,4.9,1.1,6.5c2.1,2.7,6.1,3,6.2,3c0.6,0,1,0.5,0.9,1.1
			C206.1,245.7,205.7,246.1,205.2,246.1z"/>
	</g>
	<g>
		<path class="st12" d="M223,263.6c-0.1,0-0.3,0-0.4-0.1c-0.1-0.1-12-5.8-17.2-7.7c-5-1.7-6.7-5.5-5.2-11.3c0.1-0.5,0.7-0.8,1.2-0.7
			c0.5,0.1,0.8,0.7,0.7,1.2c-1.3,4.8-0.1,7.5,3.9,8.9c5.3,1.9,16.9,7.5,17.4,7.8c0.5,0.2,0.7,0.8,0.5,1.3
			C223.7,263.4,223.3,263.6,223,263.6z"/>
	</g>
	<g>
		<path class="st12" d="M139.8,240.3c-0.1,0-0.2,0-0.3-0.1c-0.3-0.1-32-11.7-37.8-14.1c-5.1-2.1-8.3-4.2-7.5-7.8
			c0.1-0.5,0.7-0.9,1.2-0.8c0.5,0.1,0.9,0.7,0.8,1.2c-0.3,1.3-0.1,2.9,6.3,5.5c5.8,2.4,37.4,14,37.7,14.1c0.5,0.2,0.8,0.8,0.6,1.3
			C140.6,240,140.2,240.3,139.8,240.3z"/>
	</g>
	<g>
		<path class="st12" d="M120.2,219.5c-42,0-86.7-5-86.7-14.1c0-0.6,0.4-1,1-1s1,0.4,1,1c0,2.1,6.4,5.6,24.3,8.3
			c16.1,2.5,37.6,3.8,60.5,3.8s44.3-1.4,60.5-3.8c17.9-2.7,24.3-6.2,24.3-8.3c0-0.6,0.4-1,1-1s1,0.4,1,1
			C207,214.6,162.3,219.5,120.2,219.5z"/>
	</g>
	<g>
		<path class="st12" d="M106.1,208.7v-10.1l61-18.4l0.3,21.4L106.1,208.7z M108.1,200.1v6.4l57.3-6.7l-0.2-16.9L108.1,200.1z"/>
	</g>
	<g>
		<path class="st12" d="M97.8,196.2c-0.4,0-0.7-0.2-0.9-0.5c-0.3-0.5-0.1-1.1,0.4-1.3l31-15.8l38,1.6c0.6,0,1,0.5,1,1
			c0,0.6-0.5,1-1,1l-37.5-1.5l-30.6,15.6C98.1,196.1,98,196.2,97.8,196.2z"/>
	</g>
	<g>
		<path class="st12" d="M106.7,208.7c-0.1,0-0.3,0-0.4-0.1l-9.7-4.3l0.4-9.7l10.4,3.9c0.5,0.2,0.8,0.8,0.6,1.3
			c-0.2,0.5-0.8,0.8-1.3,0.6l-7.9-3l-0.2,5.6l8.5,3.8c0.5,0.2,0.7,0.8,0.5,1.3C107.4,208.5,107.1,208.7,106.7,208.7z"/>
	</g>
	<g>
		<path class="st12" d="M117.4,214c-36.9,0-66.1-4.7-67.9-8.4c-0.4-0.8-0.4-1.6,0-2.4c1.1-2.3,5.4-3.3,6.2-3.5
			c0.5-0.1,1.1,0.2,1.2,0.8c0.1,0.5-0.2,1.1-0.8,1.2c-1.7,0.4-4.4,1.4-4.9,2.4c-0.1,0.1-0.1,0.3,0,0.6c2.7,3.5,56.5,11.6,115.2,4.3
			c0.5-0.1,1,0.3,1.1,0.9c0.1,0.5-0.3,1-0.9,1.1C149.9,213.2,133,214,117.4,214z"/>
	</g>
	<g>
		<path class="st12" d="M150.1,199.3c-2.3,0-4.2-1.9-4.2-4.2s1.9-4.2,4.2-4.2s4.2,1.9,4.2,4.2S152.4,199.3,150.1,199.3z
			 M150.1,192.8c-1.2,0-2.2,1-2.2,2.2s1,2.2,2.2,2.2s2.2-1,2.2-2.2S151.3,192.8,150.1,192.8z"/>
	</g>
	<g>
		<path class="st12" d="M134.3,200.6c-1.5,0-2.7-1.2-2.7-2.7s1.2-2.7,2.7-2.7s2.7,1.2,2.7,2.7S135.7,200.6,134.3,200.6z
			 M134.3,197.2c-0.4,0-0.7,0.3-0.7,0.7s0.3,0.7,0.7,0.7s0.7-0.3,0.7-0.7S134.6,197.2,134.3,197.2z"/>
	</g>
	<g>
		<path class="st12" d="M255.8,368.6c-19.2,0-36.6-6.1-36.8-6.2c-0.5-0.2-0.8-0.8-0.6-1.3s0.8-0.8,1.3-0.6
			c0.3,0.1,25.5,8.9,48.4,5.1c0.5-0.1,1.1,0.3,1.2,0.8c0.1,0.5-0.3,1.1-0.8,1.2C264.3,368.3,260,368.6,255.8,368.6z"/>
	</g>
	<g>
		<path class="st12" d="M208.2,343.4c-0.3,0-0.7-0.2-0.9-0.5c-13.5-23.3-22.9-41.1-20-56.7c2.3-12.1,12.4-34.1,12.9-35
			c0.2-0.5,0.8-0.7,1.3-0.5c0.5,0.2,0.7,0.8,0.5,1.3c-0.1,0.2-10.5,22.7-12.7,34.6c-2.5,13.6,4.7,29.3,19.7,55.3
			c0.3,0.5,0.1,1.1-0.4,1.4C208.5,343.4,208.4,343.4,208.2,343.4z"/>
	</g>
	<g>
		<path class="st12" d="M231.3,345.2c-0.4,0-0.8-0.3-1-0.7c-0.4-1.4-10.5-34-11.9-45.8c-1.4-12,4.6-25,4.8-25.5
			c0.2-0.5,0.8-0.7,1.3-0.5c0.5,0.2,0.7,0.8,0.5,1.3c-0.1,0.1-5.9,13.1-4.6,24.5c1.3,11.6,11.7,45.1,11.8,45.4
			c0.2,0.5-0.1,1.1-0.7,1.3C231.5,345.2,231.4,345.2,231.3,345.2z"/>
	</g>
	<g>
		<path class="st12" d="M239.4,243.2c-0.1,0-0.2,0-0.2,0c-0.5-0.1-0.9-0.7-0.7-1.2l6.4-25.7c0.1-0.5,0.7-0.9,1.2-0.7
			c0.5,0.1,0.9,0.7,0.7,1.2l-6.4,25.7C240.3,242.9,239.9,243.2,239.4,243.2z"/>
	</g>
	<g>
		<path class="st12" d="M283,271.9c-0.1,0-0.2,0-0.2,0l-22.3-5.7c-0.5-0.1-0.9-0.7-0.7-1.2c0.1-0.5,0.7-0.9,1.2-0.7l22.3,5.7
			c0.5,0.1,0.9,0.7,0.7,1.2C283.8,271.6,283.4,271.9,283,271.9z"/>
	</g>
	<g>
		<path class="st12" d="M251.6,329c-0.2,0-0.4-0.1-0.6-0.2c-0.4-0.3-0.5-1-0.2-1.4l24.3-30.4c0.3-0.4,1-0.5,1.4-0.2
			c0.4,0.3,0.5,1,0.2,1.4l-24.3,30.4C252.1,328.8,251.9,329,251.6,329z"/>
	</g>
	<g>
		<path class="st12" d="M145.1,306.7c-0.4,0-0.7-0.2-0.9-0.6c-0.2-0.5,0-1.1,0.5-1.3l32.4-15.2c0.5-0.2,1.1,0,1.3,0.5
			c0.2,0.5,0,1.1-0.5,1.3l-32.4,15.2C145.4,306.6,145.3,306.7,145.1,306.7z"/>
	</g>
	<g>
		<path class="st12" d="M265.3,600.5c-19.2,0-35.6-1.1-48.6-2.4c-32.7-3.3-51.6-9-51.8-9.1c-0.5-0.2-0.8-0.7-0.7-1.2
			s0.7-0.8,1.2-0.7c0.2,0.1,19,5.7,51.5,9c29.9,3,77.7,4.6,136.3-4.8c0.5-4.7,3.3-31.4,0.9-69.8c-2.3-38.9-10.5-98.1-36-159.2
			c-0.2-0.5,0-1.1,0.5-1.3c0.5-0.2,1.1,0,1.3,0.5c25.6,61.3,33.8,120.8,36.1,159.9c2.6,42.4-1,70.6-1,70.9l-0.1,0.7l-0.7,0.1
			C320.7,598.7,290.5,600.5,265.3,600.5z"/>
	</g>
	<g>
		<path class="st12" d="M255,497.1c-22,0-40.1-2-52.9-4c-19.7-3.1-31.1-7-31.2-7.1c-0.5-0.2-0.8-0.7-0.6-1.3
			c0.2-0.5,0.7-0.8,1.3-0.6c0.1,0,11.4,3.9,30.9,7c17.9,2.8,46.5,5.6,81.7,2.8c0.3-2.8,1.2-12.7,1-28.5c-0.2-17.2-1.7-45.1-7.8-80.1
			c-0.1-0.5,0.3-1.1,0.8-1.2c0.6-0.1,1.1,0.3,1.2,0.8c6.1,35.2,7.6,63.2,7.8,80.5c0.2,18.8-1.1,29.4-1.1,29.5l-0.1,0.8l-0.8,0.1
			C274.5,496.7,264.4,497.1,255,497.1z"/>
	</g>
	<g>
		<path class="st12" d="M215.6,860.6c-0.2,0-0.3,0-0.5-0.1c-3.4-1.9-5.3-4.3-6-7.1c-1.5-6.2,3.6-13.9,9.5-22.7c1.9-2.9,4-6,5.9-9.1
			c2-3.3,3.9-6.2,5.8-9c7.6-11.5,12.7-19.1,9-34c-0.1-0.5,0.2-1.1,0.7-1.2c0.5-0.1,1.1,0.2,1.2,0.7c3.8,15.8-1.7,24.1-9.3,35.6
			c-1.8,2.8-3.8,5.7-5.7,8.9c-2,3.2-4,6.3-5.9,9.2c-5.6,8.5-10.5,15.8-9.2,21.2c0.5,2.3,2.2,4.2,5,5.9c0.5,0.3,0.6,0.9,0.4,1.4
			C216.2,860.4,215.9,860.6,215.6,860.6z"/>
	</g>
	<g>
		<path class="st12" d="M277.4,772c-0.4,0-0.8-0.3-0.9-0.7c-1.9-5.4-45.9-132.6-48.4-142.8c-2.6-10.4,1.4-29,1.5-29.8
			c0.1-0.5,0.6-0.9,1.2-0.8c0.5,0.1,0.9,0.6,0.8,1.2c0,0.2-4,19-1.6,28.9c2.5,10.1,47.9,141.3,48.4,142.6c0.2,0.5-0.1,1.1-0.6,1.3
			C277.6,772,277.5,772,277.4,772z"/>
	</g>
	<g>
		<path class="st12" d="M226.2,869.9c-3.5,0-6.1-0.7-7.8-2.4c-0.4-0.4-0.4-1,0-1.4s1-0.4,1.4,0c6.8,6.8,41.8-6.2,65.6-27.3
			c9.3-8.3,17.1-16.6,23.2-24.9c4.5-6.1,6.7-13.7,6.1-21.3c-0.5-5.9-1.3-13.9-2.3-18.7l0-0.2l0-0.2c0.1-0.6,7.3-57.2,12.4-103
			c0.4-3.9,0.8-7.7,1.2-11.2c4.1-37.9,5.9-53.5,15.5-65.1c0.4-0.4,1-0.5,1.4-0.1c0.4,0.4,0.5,1,0.1,1.4c-9.2,11.1-10.9,26.6-15,64
			c-0.4,3.5-0.8,7.3-1.2,11.2c-5,44.6-11.9,99.4-12.3,102.9c1.1,5,1.9,13,2.3,18.8c0.7,8.1-1.6,16.2-6.5,22.7
			c-6.2,8.4-14.1,16.9-23.5,25.2C267.8,857.2,240.5,869.9,226.2,869.9z"/>
	</g>
	<g>
		<path class="st12" d="M273.9,780.9c-0.2,0-0.4-0.1-0.6-0.2c-0.4-0.3-0.5-1-0.2-1.4c3.8-5,5.7-11.1,5.4-17.3c0-0.6,0.4-1,1-1
			c0.5,0,1,0.4,1,1c0.3,6.7-1.8,13.3-5.8,18.6C274.5,780.8,274.2,780.9,273.9,780.9z"/>
	</g>
	<g>
		<path class="st12" d="M250,834c-3.5,0-6.5-0.8-8.5-2.7c-1.8-1.6-4-5.5,1.1-13c0.3-0.5,0.9-0.6,1.4-0.3c0.5,0.3,0.6,0.9,0.3,1.4
			c-3.1,4.6-3.6,8.3-1.4,10.4c4.6,4.3,21.3,2.3,38-10.7c23.2-18.1,31.5-45.6,31.6-45.9c0.2-0.5,0.7-0.8,1.2-0.7
			c0.5,0.2,0.8,0.7,0.7,1.2c-0.1,0.3-8.6,28.3-32.3,46.9C272.4,828.3,259.3,834,250,834z"/>
	</g>
	<g>
		<path class="st12" d="M238.7,824c-2.5,0-4.4-0.8-5.7-2.4c-3.1-3.7-1.4-10.4-1.4-10.7c0.1-0.5,0.7-0.9,1.2-0.7
			c0.5,0.1,0.9,0.7,0.7,1.2c0,0.1-1.5,6,1,9c1,1.2,2.5,1.8,4.7,1.6c0.6,0,1,0.4,1.1,0.9c0,0.6-0.4,1-0.9,1.1
			C239.1,824,238.9,824,238.7,824z"/>
	</g>
	<g>
		<path class="st12" d="M243.3,150.2c-3.6,0-6.5-1.7-6.6-1.8l-0.5-0.3v-0.6c0-9.2,3.7-14.8,3.8-15c0.3-0.5,0.9-0.6,1.4-0.3
			c0.5,0.3,0.6,0.9,0.3,1.4c-0.1,0.1-3.3,5.1-3.5,13.3c1.2,0.6,4.4,1.9,7.7,0.9c0.5-0.2,1.1,0.1,1.3,0.7s-0.1,1.1-0.7,1.3
			C245.5,150.1,244.4,150.2,243.3,150.2z"/>
	</g>
	<g>
		<path class="st12" d="M248.1,169.2c-0.7,0-1.3-0.2-1.9-0.6c-1.5-1-2.2-2.9-2.5-4.1c-2.6,0.7-4.4,0.3-4.5,0.3
			c-0.5-0.1-0.9-0.7-0.7-1.2c0.1-0.5,0.7-0.9,1.2-0.7c0.2,0.1,5.9,1.2,11.6-6.5l1.7-2.3l0.1,2.9c0.1,1.8,0.1,11.1-3.9,12.1
			C248.8,169.2,248.5,169.2,248.1,169.2z M245.7,163.9c0.2,0.9,0.7,2.5,1.7,3.1c0.4,0.2,0.8,0.3,1.3,0.2c1.4-0.4,2.2-4,2.4-7.3
			C249.1,161.9,247.3,163.1,245.7,163.9z"/>
	</g>
	<g>
		<path class="st12" d="M256.5,138c-4,0-6.6-1.3-8.2-2.7c-2.6-2.1-3.7-5.1-3.7-7.2c0-2,0.8-3.8,2.3-5.1c2.3-2.1,6.3-3,11.9-2.5
			c15.4,1.2,20.7-1.2,20.8-1.2l2.5-1.2l-1.1,2.5c-0.6,1.4-6.6,13.9-19.8,16.8C259.5,137.8,257.9,138,256.5,138z M256.1,122.4
			c-3.6,0-6.4,0.7-7.9,2.1c-1,0.9-1.6,2.2-1.6,3.7c0,1.5,0.9,3.9,2.9,5.6c1.8,1.5,5.3,3,11.2,1.7c9.6-2.1,15.1-9.8,17.3-13.6
			c-3,0.7-8.9,1.5-19.4,0.7C257.8,122.4,256.9,122.4,256.1,122.4z"/>
	</g>
	<g>
		<path class="st12" d="M228.5,138c-1.2,0-2.6-0.2-4.1-0.6c-11.5-3-16.6-15.4-17.2-16.9l-1-2.6l2.4,1.4c0.1,0.1,4.7,2.4,17.9,1.2
			c4.6-0.4,8,0.3,10.1,2.2c1.5,1.3,2.3,3.2,2.3,5.4c0,2.2-1.1,5.6-3.8,7.7C233.8,136.9,231.6,138,228.5,138z M210,121.9
			c1.9,3.8,6.6,11.5,14.9,13.6c3.7,1,6.7,0.5,9-1.2c2.3-1.8,3.1-4.6,3.1-6.1c0-1.7-0.6-3-1.7-4c-1.7-1.5-4.6-2.1-8.6-1.7
			C217.9,123.3,212.7,122.6,210,121.9z"/>
	</g>
	<g>
		<path class="st12" d="M245.2,129.2c-0.1,0-0.3,0-0.4-0.1c-2.8-1.2-6.2-0.2-6.2-0.2c-0.5,0.1-1.1-0.2-1.2-0.7
			c-0.2-0.5,0.2-1.1,0.7-1.2c0.2,0,4.1-1.2,7.5,0.3c0.5,0.2,0.7,0.8,0.5,1.3C246,129,245.6,129.2,245.2,129.2z"/>
	</g>
	<g>
		<path class="st12" d="M265.1,121.2c-0.2,0-0.5-0.1-0.7-0.3c-7.5-6.9-14.1-0.6-14.4-0.3c-0.4,0.4-1,0.4-1.4,0c-0.4-0.4-0.4-1,0-1.4
			c0.1-0.1,8.3-7.9,17.1,0.3c0.4,0.4,0.4,1,0.1,1.4C265.7,121.1,265.4,121.2,265.1,121.2z"/>
	</g>
	<g>
		<path class="st12" d="M237.2,122.5c-0.3,0-0.6-0.1-0.8-0.4c0,0-2.5-3.5-6.1-4.1c-1.9-0.3-3.8,0.3-5.7,1.8
			c-0.4,0.3-1.1,0.3-1.4-0.2s-0.3-1.1,0.2-1.4c2.3-1.8,4.8-2.6,7.3-2.2c4.5,0.7,7.3,4.7,7.4,4.9c0.3,0.5,0.2,1.1-0.2,1.4
			C237.6,122.5,237.4,122.5,237.2,122.5z"/>
	</g>
</g>
</svg>
