<svg width="21" height="21" viewBox="0 0 21 21" fill="none" xmlns="http://www.w3.org/2000/svg">
<path d="M10.6665 1.81818C13.4034 1.81818 13.7191 1.8355 14.8069 1.87013C15.8069 1.92208 16.3507 2.07792 16.7016 2.21645C17.1753 2.40693 17.5262 2.61472 17.877 2.97836C18.2279 3.32468 18.456 3.671 18.649 4.13853C18.7893 4.50217 18.9648 5.03896 18.9998 6.00866C19.0525 7.08225 19.0525 7.39394 19.0525 10.0952C19.0525 12.7965 19.0349 13.1082 18.9998 14.1818C18.9472 15.1688 18.7893 15.7056 18.649 16.0519C18.456 16.5195 18.2455 16.8658 17.877 17.2121C17.5262 17.5584 17.1753 17.7836 16.7016 17.974C16.3332 18.1126 15.7893 18.2857 14.8069 18.3203C13.7191 18.3723 13.4034 18.3723 10.6665 18.3723C7.92967 18.3723 7.61388 18.355 6.52617 18.3203C5.52617 18.2684 4.9823 18.1126 4.63142 17.974C4.15774 17.7836 3.80687 17.5758 3.45599 17.2121C3.10511 16.8658 2.87704 16.5195 2.68406 16.0519C2.5437 15.6883 2.36827 15.1515 2.33318 14.1818C2.28055 13.1082 2.28055 12.7965 2.28055 10.0952C2.28055 7.39394 2.29809 7.08225 2.33318 6.00866C2.38581 5.02165 2.5437 4.48485 2.68406 4.13853C2.87704 3.671 3.08757 3.32468 3.45599 2.97836C3.80687 2.63204 4.15774 2.40693 4.63142 2.21645C4.99985 2.07792 5.54371 1.90476 6.52617 1.87013C7.61388 1.81818 7.92967 1.81818 10.6665 1.81818ZM10.6665 0C7.87704 0 7.52617 0.0173202 6.43845 0.0692683C5.35073 0.121216 4.59634 0.294373 3.94722 0.536798C3.28055 0.796538 2.7016 1.14286 2.1402 1.69697C1.57879 2.25109 1.22792 2.82251 0.964759 3.48052C0.719145 4.12121 0.543707 4.8658 0.491075 5.9394C0.438444 7.01299 0.420898 7.35931 0.420898 10.1126C0.420898 12.8658 0.438444 13.2121 0.491075 14.2857C0.543707 15.3593 0.719145 16.1039 0.964759 16.7446C1.22792 17.4026 1.57879 17.974 2.1402 18.5281C2.7016 19.0822 3.28055 19.4286 3.94722 19.6883C4.59634 19.9307 5.35073 20.1039 6.43845 20.1558C7.52617 20.2078 7.87704 20.2251 10.6665 20.2251C13.456 20.2251 13.8069 20.2078 14.8946 20.1558C15.9823 20.1039 16.7367 19.9307 17.3858 19.6883C18.0525 19.4286 18.6314 19.0822 19.1928 18.5281C19.7542 17.974 20.1051 17.4026 20.3683 16.7446C20.6139 16.1039 20.7893 15.3593 20.8419 14.2857C20.8946 13.2121 20.9121 12.8658 20.9121 10.1126C20.9121 7.35931 20.8946 7.01299 20.8419 5.9394C20.7893 4.8658 20.6139 4.12121 20.3683 3.48052C20.1051 2.82251 19.7542 2.25109 19.1928 1.69697C18.6314 1.14286 18.0525 0.796538 17.3858 0.536798C16.7367 0.294373 15.9823 0.121216 14.8946 0.0692683C13.8069 4.22651e-06 13.456 0 10.6665 0Z" fill="white"/>
<path d="M10.6665 4.91797C7.7542 4.91797 5.40332 7.23831 5.40332 10.1128C5.40332 12.9872 7.7542 15.3076 10.6665 15.3076C13.5788 15.3076 15.9296 12.9872 15.9296 10.1128C15.9296 7.23831 13.5788 4.91797 10.6665 4.91797ZM10.6665 13.4894C8.77174 13.4894 7.24543 11.9829 7.24543 10.1128C7.24543 8.24264 8.77174 6.73615 10.6665 6.73615C12.5612 6.73615 14.0875 8.24264 14.0875 10.1128C14.0875 11.9829 12.5612 13.4894 10.6665 13.4894Z" fill="white"/>
<path d="M16.1402 5.92228C16.8184 5.92228 17.3683 5.3796 17.3683 4.71017C17.3683 4.04073 16.8184 3.49805 16.1402 3.49805C15.4619 3.49805 14.9121 4.04073 14.9121 4.71017C14.9121 5.3796 15.4619 5.92228 16.1402 5.92228Z" fill="white"/>
</svg>
