<svg width="82" height="83" viewBox="0 0 82 83" fill="none" xmlns="http://www.w3.org/2000/svg">
<path d="M31.0761 63.6934L58.0559 65.8468C65.1273 66.4164 71.0178 60.5258 70.4482 53.4544L68.2948 26.4886C67.7808 20.0841 62.1264 15.3327 55.7219 15.944L33.0628 18.0974C27.5752 18.6253 23.2128 22.9737 22.6988 28.4614L20.5454 51.1205C19.9342 57.525 24.6716 63.1794 31.0761 63.6934Z" fill="#70E3DE"/>
<path d="M54.5086 79.0495L54.5093 79.0496C64.0226 81.0518 73.0516 74.0683 73.5052 64.3572L73.5052 64.3565L75.3719 24.9814C75.3719 24.9813 75.3719 24.9812 75.3719 24.981C75.7851 16.1856 68.924 8.74573 60.1124 8.46454L60.112 8.46452L26.9629 7.39316C26.9626 7.39315 26.9623 7.39314 26.962 7.39313C19.4093 7.15824 12.7262 12.3134 11.0755 19.6793L11.0752 19.6806L3.77861 52.0357L3.77852 52.036C1.83515 60.6371 7.2934 69.1445 15.9088 70.9552L54.5086 79.0495Z" stroke="white" stroke-width="2"/>
<path d="M48.489 31.8886L39.489 40.8886L48.489 49.8886" stroke="#003634" stroke-width="2" stroke-linecap="round"/>
</svg>
