<?xml version="1.0" encoding="utf-8"?>
<!-- Generator: Adobe Illustrator 18.1.1, SVG Export Plug-In . SVG Version: 6.00 Build 0)  -->
<svg version="1.1" id="Capa_1" xmlns="http://www.w3.org/2000/svg" xmlns:xlink="http://www.w3.org/1999/xlink" x="0px" y="0px"
	 viewBox="-570 355 82 83" enable-background="new -570 355 82 83" xml:space="preserve">
<path fill="#FFFFFF" d="M-538.9,418.7l27,2.2c7.1,0.6,13-5.3,12.4-12.4l-2.2-27c-0.5-6.4-6.2-11.2-12.6-10.5l-22.7,2.2
	c-5.5,0.5-9.9,4.9-10.4,10.4l-2.2,22.7C-550.1,412.5-545.3,418.2-538.9,418.7z"/>
<path fill="none" stroke="#000000" d="M-538.9,418.7l27,2.2c7.1,0.6,13-5.3,12.4-12.4l-2.2-27c-0.5-6.4-6.2-11.2-12.6-10.5
	l-22.7,2.2c-5.5,0.5-9.9,4.9-10.4,10.4l-2.2,22.7C-550.1,412.5-545.3,418.2-538.9,418.7z"/>
<path fill="none" stroke="#FFFFFF" stroke-width="2" d="M-515.5,434L-515.5,434c9.5,2,18.5-5,19-14.7v0l1.9-39.4c0,0,0,0,0,0
	c0.4-8.8-6.4-16.2-15.3-16.5l0,0l-33.1-1.1c0,0,0,0,0,0c-7.6-0.2-14.2,4.9-15.9,12.3l0,0l-7.3,32.4l0,0c-1.9,8.6,3.5,17.1,12.1,18.9
	L-515.5,434z"/>
<path fill="none" stroke="#003634" stroke-width="2" stroke-linecap="round" d="M-521.5,386.9l-9,9l9,9"/>
</svg>
