<svg width="402" height="209" viewBox="0 0 402 209" fill="none" xmlns="http://www.w3.org/2000/svg">
<path d="M366.851 0.697178L25.2244 65.8276C8.17453 69.0634 -2.57895 82.803 2.09359 95.3479L17.8344 137.678C21.3803 147.22 32.9622 153.277 46.1017 152.464L358.765 133.099C373.512 132.186 385.872 122.943 387.579 111.577L400.818 23.497C403.055 8.44646 386.055 -2.97004 366.851 0.697178Z" fill="#FAEDDA"/>
<path d="M332.966 161.689C332.221 161.689 331.458 161.656 330.696 161.606L44.1132 139.122C31.7028 138.143 21.9932 129.265 20.4853 117.533L14.6695 72.5975C13.7582 65.4788 15.8956 58.2937 20.6842 52.3864C25.8704 45.9978 33.5585 41.9489 41.7935 41.2851L362.377 10.1885C367.016 9.82341 371.44 10.5038 375.516 12.2129C379.36 13.8391 382.757 16.3613 385.342 19.5307C390.462 25.8032 392.086 34.0171 389.782 42.065L361.598 140.565C358.069 152.928 346.006 161.689 332.966 161.689ZM362.526 11.8478L41.9261 42.9611C34.1385 43.5751 26.8645 47.4082 21.96 53.4483C17.4532 58.9907 15.4483 65.7277 16.3099 72.3984L22.1257 117.318C22.8216 122.711 25.307 127.49 29.3168 131.157C33.3431 134.841 38.4962 137.014 44.2292 137.462L330.812 159.93C331.525 159.98 332.237 160.013 332.95 160.013C345.261 160.013 356.644 151.766 359.991 140.101L388.175 41.6004C390.329 34.0835 388.821 26.4337 384.033 20.5762C381.614 17.6225 378.449 15.2662 374.853 13.7395C371.043 12.1465 366.884 11.4994 362.526 11.8478Z" fill="#EB1E55"/>
<path d="M235.009 52.0214C235.141 54.9253 234.876 57.8955 234.23 60.9654C231.28 75.5513 222.863 88.3119 209.011 99.2306C195.855 109.602 181.556 115.542 166.146 117.036C168.599 128.718 171.763 142.225 175.641 157.541C176.933 162.751 179.054 168.725 181.987 175.446C183.445 178.731 184.207 180.822 184.24 181.668C184.306 182.979 183.644 183.676 182.268 183.742C180.893 183.809 178.706 182.714 175.707 180.49C172.84 178.449 171.018 176.707 170.239 175.296C168.45 172.21 164.92 156.23 159.635 127.34C159.37 125.897 158.988 124.038 158.491 121.748C153.09 133.115 146.81 147.104 139.685 163.681C138.923 165.622 137.664 168.476 135.924 172.243C134.665 174.998 133.538 178.001 132.527 181.237C131.533 184.473 130.307 186.132 128.849 186.198C126.877 186.281 125.734 182.763 125.402 175.612C125.187 170.816 133.588 151.6 150.604 117.932L148.036 118.048C144.954 118.264 143.347 117.085 143.231 114.513C143.198 113.717 143.596 112.423 144.424 110.597C145.269 108.772 146.015 107.843 146.661 107.826C147.191 107.81 148.484 108.042 150.538 108.573C152.609 109.087 154.034 109.386 154.83 109.485C163.031 93.3564 175.657 68.6649 192.707 35.4442C192.177 35.5438 190.503 36.108 187.653 37.17C185.135 38.149 183.611 38.6468 183.08 38.6634C180.578 38.7796 179.253 37.0538 179.087 33.4862C178.971 30.9141 179.783 29.2548 181.523 28.508C182.235 28.2093 184.174 27.9936 187.322 27.8443C190.089 27.7115 193.171 27.5456 196.584 27.3133C196.7 26.915 196.733 26.3177 196.7 25.5212C196.667 24.9238 197.015 24.2766 197.744 23.5797C198.473 22.8828 199.136 22.5177 199.716 22.5011C199.848 22.5675 200.08 22.6504 200.412 22.7666C201.853 23.895 203.03 25.322 203.974 27.0644C212.491 27.529 219.467 29.653 224.918 33.4198C231.297 37.8503 234.644 44.0564 235.009 52.0214ZM225.1 53.1663C224.57 41.6669 217.031 35.4608 202.483 34.5482C188.929 59.6877 176.287 84.5119 164.556 109.037C179.037 107.644 191.63 102.981 202.334 95.0323C213.85 86.47 221.157 75.4185 224.222 61.8946C224.934 58.6589 225.233 55.7384 225.1 53.1663Z" fill="#0E7C74"/>
<path d="M222.052 145.511C218.622 148.431 213.833 151.451 207.653 154.554C200.777 158.155 195.458 160.047 191.713 160.213C190.603 160.262 189.692 160.163 188.979 159.897C188.283 159.632 187.571 158.835 186.842 157.475C186.494 157.226 186.129 156.91 185.715 156.545C185.102 156.114 184.439 154.969 183.727 153.144C183.014 151.302 182.716 150.024 182.815 149.294C182.815 147.85 183.495 144.88 184.87 140.416C187.19 134.924 189.841 130.311 192.823 126.577C195.806 122.86 198.871 119.807 201.986 117.417C205.747 114.613 209.26 113.003 212.524 112.589C212.856 112.572 213.154 112.555 213.419 112.555C213.485 112.555 213.552 112.555 213.618 112.539C214.131 112.257 214.794 112.489 215.623 113.236C217.826 115.459 219.102 117.932 219.417 120.636C219.815 123.74 219.417 127.274 218.224 131.256C218.108 131.588 217.992 131.87 217.86 132.07C217.379 133.148 216.418 134.658 214.96 136.583C213.502 138.508 209.757 139.62 203.709 139.885C200.296 140.035 197.413 139.703 195.077 138.84C192.061 144.913 190.752 149.261 191.133 151.849C192.078 152.53 193.022 152.845 193.95 152.795C196.767 152.662 201.605 151.053 208.432 147.933C213.982 145.461 217.744 143.569 219.732 142.242C220.494 141.694 221.273 141.395 222.068 141.345C223.245 141.296 223.858 141.727 223.907 142.64C223.941 143.519 223.327 144.465 222.052 145.511ZM213.999 118.712C213.916 118.513 213.75 118.396 213.485 118.347C212.11 118.546 210.635 119.375 209.061 120.836C205.333 124.254 201.92 128.187 198.838 132.634C200.694 132.949 203.096 132.899 206.046 132.501C208.266 132.202 209.409 132.053 209.475 132.036C210.702 131.721 211.696 131.008 212.441 129.912C214.546 124.055 215.059 120.321 213.999 118.712Z" fill="#0E7C74"/>
<path d="M255.073 144C251.644 146.921 246.888 149.941 240.774 153.044C233.832 156.645 228.48 158.537 224.735 158.719C223.675 158.769 222.796 158.653 222.101 158.404C221.405 158.138 220.692 157.342 219.963 155.981C219.565 155.732 219.151 155.433 218.737 155.052C218.124 154.62 217.478 153.475 216.798 151.634C216.119 149.792 215.804 148.514 215.837 147.784C215.904 146.34 216.583 143.37 217.892 138.906C220.278 133.397 222.946 128.784 225.895 125.067C228.844 121.35 231.926 118.297 235.107 115.907C238.802 113.103 242.282 111.493 245.546 111.078C245.878 111.062 246.209 111.045 246.524 111.029H246.623C247.137 110.747 247.8 110.979 248.628 111.742C250.898 113.966 252.207 116.438 252.522 119.143C252.87 122.263 252.439 125.797 251.229 129.78C250.765 131.339 249.722 132.152 248.081 132.219C245.977 132.318 244.9 131.671 244.834 130.294C244.867 131.09 245.331 129.68 246.225 126.063C247.369 121.051 247.667 118.098 247.104 117.202C246.971 117.019 246.789 116.886 246.59 116.836C245.215 117.036 243.74 117.849 242.166 119.309C236.731 124.154 232.423 129.431 229.275 135.173C225.448 142.109 223.741 147.186 224.155 150.372C225.166 151.053 226.11 151.368 226.972 151.318C229.789 151.185 234.627 149.576 241.453 146.456C247.07 143.984 250.832 142.092 252.754 140.765C253.516 140.217 254.295 139.918 255.073 139.869C256.316 139.819 256.962 140.25 257.012 141.163C257.062 141.993 256.416 142.955 255.073 144Z" fill="#0E7C74"/>
<path d="M270.832 115.592C271.345 116.886 269.937 120.686 266.606 126.975C261.387 136.849 258.587 142.192 258.239 143.005C257.096 145.494 256.532 148.265 256.532 151.302C256.516 155.268 255.737 157.276 254.163 157.342C251.628 157.458 250.219 154.687 249.954 149.028C249.838 146.324 250.186 143.47 251.048 140.466C252.572 135.123 254.958 129.199 258.173 122.711C261.404 116.223 263.69 112.887 265.065 112.688C267.998 112.224 269.92 113.203 270.832 115.592ZM282.911 94.7503C282.248 96.0944 281.005 97.6044 279.166 99.2804C277.144 101.023 275.537 101.919 274.361 101.969C272.389 102.052 271.312 100.259 271.146 96.5756C270.997 93.3564 271.693 90.7844 273.267 88.8595C275.454 86.3207 278.023 84.9766 280.989 84.8439C281.519 84.8273 281.95 84.8604 282.281 84.9766C283.225 85.3251 283.772 86.6526 283.938 88.9591C284.021 91.1993 283.689 93.1407 282.911 94.7503Z" fill="#0E7C74"/>
<path d="M310.035 119.724C309.753 122.312 308.726 125.515 306.92 129.365C304.335 134.691 301.452 139.122 298.303 142.656C295.155 146.191 291.941 149.095 288.677 151.351C284.783 154.04 281.171 155.55 277.824 155.898C277.426 155.915 277.062 155.799 276.73 155.55C276.664 155.616 276.531 155.682 276.349 155.765C275.835 155.981 275.156 155.716 274.344 154.969C272.074 152.762 270.798 150.323 270.55 147.634C268.926 150.82 267.269 154.123 265.579 157.574C254.444 180.208 247.17 195.989 243.757 204.916C242.879 207.339 241.819 208.567 240.576 208.633C239.466 208.683 238.322 207.737 237.179 205.812C236.185 204.136 235.688 202.709 235.705 201.514C235.705 199.938 243.111 184.34 257.941 154.753C270.898 128.884 279.812 113.418 284.65 108.374C285.214 107.826 286.092 107.511 287.268 107.461C290.416 107.312 291.858 107.975 291.609 109.452C291.56 109.784 290.615 111.493 288.776 114.547C293.73 110.63 297.293 108.689 299.463 108.722C301.037 108.722 302.081 108.971 302.562 109.469C303.705 110.016 305.263 111.062 307.251 112.622C307.864 113.119 308.51 114.264 309.19 116.04C309.836 117.849 310.134 119.06 310.035 119.724ZM302.33 117.799C302.479 116.604 302.131 115.675 301.319 114.978C300.971 114.729 299.861 114.878 297.989 115.426C295.205 116.671 290.996 120.769 285.313 127.672C280.259 133.845 277.31 138.392 276.465 141.329C275.272 145.61 275.14 148.448 276.067 149.858C276.217 150.123 276.482 150.273 276.879 150.323C276.946 150.323 277.045 150.289 277.178 150.206C278.487 150.024 279.1 149.858 279.033 149.725C279.033 149.792 279.066 149.825 279.133 149.825C280.11 149.526 281.171 148.912 282.314 148C287.964 143.32 292.504 138.242 295.934 132.733C299.646 126.627 301.783 121.649 302.33 117.799Z" fill="#0E7C74"/>
<path d="M344.052 139.885C340.638 142.806 335.833 145.826 329.653 148.929C322.777 152.53 317.458 154.421 313.713 154.587C312.603 154.637 311.692 154.538 310.979 154.272C310.283 154.007 309.571 153.21 308.842 151.849C308.494 151.6 308.129 151.285 307.715 150.92C307.102 150.489 306.439 149.344 305.727 147.518C305.014 145.676 304.716 144.399 304.815 143.669C304.815 142.225 305.495 139.255 306.87 134.791C309.19 129.298 311.841 124.685 314.823 120.952C317.806 117.235 320.871 114.182 323.986 111.792C327.747 108.988 331.26 107.378 334.524 106.963C334.856 106.947 335.154 106.93 335.419 106.93C335.485 106.93 335.552 106.93 335.618 106.914C336.132 106.631 336.794 106.864 337.623 107.61C339.826 109.834 341.102 112.306 341.417 115.011C341.815 118.114 341.417 121.649 340.224 125.631C340.108 125.963 339.992 126.245 339.86 126.444C339.379 127.523 338.418 129.033 336.96 130.958C335.502 132.883 331.757 133.994 325.709 134.26C322.296 134.409 319.413 134.077 317.077 133.215C314.061 139.288 312.752 143.635 313.133 146.224C314.078 146.904 315.022 147.22 315.95 147.17C318.767 147.037 323.605 145.428 330.432 142.308C335.982 139.835 339.744 137.944 341.732 136.616C342.494 136.069 343.273 135.77 344.052 135.72C345.228 135.67 345.841 136.102 345.891 137.015C345.924 137.911 345.311 138.856 344.052 139.885ZM335.999 113.086C335.916 112.887 335.75 112.771 335.485 112.721C334.11 112.92 332.635 113.75 331.061 115.21C327.333 118.629 323.92 122.561 320.838 127.009C322.694 127.324 325.096 127.274 328.046 126.876C330.266 126.577 331.409 126.428 331.476 126.411C332.702 126.096 333.696 125.382 334.441 124.287C336.546 118.43 337.059 114.696 335.999 113.086Z" fill="#0E7C74"/>
<path d="M237.228 47.7401C237.361 50.644 237.096 53.6143 236.449 56.6841C233.5 71.27 225.083 84.0306 211.231 94.9493C198.075 105.32 183.776 111.261 168.366 112.754C170.818 124.436 173.983 137.944 177.86 153.26C179.153 158.47 181.274 164.444 184.206 171.148C185.665 174.433 186.427 176.524 186.46 177.37C186.526 178.681 185.863 179.378 184.488 179.445C183.113 179.511 180.926 178.416 177.927 176.192C175.06 174.151 173.238 172.409 172.459 170.998C170.669 167.912 167.14 151.932 161.854 123.043C161.589 121.599 161.208 119.74 160.711 117.45C155.31 128.817 149.03 142.806 141.905 159.383C141.143 161.324 139.884 164.178 138.144 167.945C136.884 170.7 135.758 173.703 134.747 176.939C133.753 180.175 132.527 181.834 131.069 181.9C129.097 181.983 127.954 178.466 127.622 171.314C127.407 166.518 135.807 147.303 152.824 113.634L150.256 113.75C147.174 113.966 145.567 112.788 145.451 110.216C145.418 109.419 145.815 108.125 146.66 106.299C147.505 104.474 148.251 103.545 148.897 103.528C149.427 103.512 150.72 103.744 152.774 104.275C154.846 104.789 156.271 105.088 157.066 105.188C165.268 89.0585 177.894 64.367 194.943 31.1464C194.413 31.2459 192.74 31.8101 189.89 32.8721C187.371 33.8511 185.847 34.349 185.317 34.3656C182.815 34.4817 181.489 32.756 181.323 29.1883C181.207 26.6163 182.019 24.9569 183.759 24.2102C184.472 23.9115 186.41 23.6958 189.558 23.5464C192.325 23.4137 195.407 23.2477 198.821 23.0154C198.937 22.6172 198.97 22.0198 198.937 21.2233C198.903 20.6259 199.251 19.9788 199.98 19.2818C200.709 18.5849 201.372 18.2198 201.952 18.2032C202.085 18.2696 202.317 18.3526 202.648 18.4687C204.09 19.5971 205.266 21.0242 206.21 22.7665C214.727 23.2312 221.703 25.3551 227.154 29.1219C233.5 33.5525 236.864 39.7751 237.228 47.7401ZM227.32 48.8851C226.79 37.3856 219.251 31.1796 204.703 30.2669C191.149 55.4064 178.507 80.2306 166.776 104.756C181.257 103.362 193.85 98.6995 204.554 90.7511C216.069 82.1887 223.376 71.1373 226.442 57.6134C227.154 54.361 227.436 51.4571 227.32 48.8851Z" fill="#70E4DE"/>
<path d="M224.271 141.229C220.841 144.15 216.053 147.17 209.873 150.273C202.996 153.874 197.678 155.765 193.933 155.931C192.823 155.981 191.911 155.881 191.199 155.616C190.503 155.35 189.791 154.554 189.062 153.193C188.714 152.944 188.349 152.629 187.935 152.264C187.322 151.833 186.659 150.688 185.947 148.846C185.234 147.004 184.936 145.726 185.035 144.996C185.035 143.552 185.715 140.582 187.09 136.118C189.41 130.626 192.061 126.013 195.043 122.279C198.026 118.562 201.091 115.509 204.206 113.119C207.967 110.315 211.48 108.706 214.744 108.291C215.075 108.274 215.374 108.257 215.639 108.257C215.705 108.257 215.771 108.257 215.838 108.241C216.351 107.959 217.014 108.191 217.842 108.938C220.046 111.161 221.322 113.634 221.637 116.339C222.034 119.442 221.637 122.976 220.444 126.959C220.328 127.29 220.212 127.573 220.079 127.772C219.599 128.85 218.638 130.36 217.18 132.285C215.722 134.21 211.977 135.322 205.929 135.587C202.516 135.737 199.633 135.405 197.296 134.542C194.281 140.615 192.972 144.963 193.353 147.551C194.297 148.232 195.242 148.547 196.17 148.497C198.987 148.365 203.825 146.755 210.651 143.635C216.202 141.163 219.963 139.271 221.952 137.944C222.714 137.396 223.493 137.097 224.288 137.048C225.464 136.998 226.077 137.429 226.127 138.342C226.144 139.238 225.531 140.184 224.271 141.229ZM216.219 114.414C216.136 114.215 215.97 114.098 215.705 114.032C214.33 114.231 212.855 115.061 211.281 116.521C207.553 119.939 204.14 123.872 201.058 128.319C202.914 128.635 205.316 128.585 208.265 128.187C210.486 127.888 211.629 127.739 211.695 127.722C212.921 127.407 213.916 126.693 214.661 125.598C216.765 119.757 217.279 116.023 216.219 114.414Z" fill="#70E4DE"/>
<path d="M257.293 139.703C253.88 142.623 249.108 145.643 242.994 148.746C236.051 152.347 230.699 154.239 226.955 154.421C225.894 154.471 225.016 154.355 224.32 154.106C223.624 153.84 222.912 153.044 222.183 151.683C221.785 151.434 221.371 151.136 220.957 150.754C220.344 150.323 219.697 149.178 219.018 147.336C218.339 145.494 218.024 144.199 218.057 143.486C218.123 142.042 218.803 139.072 220.112 134.608C222.498 129.099 225.165 124.486 228.115 120.769C231.064 117.052 234.146 113.999 237.327 111.609C241.022 108.805 244.502 107.195 247.766 106.781C248.097 106.764 248.429 106.747 248.743 106.731H248.843C249.357 106.449 250.019 106.681 250.848 107.444C253.118 109.668 254.427 112.14 254.742 114.845C255.09 117.965 254.659 121.499 253.449 125.482C252.985 127.042 251.941 127.855 250.301 127.921C248.197 128.021 247.12 127.373 247.053 125.996C247.087 126.793 247.55 125.382 248.445 121.765C249.589 116.753 249.887 113.8 249.323 112.904C249.191 112.721 249.009 112.588 248.81 112.522C247.434 112.721 245.96 113.534 244.386 114.994C238.951 119.84 234.643 125.117 231.495 130.858C227.667 137.794 225.961 142.872 226.375 146.058C227.386 146.738 228.33 147.054 229.192 147.004C232.008 146.871 236.847 145.261 243.673 142.142C249.29 139.669 253.052 137.778 254.974 136.45C255.736 135.903 256.515 135.604 257.293 135.554C258.536 135.504 259.182 135.936 259.232 136.848C259.265 137.711 258.619 138.657 257.293 139.703Z" fill="#70E4DE"/>
<path d="M273.035 111.311C273.548 112.605 272.14 116.405 268.81 122.694C263.59 132.567 260.79 137.91 260.442 138.724C259.299 141.213 258.735 143.984 258.735 147.02C258.719 150.986 257.94 152.994 256.366 153.061C253.831 153.177 252.423 150.406 252.157 144.747C252.041 142.042 252.389 139.188 253.251 136.185C254.775 130.841 257.161 124.918 260.376 118.429C263.607 111.941 265.893 108.606 267.269 108.407C270.218 107.942 272.14 108.905 273.035 111.311ZM285.114 90.4689C284.451 91.813 283.208 93.3231 281.369 94.999C279.348 96.7414 277.74 97.6374 276.564 97.6872C274.592 97.7702 273.515 95.9781 273.35 92.2943C273.2 89.0751 273.896 86.503 275.47 84.5782C277.658 82.0393 280.226 80.6952 283.192 80.5625C283.722 80.5459 284.153 80.5791 284.484 80.6952C285.429 81.0437 285.975 82.3712 286.141 84.6777C286.24 86.9179 285.893 88.8428 285.114 90.4689Z" fill="#70E4DE"/>
<path d="M312.238 115.443C311.956 118.031 310.929 121.234 309.123 125.083C306.538 130.41 303.655 134.841 300.507 138.392C297.358 141.943 294.144 144.83 290.88 147.087C286.986 149.775 283.374 151.285 280.027 151.633C279.629 151.65 279.265 151.534 278.933 151.285C278.867 151.351 278.734 151.418 278.552 151.501C278.039 151.716 277.359 151.451 276.547 150.704C274.277 148.497 273.001 146.058 272.753 143.37C271.129 146.556 269.472 149.858 267.782 153.309C256.648 175.943 249.374 191.724 245.96 200.651C245.082 203.074 244.022 204.302 242.779 204.368C241.669 204.418 240.526 203.472 239.382 201.547C238.388 199.871 237.891 198.444 237.908 197.25C237.908 195.673 245.314 180.075 260.144 150.489C273.101 124.619 282.015 109.154 286.853 104.109C287.417 103.561 288.295 103.246 289.471 103.196C292.62 103.047 294.061 103.711 293.812 105.188C293.763 105.519 292.818 107.229 290.979 110.282C295.933 106.366 299.496 104.424 301.666 104.457C303.24 104.457 304.284 104.706 304.765 105.204C305.908 105.752 307.466 106.797 309.454 108.357C310.067 108.855 310.713 110 311.393 111.775C312.055 113.551 312.337 114.779 312.238 115.443ZM304.549 113.501C304.699 112.306 304.351 111.377 303.539 110.68C303.191 110.431 302.081 110.581 300.208 111.128C297.425 112.373 293.216 116.455 287.533 123.374C282.479 129.547 279.53 134.094 278.685 137.031C277.492 141.312 277.359 144.15 278.287 145.56C278.436 145.826 278.701 145.975 279.099 146.025C279.165 146.025 279.265 145.992 279.397 145.909C280.706 145.726 281.319 145.56 281.253 145.427C281.253 145.494 281.286 145.527 281.352 145.527C282.33 145.228 283.39 144.614 284.534 143.702C290.184 139.022 294.724 133.945 298.154 128.435C301.865 122.329 304.003 117.351 304.549 113.501Z" fill="#70E4DE"/>
<path d="M346.255 135.604C342.841 138.525 338.036 141.545 331.856 144.648C324.98 148.248 319.661 150.14 315.916 150.306C314.806 150.356 313.895 150.256 313.182 149.991C312.486 149.725 311.774 148.929 311.045 147.568C310.697 147.319 310.332 147.004 309.918 146.639C309.305 146.207 308.642 145.062 307.93 143.221C307.217 141.379 306.919 140.101 307.019 139.371C307.019 137.927 307.698 134.957 309.073 130.493C311.393 125.001 314.044 120.388 317.026 116.654C320.009 112.937 323.074 109.884 326.189 107.494C329.95 104.69 333.463 103.08 336.727 102.665C337.059 102.649 337.357 102.632 337.622 102.632C337.688 102.632 337.755 102.632 337.821 102.616C338.335 102.334 338.997 102.566 339.826 103.313C342.03 105.536 343.305 108.009 343.62 110.713C344.018 113.816 343.62 117.351 342.427 121.333C342.311 121.665 342.195 121.947 342.063 122.146C341.582 123.225 340.621 124.735 339.163 126.66C337.705 128.585 333.96 129.697 327.912 129.962C324.499 130.111 321.616 129.78 319.28 128.917C316.264 134.99 314.955 139.338 315.336 141.926C316.281 142.607 317.225 142.922 318.153 142.872C320.97 142.739 325.808 141.13 332.635 138.01C338.185 135.538 341.947 133.646 343.935 132.318C344.697 131.771 345.476 131.472 346.255 131.422C347.431 131.373 348.044 131.804 348.094 132.717C348.144 133.613 347.531 134.559 346.255 135.604ZM338.219 108.789C338.136 108.589 337.97 108.473 337.705 108.407C336.33 108.606 334.855 109.436 333.281 110.896C329.553 114.314 326.14 118.247 323.058 122.694C324.913 123.009 327.316 122.96 330.265 122.561C332.486 122.263 333.629 122.113 333.695 122.097C334.938 121.781 335.915 121.068 336.661 119.973C338.749 114.132 339.279 110.398 338.219 108.789Z" fill="#70E4DE"/>
<g opacity="0.3">
<path opacity="0.3" d="M82.0239 69.561L72.6788 92.4272L73.7558 104.126C73.8055 104.59 73.4576 104.955 73.0268 105.005L61.8756 106.034C61.4448 106.067 61.0471 105.785 60.9974 105.304L59.9536 93.987L46.9964 72.7968C46.7644 72.382 47.0129 71.8841 47.4769 71.851L58.2966 70.8553C59.092 70.789 59.8376 71.1374 60.2352 71.8178L70.6905 88.9259L78.594 69.5112C78.7597 69.1628 79.058 68.9471 79.3894 68.9139L81.3611 68.7313C81.8582 68.6816 82.173 69.1296 82.0239 69.561Z" fill="#161616"/>
</g>
<g opacity="0.3">
<path opacity="0.3" d="M122.917 82.6702C123.878 93.1906 115.262 102.632 103.68 103.694C92.1475 104.756 81.9408 97.0404 80.9798 86.5365C80.0022 75.9829 88.6348 66.5245 100.167 65.4625C111.749 64.4005 121.956 72.1166 122.917 82.6702ZM105.502 72.8301C105.27 70.2912 103.05 68.3996 100.515 68.6319C100.515 68.6319 100.515 68.6319 100.465 68.6319C100.465 68.6319 100.465 68.6319 100.416 68.6319C97.9136 68.8642 96.091 71.1209 96.323 73.6764L98.4107 96.36C98.6427 98.8989 100.863 100.791 103.348 100.558C103.398 100.558 103.398 100.558 103.398 100.558C103.448 100.558 103.448 100.558 103.448 100.558C105.983 100.326 107.822 98.0692 107.59 95.5137L105.502 72.8301Z" fill="#161616"/>
</g>
<g opacity="0.3">
<path opacity="0.3" d="M161.822 62.1105L163.363 78.9365C164.324 89.457 156.835 98.7993 146.661 99.7285L145.054 99.8778C134.88 100.824 125.817 92.9914 124.839 82.4876L123.299 65.6616C123.265 65.2301 123.547 64.8319 124.028 64.7821L136.687 63.6205C137.15 63.5707 137.515 63.9192 137.565 64.3506L140.199 92.9251C140.415 95.1818 142.42 96.9573 144.723 96.7416C144.772 96.7416 144.772 96.7416 144.772 96.7416L146.38 96.5923C146.38 96.5923 146.38 96.5923 146.429 96.5923C148.732 96.3766 150.389 94.2692 150.191 92.0124L147.556 63.438C147.523 63.0066 147.805 62.6083 148.285 62.5585L160.944 61.397C161.358 61.3472 161.772 61.6956 161.822 62.1105Z" fill="#161616"/>
</g>
<g opacity="0.3">
<path opacity="0.3" d="M200.428 93.2569L187.57 94.4351C187.288 94.4683 186.99 94.3521 186.825 94.07L179.319 82.7365L180.379 94.2858C180.429 94.7504 180.131 95.1154 179.65 95.1652L168.532 96.194C168.068 96.2438 167.704 95.9451 167.654 95.4639L164.555 61.845C164.522 61.4136 164.804 61.0153 165.284 60.9655L184.207 59.2232C190.47 58.6424 196.352 63.2389 196.932 69.5611C197.296 73.527 195.275 77.2772 192.292 79.6003L200.743 92.5102C201.008 92.8255 200.809 93.2238 200.428 93.2569ZM186.278 70.5567C185.88 66.176 182.98 62.5419 180.677 62.7577L178.424 62.9734C177.91 63.0232 177.562 63.438 177.612 63.9026L178.971 78.6545C179.02 79.1191 179.418 79.4676 179.948 79.4178L182.202 79.2021C184.488 78.9863 186.692 74.9375 186.278 70.5567Z" fill="#161616"/>
</g>
<path d="M84.2446 66.1759L74.8995 89.0421L75.9765 100.741C76.0262 101.205 75.6783 101.57 75.2475 101.62L64.0963 102.649C63.6655 102.682 63.2678 102.4 63.2181 101.919L62.1743 90.6019L49.2171 69.4117C48.9851 68.9968 49.2336 68.499 49.6976 68.4658L60.5173 67.4702C61.3127 67.4038 62.0583 67.7523 62.4559 68.4326L72.9112 85.5408L80.8148 66.1261C80.9805 65.7776 81.2787 65.5619 81.6101 65.5287L83.5818 65.3462C84.0623 65.2964 84.3937 65.7445 84.2446 66.1759Z" fill="#F83359"/>
<path d="M125.137 79.285C126.098 89.8055 117.482 99.2473 105.9 100.309C94.3682 101.371 84.1615 93.6552 83.2005 83.1514C82.2229 72.5978 90.8555 63.1393 102.388 62.0773C113.97 61.0153 124.176 68.7314 125.137 79.285ZM107.707 69.4284C107.475 66.8895 105.254 64.9978 102.719 65.2301C102.719 65.2301 102.719 65.2301 102.669 65.2301C102.669 65.2301 102.669 65.2301 102.62 65.2301C100.118 65.4625 98.2951 67.7192 98.5271 70.2746L100.615 92.9583C100.847 95.4971 103.067 97.3888 105.552 97.1565C105.602 97.1565 105.602 97.1565 105.602 97.1565C105.652 97.1565 105.652 97.1565 105.652 97.1565C108.187 96.9242 110.026 94.6674 109.794 92.112L107.707 69.4284Z" fill="#F83359"/>
<path d="M164.025 58.7253L165.566 75.5514C166.527 86.0718 159.038 95.4141 148.864 96.3433L147.257 96.4927C137.084 97.4385 128.02 89.6063 127.043 79.1024L125.502 62.2764C125.469 61.8449 125.75 61.4467 126.231 61.3969L138.89 60.2353C139.354 60.1856 139.718 60.534 139.768 60.9655L142.402 89.5399C142.618 91.7966 144.623 93.5722 146.926 93.3564C146.975 93.3564 146.975 93.3564 146.975 93.3564L148.583 93.2071C148.583 93.2071 148.583 93.2071 148.632 93.2071C150.936 92.9914 152.592 90.884 152.394 88.6272L149.759 60.0528C149.726 59.6214 150.008 59.2231 150.488 59.1733L163.147 58.0118C163.578 57.962 163.992 58.2939 164.025 58.7253Z" fill="#F83359"/>
<path d="M202.649 89.8718L189.791 91.05C189.509 91.0832 189.211 90.967 189.045 90.6849L181.539 79.3514L182.6 90.9006C182.65 91.3652 182.351 91.7303 181.871 91.7801L170.769 92.8089C170.305 92.8587 169.941 92.56 169.891 92.0788L166.793 58.4599C166.76 58.0284 167.041 57.6302 167.522 57.5804L186.444 55.8381C192.707 55.2573 198.589 59.8537 199.169 66.176C199.534 70.1419 197.512 73.892 194.53 76.2152L202.98 89.1251C203.212 89.4404 203.013 89.8386 202.649 89.8718ZM188.498 67.1716C188.101 62.7908 185.201 59.1568 182.898 59.3725L180.645 59.5882C180.131 59.638 179.783 60.0529 179.833 60.5175L181.191 75.2693C181.241 75.734 181.639 76.0824 182.169 76.0326L184.422 75.8169C186.709 75.6012 188.896 71.5523 188.498 67.1716Z" fill="#F83359"/>
</svg>
