<svg width="403" height="248" viewBox="0 0 403 248" fill="none" xmlns="http://www.w3.org/2000/svg">
<path d="M369.637 52.4651L40.0479 79.233C23.6011 80.5526 11.3909 94.3323 13.789 108.836L21.8567 157.772C23.6732 168.802 33.5492 177.042 45.9601 177.885L341.287 197.925C355.216 198.871 368.223 190.281 371.603 177.928L397.811 82.2036C402.265 65.8435 388.166 50.9537 369.637 52.4651Z" fill="#FC6170"/>
<path d="M319.891 216.701C319.173 216.653 318.473 216.569 317.759 216.465L49.4424 173.378C37.8234 171.507 29.3365 160.995 28.7888 147.815L26.6528 97.3314C26.3238 89.3344 28.872 81.4549 33.8228 75.1672C39.184 68.3676 46.7282 64.3349 54.5357 64.1121L358.87 49.5747C363.268 49.4591 367.385 50.4959 371.098 52.6583C374.599 54.7136 377.611 57.7402 379.81 61.4376C384.167 68.7552 385.086 78.0185 382.317 86.8499L348.437 194.94C344.192 208.506 332.176 217.52 319.891 216.701ZM358.887 51.4348L54.5359 65.9897C47.1536 66.1851 40.0156 70.0033 34.9457 76.4318C30.2875 82.3301 27.8975 89.7182 28.2129 97.2124L30.3502 147.678C30.6046 153.737 32.5906 159.223 36.0953 163.565C39.6145 167.927 44.3074 170.675 49.6751 171.535L317.993 214.603C318.66 214.704 319.329 214.785 320 214.83C331.599 215.604 342.936 207.121 346.957 194.32L380.838 86.2307C383.426 77.9821 382.575 69.3554 378.499 62.5213C376.44 59.075 373.634 56.248 370.36 54.3194C366.888 52.3032 363.018 51.32 358.887 51.4348Z" fill="#FAE661"/>
</svg>
