<svg width="750" height="97" viewBox="0 0 750 97" fill="none" xmlns="http://www.w3.org/2000/svg">
<path d="M723.431 86.6054L19.7459 95.9965C5.43861 96.1669 -4.16058 79.3159 1.79525 64.5097L20.2616 18.6522C23.4891 10.6433 30.5595 5.5501 38.3121 5.68264L713.183 19.012C720.437 19.1256 727.025 23.8212 730.302 31.1674L740.633 54.3044C747.205 69.016 737.922 86.4539 723.431 86.6054Z" fill="#F83359"/>
<path d="M730.086 80.9253L26.4004 90.3164C12.0931 90.4868 2.49393 73.6358 8.44976 58.8296L26.9161 12.9721C30.1436 4.96316 37.2307 -0.13001 44.9666 0.0025258L719.838 13.3319C727.091 13.4455 733.679 18.141 736.957 25.4873L747.288 48.6243C753.859 63.3358 744.576 80.7738 730.086 80.9253Z" fill="#FC6170"/>
<path d="M44.9666 97C37.1475 97 30.0105 91.8689 26.65 83.8032L7.65124 38.2297C4.65669 31.0538 5.08924 22.7419 8.81579 16.0204C12.5423 9.29894 18.9307 5.26605 25.918 5.24712L729.637 2.42599C729.653 2.42599 729.687 2.42599 729.703 2.42599C736.74 2.42599 743.179 6.47781 746.905 13.275C750.648 20.0912 751.014 28.4788 747.903 35.6926L737.838 58.981C734.511 66.6871 727.757 71.6288 720.204 71.856L45.5323 97C45.3493 97 45.1663 97 44.9666 97ZM729.637 3.27801V4.13003L25.918 6.95116C19.4631 6.98902 13.5405 10.719 10.0968 16.9482C6.65306 23.1774 6.23715 30.8645 9.01542 37.5102L28.0142 83.0837C31.2083 90.7329 38.0792 95.5421 45.5156 95.2959L720.17 70.1898C727.158 69.9626 733.413 65.3996 736.507 58.2616L746.572 34.9731C749.467 28.2895 749.118 20.5266 745.657 14.2028C742.197 7.89784 736.241 4.14896 729.72 4.14896C729.703 4.14896 729.686 4.14896 729.653 4.14896L729.637 3.27801Z" fill="#FAE661"/>
</svg>
