<svg width="745" height="95" viewBox="0 0 745 95" fill="none" xmlns="http://www.w3.org/2000/svg">
<path d="M725.086 83.9253L21.4002 93.3164C7.09291 93.4868 -2.50628 76.6358 3.44954 61.8296L21.9159 15.9721C25.1434 7.96316 32.2305 2.86999 39.9664 3.00253L714.838 16.3319C722.091 16.4455 728.679 21.141 731.956 28.4873L742.288 51.6243C748.859 66.3358 739.576 83.7738 725.086 83.9253Z" fill="#3C5C65" fill-opacity="0.75"/>
<path d="M39.9668 95C32.1477 95 25.0107 89.8689 21.6502 81.8032L2.65142 36.2297C-0.343124 29.0538 0.0894213 20.7419 3.81597 14.0204C7.54252 7.29894 13.9309 3.26605 20.9182 3.24712L724.637 0.425995C724.653 0.425995 724.687 0.425995 724.703 0.425995C731.741 0.425995 738.179 4.47781 741.905 11.275C745.648 18.0912 746.015 26.4788 742.904 33.6926L732.839 56.981C729.511 64.6871 722.757 69.6288 715.204 69.856L40.5324 95C40.3494 95 40.1664 95 39.9668 95ZM724.637 1.27801V2.13003L20.9182 4.95116C14.4632 4.98902 8.5407 8.71897 5.09697 14.9482C1.65324 21.1774 1.23733 28.8645 4.01561 35.5102L23.0143 81.0837C26.2085 88.7329 33.0793 93.5421 40.5158 93.2959L715.171 68.1898C722.158 67.9626 728.413 63.3996 731.508 56.2616L741.573 32.9731C744.467 26.2895 744.118 18.5266 740.658 12.2028C737.197 5.89784 731.241 2.14896 724.72 2.14896C724.703 2.14896 724.687 2.14896 724.653 2.14896L724.637 1.27801Z" fill="#FAE661"/>
</svg>
