<svg width="356" height="219" viewBox="0 0 356 219" fill="none" xmlns="http://www.w3.org/2000/svg">
<path d="M327.281 46.1452L35.6043 69.834C21.0495 71.0018 10.2438 83.1963 12.366 96.0315L19.5057 139.339C21.1132 149.1 29.8532 156.391 40.8364 157.137L302.192 174.872C314.518 175.71 326.029 168.108 329.02 157.176L352.213 72.4629C356.155 57.9847 343.677 44.8077 327.281 46.1452Z" fill="#3C5C65" fill-opacity="0.75"/>
<path d="M283.257 191.488C282.621 191.446 282.002 191.372 281.37 191.28L43.9182 153.15C33.6358 151.493 26.1251 142.191 25.6404 130.527L23.7501 85.8505C23.459 78.7734 25.7141 71.8003 30.0954 66.2358C34.8398 60.2185 41.5162 56.6497 48.4256 56.4525L317.752 43.5873C321.644 43.485 325.287 44.4026 328.573 46.3162C331.671 48.1351 334.337 50.8136 336.283 54.0856C340.139 60.5615 340.952 68.7592 338.502 76.5747L308.519 172.231C304.762 184.236 294.129 192.214 283.257 191.488ZM317.767 45.2335L48.4258 58.1141C41.8927 58.287 35.5758 61.666 31.0891 67.355C26.9667 72.5748 24.8517 79.1131 25.1308 85.7452L27.0222 130.405C27.2474 135.767 29.0049 140.622 32.1065 144.465C35.2208 148.325 39.3739 150.757 44.1242 151.518L281.577 189.632C282.168 189.721 282.759 189.794 283.353 189.833C293.617 190.518 303.651 183.011 307.209 171.683L337.193 76.0267C339.483 68.727 338.73 61.0926 335.123 55.0447C333.301 51.9948 330.817 49.493 327.92 47.7862C324.848 46.0019 321.423 45.1319 317.767 45.2335Z" fill="#FAE661"/>
</svg>
