<svg width="119" height="119" viewBox="0 0 119 119" fill="none" xmlns="http://www.w3.org/2000/svg">
<g clip-path="url(#clip0)">
<path d="M85.5662 67.291C85.76 64.3204 87.6328 63.5455 90.2805 63.9329C90.3451 62.8997 89.9576 60.9623 90.0868 60.0582C90.2159 58.7666 90.2805 57.3459 90.2805 55.9252C90.2805 54.569 90.3451 53.7941 90.3451 52.4379C90.3451 51.7276 90.4097 50.3714 90.6034 49.7256C90.7325 49.1444 91.12 47.6591 90.9263 47.3362C90.2159 47.4654 90.0222 47.2716 89.3118 47.3362C88.1494 47.4654 86.987 47.7883 85.8246 47.8528C83.6289 48.0466 81.6269 48.3695 79.4958 48.8215C74.717 49.7256 69.8736 50.6943 65.0948 51.0172C62.5762 51.1464 60.0577 51.5338 57.5391 51.7921C54.9559 52.0505 52.4374 52.1796 49.8542 52.4379C47.7877 52.6962 45.7212 53.0837 43.6547 53.2129C41.8465 53.342 39.9737 53.4066 38.2301 53.6649C36.2281 53.9232 34.2262 53.7941 32.2242 53.9878C31.4493 54.0524 30.6743 54.0524 29.964 54.117C29.5119 54.1816 29.0599 54.2461 28.5432 54.3107C28.2204 54.3753 28.0266 54.2461 27.8975 54.0524C29.1245 59.7353 30.5452 65.7411 31.2556 71.4887C31.7076 75.1051 32.6117 77.8174 32.7409 81.3046C32.8054 83.4357 32.9992 87.7625 34.097 89.6353C34.3553 90.0873 36.7447 89.7644 38.5529 89.6353C41.8465 89.4415 45.2046 88.9249 48.3689 88.0208C54.8914 86.2126 61.2847 84.6627 68.0008 83.7586C75.492 82.7899 82.8539 81.6275 90.2805 80.2714C90.2159 78.9152 90.0868 77.1716 90.0868 76.2029C90.0868 75.2988 90.1513 74.4593 90.2805 73.6198C90.3451 73.0385 90.3451 72.0053 90.5388 71.3595C87.5036 71.747 85.3725 69.8096 85.5662 67.291ZM45.3983 72.3282C42.1048 72.3282 39.457 69.6805 39.457 66.3869C39.457 63.0934 42.1048 60.4457 45.3983 60.4457C48.6918 60.4457 51.3395 63.0934 51.3395 66.3869C51.3395 69.6159 48.6918 72.3282 45.3983 72.3282ZM54.0518 82.3379C53.0186 82.3379 52.1145 81.4984 52.1145 80.4005C52.1145 79.3673 52.954 78.4632 54.0518 78.4632C55.0851 78.4632 55.9892 79.3027 55.9892 80.4005C55.9246 81.4338 55.0851 82.3379 54.0518 82.3379ZM73.2317 63.158C71.5527 63.158 70.1319 61.7373 70.1319 60.0582C70.1319 58.3792 71.4881 56.9584 73.2317 56.9584C74.9753 56.9584 76.3315 58.3146 76.3315 60.0582C76.3315 61.8018 74.9108 63.158 73.2317 63.158Z" fill="white"/>
<path d="M89.8934 45.7217C88.731 45.3343 87.6977 44.8176 86.5999 44.3656C84.3396 43.3969 81.9502 42.6865 79.6254 41.9116C76.0736 40.7492 72.5863 39.6513 69.1636 38.1015C67.7429 37.4557 66.2576 36.939 64.8369 36.2287C62.8349 35.26 60.7684 34.8725 58.7019 34.2913C56.8291 33.7101 54.8917 33.3226 53.0835 32.6768C51.8566 32.2248 50.7587 31.579 49.5963 31.1915C46.884 30.2229 44.1071 29.9 41.3948 28.8021L40.6844 28.9959C39.7803 29.4479 39.2637 30.0291 38.6179 30.7395C37.7784 31.579 36.6806 32.6123 36.0348 33.5809C34.6786 35.6475 33.3225 37.6494 32.0955 39.8451C30.8685 42.1053 29.8998 44.3656 28.9957 46.755C28.5436 48.0466 27.8978 49.8548 27.8333 51.2109C27.8333 51.2109 27.4458 52.6317 27.8978 53.2129C28.027 53.4066 28.2207 53.4712 28.5436 53.4712C29.0603 53.4066 29.4477 53.342 29.9644 53.2775C30.7393 53.2129 31.4497 53.2129 32.2246 53.1483C34.2266 52.9546 36.2285 53.0837 38.2304 52.8254C40.0386 52.5671 41.8469 52.5025 43.6551 52.3734C45.7216 52.2442 47.7881 51.8567 49.8546 51.5984C52.4378 51.2755 54.9563 51.1464 57.5395 50.9526C60.058 50.6943 62.5766 50.3714 65.0952 50.1777C69.874 49.8548 74.7174 48.8861 79.4962 47.982C81.6919 47.5945 83.6293 47.2071 85.825 47.0133C86.9874 46.8842 88.1498 46.5613 89.3122 46.4967C90.0226 46.4321 90.2163 46.6258 90.9267 46.4967C90.4746 46.0446 90.4746 45.9155 89.8934 45.7217ZM60.833 40.4909C62.2537 40.4909 63.4807 41.1367 63.4807 41.9762C63.4807 42.7511 62.3183 43.4615 60.833 43.4615C59.4123 43.4615 58.1853 42.8157 58.1853 41.9762C58.1853 41.1367 59.3477 40.4909 60.833 40.4909ZM45.3341 37.9077C49.0797 37.9077 52.1149 39.0701 52.1149 40.4909C52.1149 41.9116 49.0797 43.074 45.3341 43.074C41.5885 43.074 38.5533 41.9116 38.5533 40.4909C38.6179 39.0701 41.6531 37.9077 45.3341 37.9077Z" fill="white"/>
<path d="M59.3478 118.696C26.6064 118.696 0 92.0247 0 59.3478C0 26.671 26.6064 0 59.3478 0C92.0892 0 118.696 26.6064 118.696 59.3478C118.696 92.0892 92.0247 118.696 59.3478 118.696ZM59.3478 1.93736C27.7043 1.93736 1.93736 27.7043 1.93736 59.3478C1.93736 90.9914 27.7043 116.758 59.3478 116.758C90.9914 116.758 116.758 90.9914 116.758 59.3478C116.758 27.7043 90.9914 1.93736 59.3478 1.93736Z" fill="white"/>
<path d="M20.4074 74.6531C20.2137 75.6217 19.8262 76.4613 19.245 77.1716C18.5992 77.882 17.8243 78.3986 16.8556 78.7861C15.8869 79.109 14.9182 79.1736 14.0141 78.9798C13.11 78.7861 12.2705 78.334 11.5601 77.6883C10.8498 77.0425 10.3331 76.2029 10.0102 75.1697C9.75193 74.3302 9.62278 73.4906 9.68736 72.7157C9.75193 71.9407 10.0102 71.1658 10.3977 70.52L12.2705 71.5533C11.7539 72.4574 11.6247 73.4261 11.9476 74.4593C12.1413 75.0405 12.4642 75.5572 12.9163 75.9446C13.3683 76.3321 13.8204 76.5904 14.4016 76.7196C14.9828 76.8487 15.564 76.7842 16.1452 76.5904C16.7264 76.3967 17.2431 76.0738 17.6305 75.6217C18.018 75.1697 18.2763 74.7176 18.4055 74.1364C18.5346 73.5552 18.4701 72.974 18.2763 72.3928C17.9534 71.4241 17.3076 70.7138 16.2744 70.3263L17.1139 68.3889C17.8243 68.6472 18.4701 69.0993 18.9867 69.6805C19.5033 70.2617 19.9554 70.9721 20.2137 71.8762C20.472 72.7157 20.5366 73.6844 20.4074 74.6531Z" fill="white"/>
<path d="M7.42676 57.7334L17.8239 57.0876L17.9531 59.4771L13.6909 59.7354L13.9492 64.4496L18.2114 64.1913L18.3406 66.5807L7.94339 67.2265L7.81423 64.8371L11.9473 64.5788L11.689 59.8645L7.55592 60.1228L7.42676 57.7334Z" fill="white"/>
<path d="M17.695 46.9488L19.5678 47.3363L18.0825 55.2795L7.81445 53.3421L9.29976 45.5927L11.1725 45.9801L10.1393 51.3402L12.335 51.7922L13.2391 47.0134L15.1118 47.3363L14.2077 52.1151L16.5972 52.5672L17.695 46.9488Z" fill="white"/>
<path d="M21.6339 37.8432L23.3775 38.6181L20.084 45.9801L10.5264 41.7179L13.7553 34.4851L15.4989 35.26L13.2387 40.2972L15.3052 41.2013L17.2426 36.7454L18.9862 37.5203L17.0488 41.9762L19.2445 42.9449L21.6339 37.8432Z" fill="white"/>
<path d="M24.6695 36.6162C24.0237 37.0682 23.4425 37.3911 22.8613 37.5849L21.8926 35.8412C22.4092 35.6475 22.9259 35.3892 23.5071 35.0663C24.0237 34.6788 24.4758 34.2268 24.8632 33.7747C25.2507 33.1935 25.509 32.7415 25.509 32.354C25.5736 31.9665 25.4444 31.7082 25.1215 31.4499C24.9278 31.3207 24.6695 31.2562 24.4758 31.3207C24.2174 31.3853 23.9591 31.5145 23.7008 31.7082C23.4425 31.9019 23.1196 32.1603 22.7321 32.4831C22.0863 32.9998 21.5697 33.3873 21.1177 33.7101C20.6656 34.033 20.149 34.1622 19.6324 34.2268C19.0511 34.2914 18.5345 34.0976 17.9533 33.6456C17.4367 33.2581 17.1138 32.806 16.9201 32.2894C16.6617 31.6436 16.6617 30.9978 16.7909 30.3521C16.9846 29.6417 17.3075 28.9313 17.8887 28.1564C18.2762 27.6397 18.7283 27.1231 19.2449 26.7356C19.7615 26.3482 20.2781 26.0253 20.7948 25.8315L21.828 27.5106C20.7948 27.9626 20.0198 28.5438 19.4386 29.3188C19.0511 29.8354 18.7928 30.3521 18.7928 30.7395C18.7928 31.127 18.922 31.4499 19.1803 31.6436C19.4386 31.8374 19.7615 31.8374 20.149 31.6436C20.5365 31.4499 20.9885 31.127 21.5697 30.6104C22.2155 30.0937 22.7321 29.7063 23.1842 29.3834C23.6362 29.0605 24.1529 28.9313 24.6695 28.8667C25.1861 28.8022 25.7673 28.9959 26.3485 29.4479C26.8006 29.8354 27.1881 30.2875 27.3818 30.8041C27.5755 31.3853 27.5755 31.9665 27.4464 32.6769C27.2526 33.3872 26.9297 34.0976 26.3485 34.8726C25.8319 35.5183 25.2507 36.0996 24.6695 36.6162Z" fill="white"/>
<path d="M34.5501 23.7004L35.8416 25.1857L29.7067 30.4166L22.8613 22.538L28.8671 17.4363L30.1587 18.9216L25.9611 22.4734L27.4464 24.217L31.1274 21.0527L32.3544 22.4734L28.6734 25.6378L30.2233 27.446L34.5501 23.7004Z" fill="white"/>
<path d="M47.2072 14.9823C47.6593 15.3052 48.0468 15.6927 48.2405 16.3385C48.5634 17.178 48.4988 17.9529 47.9822 18.6633C47.4656 19.3737 46.626 19.9549 45.3345 20.4715L40.2973 22.4089L36.5518 12.6575L41.3306 10.8493C42.493 10.3972 43.5263 10.2681 44.3012 10.4618C45.1407 10.6556 45.6574 11.1722 45.9802 11.9471C46.174 12.3992 46.2386 12.9158 46.1094 13.3679C46.0448 13.8199 45.8511 14.272 45.4636 14.5949C46.174 14.5949 46.6906 14.724 47.2072 14.9823ZM39.4578 13.5616L40.3619 15.8864L42.6222 15.0469C43.2034 14.8532 43.5908 14.5949 43.7846 14.272C43.9783 13.9491 44.0429 13.6262 43.9137 13.2387C43.7846 12.8512 43.5263 12.6575 43.1388 12.5283C42.7513 12.4638 42.2993 12.5283 41.7826 12.7221L39.4578 13.5616ZM45.7865 18.0821C46.0448 17.7592 46.0448 17.4363 45.9157 16.9843C45.5928 16.2093 44.8824 16.0156 43.6554 16.4676L41.0077 17.4363L41.9118 19.8257L44.5595 18.7925C45.1407 18.6633 45.5282 18.3404 45.7865 18.0821Z" fill="white"/>
<path d="M57.0873 18.0821L54.7625 15.4344H54.6333L52.5668 15.6927L52.8897 18.5987L50.5003 18.857L49.3379 8.45987L53.8584 7.94324C54.7625 7.81408 55.602 7.87866 56.3124 8.13698C57.0228 8.39529 57.604 8.71819 57.9914 9.23481C58.4435 9.75144 58.7018 10.3972 58.7664 11.1722C58.831 11.9471 58.7664 12.6575 58.4435 13.2387C58.1206 13.8199 57.6685 14.3365 57.0228 14.724L59.7351 17.8238L57.0873 18.0821ZM55.602 10.2035C55.2146 9.94518 54.6333 9.81602 53.923 9.94518L51.9856 10.1389L52.3731 13.7553L54.3104 13.5616C55.0208 13.497 55.5374 13.2387 55.9249 12.9158C56.2478 12.5283 56.377 12.0763 56.3124 11.4951C56.2478 10.9139 55.9895 10.4618 55.602 10.2035Z" fill="white"/>
<path d="M67.8729 16.5968L63.0941 15.8864L61.8671 17.9529L59.4131 17.6946L65.4835 8.00781L67.8729 8.33071L71.0373 19.3091L68.5187 18.9216L67.8729 16.5968ZM67.4208 14.724L66.323 10.5264L64.1273 14.2074L67.4208 14.724Z" fill="white"/>
<path d="M84.3397 13.8199L80.1421 23.3776L78.3339 22.6026L76.0736 14.724L73.5551 20.5361L71.3594 19.5674L75.557 10.0098L77.3652 10.7847L79.5609 18.6633L82.0794 12.8512L84.3397 13.8199Z" fill="white"/>
<path d="M88.3439 16.2739L92.0248 19.3091C92.9289 20.0195 93.5102 20.859 93.9622 21.6985C94.3497 22.6026 94.4788 23.5067 94.3497 24.4108C94.2205 25.3149 93.8331 26.1545 93.1873 26.994C92.5415 27.7689 91.7665 28.3501 90.8624 28.673C90.0229 28.9959 89.0542 28.9959 88.1501 28.8022C87.1814 28.6085 86.2773 28.0918 85.4378 27.3815L81.7568 24.3463L88.3439 16.2739ZM86.5357 25.767C87.3106 26.4128 88.1501 26.7357 88.9897 26.6711C89.8292 26.6065 90.6041 26.219 91.1853 25.4441C91.8311 24.6692 92.0894 23.8942 91.9603 23.0547C91.8311 22.2152 91.3791 21.4402 90.6041 20.7944L88.9251 19.3737L84.792 24.3463L86.5357 25.767Z" fill="white"/>
<path d="M101.905 29.7709L103.132 31.8374L95.8992 36.2287L98.6115 40.6847L96.9325 41.7179L92.9932 35.1955L101.905 29.7709Z" fill="white"/>
<path d="M98.3538 44.1719C98.5476 43.2032 98.935 42.3637 99.5808 41.6533C100.227 40.9429 101.002 40.4263 102.035 40.1034C103.004 39.7805 103.972 39.7805 104.876 39.9743C105.78 40.168 106.62 40.6846 107.33 41.3304C108.041 42.0408 108.557 42.8803 108.88 43.9136C109.203 44.9468 109.268 45.9155 109.074 46.8842C108.88 47.8529 108.493 48.6924 107.847 49.4028C107.201 50.1131 106.426 50.6297 105.458 50.9526C104.489 51.2755 103.52 51.2755 102.616 51.0818C101.712 50.8235 100.872 50.3714 100.162 49.7256C99.4517 49.0153 98.935 48.1758 98.6121 47.1425C98.2247 46.1092 98.1601 45.1406 98.3538 44.1719ZM101.454 47.982C101.841 48.3695 102.358 48.6278 102.939 48.757C103.52 48.8861 104.101 48.8215 104.747 48.6278C105.393 48.4341 105.845 48.1112 106.297 47.7237C106.684 47.2717 106.943 46.8196 107.072 46.2384C107.201 45.6572 107.137 45.076 107.007 44.4948C106.814 43.9136 106.555 43.3969 106.103 43.0095C105.716 42.622 105.199 42.3637 104.618 42.2345C104.037 42.1054 103.456 42.1699 102.81 42.3637C102.164 42.5574 101.712 42.8803 101.26 43.2678C100.872 43.7198 100.614 44.1719 100.485 44.7531C100.356 45.3343 100.42 45.9155 100.55 46.4967C100.743 47.1425 101.002 47.5945 101.454 47.982Z" fill="white"/>
<path d="M106.038 60.6395L106.103 62.8351L101.841 62.9643C101.389 62.3831 101.066 61.7373 100.807 61.0269C100.549 60.3166 100.42 59.5416 100.42 58.7667C100.42 57.6688 100.614 56.7002 101.066 55.7961C101.518 54.892 102.099 54.2462 102.938 53.7295C103.778 53.2129 104.682 52.9546 105.715 52.89C106.749 52.89 107.653 53.0838 108.492 53.5358C109.332 53.9879 109.978 54.6982 110.494 55.5377C111.011 56.3773 111.205 57.3459 111.269 58.4438C111.269 59.3479 111.14 60.1874 110.882 60.9623C110.623 61.7373 110.171 62.3831 109.59 62.8997L108.105 61.4144C108.88 60.6395 109.267 59.7354 109.203 58.7021C109.203 58.0563 109.009 57.4751 108.751 56.9585C108.428 56.4418 108.04 56.0544 107.524 55.7961C107.007 55.5377 106.426 55.4086 105.78 55.4086C105.134 55.4086 104.553 55.6023 104.036 55.8606C103.52 56.1835 103.132 56.571 102.874 57.0876C102.616 57.6043 102.486 58.1855 102.486 58.8312C102.486 59.5416 102.68 60.1228 103.003 60.704L106.038 60.6395Z" fill="white"/>
<path d="M100.55 66.7744C101.195 66.064 102.035 65.5474 102.939 65.2891C103.843 65.0308 104.812 65.0308 105.78 65.2245C106.749 65.4183 107.589 65.9349 108.299 66.6453C108.945 67.291 109.461 68.1306 109.655 69.0992C109.914 70.0679 109.914 71.0366 109.591 72.1344C109.332 73.1677 108.88 74.0718 108.17 74.7822C107.524 75.4925 106.685 76.0092 105.78 76.2675C104.876 76.5258 103.908 76.5904 102.939 76.3321C101.97 76.0737 101.131 75.6217 100.42 74.9113C99.7746 74.201 99.258 73.426 99.0643 72.4573C98.806 71.4887 98.806 70.52 99.1288 69.4221C99.4517 68.3889 99.9038 67.4848 100.55 66.7744ZM101.131 71.6178C101.26 72.199 101.583 72.6511 101.97 73.0385C102.422 73.426 102.939 73.6843 103.52 73.8781C104.101 74.0718 104.747 74.0718 105.328 73.8781C105.91 73.7489 106.362 73.426 106.749 73.0385C107.137 72.6511 107.395 72.1344 107.589 71.5532C107.718 70.972 107.718 70.3908 107.589 69.8096C107.46 69.2284 107.137 68.7764 106.749 68.3889C106.297 68.0014 105.78 67.7431 105.199 67.5494C104.618 67.3556 103.972 67.3556 103.391 67.5494C102.81 67.6785 102.358 68.0014 101.97 68.3889C101.583 68.7764 101.325 69.293 101.131 69.8742C101.002 70.52 101.002 71.1012 101.131 71.6178Z" fill="white"/>
<path d="M30.6753 101.324C30.2879 100.872 30.0295 100.484 29.9004 100.097L31.0628 99.322C31.192 99.7095 31.4503 100.032 31.7086 100.42C32.0315 100.743 32.3544 101.066 32.7419 101.324C33.1293 101.582 33.5168 101.711 33.7751 101.711C34.0334 101.711 34.2272 101.582 34.3563 101.389C34.4209 101.259 34.4855 101.066 34.4209 100.937C34.3563 100.743 34.2917 100.614 34.098 100.42C33.9688 100.226 33.7751 100.032 33.4522 99.7741C33.0647 99.3866 32.7419 98.9992 32.4835 98.6763C32.2252 98.3534 32.0961 98.0305 32.0315 97.643C31.9669 97.2555 32.0961 96.8681 32.3544 96.416C32.6127 96.0285 32.871 95.7702 33.2585 95.5765C33.646 95.3827 34.098 95.3182 34.6146 95.4473C35.1313 95.5119 35.6479 95.7056 36.2291 96.0931C36.6166 96.3514 37.004 96.6097 37.3269 96.9972C37.6498 97.3847 37.9081 97.7076 38.1019 98.0305L36.9395 98.87C36.552 98.1596 36.0999 97.643 35.5187 97.3201C35.1313 97.0618 34.7438 96.9326 34.4855 96.9326C34.2272 96.9326 34.0334 97.0618 33.8397 97.2555C33.7105 97.4493 33.7105 97.7076 33.9043 97.9659C34.0334 98.2242 34.3563 98.5471 34.7438 98.9346C35.1313 99.322 35.4542 99.7095 35.7125 100.032C35.9708 100.355 36.0999 100.678 36.1645 101.066C36.2291 101.453 36.1645 101.841 35.9062 102.293C35.7125 102.68 35.3896 102.938 35.0021 103.068C34.6146 103.261 34.1626 103.261 33.646 103.197C33.1293 103.132 32.6127 102.874 32.0315 102.551C31.5149 102.099 31.0628 101.711 30.6753 101.324Z" fill="white"/>
<path d="M39.4583 97.9014L41.0082 98.6117L37.8438 105.328L36.2939 104.618L39.4583 97.9014Z" fill="white"/>
<path d="M48.7572 101.389L46.5615 108.492L45.2054 108.04L43.0097 102.616L41.6535 106.942L40.0391 106.426L42.2347 99.322L43.5909 99.7741L45.7866 105.199L47.1427 100.872L48.7572 101.389Z" fill="white"/>
<path d="M50.6298 108.815C50.0486 108.428 49.6612 107.911 49.3383 107.265C49.0154 106.619 48.9508 105.974 49.0799 105.263C49.1445 104.553 49.4028 103.907 49.8549 103.391C50.2424 102.874 50.8236 102.486 51.4694 102.228C52.1151 101.97 52.8255 101.905 53.6005 101.97C54.2462 102.034 54.8274 102.228 55.2795 102.486C55.7961 102.745 56.1836 103.132 56.4419 103.584L55.2149 104.488C54.7629 103.843 54.1817 103.455 53.4713 103.391C53.0192 103.326 52.5672 103.391 52.1797 103.52C51.7923 103.649 51.4694 103.907 51.211 104.23C50.9527 104.553 50.8236 104.94 50.759 105.392C50.6944 105.845 50.759 106.297 50.8882 106.684C51.0173 107.072 51.2756 107.394 51.5985 107.653C51.9214 107.911 52.3089 108.04 52.7609 108.105C53.4713 108.169 54.1817 107.976 54.6983 107.459L55.667 108.621C55.2795 109.009 54.7629 109.267 54.2462 109.461C53.7296 109.655 53.0838 109.655 52.438 109.59C51.8568 109.461 51.211 109.203 50.6298 108.815Z" fill="white"/>
<path d="M63.2878 108.234L63.3524 109.59L57.6049 109.784L57.4111 102.357L63.0295 102.228L63.0941 103.584L59.1548 103.713L59.2193 105.328L62.642 105.199V106.555L59.2193 106.684L59.2839 108.428L63.2878 108.234Z" fill="white"/>
<path d="M69.2287 101.066L70.7786 108.363L69.0995 108.751L67.8725 102.809L66.3872 103.132L66.1289 101.776L69.2287 101.066Z" fill="white"/>
<path d="M75.2989 100.032C76.0739 100.42 76.6551 101.195 77.0425 102.357C77.3009 103.132 77.43 103.907 77.3008 104.553C77.1717 105.199 76.9134 105.78 76.4613 106.297C76.0093 106.749 75.4281 107.136 74.7177 107.394C74.3302 107.524 73.9428 107.588 73.6199 107.653C73.2324 107.717 72.9095 107.653 72.6512 107.588L72.8449 106.167C73.297 106.297 73.749 106.232 74.2657 106.038C74.8469 105.845 75.2989 105.522 75.4926 105.005C75.751 104.553 75.751 103.972 75.5572 103.261C75.2989 103.843 74.7823 104.23 74.0073 104.488C73.5553 104.618 73.1032 104.682 72.7158 104.618C72.2637 104.553 71.8762 104.424 71.5534 104.165C71.2305 103.907 70.9721 103.584 70.843 103.132C70.7138 102.68 70.6493 102.228 70.7784 101.776C70.9076 101.324 71.1013 100.937 71.4888 100.614C71.8117 100.291 72.2637 100.032 72.7158 99.8387C73.6199 99.5804 74.524 99.645 75.2989 100.032ZM74.6531 102.616C74.7823 102.357 74.8469 102.034 74.7177 101.711C74.5885 101.389 74.3948 101.195 74.1365 101.066C73.8782 100.937 73.4907 100.937 73.1678 101.066C72.8449 101.195 72.5866 101.389 72.3929 101.647C72.2637 101.905 72.1991 102.228 72.3283 102.551C72.4575 102.874 72.6512 103.068 72.9095 103.197C73.1678 103.326 73.4907 103.326 73.8782 103.197C74.2657 103.132 74.524 102.938 74.6531 102.616Z" fill="white"/>
<path d="M83.4361 99.9033C83.7589 100.097 84.0173 100.355 84.1464 100.678C84.3402 101.066 84.4047 101.518 84.3402 101.905C84.2756 102.357 84.0818 102.745 83.6944 103.132C83.3069 103.52 82.9194 103.843 82.3382 104.165C81.757 104.424 81.2404 104.618 80.7238 104.682C80.2071 104.747 79.7551 104.682 79.3676 104.488C78.9801 104.295 78.6572 104.036 78.4635 103.584C78.2698 103.261 78.2052 102.874 78.2698 102.551C78.3343 102.228 78.4635 101.841 78.6572 101.518C78.3343 101.518 78.076 101.389 77.8177 101.259C77.5594 101.13 77.3657 100.872 77.2365 100.549C77.0428 100.162 76.9782 99.7741 77.0428 99.3866C77.1074 98.9992 77.3011 98.6117 77.624 98.2888C77.9469 97.9659 78.3343 97.643 78.851 97.3847C79.3676 97.1264 79.8197 96.9972 80.3363 96.9327C80.7883 96.8681 81.2404 96.9327 81.5633 97.1264C81.9508 97.3201 82.2091 97.5784 82.4028 97.9659C82.532 98.2888 82.5965 98.5471 82.5965 98.87C82.5965 99.1929 82.4674 99.4512 82.3382 99.7095C82.7903 99.645 83.1132 99.7095 83.4361 99.9033ZM78.851 99.0638C78.7218 99.3221 78.7864 99.5804 78.9155 99.8387C79.0447 100.097 79.2384 100.226 79.4968 100.291C79.7551 100.355 80.0134 100.291 80.3363 100.097C80.6592 99.9033 80.8529 99.7095 80.9821 99.5158C81.1112 99.2575 81.1112 98.9992 80.9821 98.8054C80.8529 98.5471 80.6592 98.418 80.4009 98.3534C80.1425 98.2888 79.8197 98.3534 79.5613 98.5471C79.1739 98.6117 78.9801 98.8054 78.851 99.0638ZM82.5965 102.293C82.7257 102.034 82.7257 101.711 82.5965 101.453C82.4674 101.195 82.2091 101.001 81.8862 100.937C81.5633 100.872 81.2404 100.937 80.8529 101.13C80.4654 101.324 80.2071 101.582 80.078 101.841C79.9488 102.099 79.9488 102.422 80.078 102.68C80.2071 103.003 80.4654 103.132 80.7883 103.197C81.1112 103.261 81.4341 103.197 81.8216 103.003C82.2091 102.809 82.4674 102.551 82.5965 102.293Z" fill="white"/>
<path d="M84.469 94.0266L88.6021 100.226L87.1813 101.195L83.8232 96.1577L82.5962 96.9972L81.8213 95.8348L84.469 94.0266Z" fill="white"/>
</g>
<defs>
<clipPath id="clip0">
<rect width="118.696" height="118.696" fill="white"/>
</clipPath>
</defs>
</svg>
