<svg width="140" height="106" viewBox="0 0 140 106" fill="none" xmlns="http://www.w3.org/2000/svg">
<g clip-path="url(#clip0)">
<path fill-rule="evenodd" clip-rule="evenodd" d="M3.14258 79.5557H138.241V18.4367C138.241 10.1023 131.455 3.15698 123.035 3.15698H18.349C10.0546 3.15698 3.14258 10.1023 3.14258 18.4367V79.5557Z" fill="white"/>
<path d="M138.367 79.6819H3.0166V18.4367C3.0166 9.97604 9.92863 3.0307 18.3487 3.0307H123.035C131.455 3.0307 138.367 9.97604 138.367 18.4367V79.6819ZM3.26795 79.4294H137.99V18.4367C137.99 10.1023 131.203 3.28326 122.909 3.28326H18.3487C10.0543 3.28326 3.26795 10.1023 3.26795 18.4367V79.4294Z" fill="#231F20"/>
<path fill-rule="evenodd" clip-rule="evenodd" d="M1.75977 79.5557H138.618V91.6784C138.618 98.3712 133.214 103.801 126.553 103.801H13.9501C7.28939 103.801 1.88544 98.3712 1.88544 91.6784V79.5557H1.75977Z" fill="#F48120"/>
<path d="M126.553 104.054H13.9498C7.16341 104.054 1.63379 98.4975 1.63379 91.6784V79.3031H138.743V91.6784C138.869 98.4975 133.339 104.054 126.553 104.054ZM1.88514 79.6819V91.6784C1.88514 98.3712 7.28908 103.675 13.8241 103.675H126.427C133.088 103.675 138.366 98.2449 138.366 91.6784V79.6819H1.88514Z" fill="#231F20"/>
<path d="M123.034 105.695H16.9659C7.66607 105.695 0 97.9924 0 88.5214V17.1739C0 7.70301 7.66607 0 16.9659 0H122.908C132.334 0 139.874 7.70301 139.874 17.0476V88.5214C140 97.9924 132.334 105.695 123.034 105.695ZM16.9659 3.66209C9.55117 3.66209 3.51885 9.72347 3.51885 17.1739V88.6477C3.51885 96.0982 9.55117 102.16 16.9659 102.16H122.908C130.323 102.16 136.355 96.0982 136.355 88.6477V17.1739C136.355 9.72347 130.323 3.66209 122.908 3.66209H16.9659Z" fill="#2E3191"/>
<path d="M89.605 72.1052L94.7576 64.4022H97.5224L102.675 72.1052H103.806L97.7738 63.5182H94.5062L88.5996 72.1052H89.605Z" fill="#004784"/>
<path d="M105.44 69.3271C105.44 70.8424 106.571 72.1052 108.079 72.1052H115.871C117.253 72.1052 118.51 71.095 118.51 69.7059V63.5182H117.379V69.7059C117.379 70.4636 116.751 71.2213 115.997 71.2213H107.954C107.074 71.2213 106.446 70.4636 106.446 69.5796V63.5182H105.314V69.3271H105.44Z" fill="#004784"/>
<path d="M87.2171 69.4534C87.2171 68.6957 86.9658 68.4431 86.8401 68.4431L86.7144 68.3168L86.9658 68.1906C87.3428 67.938 87.3428 67.3066 87.3428 67.1803V65.7913C87.3428 64.5285 86.3374 63.5182 85.0807 63.5182H74.3984V72.1052H75.5295V64.4022H84.8293C85.5834 64.4022 86.3374 65.0336 86.3374 65.7913V67.1803C86.3374 67.5592 86.0861 68.0643 85.9604 68.1906L85.4577 68.3168L85.5834 68.4431C85.8347 68.6957 85.9604 68.822 85.9604 69.4534V72.1052H87.0914V69.4534H87.2171Z" fill="#004784"/>
<path d="M58.5635 63.5182V72.1052H68.743C69.9998 72.1052 71.2565 71.2213 71.2565 69.8322V65.7913C71.2565 64.4022 69.9997 63.5182 68.6173 63.5182H58.5635Z" fill="#004784"/>
<path d="M55.6728 72.1052V71.2213H44.1109V64.4022H55.6728V63.5182H43.1055V72.1052H55.6728Z" fill="#004784"/>
<path d="M13.4468 69.7059C13.4468 69.3271 13.4468 65.7913 13.4468 65.7913C13.5725 65.0336 13.8238 64.5285 14.9549 64.5285H25.0087V63.6445H14.9549C13.6981 63.6445 12.4414 64.5285 12.4414 65.9175V69.8322C12.4414 71.095 13.5725 72.2315 14.8292 72.2315H24.8831V71.3475H14.8292C13.9495 71.2213 13.4468 70.4636 13.4468 69.7059Z" fill="#004784"/>
<path d="M100.915 72.1052H102.172L100.413 69.8322H91.7412L90.1074 72.1052H91.3642L92.2439 70.7161H99.9099L100.915 72.1052Z" fill="#004784"/>
<path d="M44.6143 67.5592H55.7992V66.549H45.6196V65.7913H55.7992V64.9073H44.6143V67.5592Z" fill="#004784"/>
<path d="M44.6143 68.0643V70.7161H55.7992V69.7059H45.6196V68.9482H55.7992V68.0643H44.6143Z" fill="#004784"/>
<path d="M13.9502 69.7059C13.9502 70.2111 14.3272 70.7162 14.8299 70.7162H24.8838V69.7059H14.8299V65.7913H24.8838V64.9073H14.8299C14.3272 64.9073 13.9502 65.2862 13.9502 65.7913V69.7059Z" fill="#004784"/>
<path d="M68.7435 64.4022C69.4975 64.4022 70.2516 64.9073 70.2516 65.7913V69.7059C70.2516 70.5899 69.4975 71.2213 68.7435 71.2213H59.5693V64.4022H68.7435Z" fill="white"/>
<path d="M115.871 69.7059H107.954V63.5182H106.948V69.7059C106.948 70.211 107.325 70.7161 107.954 70.7161H115.871C116.374 70.7161 116.876 70.3373 116.876 69.7059V63.5182H115.871V69.7059Z" fill="#004784"/>
<path d="M75.7812 72.1052H76.9123V69.4533H84.5784V72.1052H85.7094V69.4533C85.7094 68.822 85.2067 68.5694 84.5784 68.5694H75.9069V72.1052H75.7812Z" fill="#004784"/>
<path d="M84.5777 68.1906C85.0804 68.1906 85.7088 67.8117 85.7088 67.1804V66.0439C85.7088 65.4125 85.2061 64.9073 84.7034 64.9073H75.9062V68.1906H84.5777Z" fill="#004784"/>
<path d="M68.7427 64.9073H60.0713V70.7162H68.7427C69.2454 70.7162 69.7481 70.3373 69.7481 69.7059V65.665C69.7481 65.2862 69.2454 64.9073 68.7427 64.9073Z" fill="#004784"/>
<path d="M29.2822 67.5592H38.8334V63.5182H37.9537V66.5489H30.1619V63.5182H29.2822V67.5592Z" fill="#004784"/>
<path d="M29.2822 68.0643V72.1052H30.1619V68.9482H37.9537V72.1052H38.8334V68.0643H29.2822Z" fill="#004784"/>
<path d="M97.2708 64.9073H95.0086L92.1182 69.2008H100.161L97.2708 64.9073Z" fill="#004784"/>
<path d="M68.7435 65.7913V69.7059H61.2031V65.7913H68.7435Z" fill="white"/>
<path d="M76.9121 65.7913H84.5782L84.4525 67.3066H76.9121V65.7913Z" fill="white"/>
<path d="M98.4025 68.1906H94.0039L95.512 65.7913H96.8944L98.4025 68.1906Z" fill="white"/>
<path d="M68.4915 47.4808L57.6836 60.4875H64.7213L74.3981 48.7436L84.5777 60.4875H91.364L80.1791 47.4808H68.4915Z" fill="#F58939"/>
<path d="M56.6787 42.9348L42.1006 60.4876H50.8977L65.6015 42.9348H56.6787Z" fill="#F58939"/>
<path d="M89.6045 40.283L96.7679 54.6787H108.581V46.0918H95.2598L92.2436 40.283H89.6045Z" fill="#F58939"/>
<path d="M71.6338 27.5287L81.185 38.8938H88.5997L79.1742 27.5287H71.6338Z" fill="#F58939"/>
<path d="M71.6342 29.2967V41.0406L65.7275 46.0918H80.18L80.3056 39.6516L71.6342 29.2967Z" fill="#F58939"/>
<path d="M40.5928 51.3955L32.9268 60.4876H39.8388L47.6305 51.3955H40.5928Z" fill="#F58939"/>
<path d="M40.5928 36.3683L50.0183 47.9859L53.9141 43.4399L48.0075 36.242L40.5928 36.3683Z" fill="#F58939"/>
<path d="M57.6836 23.993L67.7375 36.3683H69.9996V29.5492L65.3497 23.993H57.6836Z" fill="#F58939"/>
<path d="M61.831 11.9965C58.9405 11.9965 56.5527 14.3958 56.5527 17.3002C56.5527 20.2046 58.9405 22.6039 61.831 22.6039C64.7215 22.6039 67.1093 20.2046 67.1093 17.3002C67.1093 14.3958 64.7215 11.9965 61.831 11.9965Z" fill="#F58939"/>
<path d="M57.3066 25.5083L57.4323 41.5457H66.3551V36.4946L57.3066 25.5083Z" fill="#F58939"/>
<path d="M75.7814 17.4265C73.3936 17.4265 71.3828 19.4469 71.3828 21.8462C71.3828 24.2455 73.3936 26.266 75.7814 26.266C78.1692 26.266 80.1799 24.2455 80.1799 21.8462C80.1799 19.4469 78.2948 17.4265 75.7814 17.4265Z" fill="#F58939"/>
<path d="M40.7178 38.3888V49.8802H48.6352L49.3892 49.1225L40.7178 38.3888Z" fill="#F58939"/>
<path d="M44.9906 27.15C42.8542 27.15 41.0947 28.9179 41.0947 31.0646C41.0947 33.2113 42.8542 34.9792 44.9906 34.9792C47.127 34.9792 48.8865 33.2113 48.8865 31.0646C48.8865 28.9179 47.127 27.15 44.9906 27.15Z" fill="#F58939"/>
<path d="M97.6481 36.1157C95.763 36.1157 94.2549 37.6311 94.2549 39.5252C94.2549 41.4194 95.763 42.9348 97.6481 42.9348C99.5332 42.9348 101.041 41.4194 101.041 39.5252C101.167 37.7573 99.6588 36.1157 97.6481 36.1157Z" fill="#F58939"/>
<path d="M106.697 55.689C105.691 55.689 104.812 56.5729 104.812 57.5831C104.812 58.5934 105.691 59.4773 106.697 59.4773C107.702 59.4773 108.582 58.5934 108.582 57.5831C108.582 56.5729 107.702 55.689 106.697 55.689Z" fill="#F58939"/>
<path d="M99.1566 55.689C98.1512 55.689 97.2715 56.5729 97.2715 57.5831C97.2715 58.5934 98.1512 59.4773 99.1566 59.4773C100.162 59.4773 101.042 58.5934 101.042 57.5831C101.042 56.5729 100.162 55.689 99.1566 55.689Z" fill="#F58939"/>
<path d="M87.343 40.283C86.4633 40.283 85.835 40.9144 85.835 41.7983C85.835 42.6823 86.4633 43.3137 87.343 43.3137C88.2228 43.3137 88.8511 42.6823 88.8511 41.7983C88.8511 40.9144 88.2228 40.283 87.343 40.283Z" fill="#F58939"/>
<path d="M122.657 63.5182V72.1052H123.663V63.5182H122.657Z" fill="#004784"/>
<path d="M122.029 72.1052V63.5182H120.897L121.023 72.1052H122.029Z" fill="#004784"/>
<path d="M28.9048 72.1052V63.5182H27.8994V72.1052H28.9048Z" fill="#004784"/>
<path d="M39.4609 63.5182V72.1052H40.215V63.5182H39.4609Z" fill="#004784"/>
<path d="M138.241 77.7877H1.75977V81.3235H138.241V77.7877Z" fill="#2E3191"/>
<path d="M19.9822 92.3098L22.747 92.6887C22.6213 93.3201 22.37 93.9514 21.993 94.4566C21.616 94.9617 21.2389 95.3405 20.6106 95.5931C20.1079 95.8456 19.3538 95.9719 18.4741 95.9719C17.5944 95.9719 16.966 95.8456 16.4634 95.7194C15.9607 95.5931 15.458 95.2142 15.081 94.8354C14.7039 94.4566 14.3269 93.9514 14.2012 93.4463C13.9499 92.9412 13.8242 92.1835 13.8242 91.2996C13.8242 90.4156 13.9499 89.658 14.2012 89.0266C14.4526 88.5214 14.7039 88.1426 14.9553 87.8901C15.2066 87.6375 15.7093 87.2587 15.9607 87.1324C16.589 86.8798 17.2174 86.7535 18.2228 86.7535C19.4795 86.7535 20.4849 87.0061 21.1133 87.5112C21.7416 88.0163 22.2443 88.774 22.4957 89.7842L19.7309 90.1631C19.6052 89.7842 19.4795 89.5317 19.2282 89.2791C18.9768 89.0266 18.7255 89.0266 18.3485 89.0266C17.8458 89.0266 17.4687 89.2791 17.2174 89.658C16.966 90.0368 16.7147 90.6682 16.7147 91.4259C16.7147 92.1835 16.8404 92.6887 17.2174 93.0675C17.5944 93.4463 17.8458 93.5726 18.3485 93.5726C18.7255 93.5726 19.1025 93.4463 19.3538 93.1938C19.6052 93.1938 19.8565 92.8149 19.9822 92.3098Z" fill="white"/>
<path d="M32.2986 95.7193H29.5338V94.3303C29.1568 94.9617 28.6541 95.3405 28.2771 95.5931C27.9001 95.8456 27.3974 95.9719 26.769 95.9719C26.015 95.9719 25.2609 95.7193 24.8839 95.0879C24.3812 94.5828 24.1299 93.6989 24.1299 92.5624V87.0061H27.146V91.8047C27.146 92.3098 27.2717 92.8149 27.3974 92.9412C27.5231 93.1938 27.7744 93.32 28.1514 93.32C28.5284 93.32 28.7798 93.1938 29.0311 92.8149C29.2825 92.5624 29.4082 91.931 29.4082 91.1733V86.8798H32.4243V95.7193H32.2986Z" fill="white"/>
<path d="M42.7291 92.1835H36.8225C36.8225 92.6887 36.9482 93.1938 37.1995 93.4463C37.4509 93.8252 37.8279 94.0777 38.3306 94.0777C38.5819 94.0777 38.9589 93.9514 39.2103 93.8252C39.336 93.6989 39.5873 93.5726 39.713 93.3201L42.6035 93.5726C42.1008 94.4566 41.5981 95.088 40.9697 95.4668C40.2157 95.7193 39.336 95.9719 38.2049 95.9719C37.1995 95.9719 36.3198 95.8456 35.8171 95.4668C35.3144 95.088 34.6861 94.5828 34.309 93.9514C33.932 93.3201 33.6807 92.4361 33.6807 91.4259C33.6807 90.0368 34.0577 88.9003 34.8117 88.0163C35.5658 87.1324 36.6968 86.7535 37.9536 86.7535C39.0846 86.7535 39.9643 87.0061 40.5927 87.3849C41.2211 87.7638 41.7238 88.2689 42.1008 89.0266C42.4778 89.7842 42.6035 90.6682 42.6035 91.8047V92.1835H42.7291ZM39.713 90.5419C39.713 89.9105 39.4616 89.4054 39.2103 89.1528C38.9589 88.9003 38.5819 88.774 38.2049 88.774C37.7022 88.774 37.3252 89.0266 37.0738 89.4054C36.9482 89.658 36.8225 90.0368 36.6968 90.5419H39.713Z" fill="white"/>
<path d="M43.4834 93.32L46.3739 93.0675C46.4996 93.4463 46.6252 93.6989 46.8766 93.9514C47.1279 94.0777 47.3793 94.204 47.7563 94.204C48.1333 94.204 48.5103 94.0777 48.636 93.9514C48.7617 93.8252 48.8874 93.5726 48.8874 93.4463C48.8874 93.1938 48.7617 93.0675 48.5103 92.9412C48.3847 92.8149 47.882 92.6886 47.2536 92.5624C46.2482 92.3098 45.4942 92.1835 45.1172 91.931C44.7401 91.8047 44.3631 91.4259 44.1118 91.047C43.8604 90.6682 43.7347 90.1631 43.7347 89.658C43.7347 89.0266 43.8604 88.5215 44.2374 88.1426C44.4888 87.7638 44.9915 87.3849 45.4942 87.2587C45.9969 87.0061 46.7509 87.0061 47.6306 87.0061C48.5103 87.0061 49.2644 87.1324 49.6414 87.2587C50.0184 87.3849 50.3954 87.6375 50.7725 88.0163C51.1495 88.3952 51.2751 88.774 51.5265 89.4054L48.7617 89.658C48.636 89.4054 48.5103 89.1528 48.3847 89.0266C48.1333 88.9003 47.882 88.774 47.5049 88.774C47.1279 88.774 46.8766 88.9003 46.7509 89.0266C46.4996 88.9003 46.4996 89.0266 46.4996 89.2791C46.4996 89.5317 46.6252 89.658 46.7509 89.7842C46.8766 89.9105 47.3793 90.0368 48.0076 90.0368C49.013 90.1631 49.7671 90.2893 50.1441 90.5419C50.5211 90.7945 51.0238 91.047 51.2751 91.5521C51.5265 91.931 51.6522 92.4361 51.6522 92.9412C51.6522 93.4463 51.5265 93.9514 51.2751 94.4566C51.0238 94.9617 50.5211 95.3405 50.0184 95.5931C49.5157 95.8456 48.636 95.9719 47.6306 95.9719C46.2482 95.9719 45.2428 95.7193 44.6145 95.3405C44.1118 94.8354 43.7347 94.204 43.4834 93.32Z" fill="white"/>
<path d="M56.6788 83.5966V87.0061H58.3125V89.5317H56.6788V92.6886C56.6788 93.0675 56.6788 93.32 56.8044 93.4463C56.9301 93.5726 57.0558 93.6989 57.3071 93.6989C57.5585 93.6989 57.8098 93.5726 58.1868 93.4463L58.4382 95.7193C57.6842 95.8456 57.0558 95.9719 56.4274 95.9719C55.6734 95.9719 55.1707 95.8456 54.7937 95.593C54.4166 95.3405 54.1653 95.0879 54.0396 94.7091C53.914 94.3303 53.7883 93.5726 53.7883 92.5624V89.4054H52.6572V86.8798H53.7883V85.2382L56.6788 83.5966Z" fill="white"/>
<path d="M62.4602 89.7842L59.5697 89.4054C59.6954 88.9003 59.8211 88.3952 60.0724 88.0163C60.3237 87.6375 60.5751 87.3849 60.9521 87.1324C61.2035 87.0061 61.5805 86.8798 62.0832 86.7535C62.5859 86.6273 63.0886 86.6273 63.5912 86.6273C64.471 86.6273 65.225 86.6273 65.7277 86.7535C66.2304 86.8798 66.7331 87.1324 67.1101 87.5112C67.3614 87.7638 67.6128 88.1426 67.7385 88.5214C67.8641 89.0266 67.9898 89.4054 67.9898 89.7842V93.6989C67.9898 94.0777 67.9898 94.4565 68.1155 94.7091C68.1155 94.9617 68.2412 95.2142 68.3668 95.5931H65.602C65.4763 95.3405 65.4763 95.2142 65.3507 95.0879C65.3507 94.9617 65.225 94.8354 65.225 94.5828C64.848 94.9617 64.471 95.3405 64.0939 95.4668C63.4656 95.8456 62.8372 95.9719 62.2088 95.9719C61.3291 95.9719 60.5751 95.7193 60.0724 95.2142C59.5697 94.7091 59.3184 94.0777 59.3184 93.4463C59.3184 92.8149 59.444 92.1835 59.821 91.8047C60.1981 91.4259 60.8264 91.047 61.7061 90.7945C62.8372 90.5419 63.5912 90.4156 63.8426 90.2893C64.0939 90.1631 64.471 90.0368 64.848 89.9105C64.848 89.5317 64.7223 89.1528 64.5966 89.0266C64.471 88.9003 64.2196 88.774 63.8426 88.774C63.3399 88.774 62.9629 88.9003 62.7115 89.0266C62.7115 89.1528 62.5859 89.4054 62.4602 89.7842ZM64.9737 91.5521C64.5966 91.6784 64.0939 91.8047 63.7169 91.931C63.0886 92.0573 62.7115 92.3098 62.5859 92.4361C62.4602 92.5624 62.3345 92.8149 62.3345 93.0675C62.3345 93.32 62.4602 93.5726 62.5859 93.6989C62.7115 93.8251 62.9629 93.9514 63.3399 93.9514C63.7169 93.9514 63.9683 93.8251 64.2196 93.6989C64.471 93.5726 64.7223 93.32 64.848 93.0675C64.9737 92.8149 64.9737 92.4361 64.9737 92.0573V91.5521Z" fill="white"/>
<path d="M74.6498 87.0061H77.4146V88.2689C77.7916 87.7638 78.1686 87.3849 78.6713 87.1324C79.0483 86.8798 79.551 86.7535 80.1794 86.7535C80.8078 86.7535 81.3105 86.8798 81.6875 87.1324C82.0645 87.3849 82.3159 87.7638 82.5672 88.2689C83.0699 87.6375 83.4469 87.2587 83.8239 87.1324C84.201 86.8798 84.7037 86.8798 85.2063 86.8798C86.0861 86.8798 86.7144 87.1324 87.0914 87.7638C87.4685 88.3952 87.8455 89.1528 87.8455 90.4156V95.9719H84.8293V90.9208C84.8293 90.5419 84.7037 90.1631 84.578 90.0368C84.3266 89.7842 84.0753 89.5317 83.8239 89.5317C83.4469 89.5317 83.1956 89.658 82.9442 89.9105C82.6929 90.1631 82.5672 90.6682 82.5672 91.2996V95.8456H79.551V90.9208C79.551 90.5419 79.551 90.2894 79.551 90.1631C79.4254 89.9105 79.4254 89.7842 79.174 89.658C79.0483 89.5317 78.797 89.4054 78.6713 89.4054C78.2943 89.4054 78.043 89.5317 77.7916 89.7842C77.5403 90.0368 77.4146 90.5419 77.4146 91.1733V95.7194H74.3984V87.0061H74.6498Z" fill="white"/>
<path d="M98.151 92.1835H92.2444C92.2444 92.6886 92.37 93.1938 92.6214 93.4463C92.8727 93.8252 93.2498 94.0777 93.7524 94.0777C94.0038 94.0777 94.3808 93.9514 94.6322 93.8252C94.7578 93.6989 95.0092 93.5726 95.1348 93.32L98.0253 93.5726C97.5226 94.4565 97.0199 95.0879 96.3916 95.4668C95.7632 95.8456 94.8835 96.0982 93.6268 96.0982C92.6214 96.0982 91.7417 95.9719 91.239 95.5931C90.7363 95.2142 90.1079 94.7091 89.7309 94.0777C89.3539 93.4463 89.1025 92.5624 89.1025 91.5521C89.1025 90.1631 89.4796 89.0266 90.2336 88.1426C90.9876 87.2587 92.1187 86.8798 93.3754 86.8798C94.5065 86.8798 95.3862 87.1324 96.0146 87.5112C96.6429 87.8901 97.1456 88.3952 97.5226 89.1528C97.8997 89.9105 98.0253 90.7945 98.0253 91.931V92.1835H98.151ZM95.1348 90.5419C95.1348 89.9105 94.8835 89.4054 94.6322 89.1528C94.3808 88.9003 94.0038 88.774 93.6268 88.774C93.1241 88.774 92.7471 89.0266 92.4957 89.4054C92.37 89.658 92.2444 90.0368 92.1187 90.5419H95.1348Z" fill="white"/>
<path d="M99.5329 87.0061H102.298V88.3952C102.675 87.7638 103.177 87.3849 103.554 87.1324C103.931 86.8798 104.434 86.7535 105.063 86.7535C105.942 86.7535 106.571 87.0061 106.948 87.6375C107.45 88.1426 107.702 89.0266 107.702 90.1631V95.7194H104.686V90.9208C104.686 90.4156 104.56 90.0368 104.434 89.7842C104.308 89.5317 104.057 89.4054 103.68 89.4054C103.303 89.4054 103.052 89.5317 102.8 89.9105C102.549 90.2894 102.423 90.7945 102.423 91.5521V95.8456H99.4072V87.0061H99.5329Z" fill="white"/>
<path d="M109.084 91.4259C109.084 90.0368 109.461 89.0266 110.215 88.1426C110.969 87.2587 112.1 86.8798 113.483 86.8798C114.991 86.8798 116.247 87.3849 117.001 88.3952C117.63 89.2791 118.007 90.2893 118.007 91.4259C118.007 92.8149 117.63 93.9514 116.876 94.7091C116.122 95.5931 114.991 95.9719 113.608 95.9719C112.351 95.9719 111.346 95.5931 110.592 94.8354C109.461 93.9514 109.084 92.8149 109.084 91.4259ZM111.974 91.4259C111.974 92.1835 112.1 92.8149 112.351 93.1938C112.603 93.5726 112.98 93.6989 113.357 93.6989C113.734 93.6989 114.111 93.5726 114.362 93.1938C114.614 92.8149 114.739 92.1835 114.739 91.4259C114.739 90.6682 114.614 90.0368 114.362 89.658C114.111 89.2791 113.734 89.1528 113.357 89.1528C112.98 89.1528 112.603 89.4054 112.226 89.7842C112.1 90.0368 111.974 90.5419 111.974 91.4259Z" fill="white"/>
<path d="M118.761 93.32L121.651 93.0675C121.777 93.4463 121.903 93.6989 122.154 93.9514C122.405 94.204 122.657 94.204 123.034 94.204C123.411 94.204 123.788 94.0777 123.913 93.9514C124.039 93.8252 124.165 93.5726 124.165 93.4463C124.165 93.1938 124.039 93.0675 123.788 92.9412C123.662 92.8149 123.159 92.6886 122.531 92.5624C121.526 92.3098 120.772 92.1835 120.394 91.931C120.017 91.6784 119.64 91.4259 119.389 91.047C119.138 90.6682 119.012 90.1631 119.012 89.658C119.012 89.0266 119.138 88.5215 119.515 88.1426C119.766 87.7638 120.269 87.3849 120.772 87.2587C121.274 87.0061 122.028 87.0061 122.908 87.0061C123.788 87.0061 124.542 87.1324 124.919 87.2587C125.296 87.3849 125.673 87.6375 126.05 88.0163C126.427 88.3952 126.552 88.774 126.804 89.4054L124.039 89.658C123.913 89.4054 123.788 89.1528 123.662 89.0266C123.411 88.9003 123.159 88.774 122.782 88.774C122.405 88.774 122.154 88.9003 122.028 89.0266C121.903 89.1528 121.777 89.2791 121.777 89.5317C121.777 89.7842 121.903 89.9105 122.028 90.0368C122.154 90.1631 122.657 90.2893 123.285 90.2893C124.29 90.4156 125.044 90.5419 125.421 90.7945C125.798 91.047 126.301 91.2996 126.552 91.8047C126.804 92.1835 126.93 92.6886 126.93 93.1938C126.93 93.6989 126.804 94.204 126.552 94.7091C126.301 95.2142 125.798 95.5931 125.296 95.8456C124.793 96.0982 124.039 95.9719 123.034 95.9719C121.651 95.9719 120.646 95.7193 120.017 95.3405C119.389 94.8354 119.012 94.204 118.761 93.32Z" fill="white"/>
</g>
<defs>
<clipPath id="clip0">
<rect width="140" height="105.695" fill="white"/>
</clipPath>
</defs>
</svg>
