<svg width="556" height="817" viewBox="0 0 556 817" fill="none" xmlns="http://www.w3.org/2000/svg">
<path d="M554.768 85.3637L553.17 83.1818L549.973 81.7273L546.776 89.2909L554.768 85.3637Z" fill="#3C5C65" fill-opacity="0.3"/>
<path d="M504.058 234.018L504.203 233.582L505.221 231.691L506.092 229.509L505.802 223.691L505.947 221.073L511.759 214.527L516.845 211.473L519.024 209.582L518.443 207.255L517.135 204.927L516.409 202.6L516.845 200.564L521.785 197.655L522.366 193L521.349 187.764L519.17 183.545L520.623 182.527L522.802 181.8L525.418 181.509L528.033 181.8V180.345L521.785 179.182L516.409 175.836L513.503 170.745L513.358 164.055L514.52 160.709L514.665 157.509L512.922 149.073L463.519 229.364L504.058 234.018Z" fill="#3C5C65" fill-opacity="0.3"/>
<path d="M530.503 101.073L533.263 97.7273L537.768 93.8L546.777 89.2909L549.973 81.7273L546.631 80.7091L543.58 80.4182L537.913 81.2909L536.169 80.5636L533.99 77.2182L531.956 69.9455L531.374 65.7273L531.665 63.2545L533.118 60.3454L530.357 58.6L500.425 51.3273L450.44 75.1818L530.503 101.073Z" fill="#3C5C65" fill-opacity="0.3"/>
<path d="M500.425 51.3273L492.724 49.4364L489.527 48.2727L488.074 46.9636L487.493 46.0909L484.441 43.9091L483.57 42.8909L483.424 41.1455L484.296 39.5455L485.168 38.5273L485.313 37.8L483.424 37.3636L480.954 37.6546L478.775 38.2364L477.757 38.6727L474.851 32.4182L469.33 24.8546L450.44 75.1818L500.425 51.3273Z" fill="#3C5C65" fill-opacity="0.3"/>
<path d="M494.468 262.673L498.537 257.145L503.186 252.491L504.349 250.455L504.203 249.582L503.622 248.418L502.896 247.109L502.315 246.527L502.169 246.382L501.297 244.927L501.733 243.909L502.605 242.745L503.041 241.436L503.477 236.2L504.058 234.018L463.519 229.364L494.468 262.673Z" fill="#3C5C65" fill-opacity="0.3"/>
<path d="M476.015 292.927L478.339 283.036L480.664 278.091L482.699 276.055L488.22 271.982L488.801 270.673L488.22 268.927L489.528 267.327L493.306 264.273L494.468 262.673L463.519 229.364L476.015 292.927Z" fill="#3C5C65" fill-opacity="0.3"/>
<path d="M463.518 229.364L512.921 149.073L512.049 144.709L511.758 138.6L512.194 132.345L513.502 125.945L515.391 120.418L517.861 116.491L530.503 101.073L450.44 75.1818L463.518 229.364Z" fill="#3C5C65" fill-opacity="0.3"/>
<path d="M459.159 784.273L458.432 782.236L458.723 779.764L459.304 777.873L459.74 777V775.545H451.167L459.013 792.564L459.885 792.854L464.39 791.545L464.68 789.218L462.937 787.182L459.159 784.273Z" fill="#3C5C65" fill-opacity="0.3"/>
<path d="M450.44 75.1818L380.694 97L463.517 229.364L450.44 75.1818Z" fill="#3C5C65" fill-opacity="0.3"/>
<path d="M347.274 322.455L459.303 370.164L460.611 363.764L465.842 349.655L468.457 336.273L468.748 330.891L469.475 328.127L472.381 323.327L473.398 320.418L473.252 317.655L472.526 316.636L471.509 315.764L470.201 313.873L468.748 309.509L468.603 305.727L469.91 302.091L476.013 293.073V292.927L463.517 229.364L347.274 322.455Z" fill="#3C5C65" fill-opacity="0.3"/>
<path d="M469.33 24.8545L466.569 20.7818L462.937 18.0182L453.928 17L444.919 19.0364L436.927 23.1091L431.551 28.0545L428.936 32.8545L427.192 37.0727L426.611 37.8L425.012 38.5273L423.559 39.8364L422.833 42.0182L425.303 43.6182L430.098 48.4182L433.149 53.2182L430.243 54.3818L428.936 53.0727L427.919 50.7455L426.32 48.5636L423.559 47.6909H420.944L419.2 47.9818L418.619 48.2727L450.441 75.1818L469.33 24.8545Z" fill="#3C5C65" fill-opacity="0.3"/>
<path d="M443.611 775.545L445.064 777.291L445.936 779.182V781.218L445.064 783.545L448.261 786.454L453.783 790.527L459.013 792.564L451.167 775.545H443.611Z" fill="#3C5C65" fill-opacity="0.3"/>
<path d="M380.694 97L367.617 226.455L463.517 229.364L380.694 97Z" fill="#3C5C65" fill-opacity="0.3"/>
<path d="M443.029 445.509L450.004 404.782L453.927 396.636L459.303 370.164L347.274 322.455L443.029 445.509Z" fill="#3C5C65" fill-opacity="0.3"/>
<path d="M463.517 229.364L367.617 226.455L347.274 322.455L463.517 229.364Z" fill="#3C5C65" fill-opacity="0.3"/>
<path d="M359.625 626.309L367.762 620.927L371.54 617.291L378.224 607.109L378.369 606.673L378.515 604.345L377.933 599.254L378.369 597.073L380.985 593.873L392.464 584.273L393.481 581.945L402.054 569.727L403.797 564.927L406.122 554.164L410.045 547.182L411.499 542.382L412.37 540.636L414.114 538.745L418.037 535.836L419.781 534.091L423.704 525.945L424.576 517.945L424.431 509.655L425.593 500.2L427.337 495.109L429.516 491.182L435.328 483.327L437.217 479.4L438.38 472.127L300.777 463.545L359.625 626.309Z" fill="#3C5C65" fill-opacity="0.3"/>
<path d="M300.777 463.545L438.38 472.127L440.995 457.582L443.029 445.509L347.274 322.455L300.777 463.545Z" fill="#3C5C65" fill-opacity="0.3"/>
<path d="M371.685 617.291L375.609 612.2L377.352 609.291L378.224 607.109L371.54 617.291H371.685Z" fill="#3C5C65" fill-opacity="0.3"/>
<path d="M450.44 75.1818L418.619 48.2727L417.602 48.7091L412.516 52.9273L408.593 54.5273L399.294 56.2727L382.874 59.1818L378.225 60.7818L380.695 97L450.44 75.1818Z" fill="#3C5C65" fill-opacity="0.3"/>
<path d="M347.276 322.455L258.641 342.818L300.779 463.545L347.276 322.455Z" fill="#3C5C65" fill-opacity="0.3"/>
<path d="M236.844 562.454L355.847 628.927L359.625 626.309L300.777 463.545L236.844 562.454Z" fill="#3C5C65" fill-opacity="0.3"/>
<path d="M380.695 97L324.753 109.509L322.864 110.964L321.12 113.291L320.394 115.764L319.958 118.964L318.795 120.709L318.65 120.855L317.197 122.309L316.035 124.782L316.906 126.673L317.488 128.127V129.582L316.906 130.891L315.163 133.218L310.513 142.673L309.351 147.182L306.299 148.636L305.718 150.091L304.12 154.891L301.068 157.945L298.889 161L299.615 165.509L293.658 164.345L289.154 165.655L285.376 168.418L283.051 170.891L367.617 226.455L380.695 97Z" fill="#3C5C65" fill-opacity="0.3"/>
<path d="M378.225 60.7818L375.464 61.8L371.686 63.8363L368.635 66.6L365.147 68.7818L350.036 73.7272L344.369 78.5272L380.695 97L378.225 60.7818Z" fill="#3C5C65" fill-opacity="0.3"/>
<path d="M344.37 78.5273L344.079 78.8182L338.412 85.6546L331.002 97.2909L329.258 100.055L327.515 105L326.933 107.473L327.079 108.491L325.045 109.218L324.754 109.509L380.696 97L344.37 78.5273Z" fill="#3C5C65" fill-opacity="0.3"/>
<path d="M311.531 713.727L312.548 709.073L320.394 695.255L324.463 681.436L325.916 671.4L328.676 666.455L335.215 658.164L337.395 654.091L340.737 645.509L243.093 706.455L243.965 707.182L245.708 709.509L249.196 717.655L253.845 723.327L254.862 725.073L310.949 718.527L311.531 713.727Z" fill="#3C5C65" fill-opacity="0.3"/>
<path d="M367.618 226.455L258.641 342.818L347.276 322.455L367.618 226.455Z" fill="#3C5C65" fill-opacity="0.3"/>
<path d="M367.617 226.455L241.349 232.564L239.169 240.418L231.468 253.8L229.288 263.836L227.399 269.218L224.784 271.4L224.057 274.164L223.622 274.745L218.391 280.855L258.64 342.818L367.617 226.455Z" fill="#3C5C65" fill-opacity="0.3"/>
<path d="M283.051 170.891L281.888 172.055L280.726 174.091L279.854 176.273L278.256 178.018L272.734 179.618L271.426 181.8L270.119 186.891L265.178 195.618L263.435 200.127L262.708 205.655L261.11 209L255.152 215.545L244.255 227.764L241.494 232.273L241.349 232.564L367.617 226.455L283.051 170.891Z" fill="#3C5C65" fill-opacity="0.3"/>
<path d="M341.754 642.891L343.498 640.709L345.677 639.545L354.541 629.8L355.849 628.927L236.845 562.455L212.87 683.764L215.921 686.382L219.699 689L227.836 692.927L231.469 695.255L232.05 696.418L232.777 699.473L233.794 700.055L234.666 700.345L237.281 701.945L243.093 706.455L340.737 645.509L341.754 642.891Z" fill="#3C5C65" fill-opacity="0.3"/>
<path d="M309.787 787.764L310.949 781.654L310.368 739.182L310.078 727.109L310.949 718.527L254.862 725.073L255.153 725.655L271.572 768.273L271.282 769.582L308.479 790.673L309.787 787.764Z" fill="#3C5C65" fill-opacity="0.3"/>
<path d="M258.641 342.818L199.066 446.091L300.779 463.545L258.641 342.818Z" fill="#3C5C65" fill-opacity="0.3"/>
<path d="M273.171 799.109L272.154 804.782L272.299 806.818L275.35 809.291L278.111 810.018L280 808.127L280.291 802.6L286.829 804.2L293.223 807.109L298.89 811.327L302.522 817L302.813 812.055L301.65 804.636V797.655L304.847 794.6L307.608 792.564L308.48 790.673L271.282 769.582L271.137 770.745L269.102 773.655L268.666 776.273V785.145L268.23 787.764V789.509L268.666 791.545L273.171 799.109Z" fill="#3C5C65" fill-opacity="0.3"/>
<path d="M199.066 446.091L236.845 562.455L300.779 463.545L199.066 446.091Z" fill="#3C5C65" fill-opacity="0.3"/>
<path d="M157.363 578.746L158.671 587.473L159.398 589.073L161.722 593.145L162.158 595.036L163.175 596.055L164.338 596.782L164.774 597.945L164.483 599.836L163.175 602.891V605.218L164.047 609L167.825 617.436L171.748 623.691L174.073 628.345L175.236 633.145L174.364 636.491L172.62 640.273L173.928 644.2L176.689 647.691L184.244 654.673L188.603 659.618L189.911 662.236L191.655 665.582L192.963 671.545L182.355 658.891L192.381 673L203.134 681.436H204.877L206.476 680.855L207.784 680.709L210.108 681.873L211.997 683.036L212.869 683.764L236.844 562.455L157.363 578.746Z" fill="#3C5C65" fill-opacity="0.3"/>
<path d="M258.64 342.818L178.869 350.382L176.399 352.709L175.382 355.182L174.074 361L172.766 363.473L168.262 367.109L167.535 368.273L166.663 370.6L161.723 377.291L160.561 379.764L158.672 387.036L157.654 395.182L154.022 401.582L151.842 409.582L151.552 413.509L199.066 446.091L258.64 342.818Z" fill="#3C5C65" fill-opacity="0.3"/>
<path d="M218.391 280.854L214.322 285.654L211.997 287.836L211.271 290.018L210.835 298.455L209.818 300.927L205.604 304.273L204.587 306.455L204.151 308.927L202.843 310.091L201.1 310.964L199.065 312.418L196.595 314.891L194.27 318.673L189.621 332.055L186.133 338.454L183.954 344.854L182.21 347.182L178.868 350.382L258.64 342.818L218.391 280.854Z" fill="#3C5C65" fill-opacity="0.3"/>
<path d="M199.066 446.091L144.432 556.636L145.449 558.382L148.064 558.527L149.663 556.345L150.389 553.436L151.406 551.982L156.637 552.709L157.509 557.073L155.329 562.018L151.406 564.782L154.603 568.127L156.201 571.036L156.928 576.273L157.364 578.745L236.845 562.455L199.066 446.091Z" fill="#3C5C65" fill-opacity="0.3"/>
<path d="M150.68 458.164L149.808 459.764L153.295 466.309L156.347 474.891H151.842L148.936 475.036L146.902 479.691V482.455L148.936 482.6L150.389 482.891L152.278 481.582L153.005 484.2L151.842 483.909L149.082 485.073L145.885 485.218L144.577 488.564L147.629 490.745L145.594 491.182L144.287 492.636L141.526 500.055L141.09 501.945L141.526 503.691L139.637 505.873L138.474 508.927L137.748 511.4L138.91 514.018L139.492 517.364L138.474 519.4L136.15 520.127L134.115 521.291L133.534 524.636L135.859 527.254L139.346 530.309L140.073 532.491H133.534V534.091L141.235 535.982L142.398 537.291L141.526 539.909L139.056 540.636L136.004 541.073L133.534 542.382L132.662 544.273L132.081 547.036L132.662 549.945L134.987 551.982L137.312 551.4L138.765 548.927L140.654 547.327L143.996 548.782L144.722 550.818L144.287 556.491L144.432 556.636L199.066 446.091L150.68 458.164Z" fill="#3C5C65" fill-opacity="0.3"/>
<path d="M145.593 430.964L136.875 442.018L125.396 453.655L122.345 458.164L124.96 456.855L128.593 453.945L131.063 452.2L134.114 449L136.584 446.091L140.217 442.454L147.773 430.382L145.593 430.964Z" fill="#3C5C65" fill-opacity="0.3"/>
<path d="M151.551 413.509L151.261 419.764L151.406 433.291L147.628 437.509L147.773 444.782L154.748 444.345L151.406 448.564L150.679 450.745L149.226 452.491L148.936 453.8L151.406 455.109V456.709L150.679 458.164L199.065 446.091L151.551 413.509Z" fill="#3C5C65" fill-opacity="0.3"/>
<path d="M44.4632 417.873L43.1555 420.055L41.2665 420.2L38.7964 419.909L35.4544 420.927L35.8903 419.909L36.9074 416.273L33.1295 417.582L27.0268 421.364L25.2832 420.927H23.8301L23.6848 424.127L23.8301 427.473L24.7019 427.036L24.8472 426.891V426.6L25.2832 425.873L26.4456 427.764L27.7533 429.073L29.3516 429.945L31.3859 430.673L28.4798 433.145L24.8472 434.164L21.6506 433.436L19.471 430.673L18.3086 432.854L22.3771 436.782L26.3003 438.382L30.3688 437.8L34.1467 435.618L34.7279 434.6L35.5997 431.254L36.1809 429.945L37.3433 429.364L39.6682 429.073L42.8649 427.327L45.1897 427.764L47.3693 429.073L48.9676 430.673L49.4035 428.345L48.3864 425L44.4632 417.873Z" fill="#3C5C65" fill-opacity="0.3"/>
<path d="M4.06849 426.745L5.08562 426.164L6.39335 426.018L8.13699 425.873L10.7524 425.436L10.8978 424.418L10.3165 422.818L10.4618 420.927L12.7867 413.945L14.2397 411.036L16.274 409.727L12.7867 406.673L10.1712 409.291L7.55578 417.873L7.41047 421.8L6.97456 423.4L5.08562 424.127L3.05137 424.273L1.59834 424.709L0.581213 425.727L0 427.473H3.05137L4.06849 426.745Z" fill="#3C5C65" fill-opacity="0.3"/>
<path d="M553.103 68.1406L551.51 65.9659L548.324 64.5161L545.138 72.0551L553.103 68.1406Z" fill="#8990A8"/>
<path d="M502.558 216.31L502.703 215.875L503.716 213.991L504.585 211.816L504.296 206.017L504.441 203.407L510.234 196.883L515.303 193.838L517.475 191.954L516.896 189.634L515.592 187.314L514.868 184.995L515.303 182.965L520.227 180.065L520.806 175.426L519.792 170.207L517.62 166.002L519.068 164.987L521.241 164.262L523.848 163.972L526.455 164.262V162.813L520.227 161.653L514.868 158.318L511.972 153.244L511.827 146.575L512.985 143.24L513.13 140.051L511.392 131.642L462.15 211.671L502.558 216.31Z" fill="#7199B1"/>
<path d="M528.916 83.7985L531.668 80.4639L536.158 76.5495L545.137 72.0551L548.323 64.5161L544.992 63.5013L541.951 63.2113L536.303 64.0812L534.565 63.3563L532.392 60.0218L530.365 52.7728L529.785 48.5683L530.075 46.1037L531.523 43.2041L528.771 41.4643L498.937 34.2153L449.115 57.992L528.916 83.7985Z" fill="#8BA1AF"/>
<path d="M498.937 34.2153L491.261 32.3306L488.074 31.1707L486.626 29.8659L486.047 28.996L483.005 26.8213L482.136 25.8064L481.991 24.0667L482.86 22.4719L483.729 21.457L483.874 20.7321L481.991 20.2972L479.529 20.5872L477.357 21.1671L476.343 21.602L473.447 15.3679L467.943 7.82892L449.115 57.992L498.937 34.2153Z" fill="#92A7B1"/>
<path d="M492.999 244.871L497.054 239.362L501.689 234.723L502.847 232.693L502.703 231.823L502.123 230.663L501.399 229.358L500.82 228.779L500.675 228.634L499.806 227.184L500.24 226.169L501.109 225.009L501.544 223.704L501.978 218.485L502.558 216.31L462.15 211.671L492.999 244.871Z" fill="#5A92B1"/>
<path d="M474.606 275.027L476.923 265.169L479.24 260.239L481.268 258.21L486.771 254.15L487.351 252.845L486.771 251.105L488.075 249.511L491.84 246.466L492.999 244.871L462.15 211.671L474.606 275.027Z" fill="#5192B5"/>
<path d="M462.15 211.671L511.392 131.642L510.523 127.293L510.233 121.203L510.668 114.969L511.971 108.59L513.854 103.081L516.316 99.1664L528.916 83.7985L449.115 57.992L462.15 211.671Z" fill="#80A6B3"/>
<path d="M457.805 764.77L457.081 762.74L457.371 760.276L457.95 758.391L458.385 757.521V756.071H449.84L457.661 773.034L458.53 773.324L463.019 772.019L463.309 769.699L461.571 767.669L457.805 764.77Z" fill="#2655A4"/>
<path d="M449.116 57.992L379.598 79.739L462.15 211.671L449.116 57.992Z" fill="#82B2B8"/>
<path d="M346.287 304.458L457.951 352.012L459.254 345.632L464.468 331.569L467.075 318.231L467.364 312.867L468.089 310.112L470.985 305.328L471.999 302.428L471.854 299.674L471.13 298.659L470.116 297.789L468.813 295.904L467.364 291.555L467.22 287.785L468.523 284.161L474.606 275.172V275.027L462.151 211.671L346.287 304.458Z" fill="#51A3BB"/>
<path d="M467.944 7.82892L465.192 3.76948L461.571 1.01486L452.592 0L443.613 2.02972L435.647 6.08916L430.288 11.0185L427.681 15.8028L425.943 20.0072L425.364 20.7322L423.771 21.4571L422.323 22.7619L421.598 24.9366L424.061 26.5314L428.84 31.3157L431.881 36.1L428.985 37.2599L427.681 35.9551L426.668 33.6354L425.074 31.4607L422.323 30.5908H419.716L417.978 30.8808L417.398 31.1707L449.116 57.992L467.944 7.82892Z" fill="#95B6B7"/>
<path d="M442.309 756.071L443.757 757.811L444.626 759.696V761.725L443.757 764.045L446.943 766.945L452.447 771.004L457.66 773.034L449.84 756.071H442.309Z" fill="#2966AC"/>
<path d="M379.597 79.739L366.562 208.771L462.15 211.671L379.597 79.739Z" fill="#75B4BC"/>
<path d="M441.73 427.111L448.681 386.517L452.592 378.398L457.951 352.012L346.287 304.458L441.73 427.111Z" fill="#3C9DBE"/>
<path d="M462.151 211.671L366.563 208.771L346.287 304.458L462.151 211.671Z" fill="#5DAFBE"/>
<path d="M358.597 607.321L366.708 601.957L370.473 598.333L377.135 588.184L377.28 587.749L377.425 585.429L376.846 580.355L377.28 578.18L379.887 574.991L391.329 565.422L392.343 563.103L400.887 550.924L402.625 546.14L404.943 535.411L408.853 528.452L410.301 523.668L411.17 521.928L412.908 520.044L416.819 517.144L418.557 515.404L422.467 507.285L423.336 499.311L423.191 491.048L424.35 481.624L426.088 476.549L428.26 472.635L434.053 464.806L435.936 460.892L437.095 453.643L299.941 445.089L358.597 607.321Z" fill="#2999C1"/>
<path d="M299.941 445.089L437.095 453.643L439.702 439.145L441.729 427.111L346.287 304.458L299.941 445.089Z" fill="#36A7C3"/>
<path d="M370.618 598.333L374.529 593.258L376.267 590.359L377.136 588.184L370.474 598.333H370.618Z" fill="#2089BD"/>
<path d="M449.116 57.992L417.398 31.1707L416.384 31.6057L411.315 35.8101L407.405 37.4049L398.136 39.1446L381.77 42.0442L377.136 43.639L379.598 79.739L449.116 57.992Z" fill="#8FBDBB"/>
<path d="M346.286 304.458L257.94 324.755L299.941 445.089L346.286 304.458Z" fill="#4AB5C3"/>
<path d="M236.217 543.675L354.832 609.931L358.598 607.321L299.942 445.089L236.217 543.675Z" fill="#31A1C2"/>
<path d="M379.598 79.739L323.839 92.2073L321.956 93.6571L320.218 95.9768L319.494 98.4415L319.059 101.631L317.9 103.371L317.756 103.516L316.307 104.966L315.149 107.43L316.018 109.315L316.597 110.765V112.215L316.018 113.519L314.28 115.839L309.645 125.263L308.487 129.757L305.445 131.207L304.866 132.657L303.273 137.441L300.231 140.486L298.059 143.53L298.783 148.025L292.845 146.865L288.355 148.17L284.59 150.924L282.272 153.389L366.563 208.771L379.598 79.739Z" fill="#83C4BD"/>
<path d="M377.136 43.639L374.384 44.6539L370.619 46.6836L367.577 49.4382L364.101 51.6129L349.039 56.5422L343.391 61.3266L379.598 79.739L377.136 43.639Z" fill="#97CABC"/>
<path d="M343.39 61.3266L343.1 61.6165L337.452 68.4306L330.066 80.029L328.328 82.7836L326.59 87.7129L326.01 90.1776L326.155 91.1925L324.128 91.9174L323.838 92.2073L379.597 79.739L343.39 61.3266Z" fill="#95D1BC"/>
<path d="M310.659 694.455L311.673 689.815L319.494 676.042L323.549 662.269L324.997 652.265L327.749 647.336L334.266 639.072L336.439 635.013L339.77 626.459L242.444 687.206L243.313 687.93L245.051 690.25L248.527 698.369L253.162 704.023L254.176 705.763L310.08 699.239L310.659 694.455Z" fill="#3388B8"/>
<path d="M366.562 208.771L257.94 324.755L346.286 304.458L366.562 208.771Z" fill="#5AB7C0"/>
<path d="M366.563 208.771L240.706 214.86L238.534 222.689L230.858 236.028L228.685 246.031L226.803 251.395L224.196 253.57L223.472 256.325L223.037 256.905L217.823 262.994L257.941 324.755L366.563 208.771Z" fill="#66C2C0"/>
<path d="M282.272 153.389L281.113 154.549L279.955 156.578L279.086 158.753L277.493 160.493L271.989 162.088L270.686 164.262L269.382 169.337L264.458 178.036L262.72 182.53L261.996 188.039L260.403 191.374L254.465 197.898L243.603 210.076L240.851 214.571L240.706 214.86L366.563 208.771L282.272 153.389Z" fill="#7DC9BE"/>
<path d="M340.783 623.849L342.521 621.675L344.693 620.515L353.528 610.801L354.831 609.931L236.216 543.675L212.319 664.589L215.361 667.198L219.126 669.808L227.237 673.722L230.857 676.042L231.437 677.202L232.161 680.246L233.175 680.826L234.044 681.116L236.651 682.711L242.444 687.206L339.769 626.459L340.783 623.849Z" fill="#3A97BC"/>
<path d="M308.92 768.249L310.079 762.16L309.5 719.826L309.21 707.793L310.079 699.239L254.175 705.763L254.464 706.343L270.83 748.822L270.541 750.127L307.617 771.149L308.92 768.249Z" fill="#3782B4"/>
<path d="M257.941 324.755L198.561 427.691L299.941 445.089L257.941 324.755Z" fill="#49B8C3"/>
<path d="M272.424 779.558L271.41 785.212L271.555 787.242L274.597 789.706L277.348 790.431L279.231 788.547L279.521 783.037L286.038 784.632L292.411 787.532L298.059 791.736L301.68 797.39L301.969 792.461L300.811 785.067V778.108L303.997 775.063L306.749 773.034L307.618 771.149L270.541 750.127L270.397 751.287L268.369 754.186L267.934 756.796V765.64L267.5 768.249V769.989L267.934 772.019L272.424 779.558Z" fill="#437FB0"/>
<path d="M198.561 427.691L236.216 543.675L299.941 445.089L198.561 427.691Z" fill="#47B0C2"/>
<path d="M156.995 559.913L158.299 568.612L159.023 570.207L161.34 574.266L161.774 576.151L162.788 577.166L163.947 577.891L164.381 579.05L164.092 580.935L162.788 583.98V586.299L163.657 590.069L167.423 598.478L171.333 604.712L173.65 609.351L174.809 614.136L173.94 617.47L172.202 621.24L173.506 625.154L176.257 628.634L183.789 635.593L188.133 640.522L189.437 643.132L191.175 646.466L192.478 652.41L181.906 639.797L191.899 653.86L202.616 662.269H204.354L205.947 661.689L207.251 661.544L209.568 662.704L211.451 663.864L212.32 664.589L236.217 543.675L156.995 559.913Z" fill="#52A1BB"/>
<path d="M257.94 324.755L178.429 332.294L175.967 334.614L174.953 337.079L173.65 342.878L172.346 345.343L167.857 348.967L167.132 350.127L166.263 352.447L161.339 359.116L160.181 361.58L158.298 368.829L157.284 376.948L153.663 383.327L151.491 391.301L151.201 395.216L198.56 427.691L257.94 324.755Z" fill="#66C2C0"/>
<path d="M217.823 262.994L213.768 267.778L211.451 269.953L210.727 272.128L210.292 280.536L209.278 283.001L205.078 286.336L204.064 288.51L203.63 290.975L202.327 292.135L200.589 293.005L198.561 294.455L196.099 296.919L193.782 300.689L189.147 314.027L185.671 320.406L183.499 326.785L181.761 329.105L178.43 332.294L257.941 324.755L217.823 262.994Z" fill="#74C8BD"/>
<path d="M198.56 427.691L144.104 537.876L145.118 539.616L147.725 539.761L149.318 537.586L150.042 534.687L151.056 533.237L156.27 533.962L157.139 538.311L154.967 543.24L151.056 545.995L154.243 549.33L155.836 552.229L156.56 557.448L156.994 559.913L236.216 543.675L198.56 427.691Z" fill="#55B0BF"/>
<path d="M150.332 439.725L149.463 441.319L152.939 447.843L155.98 456.397H151.491L148.594 456.542L146.567 461.182V463.936L148.594 464.081L150.042 464.371L151.925 463.066L152.649 465.676L151.491 465.386L148.739 466.546L145.553 466.691L144.249 470.025L147.291 472.2L145.263 472.635L143.96 474.085L141.208 481.479L140.773 483.364L141.208 485.103L139.325 487.278L138.166 490.323L137.442 492.787L138.601 495.397L139.18 498.731L138.166 500.761L135.849 501.486L133.822 502.646L133.242 505.98L135.56 508.59L139.035 511.635L139.76 513.809H133.242V515.404L140.918 517.289L142.077 518.594L141.208 521.203L138.746 521.928L135.704 522.363L133.242 523.668L132.373 525.553L131.794 528.307L132.373 531.207L134.691 533.237L137.008 532.657L138.456 530.192L140.339 528.597L143.67 530.047L144.394 532.077L143.96 537.731L144.104 537.876L198.56 427.691L150.332 439.725Z" fill="#69BABE"/>
<path d="M145.264 412.613L136.574 423.632L125.132 435.23L122.091 439.725L124.698 438.42L128.318 435.52L130.781 433.78L133.822 430.591L136.284 427.691L139.905 424.067L147.436 412.033L145.264 412.613Z" fill="#75C5BF"/>
<path d="M151.201 395.216L150.912 401.45L151.057 414.933L147.291 419.137L147.436 426.386L154.388 425.951L151.057 430.156L150.332 432.331L148.884 434.07L148.594 435.375L151.057 436.68V438.275L150.332 439.725L198.561 427.691L151.201 395.216Z" fill="#75C5BF"/>
<path d="M44.4628 399.565L43.1594 401.74L41.2766 401.885L38.8145 401.595L35.4834 402.61L35.9179 401.595L36.9317 397.97L33.1662 399.275L27.0833 403.045L25.3454 402.61H23.8971L23.7522 405.799L23.8971 409.134L24.766 408.699L24.9109 408.554V408.264L25.3454 407.539L26.504 409.424L27.8075 410.729L29.4006 411.598L31.4282 412.323L28.5316 414.788L24.9109 415.803L21.7246 415.078L19.5522 412.323L18.3936 414.498L22.4488 418.412L26.3592 420.007L30.4144 419.427L34.18 417.253L34.7593 416.238L35.6283 412.903L36.2076 411.598L37.3662 411.018L39.6835 410.729L42.8697 408.989L45.187 409.424L47.3594 410.729L48.9526 412.323L49.387 410.004L48.3732 406.669L44.4628 399.565Z" fill="#8FCDBD"/>
<path d="M4.19975 408.409L5.21356 407.829L6.51702 407.684L8.25498 407.539L10.8619 407.104L11.0067 406.089L10.4274 404.494L10.5722 402.61L12.8895 395.651L14.3378 392.751L16.3654 391.446L12.8895 388.402L10.2826 391.011L7.67566 399.565L7.53083 403.48L7.09634 405.074L5.21356 405.799L3.18595 405.944L1.73765 406.379L0.723849 407.394L0.144531 409.134H3.18595L4.19975 408.409Z" fill="#99D3BC"/>
<path opacity="0.2" d="M466.308 275C468.479 275 470.238 273.761 470.238 272.233C470.238 270.705 468.479 269.466 466.308 269.466C464.138 269.466 462.379 270.705 462.379 272.233C462.379 273.761 464.138 275 466.308 275Z" fill="black"/>
<path d="M465.719 255L473 259.369L466.32 272.209L459 260.234L465.719 255Z" fill="#EB1E55"/>
<path d="M465.798 255.924L469.885 258.374L466.365 262.047L462.021 258.862L465.798 255.924Z" fill="#F9E46B"/>
<path opacity="0.2" d="M358.308 316C360.479 316 362.238 314.761 362.238 313.233C362.238 311.705 360.479 310.466 358.308 310.466C356.138 310.466 354.379 311.705 354.379 313.233C354.379 314.761 356.138 316 358.308 316Z" fill="black"/>
<path d="M357.719 296L365 300.369L358.32 313.209L351 301.234L357.719 296Z" fill="#EB1E55"/>
<path d="M357.798 296.924L361.885 299.374L358.365 303.047L354.021 299.862L357.798 296.924Z" fill="#F9E46B"/>
<path opacity="0.2" d="M404.308 191C406.479 191 408.238 189.761 408.238 188.233C408.238 186.705 406.479 185.466 404.308 185.466C402.138 185.466 400.379 186.705 400.379 188.233C400.379 189.761 402.138 191 404.308 191Z" fill="black"/>
<path d="M403.719 171L411 175.369L404.32 188.209L397 176.234L403.719 171Z" fill="#EB1E55"/>
<path d="M403.798 171.924L407.885 174.374L404.365 178.047L400.021 174.862L403.798 171.924Z" fill="#F9E46B"/>
<path opacity="0.2" d="M490.308 175C492.479 175 494.238 173.761 494.238 172.233C494.238 170.705 492.479 169.466 490.308 169.466C488.138 169.466 486.379 170.705 486.379 172.233C486.379 173.761 488.138 175 490.308 175Z" fill="black"/>
<path d="M489.719 155L497 159.369L490.32 172.209L483 160.234L489.719 155Z" fill="#EB1E55"/>
<path d="M489.798 155.924L493.885 158.374L490.365 162.047L486.021 158.862L489.798 155.924Z" fill="#F9E46B"/>
<path opacity="0.2" d="M432.308 125C434.479 125 436.238 123.761 436.238 122.233C436.238 120.705 434.479 119.466 432.308 119.466C430.138 119.466 428.379 120.705 428.379 122.233C428.379 123.761 430.138 125 432.308 125Z" fill="black"/>
<path d="M431.719 105L439 109.369L432.32 122.209L425 110.234L431.719 105Z" fill="#EB1E55"/>
<path d="M431.798 105.924L435.885 108.374L432.365 112.047L428.021 108.862L431.798 105.924Z" fill="#F9E46B"/>
<path opacity="0.2" d="M334.308 168C336.479 168 338.238 166.761 338.238 165.233C338.238 163.705 336.479 162.466 334.308 162.466C332.138 162.466 330.379 163.705 330.379 165.233C330.379 166.761 332.138 168 334.308 168Z" fill="black"/>
<path d="M333.719 148L341 152.369L334.32 165.209L327 153.234L333.719 148Z" fill="#EB1E55"/>
<path d="M333.798 148.924L337.885 151.374L334.365 155.047L330.021 151.862L333.798 148.924Z" fill="#F9E46B"/>
<path opacity="0.2" d="M388.308 262C390.479 262 392.238 260.761 392.238 259.233C392.238 257.705 390.479 256.466 388.308 256.466C386.138 256.466 384.379 257.705 384.379 259.233C384.379 260.761 386.138 262 388.308 262Z" fill="black"/>
<path d="M387.719 242L395 246.369L388.32 259.209L381 247.234L387.719 242Z" fill="#EB1E55"/>
<path d="M387.798 242.924L391.885 245.374L388.365 249.047L384.021 245.862L387.798 242.924Z" fill="#F9E46B"/>
<path opacity="0.2" d="M313.308 277C315.479 277 317.238 275.761 317.238 274.233C317.238 272.705 315.479 271.466 313.308 271.466C311.138 271.466 309.379 272.705 309.379 274.233C309.379 275.761 311.138 277 313.308 277Z" fill="black"/>
<path d="M312.719 257L320 261.369L313.32 274.209L306 262.234L312.719 257Z" fill="#EB1E55"/>
<path d="M312.798 257.924L316.885 260.374L313.365 264.047L309.021 260.862L312.798 257.924Z" fill="#F9E46B"/>
<path opacity="0.2" d="M432.308 333C434.479 333 436.238 331.761 436.238 330.233C436.238 328.705 434.479 327.466 432.308 327.466C430.138 327.466 428.379 328.705 428.379 330.233C428.379 331.761 430.138 333 432.308 333Z" fill="black"/>
<path d="M431.719 313L439 317.369L432.32 330.209L425 318.234L431.719 313Z" fill="#EB1E55"/>
<path d="M431.798 313.924L435.885 316.374L432.365 320.047L428.021 316.862L431.798 313.924Z" fill="#F9E46B"/>
<path opacity="0.2" d="M394.308 347C396.479 347 398.238 345.761 398.238 344.233C398.238 342.705 396.479 341.466 394.308 341.466C392.138 341.466 390.379 342.705 390.379 344.233C390.379 345.761 392.138 347 394.308 347Z" fill="black"/>
<path d="M393.719 327L401 331.369L394.32 344.209L387 332.234L393.719 327Z" fill="#EB1E55"/>
<path d="M393.798 327.924L397.885 330.374L394.365 334.047L390.021 330.862L393.798 327.924Z" fill="#F9E46B"/>
<path opacity="0.2" d="M263.308 270C265.479 270 267.238 268.761 267.238 267.233C267.238 265.705 265.479 264.466 263.308 264.466C261.138 264.466 259.379 265.705 259.379 267.233C259.379 268.761 261.138 270 263.308 270Z" fill="black"/>
<path d="M262.719 250L270 254.369L263.32 267.209L256 255.234L262.719 250Z" fill="#EB1E55"/>
<path d="M262.798 250.924L266.885 253.374L263.365 257.047L259.021 253.862L262.798 250.924Z" fill="#F9E46B"/>
<path opacity="0.2" d="M428.308 427C430.479 427 432.238 425.761 432.238 424.233C432.238 422.705 430.479 421.466 428.308 421.466C426.138 421.466 424.379 422.705 424.379 424.233C424.379 425.761 426.138 427 428.308 427Z" fill="black"/>
<path d="M427.719 407L435 411.369L428.32 424.209L421 412.234L427.719 407Z" fill="#EB1E55"/>
<path d="M427.798 407.924L431.885 410.374L428.365 414.047L424.021 410.862L427.798 407.924Z" fill="#F9E46B"/>
<path opacity="0.2" d="M336.308 367C338.479 367 340.238 365.761 340.238 364.233C340.238 362.705 338.479 361.466 336.308 361.466C334.138 361.466 332.379 362.705 332.379 364.233C332.379 365.761 334.138 367 336.308 367Z" fill="black"/>
<path d="M335.719 347L343 351.369L336.32 364.209L329 352.234L335.719 347Z" fill="#EB1E55"/>
<path d="M335.798 347.924L339.885 350.374L336.365 354.047L332.021 350.862L335.798 347.924Z" fill="#F9E46B"/>
<path opacity="0.2" d="M332.308 444C334.479 444 336.238 442.761 336.238 441.233C336.238 439.705 334.479 438.466 332.308 438.466C330.138 438.466 328.379 439.705 328.379 441.233C328.379 442.761 330.138 444 332.308 444Z" fill="black"/>
<path d="M331.719 424L339 428.369L332.32 441.209L325 429.234L331.719 424Z" fill="#EB1E55"/>
<path d="M331.798 424.924L335.885 427.374L332.365 431.047L328.021 427.862L331.798 424.924Z" fill="#F9E46B"/>
<path opacity="0.2" d="M205.308 513C207.479 513 209.238 511.761 209.238 510.233C209.238 508.705 207.479 507.466 205.308 507.466C203.138 507.466 201.379 508.705 201.379 510.233C201.379 511.761 203.138 513 205.308 513Z" fill="black"/>
<path d="M204.719 493L212 497.369L205.32 510.209L198 498.234L204.719 493Z" fill="#EB1E55"/>
<path d="M204.798 493.924L208.885 496.374L205.365 500.047L201.021 496.862L204.798 493.924Z" fill="#F9E46B"/>
<path opacity="0.2" d="M234.308 393C236.479 393 238.238 391.761 238.238 390.233C238.238 388.705 236.479 387.466 234.308 387.466C232.138 387.466 230.379 388.705 230.379 390.233C230.379 391.761 232.138 393 234.308 393Z" fill="black"/>
<path d="M233.719 373L241 377.369L234.32 390.209L227 378.234L233.719 373Z" fill="#EB1E55"/>
<path d="M233.798 373.924L237.885 376.374L234.365 380.047L230.021 376.862L233.798 373.924Z" fill="#F9E46B"/>
<path opacity="0.2" d="M354.308 480C356.479 480 358.238 478.761 358.238 477.233C358.238 475.705 356.479 474.466 354.308 474.466C352.138 474.466 350.379 475.705 350.379 477.233C350.379 478.761 352.138 480 354.308 480Z" fill="black"/>
<path d="M353.719 460L361 464.369L354.32 477.209L347 465.234L353.719 460Z" fill="#EB1E55"/>
<path d="M353.798 460.924L357.885 463.374L354.365 467.047L350.021 463.862L353.798 460.924Z" fill="#F9E46B"/>
<path opacity="0.2" d="M267.308 464C269.479 464 271.238 462.761 271.238 461.233C271.238 459.705 269.479 458.466 267.308 458.466C265.138 458.466 263.379 459.705 263.379 461.233C263.379 462.761 265.138 464 267.308 464Z" fill="black"/>
<path d="M266.719 444L274 448.369L267.32 461.209L260 449.234L266.719 444Z" fill="#EB1E55"/>
<path d="M266.798 444.924L270.885 447.374L267.365 451.047L263.021 447.862L266.798 444.924Z" fill="#F9E46B"/>
<path opacity="0.2" d="M301.308 546C303.479 546 305.238 544.761 305.238 543.233C305.238 541.705 303.479 540.466 301.308 540.466C299.138 540.466 297.379 541.705 297.379 543.233C297.379 544.761 299.138 546 301.308 546Z" fill="black"/>
<path d="M300.719 526L308 530.369L301.32 543.209L294 531.234L300.719 526Z" fill="#EB1E55"/>
<path d="M300.798 526.924L304.885 529.374L301.365 533.047L297.021 529.862L300.798 526.924Z" fill="#F9E46B"/>
<path opacity="0.2" d="M296.308 712C298.479 712 300.238 710.761 300.238 709.233C300.238 707.705 298.479 706.466 296.308 706.466C294.138 706.466 292.379 707.705 292.379 709.233C292.379 710.761 294.138 712 296.308 712Z" fill="black"/>
<path d="M295.719 692L303 696.369L296.32 709.209L289 697.234L295.719 692Z" fill="#EB1E55"/>
<path d="M295.798 692.924L299.885 695.374L296.365 699.047L292.021 695.862L295.798 692.924Z" fill="#F9E46B"/>
</svg>
