<svg width="981" height="162" viewBox="0 0 981 162" fill="none" xmlns="http://www.w3.org/2000/svg">
<path d="M2.12751 82.8014L2.1273 82.8007C-0.772804 73.0626 2.11607 63.4342 8.90055 56.0509C15.6936 48.6583 26.3899 43.534 38.998 42.9452L937.335 1.05561C950.825 0.430042 962.757 5.13067 970.542 12.5854C978.318 20.032 981.937 30.1908 978.964 40.6225L979.925 40.8966L978.964 40.6227L951.848 135.823C947.615 150.644 931.018 161.262 911.826 160.992L52.7865 148.67C34.2682 148.399 18.5428 138.059 14.3094 123.816C14.3094 123.816 14.3094 123.816 14.3093 123.816L2.12751 82.8014Z" stroke="#70E3DE" stroke-width="2"/>
</svg>
