<svg width="23" height="23" viewBox="0 0 23 23" fill="none" xmlns="http://www.w3.org/2000/svg">
<path d="M22.0726 1.89873H0.927419C0.42043 1.89873 0 1.46835 0 0.949367C0 0.43038 0.42043 0 0.927419 0H22.0726C22.5796 0 23 0.43038 23 0.949367C23 1.46835 22.5796 1.89873 22.0726 1.89873Z" fill="white"/>
<path d="M22.0726 12.4557H0.927419C0.42043 12.4557 0 12.0254 0 11.5064C0 10.9874 0.42043 10.557 0.927419 10.557H22.0726C22.5796 10.557 23 10.9874 23 11.5064C23 12.0254 22.5796 12.4557 22.0726 12.4557Z" fill="white"/>
<path d="M22.0726 23H0.927419C0.42043 23 0 22.5696 0 22.0506C0 21.5316 0.42043 21.1013 0.927419 21.1013H22.0726C22.5796 21.1013 23 21.5316 23 22.0506C23 22.5696 22.5796 23 22.0726 23Z" fill="white"/>
</svg>
