<svg width="314" height="69" viewBox="0 0 314 69" fill="none" xmlns="http://www.w3.org/2000/svg">
<path d="M20.3325 61.5639L20.3295 61.5639C13.8177 61.4468 8.21903 56.9678 6.69566 50.6854L2.18993 28.807L2.1865 28.7903L2.18249 28.7738C0.0994084 20.1564 6.34406 11.7646 15.2427 11.247C15.2462 11.2468 15.2497 11.2466 15.2532 11.2464L297.856 1.03499L297.867 1.03461L297.877 1.03401C307.387 0.490708 314.757 9.18709 312.632 18.4186L302.599 56.1176L302.595 56.1332L302.591 56.1489C301.073 62.6957 295.161 67.2994 288.409 67.183C288.409 67.183 288.408 67.183 288.407 67.183L20.3325 61.5639Z" stroke="#70E3DE" stroke-width="2"/>
</svg>
