<svg width="313" height="140" viewBox="0 0 313 140" fill="none" xmlns="http://www.w3.org/2000/svg">
<path d="M23.4408 139.608L284.212 124.342C297.222 123.574 306.636 112.962 304.462 101.505L297.128 62.884C295.471 54.1693 287.495 47.5235 277.628 46.6458L43.1284 25.721C32.0727 24.7335 21.924 31.2539 19.4846 40.9091L0.547562 115.737C-2.6894 128.511 8.78852 140.47 23.4408 139.608Z" fill="#F83359"/>
<path d="M279.692 140C279.239 140 278.785 139.984 278.332 139.953L36.7168 128.244H36.7011C30.4774 127.821 24.9105 124.436 21.4233 118.981C17.4201 112.712 16.6851 104.577 19.4686 97.2413L50.5872 15.1724C54.7468 4.21625 65.6461 -2.05334 75.9669 0.595562L286.776 54.7021C295.955 57.0532 302.304 65.9561 302.21 76.3322L301.897 116.019C301.835 122.962 298.942 129.577 293.969 134.185C289.919 137.962 284.884 140 279.692 140ZM36.8106 126.677L278.425 138.386H278.441C283.664 138.746 288.809 136.849 292.921 133.025C297.581 128.715 300.287 122.492 300.334 115.987L300.646 76.3009C300.74 66.6457 294.876 58.3699 286.385 56.1912L75.5759 2.11594C66.0371 -0.329203 55.9196 5.51719 52.0571 15.721L20.9385 97.7899C18.3271 104.671 19.0151 112.273 22.7525 118.119C25.9582 123.166 31.0873 126.285 36.8106 126.677Z" fill="#FAE661"/>
</svg>
