<?xml version="1.0" encoding="utf-8"?>
<!-- Generator: Adobe Illustrator 22.1.0, SVG Export Plug-In . SVG Version: 6.00 Build 0)  -->
<svg version="1.1" id="Layer_1" xmlns="http://www.w3.org/2000/svg" xmlns:xlink="http://www.w3.org/1999/xlink" x="0px" y="0px"
	 viewBox="0 0 110 158" style="enable-background:new 0 0 110 158;" xml:space="preserve">
<style type="text/css">
	.st0{clip-path:url(#SVGID_2_);}
	.st1{fill:#FFFFFF;}
</style>
<g>
	<defs>
		<rect id="SVGID_1_" x="25" y="76" width="60" height="60"/>
	</defs>
	<clipPath id="SVGID_2_">
		<use xlink:href="#SVGID_1_"  style="overflow:visible;"/>
	</clipPath>
	<g class="st0">
		<path class="st1" d="M55,81.4c8,0,9,0,12.1,0.2c2.9,0.1,4.5,0.6,5.6,1c1.4,0.6,2.4,1.2,3.4,2.2c1.1,1.1,1.7,2,2.2,3.4
			c0.4,1.1,0.9,2.6,1,5.6c0.1,3.2,0.2,4.1,0.2,12.1c0,8,0,9-0.2,12.1c-0.1,2.9-0.6,4.5-1,5.6c-0.6,1.4-1.2,2.4-2.2,3.4
			c-1.1,1.1-2,1.7-3.4,2.2c-1.1,0.4-2.6,0.9-5.6,1c-3.2,0.1-4.1,0.2-12.1,0.2s-9,0-12.1-0.2c-2.9-0.1-4.5-0.6-5.6-1
			c-1.4-0.6-2.4-1.2-3.4-2.2c-1.1-1.1-1.7-2-2.2-3.4c-0.4-1.1-0.9-2.6-1-5.6c-0.1-3.2-0.2-4.1-0.2-12.1c0-8,0-9,0.2-12.1
			c0.1-2.9,0.6-4.5,1-5.6c0.6-1.4,1.2-2.4,2.2-3.4c1.1-1.1,2-1.7,3.4-2.2c1.1-0.4,2.6-0.9,5.6-1C46,81.4,47,81.4,55,81.4z M55,76
			c-8.2,0-9.2,0-12.4,0.2c-3.2,0.1-5.4,0.7-7.3,1.4c-2,0.8-3.6,1.8-5.3,3.4c-1.7,1.7-2.7,3.4-3.4,5.3c-0.7,1.9-1.2,4.1-1.4,7.3
			C25,96.8,25,97.8,25,106c0,8.1,0,9.2,0.2,12.4c0.2,3.2,0.7,5.4,1.4,7.3c0.8,2,1.8,3.6,3.5,5.3c1.7,1.7,3.3,2.7,5.3,3.5
			c1.9,0.7,4.1,1.2,7.3,1.4c3.2,0.2,4.2,0.2,12.4,0.2c8.1,0,9.2,0,12.4-0.2c3.2-0.2,5.4-0.7,7.3-1.4c2-0.8,3.6-1.8,5.3-3.5
			c1.7-1.7,2.7-3.3,3.5-5.3c0.7-1.9,1.2-4.1,1.4-7.3c0.2-3.2,0.2-4.2,0.2-12.4c0-8.1,0-9.2-0.2-12.4c-0.2-3.2-0.7-5.4-1.4-7.3
			c-0.8-2-1.8-3.6-3.5-5.3c-1.7-1.7-3.3-2.7-5.3-3.5c-1.9-0.7-4.1-1.2-7.3-1.4C64.2,76,63.2,76,55,76z"/>
		<path class="st1" d="M55,90.6c-8.5,0-15.4,6.9-15.4,15.4c0,8.5,6.9,15.4,15.4,15.4s15.4-6.9,15.4-15.4
			C70.4,97.5,63.5,90.6,55,90.6z M55,116c-5.5,0-10-4.5-10-10c0-5.5,4.5-10,10-10s10,4.5,10,10C65,111.5,60.5,116,55,116z"/>
		<path class="st1" d="M71,93.6c2,0,3.6-1.6,3.6-3.6c0-2-1.6-3.6-3.6-3.6S67.4,88,67.4,90C67.4,92,69,93.6,71,93.6z"/>
	</g>
</g>
<path class="st1" d="M48.4,44.6c0-0.5-0.1-0.9-0.4-1.2c-0.3-0.3-0.7-0.5-1.5-0.8c-1.3-0.5-2.2-1.1-2.8-1.7c-0.6-0.7-0.8-1.4-0.8-2.3
	c0-1.1,0.4-1.9,1.1-2.6c0.8-0.7,1.7-1,2.9-1c0.8,0,1.5,0.2,2.1,0.5c0.6,0.3,1.1,0.8,1.4,1.4c0.3,0.6,0.5,1.3,0.5,2.1h-2.6
	c0-0.6-0.1-1.1-0.4-1.4c-0.3-0.3-0.6-0.5-1.1-0.5c-0.5,0-0.8,0.1-1.1,0.4c-0.3,0.3-0.4,0.6-0.4,1.1c0,0.4,0.1,0.7,0.4,1
	c0.3,0.3,0.8,0.6,1.5,0.9c1.2,0.5,2.2,1,2.7,1.7c0.6,0.7,0.9,1.5,0.9,2.5c0,1.1-0.4,2-1.1,2.6c-0.7,0.6-1.7,0.9-2.9,0.9
	c-0.8,0-1.6-0.2-2.3-0.5c-0.7-0.3-1.2-0.8-1.6-1.5c-0.4-0.6-0.6-1.4-0.6-2.2h2.6c0,0.7,0.1,1.3,0.4,1.6c0.3,0.3,0.8,0.5,1.4,0.5
	C47.9,46.1,48.4,45.6,48.4,44.6z M57.1,48c-0.1-0.1-0.1-0.4-0.2-0.7c-0.4,0.6-1,0.9-1.8,0.9c-0.8,0-1.5-0.3-2-0.8
	c-0.5-0.5-0.8-1.2-0.8-2c0-1,0.3-1.8,0.9-2.3c0.6-0.5,1.6-0.8,2.8-0.8h0.8v-0.8c0-0.4-0.1-0.7-0.2-0.9c-0.1-0.2-0.4-0.3-0.6-0.3
	c-0.6,0-0.9,0.4-0.9,1.1h-2.5c0-0.9,0.3-1.6,1-2.2c0.7-0.6,1.5-0.9,2.5-0.9c1,0,1.8,0.3,2.4,0.8c0.6,0.5,0.9,1.3,0.9,2.3v4.5
	c0,0.8,0.1,1.5,0.4,1.9V48H57.1z M55.6,46.2c0.3,0,0.5-0.1,0.7-0.2c0.2-0.1,0.3-0.2,0.4-0.4v-2h-0.6c-0.4,0-0.8,0.1-1,0.4
	c-0.2,0.3-0.4,0.6-0.4,1.1C54.8,45.9,55.1,46.2,55.6,46.2z M64,43.9l1.3-5.4h2.7l-3.1,10.9c-0.5,1.6-1.4,2.4-2.6,2.4
	c-0.3,0-0.6-0.1-1-0.2v-1.9l0.3,0c0.4,0,0.7-0.1,0.9-0.2c0.2-0.1,0.3-0.4,0.4-0.8l0.2-0.6l-2.7-9.6h2.7L64,43.9z M35.8,61.7
	c-0.1,1.5-0.5,2.6-1.2,3.3c-0.8,0.8-1.8,1.1-3.2,1.1c-1.4,0-2.6-0.5-3.3-1.4c-0.8-1-1.2-2.3-1.2-4.1v-2.2c0-1.8,0.4-3.1,1.2-4.1
	c0.8-1,1.9-1.4,3.3-1.4c1.4,0,2.5,0.4,3.2,1.2c0.7,0.8,1.1,1.9,1.2,3.4h-2.6c0-0.9-0.2-1.5-0.4-1.9c-0.3-0.3-0.7-0.5-1.4-0.5
	c-0.7,0-1.2,0.2-1.5,0.7c-0.3,0.5-0.4,1.3-0.5,2.4v2.4c0,1.3,0.1,2.1,0.4,2.6c0.3,0.5,0.8,0.7,1.5,0.7c0.7,0,1.1-0.2,1.4-0.5
	c0.3-0.3,0.4-0.9,0.4-1.8H35.8z M39.7,57.3c0.5-0.7,1.2-1,2-1c0.9,0,1.5,0.3,2,0.9c0.5,0.6,0.7,1.5,0.7,2.7v6h-2.5v-6
	c0-0.6-0.1-1-0.3-1.2c-0.2-0.3-0.4-0.4-0.8-0.4c-0.5,0-0.8,0.2-1.1,0.6v7h-2.5V52.5h2.5V57.3z M50,66.2c-1.3,0-2.3-0.4-3-1.1
	c-0.7-0.8-1.1-1.9-1.1-3.3V61c0-1.5,0.3-2.7,1-3.5c0.7-0.8,1.6-1.2,2.8-1.2c1.2,0,2.1,0.4,2.7,1.2c0.6,0.8,0.9,1.9,0.9,3.4v1.2h-4.9
	c0,0.7,0.2,1.2,0.5,1.5c0.3,0.3,0.7,0.5,1.3,0.5c0.8,0,1.5-0.3,2.1-0.9l1,1.5c-0.3,0.4-0.7,0.8-1.3,1C51.3,66,50.6,66.2,50,66.2z
	 M48.4,60.3h2.5v-0.2c0-0.6-0.1-1-0.3-1.3c-0.2-0.3-0.5-0.4-0.9-0.4c-0.4,0-0.8,0.2-0.9,0.5C48.5,59.2,48.4,59.7,48.4,60.3z
	 M58.6,66.2c-1.3,0-2.3-0.4-3-1.1c-0.7-0.8-1.1-1.9-1.1-3.3V61c0-1.5,0.3-2.7,1-3.5c0.7-0.8,1.6-1.2,2.8-1.2c1.2,0,2.1,0.4,2.7,1.2
	c0.6,0.8,0.9,1.9,0.9,3.4v1.2H57c0,0.7,0.2,1.2,0.5,1.5c0.3,0.3,0.7,0.5,1.3,0.5c0.8,0,1.5-0.3,2.1-0.9l1,1.5
	c-0.3,0.4-0.7,0.8-1.3,1C59.9,66,59.2,66.2,58.6,66.2z M57,60.3h2.5v-0.2c0-0.6-0.1-1-0.3-1.3c-0.2-0.3-0.5-0.4-0.9-0.4
	c-0.4,0-0.8,0.2-0.9,0.5C57.2,59.2,57,59.7,57,60.3z M67.6,63.5c0-0.2-0.1-0.4-0.3-0.6c-0.2-0.2-0.6-0.4-1.3-0.7
	c-1-0.4-1.7-0.8-2.1-1.3c-0.4-0.4-0.6-1-0.6-1.7c0-0.8,0.3-1.5,0.9-2.1c0.6-0.5,1.4-0.8,2.4-0.8c1,0,1.9,0.3,2.5,0.8
	c0.6,0.5,0.9,1.3,0.9,2.2h-2.5c0-0.8-0.3-1.2-1-1.2c-0.3,0-0.5,0.1-0.7,0.2c-0.2,0.2-0.3,0.4-0.3,0.7c0,0.2,0.1,0.4,0.3,0.6
	c0.2,0.2,0.6,0.4,1.3,0.7c1,0.4,1.7,0.8,2.1,1.3c0.4,0.5,0.6,1.1,0.6,1.8c0,0.8-0.3,1.5-1,2c-0.6,0.5-1.5,0.8-2.5,0.8
	c-0.7,0-1.3-0.1-1.8-0.4c-0.5-0.3-1-0.7-1.3-1.1c-0.3-0.5-0.4-1-0.4-1.6h2.4c0,0.4,0.1,0.8,0.3,1c0.2,0.2,0.5,0.3,0.9,0.3
	C67.2,64.4,67.6,64.1,67.6,63.5z M75.4,66.2c-1.3,0-2.3-0.4-3-1.1c-0.7-0.8-1.1-1.9-1.1-3.3V61c0-1.5,0.3-2.7,1-3.5
	c0.7-0.8,1.6-1.2,2.8-1.2c1.2,0,2.1,0.4,2.7,1.2c0.6,0.8,0.9,1.9,0.9,3.4v1.2h-4.9c0,0.7,0.2,1.2,0.5,1.5c0.3,0.3,0.7,0.5,1.3,0.5
	c0.8,0,1.5-0.3,2.1-0.9l1,1.5c-0.3,0.4-0.7,0.8-1.3,1C76.7,66,76,66.2,75.4,66.2z M73.8,60.3h2.5v-0.2c0-0.6-0.1-1-0.3-1.3
	c-0.2-0.3-0.5-0.4-0.9-0.4s-0.8,0.2-0.9,0.5C73.9,59.2,73.8,59.7,73.8,60.3z M82.7,62.1h-2.1l-0.3-8.9H83L82.7,62.1z M80.3,64.8
	c0-0.4,0.1-0.7,0.4-1c0.3-0.3,0.6-0.4,1-0.4c0.4,0,0.7,0.1,1,0.4c0.3,0.3,0.4,0.6,0.4,1c0,0.4-0.1,0.7-0.4,1c-0.2,0.3-0.6,0.4-1,0.4
	c-0.4,0-0.7-0.1-1-0.4C80.4,65.5,80.3,65.2,80.3,64.8z"/>
</svg>
