<svg width="402" height="185" viewBox="0 0 402 185" fill="none" xmlns="http://www.w3.org/2000/svg">
<path d="M366.851 0.696064L25.2244 65.7387C8.17453 68.9701 -2.57895 82.6912 2.09359 95.2192L17.8344 137.493C21.3803 147.021 32.9622 153.07 46.1017 152.258L358.765 132.919C373.512 132.008 385.872 122.777 387.579 111.426L400.818 23.4651C403.055 8.43489 386.054 -2.96621 366.851 0.696064Z" fill="#FC6170"/>
<path d="M332.966 161.471C332.204 161.471 331.458 161.438 330.696 161.389L44.1132 138.934C31.7028 137.957 21.9932 129.091 20.4853 117.375L14.6695 72.4998C13.7582 65.3907 15.8956 58.2153 20.6842 52.3159C25.8704 45.9359 33.5585 41.8925 41.7935 41.2296L362.377 10.1749C367.016 9.81029 371.44 10.4897 375.516 12.1966C379.36 13.8206 382.757 16.3394 385.342 19.5045C390.462 25.7685 392.086 33.9713 389.782 42.0085L361.598 140.376C358.069 152.722 346.006 161.471 332.966 161.471ZM362.526 11.832L41.9261 42.9033C34.1385 43.5165 26.8645 47.3444 21.96 53.3764C17.4532 58.9113 15.4483 65.6392 16.3099 72.3009L22.1257 117.16C22.8216 122.545 25.307 127.318 29.3168 130.98C33.3431 134.659 38.4962 136.83 44.2292 137.277L330.812 159.715C331.525 159.765 332.237 159.798 332.95 159.798C345.261 159.798 356.644 151.562 359.991 139.912L388.175 41.5445C390.329 34.0376 388.821 26.3982 384.033 20.5485C381.614 17.5988 378.449 15.2457 374.853 13.7211C371.042 12.1303 366.884 11.484 362.526 11.832Z" fill="#FAE661"/>
<path d="M206.211 38.4455C206.311 40.6163 206.161 42.986 205.747 45.5712C205.399 47.8912 204.637 50.9237 203.494 54.6523C202.069 59.458 200.76 62.1426 199.6 62.7225C198.888 63.0871 198.076 63.286 197.148 63.3357C194.845 63.4351 193.652 62.8717 193.602 61.6288C193.552 60.5186 194.215 57.3037 195.607 52.0174C196.999 46.7312 197.628 42.7375 197.496 40.0363C197.297 35.8438 195.557 33.8055 192.276 33.9546C184.522 34.3192 174.763 40.0695 163.032 51.2054C154.432 59.3088 146.827 68.0917 140.216 77.5539C132.179 88.9882 124.988 102.295 118.626 117.474C111.153 135.405 107.673 149.954 108.187 161.123C108.634 170.917 112.545 175.64 119.902 175.308C128.832 174.894 136.869 169.044 143.993 157.743C144.789 156.318 146.031 154.114 147.738 151.131C148.103 150.385 148.533 150.004 149.064 149.971C150.77 149.888 151.715 151.694 151.88 155.39C151.93 156.384 151.798 157.246 151.499 157.975C148.649 164.57 144.109 170.42 137.896 175.54C131.301 180.992 124.657 183.876 117.946 184.191C106.514 184.721 100.416 176.734 99.6539 160.229C99.0077 146.226 102.603 130.035 110.457 111.625C116.869 96.379 125.121 81.8791 135.228 68.1082C148.914 49.2997 164.026 36.4569 180.578 29.5632C185.682 27.4255 190.106 26.2655 193.85 26.0832C201.704 25.7352 205.814 29.8449 206.211 38.4455Z" fill="#0E7C74"/>
<path d="M214.131 62.4409C210.966 66.6666 202.102 81.5145 187.537 106.968C182.368 116.149 175.839 128.991 167.986 145.463C171.796 142.58 178.706 136.051 188.714 125.826C190.288 124.103 193.221 120.838 197.545 116.033C199.915 113.348 201.439 112.006 202.102 111.973C203.344 111.923 204.67 112.752 206.062 114.458C207.288 115.188 207.851 116.878 207.785 119.529C207.802 120.06 206.575 121.866 204.09 124.948C202.665 126.738 200.329 130.665 197.131 136.73C194.579 141.536 193.055 145.397 192.525 148.314C192.11 150.634 192.276 152.125 193.022 152.738C193.287 152.921 193.635 153.003 194.016 152.987C196.65 152.871 201.787 147.253 209.442 136.15C210.734 134.245 211.878 133.267 212.855 133.217C214.032 133.167 214.661 133.897 214.728 135.405C214.744 135.67 214.678 135.902 214.562 136.101C209.823 144.817 205.73 150.949 202.267 154.528C198.556 158.389 194.579 160.411 190.304 160.61C189.31 160.659 188.15 159.615 186.808 157.511C185.317 155.141 184.505 152.49 184.373 149.523C184.257 147.154 186.295 141.205 190.47 131.676C189.459 132.637 188.482 133.549 187.537 134.377C186.394 135.487 180.959 140.906 171.2 150.634C165.086 156.715 161.639 159.765 160.861 159.798C160.794 159.798 160.728 159.765 160.662 159.715C160.264 159.665 159.734 159.185 159.071 158.257C158.408 157.329 158.061 156.682 158.044 156.285C157.878 148.33 164.721 131.146 178.573 104.714C193.453 76.3442 202.615 60.8169 206.062 58.1489C206.824 57.5854 208.266 57.4197 210.386 57.6517C210.85 57.7014 211.629 58.2483 212.739 59.3254C213.816 60.4192 214.297 61.4466 214.131 62.4409Z" fill="#0E7C74"/>
<path d="M243.725 143.044C240.295 145.961 235.506 148.977 229.326 152.075C222.45 155.671 217.131 157.561 213.386 157.726C212.276 157.776 211.365 157.677 210.652 157.411C209.956 157.146 209.244 156.351 208.515 154.992C208.167 154.743 207.802 154.429 207.388 154.064C206.775 153.633 206.112 152.49 205.4 150.667C204.687 148.827 204.389 147.551 204.488 146.822C204.488 145.381 205.168 142.414 206.543 137.957C208.863 132.472 211.514 127.865 214.496 124.136C217.479 120.424 220.544 117.375 223.659 114.989C227.42 112.188 230.933 110.581 234.197 110.166C234.529 110.15 234.827 110.133 235.092 110.133C235.158 110.133 235.224 110.133 235.291 110.117C235.804 109.835 236.467 110.067 237.296 110.813C239.499 113.033 240.775 115.502 241.09 118.204C241.488 121.302 241.09 124.832 239.897 128.809C239.781 129.141 239.665 129.422 239.533 129.621C239.052 130.698 238.091 132.206 236.633 134.129C235.175 136.051 231.43 137.161 225.382 137.426C221.969 137.592 219.086 137.244 216.75 136.382C213.734 142.447 212.425 146.789 212.806 149.374C213.751 150.054 214.695 150.369 215.623 150.319C218.44 150.186 223.278 148.579 230.105 145.463C235.655 142.994 239.417 141.105 241.405 139.779C242.167 139.233 242.946 138.934 243.725 138.885C244.901 138.835 245.514 139.266 245.564 140.177C245.613 141.055 244.984 142 243.725 143.044ZM235.672 116.281C235.589 116.082 235.423 115.966 235.158 115.917C233.783 116.116 232.308 116.944 230.734 118.402C227.006 121.816 223.593 125.744 220.511 130.185C222.367 130.5 224.769 130.45 227.719 130.052C229.939 129.754 231.082 129.605 231.148 129.588C232.391 129.273 233.369 128.561 234.114 127.467C236.219 121.617 236.732 117.889 235.672 116.281Z" fill="#0E7C74"/>
<path d="M275.256 141.602C271.826 144.519 267.037 147.535 260.857 150.634C253.981 154.23 248.662 156.119 244.917 156.285C243.807 156.334 242.896 156.235 242.183 155.97C241.487 155.705 240.775 154.909 240.046 153.55C239.698 153.302 239.333 152.987 238.919 152.622C238.306 152.191 237.643 151.048 236.931 149.225C236.218 147.386 235.92 146.11 236.02 145.381C236.02 143.939 236.699 140.973 238.074 136.515C240.394 131.03 243.045 126.423 246.027 122.694C249.01 118.982 252.075 115.933 255.19 113.547C258.952 110.746 262.464 109.139 265.728 108.725C266.06 108.708 266.358 108.692 266.623 108.692C266.689 108.692 266.756 108.692 266.822 108.675C267.336 108.393 267.998 108.625 268.827 109.371C271.031 111.592 272.306 114.061 272.621 116.762C273.019 119.861 272.621 123.39 271.428 127.368C271.312 127.699 271.196 127.981 271.064 128.18C270.583 129.257 269.622 130.765 268.164 132.687C266.706 134.609 262.961 135.719 256.913 135.985C253.5 136.134 250.617 135.802 248.281 134.941C245.265 141.006 243.956 145.347 244.337 147.933C245.282 148.612 246.226 148.927 247.154 148.877C249.971 148.745 254.809 147.137 261.636 144.022C267.186 141.553 270.948 139.663 272.936 138.338C273.698 137.791 274.477 137.493 275.256 137.443C276.432 137.393 277.045 137.824 277.095 138.735C277.145 139.614 276.532 140.558 275.256 141.602ZM267.203 114.823C267.12 114.624 266.955 114.508 266.689 114.458C265.314 114.657 263.839 115.486 262.265 116.944C258.537 120.358 255.124 124.285 252.042 128.726C253.898 129.041 256.3 128.992 259.25 128.594C261.47 128.296 262.613 128.146 262.68 128.13C263.922 127.815 264.9 127.102 265.646 126.009C267.75 120.159 268.263 116.43 267.203 114.823Z" fill="#0E7C74"/>
<path d="M312.901 136.034C313.481 137.128 312.818 138.387 310.896 139.796C304.533 144.519 299.413 146.971 295.536 147.154C294.807 147.187 294.128 147.22 293.465 147.253C290.599 152.225 286.572 154.826 281.386 155.058C275.404 155.34 271.925 152.407 270.914 146.259C268.114 149.606 264.8 153.02 261.022 156.55C260.442 156.649 259.481 156.036 258.172 154.71C257.626 154.147 257.46 153.401 257.675 152.457C257.94 151.065 264.088 143.641 276.1 130.185C278.851 127.036 283.59 121.253 290.317 112.834C294.923 107.084 297.624 104.168 298.403 104.068C299.38 103.952 300.524 104.4 301.816 105.394C303.108 106.388 303.953 107.382 304.318 108.36C304.6 108.874 303.688 110.316 301.551 112.652C299.828 115.436 298.668 120.192 298.055 126.903C297.359 134.609 296.563 139.697 295.702 142.182C298.452 141.983 301.335 141.022 304.351 139.266C306.008 138.189 307.681 137.095 309.338 136.001C311.144 135.057 312.337 135.073 312.901 136.034ZM284.816 145.729C283.871 145.331 282.364 144.734 280.292 143.939C277.807 142.961 276.415 142.679 276.1 143.077C275.736 143.607 275.636 144.436 275.819 145.579C275.868 145.646 275.885 145.729 275.835 145.861C276.332 147.949 277.459 149.026 279.249 149.142C281.353 149.175 283.209 148.032 284.816 145.729ZM290.433 124.219C285.462 129.323 281.137 134.029 277.459 138.354C277.857 138.404 281.154 139.199 287.351 140.757C288.246 138.669 288.875 135.985 289.256 132.67C289.869 127.699 290.267 124.882 290.433 124.219Z" fill="#0E7C74"/>
<path d="M342.858 138.487C339.428 141.403 334.64 144.419 328.46 147.518C321.583 151.114 316.265 153.003 312.52 153.169C311.41 153.219 310.498 153.119 309.786 152.854C309.09 152.589 308.378 151.794 307.648 150.435C307.3 150.186 306.936 149.871 306.522 149.507C305.909 149.076 305.246 147.933 304.533 146.11C303.821 144.27 303.523 142.994 303.622 142.265C303.622 140.823 304.301 137.857 305.677 133.399C307.996 127.914 310.648 123.307 313.63 119.579C316.612 115.867 319.678 112.818 322.793 110.432C326.554 107.631 330.067 106.024 333.331 105.609C333.662 105.593 333.961 105.576 334.226 105.576C334.292 105.576 334.358 105.576 334.424 105.56C334.938 105.278 335.601 105.51 336.429 106.256C338.633 108.476 339.909 110.945 340.224 113.646C340.621 116.745 340.224 120.275 339.031 124.252C338.915 124.583 338.799 124.865 338.666 125.064C338.186 126.141 337.225 127.649 335.767 129.571C334.308 131.494 330.564 132.604 324.516 132.869C321.103 133.018 318.22 132.687 315.883 131.825C312.868 137.89 311.559 142.232 311.94 144.817C312.884 145.497 313.829 145.811 314.757 145.762C317.573 145.629 322.412 144.022 329.238 140.906C334.789 138.437 338.55 136.548 340.539 135.222C341.301 134.675 342.079 134.377 342.858 134.327C344.035 134.278 344.648 134.709 344.697 135.62C344.731 136.498 344.118 137.443 342.858 138.487ZM334.806 111.708C334.723 111.509 334.557 111.393 334.292 111.343C332.917 111.542 331.442 112.37 329.868 113.829C326.14 117.242 322.727 121.17 319.645 125.611C321.5 125.926 323.903 125.876 326.852 125.478C329.073 125.18 330.216 125.031 330.282 125.014C331.525 124.699 332.502 123.987 333.248 122.893C335.352 117.043 335.866 113.315 334.806 111.708Z" fill="#0E7C74"/>
<path d="M208.415 34.1701C208.515 36.341 208.366 38.7107 207.951 41.2958C207.603 43.6158 206.841 46.6484 205.698 50.3769C204.273 55.1826 202.964 57.8672 201.804 58.4472C201.092 58.8117 200.28 59.0106 199.352 59.0603C197.049 59.1597 195.856 58.5963 195.806 57.3535C195.756 56.2432 196.419 53.0283 197.811 47.7421C199.203 42.4558 199.832 38.4621 199.7 35.761C199.501 31.5684 197.761 29.5301 194.48 29.6793C186.726 30.0438 176.967 35.7941 165.236 46.9301C156.653 55.0335 149.047 63.8163 142.436 73.262C134.4 84.6962 127.209 98.003 120.846 113.182C113.374 131.113 109.894 145.662 110.408 156.831C110.855 166.625 114.766 171.348 122.122 171.017C131.053 170.602 139.089 164.753 146.214 153.451C147.009 152.026 148.252 149.822 149.959 146.839C150.323 146.093 150.754 145.712 151.284 145.679C152.991 145.596 153.935 147.402 154.101 151.098C154.151 152.092 154.018 152.954 153.72 153.683C150.87 160.278 146.33 166.128 140.117 171.249C133.522 176.701 126.878 179.584 120.167 179.899C108.734 180.429 102.637 172.442 101.875 155.937C101.228 141.934 104.824 125.744 112.678 107.333C119.09 92.0871 127.342 77.5871 137.449 63.8163C151.135 45.0078 166.246 32.165 182.799 25.2713C187.902 23.1336 192.327 21.9736 196.071 21.7913C203.925 21.4433 208.018 25.5696 208.415 34.1701Z" fill="#70E4DE"/>
<path d="M216.352 58.1489C213.187 62.3746 204.322 77.2225 189.758 102.676C184.588 111.857 178.06 124.699 170.206 141.171C174.017 138.288 180.927 131.759 190.934 121.534C192.509 119.811 195.441 116.546 199.766 111.741C202.135 109.056 203.66 107.714 204.322 107.681C205.565 107.631 206.891 108.46 208.283 110.166C209.509 110.896 210.072 112.586 210.006 115.237C210.022 115.768 208.796 117.574 206.311 120.656C204.886 122.446 202.55 126.373 199.352 132.438C196.8 137.244 195.276 141.105 194.745 144.022C194.331 146.342 194.497 147.833 195.242 148.446C195.508 148.629 195.856 148.711 196.237 148.695C198.871 148.579 204.008 142.961 211.663 131.858C212.955 129.953 214.098 128.975 215.076 128.925C216.252 128.875 216.882 129.605 216.948 131.113C216.965 131.378 216.899 131.61 216.783 131.809C212.044 140.525 207.951 146.657 204.488 150.236C200.777 154.097 196.8 156.119 192.525 156.318C191.531 156.367 190.371 155.323 189.029 153.219C187.538 150.849 186.726 148.198 186.593 145.231C186.477 142.862 188.515 136.913 192.691 127.384C191.68 128.345 190.702 129.257 189.758 130.085C188.615 131.195 183.18 136.614 173.421 146.342C167.307 152.423 163.86 155.473 163.081 155.506C163.015 155.506 162.949 155.473 162.883 155.423C162.485 155.373 161.955 154.893 161.292 153.965C160.629 153.037 160.281 152.39 160.265 151.993C160.099 144.038 166.942 126.854 180.794 100.422C195.673 72.0522 204.836 56.5249 208.283 53.8569C209.045 53.2935 210.486 53.1277 212.607 53.3597C213.071 53.4095 213.85 53.9563 214.96 55.0334C216.02 56.1272 216.501 57.1546 216.352 58.1489Z" fill="#70E4DE"/>
<path d="M245.945 138.769C242.532 141.685 237.727 144.701 231.546 147.8C224.67 151.396 219.351 153.285 215.607 153.451C214.497 153.5 213.585 153.401 212.873 153.136C212.177 152.871 211.464 152.075 210.735 150.716C210.387 150.468 210.023 150.153 209.609 149.789C208.996 149.358 208.333 148.214 207.62 146.375C206.908 144.535 206.61 143.259 206.709 142.53C206.709 141.089 207.388 138.122 208.764 133.665C211.083 128.179 213.734 123.573 216.717 119.844C219.699 116.132 222.765 113.083 225.88 110.697C229.641 107.896 233.154 106.289 236.418 105.874C236.749 105.858 237.047 105.841 237.313 105.841C237.379 105.841 237.445 105.841 237.511 105.825C238.025 105.543 238.688 105.775 239.516 106.521C241.72 108.741 242.996 111.21 243.311 113.912C243.708 117.01 243.311 120.54 242.118 124.517C242.002 124.849 241.886 125.13 241.753 125.329C241.273 126.406 240.312 127.914 238.854 129.837C237.395 131.759 233.651 132.869 227.603 133.134C224.19 133.283 221.307 132.952 218.97 132.09C215.955 138.155 214.646 142.497 215.027 145.082C215.971 145.762 216.916 146.077 217.844 146.027C220.66 145.894 225.499 144.287 232.325 141.171C237.876 138.702 241.637 136.813 243.626 135.487C244.388 134.941 245.166 134.642 245.945 134.593C247.122 134.543 247.735 134.974 247.784 135.885C247.818 136.78 247.205 137.725 245.945 138.769ZM237.893 111.989C237.81 111.79 237.644 111.674 237.379 111.608C236.004 111.807 234.529 112.636 232.955 114.094C229.227 117.507 225.813 121.435 222.732 125.876C224.587 126.191 226.99 126.141 229.939 125.743C232.16 125.445 233.303 125.296 233.369 125.279C234.612 124.965 235.589 124.252 236.335 123.158C238.439 117.325 238.953 113.597 237.893 111.989Z" fill="#70E4DE"/>
<path d="M277.476 137.31C274.047 140.227 269.258 143.243 263.078 146.342C256.201 149.938 250.883 151.827 247.138 151.993C246.028 152.042 245.117 151.943 244.404 151.678C243.708 151.413 242.996 150.617 242.267 149.258C241.919 149.01 241.554 148.695 241.14 148.33C240.527 147.899 239.864 146.756 239.152 144.917C238.439 143.077 238.141 141.801 238.24 141.072C238.24 139.63 238.92 136.664 240.295 132.206C242.615 126.721 245.266 122.114 248.248 118.386C251.231 114.674 254.296 111.625 257.411 109.238C261.172 106.438 264.685 104.83 267.949 104.416C268.28 104.4 268.579 104.383 268.844 104.383C268.91 104.383 268.976 104.383 269.043 104.366C269.556 104.085 270.219 104.317 271.047 105.062C273.251 107.283 274.527 109.752 274.842 112.453C275.239 115.552 274.842 119.082 273.649 123.059C273.533 123.39 273.417 123.672 273.284 123.871C272.804 124.948 271.843 126.456 270.385 128.378C268.927 130.301 265.182 131.411 259.134 131.676C255.721 131.825 252.838 131.494 250.502 130.632C247.486 136.697 246.177 141.039 246.558 143.624C247.503 144.303 248.447 144.618 249.375 144.569C252.192 144.436 257.03 142.829 263.856 139.713C269.407 137.244 273.168 135.355 275.157 134.029C275.919 133.482 276.698 133.184 277.476 133.134C278.653 133.085 279.266 133.515 279.316 134.427C279.349 135.322 278.736 136.266 277.476 137.31ZM269.424 110.548C269.341 110.349 269.175 110.233 268.91 110.166C267.535 110.365 266.06 111.194 264.486 112.652C260.758 116.066 257.345 119.993 254.263 124.434C256.119 124.749 258.521 124.699 261.47 124.302C263.691 124.003 264.834 123.854 264.9 123.838C266.126 123.523 267.121 122.81 267.866 121.717C269.97 115.867 270.484 112.138 269.424 110.548Z" fill="#70E4DE"/>
<path d="M315.122 131.742C315.701 132.836 315.039 134.096 313.117 135.504C306.754 140.227 301.634 142.68 297.757 142.862C297.028 142.895 296.348 142.928 295.686 142.961C292.819 147.933 288.793 150.534 283.607 150.766C277.625 151.048 274.146 148.115 273.135 141.967C270.335 145.314 267.021 148.728 263.243 152.258C262.663 152.357 261.702 151.744 260.393 150.418C259.846 149.855 259.681 149.109 259.896 148.165C260.161 146.773 266.308 139.349 278.321 125.893C281.072 122.744 285.81 116.961 292.538 108.542C297.144 102.792 299.845 99.8757 300.623 99.7762C301.601 99.6602 302.744 100.108 304.037 101.102C305.329 102.096 306.174 103.091 306.539 104.068C306.82 104.582 305.909 106.024 303.772 108.36C302.048 111.144 300.888 115.9 300.275 122.612C299.579 130.317 298.784 135.405 297.923 137.89C300.673 137.692 303.556 136.73 306.572 134.974C308.229 133.897 309.902 132.803 311.559 131.709C313.365 130.765 314.542 130.781 315.122 131.742ZM287.02 141.437C286.076 141.039 284.568 140.442 282.497 139.647C280.011 138.669 278.619 138.388 278.304 138.785C277.94 139.316 277.841 140.144 278.023 141.288C278.073 141.354 278.089 141.437 278.039 141.569C278.536 143.641 279.663 144.734 281.453 144.85C283.557 144.884 285.413 143.74 287.02 141.437ZM292.654 119.944C287.683 125.048 283.358 129.754 279.68 134.079C280.077 134.129 283.375 134.924 289.572 136.482C290.466 134.394 291.096 131.709 291.477 128.395C292.09 123.424 292.488 120.606 292.654 119.944Z" fill="#70E4DE"/>
<path d="M345.062 134.195C341.649 137.111 336.844 140.127 330.664 143.226C323.787 146.822 318.469 148.711 314.724 148.877C313.614 148.927 312.703 148.827 311.99 148.562C311.294 148.297 310.582 147.502 309.853 146.143C309.505 145.894 309.14 145.579 308.726 145.215C308.113 144.784 307.45 143.641 306.738 141.801C306.025 139.962 305.727 138.686 305.826 137.957C305.826 136.515 306.506 133.549 307.881 129.091C310.201 123.606 312.852 118.999 315.834 115.27C318.817 111.558 321.882 108.509 324.997 106.123C328.758 103.322 332.271 101.715 335.535 101.301C335.866 101.284 336.165 101.268 336.43 101.268C336.496 101.268 336.562 101.268 336.629 101.251C337.142 100.969 337.805 101.201 338.634 101.947C340.837 104.168 342.113 106.637 342.428 109.338C342.826 112.437 342.428 115.966 341.235 119.943C341.119 120.275 341.003 120.557 340.87 120.755C340.39 121.833 339.429 123.341 337.971 125.263C336.513 127.185 332.768 128.295 326.72 128.561C323.307 128.71 320.424 128.378 318.088 127.517C315.072 133.582 313.763 137.923 314.144 140.509C315.088 141.188 316.033 141.503 316.961 141.453C319.778 141.321 324.616 139.713 331.442 136.598C336.993 134.129 340.754 132.239 342.743 130.914C343.505 130.367 344.284 130.069 345.062 130.019C346.239 129.969 346.852 130.4 346.902 131.311C346.951 132.206 346.338 133.167 345.062 134.195ZM337.026 107.432C336.943 107.233 336.778 107.117 336.513 107.051C335.137 107.25 333.663 108.078 332.089 109.537C328.361 112.95 324.947 116.878 321.865 121.319C323.721 121.634 326.124 121.584 329.073 121.186C331.293 120.888 332.437 120.739 332.503 120.722C333.729 120.407 334.723 119.695 335.469 118.601C337.556 112.768 338.087 109.04 337.026 107.432Z" fill="#70E4DE"/>
<g opacity="0.3">
<g opacity="0.3">
<path opacity="0.3" d="M82.0239 69.4673L72.6788 92.3027L73.7558 103.985C73.8055 104.449 73.4576 104.814 73.0268 104.864L61.8756 105.891C61.4448 105.924 61.0471 105.643 60.9974 105.162L59.9536 93.8604L46.9964 72.6987C46.7644 72.2844 47.0129 71.7873 47.4769 71.7542L58.2966 70.7599C59.092 70.6936 59.8376 71.0416 60.2352 71.721L70.6905 88.8061L78.594 69.4176C78.7597 69.0696 79.058 68.8542 79.3894 68.821L81.3611 68.6387C81.8582 68.589 82.173 69.0365 82.0239 69.4673Z" fill="#2D1014"/>
</g>
<g opacity="0.3">
<path opacity="0.3" d="M122.917 82.5587C123.878 93.065 115.262 102.494 103.68 103.555C92.1475 104.615 81.9408 96.9095 80.9798 86.4198C80.0022 75.8805 88.6348 66.4348 100.167 65.3742C111.749 64.3136 121.956 72.0193 122.917 82.5587ZM105.502 72.7319C105.27 70.1965 103.05 68.3073 100.515 68.5393C100.515 68.5393 100.515 68.5393 100.465 68.5393C100.465 68.5393 100.465 68.5393 100.416 68.5393C97.9136 68.7713 96.091 71.025 96.323 73.577L98.4107 96.2301C98.6427 98.7655 100.863 100.655 103.348 100.423C103.398 100.423 103.398 100.423 103.398 100.423C103.448 100.423 103.448 100.423 103.448 100.423C105.983 100.191 107.822 97.937 107.59 95.385L105.502 72.7319Z" fill="#2D1014"/>
</g>
<g opacity="0.3">
<path opacity="0.3" d="M161.821 62.0268L163.362 78.8301C164.323 89.3364 156.834 98.666 146.66 99.594L145.053 99.7432C134.88 100.688 125.816 92.8661 124.839 82.3764L123.298 65.573C123.264 65.1422 123.546 64.7445 124.027 64.6947L136.686 63.5348C137.15 63.485 137.514 63.833 137.564 64.2639L140.198 92.7998C140.414 95.0535 142.419 96.8266 144.722 96.6112C144.771 96.6112 144.771 96.6112 144.771 96.6112L146.379 96.462C146.379 96.462 146.379 96.462 146.428 96.462C148.731 96.2466 150.388 94.1421 150.19 91.8884L147.555 63.3525C147.522 62.9216 147.804 62.5239 148.284 62.4742L160.943 61.3142C161.357 61.2645 161.771 61.6125 161.821 62.0268Z" fill="#2D1014"/>
</g>
<g opacity="0.3">
<path opacity="0.3" d="M200.428 93.1312L187.57 94.3077C187.288 94.3409 186.99 94.2249 186.825 93.9432L179.319 82.6249L180.379 94.1586C180.429 94.6226 180.131 94.9872 179.65 95.0369L168.532 96.0643C168.068 96.114 167.704 95.8157 167.654 95.3352L164.555 61.7616C164.522 61.3307 164.804 60.933 165.284 60.8833L184.207 59.1433C190.47 58.5633 196.352 63.1536 196.932 69.4673C197.296 73.4278 195.275 77.173 192.292 79.4929L200.743 92.3855C201.008 92.7003 200.809 93.098 200.428 93.1312ZM186.278 70.4615C185.88 66.0867 182.98 62.4576 180.677 62.673L178.424 62.8884C177.91 62.9381 177.562 63.3524 177.612 63.8164L178.971 78.5484C179.02 79.0124 179.418 79.3604 179.948 79.3107L182.202 79.0952C184.488 78.8798 186.692 74.8364 186.278 70.4615Z" fill="#2D1014"/>
</g>
</g>
<path d="M84.2446 66.0866L74.8995 88.922L75.9765 100.605C76.0262 101.069 75.6783 101.433 75.2475 101.483L64.0963 102.51C63.6655 102.544 63.2678 102.262 63.2181 101.781L62.1743 90.4797L49.2171 69.3181C48.9851 68.9038 49.2336 68.4066 49.6976 68.3735L60.5173 67.3792C61.3127 67.3129 62.0583 67.6609 62.456 68.3403L72.9112 85.4254L80.8148 66.0369C80.9805 65.6889 81.2787 65.4735 81.6101 65.4404L83.5818 65.2581C84.0624 65.2084 84.3937 65.6558 84.2446 66.0866Z" fill="white"/>
<path d="M125.137 79.178C126.098 89.6843 117.482 99.1134 105.9 100.174C94.3682 101.235 84.1615 93.5289 83.2005 83.0392C82.2229 72.4998 90.8555 63.0541 102.388 61.9935C113.97 60.933 124.176 68.6386 125.137 79.178ZM107.707 69.3346C107.475 66.7992 105.254 64.9101 102.719 65.1421C102.719 65.1421 102.719 65.1421 102.669 65.1421C102.669 65.1421 102.669 65.1421 102.62 65.1421C100.118 65.3741 98.2951 67.6278 98.5271 70.1798L100.615 92.8329C100.847 95.3683 103.067 97.2574 105.552 97.0254C105.602 97.0254 105.602 97.0254 105.602 97.0254C105.652 97.0254 105.652 97.0254 105.652 97.0254C108.187 96.7934 110.026 94.5397 109.794 91.9877L107.707 69.3346Z" fill="white"/>
<path d="M164.026 58.6462L165.567 75.4495C166.528 85.9558 159.039 95.2854 148.865 96.2134L147.258 96.3626C137.085 97.3071 128.021 89.4855 127.044 78.9958L125.503 62.1924C125.469 61.7616 125.751 61.3639 126.232 61.3142L138.891 60.1542C139.355 60.1044 139.719 60.4524 139.769 60.8833L142.403 89.4192C142.619 91.6729 144.624 93.446 146.927 93.2306C146.976 93.2306 146.976 93.2306 146.976 93.2306L148.584 93.0814C148.584 93.0814 148.584 93.0814 148.633 93.0814C150.937 92.866 152.593 90.7615 152.395 88.5077L149.76 59.9719C149.727 59.541 150.009 59.1433 150.489 59.0936L163.148 57.9336C163.579 57.8839 163.993 58.2153 164.026 58.6462Z" fill="white"/>
<path d="M202.649 89.7506L189.791 90.9271C189.509 90.9603 189.211 90.8443 189.045 90.5626L181.539 79.2443L182.6 90.778C182.65 91.242 182.351 91.6066 181.871 91.6563L170.769 92.6837C170.305 92.7334 169.941 92.4351 169.891 91.9546L166.793 58.381C166.76 57.9501 167.041 57.5524 167.522 57.5027L186.444 55.7627C192.707 55.1827 198.589 59.773 199.169 66.0866C199.534 70.0472 197.512 73.7923 194.53 76.1123L202.98 89.0048C203.212 89.3197 203.013 89.7174 202.649 89.7506ZM188.498 67.0809C188.101 62.7061 185.201 59.077 182.898 59.2924L180.645 59.5078C180.131 59.5575 179.783 59.9718 179.833 60.4358L181.191 75.1678C181.241 75.6318 181.639 75.9798 182.169 75.93L184.422 75.7146C186.709 75.4992 188.896 71.4558 188.498 67.0809Z" fill="white"/>
</svg>
