<svg width="458" height="205" viewBox="0 0 458 205" fill="none" xmlns="http://www.w3.org/2000/svg">
<g clip-path="url(#clip0)">
<path d="M82.3991 66.8932C82.4141 66.9895 82.3884 67.1414 82.4182 67.334C82.1751 68.3085 81.8473 69.6906 81.3942 71.5359C78.5787 84.8413 75.6952 99.9323 72.6955 116.816C70.5928 128.68 68.3574 143.818 66.0225 162.128C65.6666 164.599 65.3048 168.303 64.8485 173.305C64.7075 175.891 64.1316 177.262 63.1208 177.419C62.3988 177.531 61.4643 176.591 60.3173 174.599C59.2558 172.841 58.7023 171.497 58.5529 170.534C57.8507 166.009 58.8455 156.536 61.4817 142.075C58.9896 142.215 55.3165 142.686 50.3587 143.455C44.4382 144.374 40.6913 145.005 39.151 145.244C36.0598 151.689 32.3744 159.706 28.1281 169.19C26.8725 171.9 25.0892 175.973 22.7448 181.514C21.837 183.923 20.8055 185.217 19.7465 185.381C18.7839 185.53 18.1265 184.153 17.6858 181.313C17.4841 180.013 17.3754 178.994 17.3671 178.305C17.3778 175.197 21.9005 164.635 30.9907 146.658C27.54 147.292 24.6188 147.844 22.2345 148.361C18.6618 149.162 17.2809 149.475 18.1954 149.333C17.5697 149.43 16.9506 148.935 16.2493 147.909C15.6667 147.014 15.3546 146.273 15.2982 145.592L15.2534 145.303C15.0923 143.947 21.5779 141.906 34.7508 139.122C38.286 132.361 42.1241 125.011 46.3613 117.056C48.2343 113.561 57.5171 95.5543 74.3134 63.0694C74.5499 62.6875 74.8644 62.4908 75.2495 62.4311C75.8271 62.3414 76.4346 62.4444 77.1757 62.7732C77.794 62.6279 78.8056 63.1119 80.2181 64.2733C81.575 65.394 82.302 66.2673 82.3991 66.8932ZM74.2639 76.0936C67.0566 89.686 56.529 110.154 42.6331 137.505C51.5005 135.882 58.2392 134.837 62.8899 134.313C63.7139 130.092 67.5102 110.718 74.2639 76.0936Z" fill="#FC6170"/>
<path d="M167.112 57.5459C167.351 59.0866 167.42 60.8016 167.319 62.6909C167.236 64.3801 166.946 66.6438 166.387 69.393C165.754 72.9425 165.035 74.977 164.228 75.4966C163.736 75.8195 163.174 76.0054 162.5 76.1099C160.863 76.3639 159.978 76.0575 159.836 75.1427C159.709 74.3243 159.935 71.9718 160.515 68.0853C161.088 64.1507 161.232 61.2686 160.926 59.2946C160.463 56.3096 159.068 54.9481 156.71 55.3141C151.174 56.1729 144.593 61.0892 137.053 69.9999C131.518 76.5781 126.724 83.4851 122.734 90.8096C117.846 99.654 113.704 109.813 110.342 121.181C106.371 134.666 104.978 145.384 106.218 153.376C107.309 160.406 110.494 163.461 115.74 162.647C122.142 161.654 127.458 156.836 131.687 148.192C132.155 147.084 132.887 145.442 133.865 143.17C134.072 142.596 134.371 142.303 134.756 142.243C135.96 142.056 136.787 143.259 137.198 145.907C137.31 146.629 137.303 147.222 137.145 147.789C135.6 152.762 132.802 157.288 128.712 161.424C124.37 165.845 119.84 168.421 115.027 169.168C106.844 170.437 101.834 165.15 100.004 153.354C98.45 143.34 99.7527 131.403 103.967 117.585C107.419 106.153 112.211 95.1048 118.441 84.4251C126.821 69.8126 136.691 59.4062 148.045 53.1578C151.542 51.2347 154.662 50.0603 157.31 49.6495C162.893 48.7832 166.163 51.4314 167.112 57.5459Z" fill="#FC6170"/>
<path d="M174.725 74.213C172.767 77.4752 167.586 88.8796 159.064 108.297C156.063 115.32 152.391 125.011 148.015 137.474C150.556 135.108 155.019 129.879 161.397 121.74C162.372 120.406 164.236 117.799 167.001 114.017C168.498 111.912 169.511 110.817 169.944 110.75C170.859 110.608 171.87 111.092 172.987 112.25C173.943 112.694 174.466 113.845 174.613 115.745C174.673 116.13 173.905 117.532 172.356 119.941C171.484 121.309 170.081 124.337 168.283 128.955C166.825 132.583 166.04 135.466 165.88 137.611C165.749 139.308 166.009 140.352 166.566 140.759C166.78 140.873 167.029 140.884 167.317 140.839C169.195 140.548 172.448 136.099 177.084 127.54C177.893 126.083 178.607 125.282 179.329 125.17C180.195 125.036 180.663 125.506 180.834 126.613C180.864 126.806 180.839 126.958 180.765 127.117C178.048 133.751 175.576 138.473 173.358 141.332C170.977 144.413 168.291 146.161 165.21 146.639C164.488 146.751 163.599 146.1 162.445 144.702C161.165 143.125 160.385 141.274 160.057 139.156C159.795 137.471 160.782 133.028 163.065 125.82C162.399 126.614 161.767 127.304 161.183 127.986C160.436 128.891 156.96 133.177 150.723 140.949C146.793 145.799 144.563 148.265 143.985 148.355C143.937 148.362 143.881 148.322 143.833 148.329C143.537 148.326 143.14 147.993 142.554 147.393C142.017 146.787 141.701 146.342 141.656 146.054C140.919 140.35 144.491 127.47 152.412 107.357C160.894 85.7764 166.296 73.8938 168.523 71.7241C169.04 71.2493 170.044 71.0443 171.573 71.0535C171.918 71.0494 172.514 71.4006 173.404 72.0514C174.357 72.7911 174.765 73.5166 174.725 74.213Z" fill="#FC6170"/>
<path d="M202.245 129.898C200 132.268 196.8 134.835 192.589 137.559C187.901 140.703 184.23 142.456 181.582 142.867C180.764 142.993 180.123 142.994 179.605 142.828C179.086 142.662 178.515 142.159 177.884 141.271C177.614 141.116 177.336 140.912 177.002 140.668C176.517 140.398 175.956 139.647 175.314 138.366C174.672 137.085 174.337 136.2 174.351 135.656C174.242 134.637 174.491 132.429 175.161 129.121C176.393 124.985 177.962 121.438 179.78 118.543C181.646 115.64 183.587 113.219 185.644 111.223C188.144 108.913 190.531 107.458 192.867 106.947C193.108 106.91 193.3 106.88 193.493 106.85C193.541 106.843 193.589 106.835 193.637 106.828C193.992 106.575 194.504 106.693 195.123 107.189C196.869 108.594 197.971 110.297 198.414 112.2C198.95 114.385 198.954 116.949 198.376 119.898C198.317 120.153 198.251 120.361 198.177 120.52C197.912 121.35 197.346 122.474 196.449 123.993C195.551 125.513 192.952 126.557 188.62 127.23C186.165 127.61 184.092 127.587 182.35 127.167C180.649 131.77 180.068 135.015 180.552 136.863C181.308 137.288 181.971 137.432 182.645 137.327C184.667 137.014 188.024 135.457 192.675 132.714C196.472 130.498 199.021 128.821 200.331 127.73C200.849 127.255 201.348 126.98 201.926 126.891C202.792 126.756 203.23 127.034 203.334 127.708C203.431 128.334 203.047 129.034 202.245 129.898ZM194.373 111.25C194.302 111.113 194.191 111.031 193.991 111.013C192.995 111.266 192.018 111.96 191.02 113.15C188.587 115.895 186.454 118.987 184.566 122.386C185.911 122.473 187.651 122.252 189.739 121.731C191.305 121.34 192.116 121.165 192.164 121.158C193.048 120.823 193.696 120.23 194.113 119.425C195.155 115.023 195.233 112.349 194.373 111.25Z" fill="#FC6170"/>
<path d="M224.771 126.403C222.526 128.773 219.326 131.34 215.115 134.064C210.427 137.208 206.756 138.961 204.109 139.371C203.29 139.498 202.65 139.499 202.131 139.333C201.612 139.167 201.041 138.664 200.411 137.776C200.14 137.621 199.862 137.417 199.528 137.173C199.043 136.903 198.483 136.152 197.84 134.871C197.198 133.59 196.864 132.705 196.878 132.161C196.769 131.142 197.018 128.934 197.687 125.625C198.919 121.49 200.488 117.943 202.306 115.048C204.173 112.145 206.114 109.724 208.17 107.728C210.671 105.417 213.057 103.962 215.394 103.452C215.634 103.415 215.827 103.385 216.019 103.355C216.067 103.348 216.116 103.34 216.164 103.333C216.519 103.08 217.03 103.198 217.649 103.694C219.395 105.099 220.497 106.802 220.941 108.705C221.477 110.89 221.48 113.453 220.903 116.403C220.844 116.658 220.777 116.866 220.704 117.025C220.438 117.855 219.873 118.978 218.975 120.498C218.077 122.018 215.479 123.062 211.147 123.734C208.692 124.115 206.618 124.092 204.877 123.672C203.176 128.275 202.595 131.52 203.079 133.368C203.835 133.793 204.498 133.937 205.172 133.832C207.193 133.519 210.55 131.962 215.202 129.219C218.998 127.003 221.548 125.325 222.857 124.235C223.375 123.76 223.875 123.485 224.452 123.396C225.319 123.261 225.756 123.538 225.861 124.213C226.006 124.831 225.622 125.532 224.771 126.403ZM216.899 107.755C216.829 107.618 216.717 107.536 216.517 107.518C215.521 107.771 214.545 108.465 213.546 109.655C211.113 112.399 208.98 115.491 207.092 118.891C208.437 118.978 210.177 118.757 212.265 118.236C213.831 117.845 214.642 117.67 214.69 117.662C215.575 117.328 216.222 116.734 216.64 115.93C217.73 111.521 217.808 108.846 216.899 107.755Z" fill="#FC6170"/>
<path d="M251.397 119.462C251.909 120.22 251.514 121.169 250.26 122.3C246.028 126.162 242.568 128.326 239.777 128.759C239.247 128.841 238.766 128.916 238.284 128.99C236.608 132.8 233.941 134.989 230.186 135.572C225.903 136.236 223.152 134.395 221.984 130.04C220.224 132.68 218.136 135.42 215.662 138.22C215.236 138.335 214.536 137.951 213.472 137.13C213.019 136.756 212.841 136.242 212.929 135.538C213.013 134.489 216.849 128.717 224.464 118.069C226.197 115.581 229.147 111.081 233.345 104.463C236.198 99.9776 237.906 97.6418 238.476 97.504C239.191 97.3438 240.013 97.5614 241.047 98.1898C242.081 98.8182 242.723 99.4583 243.068 100.095C243.32 100.45 242.748 101.525 241.413 103.409C240.413 105.536 239.917 109.015 239.983 113.886C240.057 119.446 239.895 123.169 239.49 125.007C241.456 124.652 243.436 123.754 245.471 122.255C246.562 121.346 247.709 120.477 248.801 119.569C250.026 118.885 250.899 118.799 251.397 119.462ZM231.914 128.598C231.188 128.366 230.054 128.049 228.513 127.647C226.661 127.145 225.605 127.013 225.409 127.339C225.18 127.769 225.174 128.362 225.397 129.166C225.404 129.214 225.412 129.262 225.427 129.358C225.955 130.854 226.852 131.553 228.126 131.503C229.681 131.361 230.957 130.374 231.914 128.598ZM234.286 112.748C231.117 116.79 228.345 120.524 226.064 123.934C226.36 123.938 228.775 124.253 233.357 124.874C233.855 123.317 234.086 121.309 234.105 118.89C234.185 115.279 234.208 113.204 234.286 112.748Z" fill="#FC6170"/>
<path d="M273.145 118.897C270.9 121.267 267.7 123.835 263.489 126.559C258.801 129.702 255.13 131.455 252.483 131.866C251.664 131.993 251.024 131.994 250.505 131.828C249.986 131.661 249.415 131.158 248.785 130.27C248.514 130.115 248.236 129.912 247.902 129.667C247.417 129.398 246.857 128.646 246.214 127.366C245.572 126.085 245.238 125.2 245.252 124.655C245.143 123.637 245.392 121.429 246.061 118.12C247.293 113.984 248.862 110.437 250.68 107.542C252.547 104.639 254.488 102.218 256.544 100.223C259.045 97.9119 261.431 96.4569 263.768 95.9465C264.008 95.9091 264.201 95.8793 264.393 95.8494C264.441 95.8419 264.49 95.8345 264.538 95.827C264.893 95.5747 265.404 95.6926 266.023 96.1882C267.769 97.5936 268.871 99.2962 269.315 101.2C269.851 103.384 269.854 105.948 269.277 108.897C269.218 109.153 269.151 109.36 269.078 109.52C268.812 110.35 268.247 111.473 267.349 112.993C266.451 114.513 263.853 115.557 259.521 116.229C257.066 116.61 254.992 116.586 253.251 116.166C251.55 120.769 250.969 124.015 251.453 125.862C252.209 126.288 252.872 126.431 253.546 126.327C255.567 126.013 258.924 124.457 263.576 121.713C267.372 119.497 269.922 117.82 271.231 116.729C271.749 116.254 272.249 115.98 272.826 115.89C273.693 115.756 274.13 116.033 274.235 116.707C274.38 117.325 273.996 118.026 273.145 118.897ZM265.273 100.249C265.203 100.112 265.091 100.031 264.891 100.012C263.895 100.265 262.919 100.959 261.92 102.15C259.487 104.894 257.354 107.986 255.466 111.385C256.811 111.472 258.551 111.252 260.639 110.73C262.205 110.339 263.016 110.164 263.064 110.157C263.949 109.822 264.596 109.229 265.014 108.425C266.104 104.015 266.182 101.341 265.273 100.249Z" fill="#FC6170"/>
<path d="M362.502 27.9694C363.682 35.5765 361.759 45.7359 356.772 58.3921C356.285 59.7004 355.495 61.5979 354.38 63.9404C353.304 65.5864 351.539 66.5999 349.133 66.9733C348.17 67.1226 347.684 66.8528 347.58 66.1788C347.543 65.9381 347.601 65.6824 347.749 65.3636C350.094 60.4637 352.194 54.6158 353.992 47.7792C356.067 39.8644 356.807 33.8329 356.172 29.7405C355.485 25.3111 352.975 23.4324 348.595 24.1121C342.482 25.0605 335.102 31.1854 326.406 42.4942C319.434 51.5634 316.508 59.709 317.621 66.8827C318.181 70.4937 319.744 73.2588 322.357 75.1707C328.759 79.8968 332.507 82.7666 333.49 83.6989C337.413 87.3797 339.74 91.2589 340.382 95.3994C341.069 99.8289 339.888 105.239 336.837 111.628C333.639 118.337 329.514 124.154 324.365 129.095C318.407 134.851 312.267 138.17 305.865 139.164C298.742 140.269 294.556 137.122 293.406 129.707C292.151 121.619 293.898 112.867 298.593 103.412C299.756 101.062 300.791 99.4714 301.69 98.5924C302.751 97.4909 304.08 96.841 305.62 96.602C306.872 96.4078 307.605 96.6884 307.732 97.5069C307.688 97.2181 306.127 101.454 303.105 110.255C300.084 119.057 298.826 125.563 299.446 129.559C300.043 133.411 302.412 135.015 306.552 134.373C311.557 133.596 316.682 130.09 321.884 123.908C326.211 118.75 329.547 113.253 331.799 107.43C333.349 103.443 333.952 100.341 333.609 98.1268C332.802 92.927 329.095 87.7827 322.552 82.7827C316.009 77.7826 312.303 72.6383 311.489 67.3904C309.995 57.7612 312.919 48.334 320.269 39.1568C330.462 26.383 340.015 19.3294 348.92 17.9478C356.766 16.7305 361.277 20.0735 362.502 27.9694Z" fill="#FC6170"/>
<path d="M386.375 40.1416C386.542 40.2636 386.635 40.545 386.694 40.9302C386.874 42.0857 386.809 43.5749 386.445 45.3571C386.055 47.2912 385.571 48.3031 384.897 48.4076C383.038 48.4988 378.765 48.9153 372.022 49.6164C367.855 57.7079 364.277 65.4617 361.391 72.9108C358.778 79.578 356.164 86.2452 353.496 92.8717C349.931 102.3 348.368 108.114 348.704 110.28C348.846 111.195 349.491 111.539 350.598 111.367C353.245 110.956 357.593 108.161 363.73 102.92C364.255 102.493 364.762 102.266 365.34 102.177C366.206 102.042 366.644 102.32 366.748 102.994C366.845 103.62 366.461 104.32 365.659 105.184C358.828 112.309 353.419 116.205 349.472 116.817C348.75 116.929 348.157 116.923 347.591 116.764C346.879 116.628 346.167 115.851 345.343 114.352C344.653 113.078 344.225 111.912 344.061 110.853C343.232 105.509 346.796 92.58 354.816 72.1559C357.695 64.6586 360.648 57.6428 363.662 51.0121L363.084 51.1018C340.028 54.679 325.007 57.3055 317.98 59.0367C317.603 59.1446 316.943 58.7046 316.042 57.6611C315.1 56.6732 314.598 55.6663 314.505 54.7441C314.403 53.7737 320.197 52.0366 331.885 49.5328C341.318 47.4282 350.508 45.6573 359.446 44.1719C361.708 43.8209 364.451 43.3952 367.669 42.8467C368.29 41.7643 368.681 41.1118 368.933 40.8263C369.451 40.3515 370.454 40.1465 371.984 40.1558C372.672 40.1475 373.443 40.6688 374.393 41.7048C382.001 40.2285 385.971 39.7606 386.375 40.1416Z" fill="#FC6170"/>
<path d="M393.318 92.5111C389.772 96.6605 386.031 98.9174 382.087 99.2334C381.751 99.9265 381.407 100.571 381.023 101.272C378.87 105.501 376.404 108.99 373.523 111.705C371.451 113.604 369.934 114.629 368.923 114.785C367.816 114.957 367.016 114.884 366.572 114.559C365.694 114.3 364.467 113.702 362.892 112.763C362.351 112.452 361.735 111.66 361.1 110.428C360.409 109.154 360.075 108.269 360.041 107.732C359.887 105.784 360.235 103.265 361.079 100.126C362.24 95.8538 363.746 92.2181 365.542 89.1784C367.338 86.1387 369.305 83.5655 371.394 81.4663C373.824 79.0185 376.203 77.5153 378.621 76.8937C378.902 76.8007 379.158 76.8597 379.421 76.9668C379.461 76.9112 379.495 76.8074 379.583 76.7443C379.939 76.492 380.457 76.658 381.173 77.1387C383.008 78.4811 384.206 80.1687 384.705 82.1128C385.628 85.5196 385.333 89.6576 383.829 94.575C385.64 94.4913 387.361 93.8298 388.985 92.5424C389.932 91.6559 390.879 90.7694 391.825 89.8829C392.528 89.3301 393.076 89.0479 393.509 88.9807C394.039 88.8985 394.324 89.1501 394.414 89.7278C394.63 90.4832 394.235 91.432 393.318 92.5111ZM377.419 97.739C376.065 96.3219 375.21 93.9893 374.91 90.7818C374.793 89.0743 374.968 87.0256 375.394 84.6914C372.363 88.6624 370.109 92.5621 368.625 96.3423C366.695 101.375 365.778 105.314 365.841 108.262C365.894 109.24 366.247 109.925 366.947 110.309C367.21 110.416 367.966 110.201 369.302 109.599C371.118 108.282 373.625 104.737 376.813 98.9177L377.419 97.739ZM380.671 81.2103L380.615 81.1696C380.504 81.0883 380.448 81.0476 380.393 81.0069C380.296 81.0218 380.2 81.0368 380.104 81.0517C380.008 81.0666 379.911 81.0816 379.815 81.0965C379.719 81.1115 379.678 81.1671 379.63 81.1745C378.842 82.1349 378.594 84.343 378.787 87.8136C378.89 90.0657 379.303 91.7765 380.019 92.898C380.784 91.1524 381.3 89.3959 381.431 87.6992C381.749 84.3465 381.509 82.1649 380.671 81.2103Z" fill="#FC6170"/>
<path d="M423.85 88.5134C423.74 89.0728 422.443 91.197 419.911 94.8933C417.379 98.5895 415.372 101.218 413.937 102.772C410.42 106.473 407.778 108.51 406.045 108.779C405.275 108.899 404.286 108.559 402.974 107.727C401.94 107.099 401.273 106.611 400.909 106.174C400.405 105.463 399.999 103.801 399.692 101.186C399.462 98.7562 400.029 96.0551 401.473 92.9714C402.171 91.4333 403.97 88.0972 406.919 82.9558C406.095 82.0974 405.517 81.5462 405.128 81.2614C404.612 80.7991 403.938 80.2628 402.992 79.5713C400.576 83.6934 399.065 86.3438 398.355 87.4893C390.124 102.424 385.964 109.923 385.867 109.938C385.627 109.975 384.808 109.461 383.466 108.437C382.361 107.671 381.793 106.872 381.651 105.957C381.629 105.813 382.42 104.556 383.976 102.194C386.519 98.25 390.144 92.7077 394.757 85.5824C396.427 83.0058 398.197 80.118 400.108 76.8633C399.723 74.7042 399.906 72.7037 400.64 70.7655C401.382 68.8754 403.001 66.6027 405.553 63.988C407.166 62.308 408.394 61.3285 409.286 61.0422C409.615 60.9418 409.941 61.1377 410.312 61.6225C410.683 62.1073 410.869 62.6701 410.87 63.3109C410.913 65.1778 410.305 67.2937 408.949 69.6735C407.767 71.5827 406.536 73.4993 405.353 75.4084C406.551 76.4553 407.463 77.2505 408.186 77.7794C411.125 79.8871 412.683 81.6669 412.922 83.2076C413.109 84.4113 412.382 86.3976 410.767 89.0149C409.625 90.8684 408.443 92.7775 407.26 94.6867C405.387 98.1821 404.568 100.528 404.755 101.732C404.882 102.55 405.375 102.868 406.289 102.726C407.252 102.577 410.108 100.014 414.993 94.966C415.633 94.3244 417.012 92.7299 419.22 90.1193C420.843 88.1911 421.823 87.2009 422.064 87.1635C422.497 87.0963 422.912 87.2291 423.253 87.5214C423.698 87.8468 423.894 88.1614 423.85 88.5134Z" fill="#FC6170"/>
<path d="M446.906 70.6376C446.821 73.264 442.47 84.9341 433.82 105.752C424.842 127.31 419.007 139.26 416.258 141.56C413.761 143.575 411.847 144.266 410.502 143.538C407.182 141.834 404.7 136.007 403.146 125.993C402.892 124.356 402.716 122.904 402.659 121.582C402.612 120.011 402.974 119.166 403.793 119.039C404.803 118.882 405.412 119.626 405.658 121.215C405.999 123.726 406.68 126.529 407.702 129.625C409.104 133.894 410.455 136.248 411.748 136.639C413.575 137.293 419.089 126.132 428.292 103.158C427.056 104.089 426.145 104.576 425.616 104.658C424.509 104.83 423.709 104.757 423.264 104.431C422.33 104.132 421.104 103.534 419.536 102.643C419.043 102.325 418.427 101.533 417.641 100.275C416.854 99.0162 416.471 98.1387 416.445 97.6498C416.29 95.7015 416.639 93.1822 417.483 90.0437C418.61 85.875 420.279 82.0168 422.385 78.4359C423.586 76.3267 425.183 73.9095 427.12 71.1437C427.257 71.0732 427.449 71.0433 427.69 71.006C428.412 70.8939 429.227 71.0633 430.239 71.5473C431.25 72.0313 431.781 72.59 431.885 73.2641C431.937 73.6011 431.838 73.9124 431.546 74.2535C429.42 76.7528 427.332 80.7745 425.229 86.278C423.25 91.3182 422.334 95.2569 422.445 98.198C422.442 99.1352 422.795 99.82 423.551 100.245C423.814 100.352 424.569 100.136 425.905 99.5346C427.674 98.2248 430.18 94.6804 433.417 88.8533C433.867 87.9452 434.499 86.6146 435.4 84.7984C438.22 77.5568 440.268 72.0127 441.544 68.1661C442.103 67.6357 443.202 67.4158 444.884 67.4508C445.18 67.4541 445.584 67.8351 446.137 68.5383C446.682 69.1932 446.938 69.893 446.906 70.6376Z" fill="#FC6170"/>
<path d="M81.7259 62.5601C81.7409 62.6564 81.7152 62.8083 81.745 63.0009C81.5019 63.9754 81.1741 65.3575 80.721 67.2028C77.9055 80.5082 75.022 95.5992 72.0223 112.483C69.9196 124.347 67.6843 139.485 65.3493 157.794C64.9934 160.266 64.6316 163.97 64.1753 168.972C64.0343 171.557 63.4584 172.929 62.4476 173.086C61.7256 173.198 60.7911 172.258 59.6441 170.266C58.5826 168.508 58.0291 167.164 57.8797 166.201C57.1775 161.676 58.1723 152.203 60.8085 137.742C58.3164 137.882 54.6433 138.353 49.6855 139.122C43.7651 140.041 40.0181 140.672 38.4778 140.911C35.3866 147.356 31.7012 155.373 27.4549 164.857C26.1993 167.567 24.416 171.64 22.0716 177.181C21.1638 179.59 20.1323 180.884 19.0733 181.048C18.1107 181.197 17.4533 179.82 17.0126 176.98C16.8109 175.68 16.7022 174.661 16.6939 173.972C16.7046 170.864 21.2273 160.301 30.3175 142.325C26.8668 142.959 23.9456 143.51 21.5613 144.028C17.9887 144.829 16.6077 145.142 17.5223 145C16.8965 145.097 16.2774 144.602 15.5761 143.576C14.9935 142.681 14.6815 141.94 14.625 141.259L14.5802 140.97C14.4192 139.614 20.9047 137.573 34.0776 134.789C37.6128 128.028 41.4509 120.678 45.6881 112.723C47.498 109.139 56.7883 91.1804 73.5365 58.703C73.773 58.3212 74.0875 58.1245 74.4726 58.0647C75.0502 57.9751 75.6576 58.0781 76.3987 58.4068C77.017 58.2616 78.0287 58.7456 79.4412 59.907C80.9018 61.0609 81.6288 61.9342 81.7259 62.5601ZM73.5907 71.7604C66.3834 85.3529 55.8558 105.821 41.9599 133.172C50.8273 131.549 57.566 130.504 62.2167 129.979C63.0407 125.759 66.837 106.385 73.5907 71.7604Z" fill="#FEFEFE"/>
<path d="M166.439 53.2128C166.678 54.7535 166.747 56.4685 166.646 58.3577C166.563 60.047 166.273 62.3106 165.714 65.0599C165.082 68.6094 164.362 70.6439 163.555 71.1635C163.063 71.4864 162.501 71.6723 161.827 71.7768C160.19 72.0307 159.305 71.7244 159.163 70.8096C159.036 69.9911 159.262 67.6387 159.842 63.7522C160.415 59.8175 160.559 56.9355 160.253 54.9615C159.79 51.9764 158.396 50.615 156.037 50.9809C150.502 51.8398 143.92 56.7561 136.38 65.6668C130.845 72.245 126.051 79.1519 122.061 86.4765C117.173 95.3209 113.031 105.479 109.669 116.848C105.698 130.333 104.305 141.051 105.545 149.043C106.636 156.073 109.821 159.128 115.068 158.314C121.469 157.321 126.785 152.503 131.014 143.859C131.483 142.751 132.214 141.109 133.192 138.837C133.399 138.263 133.698 137.97 134.083 137.91C135.287 137.723 136.114 138.926 136.525 141.574C136.637 142.296 136.63 142.889 136.472 143.456C134.927 148.429 132.129 152.955 128.039 157.091C123.697 161.511 119.167 164.088 114.354 164.835C106.171 166.104 101.161 160.817 99.3309 149.021C97.7771 139.007 99.0798 127.07 103.295 113.252C106.746 101.82 111.538 90.7717 117.768 80.092C126.148 65.4794 136.018 55.0731 147.372 48.8247C150.869 46.9016 153.99 45.7271 156.637 45.3164C162.22 44.4501 165.49 47.0983 166.439 53.2128Z" fill="#FEFEFE"/>
<path d="M174.052 69.8799C172.094 73.1421 166.913 84.5465 158.391 103.964C155.39 110.987 151.718 120.678 147.342 133.141C149.883 130.774 154.346 125.546 160.724 117.407C161.7 116.072 163.563 113.466 166.328 109.684C167.825 107.578 168.838 106.484 169.271 106.417C170.186 106.275 171.198 106.759 172.314 107.917C173.27 108.361 173.793 109.512 173.94 111.412C174 111.797 173.232 113.198 171.683 115.608C170.811 116.976 169.408 120.004 167.61 124.622C166.152 128.25 165.367 131.133 165.207 133.278C165.076 134.975 165.337 136.019 165.893 136.426C166.108 136.54 166.356 136.551 166.645 136.506C168.522 136.215 171.775 131.766 176.411 123.207C177.22 121.75 177.934 120.949 178.656 120.837C179.523 120.703 179.99 121.173 180.162 122.28C180.191 122.473 180.166 122.625 180.092 122.784C177.375 129.418 174.904 134.14 172.685 136.999C170.304 140.08 167.618 141.828 164.538 142.306C163.816 142.418 162.926 141.767 161.772 140.369C160.493 138.792 159.712 136.941 159.384 134.822C159.122 133.137 160.109 128.695 162.392 121.487C161.726 122.281 161.094 122.97 160.51 123.653C159.763 124.558 156.287 128.844 150.05 136.616C146.12 141.466 143.89 143.932 143.312 144.022C143.264 144.029 143.209 143.988 143.16 143.996C142.864 143.993 142.467 143.66 141.882 143.06C141.344 142.453 141.028 142.009 140.984 141.72C140.246 136.017 143.818 123.136 151.739 103.024C160.221 81.4432 165.623 69.5607 167.85 67.3909C168.367 66.9162 169.371 66.7112 170.9 66.7204C171.245 66.7163 171.841 67.0674 172.731 67.7183C173.684 68.4579 174.092 69.1835 174.052 69.8799Z" fill="#FEFEFE"/>
<path d="M201.572 125.565C199.327 127.935 196.127 130.502 191.916 133.226C187.228 136.37 183.557 138.123 180.909 138.533C180.091 138.66 179.45 138.661 178.932 138.495C178.413 138.329 177.842 137.826 177.211 136.938C176.941 136.782 176.663 136.579 176.329 136.335C175.844 136.065 175.283 135.314 174.641 134.033C173.999 132.752 173.664 131.867 173.678 131.323C173.57 130.304 173.819 128.096 174.488 124.787C175.72 120.652 177.289 117.105 179.107 114.21C180.974 111.307 182.915 108.886 184.971 106.89C187.471 104.579 189.858 103.124 192.194 102.614C192.435 102.577 192.628 102.547 192.82 102.517C192.868 102.51 192.916 102.502 192.964 102.495C193.32 102.242 193.831 102.36 194.45 102.856C196.196 104.261 197.298 105.964 197.741 107.867C198.278 110.052 198.281 112.615 197.703 115.565C197.645 115.82 197.578 116.028 197.504 116.187C197.239 117.017 196.674 118.14 195.776 119.66C194.878 121.18 192.279 122.224 187.947 122.896C185.493 123.277 183.419 123.254 181.678 122.834C179.976 127.437 179.396 130.682 179.879 132.53C180.635 132.955 181.299 133.099 181.972 132.994C183.994 132.681 187.351 131.124 192.002 128.381C195.799 126.165 198.348 124.487 199.658 123.397C200.176 122.922 200.675 122.647 201.253 122.558C202.119 122.423 202.557 122.7 202.661 123.375C202.759 124 202.374 124.701 201.572 125.565ZM193.7 106.917C193.629 106.78 193.518 106.698 193.318 106.68C192.322 106.933 191.345 107.627 190.347 108.817C187.914 111.561 185.781 114.653 183.893 118.053C185.238 118.14 186.978 117.919 189.066 117.398C190.632 117.007 191.443 116.832 191.491 116.824C192.376 116.49 193.023 115.896 193.44 115.092C194.483 110.69 194.56 108.016 193.7 106.917Z" fill="#FEFEFE"/>
<path d="M224.098 122.07C221.853 124.44 218.653 127.007 214.443 129.731C209.755 132.875 206.083 134.627 203.436 135.038C202.618 135.165 201.977 135.166 201.458 135C200.939 134.834 200.368 134.331 199.738 133.443C199.467 133.287 199.189 133.084 198.856 132.84C198.37 132.57 197.81 131.819 197.167 130.538C196.525 129.257 196.191 128.372 196.205 127.828C196.096 126.809 196.345 124.601 197.015 121.292C198.246 117.157 199.815 113.61 201.634 110.715C203.5 107.812 205.441 105.391 207.497 103.395C209.998 101.084 212.385 99.6293 214.721 99.1189C214.961 99.0816 215.154 99.0517 215.346 99.0218C215.395 99.0144 215.443 99.0069 215.491 98.9994C215.846 98.7471 216.357 98.865 216.976 99.3606C218.723 100.766 219.825 102.469 220.268 104.372C220.804 106.557 220.807 109.12 220.23 112.07C220.171 112.325 220.105 112.533 220.031 112.692C219.765 113.522 219.2 114.645 218.302 116.165C217.404 117.685 214.806 118.729 210.474 119.401C208.019 119.782 205.945 119.759 204.204 119.339C202.503 123.941 201.922 127.187 202.406 129.035C203.162 129.46 203.825 129.604 204.499 129.499C206.52 129.185 209.877 127.629 214.529 124.886C218.325 122.67 220.875 120.992 222.184 119.902C222.702 119.427 223.202 119.152 223.779 119.062C224.646 118.928 225.083 119.205 225.188 119.879C225.333 120.498 224.949 121.198 224.098 122.07ZM216.226 103.421C216.156 103.284 216.044 103.203 215.844 103.185C214.849 103.438 213.872 104.132 212.873 105.322C210.44 108.066 208.308 111.158 206.42 114.557C207.764 114.645 209.504 114.424 211.592 113.903C213.158 113.512 213.969 113.337 214.017 113.329C214.902 112.995 215.549 112.401 215.967 111.597C217.057 107.188 217.135 104.513 216.226 103.421Z" fill="#FEFEFE"/>
<path d="M250.724 115.128C251.236 115.887 250.841 116.836 249.587 117.967C245.355 121.829 241.895 123.993 239.104 124.426C238.574 124.508 238.093 124.583 237.612 124.657C235.935 128.467 233.268 130.656 229.514 131.239C225.23 131.903 222.479 130.062 221.311 125.707C219.551 128.347 217.463 131.087 214.989 133.887C214.563 134.002 213.863 133.618 212.799 132.797C212.346 132.423 212.168 131.908 212.256 131.204C212.34 130.156 216.176 124.384 223.791 113.736C225.525 111.248 228.474 106.747 232.672 100.13C235.525 95.6444 237.233 93.3086 237.803 93.1709C238.518 93.0107 239.34 93.2282 240.374 93.8567C241.408 94.4851 242.05 95.1251 242.395 95.7618C242.647 96.1171 242.075 97.1921 240.74 99.0755C239.74 101.203 239.244 104.682 239.31 109.553C239.384 115.113 239.222 118.836 238.817 120.674C240.783 120.319 242.763 119.42 244.798 117.921C245.89 117.012 247.036 116.144 248.128 115.235C249.353 114.552 250.227 114.466 250.724 115.128ZM231.241 124.265C230.515 124.033 229.381 123.715 227.84 123.314C225.988 122.812 224.932 122.68 224.737 123.006C224.507 123.436 224.501 124.029 224.724 124.832C224.732 124.881 224.739 124.929 224.754 125.025C225.282 126.521 226.179 127.22 227.453 127.17C229.008 127.028 230.284 126.041 231.241 124.265ZM233.613 108.415C230.444 112.457 227.672 116.191 225.391 119.601C225.687 119.605 228.102 119.92 232.684 120.541C233.182 118.984 233.413 116.976 233.432 114.557C233.512 110.945 233.536 108.871 233.613 108.415Z" fill="#FEFEFE"/>
<path d="M272.472 114.564C270.227 116.934 267.027 119.501 262.817 122.226C258.129 125.369 254.457 127.122 251.81 127.533C250.992 127.66 250.351 127.66 249.832 127.494C249.313 127.328 248.742 126.825 248.112 125.937C247.841 125.782 247.563 125.578 247.23 125.334C246.744 125.064 246.184 124.313 245.542 123.032C244.899 121.751 244.565 120.867 244.579 120.322C244.47 119.304 244.719 117.095 245.389 113.787C246.62 109.651 248.189 106.104 250.008 103.209C251.874 100.306 253.815 97.885 255.871 95.8896C258.372 93.5788 260.759 92.1237 263.095 91.6133C263.335 91.576 263.528 91.5461 263.72 91.5163C263.769 91.5088 263.817 91.5013 263.865 91.4938C264.22 91.2415 264.731 91.3594 265.35 91.855C267.097 93.2605 268.199 94.9631 268.642 96.8665C269.178 99.0513 269.181 101.615 268.604 104.564C268.545 104.82 268.479 105.027 268.405 105.187C268.139 106.017 267.574 107.14 266.676 108.66C265.778 110.179 263.18 111.224 258.848 111.896C256.393 112.277 254.319 112.253 252.578 111.833C250.877 116.436 250.296 119.682 250.78 121.529C251.536 121.954 252.199 122.098 252.873 121.993C254.894 121.68 258.251 120.124 262.903 117.38C266.699 115.164 269.249 113.487 270.558 112.396C271.076 111.921 271.576 111.647 272.153 111.557C273.02 111.422 273.457 111.7 273.562 112.374C273.707 112.992 273.323 113.693 272.472 114.564ZM264.6 95.9158C264.53 95.7788 264.418 95.6975 264.218 95.6792C263.223 95.9323 262.246 96.6262 261.248 97.8165C258.814 100.561 256.682 103.653 254.794 107.052C256.138 107.139 257.878 106.918 259.966 106.397C261.532 106.006 262.343 105.831 262.391 105.824C263.276 105.489 263.923 104.896 264.341 104.091C265.431 99.682 265.509 97.0074 264.6 95.9158Z" fill="#FEFEFE"/>
<path d="M361.829 23.6363C363.01 31.2434 361.086 41.4028 356.1 54.059C355.613 55.3672 354.822 57.2648 353.707 59.6072C352.632 61.2533 350.866 62.2667 348.46 62.6401C347.497 62.7895 347.012 62.5197 346.907 61.8456C346.87 61.6049 346.929 61.3493 347.076 61.0305C349.422 56.1306 351.521 50.2827 353.319 43.4461C355.394 35.5312 356.134 29.4998 355.499 25.4074C354.812 20.9779 352.302 19.0993 347.922 19.7789C341.809 20.7274 334.429 26.8523 325.733 38.161C318.761 47.2303 315.835 55.3759 316.948 62.5496C317.508 66.1606 319.071 68.9257 321.684 70.8375C328.086 75.5636 331.834 78.4335 332.817 79.3657C336.74 83.0466 339.067 86.9257 339.709 91.0663C340.396 95.4957 339.215 100.905 336.164 107.295C332.966 114.004 328.841 119.821 323.692 124.762C317.734 130.518 311.594 133.837 305.192 134.83C298.069 135.936 293.883 132.789 292.733 125.374C291.478 117.286 293.226 108.534 297.92 99.0786C299.084 96.7287 300.118 95.1383 301.017 94.2592C302.079 93.1578 303.407 92.5079 304.947 92.2689C306.199 92.0747 306.933 92.3553 307.06 93.1738C307.015 92.8849 305.454 97.1208 302.432 105.922C299.411 114.724 298.153 121.23 298.773 125.226C299.371 129.078 301.739 130.682 305.879 130.04C310.885 129.263 316.009 125.756 321.212 119.575C325.538 114.417 328.875 108.919 331.126 103.097C332.676 99.1096 333.279 96.0083 332.936 93.7936C332.129 88.5939 328.422 83.4496 321.879 78.4495C315.336 73.4495 311.63 68.3052 310.816 63.0573C309.322 53.4281 312.246 44.0008 319.596 34.8237C329.79 22.0499 339.342 14.9963 348.247 13.6146C356.093 12.3973 360.604 15.7404 361.829 23.6363Z" fill="#FEFEFE"/>
<path d="M385.702 35.8085C385.869 35.9305 385.962 36.2119 386.021 36.5971C386.201 37.7526 386.136 39.2418 385.772 41.024C385.382 42.9581 384.898 43.9699 384.224 44.0745C382.365 44.1657 378.092 44.5822 371.349 45.2832C367.182 53.3748 363.604 61.1285 360.718 68.5776C358.105 75.2448 355.491 81.912 352.823 88.5385C349.258 97.9666 347.695 103.78 348.031 105.947C348.173 106.862 348.818 107.206 349.925 107.034C352.572 106.623 356.92 103.828 363.057 98.5866C363.582 98.1599 364.09 97.9333 364.667 97.8437C365.534 97.7093 365.971 97.9866 366.076 98.6606C366.173 99.2865 365.788 99.9871 364.986 100.851C358.155 107.976 352.746 111.872 348.799 112.484C348.077 112.596 347.485 112.589 346.918 112.431C346.206 112.295 345.494 111.518 344.67 110.018C343.98 108.745 343.552 107.579 343.388 106.52C342.559 101.175 346.123 88.2468 354.143 67.8227C357.022 60.3255 359.976 53.3096 362.989 46.679L362.411 46.7686C339.355 50.3459 324.334 52.9724 317.307 54.7036C316.93 54.8114 316.27 54.3715 315.369 53.328C314.427 52.3401 313.926 51.3332 313.832 50.4109C313.73 49.4406 319.524 47.7035 331.212 45.1997C340.645 43.0951 349.835 41.3242 358.773 39.8388C361.035 39.4878 363.779 39.0621 366.996 38.5136C367.617 37.4312 368.009 36.7787 368.26 36.4932C368.778 36.0184 369.781 35.8134 371.311 35.8226C371.999 35.8144 372.77 36.3357 373.72 37.3717C381.328 35.8954 385.298 35.4274 385.702 35.8085Z" fill="#FEFEFE"/>
<path d="M392.645 88.1779C389.099 92.3274 385.358 94.5842 381.414 94.9003C381.078 95.5934 380.734 96.2383 380.35 96.9389C378.197 101.168 375.731 104.657 372.85 107.372C370.778 109.271 369.261 110.295 368.251 110.452C367.144 110.624 366.344 110.551 365.899 110.225C365.021 109.967 363.794 109.369 362.219 108.43C361.678 108.119 361.062 107.327 360.427 106.095C359.737 104.821 359.402 103.936 359.368 103.399C359.214 101.451 359.562 98.9317 360.406 95.7931C361.567 91.5207 363.073 87.885 364.869 84.8452C366.665 81.8055 368.632 79.2323 370.721 77.1331C373.151 74.6853 375.53 73.1821 377.948 72.5605C378.229 72.4676 378.485 72.5265 378.748 72.6336C378.789 72.578 378.822 72.4743 378.911 72.4112C379.266 72.1588 379.784 72.3249 380.5 72.8056C382.335 74.1479 383.533 75.8356 384.032 77.7797C384.955 81.1864 384.66 85.3245 383.156 90.2419C384.967 90.1581 386.688 89.4966 388.312 88.2092C389.259 87.3227 390.206 86.4363 391.153 85.5498C391.856 84.997 392.403 84.7148 392.836 84.6476C393.366 84.5654 393.651 84.8169 393.741 85.3947C393.957 86.1501 393.562 87.0989 392.645 88.1779ZM376.746 93.4058C375.392 91.9888 374.537 89.6562 374.237 86.4487C374.12 84.7412 374.295 82.6925 374.721 80.3583C371.69 84.3293 369.436 88.229 367.952 92.0091C366.022 97.0419 365.105 100.981 365.168 103.929C365.221 104.907 365.574 105.592 366.275 105.976C366.538 106.083 367.293 105.868 368.629 105.266C370.446 103.949 372.952 100.404 376.14 94.5845L376.746 93.4058ZM379.998 76.8772L379.942 76.8365C379.831 76.7551 379.775 76.7144 379.72 76.6738C379.624 76.6887 379.527 76.7036 379.431 76.7186C379.335 76.7335 379.238 76.7484 379.142 76.7634C379.046 76.7783 379.005 76.8339 378.957 76.8414C378.17 77.8018 377.921 80.0098 378.114 83.4805C378.217 85.7325 378.63 87.4434 379.347 88.5649C380.111 86.8192 380.627 85.0628 380.758 83.3661C381.076 80.0133 380.836 77.8318 379.998 76.8772Z" fill="#FEFEFE"/>
<path d="M423.177 84.1802C423.067 84.7397 421.77 86.8638 419.238 90.5601C416.706 94.2564 414.699 96.8852 413.264 98.4391C409.747 102.14 407.105 104.177 405.373 104.446C404.602 104.566 403.613 104.226 402.301 103.394C401.267 102.766 400.6 102.278 400.236 101.841C399.732 101.13 399.326 99.4676 399.019 96.8528C398.79 94.4231 399.356 91.722 400.8 88.6383C401.498 87.1001 403.297 83.7641 406.246 78.6226C405.423 77.7643 404.844 77.2131 404.455 76.9283C403.94 76.4659 403.265 75.9296 402.32 75.2381C399.903 79.3602 398.392 82.0107 397.682 83.1561C389.451 98.0908 385.291 105.59 385.195 105.605C384.954 105.642 384.135 105.128 382.793 104.104C381.688 103.338 381.121 102.539 380.979 101.624C380.956 101.48 381.747 100.223 383.303 97.8613C385.846 93.9169 389.471 88.3745 394.084 81.2492C395.754 78.6727 397.524 75.7849 399.435 72.5302C399.05 70.3711 399.233 68.3706 399.967 66.4323C400.709 64.5422 402.328 62.2695 404.88 59.6549C406.493 57.9748 407.721 56.9954 408.613 56.709C408.943 56.6086 409.269 56.8045 409.64 57.2893C410.011 57.7741 410.197 58.3369 410.197 58.9778C410.241 60.8447 409.632 62.9606 408.276 65.3404C407.094 67.2495 405.863 69.1661 404.681 71.0753C405.878 72.1221 406.79 72.9174 407.513 73.4462C410.453 75.554 412.01 77.3338 412.249 78.8745C412.436 80.0781 411.709 82.0645 410.094 84.6817C408.952 86.5353 407.77 88.4444 406.587 90.3536C404.714 93.849 403.895 96.1948 404.082 97.3984C404.209 98.2169 404.702 98.5349 405.616 98.393C406.579 98.2436 409.435 95.6804 414.32 90.6329C414.96 89.9913 416.339 88.3967 418.547 85.7862C420.17 83.858 421.15 82.8677 421.391 82.8304C421.824 82.7632 422.239 82.896 422.58 83.1882C423.025 83.5136 423.221 83.8282 423.177 84.1802Z" fill="#FEFEFE"/>
<path d="M446.233 66.3045C446.148 68.9309 441.797 80.601 433.147 101.419C424.169 122.977 418.334 134.927 415.585 137.227C413.088 139.242 411.174 139.933 409.829 139.205C406.509 137.501 404.027 131.674 402.473 121.66C402.219 120.023 402.043 118.571 401.986 117.248C401.94 115.678 402.301 114.833 403.12 114.706C404.131 114.549 404.739 115.293 404.985 116.882C405.326 119.393 406.007 122.196 407.03 125.291C408.431 129.561 409.782 131.915 411.075 132.306C412.902 132.959 418.416 121.799 427.619 98.825C426.383 99.7563 425.473 100.243 424.943 100.325C423.836 100.497 423.036 100.424 422.591 100.098C421.658 99.7992 420.431 99.2006 418.863 98.3099C418.37 97.9919 417.754 97.2 416.968 95.9415C416.181 94.683 415.798 93.8056 415.772 93.3166C415.617 91.3684 415.966 88.8491 416.81 85.7105C417.938 81.5419 419.606 77.6837 421.713 74.1027C422.913 71.9935 424.51 69.5764 426.447 66.8106C426.584 66.74 426.776 66.7102 427.017 66.6728C427.739 66.5608 428.554 66.7302 429.566 67.2142C430.577 67.6982 431.108 68.2569 431.212 68.9309C431.265 69.2679 431.165 69.5792 430.873 69.9204C428.747 72.4197 426.66 76.4414 424.556 81.9448C422.578 86.9851 421.661 90.9238 421.772 93.8648C421.769 94.802 422.122 95.4869 422.878 95.9119C423.141 96.019 423.897 95.8032 425.233 95.2015C427.001 93.8917 429.507 90.3473 432.744 84.5202C433.194 83.6121 433.826 82.2815 434.727 80.4653C437.547 73.2237 439.595 67.6796 440.871 63.833C441.43 63.3026 442.529 63.0827 444.211 63.1176C444.507 63.121 444.911 63.502 445.464 64.2051C446.009 64.8601 446.266 65.5599 446.233 66.3045Z" fill="#FEFEFE"/>
</g>
<defs>
<clipPath id="clip0">
<rect width="441.212" height="138.419" fill="white" transform="translate(0 67.6474) rotate(-8.81949)"/>
</clipPath>
</defs>
</svg>
