<svg width="397" height="167" viewBox="0 0 397 167" fill="none" xmlns="http://www.w3.org/2000/svg">
<g clip-path="url(#clip0)">
<path d="M327.251 0.624279L21.6681 58.8473C6.41713 61.7399 -3.20181 74.0224 0.977764 85.2368L15.0579 123.078C18.2296 131.608 28.5896 137.022 40.3428 136.295L320.018 118.984C333.209 118.168 344.266 109.906 345.792 99.7444L357.635 21.0061C359.635 7.55171 344.429 -2.65401 327.251 0.624279Z" fill="#FC6170"/>
<path d="M296.942 144.541C296.26 144.541 295.593 144.512 294.912 144.467L38.5646 124.367C27.4636 123.492 18.7784 115.556 17.4296 105.068L12.2274 64.8983C11.4122 58.5345 13.3242 52.1115 17.6075 46.8306C22.2465 41.1196 29.1235 37.5001 36.4897 36.9067L323.25 9.10801C327.4 8.78167 331.357 9.38986 335.003 10.9177C338.441 12.3715 341.48 14.6262 343.792 17.4595C348.372 23.0667 349.824 30.4095 347.764 37.6039L322.553 125.658C319.396 136.709 308.606 144.541 296.942 144.541ZM323.383 10.5914L36.6082 38.4049C29.6423 38.9538 23.1358 42.3804 18.7487 47.78C14.7174 52.7345 12.924 58.757 13.6947 64.7203L18.8969 104.876C19.5194 109.697 21.7426 113.969 25.3293 117.247C28.9309 120.54 33.5403 122.483 38.6684 122.884L295.015 142.969C295.653 143.014 296.29 143.043 296.927 143.043C307.939 143.043 318.122 135.671 321.116 125.243L346.326 37.1886C348.253 30.4688 346.904 23.6304 342.621 18.394C340.457 15.7536 337.626 13.6472 334.41 12.2825C331.001 10.8584 327.281 10.2799 323.383 10.5914Z" fill="#FAE661"/>
<path d="M112.552 21.8504C112.582 22.5624 112.374 23.1558 111.93 23.6453C110.64 24.8913 108.713 26.7753 106.179 29.3118C103.644 31.8484 99.9688 35.8833 95.1668 41.4163C90.3499 46.9494 85.8442 52.0225 81.6499 56.6359C69.037 70.5501 54.7198 88.1431 38.6684 109.415C38.5054 109.593 38.3424 109.845 38.1794 110.142C31.6432 122.958 24.4105 138.029 16.496 155.385C15.5326 157.551 14.5989 160.102 13.6651 163.039C12.8944 165.606 11.931 166.926 10.7602 166.985C9.11503 167.059 8.15165 164.004 7.87005 157.833C7.67737 153.65 15.2362 136.976 30.5613 107.783C30.828 99.6245 33.0216 87.0602 37.127 70.0606C38.6981 63.504 41.6327 52.8087 45.916 37.9897C46.6719 35.0674 47.9465 30.7211 49.7102 24.9358C49.9622 24.0903 51.1479 23.6305 53.2228 23.5266C55.7276 23.408 57.0171 24.2535 57.0912 26.0336C57.0467 24.9803 53.5489 38.2419 46.5978 65.8477C44.8341 72.701 42.5071 83.0847 39.5874 97.0138C49.2063 84.4643 62.7825 67.9096 80.3308 47.3202C83.5173 43.5079 86.7187 39.6807 89.9645 35.8091C94.2182 30.9584 97.6864 27.4873 100.354 25.4105C104.964 21.8949 108.002 20.1 109.469 20.0258C111.47 19.9517 112.493 20.545 112.552 21.8504Z" fill="#0E7C74"/>
<path d="M80.8199 121.193C75.9141 125.851 71.0083 128.106 66.1173 127.987C65.6282 128.773 65.0946 129.574 64.5463 130.36C61.3597 135.285 57.8323 139.231 53.9639 142.183C51.1776 144.26 49.1619 145.328 47.9317 145.387C46.5237 145.446 45.5751 145.254 45.086 144.809C44.0634 144.378 42.6406 143.473 40.8027 142.094C40.1951 141.649 39.5577 140.611 38.8908 138.964C38.2238 137.317 37.9126 136.16 37.9422 135.522C38.0015 133.105 38.7722 130.034 40.2543 126.311C42.2552 121.208 44.5821 116.921 47.2203 113.435C49.8585 109.949 52.6004 107.056 55.4312 104.742C58.7215 102.057 61.8933 100.5 64.9316 100.055C65.2873 99.9804 65.6134 100.01 65.9098 100.158C65.9691 100.114 66.058 100.055 66.1618 99.9953C66.6212 99.7431 67.2437 99.9804 68.0441 100.707C70.1338 102.621 71.3492 104.801 71.7049 107.264C72.3718 111.536 71.4529 116.594 68.963 122.439C71.201 122.572 73.4093 121.964 75.588 120.629C76.8923 119.68 78.1817 118.716 79.4267 117.707C80.3456 117.143 81.0719 116.832 81.5906 116.817C82.2427 116.787 82.5688 117.128 82.6133 117.826C82.6429 118.834 82.0501 119.962 80.8199 121.193ZM60.5149 125.48C58.9587 123.552 58.2176 120.57 58.2621 116.565C58.351 114.443 58.8401 111.966 59.759 109.163C55.4905 113.657 52.1854 118.152 49.8733 122.617C46.8498 128.536 45.175 133.297 44.8785 136.902C44.8193 138.089 45.175 138.979 45.9753 139.587C46.2717 139.75 47.2648 139.557 48.9544 139.008C51.3702 137.659 54.9125 133.609 59.6108 126.845L60.5149 125.48ZM66.7546 105.573L66.6657 105.484C66.5471 105.38 66.4434 105.291 66.3841 105.232C66.2655 105.232 66.1469 105.246 66.0284 105.246C65.9098 105.246 65.7912 105.261 65.6727 105.261C65.5541 105.261 65.4652 105.306 65.4059 105.365C64.3239 106.418 63.6718 109.103 63.4643 113.405C63.3013 116.179 63.5681 118.33 64.2943 119.828C65.5096 117.766 66.3248 115.704 66.7694 113.613C67.6439 109.563 67.6439 106.878 66.7546 105.573Z" fill="#0E7C74"/>
<path d="M112.967 102.829C112.908 103.956 111.351 107.427 108.328 113.272C105.304 119.116 102.681 123.611 100.473 126.785C97.1676 131.725 93.4919 135.641 89.4457 138.534C86.5408 140.67 84.4658 141.768 83.2357 141.827C81.9462 141.886 80.9977 141.753 80.39 141.427C78.7152 140.863 76.9367 139.913 75.0544 138.578C74.4467 138.133 73.7353 137.08 72.9201 135.404C72.105 133.728 71.7196 132.6 71.7493 132.007C71.8678 129.589 72.6978 126.518 74.2392 122.78C76.2401 117.796 78.8931 113.257 82.1834 109.163C84.0212 106.715 86.3629 103.926 89.2234 100.796C89.4013 100.737 89.6236 100.693 89.92 100.678C90.913 100.633 92.0987 100.974 93.4475 101.687C94.811 102.413 95.5076 103.17 95.5372 103.986C95.5521 104.342 95.389 104.698 95.063 105.069C92.0098 107.857 88.7492 112.515 85.281 119.042C82.0796 124.961 80.3307 129.737 80.0195 133.342C79.9602 134.469 80.3456 135.359 81.2052 136.027C81.5016 136.19 82.5243 135.997 84.2732 135.448C86.7483 134.099 90.4091 130.049 95.2853 123.314C100.161 116.58 104.445 109.148 108.12 101.019C108.387 100.411 108.906 100.099 109.662 100.07C111.944 99.9509 113.041 100.871 112.967 102.829Z" fill="#0E7C74"/>
<path d="M153.384 118.731C153.177 119.383 151.28 121.831 147.678 126.059C144.077 130.286 141.29 133.238 139.304 134.914C134.487 139.023 131.004 141.115 128.826 141.219C127.892 141.263 126.677 140.7 125.224 139.528C124.068 138.638 123.297 137.911 122.912 137.332C122.393 136.413 122.127 134.306 122.097 131.013C122.141 128.002 123.223 124.723 125.343 121.148C126.38 119.339 129.048 115.467 133.361 109.563C132.487 108.421 131.834 107.664 131.405 107.264C130.841 106.641 130.041 105.855 129.004 104.905C125.521 109.667 123.268 112.708 122.275 114.058C110.166 131.354 104.059 140.002 103.941 140.017C103.644 140.032 102.74 139.305 101.184 137.851C99.954 136.783 99.3167 135.701 99.2722 134.588C99.2574 134.41 100.369 132.971 102.607 130.286C106.283 125.762 111.44 119.428 118.08 111.299C120.481 108.362 123.06 105.039 125.832 101.316C125.654 98.6158 126.143 96.1534 127.299 93.9135C128.455 91.6884 130.767 89.1369 134.235 86.274C136.444 84.4049 138.104 83.3517 139.215 83.1292C139.63 83.0551 140.016 83.3369 140.401 84.0044C140.786 84.6571 140.935 85.3691 140.861 86.1405C140.668 88.4398 139.616 90.9615 137.674 93.691C135.955 95.8864 134.221 98.0818 132.501 100.277C133.806 101.746 134.858 102.843 135.658 103.57C138.978 106.537 140.683 108.955 140.757 110.824C140.831 112.352 139.69 114.636 137.363 117.677C135.688 119.813 133.998 121.979 132.279 124.175C129.522 128.239 128.188 131.013 128.248 132.467C128.292 133.461 128.87 133.935 129.982 133.891C131.153 133.831 135.065 131.043 141.69 125.51C142.535 124.827 144.492 123.032 147.53 120.14C149.783 117.989 151.087 116.891 151.443 116.876C151.976 116.847 152.451 117.054 152.88 117.47C153.325 117.885 153.488 118.315 153.384 118.731Z" fill="#0E7C74"/>
<path d="M271.139 26.6862C271.227 28.6295 271.094 30.7507 270.724 33.0648C270.412 35.1416 269.731 37.8562 268.708 41.1938C267.433 45.4956 266.262 47.8987 265.225 48.4179C264.588 48.7442 263.861 48.9222 263.031 48.9667C260.971 49.0557 259.904 48.5514 259.86 47.4388C259.815 46.445 260.408 43.5672 261.653 38.8352C262.898 34.1032 263.461 30.5282 263.343 28.1103C263.165 24.3573 261.609 22.5327 258.674 22.6662C251.738 22.9926 243.008 28.14 232.515 38.1083C224.837 45.3621 218.034 53.2241 212.121 61.6794C204.932 71.9148 198.5 83.8264 192.809 97.4142C186.124 113.465 183.012 126.489 183.471 136.487C183.871 145.254 187.369 149.481 193.95 149.185C201.938 148.814 209.127 143.577 215.5 133.461C216.211 132.185 217.323 130.212 218.849 127.542C219.175 126.874 219.561 126.533 220.035 126.503C221.562 126.429 222.406 128.046 222.555 131.354C222.599 132.244 222.481 133.016 222.214 133.668C219.665 139.572 215.604 144.809 210.046 149.377C204.147 154.258 198.204 156.839 192.201 157.121C181.974 157.595 176.52 150.445 175.838 135.671C175.26 123.136 178.477 108.643 185.502 92.163C191.238 78.5159 198.619 65.5362 207.659 53.2092C219.902 36.3728 233.419 24.8765 248.225 18.7056C252.79 16.792 256.747 15.7537 260.097 15.5905C267.107 15.3086 270.783 18.9874 271.139 26.6862Z" fill="#0E7C74"/>
<path d="M278.238 48.1657C275.407 51.9483 267.478 65.2395 254.45 88.0244C249.826 96.2423 243.986 107.739 236.961 122.483C240.37 119.902 246.55 114.058 255.502 104.905C256.91 103.363 259.534 100.44 263.402 96.1385C265.521 93.7354 266.885 92.5339 267.478 92.5042C268.589 92.4597 269.775 93.2014 271.02 94.7293C272.117 95.382 272.621 96.895 272.562 99.2685C272.576 99.7431 271.48 101.36 269.256 104.119C267.982 105.721 265.892 109.237 263.031 114.666C260.749 118.968 259.385 122.424 258.911 125.035C258.541 127.112 258.689 128.447 259.356 128.996C259.593 129.159 259.904 129.233 260.245 129.218C262.602 129.114 267.196 124.086 274.044 114.147C275.2 112.441 276.222 111.566 277.097 111.521C278.149 111.477 278.712 112.129 278.772 113.479C278.786 113.717 278.727 113.924 278.623 114.102C274.385 121.905 270.724 127.394 267.626 130.598C264.306 134.054 260.749 135.864 256.925 136.042C256.036 136.086 254.998 135.152 253.798 133.268C252.464 131.146 251.738 128.773 251.619 126.118C251.515 123.997 253.338 118.671 257.073 110.142C256.169 111.002 255.295 111.818 254.45 112.56C253.427 113.553 248.566 118.404 239.836 127.112C234.367 132.556 231.284 135.285 230.588 135.315C230.529 135.315 230.469 135.285 230.41 135.241C230.054 135.196 229.58 134.766 228.987 133.935C228.394 133.105 228.083 132.526 228.068 132.17C227.92 125.05 234.041 109.667 246.432 86.007C259.741 60.5965 267.937 46.712 271.02 44.3237C271.702 43.8194 272.991 43.671 274.888 43.8787C275.303 43.9232 276 44.4127 276.993 45.3769C277.942 46.356 278.371 47.2757 278.238 48.1657Z" fill="#0E7C74"/>
<path d="M304.694 120.318C301.626 122.929 297.342 125.628 291.814 128.402C285.663 131.621 280.906 133.312 277.556 133.461C276.563 133.505 275.748 133.416 275.111 133.179C274.488 132.942 273.851 132.23 273.199 131.013C272.888 130.791 272.561 130.509 272.191 130.182C271.643 129.797 271.05 128.773 270.412 127.142C269.775 125.495 269.508 124.353 269.597 123.7C269.597 122.41 270.205 119.754 271.435 115.764C273.51 110.854 275.881 106.73 278.549 103.392C281.217 100.07 283.959 97.3402 286.745 95.2041C290.11 92.6972 293.252 91.2583 296.172 90.8875C296.468 90.8726 296.735 90.8578 296.972 90.8578C297.031 90.8578 297.09 90.8578 297.15 90.843C297.609 90.5908 298.202 90.7985 298.943 91.466C300.914 93.4537 302.056 95.664 302.337 98.0819C302.693 100.856 302.337 104.015 301.27 107.576C301.166 107.872 301.063 108.124 300.944 108.302C300.514 109.267 299.654 110.617 298.35 112.337C297.046 114.058 293.696 115.052 288.287 115.289C285.234 115.423 282.655 115.126 280.565 114.355C277.867 119.784 276.697 123.67 277.037 125.984C277.882 126.593 278.727 126.875 279.557 126.83C282.077 126.711 286.404 125.272 292.511 122.484C297.476 120.273 300.84 118.582 302.619 117.396C303.301 116.906 303.997 116.639 304.708 116.595C305.761 116.55 306.309 116.936 306.354 117.752C306.383 118.538 305.835 119.383 304.694 120.318ZM297.505 96.3612C297.431 96.1832 297.283 96.0793 297.046 96.0348C295.816 96.2128 294.497 96.9545 293.089 98.2599C289.754 101.316 286.701 104.831 283.944 108.807C285.604 109.089 287.753 109.044 290.391 108.688C292.377 108.421 293.4 108.288 293.459 108.273C294.571 107.991 295.445 107.353 296.112 106.374C297.98 101.138 298.454 97.7852 297.505 96.3612Z" fill="#0E7C74"/>
<path d="M332.898 119.027C329.83 121.638 325.547 124.338 320.019 127.112C313.868 130.331 309.11 132.022 305.761 132.17C304.768 132.214 303.953 132.125 303.315 131.888C302.693 131.651 302.055 130.939 301.403 129.722C301.092 129.5 300.766 129.218 300.396 128.892C299.847 128.506 299.254 127.482 298.617 125.851C297.98 124.204 297.713 123.062 297.802 122.409C297.802 121.119 298.409 118.463 299.64 114.473C301.715 109.563 304.086 105.439 306.754 102.102C309.422 98.7789 312.163 96.0494 314.95 93.9134C318.314 91.4064 321.456 89.9676 324.376 89.5967C324.673 89.5819 324.939 89.567 325.176 89.567C325.236 89.567 325.295 89.567 325.354 89.5522C325.814 89.3 326.407 89.5077 327.148 90.1752C329.119 92.163 330.26 94.3732 330.542 96.7911C330.897 99.5651 330.542 102.725 329.475 106.285C329.371 106.582 329.267 106.834 329.149 107.012C328.719 107.976 327.859 109.326 326.555 111.047C325.251 112.767 321.901 113.761 316.491 113.998C313.438 114.132 310.859 113.835 308.769 113.064C306.072 118.493 304.901 122.38 305.242 124.694C306.087 125.302 306.932 125.584 307.762 125.539C310.281 125.421 314.609 123.982 320.715 121.193C325.68 118.983 329.045 117.292 330.823 116.105C331.505 115.615 332.202 115.348 332.913 115.304C333.965 115.259 334.514 115.645 334.558 116.461C334.588 117.247 334.04 118.093 332.898 119.027ZM325.71 95.0556C325.636 94.8776 325.488 94.7737 325.251 94.7292C324.02 94.9072 322.701 95.6489 321.293 96.9543C317.959 100.01 314.905 103.526 312.149 107.501C313.809 107.783 315.958 107.739 318.596 107.383C320.582 107.116 321.605 106.982 321.664 106.967C322.775 106.685 323.65 106.047 324.317 105.068C326.184 99.8321 326.659 96.4945 325.71 95.0556Z" fill="#0E7C74"/>
<path d="M366.587 114.043C367.106 115.022 366.513 116.149 364.794 117.41C359.102 121.638 354.523 123.833 351.054 123.997C350.402 124.026 349.795 124.056 349.202 124.086C346.638 128.536 343.036 130.865 338.397 131.072C333.047 131.324 329.934 128.699 329.03 123.196C326.511 126.192 323.561 129.248 320.182 132.407C319.663 132.496 318.804 131.948 317.633 130.761C317.144 130.256 316.995 129.589 317.188 128.743C317.425 127.497 322.924 120.852 333.669 108.807C336.129 105.988 340.368 100.811 346.386 93.2755C350.506 88.1282 352.922 85.5174 353.618 85.4284C354.493 85.3246 355.516 85.7251 356.672 86.6151C357.828 87.5051 358.584 88.3952 358.91 89.2704C359.162 89.7302 358.346 91.0208 356.434 93.1124C354.893 95.6045 353.856 99.8618 353.307 105.87C352.685 112.767 351.973 117.321 351.203 119.546C353.663 119.368 356.242 118.508 358.939 116.936C360.421 115.971 361.918 114.992 363.4 114.013C365.016 113.168 366.068 113.183 366.587 114.043ZM341.45 122.721C340.605 122.365 339.257 121.831 337.404 121.119C335.181 120.244 333.936 119.991 333.654 120.347C333.328 120.822 333.239 121.564 333.402 122.587C333.447 122.647 333.462 122.721 333.417 122.839C333.862 124.694 334.87 125.673 336.47 125.777C338.353 125.791 340.013 124.783 341.45 122.721ZM346.489 103.466C342.043 108.035 338.175 112.248 334.884 116.12C335.24 116.164 338.19 116.876 343.733 118.271C344.533 116.402 345.096 113.998 345.437 111.032C345.986 106.582 346.341 104.06 346.489 103.466Z" fill="#0E7C74"/>
<path d="M393.369 116.239C390.301 118.849 386.018 121.549 380.489 124.323C374.338 127.542 369.581 129.233 366.231 129.381C365.238 129.426 364.423 129.337 363.786 129.1C363.163 128.862 362.526 128.15 361.874 126.934C361.563 126.711 361.236 126.429 360.866 126.103C360.318 125.717 359.725 124.694 359.087 123.047C358.45 121.401 358.183 120.259 358.272 119.606C358.272 118.315 358.88 115.66 360.11 111.67C362.185 106.76 364.556 102.636 367.224 99.2982C369.892 95.9754 372.634 93.246 375.42 91.1099C378.785 88.603 381.927 87.1641 384.847 86.7932C385.143 86.7784 385.41 86.7636 385.647 86.7636C385.706 86.7636 385.766 86.7636 385.825 86.7487C386.284 86.4966 386.877 86.7042 387.618 87.3718C389.589 89.3595 390.731 91.5698 391.012 93.9877C391.368 96.7616 391.012 99.9212 389.945 103.481C389.841 103.778 389.738 104.03 389.619 104.208C389.189 105.172 388.33 106.522 387.025 108.243C385.721 109.964 382.372 110.958 376.962 111.195C373.909 111.329 371.33 111.032 369.24 110.26C366.542 115.69 365.372 119.576 365.712 121.89C366.557 122.498 367.402 122.78 368.232 122.736C370.752 122.617 375.079 121.178 381.186 118.389C386.151 116.179 389.515 114.488 391.294 113.301C391.976 112.812 392.672 112.545 393.384 112.5C394.436 112.456 394.984 112.842 395.029 113.657C395.058 114.458 394.51 115.304 393.369 116.239ZM386.181 92.267C386.106 92.0889 385.958 91.9851 385.721 91.9406C384.491 92.1186 383.172 92.8603 381.764 94.1657C378.429 97.2215 375.376 100.737 372.619 104.713C374.279 104.994 376.428 104.95 379.066 104.594C381.052 104.327 382.075 104.193 382.134 104.179C383.246 103.897 384.12 103.259 384.787 102.28C386.655 97.0435 387.114 93.7058 386.181 92.267Z" fill="#0E7C74"/>
<path d="M114.538 18.0084C114.568 18.7205 114.36 19.3138 113.916 19.8033C112.626 21.0494 110.699 22.9333 108.165 25.4699C105.631 28.0065 101.955 32.0413 97.1529 37.5744C92.336 43.1074 87.8303 48.1806 83.6359 52.7939C71.0231 66.7081 56.7059 84.3011 40.6545 105.573C40.4915 105.751 40.3285 106.003 40.1654 106.3C33.6293 119.116 26.3966 134.188 18.4821 151.543C17.5187 153.709 16.5849 156.26 15.6512 159.197C14.8805 161.764 13.9171 163.084 12.7463 163.143C11.1011 163.217 10.1377 160.162 9.85613 153.991C9.66346 149.808 17.2223 133.134 32.5474 103.941C32.8141 95.7826 35.0077 83.2182 39.1131 66.2186C40.6842 59.662 43.6188 48.9668 47.9021 34.1477C48.658 31.2254 49.9326 26.8791 51.6963 21.0939C51.9483 20.2484 53.134 19.7885 55.2089 19.6847C57.7137 19.566 59.0032 20.4115 59.0773 22.1916C59.0328 21.1384 55.535 34.3999 48.5839 62.0058C46.8201 68.859 44.4932 79.2428 41.5734 93.1718C51.1776 80.6371 64.7686 64.0677 82.302 43.4931C85.4886 39.6808 88.69 35.8536 91.9358 31.982C96.1895 27.1313 99.6576 23.6602 102.325 21.5834C106.935 18.0678 109.973 16.2729 111.44 16.1987C113.441 16.1097 114.479 16.7179 114.538 18.0084Z" fill="#70E4DE"/>
<path d="M82.7911 117.366C77.8853 122.024 72.9795 124.278 68.0885 124.16C67.5994 124.946 67.0658 125.747 66.5174 126.533C63.3309 131.458 59.8034 135.404 55.9351 138.356C53.1487 140.433 51.1331 141.501 49.9029 141.56C48.4949 141.619 47.5463 141.426 47.0572 140.981C46.0346 140.551 44.6117 139.646 42.7739 138.267C42.1663 137.822 41.5289 136.783 40.862 135.137C40.195 133.49 39.8838 132.333 39.9134 131.695C39.9727 129.277 40.7434 126.207 42.2255 122.484C44.2264 117.381 46.5533 113.094 49.1915 109.608C51.8297 106.122 54.5716 103.229 57.4024 100.915C60.6927 98.2301 63.8644 96.6726 66.9028 96.2276C67.2585 96.1534 67.5846 96.1831 67.881 96.3314C67.9403 96.2869 68.0292 96.2276 68.1329 96.1682C68.5924 95.9161 69.2149 96.1534 70.0152 96.8803C72.105 98.7938 73.3204 100.974 73.6761 103.437C74.343 107.709 73.4241 112.767 70.9341 118.612C73.1721 118.745 75.3805 118.137 77.5592 116.802C78.8635 115.853 80.1529 114.889 81.3979 113.88C82.3168 113.316 83.043 113.005 83.5618 112.99C84.2139 112.96 84.54 113.301 84.5844 113.999C84.6289 115.007 84.0361 116.12 82.7911 117.366ZM62.5009 121.653C60.9447 119.724 60.2036 116.743 60.2481 112.738C60.337 110.616 60.8261 108.139 61.745 105.336C57.4765 109.83 54.1714 114.325 51.8593 118.79C48.8358 124.709 47.161 129.47 46.8646 133.075C46.8053 134.262 47.161 135.152 47.9613 135.76C48.2578 135.923 49.2508 135.73 50.9404 135.181C53.3562 133.832 56.8985 129.782 61.5968 123.018L62.5009 121.653ZM68.7406 101.731L68.6517 101.642C68.5331 101.538 68.4294 101.449 68.3701 101.39C68.2515 101.39 68.1329 101.405 68.0144 101.405C67.8958 101.405 67.7772 101.419 67.6587 101.419C67.5401 101.419 67.4512 101.464 67.3919 101.523C66.3099 102.576 65.6578 105.261 65.4503 109.563C65.2873 112.337 65.5541 114.488 66.2803 115.986C67.4956 113.924 68.3108 111.848 68.7554 109.771C69.6299 105.736 69.6299 103.051 68.7406 101.731Z" fill="#70E4DE"/>
<path d="M114.938 98.9867C114.879 100.114 113.323 103.585 110.299 109.43C107.276 115.274 104.652 119.769 102.444 122.943C99.1389 127.883 95.4633 131.799 91.4171 134.692C88.5121 136.828 86.4372 137.926 85.207 137.985C83.9176 138.044 82.969 137.911 82.3613 137.584C80.6865 137.021 78.908 136.071 77.0257 134.736C76.418 134.291 75.7066 133.238 74.8915 131.562C74.0763 129.886 73.6909 128.758 73.7206 128.165C73.8392 125.747 74.6691 122.676 76.2105 118.938C78.2114 113.954 80.8644 109.415 84.1547 105.321C85.9777 102.873 88.3343 100.084 91.1948 96.9544C91.3726 96.8951 91.5949 96.8506 91.8913 96.8358C92.8844 96.7912 94.0701 97.1324 95.4188 97.8445C96.7823 98.5713 97.4789 99.3278 97.5086 100.144C97.5234 100.5 97.3604 100.856 97.0343 101.227C93.9811 104.015 90.7205 108.673 87.2523 115.2C84.0509 121.119 82.302 125.895 81.9908 129.5C81.9315 130.627 82.3169 131.517 83.1765 132.185C83.4729 132.348 84.4956 132.155 86.2445 131.606C88.7196 130.256 92.3804 126.207 97.2566 119.472C102.133 112.738 106.416 105.306 110.092 97.1769C110.359 96.5687 110.877 96.2572 111.633 96.2276C113.93 96.1089 115.027 97.0434 114.938 98.9867Z" fill="#70E4DE"/>
<path d="M155.37 114.889C155.163 115.541 153.266 117.989 149.664 122.217C146.063 126.444 143.276 129.396 141.29 131.072C136.473 135.181 132.99 137.273 130.812 137.377C129.878 137.421 128.663 136.858 127.21 135.686C126.054 134.796 125.283 134.069 124.898 133.49C124.379 132.571 124.113 130.464 124.083 127.171C124.127 124.16 125.209 120.881 127.329 117.307C128.366 115.497 131.034 111.64 135.347 105.721C134.473 104.579 133.82 103.823 133.391 103.422C132.827 102.799 132.027 102.013 130.99 101.063C127.507 105.825 125.254 108.881 124.261 110.216C112.137 127.527 106.031 136.175 105.912 136.175C105.616 136.19 104.712 135.463 103.155 134.009C101.925 132.941 101.288 131.859 101.243 130.746C101.229 130.568 102.34 129.129 104.578 126.444C108.254 121.92 113.412 115.586 120.052 107.457C122.453 104.52 125.031 101.197 127.803 97.4736C127.625 94.7738 128.114 92.3114 129.27 90.0715C130.426 87.8464 132.738 85.295 136.207 82.4172C138.415 80.5481 140.075 79.4949 141.187 79.2724C141.602 79.1983 141.987 79.4801 142.372 80.1476C142.758 80.8003 142.906 81.5272 142.832 82.2837C142.639 84.583 141.587 87.1047 139.645 89.8341C137.926 92.0296 136.192 94.225 134.473 96.4204C135.777 97.889 136.829 98.9867 137.629 99.7135C140.949 102.68 142.654 105.098 142.728 106.967C142.802 108.495 141.661 110.78 139.334 113.821C137.659 115.957 135.969 118.122 134.25 120.318C131.493 124.382 130.16 127.156 130.219 128.61C130.263 129.604 130.841 130.078 131.953 130.034C133.124 129.975 137.037 127.186 143.662 121.653C144.506 120.97 146.463 119.176 149.501 116.283C151.754 114.132 153.058 113.034 153.414 113.02C153.948 112.99 154.422 113.198 154.852 113.613C155.296 114.058 155.459 114.473 155.37 114.889Z" fill="#70E4DE"/>
<path d="M273.125 22.8591C273.214 24.8023 273.08 26.9236 272.71 29.2377C272.398 31.3144 271.717 34.029 270.694 37.3667C269.419 41.6685 268.249 44.0716 267.211 44.5908C266.574 44.9171 265.847 45.0951 265.017 45.1396C262.957 45.2286 261.89 44.7243 261.846 43.6117C261.801 42.6179 262.394 39.7401 263.639 35.0081C264.884 30.2761 265.447 26.7011 265.329 24.2832C265.151 20.5302 263.595 18.7056 260.66 18.8391C253.724 19.1655 244.994 24.3128 234.501 34.2812C226.808 41.535 220.006 49.3969 214.092 57.8523C206.904 68.0877 200.471 79.9993 194.78 93.5871C188.096 109.637 184.983 122.662 185.443 132.66C185.843 141.426 189.341 145.654 195.921 145.357C203.91 144.987 211.098 139.75 217.471 129.634C218.183 128.358 219.294 126.385 220.821 123.715C221.147 123.047 221.532 122.706 222.006 122.676C223.533 122.602 224.378 124.219 224.526 127.527C224.571 128.417 224.452 129.188 224.185 129.841C221.636 135.745 217.575 140.981 212.017 145.565C206.118 150.445 200.175 153.027 194.172 153.308C183.946 153.783 178.491 146.633 177.81 131.859C177.232 119.324 180.448 104.831 187.473 88.3508C193.209 74.7036 200.59 61.7239 209.631 49.3969C221.873 32.5605 235.39 21.0642 250.196 14.8933C254.761 12.9797 258.718 11.9414 262.068 11.7782C269.093 11.4667 272.769 15.1603 273.125 22.8591Z" fill="#70E4DE"/>
<path d="M280.224 44.3238C277.393 48.1064 269.464 61.3976 256.436 84.1824C251.812 92.4004 245.972 103.897 238.947 118.642C242.356 116.06 248.536 110.216 257.488 101.063C258.896 99.5207 261.52 96.5984 265.388 92.2966C267.522 89.8935 268.871 88.692 269.464 88.6623C270.576 88.6178 271.761 89.3595 273.006 90.8874C274.103 91.5401 274.607 93.0531 274.548 95.4265C274.562 95.9012 273.466 97.5181 271.242 100.277C269.968 101.879 267.878 105.395 265.018 110.824C262.735 115.126 261.372 118.582 260.897 121.193C260.527 123.27 260.675 124.605 261.342 125.154C261.579 125.317 261.89 125.391 262.231 125.376C264.588 125.272 269.182 120.244 276.03 110.305C277.186 108.599 278.208 107.724 279.083 107.679C280.135 107.635 280.698 108.288 280.758 109.637C280.772 109.875 280.713 110.082 280.609 110.26C276.371 118.063 272.71 123.552 269.612 126.756C266.292 130.212 262.735 132.022 258.911 132.2C258.022 132.244 256.984 131.31 255.784 129.426C254.45 127.305 253.724 124.931 253.605 122.276C253.501 120.155 255.325 114.829 259.059 106.3C258.155 107.16 257.281 107.976 256.436 108.718C255.413 109.712 250.552 114.562 241.822 123.27C236.353 128.714 233.271 131.443 232.574 131.473C232.515 131.473 232.455 131.443 232.396 131.399C232.04 131.354 231.566 130.924 230.973 130.093C230.38 129.263 230.069 128.684 230.054 128.328C229.906 121.208 236.027 105.825 248.418 82.165C261.727 56.7694 269.923 42.8701 273.006 40.4818C273.688 39.9774 274.977 39.8291 276.875 40.0368C277.289 40.0813 277.986 40.5708 278.979 41.535C279.928 42.514 280.357 43.4337 280.224 44.3238Z" fill="#70E4DE"/>
<path d="M306.68 116.491C303.612 119.101 299.329 121.801 293.8 124.575C287.649 127.794 282.892 129.485 279.542 129.633C278.549 129.678 277.734 129.589 277.097 129.352C276.474 129.114 275.837 128.402 275.185 127.186C274.874 126.963 274.548 126.682 274.177 126.355C273.629 125.969 273.036 124.946 272.398 123.314C271.761 121.668 271.494 120.525 271.583 119.873C271.583 118.582 272.191 115.927 273.421 111.937C275.496 107.027 277.867 102.903 280.535 99.5652C283.203 96.2424 285.945 93.513 288.731 91.3769C292.096 88.8699 295.238 87.4311 298.158 87.0602C298.454 87.0454 298.721 87.0305 298.958 87.0305C299.017 87.0305 299.077 87.0305 299.136 87.0157C299.595 86.7635 300.188 86.9712 300.929 87.6387C302.9 89.6265 304.042 91.8367 304.323 94.2546C304.679 97.0286 304.323 100.188 303.256 103.748C303.152 104.045 303.049 104.297 302.93 104.475C302.5 105.439 301.641 106.789 300.336 108.51C299.032 110.231 295.682 111.225 290.273 111.462C287.22 111.61 284.641 111.299 282.551 110.527C279.854 115.957 278.683 119.843 279.024 122.157C279.868 122.765 280.713 123.047 281.543 123.003C284.063 122.884 288.39 121.445 294.497 118.656C299.462 116.446 302.826 114.755 304.605 113.568C305.287 113.079 305.983 112.812 306.68 112.767C307.732 112.723 308.28 113.109 308.325 113.924C308.369 114.711 307.806 115.556 306.68 116.491ZM299.477 92.5191C299.403 92.3411 299.254 92.2372 299.017 92.1927C297.787 92.3707 296.468 93.1124 295.06 94.4178C291.725 97.4736 288.672 100.989 285.915 104.965C287.575 105.247 289.724 105.202 292.363 104.846C294.349 104.579 295.371 104.446 295.431 104.431C296.542 104.149 297.417 103.511 298.084 102.532C299.966 97.2956 300.425 93.958 299.477 92.5191Z" fill="#70E4DE"/>
<path d="M334.884 115.185C331.831 117.796 327.533 120.496 322.005 123.27C315.854 126.489 311.096 128.18 307.747 128.328C306.754 128.373 305.939 128.284 305.301 128.046C304.679 127.809 304.042 127.097 303.389 125.88C303.078 125.658 302.752 125.376 302.382 125.05C301.833 124.664 301.24 123.641 300.603 122.009C299.966 120.362 299.699 119.22 299.788 118.567C299.788 117.277 300.396 114.622 301.626 110.631C303.701 105.721 306.072 101.597 308.74 98.2598C311.408 94.937 314.15 92.2075 316.936 90.0715C320.3 87.5645 323.443 86.1256 326.362 85.7548C326.659 85.74 326.925 85.7251 327.163 85.7251C327.222 85.7251 327.281 85.7251 327.34 85.7103C327.8 85.4581 328.393 85.6658 329.134 86.3333C331.105 88.3211 332.246 90.5313 332.528 92.9492C332.884 95.7232 332.528 98.8828 331.461 102.443C331.357 102.74 331.253 102.992 331.135 103.17C330.705 104.134 329.845 105.484 328.541 107.205C327.237 108.925 323.887 109.919 318.477 110.157C315.424 110.305 312.845 109.993 310.756 109.222C308.058 114.651 306.887 118.538 307.228 120.852C308.073 121.46 308.918 121.742 309.748 121.697C312.267 121.579 316.595 120.14 322.701 117.351C327.667 115.141 331.031 113.45 332.809 112.263C333.491 111.773 334.188 111.506 334.884 111.462C335.937 111.417 336.485 111.803 336.53 112.619C336.574 113.405 336.026 114.251 334.884 115.185ZM327.681 91.2137C327.607 91.0357 327.459 90.9318 327.222 90.8873C325.992 91.0653 324.673 91.807 323.265 93.1124C319.93 96.1682 316.877 99.6838 314.12 103.659C315.78 103.941 317.929 103.897 320.567 103.541C322.553 103.274 323.576 103.14 323.635 103.125C324.732 102.843 325.621 102.206 326.288 101.227C328.17 95.9902 328.63 92.6526 327.681 91.2137Z" fill="#70E4DE"/>
<path d="M368.558 110.201C369.077 111.18 368.484 112.308 366.765 113.568C361.074 117.796 356.494 119.992 353.026 120.155C352.373 120.184 351.766 120.214 351.173 120.244C348.609 124.694 345.007 127.023 340.368 127.23C335.018 127.483 331.905 124.857 331.001 119.354C328.497 122.35 325.532 125.406 322.153 128.566C321.634 128.655 320.775 128.106 319.604 126.919C319.115 126.415 318.967 125.747 319.159 124.902C319.396 123.656 324.895 117.01 335.64 104.965C338.101 102.146 342.34 96.9694 348.357 89.4337C352.477 84.2864 354.893 81.6756 355.59 81.5866C356.464 81.4828 357.487 81.8833 358.643 82.7733C359.799 83.6634 360.555 84.5534 360.881 85.4286C361.133 85.8884 360.318 87.1641 358.406 89.2706C356.864 91.7627 355.827 96.02 355.278 102.028C354.656 108.925 353.945 113.479 353.174 115.705C355.634 115.527 358.213 114.666 360.911 113.094C362.393 112.13 363.89 111.151 365.372 110.172C366.987 109.326 368.054 109.341 368.558 110.201ZM343.436 118.879C342.592 118.523 341.243 117.989 339.39 117.277C337.167 116.402 335.922 116.15 335.64 116.506C335.314 116.98 335.225 117.722 335.388 118.746C335.433 118.805 335.448 118.879 335.403 118.998C335.848 120.852 336.856 121.831 338.456 121.935C340.339 121.964 341.999 120.941 343.436 118.879ZM348.461 99.6246C344.014 104.193 340.146 108.406 336.856 112.278C337.211 112.322 340.161 113.034 345.704 114.429C346.504 112.56 347.068 110.157 347.408 107.19C347.957 102.755 348.313 100.233 348.461 99.6246Z" fill="#70E4DE"/>
<path d="M395.355 112.396C392.287 115.007 388.004 117.707 382.475 120.481C376.325 123.7 371.567 125.391 368.217 125.539C367.224 125.584 366.409 125.495 365.772 125.257C365.149 125.02 364.512 124.308 363.86 123.092C363.549 122.869 363.223 122.587 362.852 122.261C362.304 121.875 361.711 120.852 361.074 119.22C360.436 117.573 360.169 116.431 360.258 115.779C360.258 114.488 360.866 111.833 362.096 107.842C364.171 102.932 366.543 98.8086 369.21 95.4709C371.878 92.1481 374.62 89.4187 377.406 87.2826C380.771 84.7757 383.913 83.3368 386.833 82.966C387.129 82.9511 387.396 82.9363 387.633 82.9363C387.692 82.9363 387.752 82.9363 387.811 82.9215C388.27 82.6693 388.863 82.877 389.604 83.5445C391.575 85.5322 392.717 87.7425 392.998 90.1604C393.354 92.9343 392.998 96.094 391.931 99.6541C391.827 99.9508 391.724 100.203 391.605 100.381C391.175 101.345 390.316 102.695 389.011 104.416C387.707 106.137 384.358 107.13 378.948 107.368C375.895 107.516 373.316 107.205 371.226 106.433C368.529 111.862 367.358 115.749 367.699 118.063C368.543 118.671 369.388 118.953 370.218 118.908C372.738 118.79 377.066 117.351 383.172 114.562C388.137 112.352 391.501 110.661 393.28 109.474C393.962 108.985 394.658 108.718 395.355 108.673C396.407 108.629 396.956 109.014 397 109.83C397.03 110.616 396.481 111.462 395.355 112.396ZM388.152 88.4397C388.078 88.2617 387.929 88.1578 387.692 88.0985C386.462 88.2765 385.143 89.0182 383.735 90.3236C380.4 93.3794 377.347 96.895 374.59 100.87C376.25 101.152 378.399 101.108 381.038 100.752C383.024 100.485 384.046 100.351 384.106 100.336C385.217 100.055 386.092 99.4167 386.759 98.4377C388.641 93.2162 389.1 89.8637 388.152 88.4397Z" fill="#70E4DE"/>
<g opacity="0.3">
<path opacity="0.3" d="M118.451 81.2008L107.972 82.165C107.557 82.2095 107.202 82.0315 106.95 81.7051L99.4797 71.5588L100.458 82.1353C100.502 82.5507 100.236 82.877 99.8058 82.9215L89.8756 83.8412C89.4606 83.8857 89.1345 83.6187 89.0901 83.1885L86.3185 53.1351C86.2889 52.7494 86.5408 52.3934 86.9706 52.3489L96.9008 51.4292C97.3158 51.3847 97.6419 51.6962 97.6863 52.0819L98.9758 66.0257L110.121 50.5836C110.314 50.3166 110.596 50.1535 110.922 50.1238L113.278 49.9013C113.619 49.8716 113.856 50.2276 113.634 50.5095L105.542 61.7981L118.732 80.5629C118.881 80.8151 118.747 81.1711 118.451 81.2008Z" fill="#2D1014"/>
<path opacity="0.3" d="M146.152 47.6615L148.908 77.6704C148.953 78.0858 148.642 78.4121 148.256 78.4566L137.392 79.4653C136.888 79.5098 136.355 79.2577 136.058 78.783L121.297 54.9004L123.609 80.0438C123.638 80.4295 123.371 80.741 122.957 80.7855L121.563 80.9191C121.148 80.9636 120.822 80.6965 120.793 80.3109L118.021 50.2129C117.977 49.7975 118.243 49.4712 118.673 49.4267L129.493 48.4328C130.041 48.3883 130.53 48.6405 130.827 49.1152L145.633 72.9978L143.321 47.9285C143.291 47.5428 143.558 47.2313 143.928 47.1868L145.366 47.0533C145.751 47.0236 146.122 47.2758 146.152 47.6615Z" fill="#2D1014"/>
<path opacity="0.3" d="M187.28 58.9944C188.14 68.3991 180.433 76.8396 170.073 77.789C159.757 78.7383 150.628 71.8406 149.768 62.4507C148.894 53.0163 156.615 44.561 166.931 43.6116C177.291 42.6623 186.406 49.56 187.28 58.9944ZM171.688 50.1979C171.481 47.9283 169.495 46.2372 167.227 46.4449C167.227 46.4449 167.227 46.4449 167.183 46.4449C167.183 46.4449 167.183 46.4449 167.138 46.4449C164.9 46.6526 163.27 48.67 163.478 50.9544L165.345 71.2324C165.552 73.502 167.539 75.193 169.762 74.9853C169.806 74.9853 169.806 74.9853 169.806 74.9853C169.851 74.9853 169.851 74.9853 169.851 74.9853C172.118 74.7777 173.763 72.7603 173.556 70.4758L171.688 50.1979Z" fill="#2D1014"/>
<path opacity="0.3" d="M233.73 39.5473L227.372 70.565C227.283 70.921 226.957 71.2028 226.586 71.2325L216.36 72.1819C215.974 72.2115 215.618 71.989 215.47 71.6627L210.535 59.5434L208.401 72.2857C208.356 72.6714 208.045 72.9532 207.615 72.9977L197.418 73.9322C197.033 73.9619 196.677 73.7394 196.529 73.4131L184.568 44.0864C184.405 43.7601 184.627 43.3596 185.013 43.3299L195.165 42.3954C195.551 42.3657 195.862 42.5882 196.025 42.9146L206.266 67.9839L208.519 54.6037L203.524 42.3509C203.361 42.0245 203.584 41.624 203.969 41.5943L214.122 40.6598C214.507 40.6301 214.863 40.8527 214.981 41.179L225.341 66.4856L230.855 39.7104C230.944 39.3544 231.27 39.0726 231.596 39.0429L233.196 38.8946C233.537 38.8352 233.834 39.1913 233.73 39.5473Z" fill="#2D1014"/>
</g>
<path d="M120.437 78.1745L109.958 79.1387C109.543 79.1832 109.188 79.0052 108.936 78.6789L101.451 68.5325L102.429 79.1091C102.474 79.5244 102.207 79.8508 101.777 79.8953L91.8468 80.815C91.4318 80.8595 91.1057 80.5925 91.0613 80.1623L88.2897 50.1088C88.2601 49.7231 88.512 49.3671 88.9418 49.3226L98.872 48.4029C99.287 48.3584 99.6131 48.6699 99.6575 49.0556L100.947 62.9995L112.093 47.5574C112.285 47.2904 112.567 47.1272 112.893 47.0975L115.249 46.875C115.59 46.8454 115.827 47.2014 115.605 47.4832L107.513 58.7718L120.704 77.5367C120.867 77.7889 120.718 78.1449 120.437 78.1745Z" fill="white"/>
<path d="M148.138 44.6351L150.894 74.644C150.939 75.0594 150.628 75.3857 150.242 75.4302L139.378 76.4389C138.874 76.4834 138.341 76.2313 138.044 75.7566L123.282 51.874L125.595 77.0323C125.624 77.418 125.357 77.7295 124.942 77.774L123.549 77.9075C123.134 77.952 122.808 77.685 122.779 77.2993L120.007 47.2013C119.963 46.786 120.229 46.4596 120.659 46.4151L131.479 45.4213C132.027 45.3768 132.516 45.6289 132.813 46.1036L147.619 69.9862L145.307 44.9169C145.277 44.5312 145.544 44.2197 145.914 44.1752L147.352 44.0417C147.737 43.9824 148.093 44.2494 148.138 44.6351Z" fill="white"/>
<path d="M189.266 55.9682C190.126 65.3728 182.419 73.8133 172.059 74.7627C161.743 75.7121 152.614 68.8143 151.754 59.4245C150.879 49.9901 158.601 41.5348 168.917 40.5854C179.262 39.636 188.392 46.5338 189.266 55.9682ZM173.674 47.1717C173.467 44.9021 171.481 43.211 169.213 43.4187C169.213 43.4187 169.213 43.4187 169.169 43.4187C169.169 43.4187 169.169 43.4187 169.124 43.4187C166.886 43.6264 165.256 45.6438 165.464 47.9282L167.331 68.2061C167.538 70.4757 169.525 72.1668 171.748 71.9591C171.792 71.9591 171.792 71.9591 171.792 71.9591C171.837 71.9591 171.837 71.9591 171.837 71.9591C174.104 71.7514 175.749 69.734 175.542 67.4496L173.674 47.1717Z" fill="white"/>
<path d="M235.716 36.521L229.358 67.5387C229.269 67.8947 228.943 68.1766 228.572 68.2062L218.345 69.1556C217.96 69.1853 217.604 68.9628 217.456 68.6364L212.521 56.5171L210.386 69.2594C210.342 69.6451 210.031 69.927 209.601 69.9715L199.404 70.906C199.019 70.9357 198.663 70.7132 198.515 70.3868L186.554 41.0602C186.391 40.7338 186.613 40.3333 186.999 40.3037L197.151 39.3691C197.537 39.3395 197.848 39.562 198.011 39.8883L208.252 64.9576L210.505 51.5774L205.51 39.3246C205.347 38.9983 205.57 38.5978 205.955 38.5681L216.107 37.6336C216.493 37.6039 216.849 37.8264 216.967 38.1528L227.327 63.4594L232.841 36.6842C232.929 36.3282 233.256 36.0463 233.582 36.0167L235.182 35.8683C235.523 35.809 235.805 36.165 235.716 36.521Z" fill="white"/>
</g>
<defs>
<clipPath id="clip0">
<rect width="397" height="167" fill="white"/>
</clipPath>
</defs>
</svg>
