<svg width="402" height="210" viewBox="0 0 402 210" fill="none" xmlns="http://www.w3.org/2000/svg">
<path d="M366.851 1.69718L25.2244 66.8276C8.17453 70.0634 -2.57895 83.803 2.09359 96.3479L17.8344 138.678C21.3803 148.22 32.9622 154.277 46.1017 153.464L358.765 134.099C373.512 133.186 385.872 123.943 387.579 112.577L400.818 24.497C403.055 9.44646 386.055 -1.97004 366.851 1.69718Z" fill="#FAEDDA"/>
<path d="M332.966 162.689C332.221 162.689 331.458 162.656 330.696 162.606L44.1132 140.122C31.7028 139.143 21.9932 130.265 20.4853 118.533L14.6695 73.5975C13.7582 66.4788 15.8956 59.2937 20.6842 53.3864C25.8704 46.9978 33.5585 42.9489 41.7935 42.2851L362.377 11.1885C367.016 10.8234 371.44 11.5038 375.516 13.2129C379.36 14.8391 382.757 17.3613 385.342 20.5307C390.462 26.8032 392.086 35.0171 389.782 43.065L361.598 141.565C358.069 153.928 346.006 162.689 332.966 162.689ZM362.526 12.8478L41.9261 43.9611C34.1385 44.5751 26.8645 48.4082 21.96 54.4483C17.4532 59.9907 15.4483 66.7277 16.3099 73.3984L22.1257 118.318C22.8216 123.711 25.307 128.49 29.3168 132.157C33.3431 135.841 38.4962 138.014 44.2292 138.462L330.812 160.93C331.525 160.98 332.237 161.013 332.95 161.013C345.261 161.013 356.644 152.766 359.991 141.101L388.175 42.6004C390.329 35.0835 388.821 27.4337 384.033 21.5762C381.614 18.6225 378.449 16.2662 374.853 14.7395C371.043 13.1465 366.884 12.4994 362.526 12.8478Z" fill="#EB1E55"/>
<path d="M205.009 34.0215C205.141 36.9254 204.876 39.8957 204.23 42.9655C201.28 57.5514 192.863 70.312 179.011 81.2307C165.855 91.6018 151.556 97.5423 136.146 99.0358C138.599 110.718 141.763 124.225 145.641 139.541C146.933 144.752 149.054 150.725 151.987 157.446C153.445 160.731 154.207 162.822 154.24 163.668C154.306 164.979 153.644 165.676 152.268 165.743C150.893 165.809 148.706 164.714 145.707 162.49C142.84 160.449 141.018 158.707 140.239 157.296C138.45 154.21 134.92 138.23 129.635 109.34C129.37 107.897 128.988 106.038 128.491 103.748C123.09 115.115 116.81 129.104 109.685 145.681C108.923 147.622 107.664 150.476 105.924 154.243C104.665 156.998 103.538 160.001 102.527 163.237C101.533 166.473 100.307 168.132 98.8489 168.198C96.8771 168.281 95.7339 164.764 95.4025 157.612C95.1871 152.816 103.588 133.601 120.604 99.9318L118.036 100.048C114.954 100.264 113.347 99.0855 113.231 96.5135C113.198 95.717 113.596 94.4227 114.424 92.5974C115.269 90.7721 116.015 89.8428 116.661 89.8262C117.191 89.8096 118.484 90.0419 120.538 90.5729C122.609 91.0873 124.034 91.386 124.83 91.4856C133.031 75.3565 145.657 50.665 162.707 17.4443C162.177 17.5439 160.503 18.1081 157.653 19.1701C155.135 20.1491 153.611 20.6469 153.08 20.6635C150.578 20.7797 149.253 19.0539 149.087 15.4863C148.971 12.9142 149.783 11.2549 151.523 10.5082C152.235 10.2095 154.174 9.99375 157.322 9.8444C160.089 9.71165 163.171 9.54572 166.584 9.31341C166.7 8.91516 166.733 8.31778 166.7 7.52128C166.667 6.92391 167.015 6.27675 167.744 5.57981C168.473 4.88288 169.136 4.51781 169.716 4.50122C169.848 4.5676 170.08 4.65056 170.412 4.76672C171.853 5.89509 173.03 7.32216 173.974 9.0645C182.491 9.52912 189.467 11.6531 194.918 15.4199C201.297 19.8504 204.644 26.0565 205.009 34.0215ZM195.1 35.1665C194.57 23.667 187.031 17.4609 172.483 16.5483C158.929 41.6878 146.287 66.512 134.556 91.0376C149.037 89.6437 161.63 84.9809 172.334 77.0325C183.85 68.4701 191.157 57.4187 194.222 43.8948C194.934 40.659 195.233 37.7385 195.1 35.1665Z" fill="#0E7C74"/>
<path d="M192.052 127.511C188.622 130.431 183.833 133.451 177.653 136.554C170.777 140.155 165.458 142.047 161.713 142.213C160.603 142.262 159.692 142.163 158.979 141.897C158.283 141.632 157.571 140.835 156.842 139.475C156.494 139.226 156.129 138.911 155.715 138.545C155.102 138.114 154.439 136.969 153.727 135.144C153.014 133.302 152.716 132.024 152.815 131.294C152.815 129.85 153.495 126.88 154.87 122.416C157.19 116.924 159.841 112.311 162.823 108.577C165.806 104.86 168.871 101.807 171.986 99.4174C175.747 96.6131 179.26 95.0035 182.524 94.5887C182.856 94.5721 183.154 94.5555 183.419 94.5555C183.485 94.5555 183.552 94.5555 183.618 94.5389C184.131 94.2568 184.794 94.4891 185.623 95.2358C187.826 97.4594 189.102 99.9318 189.417 102.637C189.815 105.74 189.417 109.274 188.224 113.257C188.108 113.588 187.992 113.871 187.86 114.07C187.379 115.148 186.418 116.658 184.96 118.583C183.502 120.508 179.757 121.62 173.709 121.885C170.296 122.035 167.413 121.703 165.077 120.84C162.061 126.913 160.752 131.261 161.133 133.849C162.078 134.53 163.022 134.845 163.95 134.795C166.767 134.663 171.605 133.053 178.432 129.933C183.982 127.461 187.744 125.569 189.732 124.242C190.494 123.694 191.273 123.395 192.068 123.346C193.245 123.296 193.858 123.727 193.907 124.64C193.941 125.519 193.327 126.465 192.052 127.511ZM183.999 100.712C183.916 100.513 183.75 100.396 183.485 100.347C182.11 100.546 180.635 101.375 179.061 102.836C175.333 106.254 171.92 110.187 168.838 114.634C170.694 114.949 173.096 114.899 176.046 114.501C178.266 114.202 179.409 114.053 179.475 114.037C180.702 113.721 181.696 113.008 182.441 111.913C184.546 106.055 185.059 102.321 183.999 100.712Z" fill="#0E7C74"/>
<path d="M225.074 126.001C221.644 128.921 216.889 131.941 210.775 135.044C203.832 138.645 198.48 140.537 194.736 140.719C193.675 140.769 192.797 140.653 192.101 140.404C191.405 140.138 190.693 139.342 189.964 137.981C189.566 137.732 189.152 137.434 188.737 137.052C188.124 136.621 187.478 135.476 186.799 133.634C186.12 131.792 185.805 130.514 185.838 129.784C185.904 128.34 186.583 125.37 187.892 120.906C190.278 115.397 192.946 110.784 195.895 107.067C198.845 103.35 201.927 100.297 205.108 97.9073C208.803 95.103 212.282 93.4934 215.547 93.0786C215.878 93.062 216.209 93.0454 216.524 93.0288H216.624C217.137 92.7467 217.8 92.979 218.629 93.7423C220.899 95.9659 222.207 98.4383 222.522 101.143C222.87 104.263 222.439 107.797 221.23 111.78C220.766 113.34 219.722 114.153 218.082 114.219C215.977 114.319 214.9 113.671 214.834 112.294C214.867 113.091 215.331 111.68 216.226 108.063C217.369 103.051 217.667 100.098 217.104 99.2016C216.972 99.0191 216.789 98.8864 216.59 98.8366C215.215 99.0357 213.741 99.8488 212.166 101.309C206.732 106.154 202.424 111.431 199.276 117.173C195.448 124.109 193.741 129.187 194.156 132.373C195.166 133.053 196.111 133.368 196.972 133.318C199.789 133.186 204.627 131.576 211.454 128.456C217.071 125.984 220.832 124.092 222.754 122.765C223.516 122.217 224.295 121.918 225.074 121.869C226.317 121.819 226.963 122.25 227.013 123.163C227.062 123.993 226.416 124.955 225.074 126.001Z" fill="#0E7C74"/>
<path d="M240.832 97.5922C241.345 98.8865 239.937 102.686 236.606 108.975C231.387 118.849 228.587 124.192 228.239 125.005C227.096 127.494 226.532 130.265 226.532 133.302C226.516 137.268 225.737 139.276 224.163 139.342C221.628 139.458 220.219 136.687 219.954 131.029C219.838 128.324 220.186 125.47 221.048 122.466C222.572 117.123 224.958 111.199 228.173 104.711C231.404 98.2227 233.69 94.8874 235.065 94.6883C237.998 94.2236 239.92 95.2027 240.832 97.5922ZM252.911 76.7504C252.248 78.0945 251.005 79.6046 249.166 81.2805C247.144 83.0229 245.537 83.9189 244.361 83.9687C242.389 84.0517 241.312 82.2596 241.146 78.5757C240.997 75.3566 241.693 72.7845 243.267 70.8597C245.454 68.3208 248.023 66.9767 250.989 66.844C251.519 66.8274 251.95 66.8606 252.281 66.9767C253.225 67.3252 253.772 68.6527 253.938 70.9592C254.021 73.1994 253.689 75.1408 252.911 76.7504Z" fill="#0E7C74"/>
<path d="M280.035 101.724C279.753 104.313 278.726 107.515 276.92 111.365C274.335 116.692 271.452 121.122 268.303 124.657C265.155 128.191 261.941 131.095 258.677 133.352C254.783 136.04 251.171 137.55 247.824 137.898C247.426 137.915 247.062 137.799 246.73 137.55C246.664 137.616 246.531 137.683 246.349 137.766C245.835 137.981 245.156 137.716 244.344 136.969C242.074 134.762 240.798 132.323 240.55 129.635C238.926 132.821 237.269 136.123 235.579 139.574C224.444 162.208 217.17 177.989 213.757 186.916C212.879 189.339 211.819 190.567 210.576 190.633C209.466 190.683 208.322 189.737 207.179 187.812C206.185 186.136 205.688 184.709 205.705 183.515C205.705 181.938 213.111 166.34 227.941 136.753C240.898 110.884 249.812 95.4184 254.65 90.3739C255.214 89.8263 256.092 89.511 257.268 89.4612C260.416 89.3119 261.858 89.9757 261.609 91.4525C261.56 91.7844 260.615 93.4935 258.776 96.5468C263.73 92.6307 267.293 90.6892 269.463 90.7224C271.037 90.7224 272.081 90.9713 272.562 91.4691C273.705 92.0167 275.263 93.0621 277.251 94.6219C277.864 95.1197 278.51 96.2647 279.19 98.0402C279.836 99.8489 280.134 101.06 280.035 101.724ZM272.33 99.7992C272.479 98.6044 272.131 97.6752 271.319 96.9782C270.971 96.7293 269.861 96.8786 267.989 97.4262C265.205 98.6708 260.996 102.769 255.313 109.672C250.259 115.845 247.31 120.392 246.465 123.329C245.272 127.61 245.14 130.448 246.067 131.858C246.217 132.124 246.482 132.273 246.879 132.323C246.946 132.323 247.045 132.29 247.178 132.207C248.487 132.024 249.1 131.858 249.033 131.725C249.033 131.792 249.066 131.825 249.133 131.825C250.11 131.526 251.171 130.912 252.314 130C257.964 125.32 262.504 120.243 265.934 114.734C269.646 108.627 271.783 103.649 272.33 99.7992Z" fill="#0E7C74"/>
<path d="M314.051 121.885C310.638 124.806 305.833 127.826 299.652 130.929C292.776 134.53 287.457 136.421 283.713 136.587C282.603 136.637 281.691 136.538 280.979 136.272C280.283 136.007 279.57 135.21 278.841 133.849C278.493 133.601 278.129 133.285 277.715 132.92C277.102 132.489 276.439 131.344 275.726 129.518C275.014 127.677 274.716 126.399 274.815 125.669C274.815 124.225 275.494 121.255 276.87 116.791C279.189 111.299 281.84 106.686 284.823 102.952C287.805 99.2349 290.871 96.1817 293.986 93.7922C297.747 90.9879 301.26 89.3783 304.524 88.9634C304.855 88.9468 305.153 88.9302 305.419 88.9302C305.485 88.9302 305.551 88.9302 305.617 88.9136C306.131 88.6315 306.794 88.8639 307.622 89.6106C309.826 91.8341 311.102 94.3066 311.417 97.0114C311.814 100.114 311.417 103.649 310.224 107.631C310.108 107.963 309.992 108.245 309.859 108.444C309.379 109.523 308.418 111.033 306.959 112.958C305.501 114.883 301.757 115.995 295.709 116.26C292.296 116.409 289.413 116.078 287.076 115.215C284.061 121.288 282.752 125.636 283.133 128.224C284.077 128.905 285.022 129.22 285.95 129.17C288.766 129.037 293.605 127.428 300.431 124.308C305.982 121.836 309.743 119.944 311.731 118.616C312.494 118.069 313.272 117.77 314.051 117.72C315.228 117.671 315.841 118.102 315.89 119.015C315.923 119.911 315.31 120.857 314.051 121.885ZM305.998 95.0865C305.916 94.8874 305.75 94.7712 305.485 94.7214C304.11 94.9206 302.635 95.7502 301.061 97.2105C297.333 100.629 293.919 104.562 290.838 109.009C292.693 109.324 295.096 109.274 298.045 108.876C300.265 108.577 301.409 108.428 301.475 108.411C302.701 108.096 303.695 107.382 304.441 106.287C306.545 100.43 307.059 96.6961 305.998 95.0865Z" fill="#0E7C74"/>
<path d="M207.229 29.7402C207.361 32.6441 207.096 35.6144 206.45 38.6843C203.501 53.2702 195.083 66.0307 181.231 76.9494C168.075 87.3205 153.776 93.2611 138.367 94.7545C140.819 106.436 143.984 119.944 147.861 135.26C149.153 140.47 151.274 146.444 154.207 153.148C155.665 156.433 156.427 158.524 156.46 159.371C156.527 160.681 155.864 161.378 154.489 161.445C153.113 161.511 150.926 160.416 147.927 158.192C145.061 156.151 143.238 154.409 142.459 152.999C140.67 149.912 137.141 133.932 131.855 105.043C131.59 103.599 131.209 101.74 130.712 99.4505C125.31 110.817 119.03 124.806 111.905 141.383C111.143 143.324 109.884 146.178 108.144 149.945C106.885 152.7 105.758 155.703 104.747 158.939C103.753 162.175 102.527 163.834 101.069 163.901C99.0974 163.984 97.9541 160.466 97.6227 153.314C97.4073 148.518 105.808 129.303 122.825 95.634L120.256 95.7501C117.174 95.9658 115.567 94.7877 115.451 92.2157C115.418 91.4192 115.816 90.1248 116.661 88.2995C117.506 86.4742 118.251 85.545 118.898 85.5284C119.428 85.5118 120.72 85.7441 122.775 86.2751C124.846 86.7895 126.271 87.0882 127.066 87.1878C135.268 71.0586 147.894 46.3672 164.944 13.1465C164.414 13.246 162.74 13.8102 159.89 14.8722C157.372 15.8513 155.847 16.3491 155.317 16.3657C152.815 16.4818 151.49 14.7561 151.324 11.1884C151.208 8.61639 152.02 6.95702 153.76 6.2103C154.472 5.91162 156.411 5.6959 159.559 5.54655C162.326 5.4138 165.408 5.24787 168.821 5.01555C168.937 4.6173 168.97 4.01993 168.937 3.22343C168.904 2.62606 169.252 1.9789 169.981 1.28196C170.71 0.585025 171.373 0.219963 171.953 0.203369C172.085 0.269744 172.317 0.352714 172.649 0.46887C174.09 1.59724 175.267 3.02431 176.211 4.76665C184.728 5.23127 191.703 7.35527 197.155 11.1221C203.501 15.5526 206.864 21.7752 207.229 29.7402ZM197.32 30.8852C196.79 19.3857 189.251 13.1797 174.703 12.267C161.149 37.4065 148.507 62.2308 136.776 86.7563C151.258 85.3624 163.85 80.6996 174.554 72.7512C186.07 64.1888 193.377 53.1374 196.442 39.6135C197.155 36.3611 197.436 33.4572 197.32 30.8852Z" fill="#70E4DE"/>
<path d="M194.271 123.229C190.841 126.15 186.053 129.17 179.873 132.273C172.996 135.874 167.678 137.765 163.933 137.931C162.823 137.981 161.911 137.882 161.199 137.616C160.503 137.351 159.791 136.554 159.062 135.193C158.714 134.945 158.349 134.629 157.935 134.264C157.322 133.833 156.659 132.688 155.947 130.846C155.234 129.004 154.936 127.726 155.035 126.996C155.035 125.552 155.715 122.582 157.09 118.118C159.41 112.626 162.061 108.013 165.043 104.279C168.026 100.562 171.091 97.5091 174.206 95.1196C177.967 92.3152 181.48 90.7056 184.744 90.2908C185.075 90.2742 185.374 90.2576 185.639 90.2576C185.705 90.2576 185.771 90.2576 185.838 90.241C186.351 89.9589 187.014 90.1912 187.842 90.938C190.046 93.1615 191.322 95.634 191.637 98.3388C192.034 101.442 191.637 104.976 190.444 108.959C190.328 109.291 190.212 109.573 190.079 109.772C189.599 110.85 188.638 112.36 187.18 114.285C185.722 116.21 181.977 117.322 175.929 117.587C172.516 117.737 169.633 117.405 167.296 116.542C164.281 122.615 162.972 126.963 163.353 129.552C164.297 130.232 165.242 130.547 166.17 130.497C168.987 130.365 173.825 128.755 180.651 125.635C186.202 123.163 189.963 121.271 191.952 119.944C192.714 119.396 193.493 119.098 194.288 119.048C195.464 118.998 196.077 119.429 196.127 120.342C196.144 121.238 195.531 122.184 194.271 123.229ZM186.219 96.4139C186.136 96.2148 185.97 96.0986 185.705 96.0322C184.33 96.2314 182.855 97.061 181.281 98.5213C177.553 101.94 174.14 105.872 171.058 110.319C172.914 110.635 175.316 110.585 178.265 110.187C180.486 109.888 181.629 109.739 181.695 109.722C182.921 109.407 183.916 108.693 184.661 107.598C186.765 101.757 187.279 98.0235 186.219 96.4139Z" fill="#70E4DE"/>
<path d="M227.294 121.703C223.881 124.623 219.109 127.643 212.995 130.746C206.052 134.347 200.7 136.239 196.956 136.421C195.895 136.471 195.017 136.355 194.321 136.106C193.625 135.841 192.913 135.044 192.184 133.683C191.786 133.434 191.372 133.136 190.958 132.754C190.345 132.323 189.698 131.178 189.019 129.336C188.34 127.494 188.025 126.2 188.058 125.486C188.124 124.042 188.804 121.072 190.113 116.608C192.499 111.099 195.166 106.486 198.116 102.769C201.065 99.0522 204.147 95.999 207.328 93.6095C211.023 90.8051 214.503 89.1955 217.767 88.7807C218.098 88.7641 218.43 88.7475 218.744 88.7309H218.844C219.358 88.4488 220.02 88.6811 220.849 89.4444C223.119 91.668 224.428 94.1405 224.743 96.8453C225.091 99.9649 224.66 103.499 223.45 107.482C222.986 109.042 221.942 109.855 220.302 109.921C218.198 110.021 217.121 109.374 217.054 107.996C217.088 108.793 217.551 107.382 218.446 103.765C219.589 98.7535 219.888 95.7999 219.324 94.9038C219.192 94.7213 219.01 94.5885 218.811 94.5221C217.435 94.7213 215.961 95.5343 214.387 96.9946C208.952 101.84 204.644 107.117 201.496 112.858C197.668 119.794 195.962 124.872 196.376 128.058C197.387 128.738 198.331 129.054 199.193 129.004C202.009 128.871 206.848 127.262 213.674 124.142C219.291 121.669 223.052 119.778 224.975 118.45C225.737 117.903 226.515 117.604 227.294 117.554C228.537 117.504 229.183 117.936 229.233 118.849C229.266 119.711 228.62 120.657 227.294 121.703Z" fill="#70E4DE"/>
<path d="M243.035 93.3108C243.549 94.6051 242.14 98.4051 238.81 104.694C233.591 114.567 230.791 119.911 230.443 120.724C229.299 123.213 228.736 125.984 228.736 129.021C228.719 132.986 227.941 134.994 226.366 135.061C223.831 135.177 222.423 132.406 222.158 126.747C222.042 124.042 222.39 121.188 223.251 118.185C224.776 112.842 227.162 106.918 230.376 100.43C233.607 93.9414 235.894 90.606 237.269 90.4069C240.218 89.9423 242.14 90.9047 243.035 93.3108ZM255.114 72.4691C254.451 73.8132 253.209 75.3232 251.37 76.9992C249.348 78.7415 247.741 79.6376 246.564 79.6873C244.593 79.7703 243.516 77.9782 243.35 74.2944C243.201 71.0752 243.897 68.5032 245.471 66.5783C247.658 64.0394 250.226 62.6954 253.192 62.5626C253.722 62.546 254.153 62.5792 254.485 62.6953C255.429 63.0438 255.976 64.3713 256.142 66.6778C256.241 68.918 255.893 70.8429 255.114 72.4691Z" fill="#70E4DE"/>
<path d="M282.238 97.4427C281.956 100.031 280.929 103.234 279.123 107.084C276.538 112.41 273.655 116.841 270.507 120.392C267.359 123.943 264.144 126.83 260.88 129.087C256.986 131.775 253.374 133.285 250.027 133.634C249.63 133.65 249.265 133.534 248.934 133.285C248.867 133.352 248.735 133.418 248.553 133.501C248.039 133.717 247.36 133.451 246.548 132.704C244.278 130.497 243.002 128.058 242.753 125.37C241.13 128.556 239.473 131.858 237.783 135.31C226.648 157.943 219.374 173.724 215.961 182.651C215.083 185.074 214.022 186.302 212.779 186.368C211.669 186.418 210.526 185.472 209.383 183.548C208.389 181.872 207.892 180.445 207.908 179.25C207.908 177.673 215.315 162.075 230.144 132.489C243.101 106.619 252.016 91.1536 256.854 86.1091C257.417 85.5615 258.295 85.2463 259.472 85.1965C262.62 85.0471 264.062 85.7109 263.813 87.1877C263.763 87.5196 262.819 89.2287 260.98 92.282C265.934 88.3659 269.496 86.4244 271.667 86.4576C273.241 86.4576 274.285 86.7065 274.765 87.2043C275.909 87.7519 277.466 88.7973 279.454 90.3571C280.067 90.8549 280.714 91.9999 281.393 93.7754C282.056 95.551 282.338 96.7789 282.238 97.4427ZM274.55 95.5012C274.699 94.3064 274.351 93.3772 273.539 92.6802C273.191 92.4313 272.081 92.5807 270.209 93.1283C267.425 94.3728 263.217 98.4549 257.533 105.374C252.48 111.547 249.53 116.094 248.685 119.031C247.492 123.312 247.36 126.15 248.288 127.56C248.437 127.826 248.702 127.975 249.099 128.025C249.166 128.025 249.265 127.992 249.398 127.909C250.707 127.726 251.32 127.56 251.253 127.428C251.253 127.494 251.287 127.527 251.353 127.527C252.33 127.228 253.391 126.614 254.534 125.702C260.184 121.022 264.724 115.945 268.154 110.436C271.866 104.329 274.003 99.3509 274.55 95.5012Z" fill="#70E4DE"/>
<path d="M316.255 117.604C312.841 120.525 308.036 123.545 301.856 126.648C294.98 130.249 289.661 132.14 285.916 132.306C284.806 132.356 283.895 132.256 283.182 131.991C282.486 131.725 281.774 130.929 281.045 129.568C280.697 129.319 280.332 129.004 279.918 128.639C279.305 128.208 278.642 127.063 277.93 125.221C277.217 123.379 276.919 122.101 277.019 121.371C277.019 119.927 277.698 116.957 279.073 112.493C281.393 107.001 284.044 102.388 287.026 98.6541C290.009 94.9371 293.074 91.8838 296.189 89.4943C299.95 86.69 303.463 85.0804 306.727 84.6656C307.059 84.649 307.357 84.6324 307.622 84.6324C307.688 84.6324 307.755 84.6324 307.821 84.6158C308.335 84.3337 308.997 84.566 309.826 85.3127C312.03 87.5363 313.305 90.0087 313.62 92.7135C314.018 95.8166 313.62 99.351 312.427 103.334C312.311 103.665 312.195 103.947 312.063 104.147C311.582 105.225 310.621 106.735 309.163 108.66C307.705 110.585 303.96 111.697 297.912 111.962C294.499 112.112 291.616 111.78 289.28 110.917C286.264 116.99 284.955 121.338 285.336 123.926C286.281 124.607 287.225 124.922 288.153 124.872C290.97 124.739 295.808 123.13 302.635 120.01C308.185 117.538 311.947 115.646 313.935 114.319C314.697 113.771 315.476 113.472 316.255 113.423C317.431 113.373 318.044 113.804 318.094 114.717C318.144 115.613 317.531 116.559 316.255 117.604ZM308.219 90.7886C308.136 90.5895 307.97 90.4734 307.705 90.407C306.33 90.6061 304.855 91.4358 303.281 92.8961C299.553 96.3144 296.14 100.247 293.058 104.694C294.913 105.009 297.316 104.96 300.265 104.561C302.486 104.263 303.629 104.113 303.695 104.097C304.938 103.782 305.915 103.068 306.661 101.973C308.749 96.1318 309.279 92.3982 308.219 90.7886Z" fill="#70E4DE"/>
</svg>
