<svg width="405" height="200" viewBox="0 0 405 200" fill="none" xmlns="http://www.w3.org/2000/svg">
<g clip-path="url(#clip0)">
<path d="M350.75 0.665429L23.5057 62.8486C7.18952 65.938 -3.12713 79.0558 1.34871 91.033L16.4269 131.448C19.8235 140.558 30.9178 146.34 43.5041 145.564L343.004 127.075C357.13 126.204 368.971 117.38 370.605 106.527L383.287 22.4335C385.446 8.06404 369.145 -2.83584 350.75 0.665429Z" fill="#FC6170"/>
<path d="M318.292 154.373C317.562 154.373 316.848 154.341 316.118 154.293L41.5999 132.826C29.7119 131.892 20.411 123.416 18.9667 112.215L13.3957 69.3125C12.5228 62.5159 14.5702 55.656 19.1572 50.0159C24.125 43.9164 31.4895 40.0508 39.3778 39.4171L346.465 9.7276C350.909 9.37906 355.147 10.0286 359.051 11.6604C362.733 13.213 365.987 15.6211 368.463 18.6471C373.367 24.6357 374.923 32.4779 372.717 40.1617L345.719 134.205C342.338 146.008 330.784 154.373 318.292 154.373ZM346.608 11.3119L39.5207 41.0172C32.0609 41.6034 25.0932 45.2631 20.3952 51.0299C16.0781 56.3214 14.1576 62.7536 14.9829 69.1224L20.538 112.009C21.2046 117.158 23.5854 121.721 27.4264 125.222C31.2832 128.739 36.2193 130.814 41.711 131.242L316.229 152.693C316.912 152.741 317.594 152.773 318.277 152.773C330.069 152.773 340.973 144.899 344.179 133.761L371.177 39.7181C373.241 32.5413 371.796 25.2377 367.209 19.6452C364.892 16.8252 361.86 14.5755 358.416 13.118C354.766 11.5971 350.798 10.9792 346.608 11.3119Z" fill="#FAE661"/>
<path d="M103.722 51.0297C103.865 54.1032 103.595 57.0975 102.913 60.0285C101.119 67.7281 98.1351 74.6197 93.9291 80.7192C87.8978 89.2902 79.4699 96.6729 68.6453 102.82C57.5827 109.11 46.8693 112.5 36.4891 112.975C36.1717 112.991 35.2353 113.039 33.664 113.102C28.2517 124.461 21.4903 139.274 13.3798 157.541C11.7133 161.153 9.44363 166.698 6.58671 174.208C5.58679 177.281 4.44402 178.85 3.11079 178.897C1.34903 178.992 0.317361 175.697 -7.43808e-05 169.011C-0.206407 164.48 7.91994 145.976 24.3948 113.53L21.9347 113.641C19.1095 113.831 17.6335 112.706 17.5224 110.282C17.4906 109.474 17.8874 108.238 18.7286 106.559C19.5698 104.895 20.3317 104.04 21.03 104.008C21.9665 103.961 23.3473 104.024 25.1567 104.198C26.9661 104.373 28.2676 104.468 29.0929 104.499C36.7748 89.3535 48.5358 66.5874 64.3441 36.2167C63.8362 36.3117 62.3442 36.787 59.8683 37.6425C57.7573 38.3079 56.3923 38.6565 55.7575 38.6882C53.4243 38.7991 52.1863 37.2465 52.0435 34.0462C51.9324 31.543 52.6783 29.9271 54.2814 29.23C55.0274 28.9448 56.932 28.7389 60.027 28.5963C62.5506 28.4854 65.3123 28.3269 68.3279 28.121C68.4866 27.614 68.566 26.9486 68.5184 26.1248C68.5025 25.6178 68.8358 25.0475 69.5183 24.3821C70.2166 23.7167 70.8356 23.384 71.407 23.3523L72.0736 23.6058C73.4545 24.7465 74.5814 26.1723 75.4861 27.8833C83.2632 28.4062 89.6278 30.4024 94.5798 33.8878C100.341 38.0386 103.389 43.7579 103.722 51.0297ZM94.3894 52.1863C93.8973 41.5082 86.8344 35.884 73.2164 35.3136C62.0427 55.9093 50.2976 78.7864 37.9493 103.961C51.4403 102.582 63.1061 98.3364 72.9307 91.2072C83.5965 83.4125 90.4214 73.2572 93.3736 60.7255C94.1672 57.5411 94.5163 54.6894 94.3894 52.1863Z" fill="#0E7C74"/>
<path d="M104.246 129.579C104.024 130.276 101.992 132.89 98.1352 137.405C94.2784 141.92 91.2945 145.073 89.1677 146.863C84.0093 151.252 80.2795 153.485 77.9463 153.596C76.9464 153.644 75.6449 153.042 74.0895 151.79C72.8515 150.84 72.0262 150.063 71.6135 149.446C71.058 148.463 70.7723 146.214 70.7405 142.696C70.7882 139.48 71.9468 135.979 74.2165 132.161C75.3275 130.228 78.1844 126.093 82.8031 119.788C81.8667 118.568 81.1683 117.76 80.708 117.332C80.1049 116.667 79.2478 115.827 78.1368 114.813C74.4069 119.899 71.9944 123.146 70.931 124.588C57.9638 143.061 51.4246 152.297 51.2976 152.313C50.9802 152.329 50.012 151.553 48.3455 150C47.0281 148.859 46.3456 147.703 46.298 146.515C46.2821 146.325 47.4725 144.788 49.8692 141.92C53.8054 137.088 59.3287 130.323 66.4393 121.641C69.0105 118.504 71.7722 114.956 74.7402 110.979C74.5498 108.096 75.0735 105.466 76.3115 103.074C77.5495 100.697 80.0255 97.9721 83.7395 94.9145C86.1044 92.9183 87.8821 91.7934 89.0724 91.5558C89.5168 91.4766 89.9295 91.7776 90.3422 92.4905C90.7548 93.1876 90.9136 93.9481 90.8342 94.7719C90.6279 97.2275 89.501 99.9208 87.4218 102.836C85.5806 105.181 83.7237 107.525 81.8825 109.87C83.2792 111.439 84.4061 112.611 85.2632 113.387C88.8185 116.556 90.6437 119.138 90.7231 121.134C90.8025 122.766 89.5803 125.206 87.0885 128.454C85.295 130.735 83.4856 133.048 81.6445 135.393C78.6923 139.734 77.2638 142.696 77.3273 144.249C77.3749 145.311 77.9939 145.818 79.1843 145.77C80.4382 145.707 84.6283 142.728 91.723 136.819C92.6277 136.09 94.7228 134.173 97.9765 131.084C100.389 128.786 101.786 127.614 102.167 127.598C102.738 127.567 103.246 127.788 103.706 128.232C104.166 128.676 104.357 129.135 104.246 129.579Z" fill="#0E7C74"/>
<path d="M129.783 137.548C126.498 140.336 121.911 143.219 115.991 146.182C109.404 149.62 104.309 151.426 100.722 151.584C99.6587 151.632 98.7857 151.537 98.1033 151.283C97.4366 151.03 96.7542 150.269 96.0558 148.97C95.7225 148.733 95.3733 148.432 94.9765 148.083C94.3893 147.671 93.7544 146.578 93.0719 144.835C92.3894 143.077 92.1037 141.857 92.199 141.16C92.199 139.781 92.8497 136.946 94.1671 132.684C96.3891 127.44 98.9286 123.035 101.786 119.471C104.642 115.922 107.579 113.007 110.563 110.726C114.165 108.048 117.53 106.511 120.657 106.115C120.974 106.099 121.26 106.084 121.514 106.084C121.578 106.084 121.641 106.084 121.705 106.068C122.197 105.798 122.831 106.02 123.625 106.733C125.736 108.856 126.958 111.217 127.26 113.799C127.641 116.762 127.26 120.136 126.117 123.939C126.006 124.255 125.895 124.525 125.768 124.715C125.307 125.745 124.387 127.186 122.99 129.024C121.593 130.862 118.006 131.923 112.213 132.177C108.944 132.335 106.182 132.003 103.944 131.179C101.055 136.977 99.8015 141.128 100.167 143.6C101.071 144.249 101.976 144.55 102.865 144.503C105.563 144.376 110.198 142.839 116.737 139.861C122.054 137.5 125.657 135.694 127.561 134.426C128.291 133.904 129.037 133.619 129.783 133.571C130.91 133.523 131.497 133.935 131.545 134.807C131.593 135.646 131.005 136.549 129.783 137.548ZM122.085 111.945C122.006 111.755 121.847 111.644 121.593 111.597C120.276 111.787 118.864 112.579 117.356 113.973C113.785 117.237 110.515 120.992 107.563 125.238C109.34 125.539 111.642 125.491 114.467 125.111C116.594 124.826 117.689 124.683 117.753 124.667C118.943 124.366 119.879 123.685 120.594 122.639C122.609 117.047 123.101 113.482 122.085 111.945Z" fill="#0E7C74"/>
<path d="M166.399 115.114C166.13 117.585 165.146 120.643 163.416 124.319C160.94 129.404 158.178 133.634 155.162 137.009C152.131 140.383 149.067 143.156 145.941 145.31C142.211 147.877 138.751 149.319 135.545 149.651C135.164 149.667 134.815 149.556 134.497 149.319C134.434 149.382 134.307 149.445 134.132 149.525C133.64 149.731 132.989 149.477 132.212 148.764C130.037 146.657 128.815 144.328 128.577 141.762C127.022 144.804 125.434 147.956 123.815 151.252C113.15 172.861 106.182 187.928 102.912 196.451C102.071 198.764 101.055 199.937 99.8649 200C98.8015 200.048 97.7064 199.144 96.6112 197.307C95.6589 195.707 95.1828 194.344 95.1986 193.219C95.1986 191.714 102.293 176.822 116.499 148.574C128.91 123.875 137.449 109.11 142.084 104.293C142.624 103.771 143.465 103.47 144.592 103.422C147.607 103.279 148.988 103.913 148.75 105.323C148.702 105.64 147.798 107.272 146.036 110.187C150.782 106.448 154.194 104.594 156.273 104.626C157.781 104.626 158.781 104.864 159.241 105.339C160.336 105.862 161.828 106.86 163.733 108.349C164.32 108.824 164.939 109.918 165.59 111.613C166.209 113.308 166.495 114.48 166.399 115.114ZM159.035 113.276C159.178 112.136 158.845 111.248 158.067 110.583C157.733 110.345 156.67 110.488 154.877 111.011C152.21 112.199 148.179 116.096 142.735 122.703C137.894 128.596 135.069 132.937 134.259 135.741C133.116 139.829 132.989 142.538 133.878 143.885C134.021 144.138 134.275 144.281 134.656 144.328C134.719 144.328 134.815 144.297 134.942 144.217C136.195 144.043 136.783 143.885 136.719 143.758C136.719 143.821 136.751 143.853 136.814 143.853C137.751 143.568 138.767 142.982 139.862 142.11C145.274 137.643 149.623 132.795 152.908 127.535C156.448 121.705 158.495 116.952 159.035 113.276Z" fill="#0E7C74"/>
<path d="M205.492 106.987C205.92 108.159 204.476 111.739 201.159 117.744C196.334 126.695 193.635 131.781 193.064 133.001C191.969 135.377 191.429 138.007 191.445 140.89C191.366 144.724 190.699 146.673 189.445 146.736C187.112 146.847 185.763 144.36 185.414 139.274C180.144 145.279 175.795 148.289 172.399 148.321C172.081 148.336 171.796 148.352 171.542 148.352C171.288 148.432 170.875 148.352 170.304 148.13C169.542 147.909 167.971 146.879 165.622 145.041C165.034 144.566 164.415 143.441 163.765 141.682C163.114 139.908 162.812 138.72 162.844 138.086C162.908 136.629 163.558 133.793 164.812 129.579C167.082 124.239 169.637 119.803 172.478 116.271C175.303 112.738 178.256 109.822 181.303 107.541C184.827 104.8 188.175 103.248 191.302 102.915C191.429 102.915 191.524 102.899 191.588 102.899C191.778 102.82 191.889 102.757 191.953 102.725C192.508 102.519 193.143 102.757 193.873 103.469C194.604 104.182 195.524 105.608 196.619 107.715C198.095 105.513 199.175 104.357 199.873 104.262C202.682 103.771 204.555 104.689 205.492 106.987ZM192.397 108.428V108.333C191.017 108.523 189.572 109.316 188.064 110.71C182.858 115.415 178.748 120.516 175.716 126.014C172.859 131.115 171.209 135.694 170.764 139.75C170.685 140.764 170.97 141.635 171.637 142.348C171.828 142.284 172.256 142.063 172.939 141.714C175.462 140.399 179.033 136.644 183.668 130.466C186.747 126.236 188.731 123.336 189.604 121.784C190.112 120.564 190.62 119.344 191.144 118.124C192.731 112.896 193.159 109.664 192.397 108.428Z" fill="#0E7C74"/>
<path d="M249.996 122.877C249.774 123.574 247.743 126.188 243.886 130.703C240.029 135.218 237.045 138.371 234.918 140.161C229.76 144.55 226.03 146.784 223.697 146.895C222.697 146.942 221.395 146.34 219.84 145.089C218.602 144.138 217.777 143.362 217.364 142.744C216.808 141.762 216.523 139.512 216.491 135.995C216.539 132.779 217.697 129.277 219.967 125.459C221.078 123.526 223.935 119.392 228.554 113.086C227.617 111.866 226.919 111.058 226.458 110.63C225.855 109.965 224.998 109.125 223.887 108.111C220.157 113.197 217.745 116.445 216.681 117.886C203.714 136.359 197.175 145.596 197.048 145.611C196.731 145.627 195.747 144.851 194.096 143.298C192.779 142.158 192.096 141.001 192.048 139.813C192.033 139.623 193.223 138.086 195.62 135.218C199.556 130.386 205.079 123.622 212.19 114.94C214.761 111.803 217.523 108.254 220.491 104.277C220.3 101.394 220.824 98.7641 222.062 96.3719C223.3 93.9955 225.776 91.2705 229.49 88.2128C231.855 86.2166 233.633 85.0918 234.823 84.8541C235.267 84.7749 235.68 85.0759 236.093 85.7889C236.505 86.486 236.664 87.2464 236.585 88.0702C236.378 90.5259 235.251 93.2192 233.172 96.1342C231.331 98.479 229.474 100.824 227.633 103.168C229.03 104.737 230.157 105.909 231.014 106.686C234.569 109.854 236.394 112.437 236.474 114.433C236.553 116.065 235.331 118.504 232.839 121.752C231.045 124.033 229.236 126.347 227.395 128.691C224.443 133.032 223.014 135.995 223.078 137.547C223.125 138.609 223.744 139.116 224.935 139.068C226.189 139.005 230.379 136.026 237.473 130.117C238.378 129.388 240.473 127.471 243.727 124.382C246.139 122.085 247.536 120.912 247.917 120.897C248.488 120.865 248.996 121.087 249.457 121.53C249.917 121.99 250.092 122.433 249.996 122.877Z" fill="#0E7C74"/>
<path d="M282.041 103.454C282.47 104.626 281.026 108.207 277.708 114.211C272.883 123.162 270.185 128.248 269.614 129.468C268.519 131.844 267.979 134.474 267.995 137.357C267.915 141.191 267.249 143.14 265.995 143.203C263.662 143.314 262.313 140.827 261.964 135.741C256.694 141.746 252.345 144.756 248.949 144.788C248.631 144.804 248.346 144.819 248.092 144.819C247.838 144.899 247.425 144.819 246.854 144.598C246.092 144.376 244.52 143.346 242.171 141.508C241.584 141.033 240.965 139.908 240.314 138.15C239.664 136.375 239.362 135.187 239.394 134.553C239.457 133.096 240.108 130.26 241.362 126.046C243.632 120.707 246.187 116.271 249.028 112.738C251.853 109.205 254.805 106.29 257.853 104.008C261.376 101.267 264.725 99.7147 267.852 99.382C267.979 99.382 268.074 99.3662 268.138 99.3662C268.328 99.287 268.439 99.2236 268.503 99.1919C269.058 98.986 269.693 99.2236 270.423 99.9365C271.153 100.649 272.074 102.075 273.169 104.182C274.645 101.98 275.724 100.824 276.423 100.729C279.248 100.253 281.121 101.172 282.041 103.454ZM268.963 104.911V104.816C267.582 105.006 266.138 105.798 264.63 107.193C259.424 111.898 255.313 116.999 252.282 122.497C249.425 127.598 247.774 132.177 247.33 136.233C247.25 137.246 247.536 138.118 248.203 138.831C248.393 138.767 248.822 138.546 249.504 138.197C252.028 136.882 255.599 133.127 260.233 126.949C263.313 122.719 265.297 119.819 266.17 118.267C266.677 117.047 267.185 115.827 267.709 114.607C269.28 109.379 269.709 106.147 268.963 104.911Z" fill="#0E7C74"/>
<path d="M342.64 47.7821C342.83 47.9563 342.941 48.3365 342.973 48.891C343.052 50.4436 342.719 52.3765 342.005 54.6578C341.243 57.1293 340.418 58.3968 339.529 58.4284C337.069 58.3334 331.355 58.3017 322.403 58.3017C315.737 68.3144 309.976 77.9943 305.119 87.3575C300.722 95.7542 296.31 104.119 291.914 112.453C285.914 124.319 282.978 131.702 283.105 134.601C283.152 135.805 283.946 136.359 285.454 136.296C288.977 136.138 295.12 133.048 303.913 127.028C304.643 126.553 305.389 126.299 306.151 126.267C307.278 126.22 307.865 126.632 307.912 127.519C307.944 128.343 307.357 129.246 306.151 130.244C296.136 138.657 288.469 142.982 283.184 143.235C282.232 143.283 281.407 143.156 280.708 142.871C279.819 142.601 278.946 141.445 278.089 139.401C277.375 137.611 276.994 136.027 276.931 134.648C276.597 127.487 283.152 111.058 296.612 85.3454C301.468 75.9348 306.373 67.0945 311.277 58.8245L310.515 58.8562C279.676 60.2662 259.503 61.5653 249.965 62.7377C249.473 62.8327 248.679 62.1357 247.6 60.6781C246.52 59.2206 245.997 57.8739 245.997 56.6065C245.997 55.3549 253.885 53.8974 269.63 52.2339C282.359 50.8397 294.707 49.7941 306.659 49.1287C309.674 48.9861 313.356 48.796 317.705 48.5267C318.658 47.18 319.308 46.3404 319.673 46.0235C320.403 45.4848 321.784 45.3264 323.816 45.5482C324.705 45.6274 325.689 46.4354 326.768 47.9405C336.878 47.2909 342.18 47.2434 342.64 47.7821Z" fill="#0E7C74"/>
<path d="M321.023 102.345C321.515 103.58 320.166 107.208 316.976 113.213C311.976 122.639 309.294 127.741 308.944 128.517C307.849 130.894 307.31 133.539 307.31 136.439C307.294 140.225 306.548 142.142 305.04 142.205C302.612 142.316 301.262 139.671 301.009 134.268C300.897 131.686 301.231 128.961 302.056 126.093C303.516 120.992 305.802 115.336 308.881 109.141C311.976 102.947 314.166 99.7624 315.484 99.5723C318.325 99.1287 320.166 100.048 321.023 102.345ZM332.593 82.4461C331.959 83.7294 330.768 85.1711 329.006 86.7712C327.07 88.4347 325.53 89.2902 324.404 89.3378C322.515 89.417 321.483 87.706 321.324 84.1889C321.182 81.1153 321.864 78.6597 323.356 76.8219C325.451 74.398 327.911 73.1147 330.752 72.988C331.26 72.9721 331.673 73.0038 331.99 73.1147C332.895 73.4474 333.419 74.7148 333.577 76.917C333.673 79.0558 333.339 80.8935 332.593 82.4461Z" fill="#0E7C74"/>
<path d="M360.114 116.888C354.861 121.863 349.607 124.271 344.37 124.145C343.846 124.984 343.274 125.84 342.687 126.679C339.275 131.939 335.497 136.153 331.355 139.306C328.371 141.524 326.212 142.665 324.895 142.728C323.387 142.792 322.371 142.586 321.848 142.11C320.752 141.651 319.229 140.684 317.261 139.211C316.61 138.736 315.927 137.627 315.213 135.868C314.499 134.11 314.166 132.874 314.197 132.193C314.261 129.61 315.086 126.331 316.673 122.354C318.816 116.904 321.308 112.326 324.133 108.603C326.958 104.88 329.895 101.79 332.926 99.3188C336.45 96.4512 339.846 94.7877 343.1 94.3124C343.481 94.2332 343.83 94.2649 344.147 94.4233C344.211 94.3758 344.306 94.3124 344.417 94.2491C344.909 93.9798 345.576 94.2332 346.433 95.0095C348.671 97.0533 349.972 99.3822 350.353 102.012C351.067 106.575 350.083 111.977 347.417 118.219C349.814 118.362 352.179 117.712 354.512 116.286C355.908 115.273 357.289 114.243 358.622 113.165C359.606 112.548 360.384 112.231 360.94 112.215C361.638 112.183 361.987 112.548 362.035 113.292C362.082 114.369 361.432 115.558 360.114 116.888ZM338.386 121.467C336.719 119.408 335.926 116.223 335.973 111.946C336.069 109.68 336.592 107.034 337.576 104.04C333.005 108.84 329.466 113.641 326.99 118.409C323.752 124.731 321.959 129.816 321.641 133.666C321.578 134.933 321.959 135.884 322.816 136.534C323.133 136.708 324.197 136.502 326.006 135.916C328.593 134.474 332.386 130.149 337.418 122.925L338.386 121.467ZM345.052 100.19L344.957 100.095C344.83 99.9842 344.719 99.8891 344.655 99.8258C344.528 99.8258 344.401 99.8416 344.274 99.8416C344.147 99.8416 344.02 99.8574 343.893 99.8574C343.766 99.8574 343.671 99.905 343.608 99.9683C342.449 101.093 341.751 103.961 341.529 108.555C341.354 111.518 341.64 113.815 342.417 115.415C343.719 113.213 344.592 111.011 345.068 108.777C346.004 104.468 346.004 101.6 345.052 100.19Z" fill="#0E7C74"/>
<path d="M401.778 119.407C395.239 128.105 391.001 133.349 389.065 135.139C386.16 137.928 382.764 139.401 378.859 139.591C377.907 139.639 376.828 138.641 375.606 136.613C374.177 134.284 373.399 131.733 373.272 128.961C373.161 126.695 375.082 120.992 379.002 111.835C378.034 112.753 377.129 113.625 376.288 114.417C375.193 115.415 369.987 120.596 360.638 129.959C354.782 135.773 351.449 138.688 350.639 138.72C350.385 138.736 350.227 138.514 350.131 138.086H350.036C349.528 138.102 348.973 137.31 348.369 135.662C347.766 134.014 347.528 132.763 347.671 131.876C348.052 129.277 350.671 123.146 355.528 113.482C358.02 108.587 359.908 103.866 361.21 99.3345C361.861 97.0373 362.622 95.8966 363.511 95.9283C364.892 95.9283 366.257 96.6571 367.59 98.0988C368.923 99.5563 369.606 100.713 369.638 101.6C369.638 101.727 368.59 104.167 366.479 108.919C365.622 110.852 362.892 116.017 358.305 124.398C362.194 121.261 368.543 115.177 377.336 106.147C378.907 104.563 381.716 101.442 385.795 96.7838C388.081 94.2331 389.557 92.934 390.255 92.9023C391.446 92.8548 392.684 93.6786 393.969 95.3897C395.191 96.0234 395.779 97.6393 395.715 100.238C395.731 100.745 394.556 102.471 392.176 105.434C390.811 107.145 388.573 110.884 385.509 116.651C383.018 121.324 381.542 125.047 381.113 127.852C380.716 130.085 380.875 131.495 381.589 132.098C381.859 132.335 382.176 132.446 382.557 132.43C385.763 132.288 391.223 126.79 398.921 115.938C399.699 114.892 400.461 114.338 401.207 114.306C402.27 114.258 402.842 114.924 402.905 116.318C402.921 117.348 402.556 118.378 401.778 119.407Z" fill="#0E7C74"/>
<path d="M105.833 46.9423C105.976 50.0158 105.706 53.0101 105.024 55.941C103.23 63.6407 100.246 70.5323 96.0401 76.6318C90.0089 85.2186 81.581 92.5855 70.7564 98.7325C59.6938 105.022 48.9803 108.413 38.6002 108.888C38.2828 108.904 37.3463 108.951 35.775 109.015C30.3628 120.358 23.6173 135.171 15.5068 153.438C13.8402 157.05 11.5706 162.595 8.71366 170.105C7.71374 173.178 6.57097 174.746 5.23775 174.794C3.47598 174.873 2.44431 171.578 2.12688 164.908C1.92055 160.377 10.0469 141.873 26.5218 109.426L24.0617 109.537C21.2365 109.727 19.7604 108.603 19.6493 106.179C19.6176 105.371 20.0144 104.135 20.8556 102.456C21.6968 100.792 22.4586 99.9366 23.157 99.9049C24.0934 99.8574 25.4743 99.9208 27.2836 100.095C29.093 100.269 30.3945 100.364 31.2198 100.396C38.9018 85.2503 50.6628 62.4841 66.471 32.1134C65.9631 32.2085 64.4712 32.6838 61.9952 33.5393C59.8843 34.2047 58.5193 34.5532 57.8844 34.5849C55.5513 34.6958 54.3133 33.1432 54.1704 29.9429C54.0593 27.4398 54.8053 25.8238 56.4083 25.1267C57.1543 24.8415 59.0589 24.6356 62.1539 24.493C64.6775 24.3821 67.4392 24.2237 70.4548 24.0177C70.6136 23.5107 70.6929 22.8453 70.6453 22.0215C70.6294 21.5145 70.9627 20.9442 71.6452 20.2788C72.3436 19.6134 72.9626 19.2807 73.534 19.249L74.2006 19.5025C75.5814 20.6432 76.7083 22.069 77.613 23.7801C85.3902 24.3029 91.7548 26.3149 96.7068 29.7845C102.468 33.9512 105.5 39.6546 105.833 46.9423ZM96.5163 48.083C96.0243 37.4049 88.9613 31.7807 75.3434 31.2104C64.1696 51.8061 52.4245 74.6831 40.0763 99.8574C53.5673 98.4791 65.233 94.2332 75.0577 87.1039C85.7235 79.3092 92.5484 69.154 95.5005 56.6223C96.2941 53.4379 96.6274 50.602 96.5163 48.083Z" fill="#70E4DE"/>
<path d="M106.373 125.475C106.151 126.172 104.119 128.786 100.262 133.302C96.4053 137.817 93.4214 140.97 91.2946 142.76C86.1363 147.148 82.4064 149.382 80.0733 149.493C79.0734 149.541 77.7719 148.939 76.2164 147.687C74.9784 146.736 74.1531 145.96 73.7404 145.342C73.1849 144.36 72.8992 142.11 72.8675 138.593C72.9151 135.377 74.0737 131.876 76.3434 128.058C77.4544 126.125 80.3113 122.006 84.93 115.684C83.9936 114.465 83.2952 113.657 82.835 113.229C82.2318 112.563 81.3748 111.724 80.2637 110.71C76.518 115.795 74.1214 119.059 73.0579 120.485C60.0907 138.958 53.5515 148.194 53.4246 148.21C53.1071 148.226 52.139 147.449 50.4724 145.897C49.1551 144.756 48.4726 143.6 48.425 142.411C48.4091 142.221 49.5995 140.684 51.9961 137.817C55.9323 132.985 61.4557 126.22 68.5662 117.538C71.1375 114.401 73.8992 110.852 76.8672 106.876C76.6767 103.992 77.2005 101.363 78.4385 98.9702C79.6765 96.5938 82.1525 93.8688 85.8665 90.7953C88.2314 88.7991 90.009 87.6743 91.1994 87.4367C91.6438 87.3574 92.0565 87.6585 92.4691 88.3714C92.8818 89.0685 93.0405 89.8448 92.9612 90.6528C92.7548 93.1084 91.6279 95.8017 89.5487 98.7168C87.7076 101.061 85.8506 103.406 84.0095 105.751C85.4062 107.319 86.5331 108.492 87.3902 109.268C90.9454 112.437 92.7707 115.019 92.85 117.015C92.9294 118.647 91.7073 121.087 89.2154 124.335C87.4219 126.616 85.6125 128.929 83.7714 131.274C80.8192 135.615 79.3908 138.577 79.4543 140.13C79.5019 141.191 80.1209 141.698 81.3113 141.651C82.5651 141.587 86.7553 138.609 93.85 132.7C94.7547 131.971 96.8497 130.054 100.103 126.965C102.516 124.667 103.913 123.495 104.294 123.479C104.865 123.447 105.373 123.669 105.833 124.113C106.293 124.588 106.468 125.032 106.373 125.475Z" fill="#70E4DE"/>
<path d="M131.91 133.444C128.625 136.232 124.038 139.116 118.118 142.078C111.531 145.516 106.436 147.322 102.849 147.481C101.786 147.528 100.913 147.433 100.23 147.18C99.5636 146.926 98.8811 146.166 98.1828 144.867C97.8495 144.629 97.5003 144.328 97.1035 143.98C96.5162 143.568 95.8814 142.475 95.1989 140.716C94.5164 138.957 94.2307 137.738 94.3259 137.04C94.3259 135.662 94.9767 132.826 96.294 128.565C98.5161 123.321 101.056 118.916 103.912 115.352C106.769 111.803 109.706 108.888 112.69 106.606C116.292 103.929 119.657 102.392 122.784 101.996C123.101 101.98 123.387 101.965 123.641 101.965C123.705 101.965 123.768 101.965 123.832 101.949C124.324 101.679 124.958 101.901 125.752 102.614C127.863 104.737 129.085 107.098 129.387 109.68C129.768 112.643 129.387 116.017 128.244 119.819C128.133 120.136 128.022 120.406 127.895 120.596C127.434 121.625 126.514 123.067 125.117 124.905C123.72 126.743 120.133 127.804 114.34 128.058C111.071 128.2 108.309 127.883 106.071 127.059C103.182 132.858 101.929 137.009 102.294 139.48C103.198 140.13 104.103 140.431 104.992 140.383C107.69 140.257 112.325 138.72 118.864 135.741C124.181 133.381 127.784 131.575 129.688 130.307C130.418 129.784 131.164 129.499 131.91 129.452C133.037 129.404 133.624 129.816 133.672 130.688C133.72 131.559 133.132 132.462 131.91 133.444ZM124.212 107.858C124.133 107.668 123.974 107.557 123.72 107.494C122.403 107.684 120.991 108.476 119.483 109.87C115.912 113.134 112.642 116.888 109.69 121.134C111.467 121.435 113.769 121.388 116.594 121.008C118.721 120.722 119.816 120.58 119.879 120.564C121.07 120.263 122.006 119.582 122.721 118.536C124.72 112.959 125.212 109.395 124.212 107.858Z" fill="#70E4DE"/>
<path d="M168.511 111.027C168.241 113.498 167.257 116.556 165.527 120.231C163.051 125.317 160.289 129.547 157.274 132.921C154.258 136.296 151.179 139.068 148.052 141.223C144.322 143.79 140.862 145.231 137.656 145.564C137.275 145.58 136.926 145.469 136.609 145.231C136.545 145.295 136.418 145.358 136.243 145.437C135.751 145.643 135.101 145.39 134.323 144.677C132.149 142.57 130.926 140.241 130.688 137.674C129.133 140.716 127.546 143.869 125.927 147.164C115.261 168.774 108.293 183.84 105.024 192.364C104.182 194.677 103.167 195.849 101.976 195.912C100.913 195.96 99.8177 195.073 98.7225 193.219C97.7702 191.619 97.2941 190.257 97.31 189.132C97.31 187.627 104.405 172.734 118.61 144.487C131.022 119.788 139.561 105.022 144.195 100.206C144.735 99.6831 145.576 99.3821 146.703 99.3346C149.719 99.192 151.099 99.8257 150.861 101.236C150.814 101.553 149.909 103.184 148.147 106.099C152.893 102.361 156.305 100.507 158.385 100.539C159.892 100.539 160.892 100.776 161.353 101.252C162.448 101.774 163.94 102.772 165.844 104.262C166.432 104.737 167.051 105.83 167.701 107.525C168.336 109.221 168.606 110.393 168.511 111.027ZM161.146 109.173C161.289 108.032 160.956 107.145 160.178 106.48C159.845 106.242 158.781 106.385 156.988 106.907C154.337 108.096 150.29 111.993 144.846 118.599C140.005 124.493 137.18 128.834 136.37 131.638C135.228 135.726 135.101 138.435 135.989 139.781C136.132 140.035 136.386 140.177 136.767 140.225C136.831 140.225 136.926 140.193 137.053 140.114C138.307 139.94 138.894 139.781 138.831 139.655C138.831 139.718 138.862 139.75 138.926 139.75C139.862 139.449 140.878 138.878 141.973 138.007C147.385 133.539 151.734 128.691 155.02 123.432C158.575 117.601 160.623 112.849 161.146 109.173Z" fill="#70E4DE"/>
<path d="M207.603 102.883C208.031 104.056 206.587 107.636 203.27 113.641C198.445 122.592 195.747 127.677 195.175 128.897C194.08 131.274 193.54 133.904 193.556 136.787C193.477 140.621 192.81 142.57 191.557 142.633C189.223 142.744 187.874 140.257 187.525 135.171C182.256 141.175 177.907 144.186 174.51 144.217C174.193 144.233 173.907 144.249 173.653 144.249C173.399 144.328 172.987 144.249 172.415 144.027C171.653 143.805 170.082 142.776 167.733 140.938C167.146 140.463 166.527 139.338 165.876 137.579C165.225 135.805 164.924 134.617 164.955 133.983C165.019 132.525 165.67 129.689 166.923 125.475C169.193 120.136 171.749 115.7 174.59 112.167C177.415 108.634 180.367 105.719 183.414 103.438C186.938 100.697 190.287 99.1444 193.414 98.8117C193.54 98.8117 193.636 98.7959 193.699 98.7959C193.89 98.7167 194.001 98.6533 194.064 98.6216C194.62 98.4157 195.255 98.6533 195.985 99.3662C196.715 100.079 197.635 101.505 198.731 103.612C200.207 101.41 201.286 100.253 201.984 100.158C204.809 99.6831 206.682 100.602 207.603 102.883ZM194.525 104.341V104.246C193.144 104.436 191.699 105.228 190.192 106.622C184.986 111.328 180.875 116.429 177.843 121.926C174.986 127.028 173.336 131.606 172.891 135.662C172.812 136.676 173.098 137.547 173.764 138.26C173.955 138.197 174.383 137.975 175.066 137.627C177.589 136.312 181.16 132.557 185.795 126.378C188.874 122.148 190.858 119.249 191.731 117.696C192.239 116.477 192.747 115.257 193.271 114.037C194.858 108.793 195.271 105.561 194.525 104.341Z" fill="#70E4DE"/>
<path d="M252.107 118.774C251.885 119.471 249.853 122.085 245.997 126.6C242.14 131.115 239.156 134.268 237.029 136.058C231.871 140.447 228.141 142.681 225.808 142.791C224.808 142.839 223.506 142.237 221.951 140.985C220.713 140.035 219.887 139.258 219.475 138.641C218.919 137.658 218.634 135.409 218.602 131.892C218.649 128.675 219.808 125.174 222.078 121.356C223.189 119.423 226.046 115.304 230.664 108.983C229.728 107.763 229.03 106.955 228.569 106.527C227.966 105.862 227.109 105.022 225.998 104.008C222.268 109.094 219.856 112.341 218.792 113.783C205.825 132.256 199.286 141.492 199.159 141.508C198.842 141.524 197.873 140.748 196.207 139.195C194.889 138.054 194.207 136.898 194.159 135.71C194.143 135.52 195.334 133.983 197.73 131.115C201.667 126.283 207.19 119.518 214.301 110.836C216.872 107.7 219.634 104.151 222.602 100.174C222.411 97.2908 222.935 94.6609 224.173 92.2686C225.411 89.8922 227.887 87.1672 231.601 84.0937C233.966 82.0975 235.743 80.9726 236.934 80.735C237.378 80.6558 237.791 80.9568 238.203 81.6697C238.616 82.3668 238.775 83.1431 238.695 83.9511C238.489 86.4067 237.362 89.1 235.283 92.0151C233.442 94.3598 231.585 96.7046 229.744 99.0493C231.141 100.618 232.267 101.79 233.125 102.566C236.68 105.735 238.505 108.317 238.584 110.314C238.664 111.945 237.442 114.385 234.95 117.633C233.156 119.914 231.347 122.227 229.506 124.572C226.554 128.913 225.125 131.876 225.189 133.428C225.236 134.49 225.855 134.997 227.046 134.949C228.299 134.886 232.49 131.907 239.584 125.998C240.489 125.269 242.584 123.352 245.838 120.263C248.25 117.966 249.647 116.793 250.028 116.777C250.599 116.746 251.107 116.968 251.567 117.411C252.044 117.886 252.218 118.33 252.107 118.774Z" fill="#70E4DE"/>
<path d="M284.153 99.3663C284.581 100.539 283.137 104.119 279.82 110.124C274.995 119.075 272.296 124.16 271.725 125.38C270.63 127.757 270.09 130.387 270.106 133.27C270.027 137.104 269.36 139.053 268.106 139.116C265.773 139.227 264.424 136.74 264.075 131.654C258.805 137.658 254.457 140.669 251.06 140.7C250.743 140.716 250.457 140.732 250.203 140.732C249.949 140.811 249.536 140.732 248.965 140.51C248.203 140.288 246.632 139.259 244.283 137.421C243.695 136.945 243.077 135.821 242.426 134.062C241.775 132.288 241.473 131.099 241.505 130.466C241.569 129.008 242.219 126.172 243.473 121.958C245.743 116.619 248.298 112.183 251.139 108.65C253.965 105.117 256.917 102.202 259.964 99.9208C263.488 97.1799 266.836 95.6273 269.963 95.2946C270.09 95.2946 270.185 95.2788 270.249 95.2788C270.439 95.1996 270.55 95.1362 270.614 95.1045C271.169 94.8986 271.804 95.1362 272.534 95.8491C273.265 96.5621 274.185 97.9879 275.28 100.095C276.756 97.8929 277.836 96.7363 278.534 96.6413C281.359 96.166 283.232 97.0849 284.153 99.3663ZM271.074 100.824V100.729C269.693 100.919 268.249 101.711 266.741 103.105C261.535 107.81 257.425 112.912 254.393 118.409C251.536 123.511 249.885 128.089 249.441 132.145C249.362 133.159 249.647 134.03 250.314 134.743C250.504 134.68 250.933 134.458 251.615 134.11C254.139 132.795 257.71 129.04 262.345 122.861C265.424 118.631 267.408 115.732 268.281 114.179C268.789 112.959 269.297 111.74 269.82 110.52C271.408 105.276 271.82 102.044 271.074 100.824Z" fill="#70E4DE"/>
<path d="M344.767 43.6788C344.957 43.853 345.068 44.2333 345.1 44.7878C345.179 46.3404 344.846 48.2732 344.132 50.5546C343.37 53.026 342.545 54.2935 341.656 54.3252C339.196 54.2301 333.482 54.1984 324.53 54.1984C317.864 64.2111 312.103 73.891 307.246 83.2542C302.849 91.6509 298.437 100.016 294.041 108.349C288.041 120.215 285.105 127.598 285.232 130.497C285.279 131.702 286.073 132.256 287.581 132.193C291.104 132.034 297.247 128.945 306.04 122.925C306.77 122.449 307.516 122.196 308.278 122.164C309.404 122.117 309.992 122.529 310.039 123.416C310.071 124.24 309.484 125.143 308.278 126.141C298.262 134.553 290.596 138.878 285.311 139.132C284.359 139.179 283.533 139.053 282.835 138.767C281.946 138.498 281.073 137.342 280.216 135.298C279.502 133.508 279.121 131.923 279.058 130.545C278.724 123.384 285.279 106.955 298.739 81.2421C303.595 71.8315 308.5 62.9912 313.404 54.7212L312.642 54.7529C281.803 56.1629 261.63 57.462 252.091 58.6344C251.599 58.7295 250.806 58.0324 249.727 56.5748C248.647 55.1173 248.124 53.7707 248.124 52.5032C248.124 51.2516 256.012 49.7941 271.757 48.1306C284.486 46.7364 296.834 45.6908 308.785 45.0254C311.801 44.8828 315.483 44.6927 319.832 44.4234C320.784 43.0767 321.435 42.2371 321.8 41.9202C322.53 41.3816 323.911 41.2231 325.943 41.4449C326.832 41.5242 327.816 42.3321 328.895 43.8372C339.005 43.2035 344.306 43.1401 344.767 43.6788Z" fill="#70E4DE"/>
<path d="M323.15 98.2415C323.642 99.4772 322.292 103.105 319.102 109.11C314.103 118.536 311.42 123.638 311.087 124.414C309.992 126.79 309.452 129.436 309.452 132.335C309.436 136.122 308.69 138.039 307.183 138.102C304.754 138.213 303.405 135.567 303.151 130.165C303.04 127.582 303.373 124.857 304.199 121.99C305.659 116.888 307.944 111.233 311.024 105.038C314.119 98.8435 316.309 95.6591 317.626 95.469C320.451 95.0254 322.277 95.9601 323.15 98.2415ZM334.72 78.3429C334.085 79.6261 332.895 81.0678 331.133 82.668C329.197 84.3315 327.657 85.187 326.53 85.2345C324.642 85.3137 323.61 83.6027 323.451 80.0856C323.308 77.0121 323.991 74.5564 325.483 72.7187C327.578 70.2947 330.038 69.0114 332.879 68.8847C333.387 68.8688 333.8 68.9005 334.117 69.0114C335.022 69.3441 335.545 70.6116 335.704 72.8137C335.784 74.9525 335.466 76.8061 334.72 78.3429Z" fill="#70E4DE"/>
<path d="M362.242 112.785C356.988 117.76 351.734 120.168 346.497 120.041C345.973 120.881 345.402 121.736 344.814 122.576C341.402 127.836 337.624 132.05 333.482 135.203C330.498 137.421 328.339 138.561 327.022 138.625C325.514 138.688 324.498 138.482 323.975 138.007C322.879 137.547 321.356 136.581 319.388 135.108C318.737 134.632 318.054 133.523 317.34 131.765C316.626 130.006 316.293 128.77 316.324 128.089C316.388 125.507 317.213 122.227 318.8 118.251C320.943 112.801 323.435 108.222 326.26 104.499C329.085 100.776 332.022 97.6868 335.053 95.2153C338.577 92.3477 341.973 90.6842 345.227 90.2089C345.608 90.1297 345.957 90.1614 346.274 90.3198C346.338 90.2723 346.433 90.2089 346.544 90.1456C347.036 89.8762 347.703 90.1297 348.56 90.906C350.798 92.9497 352.099 95.2786 352.48 97.9086C353.195 102.471 352.211 107.874 349.544 114.116C351.941 114.258 354.306 113.609 356.639 112.183C358.035 111.169 359.416 110.139 360.75 109.062C361.734 108.46 362.511 108.127 363.067 108.111C363.765 108.08 364.13 108.444 364.162 109.189C364.194 110.266 363.559 111.47 362.242 112.785ZM340.497 117.364C338.831 115.304 338.037 112.12 338.085 107.842C338.18 105.576 338.704 102.931 339.688 99.9364C335.117 104.737 331.593 109.537 329.101 114.306C325.863 120.627 324.07 125.713 323.752 129.563C323.689 130.83 324.07 131.781 324.927 132.43C325.244 132.604 326.308 132.398 328.117 131.812C330.704 130.371 334.498 126.045 339.529 118.821L340.497 117.364ZM347.179 96.1025L347.084 96.0074C346.957 95.8965 346.846 95.8015 346.782 95.7381C346.655 95.7381 346.528 95.7539 346.401 95.7539C346.274 95.7539 346.147 95.7698 346.021 95.7698C345.894 95.7698 345.798 95.8173 345.735 95.8807C344.576 97.0055 343.878 99.8731 343.656 104.467C343.481 107.43 343.767 109.727 344.544 111.327C345.846 109.125 346.735 106.923 347.195 104.689C348.131 100.364 348.131 97.4966 347.179 96.1025Z" fill="#70E4DE"/>
<path d="M403.905 115.32C397.366 124.018 393.128 129.262 391.192 131.052C388.287 133.84 384.891 135.314 380.986 135.504C380.034 135.551 378.954 134.553 377.732 132.525C376.304 130.196 375.526 127.646 375.399 124.873C375.288 122.608 377.209 116.904 381.129 107.747C380.161 108.666 379.256 109.537 378.415 110.33C377.32 111.328 372.114 116.508 362.765 125.871C356.909 131.686 353.576 134.601 352.766 134.632C352.512 134.648 352.353 134.426 352.258 133.999H352.163C351.655 134.015 351.1 133.222 350.496 131.575C349.893 129.943 349.655 128.676 349.798 127.772C350.179 125.174 352.798 119.043 357.655 109.379C360.146 104.483 362.035 99.7623 363.337 95.2313C363.987 92.934 364.749 91.7934 365.638 91.825C367.019 91.825 368.384 92.5538 369.717 93.9955C371.05 95.4531 371.733 96.6096 371.765 97.4968C371.765 97.6235 370.717 100.063 368.606 104.816C367.749 106.749 365.019 111.914 360.432 120.295C364.321 117.158 370.669 111.074 379.462 102.044C381.034 100.459 383.843 97.3384 387.922 92.6806C390.208 90.1299 391.684 88.8307 392.382 88.7991C393.572 88.7515 394.81 89.5754 396.096 91.2864C397.318 91.9201 397.905 93.5361 397.842 96.1343C397.858 96.6413 396.683 98.3681 394.302 101.331C392.938 103.042 390.7 106.781 387.636 112.548C385.144 117.221 383.668 120.944 383.24 123.748C382.843 125.982 383.002 127.392 383.716 127.994C383.986 128.232 384.303 128.343 384.684 128.327C387.89 128.184 393.35 122.687 401.048 111.835C401.826 110.789 402.588 110.234 403.333 110.203C404.397 110.155 404.968 110.821 405.032 112.215C405.032 113.245 404.683 114.274 403.905 115.32Z" fill="#70E4DE"/>
</g>
<defs>
<clipPath id="clip0">
<rect width="405" height="200" fill="white"/>
</clipPath>
</defs>
</svg>
