<svg width="240" height="108" viewBox="0 0 240 108" fill="none" xmlns="http://www.w3.org/2000/svg">
<g clip-path="url(#clip0)">
<path d="M43.2523 35.1132C43.2601 35.1637 43.2466 35.2435 43.2623 35.3446C43.1347 35.8561 42.9626 36.5816 42.7248 37.5502C41.2469 44.5344 39.7333 52.4559 38.1587 61.3185C37.055 67.5459 35.8816 75.4923 34.656 85.1031C34.4691 86.4002 34.2792 88.3449 34.0397 90.9701C33.9657 92.3274 33.6634 93.0472 33.1328 93.1296C32.7538 93.1884 32.2633 92.6951 31.6612 91.6497C31.104 90.7268 30.8134 90.0214 30.735 89.5159C30.3664 87.1403 30.8886 82.1678 32.2724 74.577C30.9643 74.6506 29.0362 74.898 26.4338 75.3018C23.3261 75.7839 21.3592 76.115 20.5507 76.2404C18.9281 79.6238 16.9936 83.832 14.7646 88.8105C14.1056 90.2327 13.1695 92.3707 11.9389 95.2792C11.4623 96.5436 10.9209 97.2229 10.365 97.3091C9.8597 97.3875 9.51467 96.6647 9.28332 95.1736C9.17745 94.4912 9.12037 93.9566 9.11601 93.5949C9.12163 91.9635 11.4957 86.419 16.2672 76.9827C14.4559 77.3155 12.9225 77.6052 11.671 77.877C9.79566 78.2974 9.07079 78.4616 9.55084 78.3871C9.22238 78.4381 8.8974 78.1779 8.52929 77.6398C8.22347 77.1696 8.05967 76.7809 8.03004 76.4232L8.00651 76.2716C7.92198 75.56 11.3264 74.4883 18.241 73.0272C20.0966 69.4783 22.1113 65.6201 24.3355 61.4446C25.3187 59.6098 30.1913 50.1578 39.0079 33.106C39.1321 32.9056 39.2972 32.8023 39.4993 32.7709C39.8025 32.7239 40.1214 32.7779 40.5104 32.9505C40.8349 32.8743 41.366 33.1283 42.1074 33.738C42.8197 34.3262 43.2013 34.7846 43.2523 35.1132ZM38.982 39.9426C35.1987 47.0774 29.6727 57.8214 22.3785 72.1782C27.0331 71.3266 30.5704 70.7778 33.0116 70.5026C33.4441 68.2873 35.4368 58.1175 38.982 39.9426Z" fill="#FC6170"/>
<path d="M87.7195 30.2067C87.845 31.0154 87.8812 31.9156 87.8281 32.9073C87.7845 33.794 87.6325 34.9823 87.3389 36.4254C87.007 38.2885 86.6294 39.3565 86.206 39.6292C85.9476 39.7987 85.6523 39.8963 85.2986 39.9512C84.4395 40.0845 83.9747 39.9237 83.9002 39.4435C83.8335 39.0138 83.9524 37.779 84.2569 35.7389C84.5574 33.6736 84.6332 32.1607 84.4724 31.1246C84.2293 29.5577 83.4974 28.843 82.2594 29.0351C79.3538 29.486 75.8989 32.0666 71.9414 36.7439C69.0359 40.1969 66.5194 43.8225 64.425 47.6672C61.8593 52.3098 59.6852 57.6421 57.9202 63.6098C55.8359 70.6881 55.1046 76.3142 55.7555 80.5094C56.328 84.1992 58 85.8032 60.754 85.3759C64.1144 84.8545 66.9045 82.3253 69.1243 77.7882C69.3704 77.2065 69.7542 76.3446 70.2678 75.1521C70.3762 74.8505 70.5335 74.6967 70.7356 74.6654C71.3673 74.5674 71.8016 75.1988 72.0173 76.5887C72.0761 76.9678 72.0726 77.2789 71.9894 77.5765C71.1783 80.187 69.7099 82.5629 67.5628 84.7336C65.2836 87.0542 62.906 88.4065 60.3794 88.7986C56.0842 89.465 53.4543 86.6897 52.4936 80.4979C51.678 75.2412 52.3618 68.9755 54.5741 61.722C56.3857 55.7213 58.9013 49.9218 62.1714 44.3159C66.5702 36.6456 71.7513 31.1831 77.711 27.9033C79.5467 26.8938 81.1847 26.2773 82.5743 26.0617C85.5051 25.607 87.2215 26.9971 87.7195 30.2067Z" fill="#FC6170"/>
<path d="M91.7158 38.9555C90.6878 40.6678 87.9683 46.6542 83.4951 56.8465C81.9196 60.5331 79.9921 65.6202 77.6952 72.1621C79.029 70.9199 81.3717 68.1753 84.7194 63.9032C85.2317 63.2026 86.2096 61.8344 87.6611 59.8493C88.4469 58.7439 88.9788 58.1697 89.2062 58.1344C89.6862 58.0599 90.2173 58.314 90.8032 58.9218C91.305 59.1545 91.5799 59.7589 91.6571 60.7563C91.6884 60.9585 91.2851 61.694 90.4722 62.9589C90.0144 63.6769 89.2778 65.2664 88.3343 67.6903C87.5689 69.5949 87.1569 71.1081 87.0728 72.234C87.004 73.1247 87.1408 73.6728 87.4327 73.8863C87.5455 73.9465 87.6758 73.9522 87.8274 73.9286C88.8127 73.7757 90.5203 71.4403 92.9541 66.9477C93.3788 66.183 93.7534 65.7625 94.1324 65.7037C94.5872 65.6331 94.8324 65.8798 94.9226 66.4611C94.9383 66.5621 94.9248 66.6419 94.886 66.7255C93.4599 70.2078 92.1627 72.6866 90.9983 74.1872C89.7485 75.8045 88.3384 76.7221 86.7214 76.973C86.3424 77.0318 85.8754 76.6902 85.2699 75.9559C84.5981 75.1285 84.1886 74.1568 84.0161 73.0448C83.8788 72.1602 84.3967 69.8282 85.5951 66.0449C85.2457 66.4614 84.9138 66.8235 84.6071 67.1816C84.215 67.6565 82.3907 69.9066 79.1166 73.9861C77.0536 76.532 75.8831 77.8265 75.5799 77.8735C75.5546 77.8774 75.5255 77.8561 75.5002 77.86C75.3447 77.8582 75.1364 77.6835 74.8289 77.3689C74.5466 77.0503 74.3811 76.8172 74.3575 76.6656C73.9706 73.6717 75.8454 66.9106 80.0032 56.3531C84.4554 45.0252 87.2912 38.7879 88.4599 37.649C88.7318 37.3998 89.2584 37.2922 90.0613 37.297C90.2421 37.2948 90.5553 37.4792 91.0223 37.8208C91.5224 38.2091 91.7367 38.5899 91.7158 38.9555Z" fill="#FC6170"/>
<path d="M106.161 68.1854C104.983 69.4293 103.303 70.777 101.093 72.2069C98.6321 73.8569 96.7049 74.777 95.3153 74.9926C94.8858 75.0593 94.5495 75.0597 94.2772 74.9725C94.005 74.8854 93.7052 74.6213 93.3742 74.1551C93.2321 74.0736 93.0862 73.9668 92.9111 73.8387C92.6562 73.6971 92.3622 73.3027 92.025 72.6304C91.6878 71.958 91.5122 71.4935 91.5196 71.2077C91.4626 70.6731 91.5932 69.514 91.9447 67.7772C92.5911 65.6065 93.4149 63.7446 94.3693 62.2249C95.349 60.7012 96.3678 59.4302 97.4473 58.3828C98.7598 57.1698 100.013 56.406 101.239 56.1381C101.365 56.1185 101.466 56.1028 101.567 56.0871C101.593 56.0832 101.618 56.0793 101.643 56.0754C101.83 55.9429 102.098 56.0048 102.423 56.2649C103.34 57.0027 103.918 57.8964 104.151 58.8955C104.432 60.0424 104.434 61.3879 104.131 62.9361C104.1 63.0703 104.065 63.1792 104.026 63.2629C103.887 63.6986 103.59 64.2881 103.119 65.0859C102.648 65.8837 101.284 66.4318 99.0096 66.7846C97.7211 66.9845 96.6324 66.9722 95.7185 66.7517C94.8255 69.1678 94.5206 70.8715 94.7746 71.8414C95.1715 72.0645 95.5195 72.1399 95.8733 72.0851C96.9344 71.9204 98.6965 71.1035 101.138 69.6636C103.131 68.5003 104.469 67.6197 105.157 67.0472C105.429 66.798 105.691 66.6538 105.994 66.6067C106.449 66.5362 106.678 66.6817 106.733 67.0355C106.784 67.3641 106.583 67.7318 106.161 68.1854ZM102.029 58.3965C101.992 58.3246 101.934 58.2819 101.829 58.2723C101.306 58.4052 100.793 58.7694 100.269 59.3942C98.9921 60.8347 97.8726 62.4577 96.8816 64.242C97.5873 64.2878 98.5008 64.1719 99.5968 63.8983C100.419 63.6932 100.844 63.6012 100.87 63.5973C101.334 63.4217 101.674 63.1102 101.893 62.688C102.44 60.3774 102.481 58.9734 102.029 58.3965Z" fill="#FC6170"/>
<path d="M117.986 66.3508C116.807 67.5947 115.127 68.9423 112.917 70.3723C110.456 72.0222 108.529 72.9424 107.14 73.158C106.71 73.2246 106.374 73.2251 106.101 73.1379C105.829 73.0507 105.529 72.7867 105.198 72.3204C105.056 72.2389 104.91 72.1322 104.735 72.0041C104.48 71.8624 104.186 71.4681 103.849 70.7957C103.512 70.1234 103.336 69.6589 103.344 69.3731C103.287 68.8384 103.417 67.6794 103.769 65.9426C104.415 63.7718 105.239 61.91 106.193 60.3902C107.173 58.8665 108.192 57.5956 109.272 56.5481C110.584 55.3351 111.837 54.5714 113.063 54.3034C113.189 54.2838 113.291 54.2682 113.392 54.2525C113.417 54.2486 113.442 54.2446 113.467 54.2407C113.654 54.1083 113.922 54.1702 114.247 54.4303C115.164 55.168 115.742 56.0618 115.975 57.0609C116.256 58.2078 116.258 59.5533 115.955 61.1014C115.924 61.2356 115.889 61.3446 115.85 61.4282C115.711 61.8639 115.414 62.4535 114.943 63.2513C114.472 64.049 113.108 64.5971 110.834 64.9499C109.545 65.1499 108.457 65.1376 107.543 64.9171C106.65 67.3332 106.345 69.0368 106.599 70.0068C106.996 70.2299 107.344 70.3053 107.697 70.2504C108.759 70.0858 110.521 69.2689 112.962 67.8289C114.955 66.6656 116.294 65.7851 116.981 65.2126C117.253 64.9634 117.515 64.8191 117.818 64.7721C118.273 64.7015 118.503 64.8471 118.557 65.2009C118.634 65.5255 118.432 65.8933 117.986 66.3508ZM113.853 56.5619C113.816 56.49 113.758 56.4473 113.653 56.4377C113.13 56.5706 112.618 56.9348 112.094 57.5596C110.816 59.0001 109.697 60.6231 108.706 62.4073C109.411 62.4531 110.325 62.3373 111.421 62.0637C112.243 61.8585 112.669 61.7666 112.694 61.7627C113.158 61.5871 113.498 61.2756 113.717 60.8534C114.29 58.5388 114.33 57.1349 113.853 56.5619Z" fill="#FC6170"/>
<path d="M131.961 62.7071C132.23 63.1053 132.023 63.6034 131.365 64.1972C129.144 66.2241 127.327 67.36 125.862 67.5873C125.584 67.6305 125.331 67.6697 125.079 67.7089C124.199 69.7088 122.799 70.8578 120.828 71.1635C118.579 71.5124 117.136 70.5459 116.522 68.26C115.599 69.6456 114.502 71.0839 113.204 72.5535C112.98 72.6141 112.613 72.4123 112.054 71.9814C111.817 71.7853 111.723 71.5151 111.769 71.1456C111.813 70.5953 113.827 67.5653 117.824 61.976C118.734 60.6702 120.282 58.3077 122.486 54.8342C123.984 52.4796 124.88 51.2535 125.179 51.1812C125.554 51.0971 125.986 51.2113 126.529 51.5412C127.072 51.8711 127.409 52.207 127.59 52.5413C127.722 52.7278 127.422 53.292 126.721 54.2806C126.196 55.3974 125.936 57.2235 125.97 59.7804C126.009 62.6989 125.924 64.6531 125.712 65.6178C126.744 65.4318 127.783 64.96 128.851 64.1731C129.424 63.696 130.026 63.2403 130.599 62.7632C131.242 62.4046 131.701 62.3593 131.961 62.7071ZM121.735 67.503C121.354 67.381 120.759 67.2145 119.95 67.0036C118.977 66.7403 118.423 66.671 118.32 66.8423C118.2 67.068 118.197 67.3791 118.314 67.8009C118.318 67.8261 118.322 67.8514 118.33 67.902C118.607 68.6872 119.078 69.0541 119.746 69.028C120.563 68.9531 121.233 68.435 121.735 67.503ZM122.98 59.1833C121.317 61.3047 119.861 63.2646 118.664 65.0549C118.82 65.0567 120.087 65.2223 122.492 65.5479C122.754 64.731 122.875 63.6769 122.885 62.4072C122.927 60.5114 122.939 59.4225 122.98 59.1833Z" fill="#FC6170"/>
<path d="M143.378 62.411C142.2 63.6549 140.52 65.0025 138.31 66.4325C135.849 68.0824 133.922 69.0026 132.532 69.2182C132.103 69.2848 131.766 69.2853 131.494 69.1981C131.222 69.1109 130.922 68.8469 130.591 68.3806C130.449 68.2991 130.303 68.1924 130.128 68.0643C129.873 67.9226 129.579 67.5283 129.242 66.8559C128.905 66.1836 128.729 65.7191 128.736 65.4333C128.679 64.8986 128.81 63.7396 129.162 62.0028C129.808 59.832 130.632 57.9702 131.586 56.4504C132.566 54.9267 133.585 53.6558 134.664 52.6083C135.977 51.3953 137.229 50.6316 138.456 50.3637C138.582 50.3441 138.683 50.3284 138.784 50.3127C138.809 50.3088 138.835 50.3049 138.86 50.3009C139.046 50.1685 139.315 50.2304 139.64 50.4905C140.556 51.2283 141.135 52.122 141.367 53.1211C141.649 54.268 141.651 55.6135 141.348 57.1616C141.317 57.2958 141.282 57.4048 141.243 57.4884C141.104 57.9241 140.807 58.5137 140.336 59.3115C139.864 60.1093 138.5 60.6573 136.226 61.0101C134.938 61.2101 133.849 61.1978 132.935 60.9773C132.042 63.3934 131.737 65.097 131.991 66.067C132.388 66.2901 132.736 66.3655 133.09 66.3106C134.151 66.146 135.913 65.3291 138.355 63.8891C140.348 62.7258 141.686 61.8453 142.374 61.2728C142.645 61.0236 142.908 60.8793 143.211 60.8323C143.666 60.7617 143.895 60.9073 143.95 61.2611C144.026 61.5857 143.825 61.9535 143.378 62.411ZM139.246 52.6221C139.209 52.5502 139.151 52.5075 139.046 52.4979C138.523 52.6308 138.01 52.995 137.486 53.6198C136.209 55.0603 135.089 56.6833 134.098 58.4675C134.804 58.5133 135.718 58.3975 136.814 58.1239C137.636 57.9187 138.061 57.8268 138.086 57.8229C138.551 57.6473 138.891 57.3358 139.11 56.9136C139.682 54.599 139.723 53.1951 139.246 52.6221Z" fill="#FC6170"/>
<path d="M190.282 14.6815C190.902 18.6746 189.892 24.0074 187.275 30.6509C187.019 31.3376 186.604 32.3336 186.019 33.5632C185.454 34.4272 184.528 34.9592 183.264 35.1552C182.759 35.2336 182.504 35.092 182.449 34.7382C182.43 34.6118 182.461 34.4776 182.538 34.3103C183.769 31.7382 184.871 28.6686 185.815 25.08C186.904 20.9254 187.293 17.7594 186.959 15.6112C186.599 13.2861 185.281 12.3 182.982 12.6568C179.773 13.1546 175.899 16.3697 171.335 22.3058C167.675 27.0664 166.139 31.3421 166.723 35.1077C167.017 37.0031 167.838 38.4546 169.21 39.4581C172.57 41.9389 174.537 43.4454 175.053 43.9347C177.112 45.8668 178.334 47.9031 178.671 50.0765C179.032 52.4016 178.412 55.2412 176.81 58.5953C175.132 62.1168 172.966 65.1703 170.264 67.7636C167.136 70.7852 163.913 72.5275 160.553 73.0489C156.813 73.6291 154.617 71.9771 154.013 68.0852C153.354 63.8394 154.271 59.2455 156.735 54.2823C157.346 53.0488 157.889 52.2139 158.361 51.7525C158.918 51.1743 159.616 50.8332 160.424 50.7078C161.081 50.6058 161.466 50.7531 161.533 51.1828C161.509 51.0311 160.69 53.2546 159.104 57.8746C157.518 62.4945 156.858 65.9097 157.183 68.0073C157.497 70.0291 158.74 70.8715 160.913 70.5343C163.541 70.1266 166.231 68.2858 168.961 65.0411C171.232 62.3336 172.984 59.4479 174.166 56.3917C174.979 54.2985 175.296 52.6707 175.116 51.5081C174.692 48.7787 172.747 46.0784 169.312 43.4538C165.878 40.8292 163.932 38.1289 163.505 35.3742C162.72 30.3197 164.255 25.3712 168.114 20.554C173.464 13.8488 178.479 10.1463 183.153 9.42104C187.271 8.78205 189.639 10.5369 190.282 14.6815Z" fill="#FC6170"/>
<path d="M202.814 21.0709C202.902 21.135 202.95 21.2827 202.982 21.4848C203.076 22.0914 203.042 22.8731 202.851 23.8086C202.646 24.8238 202.392 25.355 202.038 25.4098C201.062 25.4577 198.819 25.6763 195.28 26.0443C193.093 30.2917 191.215 34.3618 189.7 38.2719C188.328 41.7716 186.956 45.2713 185.555 48.7497C183.684 53.6986 182.864 56.7504 183.04 57.8876C183.115 58.3678 183.453 58.5482 184.034 58.4581C185.424 58.2425 187.706 56.7755 190.927 54.024C191.203 53.8001 191.469 53.6811 191.773 53.6341C192.227 53.5635 192.457 53.7091 192.512 54.0629C192.563 54.3914 192.361 54.7592 191.94 55.2127C188.354 58.9524 185.515 60.9976 183.443 61.319C183.064 61.3778 182.753 61.3743 182.456 61.2911C182.082 61.2196 181.709 60.8117 181.276 60.0248C180.913 59.3564 180.689 58.7442 180.603 58.1882C180.168 55.3829 182.038 48.5965 186.249 37.8756C187.76 33.9402 189.31 30.2575 190.892 26.777L190.588 26.824C178.486 28.7018 170.601 30.0805 166.913 30.9892C166.715 31.0458 166.368 30.8149 165.895 30.2671C165.401 29.7486 165.138 29.22 165.088 28.7359C165.035 28.2266 168.076 27.3147 174.212 26.0005C179.163 24.8957 183.987 23.9662 188.679 23.1865C189.866 23.0022 191.306 22.7788 192.995 22.4908C193.321 21.9227 193.527 21.5802 193.659 21.4303C193.93 21.1811 194.457 21.0735 195.26 21.0783C195.621 21.074 196.026 21.3476 196.524 21.8915C200.518 21.1165 202.602 20.8709 202.814 21.0709Z" fill="#FC6170"/>
<path d="M206.458 48.5604C204.597 50.7385 202.633 51.9231 200.563 52.089C200.387 52.4528 200.206 52.7914 200.004 53.1591C198.874 55.3791 197.58 57.2104 196.067 58.6356C194.98 59.6325 194.184 60.1701 193.653 60.2525C193.072 60.3426 192.652 60.3043 192.419 60.1334C191.958 59.9979 191.314 59.6837 190.487 59.1909C190.203 59.0279 189.88 58.6122 189.547 57.9651C189.184 57.2967 189.009 56.8322 188.991 56.5503C188.91 55.5276 189.093 54.2052 189.536 52.5577C190.145 50.315 190.936 48.4066 191.878 46.811C192.821 45.2154 193.853 43.8647 194.95 42.7628C196.226 41.4779 197.475 40.6889 198.743 40.3626C198.891 40.3138 199.025 40.3447 199.163 40.4009C199.185 40.3718 199.202 40.3173 199.249 40.2842C199.435 40.1517 199.708 40.2389 200.083 40.4912C201.046 41.1958 201.675 42.0817 201.937 43.1022C202.422 44.8904 202.267 47.0625 201.477 49.6438C202.428 49.5998 203.331 49.2526 204.184 48.5768C204.681 48.1115 205.178 47.6461 205.675 47.1808C206.044 46.8906 206.331 46.7425 206.559 46.7072C206.837 46.6641 206.986 46.7961 207.034 47.0994C207.147 47.4959 206.939 47.9939 206.458 48.5604ZM198.113 51.3046C197.402 50.5607 196.953 49.3363 196.796 47.6527C196.734 46.7564 196.826 45.681 197.05 44.4557C195.459 46.5402 194.275 48.5872 193.497 50.5714C192.483 53.2132 192.002 55.2807 192.035 56.8284C192.063 57.3417 192.248 57.7012 192.616 57.903C192.754 57.9592 193.15 57.8459 193.852 57.53C194.805 56.8386 196.121 54.9781 197.795 51.9233L198.113 51.3046ZM199.82 42.6284L199.79 42.6071C199.732 42.5644 199.703 42.543 199.674 42.5217C199.623 42.5295 199.573 42.5373 199.522 42.5452C199.471 42.553 199.421 42.5609 199.37 42.5687C199.32 42.5766 199.299 42.6057 199.273 42.6097C198.86 43.1138 198.729 44.2728 198.831 46.0946C198.885 47.2767 199.102 48.1748 199.478 48.7635C199.879 47.8472 200.15 46.9252 200.219 46.0345C200.385 44.2746 200.26 43.1295 199.82 42.6284Z" fill="#FC6170"/>
<path d="M222.485 46.4619C222.427 46.7556 221.746 47.8706 220.417 49.8108C219.088 51.751 218.034 53.1309 217.281 53.9466C215.435 55.8894 214.048 56.9586 213.139 57.0997C212.735 57.1625 212.215 56.9842 211.527 56.5476C210.984 56.2177 210.634 55.9615 210.443 55.7323C210.178 55.3593 209.965 54.4865 209.804 53.1139C209.683 51.8386 209.981 50.4207 210.739 48.802C211.105 47.9946 212.05 46.2435 213.597 43.5447C213.165 43.0941 212.861 42.8047 212.657 42.6553C212.387 42.4126 212.032 42.1311 211.536 41.7681C210.268 43.9318 209.475 45.3231 209.102 45.9244C204.781 53.7638 202.598 57.7 202.547 57.7079C202.421 57.7275 201.991 57.4577 201.286 56.92C200.707 56.5182 200.409 56.0986 200.334 55.6184C200.322 55.5426 200.737 54.8829 201.554 53.6433C202.889 51.5728 204.792 48.6636 207.213 44.9234C208.09 43.5709 209.019 42.0551 210.022 40.3466C209.82 39.2133 209.916 38.1632 210.302 37.1458C210.691 36.1537 211.541 34.9607 212.88 33.5882C213.727 32.7063 214.372 32.1922 214.84 32.0419C215.013 31.9892 215.184 32.092 215.379 32.3465C215.573 32.601 215.671 32.8964 215.671 33.2328C215.694 34.2128 215.375 35.3234 214.663 36.5726C214.042 37.5748 213.396 38.5808 212.776 39.583C213.404 40.1324 213.883 40.5499 214.262 40.8275C215.805 41.9339 216.623 42.8681 216.749 43.6769C216.847 44.3087 216.465 45.3513 215.617 46.7252C215.018 47.6981 214.397 48.7002 213.776 49.7024C212.793 51.5372 212.363 52.7685 212.461 53.4004C212.528 53.83 212.787 53.9969 213.267 53.9224C213.772 53.844 215.271 52.4985 217.836 49.849C218.171 49.5122 218.895 48.6752 220.054 47.3049C220.906 46.2928 221.421 45.773 221.547 45.7534C221.774 45.7181 221.992 45.7878 222.171 45.9412C222.405 46.112 222.508 46.2772 222.485 46.4619Z" fill="#FC6170"/>
<path d="M234.587 37.0787C234.542 38.4573 232.259 44.5831 227.718 55.5105C223.006 66.827 219.942 73.0996 218.5 74.3069C217.189 75.3644 216.184 75.7273 215.478 75.3451C213.735 74.4509 212.433 71.392 211.617 66.1353C211.484 65.2761 211.391 64.514 211.361 63.8199C211.337 62.9955 211.527 62.5519 211.956 62.4853C212.487 62.4029 212.806 62.7934 212.936 63.6273C213.114 64.9454 213.472 66.4169 214.009 68.0418C214.744 70.2828 215.454 71.5185 216.132 71.7238C217.091 72.0668 219.986 66.2086 224.816 54.1491C224.168 54.638 223.69 54.8933 223.412 54.9364C222.831 55.0266 222.411 54.9882 222.177 54.8174C221.687 54.6605 221.043 54.3463 220.22 53.8787C219.962 53.7118 219.638 53.2961 219.225 52.6356C218.812 51.975 218.612 51.5144 218.598 51.2577C218.517 50.2351 218.699 48.9127 219.142 47.2652C219.734 45.077 220.61 43.0518 221.716 41.1721C222.346 40.0649 223.184 38.7961 224.201 37.3443C224.273 37.3073 224.374 37.2916 224.5 37.272C224.879 37.2132 225.307 37.3021 225.838 37.5562C226.369 37.8103 226.648 38.1035 226.702 38.4573C226.73 38.6342 226.678 38.7976 226.524 38.9767C225.408 40.2886 224.313 42.3997 223.208 45.2885C222.17 47.9342 221.689 50.0017 221.747 51.5455C221.746 52.0374 221.931 52.3969 222.328 52.62C222.466 52.6762 222.862 52.563 223.564 52.2471C224.492 51.5596 225.808 49.6991 227.506 46.6404C227.743 46.1637 228.074 45.4652 228.547 44.5119C230.028 40.7107 231.103 37.8005 231.773 35.7814C232.066 35.5029 232.643 35.3875 233.526 35.4059C233.681 35.4076 233.893 35.6076 234.183 35.9767C234.47 36.3205 234.604 36.6878 234.587 37.0787Z" fill="#FC6170"/>
<path d="M42.8992 32.8387C42.9071 32.8892 42.8936 32.9689 42.9093 33.07C42.7816 33.5816 42.6096 34.3071 42.3718 35.2757C40.8939 42.2599 39.3802 50.1814 37.8057 59.044C36.702 65.2714 35.5286 73.2177 34.3029 82.8285C34.1161 84.1257 33.9262 86.0703 33.6867 88.6956C33.6127 90.0529 33.3103 90.7727 32.7798 90.855C32.4008 90.9138 31.9102 90.4205 31.3082 89.3752C30.751 88.4523 30.4604 87.7468 30.382 87.2414C30.0134 84.8658 30.5356 79.8933 31.9194 72.3025C30.6112 72.3761 28.6832 72.6235 26.0808 73.0272C22.973 73.5094 21.0062 73.8405 20.1977 73.9659C18.5751 77.3493 16.6406 81.5574 14.4116 86.5359C13.7525 87.9581 12.8164 90.0962 11.5859 93.0046C11.1093 94.2691 10.5679 94.9484 10.012 95.0346C9.50669 95.113 9.16166 94.3901 8.93031 92.899C8.82444 92.2167 8.76736 91.682 8.76299 91.3204C8.76862 89.689 11.1426 84.1445 15.9142 74.7082C14.1029 75.041 12.5695 75.3306 11.318 75.6025C9.44265 76.0228 8.71777 76.1871 9.19783 76.1126C8.86937 76.1635 8.54439 75.9034 8.17628 75.3653C7.87046 74.8951 7.70665 74.5064 7.67702 74.1487L7.6535 73.997C7.56897 73.2855 10.9733 72.2138 17.888 70.7527C19.7436 67.2038 21.7583 63.3455 23.9825 59.1701C24.9325 57.2886 29.8091 47.8619 38.6005 30.814C38.7246 30.6136 38.8897 30.5103 39.0918 30.479C39.395 30.4319 39.7139 30.486 40.1029 30.6586C40.4275 30.5823 40.9585 30.8364 41.6999 31.446C42.4667 32.0517 42.8483 32.5101 42.8992 32.8387ZM38.6289 37.6681C34.8457 44.8029 29.3197 55.5468 22.0255 69.9037C26.6801 69.0521 30.2173 68.5033 32.6586 68.228C33.0911 66.0128 35.0838 55.843 38.6289 37.6681Z" fill="#FEFEFE"/>
<path d="M87.3665 27.9321C87.492 28.7409 87.5281 29.6411 87.475 30.6328C87.4315 31.5195 87.2795 32.7077 86.9859 34.1509C86.654 36.014 86.2763 37.082 85.8529 37.3547C85.5946 37.5242 85.2993 37.6218 84.9455 37.6767C84.0865 37.8099 83.6217 37.6491 83.5472 37.169C83.4805 36.7393 83.5994 35.5045 83.9039 33.4644C84.2044 31.3991 84.2801 29.8862 84.1194 28.85C83.8763 27.2832 83.1444 26.5685 81.9064 26.7606C79.0008 27.2114 75.5459 29.7921 71.5884 34.4694C68.6828 37.9224 66.1663 41.548 64.0719 45.3927C61.5062 50.0353 59.3322 55.3676 57.5672 61.3353C55.4829 68.4136 54.7516 74.0397 55.4025 78.2349C55.975 81.9247 57.647 83.5287 60.401 83.1014C63.7613 82.58 66.5514 80.0508 68.7713 75.5136C69.0174 74.932 69.4012 74.0701 69.9147 72.8775C70.0232 72.576 70.1804 72.4222 70.3826 72.3908C71.0142 72.2928 71.4486 72.9242 71.6642 74.3142C71.723 74.6933 71.7196 75.0044 71.6364 75.302C70.8253 77.9124 69.3569 80.2884 67.2097 82.4591C64.9306 84.7796 62.553 86.132 60.0264 86.524C55.7312 87.1905 53.1012 84.4152 52.1406 78.2234C51.3249 72.9667 52.0087 66.701 54.2211 59.4475C56.0327 53.4467 58.5483 47.6473 61.8184 42.0414C66.2171 34.3711 71.3983 28.9086 77.358 25.6288C79.1937 24.6193 80.8316 24.0028 82.2213 23.7872C85.1521 23.3325 86.8685 24.7225 87.3665 27.9321Z" fill="#FEFEFE"/>
<path d="M91.3628 36.6809C90.3347 38.3933 87.6153 44.3796 83.1421 54.572C81.5665 58.2586 79.639 63.3456 77.3421 69.8875C78.676 68.6453 81.0187 65.9008 84.3664 61.6287C84.8786 60.9281 85.8566 59.5599 87.308 57.5748C88.0939 56.4694 88.6258 55.8951 88.8532 55.8599C89.3332 55.7854 89.8642 56.0394 90.4502 56.6473C90.952 56.88 91.2269 57.4844 91.304 58.4818C91.3354 58.684 90.932 59.4194 90.1192 60.6843C89.6614 61.4024 88.9248 62.9919 87.9813 65.4158C87.2159 67.3203 86.8039 68.8336 86.7198 69.9595C86.651 70.8501 86.7878 71.3983 87.0797 71.6118C87.1925 71.672 87.3227 71.6776 87.4743 71.6541C88.4597 71.5012 90.1673 69.1658 92.601 64.6731C93.0257 63.9084 93.4004 63.488 93.7794 63.4292C94.2342 63.3586 94.4794 63.6053 94.5696 64.1865C94.5853 64.2876 94.5718 64.3673 94.533 64.451C93.1069 67.9333 91.8096 70.4121 90.6452 71.9127C89.3955 73.53 87.9854 74.4476 86.3684 74.6985C85.9894 74.7573 85.5224 74.4156 84.9168 73.6814C84.2451 72.8539 83.8356 71.8822 83.6631 70.7702C83.5258 69.8857 84.0437 67.5537 85.242 63.7703C84.8927 64.1869 84.5607 64.5489 84.2541 64.9071C83.862 65.382 82.0377 67.632 78.7636 71.7116C76.7006 74.2574 75.5301 75.5519 75.2269 75.599C75.2016 75.6029 75.1724 75.5815 75.1472 75.5855C74.9916 75.5837 74.7834 75.409 74.4759 75.0944C74.1936 74.7758 74.028 74.5427 74.0045 74.3911C73.6176 71.3971 75.4924 64.636 79.6501 54.0785C84.1024 42.7507 86.9382 36.5134 88.1069 35.3745C88.3787 35.1252 88.9054 35.0176 89.7082 35.0225C89.889 35.0203 90.2022 35.2046 90.6692 35.5463C91.1693 35.9345 91.3837 36.3154 91.3628 36.6809Z" fill="#FEFEFE"/>
<path d="M105.808 65.9109C104.63 67.1548 102.95 68.5024 100.74 69.9324C98.2791 71.5823 96.3519 72.5025 94.9623 72.7181C94.5328 72.7848 94.1965 72.7852 93.9242 72.698C93.6519 72.6109 93.3522 72.3468 93.0211 71.8805C92.8791 71.7991 92.7332 71.6923 92.558 71.5642C92.3032 71.4226 92.0091 71.0282 91.672 70.3559C91.3348 69.6835 91.1592 69.219 91.1666 68.9332C91.1095 68.3985 91.2402 67.2395 91.5917 65.5027C92.2381 63.3319 93.0618 61.4701 94.0162 59.9503C94.9959 58.4266 96.0148 57.1557 97.0943 56.1082C98.4068 54.8952 99.6596 54.1315 100.886 53.8636C101.012 53.844 101.113 53.8283 101.214 53.8126C101.24 53.8087 101.265 53.8048 101.29 53.8008C101.477 53.6684 101.745 53.7303 102.07 53.9904C102.986 54.7282 103.565 55.6219 103.798 56.621C104.079 57.7679 104.081 59.1134 103.778 60.6615C103.747 60.7957 103.712 60.9047 103.673 60.9883C103.534 61.424 103.237 62.0136 102.766 62.8114C102.294 63.6092 100.931 64.1572 98.6566 64.51C97.368 64.71 96.2794 64.6977 95.3655 64.4772C94.4725 66.8933 94.1676 68.5969 94.4216 69.5669C94.8185 69.79 95.1665 69.8654 95.5202 69.8105C96.5814 69.6459 98.3435 68.829 100.785 67.389C102.778 66.2257 104.116 65.3452 104.804 64.7727C105.076 64.5235 105.338 64.3793 105.641 64.3322C106.096 64.2617 106.325 64.4072 106.38 64.761C106.431 65.0896 106.23 65.4573 105.808 65.9109ZM101.676 56.122C101.639 56.0501 101.581 56.0074 101.476 55.9978C100.953 56.1307 100.44 56.4949 99.9163 57.1197C98.639 58.5602 97.5195 60.1832 96.5285 61.9675C97.2342 62.0132 98.1477 61.8974 99.2438 61.6238C100.066 61.4186 100.491 61.3267 100.517 61.3228C100.981 61.1472 101.321 60.8357 101.54 60.4135C102.087 58.1028 102.128 56.6989 101.676 56.122Z" fill="#FEFEFE"/>
<path d="M117.632 64.0762C116.454 65.3202 114.774 66.6678 112.564 68.0977C110.103 69.7477 108.176 70.6679 106.786 70.8835C106.357 70.9501 106.021 70.9505 105.748 70.8634C105.476 70.7762 105.176 70.5121 104.845 70.0459C104.703 69.9644 104.557 69.8576 104.382 69.7295C104.127 69.5879 103.833 69.1936 103.496 68.5212C103.159 67.8489 102.983 67.3844 102.991 67.0985C102.934 66.5639 103.064 65.4048 103.416 63.6681C104.062 61.4973 104.886 59.6355 105.84 58.1157C106.82 56.592 107.839 55.321 108.918 54.2736C110.231 53.0606 111.484 52.2968 112.71 52.0289C112.836 52.0093 112.937 51.9936 113.039 51.978C113.064 51.974 113.089 51.9701 113.114 51.9662C113.301 51.8337 113.569 51.8956 113.894 52.1558C114.811 52.8935 115.389 53.7872 115.622 54.7864C115.903 55.9332 115.905 57.2788 115.602 58.8269C115.571 58.9611 115.536 59.07 115.497 59.1537C115.358 59.5894 115.061 60.1789 114.59 60.9767C114.119 61.7745 112.755 62.3226 110.481 62.6754C109.192 62.8753 108.104 62.8631 107.19 62.6426C106.297 65.0586 105.992 66.7623 106.246 67.7322C106.643 67.9554 106.991 68.0308 107.344 67.9759C108.406 67.8112 110.168 66.9943 112.609 65.5544C114.602 64.3911 115.941 63.5106 116.628 62.938C116.9 62.6888 117.162 62.5446 117.465 62.4976C117.92 62.427 118.15 62.5726 118.204 62.9264C118.281 63.251 118.079 63.6187 117.632 64.0762ZM113.5 54.2874C113.463 54.2155 113.405 54.1727 113.3 54.1632C112.777 54.296 112.265 54.6603 111.74 55.2851C110.463 56.7255 109.344 58.3486 108.353 60.1328C109.058 60.1786 109.972 60.0627 111.068 59.7892C111.89 59.584 112.316 59.4921 112.341 59.4881C112.805 59.3126 113.145 59.001 113.364 58.5788C113.936 56.2643 113.977 54.8604 113.5 54.2874Z" fill="#FEFEFE"/>
<path d="M131.608 60.4325C131.877 60.8308 131.67 61.3288 131.012 61.9227C128.79 63.9496 126.974 65.0854 125.509 65.3128C125.231 65.3559 124.978 65.3951 124.726 65.4343C123.846 67.4343 122.446 68.5832 120.475 68.889C118.226 69.2379 116.783 68.2714 116.169 65.9855C115.246 67.3711 114.149 68.8093 112.851 70.279C112.627 70.3395 112.26 70.1378 111.701 69.7068C111.464 69.5107 111.37 69.2406 111.416 68.8711C111.46 68.3207 113.474 65.2908 117.471 59.7015C118.381 58.3956 119.929 56.0332 122.133 52.5597C123.631 50.2051 124.527 48.979 124.826 48.9067C125.201 48.8226 125.633 48.9368 126.176 49.2667C126.719 49.5966 127.056 49.9325 127.237 50.2667C127.369 50.4532 127.069 51.0175 126.368 52.0061C125.843 53.1229 125.583 54.949 125.617 57.5058C125.656 60.4244 125.571 62.3786 125.359 63.3433C126.391 63.1573 127.43 62.6855 128.498 61.8986C129.071 61.4215 129.673 60.9658 130.246 60.4887C130.889 60.1301 131.348 60.0848 131.608 60.4325ZM121.382 65.2285C121.001 65.1065 120.406 64.94 119.597 64.729C118.624 64.4658 118.07 64.3965 117.967 64.5677C117.847 64.7934 117.844 65.1045 117.961 65.5263C117.965 65.5516 117.969 65.5769 117.977 65.6274C118.254 66.4126 118.725 66.7795 119.393 66.7534C120.21 66.6785 120.88 66.1605 121.382 65.2285ZM122.627 56.9087C120.964 59.0302 119.508 60.99 118.311 62.7804C118.467 62.7821 119.734 62.9478 122.139 63.2734C122.401 62.4564 122.522 61.4024 122.532 60.1327C122.574 58.2368 122.586 57.1479 122.627 56.9087Z" fill="#FEFEFE"/>
<path d="M143.025 60.1364C141.847 61.3804 140.167 62.728 137.957 64.1579C135.496 65.8079 133.569 66.7281 132.179 66.9437C131.75 67.0103 131.413 67.0107 131.141 66.9236C130.869 66.8364 130.569 66.5723 130.238 66.1061C130.096 66.0246 129.95 65.9178 129.775 65.7897C129.52 65.6481 129.226 65.2538 128.889 64.5814C128.552 63.9091 128.376 63.4446 128.383 63.1587C128.326 62.6241 128.457 61.4651 128.808 59.7283C129.455 57.5575 130.279 55.6957 131.233 54.1759C132.213 52.6522 133.232 51.3812 134.311 50.3338C135.624 49.1208 136.876 48.357 138.103 48.0891C138.229 48.0695 138.33 48.0538 138.431 48.0382C138.456 48.0342 138.482 48.0303 138.507 48.0264C138.693 47.894 138.962 47.9558 139.287 48.216C140.203 48.9537 140.782 49.8474 141.014 50.8466C141.296 51.9934 141.298 53.339 140.995 54.8871C140.964 55.0213 140.929 55.1302 140.89 55.2139C140.751 55.6496 140.454 56.2391 139.983 57.0369C139.511 57.8347 138.147 58.3828 135.873 58.7356C134.585 58.9355 133.496 58.9233 132.582 58.7028C131.689 61.1188 131.384 62.8225 131.638 63.7925C132.035 64.0156 132.383 64.091 132.737 64.0361C133.798 63.8714 135.56 63.0545 138.002 61.6146C139.995 60.4513 141.333 59.5708 142.02 58.9982C142.292 58.749 142.555 58.6048 142.858 58.5578C143.313 58.4872 143.542 58.6328 143.597 58.9866C143.673 59.3112 143.472 59.6789 143.025 60.1364ZM138.893 50.3476C138.856 50.2757 138.798 50.233 138.693 50.2234C138.17 50.3562 137.657 50.7205 137.133 51.3453C135.856 52.7857 134.736 54.4088 133.745 56.193C134.451 56.2388 135.365 56.1229 136.461 55.8494C137.283 55.6442 137.708 55.5523 137.733 55.5484C138.198 55.3728 138.538 55.0613 138.757 54.639C139.329 52.3245 139.37 50.9206 138.893 50.3476Z" fill="#FEFEFE"/>
<path d="M189.93 12.407C190.549 16.4001 189.54 21.7329 186.922 28.3763C186.666 29.063 186.252 30.0591 185.666 31.2887C185.102 32.1527 184.175 32.6847 182.912 32.8807C182.407 32.9591 182.152 32.8175 182.097 32.4636C182.077 32.3373 182.108 32.2031 182.186 32.0358C183.417 29.4637 184.519 26.3941 185.463 22.8055C186.552 18.6508 186.94 15.4848 186.607 13.3367C186.246 11.0116 184.929 10.0255 182.63 10.3822C179.421 10.8801 175.547 14.0951 170.983 20.0313C167.323 24.7918 165.787 29.0676 166.371 32.8332C166.665 34.7286 167.485 36.1801 168.857 37.1836C172.218 39.6644 174.185 41.1708 174.701 41.6602C176.76 43.5923 177.981 45.6285 178.319 47.802C178.679 50.127 178.059 52.9667 176.458 56.3208C174.779 59.8423 172.614 62.8958 169.911 65.4891C166.783 68.5107 163.561 70.253 160.2 70.7744C156.461 71.3546 154.264 69.7026 153.66 65.8106C153.001 61.5649 153.919 56.971 156.383 52.0078C156.994 50.7742 157.537 49.9394 158.009 49.478C158.566 48.8998 159.263 48.5587 160.072 48.4332C160.729 48.3313 161.114 48.4786 161.18 48.9082C161.157 48.7566 160.337 50.9801 158.751 55.6C157.165 60.22 156.505 63.6352 156.831 65.7328C157.144 67.7546 158.388 68.5969 160.56 68.2598C163.188 67.8521 165.878 66.0113 168.609 62.7666C170.88 60.0591 172.631 57.1733 173.813 54.1172C174.627 52.024 174.943 50.3961 174.763 49.2336C174.34 46.5042 172.394 43.8038 168.96 41.1793C165.525 38.5547 163.579 35.8544 163.152 33.0997C162.368 28.0452 163.903 23.0967 167.761 18.2794C173.112 11.5743 178.126 7.87175 182.8 7.14651C186.919 6.50752 189.287 8.26233 189.93 12.407Z" fill="#FEFEFE"/>
<path d="M202.461 18.7964C202.549 18.8604 202.597 19.0081 202.629 19.2103C202.723 19.8169 202.689 20.5986 202.498 21.5341C202.293 22.5493 202.039 23.0804 201.685 23.1353C200.709 23.1832 198.466 23.4018 194.927 23.7698C192.74 28.0172 190.862 32.0872 189.347 35.9974C187.975 39.4971 186.603 42.9968 185.202 46.4751C183.331 51.424 182.511 54.4758 182.687 55.6131C182.762 56.0933 183.1 56.2737 183.681 56.1835C185.071 55.9679 187.353 54.5009 190.574 51.7495C190.85 51.5255 191.116 51.4066 191.42 51.3596C191.874 51.289 192.104 51.4345 192.159 51.7883C192.21 52.1169 192.008 52.4846 191.587 52.9382C188.001 56.6779 185.162 58.723 183.09 59.0445C182.711 59.1033 182.4 59.0998 182.103 59.0166C181.729 58.9451 181.356 58.5372 180.923 57.7503C180.56 57.0818 180.336 56.4696 180.25 55.9136C179.815 53.1084 181.685 46.322 185.895 35.6011C187.407 31.6657 188.957 27.983 190.539 24.5025L190.235 24.5495C178.133 26.4273 170.248 27.8059 166.56 28.7147C166.362 28.7713 166.015 28.5403 165.542 27.9926C165.048 27.4741 164.785 26.9455 164.735 26.4614C164.682 25.952 167.723 25.0402 173.859 23.726C178.81 22.6212 183.634 21.6916 188.325 20.9119C189.513 20.7277 190.953 20.5042 192.642 20.2163C192.968 19.6481 193.174 19.3057 193.305 19.1558C193.577 18.9066 194.104 18.799 194.907 18.8038C195.268 18.7995 195.673 19.0731 196.171 19.6169C200.165 18.842 202.249 18.5964 202.461 18.7964Z" fill="#FEFEFE"/>
<path d="M206.105 46.2858C204.244 48.4639 202.28 49.6486 200.21 49.8145C200.033 50.1783 199.853 50.5169 199.651 50.8846C198.521 53.1046 197.227 54.9359 195.714 56.3611C194.627 57.358 193.831 57.8956 193.3 57.9779C192.719 58.0681 192.299 58.0297 192.066 57.8589C191.605 57.7234 190.961 57.4092 190.134 56.9163C189.85 56.7533 189.527 56.3376 189.194 55.6906C188.831 55.0221 188.656 54.5576 188.638 54.2757C188.557 53.2531 188.74 51.9306 189.183 50.2832C189.792 48.0405 190.583 46.1321 191.525 44.5365C192.468 42.9409 193.5 41.5902 194.597 40.4883C195.873 39.2034 197.121 38.4143 198.39 38.088C198.538 38.0393 198.672 38.0702 198.81 38.1264C198.832 38.0972 198.849 38.0428 198.896 38.0096C199.082 37.8772 199.354 37.9644 199.73 38.2167C200.693 38.9213 201.322 39.8072 201.584 40.8276C202.069 42.6159 201.914 44.788 201.124 47.3692C202.075 47.3253 202.978 46.978 203.831 46.3023C204.328 45.8369 204.825 45.3716 205.322 44.9063C205.691 44.6161 205.978 44.468 206.206 44.4327C206.484 44.3896 206.633 44.5216 206.681 44.8249C206.794 45.2214 206.586 45.7194 206.105 46.2858ZM197.759 49.03C197.049 48.2862 196.6 47.0618 196.443 45.3781C196.381 44.4818 196.473 43.4065 196.697 42.1812C195.106 44.2656 193.922 46.3126 193.144 48.2969C192.13 50.9387 191.649 53.0062 191.682 54.5539C191.71 55.0672 191.895 55.4267 192.263 55.6284C192.401 55.6846 192.797 55.5714 193.499 55.2555C194.452 54.5641 195.768 52.7036 197.441 49.6488L197.759 49.03ZM199.466 40.3539L199.437 40.3325C199.379 40.2898 199.35 40.2685 199.321 40.2471C199.27 40.255 199.22 40.2628 199.169 40.2707C199.118 40.2785 199.068 40.2863 199.017 40.2942C198.967 40.302 198.945 40.3312 198.92 40.3351C198.507 40.8392 198.376 41.9983 198.478 43.8201C198.532 45.0022 198.749 45.9003 199.125 46.4889C199.526 45.5726 199.797 44.6506 199.866 43.76C200.032 42.0001 199.906 40.855 199.466 40.3539Z" fill="#FEFEFE"/>
<path d="M222.132 44.1874C222.074 44.4811 221.393 45.596 220.064 47.5363C218.735 49.4765 217.681 50.8564 216.928 51.672C215.082 53.6149 213.695 54.6841 212.786 54.8252C212.382 54.8879 211.862 54.7097 211.174 54.273C210.631 53.9432 210.28 53.6869 210.09 53.4577C209.825 53.0847 209.612 52.212 209.451 50.8394C209.33 49.564 209.628 48.1462 210.386 46.5275C210.752 45.7201 211.696 43.9689 213.244 41.2701C212.812 40.8196 212.508 40.5302 212.304 40.3807C212.034 40.138 211.679 39.8565 211.183 39.4935C209.915 41.6573 209.121 43.0485 208.749 43.6498C204.428 51.4892 202.245 55.4255 202.194 55.4333C202.068 55.4529 201.638 55.1832 200.933 54.6455C200.354 54.2437 200.056 53.8241 199.981 53.3439C199.969 53.2681 200.384 52.6084 201.201 51.3688C202.536 49.2983 204.439 46.389 206.86 42.6489C207.737 41.2964 208.666 39.7806 209.669 38.0721C209.467 36.9388 209.563 35.8887 209.949 34.8713C210.338 33.8791 211.188 32.6861 212.527 31.3137C213.374 30.4318 214.018 29.9177 214.487 29.7674C214.66 29.7147 214.831 29.8175 215.026 30.072C215.22 30.3265 215.318 30.6219 215.318 30.9583C215.341 31.9382 215.022 33.0489 214.31 34.2981C213.689 35.3002 213.043 36.3063 212.423 37.3084C213.051 37.8579 213.53 38.2754 213.909 38.553C215.452 39.6594 216.27 40.5936 216.395 41.4023C216.494 42.0341 216.112 43.0768 215.264 44.4506C214.665 45.4236 214.044 46.4257 213.423 47.4279C212.44 49.2627 212.01 50.494 212.108 51.1258C212.175 51.5554 212.434 51.7223 212.914 51.6479C213.419 51.5695 214.918 50.224 217.483 47.5745C217.818 47.2377 218.542 46.4007 219.701 45.0304C220.553 44.0182 221.068 43.4984 221.194 43.4788C221.421 43.4435 221.639 43.5133 221.818 43.6667C222.052 43.8375 222.155 44.0026 222.132 44.1874Z" fill="#FEFEFE"/>
<path d="M234.234 34.8042C234.189 36.1828 231.905 42.3086 227.365 53.236C222.653 64.5525 219.589 70.8251 218.147 72.0324C216.836 73.0899 215.831 73.4528 215.125 73.0706C213.382 72.1764 212.08 69.1175 211.264 63.8608C211.131 63.0016 211.038 62.2395 211.008 61.5453C210.984 60.7209 211.174 60.2774 211.603 60.2107C212.134 60.1284 212.453 60.5188 212.583 61.3528C212.761 62.6709 213.119 64.1424 213.656 65.7673C214.391 68.0083 215.101 69.244 215.779 69.4493C216.738 69.7923 219.633 63.934 224.463 51.8746C223.814 52.3635 223.337 52.6188 223.059 52.6619C222.478 52.7521 222.058 52.7137 221.824 52.5429C221.334 52.386 220.69 52.0718 219.867 51.6042C219.609 51.4373 219.285 51.0216 218.872 50.361C218.459 49.7004 218.258 49.2399 218.245 48.9832C218.163 47.9606 218.346 46.6381 218.789 44.9907C219.381 42.8025 220.257 40.7772 221.363 38.8976C221.993 37.7904 222.831 36.5216 223.848 35.0698C223.92 35.0328 224.021 35.0171 224.147 34.9975C224.526 34.9387 224.954 35.0276 225.485 35.2817C226.016 35.5357 226.295 35.829 226.349 36.1828C226.377 36.3597 226.325 36.5231 226.171 36.7022C225.055 38.0141 223.96 40.1252 222.855 43.014C221.817 45.6597 221.336 47.7272 221.394 49.271C221.393 49.7629 221.578 50.1224 221.975 50.3455C222.113 50.4017 222.509 50.2885 223.211 49.9726C224.139 49.2851 225.454 47.4246 227.153 44.3659C227.39 43.8892 227.721 43.1907 228.194 42.2374C229.675 38.4362 230.75 35.526 231.42 33.5068C231.713 33.2284 232.29 33.113 233.173 33.1313C233.328 33.1331 233.54 33.3331 233.83 33.7022C234.117 34.046 234.251 34.4133 234.234 34.8042Z" fill="#FEFEFE"/>
</g>
<defs>
<clipPath id="clip0">
<rect width="231.598" height="72.6583" fill="white" transform="translate(0 35.5091) rotate(-8.81949)"/>
</clipPath>
</defs>
</svg>
