<svg width="400" height="185" viewBox="0 0 400 185" fill="none" xmlns="http://www.w3.org/2000/svg">
<g clip-path="url(#clip0)">
<path d="M341.28 0.650731L22.5974 61.4194C6.69257 64.4385 -3.33873 77.258 1.02002 88.9627L15.7037 128.459C19.0114 137.361 29.8156 143.012 42.0726 142.253L333.738 124.185C347.494 123.334 359.025 114.71 360.617 104.105L372.966 21.9236C375.053 7.88104 359.195 -2.77089 341.28 0.650731Z" fill="#FC6170"/>
<path d="M309.672 150.861C308.961 150.861 308.265 150.83 307.554 150.784L40.2177 129.805C28.6407 128.892 19.5832 120.608 18.1767 109.662L12.7514 67.7358C11.9013 61.0938 13.8952 54.3899 18.3621 48.8781C23.2 42.9174 30.3719 39.1397 38.0538 38.5204L337.107 9.50622C341.435 9.16561 345.562 9.80039 349.364 11.3951C352.95 12.9124 356.119 15.2657 358.53 18.2229C363.306 24.0752 364.821 31.739 362.672 39.248L336.381 131.152C333.088 142.686 321.836 150.861 309.672 150.861ZM337.246 11.0545L38.1774 40.0841C30.9129 40.6569 24.1274 44.2334 19.5523 49.869C15.3481 55.0402 13.4779 61.326 14.2816 67.55L19.7069 109.461C20.356 114.493 22.6745 118.952 26.415 122.373C30.1709 125.811 34.9779 127.839 40.3259 128.257L307.662 149.22C308.327 149.266 308.992 149.297 309.656 149.297C321.14 149.297 331.759 141.603 334.881 130.718L361.173 38.8145C363.182 31.801 361.776 24.6636 357.309 19.1982C355.052 16.4424 352.1 14.2439 348.746 12.8195C345.191 11.3332 341.311 10.7293 337.246 11.0545Z" fill="#FAE661"/>
<path d="M126.991 49.8691C127.13 52.8727 126.867 55.7989 126.203 58.6632C124.456 66.1877 121.55 72.9226 117.454 78.8833C111.581 87.2593 103.373 94.4742 92.832 100.481C82.0587 106.628 71.6256 109.941 61.517 110.406C61.2079 110.421 60.2959 110.468 58.7657 110.529C53.4951 121.615 46.926 136.091 39.0277 153.942C37.4048 157.472 35.1945 162.891 32.4123 170.23C31.4386 173.233 30.3257 174.766 29.0274 174.813C27.3117 174.89 26.307 171.67 25.9979 165.152C25.7969 160.724 33.7107 142.64 49.7546 110.932L47.3588 111.04C44.6075 111.226 43.1701 110.127 43.0619 107.758C43.031 106.969 43.4174 105.761 44.2366 104.12C45.0558 102.494 45.7977 101.658 46.4778 101.627C47.3897 101.581 48.7344 101.643 50.4965 101.813C52.2585 101.983 53.526 102.076 54.3297 102.107C61.8107 87.3058 73.264 65.0574 88.6587 35.3776C88.1641 35.4704 86.7112 35.9349 84.2999 36.771C82.2442 37.4212 80.915 37.7619 80.2967 37.7928C78.0246 37.9012 76.819 36.3839 76.6799 33.2565C76.5717 30.8102 77.2981 29.231 78.8592 28.5498C79.5857 28.2711 81.4405 28.0698 84.4545 27.9305C86.9121 27.8221 89.6015 27.6673 92.5383 27.466C92.6928 26.9706 92.7701 26.3203 92.7238 25.5152C92.7083 25.0198 93.0329 24.4624 93.6975 23.8121C94.3776 23.1619 94.9804 22.8368 95.5368 22.8058L96.186 23.0535C97.5307 24.1682 98.6282 25.5617 99.5092 27.2338C107.083 27.7447 113.281 29.6955 118.103 33.1016C123.699 37.1735 126.651 42.7472 126.991 49.8691ZM117.902 50.9839C117.423 40.5487 110.545 35.0524 97.2834 34.4951C86.402 54.6223 74.9642 76.979 62.939 101.581C76.0771 100.234 87.4376 96.0843 97.0052 89.1172C107.392 81.4998 114.038 71.5756 116.913 59.3289C117.686 56.2324 118.026 53.4456 117.902 50.9839Z" fill="#0E7C74"/>
<path d="M113.219 136.215C110.02 138.94 105.553 141.758 99.7873 144.653C93.3728 148.012 88.4113 149.777 84.9181 149.932C83.8825 149.979 83.0324 149.886 82.3678 149.638C81.7186 149.39 81.054 148.647 80.3739 147.378C80.0493 147.145 79.7093 146.851 79.3228 146.511C78.7509 146.108 78.1327 145.04 77.4681 143.337C76.8034 141.618 76.5252 140.426 76.6179 139.745C76.6179 138.398 77.2517 135.626 78.5346 131.462C80.6985 126.337 83.1715 122.033 85.9537 118.549C88.7359 115.081 91.5953 112.232 94.5012 110.003C98.0098 107.386 101.287 105.885 104.332 105.498C104.641 105.482 104.919 105.467 105.166 105.467C105.228 105.467 105.29 105.467 105.352 105.451C105.831 105.188 106.449 105.405 107.222 106.101C109.278 108.176 110.468 110.483 110.761 113.007C111.132 115.902 110.761 119.2 109.649 122.915C109.54 123.225 109.432 123.488 109.309 123.674C108.86 124.68 107.964 126.089 106.604 127.885C105.243 129.681 101.75 130.719 96.1087 130.966C92.9246 131.106 90.2352 130.796 88.0558 129.991C85.2427 135.657 84.0216 139.714 84.3771 142.129C85.2582 142.764 86.1392 143.058 87.0047 143.012C89.6324 142.888 94.1457 141.386 100.514 138.475C105.692 136.168 109.2 134.403 111.055 133.165C111.766 132.654 112.493 132.375 113.219 132.329C114.316 132.282 114.888 132.685 114.935 133.536C114.981 134.357 114.394 135.239 113.219 136.215ZM105.707 111.211C105.63 111.025 105.475 110.916 105.228 110.87C103.945 111.056 102.569 111.83 101.101 113.192C97.6234 116.382 94.4393 120.051 91.5644 124.2C93.2956 124.495 95.5368 124.448 98.288 124.077C100.359 123.798 101.426 123.659 101.488 123.643C102.647 123.349 103.559 122.683 104.254 121.661C106.217 116.196 106.696 112.697 105.707 111.211Z" fill="#0E7C74"/>
<path d="M156.914 125.269C156.698 125.95 154.72 128.505 150.964 132.917C147.208 137.33 144.302 140.411 142.231 142.16C137.207 146.449 133.575 148.632 131.303 148.74C130.329 148.787 129.062 148.198 127.547 146.975C126.341 146.046 125.538 145.288 125.136 144.684C124.595 143.724 124.317 141.525 124.286 138.088C124.332 134.945 125.46 131.524 127.671 127.792C128.753 125.903 131.535 121.863 136.033 115.701C135.121 114.508 134.441 113.719 133.992 113.301C133.405 112.65 132.57 111.83 131.488 110.839C127.856 115.809 125.507 118.983 124.471 120.392C111.843 138.444 105.475 147.471 105.351 147.486C105.042 147.502 104.099 146.743 102.476 145.226C101.194 144.111 100.529 142.981 100.483 141.819C100.467 141.634 101.626 140.132 103.96 137.33C107.794 132.607 113.172 125.996 120.097 117.512C122.601 114.446 125.29 110.978 128.181 107.092C127.995 104.274 128.505 101.704 129.711 99.3665C130.917 97.0441 133.328 94.3812 136.945 91.393C139.248 89.4422 140.979 88.343 142.138 88.1108C142.571 88.0333 142.973 88.3275 143.375 89.0242C143.776 89.7055 143.931 90.4486 143.854 91.2537C143.653 93.6535 142.555 96.2855 140.53 99.1343C138.738 101.426 136.929 103.717 135.136 106.008C136.496 107.541 137.594 108.687 138.428 109.446C141.891 112.542 143.668 115.066 143.745 117.017C143.823 118.611 142.633 120.996 140.206 124.169C138.459 126.399 136.697 128.659 134.904 130.951C132.029 135.193 130.638 138.088 130.7 139.605C130.747 140.643 131.349 141.138 132.509 141.092C133.73 141.03 137.81 138.119 144.719 132.344C145.6 131.632 147.641 129.759 150.809 126.74C153.159 124.495 154.519 123.349 154.89 123.333C155.446 123.302 155.941 123.519 156.389 123.953C156.853 124.386 157.023 124.835 156.914 125.269Z" fill="#0E7C74"/>
<path d="M187.503 129.201C188.044 130.223 187.426 131.4 185.633 132.716C179.698 137.128 174.922 139.42 171.305 139.59C170.625 139.621 169.991 139.652 169.373 139.683C166.699 144.328 162.943 146.758 158.105 146.975C152.525 147.238 149.279 144.498 148.336 138.754C145.709 141.881 142.633 145.071 139.109 148.369C138.568 148.461 137.671 147.889 136.45 146.65C135.94 146.124 135.786 145.427 135.987 144.544C136.234 143.244 141.968 136.308 153.174 123.736C155.74 120.794 160.161 115.391 166.436 107.526C170.733 102.153 173.252 99.4285 173.979 99.3356C174.891 99.2272 175.957 99.6452 177.163 100.574C178.368 101.503 179.157 102.432 179.497 103.346C179.759 103.826 178.909 105.172 176.915 107.356C175.308 109.957 174.226 114.4 173.654 120.67C173.005 127.87 172.263 132.623 171.459 134.945C174.025 134.759 176.715 133.861 179.528 132.22C181.073 131.214 182.634 130.192 184.18 129.17C185.849 128.303 186.962 128.303 187.503 129.201ZM161.289 138.274C160.408 137.902 159.001 137.345 157.069 136.602C154.751 135.688 153.452 135.425 153.159 135.797C152.819 136.292 152.726 137.066 152.896 138.135C152.942 138.197 152.958 138.274 152.911 138.398C153.375 140.349 154.426 141.355 156.096 141.463C158.058 141.479 159.79 140.426 161.289 138.274ZM166.544 118.178C161.907 122.946 157.873 127.343 154.442 131.384C154.813 131.431 157.888 132.174 163.669 133.629C164.504 131.678 165.091 129.17 165.447 126.074C166.019 121.429 166.39 118.797 166.544 118.178Z" fill="#0E7C74"/>
<path d="M223.161 121.29C218.045 126.151 212.929 128.505 207.828 128.381C207.318 129.201 206.762 130.037 206.19 130.858C202.867 135.998 199.188 140.116 195.154 143.197C192.248 145.365 190.146 146.48 188.863 146.542C187.395 146.604 186.405 146.402 185.895 145.938C184.829 145.489 183.345 144.544 181.428 143.105C180.795 142.64 180.13 141.556 179.435 139.838C178.739 138.119 178.414 136.912 178.445 136.246C178.507 133.722 179.311 130.517 180.857 126.631C182.943 121.305 185.37 116.831 188.121 113.192C190.872 109.554 193.732 106.535 196.684 104.12C200.115 101.317 203.423 99.6917 206.592 99.2272C206.963 99.1498 207.303 99.1808 207.612 99.3356C207.674 99.2891 207.766 99.2272 207.875 99.1653C208.354 98.9021 209.003 99.1498 209.838 99.9084C212.017 101.906 213.284 104.182 213.655 106.752C214.351 111.211 213.393 116.49 210.796 122.59C213.13 122.73 215.433 122.095 217.705 120.701C219.065 119.711 220.41 118.704 221.708 117.651C222.667 117.048 223.424 116.738 223.965 116.722C224.645 116.691 225.001 117.048 225.031 117.775C225.078 118.844 224.444 120.005 223.161 121.29ZM202.001 125.78C200.378 123.767 199.605 120.655 199.652 116.475C199.745 114.261 200.255 111.675 201.213 108.749C196.761 113.44 193.315 118.131 190.903 122.792C187.75 128.969 186.004 133.939 185.695 137.701C185.633 138.94 186.004 139.869 186.838 140.503C187.147 140.674 188.183 140.473 189.945 139.9C192.464 138.491 196.159 134.264 201.058 127.204L202.001 125.78ZM208.508 104.987L208.416 104.894C208.292 104.785 208.184 104.693 208.122 104.631C207.998 104.631 207.875 104.646 207.751 104.646C207.627 104.646 207.504 104.662 207.38 104.662C207.256 104.662 207.164 104.708 207.102 104.77C205.974 105.869 205.293 108.672 205.077 113.161C204.907 116.057 205.185 118.302 205.943 119.865C207.21 117.713 208.06 115.561 208.524 113.378C209.42 109.151 209.42 106.365 208.508 104.987Z" fill="#0E7C74"/>
<path d="M263.735 123.767C257.367 132.267 253.24 137.392 251.355 139.141C248.526 141.866 245.219 143.306 241.416 143.492C240.489 143.538 239.438 142.563 238.248 140.581C236.857 138.305 236.099 135.812 235.975 133.103C235.867 130.889 237.738 125.315 241.555 116.366C240.612 117.264 239.731 118.116 238.912 118.89C237.846 119.865 232.776 124.928 223.672 134.078C217.969 139.76 214.723 142.609 213.934 142.64C213.687 142.656 213.533 142.439 213.44 142.021H213.347C212.853 142.036 212.312 141.262 211.724 139.652C211.137 138.057 210.905 136.819 211.044 135.952C211.415 133.413 213.965 127.421 218.695 117.977C221.122 113.193 222.961 108.579 224.229 104.151C224.862 101.906 225.604 100.791 226.47 100.822C227.814 100.822 229.144 101.534 230.442 102.943C231.74 104.368 232.405 105.498 232.436 106.365C232.436 106.489 231.416 108.873 229.36 113.518C228.525 115.407 225.867 120.454 221.4 128.644C225.187 125.578 231.369 119.633 239.932 110.808C241.463 109.26 244.198 106.21 248.171 101.658C250.396 99.1654 251.834 97.8958 252.514 97.8649C253.673 97.8184 254.879 98.6235 256.131 100.296C257.321 100.915 257.893 102.494 257.831 105.033C257.846 105.529 256.703 107.216 254.384 110.112C253.055 111.784 250.876 115.437 247.892 121.073C245.466 125.64 244.028 129.279 243.611 132.019C243.225 134.202 243.379 135.58 244.075 136.168C244.337 136.401 244.647 136.509 245.018 136.494C248.14 136.354 253.457 130.982 260.953 120.376C261.711 119.355 262.453 118.813 263.179 118.782C264.215 118.735 264.771 119.386 264.833 120.748C264.848 121.739 264.493 122.745 263.735 123.767Z" fill="#0E7C74"/>
<path d="M298.064 101.224C298.482 102.37 297.075 105.869 293.845 111.737C289.146 120.485 286.518 125.455 285.962 126.647C284.895 128.969 284.37 131.539 284.385 134.357C284.308 138.104 283.659 140.008 282.438 140.07C280.166 140.178 278.852 137.748 278.512 132.778C273.38 138.646 269.145 141.587 265.837 141.618C265.528 141.634 265.25 141.649 265.003 141.649C264.755 141.727 264.353 141.649 263.797 141.432C263.055 141.216 261.525 140.209 259.237 138.413C258.665 137.949 258.063 136.85 257.429 135.131C256.795 133.397 256.502 132.236 256.532 131.617C256.594 130.192 257.228 127.421 258.449 123.302C260.659 118.085 263.148 113.75 265.915 110.297C268.666 106.845 271.541 103.996 274.508 101.766C277.94 99.0879 281.201 97.5706 284.246 97.2455C284.37 97.2455 284.462 97.23 284.524 97.23C284.71 97.1526 284.818 97.0907 284.88 97.0597C285.421 96.8584 286.039 97.0907 286.75 97.7874C287.461 98.4841 288.358 99.8775 289.424 101.937C290.861 99.7846 291.913 98.6544 292.593 98.5615C295.344 98.097 297.168 98.995 298.064 101.224ZM285.328 102.649V102.556C283.983 102.742 282.577 103.516 281.108 104.878C276.039 109.477 272.035 114.462 269.083 119.834C266.301 124.82 264.694 129.294 264.261 133.258C264.183 134.249 264.462 135.1 265.111 135.797C265.296 135.735 265.714 135.518 266.378 135.177C268.836 133.892 272.314 130.223 276.827 124.185C279.825 120.051 281.758 117.218 282.608 115.701C283.102 114.508 283.597 113.316 284.107 112.124C285.653 106.999 286.054 103.841 285.328 102.649Z" fill="#0E7C74"/>
<path d="M342.239 49.1724C338.668 54.39 331.496 66.4818 320.723 85.4633C306.287 112.929 299.13 128.319 299.285 131.632C299.331 132.809 300.104 133.351 301.573 133.289C304.988 133.134 310.986 130.115 319.548 124.231C320.259 123.767 320.986 123.519 321.712 123.488C322.81 123.442 323.382 123.844 323.428 124.711C323.459 125.516 322.887 126.399 321.712 127.374C311.959 135.596 304.509 139.822 299.362 140.07C298.45 140.116 297.647 140.024 296.951 139.807C296.07 139.482 295.22 138.32 294.401 136.323C293.705 134.574 293.334 133.01 293.272 131.663C292.979 125.331 299.362 109.229 312.423 83.3732C323.954 60.4746 331.388 47.748 334.711 45.1934C335.422 44.6051 336.767 44.4193 338.745 44.6361C339.178 44.6825 339.874 45.1625 340.848 46.1069C341.899 47.2216 342.378 48.2435 342.239 49.1724Z" fill="#0E7C74"/>
<path d="M336.396 100.11C336.875 101.317 335.561 104.863 332.454 110.731C327.586 119.943 324.973 124.928 324.649 125.687C323.582 128.009 323.057 130.595 323.057 133.428C323.041 137.128 322.315 139.002 320.847 139.064C318.482 139.172 317.168 136.586 316.921 131.307C316.812 128.783 317.137 126.12 317.941 123.318C319.363 118.333 321.588 112.805 324.587 106.752C327.601 100.698 329.734 97.5861 331.017 97.4003C333.768 96.9668 335.561 97.8648 336.396 100.11ZM347.664 80.6638C347.045 81.9178 345.886 83.3267 344.171 84.8905C342.285 86.5161 340.786 87.3522 339.688 87.3986C337.849 87.476 336.844 85.8039 336.69 82.3668C336.55 79.3632 337.215 76.9635 338.668 75.1675C340.708 72.7987 343.104 71.5446 345.871 71.4207C346.365 71.4052 346.767 71.4362 347.076 71.5446C347.957 71.8697 348.467 73.1083 348.622 75.2604C348.715 77.3505 348.39 79.1465 347.664 80.6638Z" fill="#0E7C74"/>
<path d="M396.708 44.9766C396.893 45.147 397.001 45.5185 397.032 46.0604C397.11 47.5777 396.785 49.4666 396.09 51.696C395.348 54.1113 394.544 55.3499 393.678 55.3809C391.283 55.288 385.718 55.257 377.001 55.257C370.509 65.0419 364.898 74.5017 360.168 83.6518C355.887 91.8575 351.59 100.032 347.309 108.176C341.466 119.772 338.607 126.987 338.73 129.821C338.777 130.997 339.549 131.539 341.018 131.477C344.449 131.322 350.431 128.303 358.994 122.42C359.705 121.955 360.431 121.708 361.173 121.677C362.271 121.63 362.842 122.033 362.889 122.9C362.92 123.705 362.348 124.587 361.173 125.563C351.42 133.784 343.955 138.011 338.807 138.258C337.88 138.305 337.076 138.181 336.396 137.902C335.531 137.639 334.681 136.509 333.846 134.512C333.15 132.762 332.779 131.214 332.718 129.867C332.393 122.869 338.777 106.814 351.884 81.6856C356.613 72.489 361.39 63.8498 366.166 55.7679L365.424 55.7989C335.392 57.1768 315.746 58.4464 306.457 59.5921C305.978 59.685 305.205 59.0038 304.154 57.5794C303.103 56.155 302.593 54.839 302.593 53.6004C302.593 52.3773 310.275 50.9529 325.608 49.3272C338.004 47.9648 350.029 46.9429 361.668 46.2927C364.604 46.1533 368.19 45.9675 372.426 45.7043C373.353 44.3883 373.987 43.5677 374.342 43.2581C375.053 42.7317 376.398 42.5769 378.376 42.7936C379.242 42.871 380.2 43.6606 381.251 45.1315C391.097 44.4967 396.26 44.4502 396.708 44.9766Z" fill="#0E7C74"/>
<path d="M397.898 95.9449C397.434 99.2891 390.216 113.703 376.212 139.203C361.699 165.647 352.548 180.154 348.73 182.724C345.268 184.969 342.718 185.557 341.079 184.458C337.03 181.811 334.696 173.93 334.093 160.832C334 158.68 334 156.775 334.109 155.103C334.263 153.06 334.866 152.022 335.902 151.976C337.184 151.914 337.88 152.936 337.973 155.01C338.065 158.262 338.529 161.962 339.41 166.111C340.585 171.778 341.991 174.967 343.63 175.695C345.886 176.763 354.511 163.201 369.489 135.007C367.757 136.014 366.552 136.524 365.872 136.555C364.403 136.617 363.414 136.416 362.904 135.952C361.776 135.456 360.261 134.512 358.344 133.118C357.773 132.654 357.077 131.539 356.258 129.805C355.439 128.056 355.052 126.879 355.083 126.26C355.145 123.736 355.949 120.531 357.494 116.645C359.535 111.443 362.162 106.705 365.408 102.432C367.247 99.8929 369.612 96.9822 372.472 93.7154C372.657 93.6535 372.889 93.6071 373.198 93.5916C374.11 93.5451 375.177 93.9012 376.382 94.6444C377.588 95.3876 378.206 96.1926 378.237 97.0442C378.252 97.4777 378.067 97.8802 377.65 98.2673C374.589 101.178 371.343 106.039 367.912 112.836C364.697 119.014 362.951 123.984 362.703 127.746C362.58 128.923 362.95 129.852 363.847 130.548C364.156 130.719 365.192 130.517 366.954 129.944C369.411 128.551 373.105 124.324 378.067 117.28C378.747 116.211 379.783 114.57 381.158 112.356C385.78 103.485 389.196 96.6726 391.36 91.904C392.132 91.3157 393.601 91.1608 395.765 91.424C396.136 91.4705 396.615 91.9969 397.218 93.0187C397.805 94.0561 398.037 95.016 397.898 95.9449Z" fill="#0E7C74"/>
<path d="M129.047 45.8591C129.186 48.8627 128.923 51.7889 128.258 54.6532C126.512 62.1776 123.606 68.9125 119.51 74.8733C113.636 83.2493 105.429 90.4641 94.8876 96.4713C84.1144 102.618 73.6813 105.931 63.5727 106.396C63.2635 106.411 62.3516 106.457 60.8214 106.519C55.5507 117.605 48.9817 132.081 41.0834 149.932C39.4605 153.462 37.2502 158.881 34.468 166.22C33.4942 169.223 32.3814 170.756 31.083 170.803C29.3673 170.88 28.3627 167.66 28.0535 161.142C27.8526 156.714 35.7664 138.63 51.8102 106.922L49.4145 107.03C46.6632 107.216 45.2258 106.117 45.1176 103.748C45.0866 102.958 45.4731 101.751 46.2923 100.11C47.1115 98.484 47.8534 97.648 48.5335 97.617C49.4454 97.5706 50.7901 97.6325 52.5522 97.8028C54.3142 97.9731 55.5816 98.066 56.3854 98.097C63.8663 83.2957 75.3197 61.0474 90.7144 31.3675C90.2198 31.4604 88.7668 31.9249 86.3556 32.761C84.2999 33.4112 82.9706 33.7518 82.3524 33.7828C80.0803 33.8912 78.8747 32.3739 78.7355 29.2464C78.6273 26.8002 79.3538 25.221 80.9149 24.5398C81.6414 24.2611 83.4962 24.0598 86.5102 23.9205C88.9678 23.8121 91.6572 23.6573 94.594 23.456C94.7485 22.9606 94.8258 22.3103 94.7794 21.5052C94.764 21.0098 95.0886 20.4524 95.7532 19.8021C96.4178 19.1519 97.0361 18.8267 97.5925 18.7958L98.2417 19.0435C99.5864 20.1582 100.684 21.5517 101.565 23.2238C109.139 23.7347 115.337 25.701 120.159 29.0916C125.77 33.1635 128.722 38.7527 129.047 45.8591ZM119.974 46.9893C119.494 36.5542 112.616 31.0579 99.3546 30.5005C88.4732 50.6277 77.0353 72.9844 65.0101 97.586C78.1482 96.2391 89.5088 92.0898 99.0764 85.1227C109.463 77.5053 116.109 67.581 118.984 55.3344C119.757 52.2224 120.082 49.4356 119.974 46.9893Z" fill="#70E4DE"/>
<path d="M115.275 132.22C112.091 134.945 107.608 137.763 101.843 140.658C95.4285 144.018 90.467 145.783 86.9738 145.938C85.9382 145.984 85.0881 145.891 84.4234 145.644C83.7743 145.396 83.1096 144.653 82.4295 143.383C82.105 143.151 81.7649 142.857 81.3785 142.516C80.8066 142.114 80.1884 141.045 79.5237 139.342C78.8591 137.624 78.5809 136.432 78.6736 135.75C78.6736 134.403 79.3073 131.632 80.5902 127.467C82.7541 122.342 85.2272 118.038 88.0094 114.555C90.7915 111.087 93.651 108.238 96.5568 106.008C100.065 103.392 103.342 101.89 106.387 101.503C106.696 101.488 106.975 101.472 107.222 101.472C107.284 101.472 107.346 101.472 107.407 101.457C107.886 101.193 108.505 101.41 109.278 102.107C111.333 104.182 112.523 106.488 112.817 109.012C113.188 111.907 112.817 115.205 111.704 118.921C111.596 119.231 111.488 119.494 111.364 119.68C110.916 120.686 110.019 122.095 108.659 123.891C107.299 125.687 103.806 126.724 98.1643 126.972C94.9803 127.111 92.2908 126.801 90.1115 125.996C87.2984 131.663 86.0773 135.719 86.4328 138.135C87.3138 138.769 88.1948 139.064 89.0604 139.017C91.688 138.893 96.2013 137.391 102.569 134.481C107.747 132.174 111.256 130.409 113.111 129.17C113.822 128.659 114.548 128.381 115.29 128.334C116.388 128.288 116.959 128.69 117.006 129.542C117.037 130.362 116.465 131.245 115.275 132.22ZM107.778 107.201C107.701 107.015 107.546 106.906 107.299 106.845C106.016 107.03 104.641 107.804 103.172 109.167C99.6945 112.356 96.5105 116.026 93.6355 120.175C95.3667 120.469 97.6079 120.423 100.359 120.051C102.43 119.772 103.497 119.633 103.559 119.618C104.702 119.323 105.63 118.658 106.325 117.636C108.288 112.186 108.768 108.702 107.778 107.201Z" fill="#70E4DE"/>
<path d="M158.986 121.259C158.769 121.94 156.791 124.495 153.035 128.907C149.279 133.32 146.373 136.401 144.302 138.15C139.279 142.439 135.646 144.622 133.374 144.73C132.4 144.777 131.133 144.188 129.618 142.965C128.413 142.036 127.609 141.278 127.207 140.674C126.666 139.714 126.388 137.515 126.357 134.078C126.403 130.935 127.532 127.514 129.742 123.782C130.824 121.894 133.606 117.868 138.104 111.691C137.192 110.498 136.512 109.709 136.064 109.291C135.476 108.641 134.642 107.82 133.56 106.829C129.927 111.799 127.578 114.973 126.542 116.382C113.914 134.434 107.546 143.461 107.423 143.476C107.114 143.492 106.171 142.733 104.548 141.216C103.265 140.101 102.6 138.971 102.554 137.809C102.538 137.624 103.698 136.122 106.032 133.32C109.865 128.597 115.244 121.986 122.168 113.502C124.672 110.436 127.362 106.968 130.252 103.082C130.067 100.264 130.577 97.6944 131.782 95.3566C132.988 93.0342 135.399 90.3712 139.016 87.3831C141.319 85.4323 143.05 84.333 144.209 84.1008C144.642 84.0234 145.044 84.3176 145.446 85.0143C145.848 85.6955 146.002 86.4541 145.925 87.2437C145.724 89.6435 144.627 92.2755 142.602 95.1243C140.809 97.4157 139 99.7071 137.207 101.999C138.568 103.531 139.665 104.677 140.5 105.436C143.962 108.532 145.739 111.056 145.817 113.007C145.894 114.601 144.704 116.986 142.277 120.159C140.531 122.389 138.769 124.649 136.976 126.941C134.101 131.183 132.71 134.078 132.771 135.595C132.818 136.633 133.421 137.128 134.58 137.082C135.801 137.02 139.881 134.109 146.79 128.334C147.671 127.622 149.712 125.749 152.88 122.73C155.23 120.485 156.59 119.339 156.961 119.323C157.517 119.292 158.012 119.509 158.46 119.943C158.908 120.392 159.078 120.825 158.986 121.259Z" fill="#70E4DE"/>
<path d="M189.559 125.207C190.1 126.229 189.482 127.405 187.689 128.721C181.753 133.134 176.977 135.425 173.36 135.596C172.68 135.626 172.047 135.657 171.428 135.688C168.754 140.333 164.998 142.764 160.161 142.981C154.581 143.244 151.335 140.503 150.392 134.759C147.764 137.887 144.689 141.076 141.164 144.374C140.623 144.467 139.727 143.894 138.506 142.656C137.996 142.129 137.841 141.432 138.042 140.55C138.29 139.249 144.024 132.313 155.23 119.741C157.796 116.8 162.216 111.396 168.492 103.531C172.789 98.1589 175.308 95.434 176.034 95.3411C176.946 95.2327 178.013 95.6507 179.218 96.5797C180.424 97.5086 181.212 98.4376 181.552 99.3511C181.815 99.831 180.965 101.178 178.971 103.361C177.364 105.962 176.282 110.406 175.71 116.676C175.061 123.875 174.319 128.628 173.515 130.951C176.081 130.765 178.77 129.867 181.583 128.226C183.129 127.219 184.69 126.198 186.236 125.176C187.921 124.293 189.033 124.309 189.559 125.207ZM163.36 134.264C162.479 133.892 161.072 133.335 159.14 132.592C156.822 131.678 155.524 131.415 155.23 131.787C154.89 132.282 154.797 133.056 154.967 134.125C155.014 134.187 155.029 134.264 154.983 134.388C155.446 136.323 156.497 137.345 158.167 137.453C160.13 137.484 161.861 136.416 163.36 134.264ZM168.6 114.168C163.963 118.936 159.929 123.333 156.497 127.374C156.868 127.421 159.944 128.164 165.725 129.619C166.56 127.668 167.147 125.16 167.502 122.064C168.074 117.435 168.445 114.803 168.6 114.168Z" fill="#70E4DE"/>
<path d="M225.232 117.295C220.116 122.157 215 124.51 209.9 124.386C209.39 125.207 208.833 126.043 208.261 126.863C204.938 132.004 201.259 136.122 197.225 139.203C194.319 141.37 192.217 142.485 190.934 142.547C189.466 142.609 188.477 142.408 187.967 141.943C186.9 141.494 185.416 140.55 183.5 139.11C182.866 138.645 182.201 137.562 181.506 135.843C180.81 134.125 180.486 132.917 180.517 132.251C180.578 129.728 181.382 126.523 182.928 122.637C185.015 117.311 187.441 112.836 190.192 109.198C192.944 105.559 195.803 102.54 198.755 100.125C202.187 97.3228 205.494 95.6971 208.663 95.2326C209.034 95.1552 209.374 95.1862 209.683 95.341C209.745 95.2946 209.838 95.2327 209.946 95.1707C210.425 94.9075 211.074 95.1552 211.909 95.9139C214.088 97.9111 215.356 100.187 215.727 102.757C216.422 107.216 215.464 112.496 212.867 118.596C215.201 118.735 217.504 118.1 219.776 116.707C221.136 115.716 222.481 114.71 223.78 113.657C224.738 113.068 225.495 112.743 226.036 112.728C226.716 112.697 227.056 113.053 227.103 113.781C227.134 114.833 226.515 116.01 225.232 117.295ZM204.057 121.77C202.434 119.757 201.661 116.645 201.708 112.465C201.8 110.251 202.31 107.665 203.269 104.739C198.817 109.43 195.37 114.121 192.959 118.781C189.806 124.959 188.059 129.929 187.75 133.691C187.688 134.93 188.059 135.859 188.894 136.493C189.203 136.664 190.239 136.462 192.001 135.89C194.52 134.481 198.214 130.254 203.114 123.194L204.057 121.77ZM210.564 100.977L210.471 100.884C210.348 100.775 210.24 100.682 210.178 100.621C210.054 100.621 209.93 100.636 209.807 100.636C209.683 100.636 209.56 100.652 209.436 100.652C209.312 100.652 209.219 100.698 209.158 100.76C208.029 101.859 207.349 104.661 207.133 109.151C206.963 112.047 207.241 114.292 207.998 115.855C209.266 113.703 210.131 111.551 210.58 109.368C211.492 105.157 211.492 102.355 210.564 100.977Z" fill="#70E4DE"/>
<path d="M265.806 119.772C259.438 128.272 255.311 133.397 253.425 135.147C250.597 137.871 247.289 139.311 243.487 139.497C242.559 139.544 241.508 138.568 240.318 136.586C238.927 134.31 238.169 131.818 238.046 129.108C237.938 126.894 239.808 121.321 243.626 112.372C242.683 113.27 241.802 114.121 240.983 114.895C239.916 115.871 234.846 120.934 225.742 130.084C220.039 135.766 216.793 138.615 216.005 138.646C215.757 138.661 215.603 138.444 215.51 138.026H215.417C214.923 138.042 214.382 137.268 213.794 135.657C213.207 134.063 212.975 132.824 213.114 131.957C213.485 129.418 216.036 123.426 220.765 113.982C223.192 109.198 225.031 104.584 226.299 100.156C226.933 97.9112 227.674 96.7965 228.54 96.8275C229.885 96.8275 231.214 97.5396 232.512 98.9486C233.811 100.373 234.475 101.503 234.506 102.37C234.506 102.494 233.486 104.878 231.43 109.523C230.596 111.412 227.937 116.459 223.47 124.649C227.257 121.584 233.44 115.639 242.003 106.814C243.533 105.265 246.269 102.215 250.241 97.6635C252.467 95.1708 253.904 93.9013 254.584 93.8703C255.744 93.8239 256.949 94.629 258.201 96.3011C259.391 96.9204 259.963 98.4996 259.901 101.039C259.917 101.534 258.773 103.222 256.455 106.117C255.125 107.789 252.946 111.443 249.963 117.079C247.536 121.646 246.099 125.284 245.681 128.025C245.295 130.208 245.449 131.586 246.145 132.174C246.408 132.406 246.717 132.515 247.088 132.499C250.21 132.36 255.527 126.987 263.024 116.382C263.781 115.36 264.523 114.818 265.249 114.787C266.285 114.741 266.841 115.391 266.903 116.753C266.919 117.744 266.563 118.751 265.806 119.772Z" fill="#70E4DE"/>
<path d="M300.135 97.2144C300.552 98.3601 299.145 101.859 295.915 107.727C291.216 116.475 288.588 121.444 288.032 122.637C286.966 124.959 286.44 127.529 286.455 130.347C286.378 134.094 285.729 135.998 284.508 136.06C282.236 136.168 280.922 133.738 280.582 128.768C275.45 134.636 271.215 137.577 267.908 137.608C267.599 137.624 267.32 137.639 267.073 137.639C266.826 137.717 266.424 137.639 265.867 137.422C265.125 137.206 263.595 136.199 261.308 134.403C260.736 133.939 260.133 132.84 259.499 131.121C258.866 129.387 258.572 128.226 258.603 127.606C258.665 126.182 259.298 123.411 260.519 119.292C262.73 114.075 265.218 109.74 267.985 106.287C270.736 102.835 273.611 99.9858 276.579 97.7563C280.01 95.0778 283.271 93.5605 286.316 93.2354C286.44 93.2354 286.533 93.2199 286.595 93.2199C286.78 93.1425 286.888 93.0806 286.95 93.0496C287.491 92.8484 288.109 93.0806 288.82 93.7773C289.531 94.474 290.428 95.8674 291.494 97.9266C292.932 95.7745 293.983 94.6443 294.663 94.5514C297.414 94.0869 299.238 94.9849 300.135 97.2144ZM287.398 98.6388V98.5459C286.054 98.7317 284.647 99.5058 283.179 100.868C278.109 105.467 274.106 110.452 271.154 115.824C268.371 120.81 266.764 125.284 266.331 129.248C266.254 130.239 266.532 131.09 267.181 131.787C267.367 131.725 267.784 131.508 268.449 131.167C270.906 129.882 274.384 126.213 278.897 120.175C281.896 116.041 283.828 113.208 284.678 111.691C285.173 110.498 285.667 109.306 286.177 108.114C287.707 102.989 288.125 99.8309 287.398 98.6388Z" fill="#70E4DE"/>
<path d="M344.294 45.1779C340.724 50.3954 333.552 62.4873 322.779 81.4688C308.342 108.935 301.186 124.324 301.341 127.638C301.387 128.814 302.16 129.356 303.628 129.294C307.044 129.139 313.041 126.12 321.604 120.237C322.315 119.772 323.042 119.525 323.768 119.494C324.865 119.447 325.437 119.85 325.484 120.717C325.515 121.522 324.943 122.404 323.768 123.38C314.015 131.601 306.565 135.828 301.418 136.075C300.506 136.122 299.702 136.029 299.007 135.812C298.126 135.487 297.276 134.326 296.456 132.329C295.761 130.579 295.39 129.015 295.328 127.668C295.034 121.336 301.418 105.234 314.479 79.3786C326.009 56.4801 333.444 43.7535 336.767 41.1989C337.478 40.6105 338.823 40.4247 340.801 40.6415C341.234 40.6879 341.929 41.1679 342.903 42.1123C343.97 43.2271 344.433 44.2489 344.294 45.1779Z" fill="#70E4DE"/>
<path d="M338.467 96.0998C338.946 97.3074 337.632 100.853 334.526 106.721C329.657 115.933 327.045 120.918 326.72 121.677C325.654 123.999 325.128 126.585 325.128 129.418C325.113 133.118 324.386 134.992 322.918 135.054C320.553 135.162 319.239 132.576 318.992 127.297C318.884 124.773 319.208 122.11 320.012 119.308C321.434 114.323 323.66 108.795 326.658 102.742C329.672 96.6881 331.805 93.5762 333.088 93.3904C335.839 92.9569 337.632 93.8703 338.467 96.0998ZM349.735 76.6538C349.117 77.9079 347.957 79.3168 346.242 80.8805C344.356 82.5062 342.857 83.3422 341.759 83.3887C339.92 83.4661 338.915 81.794 338.761 78.3569C338.622 75.3533 339.271 72.9535 340.739 71.1575C342.779 68.7887 345.175 67.5346 347.942 67.4108C348.437 67.3953 348.838 67.4263 349.147 67.5346C350.029 67.8598 350.539 69.0984 350.693 71.2504C350.786 73.3561 350.461 75.152 349.735 76.6538Z" fill="#70E4DE"/>
<path d="M398.779 40.9666C398.965 41.1369 399.073 41.5085 399.104 42.0504C399.181 43.5677 398.856 45.4566 398.161 47.686C397.419 50.1013 396.615 51.3399 395.75 51.3709C393.354 51.278 387.789 51.247 379.072 51.247C372.58 61.0319 366.969 70.4917 362.24 79.6418C357.958 87.8476 353.661 96.0223 349.38 104.166C343.537 115.762 340.678 122.977 340.801 125.811C340.848 126.987 341.621 127.529 343.089 127.467C346.52 127.312 352.502 124.293 361.065 118.41C361.776 117.945 362.503 117.698 363.244 117.667C364.342 117.62 364.914 118.023 364.96 118.89C364.991 119.695 364.419 120.577 363.244 121.553C353.491 129.774 346.026 134.001 340.879 134.248C339.951 134.295 339.148 134.171 338.468 133.892C337.602 133.629 336.752 132.499 335.917 130.502C335.222 128.752 334.851 127.204 334.789 125.857C334.464 118.859 340.848 102.804 353.955 77.6756C358.685 68.479 363.461 59.8398 368.237 51.7579L367.495 51.7889C337.463 53.1668 317.818 54.4364 308.528 55.5821C308.034 55.6595 307.276 54.9938 306.225 53.5694C305.174 52.145 304.664 50.829 304.664 49.5904C304.664 48.3673 312.346 46.9429 327.679 45.3172C340.075 43.9548 352.1 42.9329 363.739 42.2827C366.676 42.1433 370.262 41.9575 374.497 41.6943C375.424 40.3783 376.058 39.5577 376.413 39.2481C377.124 38.7217 378.469 38.5669 380.448 38.7836C381.313 38.861 382.271 39.6506 383.323 41.1215C393.168 40.5022 398.315 40.4402 398.779 40.9666Z" fill="#70E4DE"/>
<path d="M399.969 91.9505C399.505 95.2947 392.287 109.709 378.284 135.208C363.77 161.653 354.62 176.16 350.802 178.73C347.34 180.975 344.789 181.563 343.151 180.464C339.101 177.816 336.767 169.936 336.164 156.837C336.072 154.685 336.072 152.781 336.18 151.109C336.334 149.065 336.937 148.028 337.973 147.982C339.256 147.92 339.951 148.941 340.044 151.016C340.137 154.267 340.6 157.968 341.481 162.117C342.656 167.784 344.063 170.973 345.701 171.701C347.958 172.769 356.583 159.206 371.56 131.013C369.829 132.019 368.623 132.53 367.943 132.561C366.475 132.623 365.486 132.422 364.975 131.957C363.847 131.462 362.332 130.517 360.416 129.124C359.844 128.659 359.148 127.56 358.329 125.811C357.51 124.061 357.124 122.884 357.154 122.265C357.216 119.742 358.02 116.537 359.566 112.651C361.606 107.448 364.234 102.711 367.479 98.4376C369.319 95.8985 371.684 92.9878 374.543 89.721C374.729 89.6591 374.96 89.6126 375.27 89.5971C376.181 89.5507 377.248 89.9068 378.454 90.6499C379.659 91.3931 380.277 92.1982 380.308 93.0497C380.324 93.4832 380.138 93.8858 379.721 94.2729C376.661 97.1836 373.415 102.045 369.983 108.842C366.768 115.019 365.022 119.989 364.775 123.751C364.651 124.928 365.022 125.857 365.918 126.554C366.227 126.724 367.263 126.523 369.025 125.95C371.483 124.541 375.177 120.33 380.138 113.285C380.818 112.217 381.854 110.576 383.23 108.362C387.851 99.4904 391.267 92.6782 393.431 87.9096C394.204 87.3212 395.672 87.1664 397.836 87.4296C398.207 87.476 398.686 88.0024 399.289 89.0243C399.876 90.0461 400.108 91.0215 399.969 91.9505Z" fill="#70E4DE"/>
<g opacity="0.3">
<g opacity="0.3">
<path opacity="0.3" d="M175.277 49.4201L166.559 70.7549L167.564 81.67C167.61 82.1035 167.286 82.4442 166.884 82.4906L156.482 83.4505C156.08 83.4815 155.709 83.2183 155.663 82.7693L154.689 72.2102L142.602 52.4391C142.385 52.0521 142.617 51.5876 143.05 51.5566L153.143 50.6277C153.885 50.5658 154.581 50.8909 154.952 51.5257L164.705 67.4881L172.077 49.3736C172.232 49.0485 172.51 48.8472 172.819 48.8162L174.659 48.6459C175.122 48.5995 175.416 49.0175 175.277 49.4201Z" fill="#2D1014"/>
</g>
<g opacity="0.3">
<path opacity="0.3" d="M213.423 61.6513C214.32 71.4672 206.282 80.2767 195.478 81.2676C184.721 82.2585 175.199 75.0591 174.303 65.2587C173.391 55.4119 181.444 46.5869 192.202 45.596C203.006 44.6051 212.527 51.8045 213.423 61.6513ZM197.179 52.4702C196.962 50.1014 194.891 48.3364 192.526 48.5532C192.526 48.5532 192.526 48.5532 192.48 48.5532C192.48 48.5532 192.48 48.5532 192.433 48.5532C190.099 48.7699 188.399 50.8755 188.616 53.2598L190.563 74.4244C190.78 76.7932 192.851 78.5582 195.169 78.3414C195.216 78.3414 195.216 78.3414 195.216 78.3414C195.262 78.3414 195.262 78.3414 195.262 78.3414C197.627 78.1247 199.342 76.0191 199.126 73.6348L197.179 52.4702Z" fill="#2D1014"/>
</g>
<g opacity="0.3">
<path opacity="0.3" d="M249.715 42.4685L251.153 58.1678C252.049 67.9836 245.063 76.7003 235.573 77.5673L234.073 77.7066C224.583 78.5891 216.128 71.2814 215.216 61.481L213.779 45.7818C213.748 45.3792 214.011 45.0076 214.459 44.9612L226.268 43.8774C226.701 43.831 227.041 44.1561 227.087 44.5587L229.544 71.2195C229.745 73.3251 231.616 74.9817 233.764 74.7804C233.811 74.7804 233.811 74.7804 233.811 74.7804L235.31 74.6411C235.31 74.6411 235.31 74.6411 235.356 74.6411C237.505 74.4398 239.05 72.4736 238.865 70.3679L236.407 43.7071C236.376 43.3046 236.639 42.933 237.087 42.8865L248.896 41.8028C249.283 41.7563 249.669 42.0815 249.715 42.4685Z" fill="#2D1014"/>
</g>
<g opacity="0.3">
<path opacity="0.3" d="M285.73 71.5291L273.735 72.6284C273.473 72.6593 273.194 72.551 273.04 72.2878L266.038 61.7132L267.027 72.489C267.074 72.9225 266.795 73.2632 266.347 73.3096L255.991 74.2695C255.559 74.316 255.219 74.0373 255.172 73.5883L252.282 42.2208C252.251 41.8183 252.514 41.4467 252.962 41.4002L270.613 39.7746C276.456 39.2327 281.943 43.5213 282.484 49.4202C282.824 53.1205 280.938 56.6195 278.156 58.787L286.039 70.8324C286.271 71.1266 286.085 71.4982 285.73 71.5291ZM272.53 50.3491C272.159 46.2617 269.454 42.8711 267.306 43.0723L265.203 43.2736C264.724 43.3201 264.4 43.7071 264.446 44.1406L265.713 57.9045C265.76 58.3381 266.131 58.6632 266.625 58.6167L268.728 58.4155C270.861 58.2142 272.916 54.4365 272.53 50.3491Z" fill="#2D1014"/>
</g>
</g>
<path d="M177.348 46.2616L168.631 67.5964L169.635 78.5116C169.682 78.9451 169.357 79.2857 168.955 79.3322L158.553 80.2921C158.151 80.323 157.78 80.0598 157.734 79.6108L156.76 69.0518L144.673 49.2807C144.457 48.8936 144.689 48.4292 145.121 48.3982L155.214 47.4693C155.956 47.4073 156.652 47.7325 157.023 48.3672L166.776 64.3296L174.149 46.2152C174.303 45.89 174.581 45.6888 174.891 45.6578L176.73 45.4875C177.178 45.441 177.487 45.8591 177.348 46.2616Z" fill="white"/>
<path d="M215.495 58.4928C216.391 68.3087 208.354 77.1182 197.55 78.1091C186.792 79.1 177.271 71.9006 176.374 62.1002C175.462 52.2534 183.515 43.4284 194.273 42.4375C205.077 41.4466 214.598 48.646 215.495 58.4928ZM199.234 49.2962C199.018 46.9274 196.947 45.1624 194.582 45.3792C194.582 45.3792 194.582 45.3792 194.536 45.3792C194.536 45.3792 194.536 45.3792 194.489 45.3792C192.155 45.5959 190.455 47.7015 190.671 50.0858L192.619 71.2504C192.835 73.6192 194.907 75.3842 197.225 75.1674C197.271 75.1674 197.271 75.1674 197.271 75.1674C197.318 75.1674 197.318 75.1674 197.318 75.1674C199.683 74.9507 201.398 72.8451 201.182 70.4608L199.234 49.2962Z" fill="white"/>
<path d="M251.772 39.31L253.209 55.0092C254.106 64.8251 247.12 73.5418 237.629 74.4088L236.13 74.5481C226.64 75.4306 218.185 68.1229 217.273 58.3225L215.835 42.6233C215.805 42.2207 216.067 41.8491 216.516 41.8027L228.324 40.7189C228.757 40.6725 229.097 40.9976 229.144 41.4001L231.601 68.061C231.802 70.1666 233.672 71.8232 235.821 71.6219C235.867 71.6219 235.867 71.6219 235.867 71.6219L237.366 71.4826C237.366 71.4826 237.366 71.4826 237.413 71.4826C239.561 71.2813 241.107 69.3151 240.921 67.2094L238.464 40.5486C238.433 40.1461 238.696 39.7745 239.144 39.728L250.953 38.6443C251.355 38.5978 251.741 38.9075 251.772 39.31Z" fill="white"/>
<path d="M287.801 68.3706L275.807 69.4699C275.544 69.5008 275.266 69.3925 275.111 69.1293L268.109 58.5547L269.099 69.3305C269.145 69.764 268.867 70.1047 268.419 70.1511L258.063 71.111C257.63 71.1575 257.29 70.8788 257.243 70.4298L254.353 39.0623C254.322 38.6597 254.585 38.2882 255.033 38.2417L272.685 36.6161C278.527 36.0742 284.014 40.3628 284.555 46.2616C284.895 49.962 283.01 53.461 280.227 55.6285L288.11 67.6739C288.327 67.9681 288.141 68.3397 287.801 68.3706ZM274.601 47.1906C274.23 43.1032 271.525 39.7126 269.377 39.9138L267.275 40.1151C266.796 40.1615 266.471 40.5486 266.517 40.9821L267.785 54.746C267.831 55.1795 268.202 55.5047 268.697 55.4582L270.799 55.257C272.932 55.0557 274.972 51.278 274.601 47.1906Z" fill="white"/>
</g>
<defs>
<clipPath id="clip0">
<rect width="400" height="185" fill="white"/>
</clipPath>
</defs>
</svg>
