<svg width="512" height="186" viewBox="0 0 512 186" fill="none" xmlns="http://www.w3.org/2000/svg">
<path d="M374.588 35.3805L53.9325 96.3145C37.9456 99.3573 27.8528 112.212 32.2383 123.948L47.0121 163.552C50.3401 172.478 61.2106 178.145 73.5429 177.384L366.999 159.267C380.839 158.413 392.441 149.766 394.043 139.131L406.468 56.7268C408.568 42.6305 392.612 31.9496 374.588 35.3805Z" fill="#FC6170"/>
<path d="M342.785 186C342.069 186 341.37 185.969 340.654 185.922L71.6766 164.902C60.0285 163.986 50.9154 155.68 49.5002 144.705L44.0416 102.68C43.1863 96.0195 45.1925 89.2974 49.6868 83.7706C54.5544 77.7936 61.7703 74.0057 69.4994 73.3847L370.389 44.2761H370.404C374.759 43.9345 378.911 44.5711 382.736 46.1701C386.344 47.6915 389.532 50.0512 391.958 53.0164C396.764 58.8847 398.288 66.5694 396.126 74.0988L369.658 166.253C366.345 177.819 355.008 186 342.785 186ZM370.529 45.8285L69.6238 74.9216C62.3146 75.496 55.4875 79.0822 50.8843 84.7331C46.6543 89.9183 44.7726 96.2213 45.5812 102.462L51.0398 144.487C51.693 149.533 54.0257 154.004 57.7891 157.435C61.5681 160.881 66.4046 162.915 71.7854 163.334L340.763 184.354C341.432 184.401 342.101 184.432 342.769 184.432C354.324 184.432 365.008 176.716 368.149 165.802L394.602 73.6486C396.624 66.616 395.209 59.4591 390.714 53.979C388.444 51.2156 385.473 49.0111 382.099 47.5828C378.522 46.0925 374.619 45.5025 370.529 45.8285Z" fill="#FAE661"/>
<path d="M139.124 10.3083C139.139 10.4325 139.124 10.6188 139.093 10.8672C138.75 12.0936 138.253 13.879 137.615 16.2697C133.447 33.3468 129.062 52.7525 124.474 74.4869C121.255 89.7786 117.756 109.231 113.961 132.844C113.417 136.011 112.764 140.808 112.002 147.235C111.722 150.557 110.913 152.296 109.576 152.467C108.658 152.576 107.476 151.334 106.03 148.725C104.755 146.412 104.024 144.627 103.884 143.416C103.153 137.548 104.817 125.33 108.876 106.731C105.657 106.825 100.82 107.259 94.3977 108.051C86.6842 108.998 81.8166 109.635 79.7949 109.945C75.5182 118.173 70.4329 128.373 64.5389 140.544C62.7816 143.99 60.2934 149.238 57.0587 156.286C55.7523 159.36 54.3994 160.99 52.9997 161.161C51.7712 161.316 50.9314 159.515 50.4649 155.774C50.2471 154.05 50.1538 152.762 50.1694 151.877C50.2938 147.794 56.6077 134.288 69.1266 111.296C64.6011 111.979 60.8066 112.615 57.6963 113.205C53.0153 114.106 51.258 114.494 52.4243 114.354C51.6312 114.447 50.807 113.795 49.9517 112.398C49.2518 111.234 48.8786 110.209 48.8319 109.324L48.7853 108.951C48.6298 107.213 57.1364 104.806 74.2897 101.748C79.1417 93.1474 84.4448 83.7861 90.2299 73.6641C92.7803 69.193 105.595 46.2943 128.673 4.95232C128.984 4.50211 129.388 4.23819 129.886 4.19162C130.617 4.09847 131.457 4.28476 132.374 4.71945C133.167 4.5642 134.458 5.24729 136.262 6.79974C138.082 8.3522 139.03 9.51655 139.124 10.3083ZM128.238 21.9207C118.331 39.1995 103.822 65.2498 84.678 100.102C96.2639 98.4724 105.082 97.4012 111.131 96.9044C112.313 91.4708 118.02 66.4762 128.238 21.9207Z" fill="#0E7C74"/>
<path d="M168.096 34.744C165.795 38.2681 158.89 52.1471 147.397 76.3809C147.148 76.9088 145.904 79.7032 143.68 84.7642C146.2 82.5752 148.05 81.3954 149.217 81.2557C150.694 81.0694 151.705 81.1936 152.249 81.6282C153.353 81.9853 154.909 82.8236 156.946 84.1277C157.615 84.5469 158.377 85.587 159.201 87.2481C160.025 88.9093 160.445 90.0891 160.476 90.7722C160.6 93.3027 160.041 96.5629 158.796 100.568C157.117 106.111 155.033 110.799 152.56 114.602C150.072 118.422 147.444 121.635 144.66 124.274C141.426 127.348 138.237 129.227 135.096 129.925C134.738 130.034 134.381 130.003 134.054 129.817C134.007 129.894 133.914 129.987 133.805 130.08C133.339 130.391 132.686 130.205 131.815 129.522C130.959 128.838 129.855 127.426 128.533 125.268C127.18 126.929 126.356 127.736 126.03 127.721C125.641 127.643 125.112 127.193 124.412 126.386C123.728 125.578 123.355 125.004 123.324 124.709C122.577 117.211 127.74 100.615 138.813 74.8906C150.228 48.4367 157.381 33.9212 160.305 31.3131C160.974 30.6766 162.264 30.3816 164.208 30.4592C164.706 30.4592 165.453 30.8939 166.432 31.7788C167.599 32.819 168.158 33.797 168.096 34.744ZM153.074 89.8563C153.042 88.6143 152.591 87.7139 151.705 87.1395C151.378 86.9997 150.352 87.2792 148.641 87.9778C146.231 89.5768 142.841 94.0945 138.471 101.515C134.567 108.144 132.421 112.941 132.032 115.907C131.504 120.191 131.721 122.986 132.701 124.305C132.919 124.523 133.168 124.616 133.479 124.585C133.603 124.569 133.728 124.554 133.852 124.538C135.049 124.135 135.609 123.917 135.547 123.871C135.516 123.871 135.532 123.902 135.563 123.964C136.434 123.483 137.335 122.722 138.269 121.682C142.981 116.512 146.558 111.001 149.015 105.179C151.674 98.7519 153.042 93.6443 153.074 89.8563Z" fill="#0E7C74"/>
<path d="M201.08 97.9291C196.321 103.176 191.376 105.94 186.244 106.188C185.793 107.058 185.31 107.927 184.797 108.796C181.858 114.199 178.483 118.592 174.673 121.977C171.921 124.367 169.899 125.64 168.608 125.796C167.131 125.982 166.12 125.858 165.576 125.423C164.472 125.066 162.916 124.228 160.879 122.924C160.21 122.504 159.448 121.464 158.624 119.803C157.8 118.142 157.38 116.962 157.349 116.279C157.225 113.749 157.784 110.488 159.029 106.483C160.708 101.003 162.792 96.3456 165.28 92.4955C167.753 88.6454 170.397 85.4163 173.18 82.7771C176.415 79.7032 179.603 77.8248 182.744 77.1262C183.102 77.0175 183.444 77.033 183.771 77.1572C183.818 77.0951 183.911 77.033 184.02 76.9709C184.486 76.6604 185.155 76.8622 186.057 77.5608C188.405 79.3927 189.851 81.5662 190.411 84.1122C191.453 88.5212 190.909 93.8772 188.763 100.165C191.127 100.118 193.382 99.3263 195.559 97.7428C196.85 96.6561 198.109 95.5383 199.338 94.3895C200.255 93.7219 200.986 93.3493 201.531 93.2872C202.199 93.2096 202.588 93.5356 202.681 94.2653C202.806 95.321 202.277 96.5319 201.08 97.9291ZM180.194 104.03C178.421 102.136 177.395 99.0934 177.13 94.9018C177.053 92.6818 177.379 90.0581 178.11 87.0464C174.005 92.0763 170.91 97.0287 168.841 101.872C166.151 108.284 164.783 113.392 164.767 117.18C164.798 118.422 165.249 119.322 166.136 119.896C166.462 120.036 167.489 119.757 169.199 119.058C171.61 117.459 175 112.941 179.37 105.521L180.194 104.03ZM185.108 82.7461L184.999 82.6684C184.859 82.5598 184.751 82.4821 184.688 82.4356C184.564 82.4511 184.44 82.4666 184.315 82.4821C184.191 82.4977 184.066 82.5132 183.942 82.5287C183.818 82.5442 183.724 82.5908 183.678 82.6529C182.636 83.8328 182.169 86.6893 182.293 91.207C182.34 94.1256 182.807 96.3301 183.678 97.8359C184.782 95.5849 185.482 93.3649 185.761 91.1604C186.368 86.8445 186.15 84.0501 185.108 82.7461Z" fill="#0E7C74"/>
<path d="M233.241 76.1791C233.256 77.3589 231.919 81.1159 229.229 87.4499C226.523 93.7839 224.143 98.6897 222.091 102.183C219.027 107.601 215.497 111.979 211.5 115.332C208.639 117.8 206.555 119.105 205.264 119.275C203.911 119.446 202.916 119.384 202.247 119.089C200.443 118.623 198.515 117.785 196.431 116.543C195.762 116.124 194.938 115.084 193.942 113.407C192.963 111.73 192.465 110.582 192.45 109.961C192.387 107.43 193.009 104.154 194.316 100.134C196.011 94.7775 198.421 89.8252 201.532 85.2765C203.258 82.5752 205.482 79.4858 208.219 75.9772C208.39 75.8996 208.639 75.8375 208.95 75.7909C209.992 75.6667 211.251 75.9151 212.729 76.5672C214.206 77.2037 214.999 77.9489 215.108 78.7872C215.155 79.1598 215.015 79.5479 214.688 79.9515C211.718 83.103 208.685 88.2261 205.575 95.3209C202.698 101.764 201.252 106.871 201.221 110.659C201.236 111.839 201.718 112.739 202.667 113.36C202.993 113.5 204.051 113.221 205.824 112.507C208.296 110.892 211.811 106.39 216.368 98.9692C220.924 91.5484 224.812 83.4446 228.016 74.6732C228.249 74.0211 228.762 73.6485 229.555 73.5554C231.935 73.2604 233.163 74.1298 233.241 76.1791Z" fill="#0E7C74"/>
<path d="M287.158 18.3811C287.36 18.5364 287.5 18.8934 287.562 19.4368C287.749 20.9582 287.578 22.8522 287.049 25.1498C286.489 27.6338 285.774 28.9223 284.919 29.0154C282.508 29.1086 276.925 29.4967 268.185 30.1643C262.431 40.4415 257.532 50.3462 253.489 59.8473C249.819 68.3858 246.149 76.8778 242.463 85.3542C237.487 97.4013 235.169 104.838 235.527 107.648C235.667 108.812 236.476 109.309 237.938 109.122C241.359 108.703 247.144 105.226 255.277 98.6743C255.962 98.162 256.662 97.8515 257.392 97.7583C258.497 97.6186 259.103 97.9912 259.196 98.8451C259.29 99.6368 258.792 100.568 257.672 101.639C248.513 110.613 241.359 115.41 236.211 116.046C235.294 116.155 234.47 116.108 233.77 115.876C232.868 115.674 231.935 114.618 230.955 112.693C230.131 111.001 229.618 109.479 229.462 108.129C228.607 101.158 233.77 84.6245 244.982 58.4967C249.026 48.949 253.147 39.9448 257.33 31.4839L256.599 31.577C226.585 35.2719 206.959 38.0508 197.737 39.9137C197.255 40.0379 196.431 39.4325 195.264 38.0818C194.114 36.7467 193.476 35.4582 193.398 34.2317C193.305 33.0053 200.894 30.9871 216.166 28.1771C228.498 25.864 240.488 23.9234 252.105 22.3554C255.044 21.9983 258.621 21.5171 262.851 20.9427C263.675 19.561 264.251 18.6916 264.577 18.3501C265.246 17.7756 266.583 17.5117 268.589 17.5738C269.46 17.5894 270.487 18.3035 271.653 19.7007C281.497 18.3501 286.66 17.8998 287.158 18.3811Z" fill="#0E7C74"/>
<path d="M341.184 11.7366C341.386 11.8918 341.526 12.2489 341.589 12.7922C341.775 14.3137 341.604 16.2077 341.075 18.5053C340.516 20.9892 339.8 22.2778 338.945 22.3709C336.534 22.4641 330.951 22.8522 322.211 23.5197C316.457 33.797 311.559 43.7017 307.515 53.2027C303.845 61.7412 300.175 70.2332 296.489 78.7096C291.513 90.7567 289.196 98.193 289.554 101.003C289.693 102.167 290.502 102.664 291.964 102.478C295.385 102.059 301.17 98.5811 309.304 92.0297C309.988 91.5174 310.688 91.2069 311.419 91.1138C312.523 90.974 313.129 91.3466 313.223 92.2005C313.316 92.9922 312.818 93.9237 311.699 94.9949C302.539 103.968 295.385 108.765 290.238 109.402C289.32 109.51 288.496 109.464 287.796 109.231C286.894 109.029 285.961 107.973 284.981 106.048C284.157 104.356 283.644 102.835 283.488 101.484C282.633 94.5136 287.796 77.98 299.009 51.8521C303.052 42.3045 307.173 33.3002 311.357 24.8393L310.626 24.9325C280.611 28.6273 260.986 31.4062 251.764 33.2692C251.281 33.3934 250.457 32.7879 249.291 31.4373C248.14 30.1022 247.502 28.8136 247.425 27.5872C247.331 26.3607 254.92 24.3425 270.192 21.5326C282.524 19.2194 294.514 17.2788 306.131 15.7109C309.071 15.3538 312.647 14.8725 316.877 14.2981C317.702 12.9164 318.277 12.0471 318.604 11.7055C319.272 11.1311 320.61 10.8672 322.616 10.9293C323.487 10.9448 324.513 11.6589 325.679 13.0562C335.524 11.69 340.687 11.2398 341.184 11.7366Z" fill="#0E7C74"/>
<path d="M351.307 12.0936C348.648 16.2697 341.417 30.7697 329.629 55.5935C325.445 64.5512 320.267 77.0019 314.093 92.9456C317.452 89.9805 323.455 83.3825 332.07 73.1208C333.408 71.3975 335.927 68.1374 339.628 63.3403C341.665 60.67 342.987 59.2884 343.594 59.2107C344.76 59.071 346.051 59.7541 347.482 61.2445C348.679 61.8499 349.332 63.3869 349.457 65.8553C349.519 66.352 348.493 68.1218 346.378 71.1802C345.165 72.95 343.267 76.7846 340.717 82.6994C338.68 87.3568 337.529 91.0827 337.249 93.8461C337.016 96.0506 337.28 97.4167 338.026 97.9446C338.291 98.0998 338.617 98.1464 338.975 98.0998C341.432 97.8048 345.833 92.1849 352.194 81.2712C353.267 79.3927 354.262 78.3991 355.18 78.2904C356.284 78.1507 356.921 78.7872 357.093 80.2C357.124 80.4484 357.093 80.6657 356.984 80.8675C353.174 89.3439 349.783 95.383 346.813 98.9692C343.625 102.835 340.033 105.024 336.051 105.505C335.134 105.614 333.968 104.744 332.552 102.866C330.982 100.77 330.033 98.3327 329.691 95.5848C329.427 93.3803 330.888 87.6828 334.107 78.4767C333.237 79.4548 332.381 80.3707 331.557 81.2091C330.577 82.3268 325.865 87.776 317.436 97.572C312.164 103.689 309.147 106.794 308.417 106.871C308.354 106.871 308.292 106.856 308.214 106.809C307.841 106.794 307.312 106.374 306.613 105.567C305.928 104.76 305.555 104.17 305.508 103.797C304.777 96.3766 309.941 79.8429 321.029 54.1652C332.926 26.5936 340.375 11.4416 343.407 8.70928C344.076 8.13487 345.413 7.87095 347.42 7.93305C347.855 7.94857 348.633 8.39879 349.737 9.31474C350.856 10.2152 351.37 11.1466 351.307 12.0936Z" fill="#0E7C74"/>
<path d="M384.789 85.261C381.803 88.2262 377.527 91.3932 371.959 94.731C365.785 98.5811 360.949 100.723 357.45 101.158C356.408 101.282 355.553 101.251 354.868 101.065C354.184 100.863 353.469 100.165 352.691 98.9692C352.349 98.7673 351.976 98.5034 351.571 98.1774C350.965 97.8204 350.265 96.8112 349.472 95.1346C348.679 93.4735 348.306 92.2936 348.337 91.6105C348.228 90.2599 348.663 87.4499 349.627 83.1807C351.4 77.8868 353.546 73.3847 356.081 69.7053C358.616 66.026 361.244 62.9522 363.997 60.5148C367.309 57.6272 370.482 55.873 373.514 55.252C373.826 55.2209 374.09 55.1744 374.339 55.1433C374.401 55.1433 374.463 55.1278 374.525 55.1278C374.992 54.8173 375.629 54.9881 376.454 55.6401C378.678 57.5496 380.046 59.7696 380.544 62.2691C381.15 65.1411 381.026 68.4634 380.186 72.2669C380.108 72.5929 380.015 72.8568 379.906 73.0587C379.533 74.0988 378.74 75.5892 377.511 77.4832C376.283 79.3927 372.846 80.6812 367.216 81.3798C364.028 81.7679 361.307 81.6593 359.052 81.0228C356.672 86.9066 355.755 91.0516 356.299 93.4424C357.232 94.0013 358.134 94.2342 358.989 94.1255C361.618 93.7995 366.019 91.9521 372.193 88.5522C377.2 85.8509 380.59 83.8172 382.348 82.4355C383.016 81.8611 383.732 81.5351 384.463 81.4419C385.567 81.3022 386.173 81.6593 386.282 82.5131C386.407 83.2738 385.893 84.2053 384.789 85.261ZM375.334 60.8253C375.256 60.6545 375.085 60.5459 374.821 60.5148C373.546 60.7942 372.224 61.6791 370.855 63.154C367.605 66.616 364.697 70.5282 362.131 74.8906C363.888 75.0458 366.128 74.8285 368.865 74.254C370.917 73.8194 371.975 73.5865 372.053 73.5865C373.188 73.1984 374.059 72.4687 374.681 71.3975C376.22 65.7776 376.438 62.2536 375.334 60.8253Z" fill="#0E7C74"/>
<path d="M140.897 6.14772C140.912 6.27191 140.897 6.45821 140.866 6.7066C140.524 7.93304 140.026 9.71837 139.388 12.1092C135.221 29.1862 130.835 48.5919 126.247 70.3263C123.028 85.618 119.529 105.07 115.735 128.683C115.19 131.85 114.537 136.647 113.775 143.075C113.495 146.397 112.687 148.136 111.349 148.306C110.432 148.415 109.25 147.173 107.803 144.565C106.528 142.252 105.797 140.466 105.657 139.255C104.926 133.387 106.59 121.169 110.649 102.571C107.43 102.664 102.594 103.099 96.171 103.89C88.4575 104.837 83.5899 105.474 81.5682 105.784C77.2916 114.013 72.2063 124.212 66.3123 136.383C64.5549 139.83 62.0667 145.077 58.832 152.125C57.5257 155.199 56.1727 156.829 54.7731 157C53.5445 157.155 52.7048 155.354 52.2382 151.613C52.0205 149.89 51.9272 148.601 51.9427 147.716C52.0671 143.649 58.381 130.127 70.8999 107.151C66.3745 107.834 62.5799 108.47 59.4696 109.06C54.7886 109.961 53.0313 110.349 54.1977 110.209C53.4046 110.302 52.5803 109.65 51.725 108.253C51.0252 107.089 50.652 106.064 50.6053 105.179L50.5431 104.791C50.3876 103.052 58.8942 100.646 76.0475 97.5875C80.8995 88.9869 86.2025 79.6256 91.9877 69.5035C94.5537 65.0325 107.368 42.1337 130.431 0.791736C130.742 0.341523 131.146 0.0776053 131.644 0.0310315C132.375 -0.062116 133.215 0.124179 134.132 0.558867C134.925 0.403621 136.216 1.0867 138.02 2.63916C139.824 4.19162 140.788 5.35596 140.897 6.14772ZM129.995 17.7601C120.089 35.039 105.58 61.0892 86.4358 95.9419C98.0216 94.3118 106.839 93.2406 112.889 92.7438C114.086 87.3102 119.778 62.3157 129.995 17.7601Z" fill="#70E4DE"/>
<path d="M169.854 30.5834C167.552 34.1075 160.648 47.9864 149.155 72.2203C148.906 72.7482 147.662 75.5426 145.438 80.6036C147.958 78.4146 149.808 77.2348 150.975 77.095C152.452 76.9087 153.463 77.0329 154.007 77.4676C155.111 77.8247 156.666 78.663 158.704 79.9671C159.372 80.3862 160.134 81.4264 160.959 83.0875C161.783 84.7487 162.203 85.9285 162.234 86.6116C162.358 89.1421 161.798 92.4023 160.554 96.4076C158.875 101.95 156.791 106.638 154.318 110.442C151.83 114.261 149.202 117.474 146.418 120.114C143.183 123.188 139.995 125.066 136.854 125.765C136.496 125.873 136.139 125.842 135.812 125.656C135.765 125.734 135.672 125.827 135.563 125.92C135.097 126.23 134.443 126.044 133.573 125.361C132.717 124.678 131.613 123.265 130.291 121.107C128.938 122.768 128.114 123.576 127.787 123.56C127.399 123.482 126.87 123.032 126.17 122.225C125.486 121.418 125.113 120.843 125.081 120.548C124.335 113.05 129.498 96.4542 140.571 70.73C151.985 44.2761 159.139 29.7606 162.063 27.168C162.731 26.5315 164.022 26.2365 165.966 26.3141C166.464 26.3141 167.21 26.7488 168.19 27.6337C169.372 28.6583 169.932 29.6364 169.854 30.5834ZM154.831 85.6956C154.8 84.4537 154.349 83.5533 153.463 82.9788C153.136 82.8391 152.11 83.1186 150.399 83.8172C147.989 85.4162 144.598 89.9339 140.229 97.3546C136.325 103.984 134.179 108.781 133.79 111.746C133.261 116.031 133.479 118.825 134.459 120.145C134.677 120.362 134.925 120.455 135.237 120.424C135.361 120.409 135.485 120.393 135.61 120.378C136.807 119.974 137.367 119.757 137.305 119.71C137.274 119.71 137.289 119.741 137.32 119.803C138.191 119.322 139.093 118.561 140.026 117.521C144.738 112.351 148.315 106.84 150.772 101.018C153.447 94.5912 154.8 89.4836 154.831 85.6956Z" fill="#70E4DE"/>
<path d="M202.839 93.7685C198.08 99.0158 193.134 101.779 188.002 102.028C187.551 102.897 187.069 103.766 186.556 104.636C183.617 110.038 180.242 114.432 176.432 117.816C173.68 120.207 171.658 121.48 170.367 121.635C168.89 121.821 167.879 121.697 167.335 121.262C166.23 120.905 164.675 120.067 162.638 118.763C161.969 118.344 161.207 117.304 160.383 115.643C159.559 113.981 159.139 112.802 159.108 112.119C158.983 109.588 159.543 106.328 160.787 102.323C162.467 96.8423 164.551 92.1849 167.039 88.3349C169.512 84.4848 172.155 81.2556 174.939 78.6165C178.174 75.5426 181.362 73.6641 184.503 72.9655C184.861 72.8568 185.203 72.8724 185.53 72.9966C185.576 72.9345 185.67 72.8724 185.779 72.8103C186.245 72.4998 186.914 72.7016 187.816 73.4002C190.164 75.2321 191.61 77.4055 192.17 79.9516C193.212 84.3606 192.668 89.7165 190.522 96.004C192.886 95.9574 195.141 95.1657 197.318 93.5822C198.609 92.4954 199.868 91.3777 201.097 90.2289C202.014 89.5613 202.745 89.1887 203.289 89.1266C203.958 89.049 204.347 89.375 204.44 90.1047C204.58 91.1603 204.036 92.3712 202.839 93.7685ZM181.953 99.8696C180.18 97.9756 179.154 94.9328 178.889 90.7412C178.812 88.5211 179.138 85.8975 179.869 82.9012C175.763 87.9312 172.669 92.8836 170.6 97.7272C167.91 104.139 166.541 109.246 166.526 113.034C166.557 114.276 167.008 115.177 167.894 115.751C168.221 115.891 169.247 115.612 170.958 114.913C173.368 113.314 176.759 108.796 181.129 101.376L181.953 99.8696ZM186.883 78.5854L186.774 78.5078C186.634 78.3991 186.525 78.3215 186.463 78.2749C186.338 78.2904 186.214 78.306 186.09 78.3215C185.965 78.337 185.841 78.3525 185.716 78.3681C185.592 78.3836 185.499 78.4302 185.452 78.4923C184.41 79.6721 183.943 82.5287 184.068 87.0463C184.115 89.9649 184.581 92.1694 185.452 93.6753C186.556 91.4242 187.256 89.2042 187.536 86.9997C188.127 82.6839 187.909 79.8895 186.883 78.5854Z" fill="#70E4DE"/>
<path d="M234.999 72.0185C235.014 73.1984 233.677 76.9554 230.986 83.2894C228.281 89.6234 225.901 94.5292 223.848 98.0222C220.785 103.44 217.255 107.818 213.258 111.172C210.396 113.64 208.312 114.944 207.022 115.115C205.669 115.286 204.673 115.223 204.005 114.929C202.201 114.463 200.272 113.624 198.189 112.382C197.52 111.963 196.696 110.923 195.7 109.247C194.721 107.57 194.223 106.421 194.207 105.8C194.145 103.27 194.767 99.9939 196.074 95.973C197.769 90.617 200.179 85.6647 203.289 81.1159C205.016 78.4147 207.239 75.3253 209.976 71.8167C210.148 71.7391 210.396 71.677 210.707 71.6304C211.749 71.5062 213.009 71.7546 214.486 72.4067C215.964 73.0432 216.757 73.7883 216.866 74.6267C216.912 74.9993 216.772 75.3874 216.446 75.791C213.476 78.9425 210.443 84.0656 207.333 91.1604C204.456 97.6031 203.009 102.711 202.978 106.499C202.994 107.679 203.476 108.579 204.425 109.2C204.751 109.34 205.809 109.06 207.582 108.346C210.054 106.732 213.569 102.229 218.125 94.8086C222.682 87.3879 226.57 79.2996 229.773 70.5127C230.007 69.8606 230.52 69.488 231.313 69.3949C233.708 69.0999 234.937 69.9693 234.999 72.0185Z" fill="#70E4DE"/>
<path d="M288.916 14.2205C289.118 14.3757 289.258 14.7328 289.32 15.2762C289.507 16.7976 289.336 18.6916 288.807 20.9892C288.247 23.4731 287.532 24.7617 286.676 24.8548C284.266 24.948 278.683 25.3361 269.943 26.0036C264.189 36.2809 259.29 46.1856 255.247 55.6866C251.577 64.2252 247.907 72.7171 244.221 81.1935C239.245 93.2406 236.927 100.677 237.285 103.487C237.425 104.651 238.234 105.148 239.695 104.962C243.117 104.542 248.902 101.065 257.035 94.5136C257.72 94.0013 258.419 93.6908 259.15 93.5977C260.255 93.4579 260.861 93.8305 260.954 94.6844C261.048 95.4761 260.55 96.4076 259.43 97.4788C250.27 106.452 243.117 111.249 237.969 111.886C237.052 111.994 236.228 111.948 235.528 111.715C234.626 111.513 233.693 110.457 232.713 108.532C231.889 106.84 231.375 105.319 231.22 103.968C230.365 96.9976 235.528 80.4639 246.74 54.336C250.784 44.7884 254.905 35.7841 259.088 27.3232L258.357 27.4164C228.343 31.1112 208.717 33.8901 199.495 35.7531C199.013 35.8773 198.189 35.2718 197.022 33.9212C195.871 32.5861 195.234 31.2975 195.156 30.0711C195.063 28.8446 202.652 26.8264 217.923 24.0165C230.256 21.7033 242.246 19.7628 253.863 18.1948C256.802 17.8377 260.379 17.3565 264.609 16.782C265.433 15.4004 266.009 14.531 266.335 14.1894C267.004 13.615 268.341 13.3511 270.347 13.4132C271.218 13.4287 272.245 14.1429 273.411 15.5401C283.255 14.1894 288.418 13.7237 288.916 14.2205Z" fill="#70E4DE"/>
<path d="M342.957 7.57597C343.159 7.73121 343.299 8.08828 343.361 8.63164C343.548 10.153 343.377 12.047 342.848 14.3447C342.288 16.8286 341.573 18.1172 340.717 18.2103C338.307 18.3035 332.724 18.6916 323.984 19.3591C318.23 29.6364 313.331 39.5411 309.288 49.0421C305.618 57.5807 301.948 66.0726 298.262 74.549C293.286 86.5961 290.968 94.0324 291.326 96.8423C291.466 98.0067 292.275 98.5034 293.737 98.3172C297.158 97.898 302.943 94.4205 311.076 87.8691C311.761 87.3568 312.46 87.0463 313.191 86.9532C314.295 86.8134 314.902 87.186 314.995 88.0399C315.089 88.8316 314.591 89.7631 313.471 90.8343C304.343 99.823 297.189 104.636 292.041 105.257C291.124 105.365 290.3 105.319 289.6 105.086C288.698 104.884 287.765 103.828 286.785 101.903C285.961 100.211 285.448 98.6897 285.292 97.3391C284.437 90.3686 289.6 73.8349 300.812 47.707C304.856 38.1594 308.977 29.1551 313.16 20.6942L312.429 20.7874C282.415 24.4822 262.789 27.2611 253.567 29.1241C253.085 29.2483 252.261 28.6428 251.095 27.2922C249.944 25.9571 249.306 24.6685 249.228 23.4421C249.135 22.2156 256.724 20.1975 271.996 17.3875C284.328 15.0743 296.318 13.1338 307.935 11.5658C310.874 11.2087 314.451 10.7275 318.681 10.153C319.505 8.77136 320.081 7.90198 320.407 7.56044C321.076 6.98603 322.413 6.72212 324.419 6.78421C325.29 6.79974 326.317 7.51387 327.483 8.91108C337.28 7.52939 342.459 7.07918 342.957 7.57597Z" fill="#70E4DE"/>
<path d="M353.065 7.93305C350.406 12.1092 343.175 26.6091 331.387 51.4329C327.203 60.3906 322.025 72.8413 315.851 88.7851C319.21 85.8199 325.213 79.2219 333.828 68.9602C335.166 67.2369 337.685 63.9768 341.386 59.1797C343.423 56.5095 344.745 55.1278 345.352 55.0501C346.518 54.9104 347.809 55.5935 349.24 57.0839C350.437 57.6893 351.09 59.2263 351.215 61.6947C351.277 62.1915 350.251 63.9613 348.136 67.0196C346.923 68.7894 345.025 72.624 342.475 78.5388C340.438 83.1962 339.287 86.9221 339.007 89.6855C338.773 91.89 339.038 93.2561 339.784 93.784C340.049 93.9392 340.375 93.9858 340.733 93.9392C343.19 93.6442 347.591 88.0244 353.952 77.1106C355.025 75.2321 356.02 74.2385 356.938 74.1299C358.042 73.9901 358.679 74.6266 358.85 76.0394C358.882 76.2878 358.85 76.5051 358.742 76.7069C354.932 85.1834 351.541 91.2224 348.571 94.8086C345.383 98.6742 341.79 100.863 337.809 101.344C336.892 101.453 335.725 100.584 334.31 98.7053C332.74 96.6094 331.791 94.1721 331.449 91.4242C331.184 89.2197 332.646 83.5222 335.865 74.3161C334.994 75.2942 334.139 76.2101 333.315 77.0485C332.335 78.1662 327.623 83.6154 319.194 93.4114C313.922 99.5281 310.905 102.633 310.174 102.711C310.112 102.711 310.05 102.695 309.972 102.648C309.599 102.633 309.07 102.214 308.37 101.407C307.686 100.599 307.313 100.009 307.266 99.6367C306.535 92.216 311.698 75.6823 322.787 50.0047C334.683 22.433 342.133 7.28102 345.165 4.54869C345.834 3.97428 347.171 3.71037 349.177 3.77246C349.613 3.78799 350.39 4.2382 351.495 5.15415C352.614 6.05458 353.143 6.98605 353.065 7.93305Z" fill="#70E4DE"/>
<path d="M386.547 81.1004C383.561 84.0656 379.285 87.2326 373.717 90.5703C367.543 94.4204 362.707 96.5628 359.208 96.9975C358.166 97.1217 357.31 97.0907 356.626 96.9044C355.942 96.7026 355.226 96.0039 354.449 94.8086C354.107 94.6067 353.734 94.3428 353.329 94.0168C352.723 93.6597 352.023 92.6506 351.23 90.974C350.437 89.3129 350.063 88.133 350.094 87.4499C349.986 86.0993 350.421 83.2893 351.385 79.0201C353.158 73.7262 355.304 69.2241 357.839 65.5447C360.374 61.8654 363.002 58.7915 365.755 56.3542C369.067 53.4666 372.24 51.7123 375.272 51.0914C375.583 51.0603 375.848 51.0137 376.096 50.9827C376.159 50.9827 376.221 50.9672 376.283 50.9672C376.75 50.6567 377.387 50.8274 378.211 51.4795C380.435 53.389 381.804 55.609 382.302 58.1085C382.908 60.9805 382.784 64.3028 381.944 68.1063C381.866 68.4323 381.773 68.6962 381.664 68.898C381.291 69.9382 380.498 71.4285 379.269 73.3225C378.04 75.2321 374.604 76.5206 368.974 77.2192C365.786 77.6073 363.064 77.4987 360.809 76.8622C358.43 82.746 357.513 86.891 358.057 89.2818C358.99 89.8407 359.892 90.0736 360.747 89.9649C363.375 89.6389 367.776 87.7914 373.95 84.3916C378.958 81.6903 382.348 79.6566 384.105 78.2749C384.774 77.7005 385.49 77.3745 386.22 77.2813C387.325 77.1416 387.931 77.4987 388.04 78.3525C388.164 79.1132 387.667 80.0292 386.547 81.1004ZM377.092 56.6647C377.014 56.4939 376.843 56.3852 376.579 56.3542C375.303 56.6336 373.981 57.5185 372.613 58.9934C369.363 62.4553 366.455 66.3675 363.889 70.7299C365.646 70.8852 367.885 70.6678 370.622 70.0934C372.675 69.6587 373.733 69.4259 373.81 69.4259C374.946 69.0378 375.817 68.3081 376.439 67.2369C377.978 61.617 378.196 58.0929 377.092 56.6647Z" fill="#70E4DE"/>
<g opacity="0.3">
<g opacity="0.3">
<path opacity="0.3" d="M36.2351 146.273L37.1993 162.061C37.8058 171.919 30.5122 180.442 20.9481 181.032L19.4396 181.125C9.87545 181.715 1.58654 174.139 0.98003 164.281L0.000289082 148.508C-0.0308138 148.105 0.264664 147.732 0.700104 147.716L12.6125 146.987C13.0479 146.956 13.3901 147.297 13.4056 147.685L15.0541 174.481C15.1785 176.608 17.0291 178.315 19.1908 178.176C19.2374 178.176 19.2374 178.176 19.2374 178.176L20.7459 178.083C20.7459 178.083 20.7459 178.083 20.7926 178.083C22.9698 177.943 24.5716 176.033 24.4471 173.906L22.7987 147.111C22.7676 146.707 23.0631 146.335 23.4985 146.319L35.4109 145.59C35.8308 145.543 36.204 145.885 36.2351 146.273Z" fill="#2D1014"/>
</g>
<g opacity="0.3">
<path opacity="0.3" d="M65.1614 175.661C62.8132 177.353 59.5629 178.486 55.9394 178.843C55.7684 178.905 55.5817 178.905 55.4107 178.921C49.7344 179.262 44.3225 176.359 40.9789 171.236C40.7768 170.895 40.8856 170.444 41.2278 170.196L42.5185 169.451C42.8607 169.249 43.3117 169.358 43.5138 169.699C45.0379 171.95 47.1529 173.875 49.6566 174.962C51.4762 175.738 53.7311 176.173 55.6751 175.878C56.3749 175.785 57.0747 175.397 57.479 174.791C58.7387 172.944 57.0591 170.817 55.5662 169.808C54.0266 168.752 52.2693 168.193 50.6208 167.355C45.4267 164.654 39.5482 161.595 38.9728 155.774C38.6929 152.731 39.8437 149.812 42.3319 147.484C44.7735 145.201 48.2726 143.696 52.3004 143.323C57.3391 142.795 62.3622 144.922 65.8457 149.02C66.0945 149.362 66.079 149.843 65.7368 150.092L64.5549 151.008C64.2595 151.241 63.8085 151.225 63.5285 150.899C61.4757 148.586 58.8942 147.189 55.8772 146.35C54.8819 146.055 53.7622 145.9 52.7514 146.179C50.7764 146.707 50.0299 148.788 50.8075 150.604C52.0049 153.414 55.6284 154.563 58.1944 155.743C63.1397 158.056 68.7227 160.648 69.2981 166.377C69.6247 170.196 68.2095 173.378 65.1614 175.661Z" fill="#2D1014"/>
</g>
<g opacity="0.3">
<path opacity="0.3" d="M100.431 174.729L89.5763 175.397C89.172 175.428 88.8143 175.179 88.6588 174.838L84.6154 165.461L75.9377 165.989L72.9829 175.8C72.8741 176.204 72.5319 176.452 72.1276 176.468L70.2614 176.577C69.9504 176.592 69.7171 176.297 69.826 175.987L79.5612 143.478C79.6701 143.075 80.0122 142.826 80.3699 142.811L86.2639 142.454C86.6682 142.423 87.0259 142.624 87.1814 143.012L100.836 174.077C100.944 174.388 100.742 174.714 100.431 174.729ZM83.3713 162.558L79.5923 153.786L76.8241 162.962L83.3713 162.558Z" fill="#2D1014"/>
</g>
<g opacity="0.3">
<path opacity="0.3" d="M155.997 163.691C153.244 169.451 147.785 173.254 141.487 173.627C131.923 174.217 123.634 166.641 123.027 156.783C122.421 146.878 129.715 138.355 139.279 137.765C145.562 137.377 151.456 140.482 154.892 145.853C155.141 146.195 155.032 146.692 154.644 146.894L153.353 147.639C153.011 147.841 152.56 147.732 152.358 147.39C149.512 142.95 144.644 140.404 139.45 140.73C137.941 140.823 136.822 142.096 136.915 143.556L138.423 168.178C138.517 169.637 139.776 170.755 141.285 170.662C146.463 170.351 150.989 167.231 153.275 162.465C153.431 162.108 153.866 161.937 154.224 162.092L155.592 162.667C156.028 162.853 156.199 163.319 155.997 163.691Z" fill="#2D1014"/>
</g>
<g opacity="0.3">
<path opacity="0.3" d="M190.473 136.818L192.417 168.333C192.449 168.768 192.153 169.109 191.749 169.125L181.251 169.761C180.847 169.792 180.474 169.497 180.458 169.063L179.572 154.687L170.132 155.261L171.019 169.637C171.05 170.072 170.754 170.413 170.319 170.429L159.868 171.065C159.433 171.096 159.091 170.802 159.075 170.367L157.131 138.852C157.1 138.448 157.396 138.076 157.831 138.06L168.282 137.424C168.717 137.393 169.059 137.734 169.075 138.122L169.946 152.312L179.385 151.737L178.514 137.548C178.483 137.144 178.825 136.772 179.214 136.756L189.711 136.12C190.116 136.088 190.458 136.415 190.473 136.818Z" fill="#2D1014"/>
</g>
<g opacity="0.3">
<path opacity="0.3" d="M205.326 138.122L206.057 150.107L213.366 149.657C213.77 149.626 214.144 149.967 214.159 150.356L214.252 151.861C214.284 152.265 213.941 152.591 213.537 152.622L206.228 153.072L206.974 165.228L218.451 164.53C218.887 164.498 219.229 164.84 219.244 165.228L219.338 166.687C219.369 167.122 219.073 167.464 218.638 167.479L195.964 168.876C195.528 168.907 195.186 168.612 195.171 168.178L193.227 136.663C193.196 136.259 193.491 135.887 193.927 135.871L216.601 134.474C217.036 134.443 217.378 134.784 217.394 135.172L217.487 136.632C217.518 137.035 217.223 137.408 216.787 137.424L205.326 138.122Z" fill="#2D1014"/>
</g>
<g opacity="0.3">
<path opacity="0.3" d="M232.074 136.477L232.805 148.462L240.114 148.011C240.518 147.98 240.892 148.322 240.907 148.71L241 150.216C241.032 150.62 240.689 150.946 240.285 150.977L232.976 151.427L233.722 163.583L245.199 162.884C245.635 162.853 245.977 163.194 245.993 163.583L246.086 165.042C246.117 165.477 245.821 165.818 245.386 165.834L222.712 167.231C222.277 167.262 221.934 166.967 221.919 166.532L219.975 135.017C219.944 134.614 220.239 134.241 220.675 134.226L243.349 132.828C243.784 132.797 244.126 133.139 244.142 133.527L244.235 134.986C244.266 135.39 243.971 135.762 243.535 135.778L232.074 136.477Z" fill="#2D1014"/>
</g>
<g opacity="0.3">
<path opacity="0.3" d="M271.093 163.024C268.745 164.716 265.494 165.849 261.871 166.206C261.7 166.268 261.513 166.268 261.342 166.284C255.666 166.625 250.254 163.722 246.911 158.599C246.708 158.258 246.817 157.807 247.159 157.559L248.45 156.814C248.792 156.612 249.243 156.721 249.445 157.062C250.969 159.329 253.084 161.238 255.588 162.325C257.408 163.101 259.663 163.536 261.607 163.241C262.306 163.148 263.006 162.76 263.411 162.154C264.67 160.307 262.991 158.18 261.498 157.171C259.958 156.115 258.201 155.556 256.552 154.718C251.358 152.017 245.48 148.958 244.904 143.137C244.625 140.094 245.775 137.175 248.264 134.846C250.705 132.564 254.204 131.058 258.232 130.686C263.271 130.158 268.294 132.285 271.777 136.383C272.026 136.725 272.01 137.206 271.668 137.455L270.486 138.371C270.191 138.603 269.74 138.588 269.46 138.262C267.407 135.949 264.826 134.552 261.809 133.713C260.813 133.418 259.694 133.263 258.683 133.542C256.708 134.07 255.961 136.151 256.739 137.967C257.936 140.777 261.56 141.926 264.126 143.106C269.071 145.419 274.654 148.011 275.23 153.74C275.556 157.559 274.157 160.741 271.093 163.024Z" fill="#2D1014"/>
</g>
<g opacity="0.3">
<path opacity="0.3" d="M288.137 133.046L288.868 145.031L296.177 144.58C296.582 144.549 296.955 144.891 296.97 145.279L297.064 146.785C297.095 147.189 296.753 147.515 296.348 147.546L289.039 147.996L289.786 160.152L301.263 159.453C301.698 159.422 302.04 159.763 302.056 160.152L302.149 161.611C302.18 162.046 301.885 162.387 301.449 162.403L278.775 163.8C278.34 163.831 277.998 163.536 277.982 163.101L276.038 131.586C276.007 131.183 276.303 130.81 276.738 130.795L299.412 129.397C299.847 129.366 300.19 129.708 300.205 130.096L300.298 131.555C300.33 131.959 300.034 132.332 299.599 132.347L288.137 133.046Z" fill="#2D1014"/>
</g>
<g opacity="0.3">
<path opacity="0.3" d="M362.877 141.243L362.924 141.988C363.266 147.421 361.897 152.079 358.943 155.417C355.957 158.801 351.4 160.757 345.786 161.099C334.931 161.766 325.585 154.268 324.978 144.41C324.372 134.505 332.723 125.92 343.578 125.252C348.445 124.957 353.204 126.261 356.968 129.009C357.341 129.258 357.419 129.739 357.123 130.065L356.221 131.229C355.972 131.555 355.537 131.586 355.21 131.384C352.007 129.102 347.932 127.969 343.764 128.233C343.764 128.233 343.764 128.233 343.718 128.233C341.37 128.373 339.581 130.437 339.737 132.828L341.043 154.144C341.183 156.488 343.205 158.32 345.553 158.164C345.6 158.164 345.6 158.164 345.6 158.164C345.646 158.164 345.646 158.164 345.646 158.164C348.041 158.025 349.829 155.96 349.674 153.616L349.099 144.332L345.506 144.549C345.102 144.58 344.729 144.285 344.713 143.882L344.62 142.376C344.589 141.972 344.931 141.6 345.32 141.584L362.053 140.56C362.519 140.513 362.862 140.839 362.877 141.243Z" fill="#2D1014"/>
</g>
<g opacity="0.3">
<path opacity="0.3" d="M400.139 123.948L401.103 139.737C401.709 149.595 394.416 158.118 384.851 158.708L383.343 158.801C373.779 159.391 365.49 151.815 364.883 141.957L363.919 126.168C363.888 125.765 364.184 125.392 364.619 125.377L376.531 124.647C376.967 124.616 377.309 124.957 377.325 125.345L378.973 152.141C379.097 154.268 380.948 155.975 383.11 155.836C383.156 155.836 383.156 155.836 383.156 155.836L384.665 155.743C384.665 155.743 384.665 155.743 384.712 155.743C386.889 155.603 388.491 153.693 388.366 151.566L386.718 124.771C386.687 124.367 386.982 123.995 387.417 123.979L399.33 123.25C399.734 123.219 400.107 123.56 400.139 123.948Z" fill="#2D1014"/>
</g>
<g opacity="0.3">
<path opacity="0.3" d="M414.711 123.063L416.655 154.578C416.686 155.013 416.391 155.354 415.956 155.37L405.505 156.007C405.07 156.038 404.727 155.743 404.712 155.308L402.768 123.793C402.737 123.389 403.032 123.017 403.468 123.001L413.918 122.365C414.354 122.334 414.68 122.66 414.711 123.063Z" fill="#2D1014"/>
</g>
<g opacity="0.3">
<path opacity="0.3" d="M441.926 151.566L442.019 153.026C442.051 153.46 441.708 153.802 441.32 153.818L420.107 155.122C419.672 155.153 419.33 154.858 419.314 154.423L417.37 122.908C417.339 122.504 417.635 122.132 418.07 122.116L428.521 121.48C428.956 121.449 429.298 121.79 429.314 122.178L431.118 151.489L441.133 150.868C441.537 150.837 441.911 151.163 441.926 151.566Z" fill="#2D1014"/>
</g>
<g opacity="0.3">
<path opacity="0.3" d="M476.263 135.126C476.823 144.192 470.058 152.063 461.24 152.607L444.942 153.6C444.507 153.631 444.165 153.336 444.149 152.902L442.205 121.387C442.174 120.983 442.47 120.61 442.905 120.595L459.203 119.601C468.021 119.027 475.703 126.013 476.263 135.126ZM465.284 135.794C464.833 128.404 460.992 122.427 456.964 122.675L455.144 122.784C454.662 122.815 454.32 123.188 454.351 123.638L455.922 149.145C455.953 149.579 456.326 149.921 456.808 149.89L458.628 149.781C462.656 149.533 465.735 143.137 465.284 135.794Z" fill="#2D1014"/>
</g>
</g>
<path d="M38.3963 143.168L39.3605 158.956C39.967 168.814 32.6734 177.337 23.1093 177.927L21.6008 178.02C12.0367 178.61 3.74774 171.034 3.14124 161.176L2.17705 145.388C2.14594 144.984 2.44142 144.611 2.87686 144.596L14.7893 143.866C15.2247 143.835 15.5668 144.177 15.5824 144.565L17.2308 171.36C17.3552 173.487 19.2059 175.195 21.3675 175.055C21.4142 175.055 21.4142 175.055 21.4142 175.055L22.9227 174.962C22.9227 174.962 22.9227 174.962 22.9693 174.962C25.1465 174.822 26.7483 172.913 26.6239 170.786L24.9755 143.99C24.9443 143.587 25.2398 143.214 25.6753 143.199L37.5877 142.469C38.0076 142.438 38.3808 142.78 38.3963 143.168Z" fill="white"/>
<path d="M67.3216 172.556C64.9733 174.248 61.7231 175.381 58.0996 175.738C57.9285 175.8 57.7419 175.8 57.5708 175.816C51.8946 176.157 46.4827 173.254 43.1391 168.131C42.9369 167.79 43.0458 167.339 43.3879 167.091L44.6787 166.346C45.0208 166.144 45.4718 166.253 45.674 166.594C47.198 168.845 49.313 170.77 51.8168 171.857C53.6363 172.633 55.8913 173.068 57.8352 172.773C58.535 172.68 59.2348 172.292 59.6392 171.686C60.8989 169.839 59.2193 167.712 57.7264 166.703C56.1868 165.647 54.4295 165.088 52.781 164.25C47.5868 161.549 41.7084 158.49 41.133 152.669C40.853 149.626 42.0038 146.707 44.4921 144.379C46.9337 142.096 50.4327 140.591 54.4606 140.218C59.4992 139.69 64.5223 141.817 68.0059 145.916C68.2547 146.257 68.2391 146.738 67.897 146.987L66.7151 147.903C66.4196 148.136 65.9686 148.12 65.6887 147.794C63.6359 145.481 61.0544 144.084 58.0374 143.245C57.0421 142.95 55.9224 142.795 54.9115 143.075C52.9365 143.602 52.19 145.683 52.9676 147.499C54.1651 150.309 57.7886 151.458 60.3546 152.638C65.2999 154.951 70.8829 157.543 71.4583 163.272C71.8004 167.091 70.3852 170.274 67.3216 172.556Z" fill="white"/>
<path d="M102.608 171.624L91.753 172.292C91.3487 172.323 90.991 172.074 90.8355 171.733L86.7921 162.356L78.1144 162.884L75.1597 172.695C75.0508 173.099 74.7087 173.347 74.3043 173.363L72.4382 173.472C72.1272 173.487 71.8939 173.192 72.0027 172.882L81.7379 140.373C81.8468 139.97 82.1889 139.721 82.5466 139.706L88.4406 139.349C88.8449 139.318 89.2026 139.519 89.3581 139.908L103.012 170.972C103.121 171.283 102.919 171.609 102.608 171.624ZM85.548 159.453L81.769 150.682L79.0009 159.857L85.548 159.453Z" fill="white"/>
<path d="M158.173 160.586C155.421 166.346 149.962 170.149 143.664 170.522C134.1 171.112 125.811 163.536 125.204 153.678C124.598 143.773 131.891 135.25 141.455 134.66C147.738 134.272 153.632 137.377 157.069 142.749C157.318 143.09 157.209 143.587 156.82 143.789L155.53 144.534C155.187 144.736 154.736 144.627 154.534 144.285C151.688 139.845 146.821 137.299 141.627 137.625C140.118 137.719 138.998 138.992 139.092 140.451L140.6 165.073C140.693 166.532 141.953 167.65 143.462 167.557C148.64 167.246 153.166 164.126 155.452 159.36C155.607 159.003 156.043 158.832 156.4 158.987L157.769 159.562C158.204 159.748 158.375 160.214 158.173 160.586Z" fill="white"/>
<path d="M192.65 133.713L194.594 165.228C194.625 165.663 194.33 166.004 193.925 166.02L183.428 166.656C183.024 166.687 182.651 166.393 182.635 165.958L181.749 151.582L172.309 152.156L173.195 166.532C173.226 166.967 172.931 167.308 172.496 167.324L162.045 167.96C161.61 167.992 161.267 167.697 161.252 167.262L159.308 135.747C159.277 135.343 159.572 134.971 160.008 134.955L170.458 134.319C170.894 134.288 171.236 134.629 171.251 135.017L172.122 149.207L181.562 148.632L180.691 134.443C180.66 134.039 181.002 133.667 181.391 133.651L191.888 133.015C192.293 132.984 192.635 133.31 192.65 133.713Z" fill="white"/>
<path d="M207.487 135.017L208.218 147.002L215.527 146.552C215.931 146.521 216.305 146.863 216.32 147.251L216.414 148.757C216.445 149.16 216.103 149.486 215.698 149.517L208.389 149.967L209.135 162.123L220.612 161.425C221.048 161.394 221.39 161.735 221.406 162.123L221.499 163.583C221.53 164.017 221.235 164.359 220.799 164.374L198.125 165.772C197.69 165.803 197.347 165.508 197.332 165.073L195.388 133.558C195.357 133.154 195.652 132.782 196.088 132.766L218.762 131.369C219.197 131.338 219.539 131.68 219.555 132.068L219.648 133.527C219.679 133.931 219.384 134.303 218.948 134.319L207.487 135.017Z" fill="white"/>
<path d="M234.251 133.372L234.982 145.357L242.291 144.906C242.695 144.875 243.068 145.217 243.084 145.605L243.177 147.111C243.208 147.515 242.866 147.841 242.462 147.872L235.153 148.322L235.899 160.478L247.376 159.779C247.812 159.748 248.154 160.089 248.169 160.478L248.263 161.937C248.294 162.372 247.998 162.713 247.563 162.729L224.889 164.126C224.453 164.157 224.111 163.862 224.096 163.427L222.152 131.912C222.121 131.509 222.416 131.136 222.851 131.121L245.526 129.723C245.961 129.692 246.303 130.034 246.319 130.422L246.412 131.881C246.443 132.285 246.148 132.658 245.712 132.673L234.251 133.372Z" fill="white"/>
<path d="M273.27 159.919C270.922 161.611 267.671 162.744 264.048 163.101C263.877 163.163 263.69 163.163 263.519 163.179C257.843 163.52 252.431 160.617 249.087 155.494C248.885 155.153 248.994 154.702 249.336 154.454L250.627 153.709C250.969 153.507 251.42 153.616 251.622 153.957C253.146 156.224 255.261 158.133 257.765 159.22C259.585 159.996 261.84 160.431 263.783 160.136C264.483 160.043 265.183 159.655 265.587 159.049C266.847 157.202 265.168 155.075 263.675 154.066C262.135 153.01 260.378 152.451 258.729 151.613C253.535 148.912 247.657 145.853 247.081 140.032C246.801 136.989 247.952 134.07 250.44 131.742C252.882 129.459 256.381 127.954 260.409 127.581C265.447 127.053 270.471 129.18 273.954 133.278C274.203 133.62 274.187 134.101 273.845 134.35L272.663 135.266C272.368 135.499 271.917 135.483 271.637 135.157C269.584 132.844 267.003 131.447 263.986 130.608C262.99 130.313 261.871 130.158 260.86 130.438C258.885 130.965 258.138 133.046 258.916 134.862C260.113 137.672 263.737 138.821 266.303 140.001C271.248 142.314 276.831 144.906 277.407 150.635C277.733 154.454 276.318 157.637 273.27 159.919Z" fill="white"/>
<path d="M290.314 129.941L291.045 141.926L298.354 141.475C298.759 141.444 299.132 141.786 299.147 142.174L299.241 143.68C299.272 144.084 298.93 144.41 298.525 144.441L291.216 144.891L291.963 157.047L303.439 156.348C303.875 156.317 304.217 156.659 304.233 157.047L304.326 158.506C304.357 158.941 304.062 159.282 303.626 159.298L280.952 160.695C280.517 160.726 280.175 160.431 280.159 159.996L278.215 128.481C278.184 128.078 278.48 127.705 278.915 127.69L301.589 126.292C302.024 126.261 302.366 126.603 302.382 126.991L302.475 128.45C302.506 128.854 302.211 129.227 301.775 129.242L290.314 129.941Z" fill="white"/>
<path d="M365.054 138.138L365.101 138.883C365.443 144.316 364.074 148.974 361.119 152.312C358.134 155.696 353.577 157.652 347.963 157.994C337.108 158.661 327.762 151.163 327.155 141.305C326.549 131.4 334.9 122.815 345.755 122.147C350.622 121.852 355.381 123.156 359.144 125.904C359.518 126.153 359.595 126.634 359.3 126.96L358.398 128.124C358.149 128.45 357.714 128.481 357.387 128.28C354.183 125.997 350.109 124.864 345.941 125.128C345.941 125.128 345.941 125.128 345.895 125.128C343.546 125.268 341.758 127.333 341.913 129.723L343.22 151.039C343.36 153.383 345.381 155.215 347.73 155.059C347.776 155.059 347.776 155.059 347.776 155.059C347.823 155.059 347.823 155.059 347.823 155.059C350.218 154.92 352.006 152.855 351.851 150.511L351.275 141.227L347.683 141.444C347.279 141.475 346.905 141.181 346.89 140.777L346.797 139.271C346.765 138.867 347.108 138.495 347.496 138.479L364.23 137.455C364.696 137.393 365.023 137.734 365.054 138.138Z" fill="white"/>
<path d="M402.315 120.843L403.28 136.632C403.886 146.49 396.592 155.013 387.028 155.603L385.52 155.696C375.956 156.286 367.667 148.71 367.06 138.852L366.096 123.063C366.065 122.66 366.36 122.287 366.796 122.272L378.708 121.542C379.144 121.511 379.486 121.852 379.501 122.24L381.15 149.036C381.274 151.163 383.125 152.87 385.287 152.731C385.333 152.731 385.333 152.731 385.333 152.731L386.842 152.638C386.842 152.638 386.842 152.638 386.888 152.638C389.066 152.498 390.667 150.588 390.543 148.462L388.894 121.666C388.863 121.262 389.159 120.89 389.594 120.874L401.507 120.145C401.911 120.114 402.284 120.455 402.315 120.843Z" fill="white"/>
<path d="M416.888 119.958L418.832 151.473C418.863 151.908 418.567 152.25 418.132 152.265L407.682 152.902C407.246 152.933 406.904 152.638 406.889 152.203L404.945 120.688C404.914 120.284 405.209 119.912 405.644 119.896L416.095 119.26C416.53 119.213 416.857 119.555 416.888 119.958Z" fill="white"/>
<path d="M444.103 148.462L444.196 149.921C444.227 150.356 443.885 150.697 443.496 150.713L422.284 152.017C421.849 152.048 421.507 151.753 421.491 151.318L419.547 119.803C419.516 119.4 419.812 119.027 420.247 119.011L430.698 118.375C431.133 118.344 431.475 118.685 431.491 119.074L433.295 148.384L443.31 147.763C443.714 147.732 444.087 148.058 444.103 148.462Z" fill="white"/>
<path d="M478.44 132.021C479 141.087 472.235 148.958 463.417 149.502L447.119 150.495C446.684 150.526 446.342 150.231 446.326 149.797L444.382 118.282C444.351 117.878 444.646 117.506 445.082 117.49L461.38 116.496C470.198 115.922 477.88 122.908 478.44 132.021ZM467.445 132.689C466.994 125.299 463.153 119.322 459.125 119.57L457.305 119.679C456.823 119.71 456.481 120.083 456.512 120.533L458.083 146.04C458.114 146.474 458.487 146.816 458.969 146.785L460.789 146.676C464.832 146.428 467.911 140.032 467.445 132.689Z" fill="white"/>
<g opacity="0.3">
<g opacity="0.3">
<path opacity="0.3" d="M494.629 115.938L494.473 116.496C494.442 116.605 494.349 116.683 494.24 116.698L491.565 116.869L492.234 127.674C492.25 127.829 492.141 127.954 491.97 127.969L488.113 128.202C487.957 128.217 487.833 128.109 487.817 127.938L487.149 117.133C487.149 117.133 485.158 117.257 484.303 117.304C484.116 117.319 483.976 117.148 484.038 116.962L484.194 116.403C484.225 116.295 484.318 116.217 484.427 116.217C485.671 116.139 492.638 115.72 494.349 115.612C494.536 115.581 494.676 115.751 494.629 115.938Z" fill="#2D1014"/>
</g>
<g opacity="0.3">
<path opacity="0.3" d="M510.181 114.897L510.896 126.51C510.911 126.665 510.787 126.789 510.632 126.805L506.759 127.038C506.619 127.053 506.495 126.944 506.479 126.774L505.997 119.042L504.349 126.944C504.302 127.1 504.178 127.193 504.038 127.208L500.072 127.457C499.932 127.472 499.808 127.379 499.745 127.255L496.666 119.042L497.179 127.379C497.195 127.519 497.071 127.643 496.915 127.659L496.371 127.69C496.215 127.705 496.091 127.596 496.075 127.441L495.36 115.813C495.344 115.674 495.453 115.534 495.624 115.518L499.559 115.27C499.699 115.254 499.839 115.348 499.901 115.472L503.571 125.268L505.686 115.13C505.717 114.975 505.842 114.882 505.982 114.866L509.869 114.633C510.025 114.633 510.165 114.758 510.181 114.897Z" fill="#2D1014"/>
</g>
</g>
<path d="M495.732 114.634L495.577 115.192C495.546 115.301 495.453 115.379 495.344 115.379L492.669 115.549L493.338 126.355C493.353 126.51 493.244 126.634 493.073 126.65L489.216 126.882C489.061 126.898 488.936 126.789 488.921 126.618L488.252 115.813C488.252 115.813 486.262 115.938 485.406 115.984C485.22 116 485.08 115.829 485.142 115.643L485.297 115.084C485.329 114.975 485.422 114.897 485.531 114.882C486.775 114.804 493.742 114.385 495.453 114.276C495.655 114.276 495.795 114.447 495.732 114.634Z" fill="white"/>
<path d="M511.284 113.593L511.999 125.206C512.015 125.361 511.891 125.485 511.735 125.501L507.863 125.734C507.723 125.749 507.598 125.64 507.583 125.47L507.101 117.738L505.452 125.64C505.406 125.796 505.281 125.889 505.141 125.904L501.176 126.153C501.036 126.168 500.911 126.075 500.849 125.951L497.77 117.738L498.283 126.075C498.299 126.215 498.174 126.339 498.019 126.355L497.474 126.386C497.319 126.401 497.194 126.292 497.179 126.137L496.463 114.509C496.448 114.37 496.557 114.23 496.728 114.214L500.662 113.966C500.802 113.95 500.942 114.044 501.004 114.168L504.675 123.964L506.79 113.826C506.821 113.671 506.945 113.578 507.085 113.562L510.973 113.329C511.144 113.329 511.284 113.454 511.284 113.593Z" fill="white"/>
</svg>
