<svg width="375" height="230" viewBox="0 0 375 230" fill="none" xmlns="http://www.w3.org/2000/svg">
<g clip-path="url(#clip0)">
<path d="M332.461 40.5914L54.0965 93.8228C40.2182 96.481 31.4564 107.697 35.25 117.963L48.0754 152.56C50.9645 160.359 60.4012 165.309 71.107 164.644L325.859 148.817C337.875 148.071 347.946 140.517 349.336 131.227L360.123 59.2394C361.959 46.925 348.108 37.5942 332.461 40.5914Z" fill="#FAEDDA"/>
<path d="M304.853 172.171C304.245 172.171 303.624 172.144 303.003 172.103L69.5005 153.74C59.3887 152.94 51.4775 145.684 50.249 136.096L45.5103 99.3832C44.7678 93.5651 46.5094 87.6927 50.411 82.8645C54.6366 77.6431 60.9008 74.334 67.6105 73.7915L328.816 48.3625C332.596 48.0641 336.2 48.6202 339.522 50.0171C342.654 51.3462 345.421 53.4076 347.527 55.998C351.699 61.1245 353.022 67.8377 351.145 74.4153L328.181 154.92C325.306 165.024 315.464 172.171 304.853 172.171ZM328.937 49.7187L67.7185 75.1341C61.3733 75.6359 55.4466 78.7688 51.4505 83.7054C47.7784 88.2351 46.1449 93.7414 46.8469 99.1933L51.5855 135.906C52.1525 140.314 54.1776 144.22 57.4447 147.217C60.7253 150.228 64.9239 152.004 69.595 152.37L303.111 170.747C303.692 170.788 304.272 170.815 304.853 170.815C314.883 170.815 324.158 164.075 326.885 154.54L349.849 74.0356C351.604 67.892 350.376 61.6398 346.474 56.8524C344.503 54.4383 341.925 52.5125 338.995 51.2648C335.876 49.9493 332.488 49.4339 328.937 49.7187Z" fill="#FAE661"/>
<path d="M95.7315 82.8102C95.8935 83.6511 95.799 84.492 95.475 85.3192C94.854 87.2451 93.1124 94.2974 90.2503 106.49C86.9427 120.391 83.8512 134.021 80.9891 147.393C77.857 161.918 74.5629 179.223 71.1338 199.336C70.5938 202.564 69.9188 207.46 69.0952 214.024C68.8657 216.858 68.1772 218.391 67.0162 218.608C66.2197 218.757 65.2881 217.835 64.1946 215.828C63.2631 214.092 62.6961 212.668 62.4801 211.556C61.7375 207.636 63.3981 196.244 67.4617 177.379C70.1348 165.851 72.8079 154.337 75.4944 142.863L82.4606 112.674C79.558 119.292 76.3315 126.399 72.7943 133.994C62.4801 156.127 50.9777 183.712 38.2469 216.723C38.1119 217.184 37.8284 217.821 37.3829 218.621C37.5044 220.683 36.7213 221.876 35.0338 222.188C34.3453 222.324 33.5082 221.971 32.5092 221.157C31.5102 220.33 30.9432 219.557 30.7947 218.811C29.7551 213.319 31.6047 194.644 36.3433 162.8C37.0048 158.514 39.8534 143.216 44.8756 116.892C31.6992 149.644 20.1834 181.027 10.3011 211.013C9.20756 214.227 7.72252 219.11 5.84597 225.647C5.21145 228.332 4.36093 229.783 3.2944 229.986C2.02536 230.231 0.972333 228.128 0.13531 223.694C-0.418206 220.791 0.702325 215.041 3.4969 206.456C4.54993 203.133 6.9665 196.583 10.7331 186.818C13.6357 179.142 17.9018 168.13 23.5315 153.794L43.3905 103.642C44.0115 102.313 44.7811 100.333 45.6991 97.6879C45.7261 97.2404 45.7936 96.4673 45.9151 95.3417C46.1041 93.7684 46.8331 92.8598 48.1022 92.6157C48.1697 92.6564 48.3317 92.6835 48.6017 92.6835C51.7338 94.5551 53.4618 96.2774 53.7588 97.8642C53.7453 97.81 50.8292 116.892 45.0241 155.124C43.593 164.495 41.6355 178.613 39.1649 197.437C44.1465 184.689 51.9228 165.675 62.4801 140.409C66.4222 131.376 72.4028 117.882 80.4356 99.9528C81.7721 96.9149 83.9997 92.5479 87.1318 86.8246C89.4538 83.4884 91.3574 81.6846 92.8289 81.3998C93.2474 81.3184 93.8144 81.4269 94.53 81.7253C95.259 82.0372 95.6505 82.3898 95.7315 82.8102Z" fill="#0E7C74"/>
<path d="M111.351 155.869C111.851 156.819 111.081 160.019 109.002 165.498C106.019 173.676 104.372 178.301 104.034 179.413C103.4 181.556 103.265 183.848 103.629 186.303C104.034 189.558 103.71 191.294 102.657 191.497C100.713 191.877 99.2684 189.924 98.3639 185.665C94.6513 191.389 91.3572 194.467 88.4951 194.901C88.2251 194.955 87.9956 194.996 87.7796 195.037C87.5771 195.132 87.2261 195.118 86.7131 194.996C86.038 194.901 84.607 194.223 82.3929 192.935C81.8394 192.609 81.1779 191.728 80.4219 190.304C79.6659 188.88 79.2608 187.903 79.2068 187.361C79.0853 186.126 79.2879 183.645 79.8414 179.915C81.1104 175.114 82.7304 171.045 84.688 167.709C86.6456 164.373 88.7651 161.552 91.0602 159.246C93.7063 156.493 96.3253 154.784 98.9174 154.12C99.0254 154.106 99.1064 154.079 99.1604 154.079C99.3089 153.984 99.4034 153.93 99.4439 153.889C99.8894 153.645 100.456 153.767 101.158 154.283C101.86 154.798 102.806 155.896 103.994 157.551C104.966 155.503 105.735 154.391 106.316 154.228C108.611 153.496 110.298 154.052 111.351 155.869ZM100.51 158.69L100.497 158.609C99.3629 158.934 98.2424 159.775 97.1354 161.145C93.3148 165.77 90.4662 170.584 88.5896 175.602C86.8076 180.281 85.9705 184.35 86.0785 187.835C86.1325 188.703 86.4836 189.408 87.1316 189.937C87.2801 189.856 87.6176 189.625 88.1441 189.246C90.1152 187.835 92.6667 184.214 95.8258 178.41C97.9049 174.449 99.2279 171.764 99.7814 170.34C100.065 169.242 100.348 168.157 100.632 167.058C101.334 162.42 101.293 159.64 100.51 158.69Z" fill="#0E7C74"/>
<path d="M155.646 101.336C155.835 101.458 155.97 101.77 156.065 102.245C156.308 103.56 156.281 105.228 155.957 107.249C155.606 109.446 155.066 110.613 154.337 110.748C152.258 110.965 147.438 111.63 139.905 112.715C135.504 122.005 131.832 130.915 128.862 139.432C126.162 147.081 123.475 154.703 120.775 162.298C117.157 173.08 115.577 179.698 116.036 182.126C116.225 183.129 116.954 183.509 118.21 183.279C121.153 182.709 125.959 179.345 132.628 173.188C133.182 172.7 133.789 172.388 134.41 172.266C135.355 172.09 135.895 172.361 136.044 173.107C136.179 173.799 135.787 174.639 134.883 175.629C127.458 183.97 121.545 188.568 117.116 189.422C116.32 189.571 115.618 189.571 114.983 189.422C114.2 189.3 113.323 188.432 112.364 186.805C111.541 185.367 111.028 184.079 110.812 182.912C109.664 176.891 113.201 162.176 121.423 138.754C124.38 130.196 127.431 122.113 130.576 114.505L129.942 114.627C104.156 119.564 87.3211 123.117 79.4234 125.26C79.0184 125.395 78.2623 124.907 77.1823 123.809C76.1023 122.71 75.4813 121.625 75.3463 120.554C75.1978 119.496 81.6509 117.299 94.7193 113.976C105.277 111.25 115.537 108.877 125.527 106.856C128.052 106.368 131.13 105.757 134.748 105.011C135.382 103.764 135.828 102.964 136.098 102.652C136.651 102.109 137.785 101.811 139.527 101.757C140.283 101.716 141.215 102.285 142.295 103.425C150.746 101.621 155.187 100.943 155.646 101.336Z" fill="#0E7C74"/>
<path d="M161.303 169.893C158.886 172.646 155.389 175.643 150.813 178.871C145.629 182.6 141.538 184.743 138.541 185.313C137.704 185.475 136.975 185.489 136.381 185.353C135.787 185.218 135.112 184.648 134.383 183.645C134.032 183.495 133.667 183.292 133.289 183.034C132.749 182.763 132.101 181.909 131.332 180.498C130.576 179.088 130.171 178.084 130.103 177.487C129.995 176.307 130.198 173.826 130.738 170.069C132.02 165.336 133.64 161.294 135.598 157.944C137.555 154.595 139.675 151.76 141.97 149.468C144.616 146.769 147.249 145.074 149.841 144.355C150.097 144.301 150.367 144.26 150.624 144.206L150.705 144.192C151.083 143.908 151.65 144.016 152.406 144.531C154.498 146.064 155.835 147.908 156.402 150.065C157.037 152.547 157.104 155.463 156.591 158.826C156.402 160.141 155.646 160.915 154.336 161.172C152.649 161.498 151.704 161.104 151.488 159.992C151.609 160.63 151.812 159.436 152.122 156.412C152.473 152.221 152.365 149.794 151.798 149.143C151.663 149.007 151.515 148.926 151.339 148.898C150.259 149.21 149.152 150.051 148.059 151.407C144.225 155.964 141.376 160.738 139.486 165.729C137.204 171.791 136.408 176.09 137.11 178.627C138.014 179.061 138.797 179.196 139.486 179.074C141.754 178.64 145.453 176.769 150.61 173.459C154.849 170.815 157.671 168.835 159.062 167.546C159.615 167.004 160.209 166.678 160.83 166.556C161.829 166.366 162.396 166.638 162.545 167.37C162.68 168.048 162.261 168.889 161.303 169.893Z" fill="#0E7C74"/>
<path d="M191.125 95.952C189.059 99.7358 183.632 112.796 174.83 135.119C171.711 143.162 167.945 154.31 163.503 168.577C166.244 165.797 171.063 159.708 177.949 150.268C179.015 148.695 181.013 145.711 183.943 141.304C185.549 138.863 186.616 137.588 187.142 137.479C188.141 137.289 189.302 137.805 190.625 139.039C191.692 139.5 192.353 140.788 192.596 142.945C192.677 143.365 191.894 144.979 190.234 147.759C189.289 149.373 187.871 152.818 185.981 158.121C184.483 162.298 183.7 165.607 183.605 168.035C183.538 169.974 183.835 171.14 184.523 171.561C184.766 171.683 185.036 171.71 185.36 171.642C187.466 171.235 190.963 166.095 195.85 156.209C196.674 154.513 197.484 153.591 198.267 153.442C199.212 153.266 199.806 153.781 200.035 154.988C200.076 155.205 200.062 155.395 199.981 155.571C197.173 163.179 194.581 168.631 192.205 171.927C189.667 175.48 186.683 177.582 183.254 178.247C182.458 178.396 181.405 177.704 180.068 176.145C178.597 174.409 177.625 172.347 177.179 169.96C176.815 168.062 177.773 163.003 180.028 154.784C179.326 155.693 178.637 156.534 177.976 157.321C177.193 158.351 173.426 163.369 166.676 172.388C162.45 178.016 160.02 180.892 159.399 181.014C159.345 181.027 159.291 181 159.224 180.959C158.9 180.959 158.413 180.634 157.765 179.969C157.117 179.305 156.766 178.803 156.712 178.491C155.659 172.076 159.197 157.348 167.31 134.333C176.032 109.609 181.634 95.9791 184.091 93.4294C184.645 92.8869 185.779 92.5886 187.52 92.5208C187.898 92.5072 188.6 92.8598 189.599 93.6057C190.625 94.3517 191.125 95.1383 191.125 95.952Z" fill="#0E7C74"/>
<path d="M248.057 145.562C245.167 152.737 242.764 157.795 240.874 160.738C238.363 164.725 235.677 166.99 232.842 167.533C232.207 167.655 231.343 166.95 230.223 165.404C228.899 163.627 228.022 161.579 227.576 159.26C227.306 157.836 227.711 154.12 228.818 148.098C226.564 151.76 223.378 156.954 219.247 163.654C218.747 164.793 217.91 166.082 216.709 167.506C216.128 168.224 215.71 168.577 215.44 168.577C215.062 168.591 214.319 167.885 213.239 166.448C211.943 164.834 211.268 163.396 211.2 162.149C211.079 159.816 211.686 155.096 213.01 147.99C212.321 148.993 211.7 149.956 211.133 150.851C210.566 151.76 207.636 156.493 202.331 165.064C199.05 170.462 197.133 173.215 196.62 173.31C196.404 173.297 196.256 173.134 196.202 172.808C195.837 172.876 195.378 172.157 194.811 170.652C194.257 169.147 193.987 168.007 194.001 167.234C194.176 163.586 195.351 158.243 197.498 151.19C198.888 146.701 199.793 142.592 200.225 138.835C200.441 136.815 200.819 135.784 201.359 135.743C202.371 135.608 203.573 136.15 204.99 137.398C206.394 138.632 207.137 139.608 207.218 140.3C207.245 140.463 206.705 142.619 205.584 146.783C205.274 148.044 203.991 151.936 201.75 158.446C204.14 154.974 207.177 150.105 210.836 143.826C211.713 142.402 213.266 139.554 215.521 135.296C216.776 132.976 217.6 131.783 218.032 131.702C218.558 131.607 219.206 131.837 219.962 132.393C221.542 132.963 222.365 134.306 222.446 136.435C222.46 137.371 221.596 140.761 219.881 146.606C218.086 152.696 217.127 156.71 217.006 158.65C218.653 157.239 222.676 151.123 229.075 140.314C230.317 138.211 231.654 135.635 233.085 132.556C233.989 130.684 234.637 129.708 235.069 129.627C236.487 129.355 237.675 130.278 238.62 132.393C238.714 132.597 238.66 132.909 238.471 133.329C238.66 133.736 238.782 134.089 238.836 134.414C238.957 135.377 238.755 136.435 238.201 137.574C237.459 139.134 236.392 142.443 235.002 147.474C233.571 152.845 232.842 156.181 232.815 157.51C232.828 160.141 233.328 161.362 234.327 161.159C236.851 160.67 240.307 155.612 244.695 145.942C245.397 144.436 246.085 143.623 246.774 143.487C247.246 143.392 247.625 143.623 247.881 144.179C248.138 144.694 248.192 145.155 248.057 145.562Z" fill="#0E7C74"/>
<path d="M273.842 124.758C274.341 125.707 273.572 128.908 271.493 134.387C268.509 142.565 266.862 147.19 266.525 148.302C265.89 150.445 265.755 152.737 266.12 155.191C266.525 158.446 266.201 160.182 265.148 160.386C263.204 160.765 261.759 158.812 260.855 154.554C257.142 160.277 253.848 163.356 250.986 163.79C250.716 163.844 250.486 163.885 250.27 163.925C250.068 164.02 249.717 164.007 249.204 163.885C248.529 163.79 247.098 163.112 244.884 161.823C244.33 161.498 243.669 160.616 242.913 159.192C242.157 157.768 241.752 156.792 241.698 156.249C241.576 155.015 241.779 152.533 242.332 148.804C243.601 144.003 245.221 139.934 247.179 136.598C249.136 133.261 251.256 130.44 253.551 128.135C256.197 125.382 258.816 123.673 261.408 123.008C261.516 122.995 261.597 122.968 261.651 122.968C261.8 122.873 261.894 122.818 261.935 122.778C262.38 122.534 262.947 122.656 263.649 123.171C264.351 123.686 265.296 124.785 266.484 126.44C267.456 124.392 268.226 123.28 268.806 123.117C271.101 122.384 272.789 122.941 273.842 124.758ZM263.001 127.579L262.988 127.497C261.854 127.823 260.733 128.664 259.626 130.034C255.805 134.658 252.957 139.473 251.08 144.491C249.298 149.17 248.461 153.238 248.569 156.724C248.623 157.592 248.974 158.297 249.622 158.826C249.771 158.745 250.108 158.514 250.635 158.134C252.606 156.724 255.157 153.103 258.317 147.298C260.396 143.338 261.719 140.653 262.272 139.229C262.556 138.13 262.839 137.045 263.123 135.947C263.811 131.308 263.784 128.528 263.001 127.579Z" fill="#0E7C74"/>
<path d="M305.784 74.0084C303.718 77.8058 298.291 90.8661 289.489 113.217C287.747 117.828 285.02 125.192 281.335 135.336C284.791 131.444 288.287 127.701 291.811 124.134C300.721 115.034 305.932 110.477 307.458 110.463C308.16 110.436 308.916 110.979 309.726 112.091C310.536 113.203 310.873 114.125 310.738 114.858C310.698 115.468 309.118 116.973 306.027 119.387C300.816 123.51 297.508 126.209 296.104 127.457C295.753 128.46 295.186 130.264 294.43 132.882C293.404 136.421 292.85 140.49 292.729 145.06C292.661 147.325 293.161 148.763 294.2 149.387C294.443 149.563 294.781 149.604 295.213 149.522C298.737 148.844 304.015 143.324 311.049 132.949C312.116 131.376 313.007 130.508 313.749 130.373C314.802 130.169 315.275 130.82 315.18 132.312C315.005 134.862 311.333 140.246 304.177 148.464C300.424 152.804 296.671 155.327 292.931 156.032C292.135 156.181 291.082 155.49 289.745 153.93C288.274 152.194 287.302 150.133 286.856 147.746C286.141 143.989 286.276 139.92 287.234 135.513C282.914 139.744 279.391 145.888 276.663 153.971C276.623 154.038 276.569 154.066 276.515 154.079C276.515 154.622 276.15 155.612 275.435 157.036C274.719 158.46 274.206 159.179 273.882 159.179C273.545 159.138 273.072 158.772 272.451 158.094C271.83 157.415 271.493 156.941 271.452 156.683C270.332 150.214 273.855 135.458 282.037 112.403C290.758 87.6655 296.347 74.0084 298.818 71.4588C299.371 70.9163 300.478 70.6179 302.166 70.5772C302.598 70.5501 303.3 70.9027 304.285 71.6486C305.311 72.3945 305.797 73.1812 305.784 74.0084Z" fill="#0E7C74"/>
<path d="M337.28 136.191C334.864 138.944 331.34 141.941 326.709 145.183C321.579 148.899 317.516 151.041 314.505 151.611C313.614 151.787 312.858 151.801 312.264 151.665C311.67 151.53 310.995 150.96 310.266 149.956C309.969 149.794 309.618 149.59 309.253 149.333C308.713 149.061 308.052 148.207 307.255 146.81C306.472 145.4 306.081 144.396 306.067 143.799C305.905 142.633 306.108 140.151 306.702 136.381C307.93 131.661 309.537 127.62 311.522 124.256C313.506 120.893 315.612 118.072 317.853 115.78C320.553 113.081 323.213 111.372 325.791 110.653C326.048 110.599 326.291 110.558 326.507 110.518C326.561 110.504 326.615 110.504 326.669 110.491C327.047 110.206 327.614 110.314 328.37 110.83C330.409 112.376 331.718 114.22 332.285 116.377C332.974 118.845 333.055 121.747 332.555 125.111C332.501 125.395 332.434 125.626 332.366 125.816C332.11 126.752 331.502 128.081 330.544 129.817C329.585 131.553 326.696 132.868 321.849 133.804C319.109 134.333 316.746 134.387 314.762 133.967C313.034 139.229 312.467 142.891 313.074 144.952C313.925 145.386 314.708 145.535 315.45 145.386C317.718 144.952 321.417 143.08 326.574 139.771C330.76 137.127 333.581 135.16 335.026 133.858C335.579 133.316 336.173 132.99 336.794 132.868C337.739 132.692 338.293 132.963 338.428 133.709C338.576 134.36 338.185 135.201 337.28 136.191ZM327.695 115.441C327.614 115.292 327.465 115.21 327.236 115.197C326.156 115.522 325.049 116.363 323.955 117.719C321.336 120.92 319.055 124.5 317.07 128.447C318.609 128.488 320.54 128.176 322.862 127.497C324.617 126.996 325.521 126.738 325.575 126.724C326.534 126.318 327.249 125.639 327.722 124.663C328.748 119.699 328.734 116.607 327.695 115.441Z" fill="#0E7C74"/>
<path d="M373.704 121.245C373.61 121.869 372.206 124.324 369.506 128.61C366.806 132.895 364.673 135.933 363.107 137.71C359.299 142.05 356.424 144.409 354.48 144.776C353.643 144.938 352.482 144.586 351.01 143.718C349.849 143.067 349.066 142.497 348.648 142.036C348.067 141.277 347.554 139.405 347.095 136.421C346.744 133.695 347.298 130.576 348.742 127.077C349.444 125.3 351.348 121.462 354.466 115.549C353.535 114.641 352.846 114.03 352.401 113.732C351.82 113.244 350.997 112.633 349.93 111.901C347.392 116.661 345.772 119.713 345.043 121.055C336.362 138.279 331.975 146.905 331.867 146.918C331.61 146.973 330.692 146.43 329.113 145.318C327.871 144.518 327.155 143.609 326.966 142.606C326.939 142.443 327.749 141.005 329.423 138.279C332.15 133.709 335.984 127.308 340.912 119.089C342.694 116.119 344.597 112.769 346.623 109.053C346.11 106.639 346.231 104.333 346.987 102.163C347.743 99.9934 349.498 97.3895 352.252 94.338C354.007 92.358 355.371 91.1916 356.329 90.8526C356.694 90.7305 357.085 90.9475 357.517 91.49C357.949 92.0325 358.179 92.6563 358.206 93.3616C358.327 95.4637 357.706 97.8913 356.302 100.617C355.033 102.828 353.764 105.039 352.482 107.249C353.845 108.416 354.939 109.27 355.749 109.826C359.124 112.077 360.973 114.044 361.284 115.739C361.54 117.109 360.825 119.333 359.11 122.385C357.882 124.527 356.64 126.711 355.371 128.921C353.413 132.963 352.563 135.635 352.806 136.95C352.981 137.845 353.562 138.198 354.561 138.008C355.614 137.805 358.773 134.78 364.038 128.908C364.713 128.176 366.239 126.304 368.615 123.28C370.37 121.028 371.409 119.876 371.72 119.821C372.192 119.726 372.651 119.848 373.097 120.174C373.542 120.499 373.745 120.866 373.704 121.245Z" fill="#0E7C74"/>
<path d="M97.0276 79.0807C97.1896 79.9216 97.0951 80.7624 96.7711 81.5897C96.1501 83.5155 94.4085 90.5678 91.5464 102.76C88.2388 116.661 85.1472 130.291 82.2852 143.664C79.1531 158.189 75.859 175.494 72.4299 195.606C71.8899 198.834 71.2149 203.73 70.3913 210.294C70.1618 213.129 69.4733 214.661 68.3123 214.878C67.5157 215.027 66.5842 214.105 65.4907 212.098C64.5592 210.362 63.9921 208.938 63.7761 207.826C63.0336 203.906 64.6942 192.514 68.7578 173.649C71.4308 162.122 74.1039 150.607 76.7905 139.134L83.7567 108.945C80.8406 115.549 77.6275 122.656 74.0769 130.264C63.7626 152.398 52.2603 179.983 39.5294 212.993C39.3944 213.454 39.1109 214.092 38.6654 214.892C38.7869 216.953 38.0039 218.147 36.3163 218.459C35.6278 218.594 34.7908 218.242 33.7918 217.428C32.7927 216.601 32.2257 215.828 32.0772 215.082C31.0377 209.589 32.8873 190.914 37.6259 159.07C38.2874 154.784 41.136 139.486 46.1581 113.162C32.9818 145.915 21.4659 177.298 11.5836 207.283C10.4901 210.498 9.00507 215.38 7.12852 221.917C6.494 224.602 5.64347 226.053 4.57694 226.257C3.30791 226.501 2.25488 224.399 1.40435 219.964C0.850837 217.062 1.97137 211.311 4.76595 202.727C5.81898 199.404 8.23555 192.853 12.0022 183.089C14.9047 175.412 19.1709 164.4 24.8005 150.065L44.6596 99.9121C45.2806 98.5831 46.0501 96.603 46.9682 93.9584C46.9952 93.5108 47.0627 92.7378 47.1842 91.6121C47.3732 90.0389 48.1022 89.1303 49.3712 88.8861C49.4387 88.9268 49.6007 88.954 49.8707 88.954C53.0028 90.8255 54.7309 92.5479 55.0279 94.1347C55.0144 94.0804 52.0983 113.162 46.2931 151.394C44.8621 160.765 42.9045 174.884 40.434 193.708C45.4156 180.959 53.1918 161.959 63.7491 136.679C67.6912 127.647 73.6854 114.152 81.7181 96.2232C83.0547 93.1853 85.2822 88.8183 88.4143 83.0951C90.7364 79.7588 92.64 77.9551 94.1115 77.6703C94.53 77.5889 95.097 77.6974 95.8126 77.9958C96.5416 78.3077 96.9466 78.6603 97.0276 79.0807Z" fill="#70E4DE"/>
<path d="M112.648 152.14C113.147 153.089 112.378 156.29 110.299 161.769C107.315 169.947 105.668 174.572 105.33 175.684C104.696 177.826 104.561 180.118 104.925 182.573C105.33 185.828 105.006 187.564 103.953 187.767C102.009 188.147 100.565 186.194 99.6603 181.936C95.9477 187.659 92.6536 190.738 89.7915 191.172C89.5215 191.226 89.292 191.266 89.076 191.307C88.8735 191.402 88.5225 191.389 88.0094 191.266C87.3344 191.172 85.9034 190.493 83.6893 189.205C83.1358 188.866 82.4743 187.998 81.7183 186.574C80.9622 185.15 80.5572 184.174 80.5032 183.631C80.3817 182.397 80.5842 179.915 81.1378 176.185C82.4068 171.384 84.0268 167.316 85.9844 163.98C87.9419 160.643 90.0615 157.822 92.3566 155.517C95.0026 152.764 97.6217 151.055 100.214 150.39C100.322 150.377 100.403 150.35 100.457 150.35C100.605 150.255 100.7 150.2 100.74 150.16C101.186 149.916 101.753 150.038 102.455 150.553C103.157 151.068 104.102 152.167 105.29 153.822C106.262 151.774 107.031 150.662 107.612 150.499C109.907 149.766 111.595 150.323 112.648 152.14ZM101.807 154.961L101.793 154.879C100.659 155.205 99.5388 156.046 98.4317 157.415C94.6111 162.04 91.7626 166.855 89.886 171.873C88.1039 176.552 87.2669 180.62 87.3749 184.106C87.4289 184.974 87.7799 185.679 88.428 186.208C88.5765 186.126 88.914 185.896 89.4405 185.516C91.4115 184.106 93.9631 180.485 97.1222 174.68C99.2013 170.72 100.524 168.035 101.078 166.611C101.361 165.512 101.645 164.427 101.928 163.329C102.617 158.69 102.59 155.91 101.807 154.961Z" fill="#70E4DE"/>
<path d="M156.942 97.6066C157.131 97.7286 157.266 98.0406 157.361 98.5152C157.604 99.8308 157.577 101.499 157.253 103.52C156.902 105.717 156.362 106.883 155.633 107.019C153.554 107.236 148.734 107.9 141.201 108.985C136.8 118.275 133.128 127.186 130.158 135.703C127.458 143.352 124.771 150.974 122.071 158.568C118.453 169.35 116.873 175.969 117.332 178.396C117.521 179.4 118.25 179.779 119.506 179.549C122.449 178.979 127.255 175.616 133.924 169.459C134.478 168.97 135.085 168.659 135.706 168.536C136.651 168.36 137.191 168.631 137.34 169.377C137.475 170.069 137.083 170.91 136.179 171.9C128.754 180.241 122.84 184.838 118.412 185.693C117.616 185.842 116.914 185.842 116.279 185.693C115.496 185.57 114.619 184.703 113.66 183.075C112.837 181.637 112.324 180.349 112.108 179.183C110.96 173.161 114.497 158.446 122.719 135.024C125.676 126.467 128.727 118.384 131.872 110.775L131.238 110.897C105.438 115.82 88.6035 119.36 80.7193 121.517C80.3143 121.652 79.5582 121.164 78.4782 120.065C77.3982 118.967 76.7772 117.882 76.6422 116.811C76.4936 115.753 82.9468 113.556 96.0152 110.233C106.573 107.507 116.833 105.134 126.823 103.113C129.348 102.625 132.426 102.014 136.044 101.268C136.678 100.021 137.124 99.2205 137.394 98.9085C137.947 98.366 139.081 98.0677 140.823 98.0134C141.579 97.9727 142.511 98.5424 143.591 99.6816C152.028 97.8914 156.483 97.2133 156.942 97.6066Z" fill="#70E4DE"/>
<path d="M162.599 166.163C160.182 168.916 156.686 171.913 152.109 175.141C146.925 178.871 142.834 181.014 139.837 181.583C139 181.746 138.271 181.76 137.677 181.624C137.083 181.488 136.408 180.919 135.679 179.915C135.328 179.766 134.964 179.562 134.586 179.305C134.046 179.034 133.398 178.179 132.628 176.769C131.872 175.358 131.467 174.355 131.4 173.758C131.292 172.578 131.494 170.096 132.034 166.339C133.317 161.606 134.937 157.565 136.894 154.215C138.852 150.865 140.971 148.031 143.266 145.739C145.913 143.04 148.545 141.344 151.137 140.626C151.394 140.571 151.664 140.531 151.92 140.476L152.001 140.463C152.379 140.178 152.946 140.287 153.702 140.802C155.795 142.334 157.131 144.179 157.698 146.335C158.333 148.817 158.4 151.733 157.887 155.096C157.698 156.412 156.942 157.185 155.633 157.443C153.945 157.768 153 157.375 152.784 156.263C152.906 156.9 153.108 155.707 153.419 152.682C153.77 148.492 153.662 146.064 153.095 145.413C152.96 145.277 152.811 145.196 152.636 145.169C151.556 145.481 150.449 146.322 149.355 147.678C145.521 152.235 142.672 157.009 140.782 162C138.501 168.062 137.704 172.361 138.406 174.897C139.311 175.331 140.094 175.467 140.782 175.345C143.05 174.911 146.75 173.039 151.907 169.73C156.146 167.085 158.967 165.105 160.358 163.817C160.911 163.274 161.506 162.949 162.127 162.827C163.126 162.637 163.693 162.908 163.841 163.641C163.963 164.319 163.558 165.159 162.599 166.163Z" fill="#70E4DE"/>
<path d="M192.421 92.2224C190.356 96.0198 184.929 109.067 176.126 131.39C173.008 139.432 169.241 150.58 164.8 164.848C167.54 162.067 172.36 155.978 179.245 146.539C180.311 144.966 182.31 141.982 185.239 137.574C186.846 135.133 187.912 133.858 188.439 133.75C189.438 133.56 190.599 134.075 191.922 135.309C192.988 135.77 193.65 137.059 193.893 139.215C193.974 139.636 193.191 141.25 191.53 144.03C190.585 145.644 189.168 149.088 187.278 154.391C185.779 158.568 184.996 161.877 184.902 164.305C184.834 166.244 185.131 167.411 185.82 167.831C186.063 167.953 186.333 167.98 186.657 167.913C188.763 167.506 192.259 162.366 197.146 152.479C197.97 150.784 198.78 149.861 199.563 149.712C200.508 149.536 201.102 150.051 201.332 151.258C201.372 151.475 201.359 151.665 201.278 151.842C198.469 159.45 195.877 164.902 193.501 168.197C190.963 171.751 187.98 173.853 184.551 174.517C183.754 174.667 182.701 173.961 181.365 172.415C179.893 170.679 178.921 168.618 178.475 166.231C178.111 164.332 179.069 159.274 181.324 151.055C180.622 151.964 179.933 152.804 179.272 153.591C178.489 154.622 174.722 159.64 167.972 168.659C163.746 174.287 161.316 177.162 160.695 177.284C160.641 177.298 160.587 177.271 160.52 177.23C160.196 177.23 159.71 176.904 159.062 176.24C158.414 175.575 158.063 175.073 158.009 174.762C156.956 168.347 160.493 153.618 168.607 130.603C177.328 105.879 182.931 92.2495 185.388 89.6999C185.941 89.1574 187.075 88.859 188.817 88.7912C189.195 88.7776 189.897 89.1302 190.909 89.8762C191.922 90.6221 192.421 91.4087 192.421 92.2224Z" fill="#70E4DE"/>
<path d="M249.339 141.833C246.45 149.021 244.046 154.066 242.156 157.009C239.645 160.996 236.959 163.261 234.124 163.803C233.489 163.925 232.625 163.22 231.505 161.674C230.182 159.897 229.304 157.849 228.859 155.53C228.589 154.106 228.994 150.39 230.101 144.369C227.846 148.031 224.66 153.225 220.529 159.924C220.029 161.064 219.192 162.352 217.991 163.776C217.41 164.495 216.992 164.848 216.722 164.848C216.344 164.861 215.601 164.156 214.521 162.718C213.225 161.104 212.55 159.667 212.483 158.419C212.361 156.086 212.969 151.367 214.292 144.26C213.603 145.264 212.982 146.227 212.415 147.122C211.848 148.031 208.919 152.764 203.613 161.335C200.332 166.733 198.415 169.486 197.902 169.581C197.686 169.567 197.538 169.404 197.484 169.079C197.119 169.147 196.66 168.428 196.093 166.923C195.54 165.417 195.27 164.278 195.283 163.505C195.459 159.857 196.633 154.513 198.78 147.461C200.17 142.972 201.075 138.863 201.507 135.106C201.723 133.085 202.101 132.054 202.641 132.014C203.653 131.878 204.855 132.421 206.272 133.668C207.677 134.902 208.419 135.879 208.5 136.571C208.527 136.733 207.987 138.89 206.867 143.053C206.556 144.314 205.287 148.207 203.032 154.717C205.422 151.245 208.46 146.376 212.118 140.097C212.996 138.673 214.548 135.825 216.803 131.566C218.058 129.247 218.882 128.054 219.314 127.972C219.84 127.877 220.488 128.108 221.244 128.664C222.824 129.233 223.647 130.576 223.728 132.705C223.742 133.641 222.878 137.032 221.163 142.877C219.368 148.966 218.409 152.981 218.288 154.92C219.935 153.51 223.958 147.393 230.357 136.584C231.599 134.482 232.936 131.905 234.367 128.827C235.271 126.955 235.919 125.979 236.351 125.897C237.769 125.626 238.957 126.548 239.902 128.664C239.996 128.867 239.942 129.179 239.753 129.6C239.942 130.006 240.064 130.359 240.118 130.685C240.239 131.647 240.037 132.705 239.483 133.845C238.741 135.404 237.674 138.713 236.284 143.745C234.853 149.115 234.124 152.465 234.097 153.781C234.11 156.412 234.61 157.632 235.609 157.429C238.133 156.941 241.589 151.882 245.977 142.212C246.679 140.707 247.368 139.893 248.056 139.758C248.529 139.663 248.907 139.893 249.163 140.449C249.42 140.965 249.487 141.426 249.339 141.833Z" fill="#70E4DE"/>
<path d="M275.125 121.028C275.624 121.978 274.855 125.178 272.776 130.657C269.792 138.835 268.145 143.46 267.808 144.572C267.173 146.715 267.038 149.007 267.402 151.462C267.808 154.717 267.484 156.453 266.43 156.656C264.486 157.036 263.042 155.083 262.137 150.824C258.425 156.548 255.131 159.626 252.269 160.06C251.999 160.114 251.769 160.155 251.553 160.196C251.351 160.291 251 160.277 250.487 160.155C249.811 160.06 248.38 159.382 246.166 158.094C245.613 157.755 244.951 156.887 244.195 155.463C243.439 154.039 243.034 153.062 242.98 152.52C242.859 151.285 243.061 148.804 243.615 145.074C244.884 140.273 246.504 136.204 248.461 132.868C250.419 129.532 252.539 126.711 254.834 124.405C257.48 121.652 260.099 119.943 262.691 119.279C262.799 119.265 262.88 119.238 262.934 119.238C263.082 119.143 263.177 119.089 263.217 119.048C263.663 118.804 264.23 118.926 264.932 119.442C265.634 119.957 266.579 121.055 267.767 122.71C268.739 120.662 269.509 119.55 270.089 119.387C272.384 118.655 274.072 119.211 275.125 121.028ZM264.297 123.849L264.284 123.768C263.15 124.093 262.029 124.934 260.922 126.304C257.102 130.929 254.253 135.743 252.377 140.761C250.595 145.44 249.757 149.509 249.865 152.994C249.919 153.862 250.27 154.568 250.919 155.096C251.067 155.015 251.405 154.785 251.931 154.405C253.902 152.994 256.454 149.373 259.613 143.569C261.692 139.608 263.015 136.923 263.568 135.499C263.852 134.401 264.135 133.316 264.419 132.217C265.107 127.579 265.067 124.799 264.297 123.849Z" fill="#70E4DE"/>
<path d="M307.08 70.2789C305.015 74.0763 299.587 87.1366 290.785 109.487C289.044 114.098 286.317 121.462 282.631 131.607C286.087 127.714 289.584 123.971 293.107 120.404C302.017 111.304 307.229 106.747 308.754 106.734C309.456 106.707 310.212 107.249 311.022 108.361C311.832 109.473 312.17 110.396 312.035 111.128C311.994 111.738 310.415 113.244 307.323 115.658C302.112 119.781 298.804 122.479 297.4 123.727C297.049 124.731 296.482 126.535 295.726 129.152C294.7 132.692 294.147 136.76 294.025 141.331C293.958 143.596 294.457 145.033 295.497 145.657C295.74 145.833 296.077 145.874 296.509 145.793C300.033 145.115 305.312 139.595 312.345 129.22C313.412 127.647 314.303 126.779 315.045 126.643C316.098 126.44 316.571 127.091 316.476 128.582C316.301 131.132 312.629 136.516 305.474 144.735C301.707 149.075 297.967 151.597 294.228 152.303C293.431 152.452 292.378 151.76 291.042 150.2C289.57 148.465 288.598 146.403 288.153 144.016C287.437 140.259 287.572 136.191 288.531 131.783C284.21 136.014 280.673 142.158 277.96 150.241C277.919 150.309 277.865 150.336 277.811 150.35C277.811 150.892 277.447 151.882 276.731 153.306C276.016 154.73 275.503 155.449 275.179 155.449C274.841 155.408 274.369 155.042 273.748 154.364C273.127 153.686 272.789 153.225 272.749 152.954C271.628 146.484 275.152 131.729 283.333 108.673C292.054 83.9359 297.643 70.2789 300.114 67.7292C300.667 67.1867 301.774 66.8884 303.462 66.8477C303.894 66.8205 304.596 67.1732 305.582 67.9191C306.594 68.665 307.08 69.4516 307.08 70.2789Z" fill="#70E4DE"/>
<path d="M338.576 132.461C336.16 135.214 332.636 138.212 328.005 141.453C322.875 145.169 318.812 147.312 315.801 147.881C314.91 148.058 314.154 148.071 313.56 147.936C312.966 147.8 312.291 147.23 311.562 146.227C311.265 146.064 310.914 145.861 310.549 145.603C310.009 145.332 309.348 144.477 308.551 143.08C307.768 141.67 307.377 140.666 307.363 140.07C307.201 138.903 307.404 136.421 307.998 132.651C309.226 127.931 310.833 123.89 312.817 120.527C314.802 117.163 316.908 114.342 319.149 112.05C321.849 109.351 324.509 107.643 327.087 106.924C327.344 106.869 327.587 106.829 327.803 106.788C327.857 106.775 327.911 106.775 327.965 106.761C328.343 106.476 328.91 106.585 329.666 107.1C331.704 108.646 333.014 110.491 333.581 112.647C334.27 115.115 334.351 118.018 333.851 121.381C333.797 121.666 333.73 121.896 333.662 122.086C333.406 123.022 332.798 124.351 331.839 126.087C330.881 127.823 327.992 129.138 323.145 130.074C320.405 130.603 318.042 130.657 316.058 130.237C314.329 135.499 313.762 139.161 314.37 141.222C315.221 141.656 316.004 141.805 316.746 141.656C319.014 141.222 322.713 139.351 327.87 136.042C332.055 133.397 334.877 131.43 336.322 130.129C336.875 129.586 337.469 129.261 338.09 129.138C339.035 128.962 339.575 129.233 339.724 129.979C339.859 130.63 339.481 131.471 338.576 132.461ZM328.991 111.711C328.91 111.562 328.761 111.481 328.532 111.467C327.452 111.793 326.358 112.633 325.251 113.99C322.632 117.19 320.351 120.771 318.366 124.717C319.905 124.758 321.836 124.446 324.158 123.768C325.913 123.266 326.817 123.008 326.871 122.995C327.83 122.588 328.545 121.91 329.018 120.933C330.044 115.97 330.03 112.891 328.991 111.711Z" fill="#70E4DE"/>
<path d="M375 117.529C374.892 118.153 373.502 120.608 370.802 124.894C368.102 129.179 365.969 132.217 364.402 133.994C360.595 138.334 357.72 140.693 355.776 141.06C354.939 141.222 353.778 140.87 352.306 140.002C351.145 139.351 350.362 138.781 349.944 138.32C349.363 137.561 348.85 135.689 348.391 132.705C348.04 129.979 348.593 126.86 350.038 123.361C350.74 121.584 352.644 117.746 355.762 111.833C354.831 110.925 354.142 110.314 353.697 110.016C353.116 109.528 352.293 108.917 351.226 108.185C348.688 112.945 347.068 115.997 346.339 117.339C337.658 134.563 333.271 143.189 333.163 143.202C332.906 143.257 331.988 142.714 330.408 141.602C329.166 140.802 328.451 139.893 328.262 138.89C328.235 138.727 329.045 137.289 330.719 134.563C333.446 129.993 337.28 123.592 342.208 115.373C343.99 112.403 345.893 109.053 347.918 105.337C347.405 102.923 347.527 100.617 348.283 98.4475C349.039 96.2775 350.794 93.6736 353.548 90.6221C355.303 88.642 356.667 87.4757 357.625 87.1366C357.99 87.0146 358.381 87.2316 358.813 87.7741C359.245 88.3165 359.475 88.9404 359.502 89.6456C359.623 91.7478 359.002 94.1754 357.598 96.9014C356.329 99.112 355.06 101.323 353.778 103.533C355.141 104.7 356.235 105.554 357.045 106.11C360.42 108.361 362.269 110.328 362.58 112.023C362.836 113.393 362.121 115.617 360.406 118.669C359.178 120.811 357.936 122.995 356.667 125.206C354.709 129.247 353.859 131.919 354.102 133.234C354.277 134.129 354.858 134.482 355.857 134.292C356.91 134.089 360.069 131.064 365.334 125.192C366.009 124.46 367.535 122.588 369.911 119.564C371.666 117.312 372.705 116.16 373.016 116.105C373.488 116.01 373.947 116.132 374.393 116.458C374.838 116.77 375.041 117.136 375 117.529Z" fill="#70E4DE"/>
<path d="M226.793 12.5721C227.131 14.3216 227.279 16.261 227.239 18.4038C227.225 20.3296 226.969 22.8657 226.469 26.0257C225.875 30.0808 225.133 32.4135 224.269 33.0238C223.742 33.4035 223.094 33.6612 222.365 33.7968C220.516 34.1494 219.503 33.8239 219.301 32.8203C219.125 31.9252 219.301 29.2535 219.8 24.8051C220.3 20.3567 220.354 17.0476 219.935 14.8776C219.287 11.5007 217.654 10.0631 215.021 10.5649C208.811 11.7584 201.602 17.5494 193.42 27.938C187.426 35.4921 182.31 43.4937 178.07 51.9294C172.913 62.1281 168.647 73.7508 165.272 86.7704C161.316 102.163 160.182 114.356 161.897 123.347C163.395 131.227 167.095 134.604 172.994 133.478C180.149 132.109 185.955 126.426 190.396 116.458C190.869 115.21 191.625 113.284 192.651 110.667C192.853 110.029 193.164 109.663 193.596 109.582C194.959 109.324 195.931 110.667 196.498 113.637C196.647 114.437 196.647 115.142 196.498 115.78C194.959 121.462 191.976 126.724 187.548 131.58C182.863 136.76 177.827 139.866 172.454 140.897C163.301 142.646 157.455 136.896 154.931 123.619C152.798 112.349 153.824 98.8136 158.022 82.9866C161.424 69.8856 166.406 57.1779 172.967 44.8499C181.837 28.0193 192.543 15.8677 205.085 8.35426C208.959 6.02158 212.388 4.57043 215.385 4.00082C221.69 2.7938 225.47 5.6554 226.793 12.5721Z" fill="#0E7C74"/>
<path d="M235.96 31.0844C233.895 34.8682 228.468 47.9285 219.665 70.2518C216.547 78.2941 212.78 89.4421 208.339 103.709C211.079 100.929 215.899 94.8399 222.784 85.4006C223.85 83.8274 225.849 80.8438 228.778 76.4361C230.385 73.9949 231.451 72.7201 231.978 72.6116C232.977 72.4217 234.138 72.9371 235.461 74.1712C236.527 74.6323 237.189 75.9207 237.432 78.0771C237.513 78.4975 236.73 80.1114 235.069 82.8916C234.124 84.5055 232.707 87.9503 230.817 93.2531C229.318 97.4302 228.535 100.739 228.441 103.167C228.373 105.106 228.67 106.273 229.359 106.693C229.602 106.815 229.872 106.842 230.196 106.775C232.302 106.368 235.798 101.228 240.685 91.3408C241.509 89.6456 242.319 88.7233 243.102 88.5742C244.047 88.3979 244.641 88.9132 244.871 90.1202C244.911 90.3372 244.898 90.5271 244.817 90.7034C242.008 98.3118 239.416 103.764 237.04 107.059C234.502 110.613 231.519 112.715 228.09 113.379C227.293 113.528 226.24 112.837 224.904 111.277C223.432 109.541 222.46 107.466 222.014 105.093C221.65 103.194 222.608 98.1355 224.863 89.9168C224.161 90.8255 223.472 91.6663 222.811 92.4529C222.028 93.4837 218.261 98.5016 211.511 107.52C207.286 113.149 204.855 116.024 204.234 116.146C204.18 116.16 204.126 116.132 204.059 116.092C203.735 116.092 203.249 115.766 202.601 115.102C201.953 114.437 201.602 113.935 201.548 113.623C200.495 107.209 204.032 92.4801 212.146 69.4652C220.867 44.7414 226.47 31.1115 228.927 28.5618C229.48 28.0193 230.614 27.721 232.356 27.6532C232.734 27.6396 233.436 27.9922 234.448 28.7381C235.461 29.484 235.974 30.2706 235.96 31.0844Z" fill="#0E7C74"/>
<path d="M269.13 92.9548C266.714 95.7079 263.19 98.7051 258.56 101.946C253.429 105.662 249.366 107.805 246.355 108.375C245.464 108.551 244.708 108.565 244.114 108.429C243.52 108.294 242.845 107.724 242.116 106.72C241.819 106.558 241.468 106.354 241.104 106.096C240.564 105.825 239.902 104.971 239.106 103.574C238.322 102.163 237.931 101.16 237.917 100.563C237.755 99.3968 237.958 96.9149 238.552 93.1447C239.781 88.425 241.387 84.3835 243.372 81.0201C245.356 77.6567 247.462 74.8358 249.703 72.5438C252.403 69.8449 255.063 68.1361 257.642 67.4173C257.898 67.3631 258.141 67.3224 258.357 67.2817C258.411 67.2681 258.465 67.2681 258.519 67.2546C258.897 66.9698 259.464 67.0783 260.22 67.5936C262.259 69.1397 263.568 70.9841 264.135 73.1405C264.824 75.6088 264.905 78.5111 264.405 81.8745C264.351 82.1593 264.284 82.3899 264.216 82.5798C263.96 83.5156 263.352 84.8446 262.394 86.5806C261.435 88.3165 258.546 89.6321 253.699 90.5679C250.959 91.0968 248.596 91.151 246.612 90.7306C244.884 95.9927 244.317 99.6545 244.924 101.716C245.775 102.15 246.558 102.299 247.3 102.15C249.568 101.716 253.267 99.8443 258.425 96.5352C262.61 93.8906 265.431 91.9241 266.876 90.6221C267.429 90.0796 268.023 89.7541 268.644 89.6321C269.589 89.4558 270.129 89.727 270.278 90.4729C270.426 91.1239 270.035 91.9648 269.13 92.9548ZM259.559 72.2047C259.478 72.0556 259.329 71.9742 259.1 71.9606C258.02 72.2861 256.912 73.127 255.819 74.4832C253.2 77.6838 250.918 81.2642 248.934 85.2108C250.473 85.2515 252.403 84.9396 254.725 84.2615C256.48 83.7597 257.385 83.502 257.439 83.4884C258.398 83.0816 259.113 82.4035 259.586 81.427C260.612 76.4632 260.598 73.3846 259.559 72.2047Z" fill="#0E7C74"/>
<path d="M294.403 88.1266C291.987 90.8797 288.463 93.877 283.833 97.1183C278.702 100.834 274.639 102.977 271.628 103.547C270.737 103.723 269.981 103.737 269.387 103.601C268.793 103.465 268.118 102.896 267.389 101.892C267.092 101.729 266.741 101.526 266.377 101.268C265.837 100.997 265.175 100.143 264.378 98.7458C263.595 97.3353 263.204 96.3317 263.19 95.735C263.028 94.5686 263.231 92.0868 263.825 88.3165C265.053 83.5969 266.66 79.5554 268.645 76.192C270.629 72.8286 272.735 70.0076 274.976 67.7156C277.676 65.0168 280.336 63.308 282.915 62.5892C283.171 62.5349 283.414 62.4942 283.63 62.4535C283.684 62.44 283.738 62.44 283.792 62.4264C284.17 62.1416 284.737 62.2501 285.493 62.7655C287.532 64.3115 288.841 66.156 289.408 68.3124C290.097 70.7807 290.178 73.683 289.678 77.0464C289.624 77.3312 289.557 77.5617 289.489 77.7516C289.233 78.6874 288.625 80.0165 287.667 81.7524C286.708 83.4884 283.819 84.8039 278.972 85.7397C276.232 86.2686 273.869 86.3229 271.885 85.9025C270.157 91.1646 269.59 94.8263 270.197 96.8878C271.048 97.3218 271.831 97.4709 272.573 97.3217C274.841 96.8878 278.54 95.0162 283.697 91.707C287.883 89.0624 290.704 87.0959 292.149 85.7939C292.702 85.2515 293.296 84.926 293.917 84.8039C294.862 84.6276 295.402 84.8988 295.551 85.6448C295.686 86.2957 295.308 87.123 294.403 88.1266ZM284.818 67.363C284.737 67.2138 284.589 67.1325 284.359 67.1189C283.279 67.4444 282.172 68.2853 281.078 69.6415C278.459 72.8421 276.178 76.4225 274.193 80.3691C275.732 80.4098 277.663 80.0979 279.985 79.4197C281.74 78.9179 282.644 78.6603 282.698 78.6467C283.657 78.2399 284.373 77.5617 284.845 76.5853C285.871 71.6215 285.858 68.5429 284.818 67.363Z" fill="#0E7C74"/>
<path d="M324.118 79.2299C324.712 80.0572 324.32 81.1421 322.943 82.5119C318.353 87.0824 314.506 89.6592 311.4 90.2559C310.82 90.3644 310.266 90.4729 309.74 90.5678C307.998 94.9213 305.055 97.4981 300.897 98.2982C296.104 99.2205 292.959 97.2404 291.433 92.3851C289.557 95.4231 287.289 98.583 284.643 101.865C284.184 102.014 283.347 101.621 282.132 100.699C281.619 100.305 281.403 99.7223 281.47 98.9357C281.524 97.7693 285.615 91.0425 293.755 78.7416C295.605 75.8665 298.764 70.6315 303.206 63.0367C306.257 57.8424 308.093 55.1707 308.714 54.9944C309.497 54.7909 310.469 55.0215 311.63 55.6725C312.791 56.337 313.574 57.0287 313.992 57.7746C314.289 58.1543 313.709 59.4292 312.264 61.572C311.198 64.0267 310.82 68.014 311.09 73.5202C311.414 79.8402 311.373 84.058 310.955 86.1737C313.155 85.699 315.37 84.5734 317.597 82.7967C318.812 81.7253 320.027 80.6539 321.242 79.5825C322.592 78.6467 323.551 78.5247 324.118 79.2299ZM302.585 90.3508C301.775 90.1338 300.492 89.8219 298.724 89.415C296.604 88.9132 295.443 88.8454 295.24 89.2116C294.997 89.6863 295.024 90.3644 295.308 91.2595C295.362 91.3002 295.375 91.3815 295.348 91.49C295.983 93.1175 297.022 93.877 298.481 93.7549C300.195 93.5515 301.559 92.4123 302.585 90.3508ZM304.637 72.2861C301.221 76.9921 298.278 81.3184 295.807 85.2379C296.131 85.2379 298.886 85.4956 304.056 86.0381C304.529 84.2479 304.731 81.9966 304.65 79.2706C304.583 75.1748 304.583 72.8421 304.637 72.2861Z" fill="#0E7C74"/>
<path d="M348.567 77.7516C346.15 80.5047 342.627 83.5019 337.996 86.7433C332.866 90.4593 328.802 92.6021 325.792 93.1717C324.901 93.348 324.145 93.3616 323.551 93.226C322.957 93.0904 322.282 92.5208 321.553 91.5172C321.256 91.3544 320.905 91.151 320.54 90.8933C320 90.6221 319.339 89.7676 318.542 88.3707C317.759 86.9603 317.368 85.9567 317.354 85.36C317.192 84.1936 317.394 81.7118 317.989 77.9415C319.217 73.2219 320.824 69.1804 322.808 65.817C324.793 62.4536 326.899 59.6326 329.14 57.3406C331.84 54.6418 334.5 52.9329 337.078 52.2142C337.335 52.1599 337.578 52.1192 337.794 52.0785C337.848 52.065 337.902 52.065 337.956 52.0514C338.334 51.7666 338.901 51.8751 339.657 52.3905C341.695 53.9365 343.005 55.781 343.572 57.9374C344.26 60.4057 344.341 63.308 343.842 66.6714C343.788 66.9562 343.72 67.1867 343.653 67.3766C343.396 68.3124 342.789 69.6415 341.83 71.3774C340.872 73.1134 337.983 74.4289 333.136 75.3647C330.395 75.8936 328.033 75.9479 326.048 75.5274C324.32 80.7895 323.753 84.4513 324.361 86.5127C325.211 86.9467 325.994 87.0959 326.737 86.9467C329.005 86.5127 332.704 84.6412 337.861 81.332C342.046 78.6874 344.868 76.7209 346.312 75.4189C346.866 74.8764 347.46 74.551 348.081 74.4289C349.026 74.2526 349.566 74.5238 349.714 75.2697C349.849 75.9207 349.471 76.7616 348.567 77.7516ZM338.982 56.988C338.901 56.8388 338.752 56.7575 338.523 56.7439C337.443 57.0694 336.336 57.9102 335.242 59.2665C332.623 62.4671 330.341 66.0475 328.357 69.9941C329.896 70.0348 331.826 69.7228 334.149 69.0447C335.904 68.5429 336.808 68.2853 336.862 68.2717C337.821 67.8648 338.536 67.1867 339.009 66.2103C340.035 61.2465 340.021 58.1679 338.982 56.988Z" fill="#0E7C74"/>
<path d="M228.076 8.84251C228.414 10.592 228.562 12.5314 228.522 14.6742C228.508 16.6 228.252 19.1362 227.752 22.2961C227.158 26.3512 226.415 28.6839 225.551 29.2942C225.025 29.6739 224.377 29.9316 223.648 30.0672C221.798 30.4198 220.786 30.0944 220.583 29.0908C220.408 28.1957 220.583 25.5239 221.083 21.0755C221.582 16.6272 221.636 13.318 221.218 11.1481C220.57 7.7711 218.936 6.33352 216.304 6.83531C210.094 8.02878 202.884 13.8198 194.703 24.2084C188.709 31.7625 183.592 39.7641 179.353 48.1998C174.196 58.3985 169.93 70.0212 166.555 83.0409C162.599 98.4339 161.465 110.626 163.18 119.618C164.678 127.498 168.377 130.874 174.277 129.749C181.432 128.379 187.237 122.697 191.679 112.728C192.152 111.481 192.908 109.555 193.934 106.937C194.136 106.3 194.447 105.934 194.879 105.852C196.242 105.595 197.214 106.937 197.781 109.907C197.93 110.708 197.93 111.413 197.781 112.05C196.242 117.733 193.259 122.995 188.83 127.85C184.146 133.031 179.11 136.137 173.737 137.167C164.584 138.917 158.738 133.153 156.213 119.889C154.08 108.619 155.106 95.084 159.305 79.257C162.707 66.156 167.689 53.4483 174.25 41.1204C183.12 24.2898 193.826 12.1381 206.367 4.62469C210.242 2.292 213.671 0.840857 216.668 0.271248C222.973 -0.935781 226.766 1.92583 228.076 8.84251Z" fill="#70E4DE"/>
<path d="M237.256 27.3548C235.191 31.1522 229.764 44.1989 220.961 66.5222C217.843 74.5645 214.076 85.7126 209.635 99.9799C212.375 97.1997 217.195 91.1103 224.08 81.6711C225.146 80.0979 227.144 77.1142 230.074 72.7065C231.681 70.2653 232.747 68.9905 233.274 68.882C234.273 68.6921 235.434 69.2075 236.757 70.4417C237.823 70.9028 238.485 72.1912 238.728 74.3475C238.809 74.768 238.026 76.3819 236.365 79.1621C235.42 80.776 234.003 84.2208 232.113 89.5235C230.614 93.7007 229.831 97.0098 229.737 99.4375C229.669 101.377 229.966 102.543 230.655 102.964C230.898 103.086 231.168 103.113 231.492 103.045C233.598 102.638 237.094 97.4981 241.981 87.6113C242.805 85.916 243.615 84.9938 244.398 84.8446C245.343 84.6683 245.937 85.1837 246.167 86.3907C246.207 86.6077 246.194 86.7976 246.113 86.9739C243.304 94.5822 240.712 100.034 238.336 103.33C235.798 106.883 232.815 108.985 229.386 109.65C228.589 109.799 227.536 109.107 226.199 107.548C224.728 105.812 223.756 103.75 223.31 101.363C222.946 99.4646 223.904 94.4059 226.159 86.1873C225.457 87.0959 224.768 87.9368 224.107 88.7234C223.324 89.7541 219.557 94.7721 212.807 103.791C208.581 109.419 206.151 112.294 205.53 112.416C205.476 112.43 205.422 112.403 205.355 112.362C205.031 112.362 204.545 112.037 203.897 111.372C203.249 110.708 202.898 110.206 202.844 109.894C201.791 103.479 205.328 88.7505 213.442 65.7356C222.163 41.0119 227.766 27.3819 230.223 24.8322C230.776 24.2898 231.91 23.9914 233.652 23.9236C234.03 23.91 234.732 24.2626 235.731 25.0085C236.757 25.7545 237.256 26.5411 237.256 27.3548Z" fill="#70E4DE"/>
<path d="M270.427 89.2252C268.01 91.9783 264.487 94.9755 259.856 98.2169C254.726 101.933 250.662 104.076 247.652 104.645C246.761 104.822 246.005 104.835 245.411 104.7C244.817 104.564 244.142 103.994 243.412 102.991C243.115 102.828 242.764 102.625 242.4 102.367C241.86 102.096 241.198 101.241 240.402 99.8443C239.619 98.4339 239.227 97.4303 239.214 96.8335C239.052 95.6672 239.254 93.1853 239.848 89.4151C241.077 84.6954 242.683 80.6539 244.668 77.2905C246.653 73.9271 248.759 71.1062 251 68.8142C253.7 66.1153 256.359 64.4065 258.938 63.6877C259.208 63.6335 259.437 63.5928 259.653 63.5521C259.707 63.5385 259.761 63.5385 259.815 63.525C260.194 63.2402 260.761 63.3487 261.517 63.864C263.555 65.4101 264.865 67.2546 265.432 69.4109C266.12 71.8792 266.201 74.7815 265.702 78.1449C265.648 78.4298 265.58 78.6603 265.513 78.8502C265.256 79.786 264.649 81.1151 263.69 82.851C262.732 84.587 259.842 85.9025 254.996 86.8383C252.255 87.3672 249.893 87.4214 247.908 87.001C246.18 92.2631 245.613 95.9249 246.221 97.9863C247.071 98.4203 247.854 98.5695 248.597 98.4203C250.865 97.9863 254.564 96.1148 259.721 92.8056C263.906 90.161 266.728 88.1945 268.172 86.8925C268.726 86.35 269.32 86.0245 269.941 85.9025C270.886 85.7262 271.439 85.9974 271.574 86.7433C271.723 87.4079 271.331 88.2352 270.427 89.2252ZM260.842 68.4752C260.761 68.326 260.612 68.2446 260.382 68.231C259.302 68.5565 258.195 69.3974 257.102 70.7536C254.483 73.9543 252.201 77.5346 250.217 81.4812C251.756 81.5219 253.686 81.21 256.008 80.5319C257.763 80.0301 258.668 79.7724 258.722 79.7588C259.68 79.352 260.396 78.6739 260.869 77.6974C261.895 72.7337 261.881 69.6551 260.842 68.4752Z" fill="#70E4DE"/>
<path d="M295.699 84.3971C293.283 87.1502 289.759 90.1474 285.128 93.3888C279.998 97.1048 275.935 99.2476 272.924 99.8172C272.033 99.9935 271.277 100.007 270.683 99.8715C270.089 99.7359 269.414 99.1662 268.685 98.1626C268.388 97.9999 268.037 97.7965 267.672 97.5388C267.132 97.2676 266.471 96.4131 265.674 95.0162C264.891 93.6058 264.5 92.6022 264.486 92.0054C264.324 90.8391 264.527 88.3572 265.121 84.587C266.349 79.8673 267.956 75.8258 269.94 72.4624C271.925 69.099 274.031 66.2781 276.272 63.9861C278.972 61.2872 281.632 59.5784 284.21 58.8596C284.467 58.8054 284.71 58.7647 284.926 58.724C284.98 58.7104 285.034 58.7104 285.088 58.6969C285.466 58.4121 286.033 58.5206 286.789 59.0359C288.827 60.582 290.137 62.4265 290.704 64.5828C291.393 67.0511 291.474 69.9534 290.974 73.3168C290.92 73.6016 290.852 73.8322 290.785 74.0221C290.528 74.9579 289.921 76.2869 288.962 78.0229C288.004 79.7588 285.115 81.0744 280.268 82.0102C277.528 82.5391 275.165 82.5933 273.181 82.1729C271.453 87.435 270.885 91.0968 271.493 93.1582C272.344 93.5922 273.127 93.7414 273.869 93.5922C276.137 93.1582 279.836 91.2867 284.993 87.9775C289.178 85.3329 292 83.3664 293.445 82.0644C293.998 81.5219 294.592 81.1964 295.213 81.0744C296.158 80.8981 296.698 81.1693 296.847 81.9152C296.982 82.5662 296.59 83.4071 295.699 84.3971ZM286.114 63.6335C286.033 63.4843 285.884 63.4029 285.655 63.3894C284.575 63.7149 283.468 64.5557 282.374 65.9119C279.755 69.1126 277.474 72.693 275.489 76.6396C277.028 76.6802 278.959 76.3683 281.281 75.6902C283.036 75.1884 283.94 74.9307 283.994 74.9172C284.953 74.5103 285.668 73.8322 286.141 72.8557C287.167 67.892 287.153 64.8134 286.114 63.6335Z" fill="#70E4DE"/>
<path d="M325.414 75.5139C326.008 76.3412 325.616 77.4262 324.239 78.7959C319.649 83.3664 315.801 85.9432 312.696 86.5399C312.116 86.6484 311.562 86.7569 311.036 86.8518C309.294 91.2053 306.351 93.7821 302.193 94.5822C297.4 95.5045 294.255 93.5244 292.729 88.6692C290.853 91.7071 288.585 94.8671 285.939 98.1491C285.48 98.2983 284.642 97.905 283.427 96.9827C282.914 96.5894 282.698 96.0063 282.766 95.2197C282.82 94.0533 286.911 87.3265 295.051 75.0257C296.901 72.1505 300.06 66.9155 304.502 59.3207C307.553 54.1264 309.389 51.4547 310.01 51.2784C310.793 51.075 311.765 51.3055 312.926 51.9565C314.087 52.621 314.87 53.3127 315.288 54.0586C315.585 54.4384 315.005 55.7132 313.56 57.856C312.494 60.3108 312.116 64.298 312.386 69.8043C312.71 76.1242 312.669 80.342 312.251 82.4577C314.451 81.983 316.665 80.8574 318.893 79.0807C320.108 78.0093 321.323 76.9379 322.538 75.8665C323.888 74.9172 324.847 74.7951 325.414 75.5139ZM303.881 86.6213C303.07 86.4043 301.788 86.0924 300.019 85.6855C297.9 85.1837 296.739 85.1159 296.536 85.4821C296.293 85.9567 296.32 86.6348 296.604 87.5435C296.658 87.5842 296.671 87.6656 296.644 87.7741C297.279 89.4015 298.318 90.161 299.776 90.0389C301.477 89.8219 302.854 88.6827 303.881 86.6213ZM305.933 68.5565C302.517 73.2626 299.574 77.5889 297.103 81.5084C297.427 81.5084 300.181 81.766 305.352 82.3085C305.825 80.5183 306.027 78.267 305.946 75.541C305.879 71.4453 305.879 69.1126 305.933 68.5565Z" fill="#70E4DE"/>
<path d="M349.85 74.0221C347.433 76.7752 343.909 79.7724 339.279 83.0138C334.149 86.7298 330.085 88.8726 327.074 89.4422C326.183 89.6185 325.427 89.6321 324.833 89.4965C324.239 89.3608 323.564 88.7912 322.835 87.7876C322.538 87.6249 322.187 87.4214 321.823 87.1638C321.283 86.8925 320.621 86.0381 319.825 84.6412C319.042 83.2307 318.65 82.2272 318.637 81.6304C318.475 80.4641 318.677 77.9822 319.271 74.2119C320.5 69.4923 322.106 65.4508 324.091 62.0874C326.075 58.724 328.181 55.9031 330.423 53.6111C333.123 50.9122 335.782 49.2034 338.361 48.4846C338.617 48.4303 338.86 48.3897 339.076 48.349C339.13 48.3354 339.184 48.3354 339.238 48.3218C339.616 48.037 340.183 48.1455 340.939 48.6609C342.978 50.207 344.287 52.0514 344.854 54.2078C345.543 56.6761 345.624 59.5784 345.124 62.9418C345.07 63.2266 345.003 63.4572 344.935 63.647C344.679 64.5828 344.071 65.9119 343.113 67.6479C342.154 69.3838 339.265 70.6993 334.419 71.6351C331.678 72.1641 329.316 72.2183 327.331 71.7979C325.603 77.06 325.036 80.7218 325.643 82.7832C326.494 83.2172 327.277 83.3664 328.019 83.2172C330.288 82.7832 333.987 80.9116 339.144 77.6025C343.329 74.9579 346.15 72.9913 347.595 71.6894C348.149 71.1469 348.743 70.8214 349.364 70.6993C350.309 70.523 350.849 70.7943 350.997 71.5402C351.146 72.1912 350.754 73.032 349.85 74.0221ZM340.278 53.272C340.197 53.1228 340.048 53.0415 339.819 53.0279C338.739 53.3534 337.632 54.1942 336.538 55.5505C333.919 58.7511 331.638 62.3315 329.653 66.2781C331.192 66.3188 333.123 66.0069 335.445 65.3287C337.2 64.8269 338.104 64.5693 338.158 64.5557C339.117 64.1488 339.832 63.4707 340.305 62.4943C341.331 57.5305 341.317 54.4384 340.278 53.272Z" fill="#70E4DE"/>
<g opacity="0.4">
<g opacity="0.4">
<path opacity="0.4" d="M84.1615 33.1051L83.7834 34.4477C83.7294 34.719 83.4999 34.8953 83.2299 34.9088L76.9252 35.2886L78.4778 60.8939C78.5048 61.2736 78.2483 61.572 77.8703 61.5855L68.798 62.1416C68.42 62.1687 68.123 61.911 68.1095 61.5313L66.557 35.926C66.557 35.926 61.8723 36.2108 59.8608 36.3329C59.4423 36.36 59.1047 35.9531 59.2263 35.5191L59.6043 34.1765C59.6583 33.9052 59.8878 33.7289 60.1578 33.7154C63.0739 33.5391 79.4903 32.5355 83.5269 32.2914C83.959 32.2642 84.283 32.6711 84.1615 33.1051Z" fill="#FC6170"/>
<path opacity="0.4" d="M109.002 59.7004L99.5787 60.27C99.2277 60.2972 98.9172 60.0802 98.7822 59.7818L95.2721 51.5903L87.7389 52.0514L85.1738 60.6227C85.0793 60.9753 84.7823 61.1923 84.4313 61.2058L82.8113 61.3008C82.5413 61.3143 82.3387 61.0567 82.4332 60.7854L90.898 32.3999C90.9925 32.0473 91.2895 31.8303 91.6 31.8167L96.7166 31.5048C97.0676 31.4776 97.3781 31.654 97.5132 31.993L109.353 59.1308C109.447 59.4021 109.272 59.6869 109.002 59.7004ZM94.1921 49.0542L90.9115 41.3916L88.5084 49.4068L94.1921 49.0542Z" fill="#FC6170"/>
<path opacity="0.4" d="M137.839 57.9374L128.267 58.5206C127.889 58.5477 127.565 58.3714 127.349 58.073L120.828 48.5795L121.409 58.2764C121.436 58.6562 121.179 58.9545 120.801 58.9681L111.729 59.5242C111.351 59.5513 111.054 59.2936 111.04 58.9139L109.38 31.3827C109.353 31.0301 109.609 30.7046 109.987 30.6911L119.06 30.135C119.438 30.1079 119.735 30.4063 119.748 30.7453L120.518 43.5344L131.102 29.7417C131.277 29.4976 131.547 29.362 131.844 29.3484L133.991 29.2128C134.302 29.1992 134.518 29.5247 134.302 29.7824L126.633 39.8591L138.109 57.3813C138.244 57.5983 138.109 57.9238 137.839 57.9374Z" fill="#FC6170"/>
<path opacity="0.4" d="M148.815 30.9081L149.449 41.378L155.794 40.9847C156.145 40.9576 156.469 41.256 156.483 41.595L156.564 42.9105C156.591 43.2632 156.294 43.548 155.943 43.5751L149.598 43.9684L150.246 54.5875L160.209 53.9772C160.587 53.9501 160.884 54.2485 160.898 54.5875L160.979 55.8624C161.006 56.2421 160.749 56.5405 160.371 56.554L140.687 57.7611C140.309 57.7882 140.012 57.5305 139.999 57.1508L138.338 29.6197C138.311 29.267 138.568 28.9416 138.946 28.928L158.629 27.721C159.007 27.6938 159.304 27.9922 159.318 28.3313L159.399 29.6061C159.426 29.9587 159.169 30.2842 158.791 30.2978L148.815 30.9081Z" fill="#FC6170"/>
<path opacity="0.4" d="M86.2946 68.3124L85.9165 69.6551C85.8625 69.9263 85.633 70.1026 85.363 70.1162L79.0584 70.4959L80.5974 96.1012C80.6244 96.4809 80.3679 96.7793 79.9899 96.7929L70.9176 97.3489C70.5396 97.376 70.2426 97.1184 70.2291 96.7386L68.6766 71.1333C68.6766 71.1333 63.992 71.4181 61.9804 71.5402C61.5619 71.5673 61.2244 71.1605 61.3459 70.7265L61.7239 69.3838C61.7779 69.1126 62.0074 68.9363 62.2774 68.9227C65.1935 68.7464 81.6099 67.7428 85.6465 67.4987C86.0785 67.4716 86.4161 67.8784 86.2946 68.3124Z" fill="#FC6170"/>
<path opacity="0.4" d="M117.035 66.2374L118.696 93.7821C118.723 94.1618 118.466 94.4602 118.115 94.4738L109.002 95.0298C108.651 95.0569 108.327 94.7993 108.314 94.4195L107.558 81.861L99.3631 82.3628L100.119 94.9213C100.146 95.3011 99.8896 95.5994 99.5116 95.613L90.4394 96.169C90.0614 96.1962 89.7644 95.9385 89.7509 95.5587L88.0903 68.0141C88.0633 67.6615 88.3198 67.336 88.6978 67.3224L97.7701 66.7664C98.1481 66.7392 98.4451 67.0376 98.4586 67.3767L99.2146 79.7724L107.409 79.2706L106.653 66.8749C106.626 66.5223 106.923 66.1968 107.261 66.1832L116.374 65.6272C116.725 65.6 117.008 65.8848 117.035 66.2374Z" fill="#FC6170"/>
<path opacity="0.4" d="M129.914 67.3901L130.549 77.8601L136.894 77.4668C137.245 77.4397 137.569 77.738 137.582 78.0771L137.663 79.3926C137.69 79.7452 137.393 80.03 137.042 80.0571L130.697 80.4504L131.345 91.0696L141.308 90.4593C141.686 90.4321 141.983 90.7305 141.997 91.0696L142.078 92.3444C142.105 92.7241 141.848 93.0225 141.47 93.0361L121.773 94.2431C121.395 94.2702 121.098 94.0125 121.085 93.6328L119.424 66.0882C119.397 65.7356 119.654 65.4101 120.032 65.3965L139.715 64.1895C140.093 64.1624 140.39 64.4607 140.404 64.7998L140.485 66.0746C140.512 66.4272 140.255 66.7527 139.877 66.7663L129.914 67.3901Z" fill="#FC6170"/>
</g>
</g>
<path d="M86.0516 30.3927L85.6736 31.7353C85.6196 32.0066 85.3901 32.1829 85.1201 32.1964L78.8154 32.5762L80.3679 58.1815C80.3949 58.5612 80.1384 58.8596 79.7604 58.8731L70.6882 59.4292C70.3102 59.4563 70.0131 59.1986 69.9996 58.8189L68.4471 33.2136C68.4471 33.2136 63.7625 33.4984 61.7509 33.6204C61.3324 33.6476 60.9949 33.2407 61.1164 32.8067L61.4944 31.4641C61.5484 31.1928 61.7779 31.0165 62.0479 31.003C64.964 30.8267 81.3805 29.8231 85.4171 29.5789C85.8491 29.5518 86.1731 29.9587 86.0516 30.3927Z" fill="#FC6170"/>
<path d="M110.892 56.988L101.469 57.5576C101.118 57.5848 100.807 57.3678 100.672 57.0694L97.1622 48.8779L89.629 49.339L87.064 57.9102C86.9695 58.2629 86.6724 58.4798 86.3214 58.4934L84.7014 58.5883C84.4314 58.6019 84.2289 58.3442 84.3234 58.073L92.7881 29.6875C92.8826 29.3348 93.1796 29.1179 93.4901 29.1043L98.6068 28.7924C98.9578 28.7652 99.2683 28.9415 99.4033 29.2806L111.243 56.4184C111.338 56.6897 111.162 56.9745 110.892 56.988ZM96.0822 46.3418L92.8016 38.6791L90.3985 46.6944L96.0822 46.3418Z" fill="#FC6170"/>
<path d="M139.729 55.225L130.158 55.8081C129.78 55.8353 129.456 55.659 129.24 55.3606L122.719 45.8671L123.299 55.564C123.326 55.9438 123.07 56.2421 122.692 56.2557L113.62 56.8117C113.242 56.8389 112.945 56.5812 112.931 56.2014L111.271 28.6703C111.244 28.3177 111.5 27.9922 111.878 27.9787L120.95 27.4226C121.328 27.3955 121.625 27.6939 121.639 28.0329L122.408 40.822L132.993 27.0293C133.168 26.7852 133.438 26.6496 133.735 26.636L135.882 26.5004C136.192 26.4868 136.408 26.8123 136.192 27.07L128.524 37.1467L139.999 54.6689C140.134 54.8859 139.999 55.2114 139.729 55.225Z" fill="#FC6170"/>
<path d="M150.705 28.1956L151.339 38.6656L157.685 38.2723C158.036 38.2452 158.36 38.5435 158.373 38.8826L158.454 40.1981C158.481 40.5507 158.184 40.8355 157.833 40.8627L151.488 41.256L152.136 51.8751L162.099 51.2648C162.477 51.2377 162.774 51.536 162.788 51.8751L162.869 53.1499C162.896 53.5297 162.639 53.828 162.261 53.8416L142.578 55.0486C142.2 55.0758 141.903 54.8181 141.889 54.4383L140.229 26.9072C140.202 26.5546 140.458 26.2291 140.836 26.2156L160.52 25.0085C160.898 24.9814 161.195 25.2798 161.208 25.6188L161.289 26.8937C161.316 27.2463 161.06 27.5718 160.682 27.5853L150.705 28.1956Z" fill="#FC6170"/>
<path d="M88.1847 65.6L87.8067 66.9427C87.7527 67.2139 87.5232 67.3902 87.2532 67.4038L80.9485 67.7835L82.4876 93.3888C82.5146 93.7685 82.2581 94.0669 81.88 94.0805L72.8078 94.6365C72.4298 94.6636 72.1328 94.4059 72.1193 94.0262L70.5667 68.4209C70.5667 68.4209 65.8821 68.7057 63.8705 68.8278C63.452 68.8549 63.1145 68.4481 63.236 68.0141L63.614 66.6714C63.668 66.4002 63.8975 66.2239 64.1675 66.2103C67.0836 66.034 83.5001 65.0304 87.5367 64.7863C87.9687 64.7592 88.3062 65.166 88.1847 65.6Z" fill="#FC6170"/>
<path d="M118.925 63.525L120.586 91.0697C120.613 91.4494 120.356 91.7478 120.005 91.7613L110.893 92.3174C110.542 92.3445 110.218 92.0868 110.204 91.7071L109.448 79.1486L101.253 79.6504L102.009 92.2089C102.036 92.5886 101.78 92.887 101.402 92.9006L92.3295 93.4566C91.9515 93.4837 91.6545 93.226 91.641 92.8463L89.9805 65.3016C89.9535 64.949 90.21 64.6235 90.588 64.61L99.6602 64.0539C100.038 64.0268 100.335 64.3252 100.349 64.6642L101.105 77.06L109.299 76.5582L108.543 64.1624C108.516 63.8098 108.813 63.4843 109.151 63.4708L118.264 62.9147C118.615 62.8876 118.898 63.1724 118.925 63.525Z" fill="#FC6170"/>
<path d="M131.804 64.6777L132.439 75.1477L138.784 74.7544C139.135 74.7273 139.459 75.0256 139.472 75.3647L139.553 76.6802C139.58 77.0328 139.283 77.3176 138.932 77.3448L132.587 77.7381L133.235 88.3572L143.199 87.7469C143.577 87.7198 143.874 88.0181 143.887 88.3572L143.968 89.632C143.995 90.0118 143.739 90.3101 143.361 90.3237L123.664 91.5307C123.286 91.5579 122.989 91.3002 122.975 90.9204L121.314 63.3758C121.287 63.0232 121.544 62.6977 121.922 62.6841L141.606 61.4771C141.984 61.4499 142.281 61.7483 142.294 62.0874L142.375 63.3622C142.402 63.7148 142.146 64.0403 141.768 64.0539L131.804 64.6777Z" fill="#FC6170"/>
</g>
<defs>
<clipPath id="clip0">
<rect width="375" height="230" fill="white"/>
</clipPath>
</defs>
</svg>
